<?xml version="1.0" encoding="utf-8" standalone="no"?>
<!DOCTYPE svg PUBLIC "-//W3C//DTD SVG 1.1//EN"
  "http://www.w3.org/Graphics/SVG/1.1/DTD/svg11.dtd">
<!-- Created with matplotlib (https://matplotlib.org/) -->
<svg height="380.88pt" version="1.1" viewBox="0 0 528.48 380.88" width="528.48pt" xmlns="http://www.w3.org/2000/svg" xmlns:xlink="http://www.w3.org/1999/xlink">
 <metadata>
  <rdf:RDF xmlns:cc="http://creativecommons.org/ns#" xmlns:dc="http://purl.org/dc/elements/1.1/" xmlns:rdf="http://www.w3.org/1999/02/22-rdf-syntax-ns#">
   <cc:Work>
    <dc:type rdf:resource="http://purl.org/dc/dcmitype/StillImage"/>
    <dc:date>2020-10-20T13:47:57.853532</dc:date>
    <dc:format>image/svg+xml</dc:format>
    <dc:creator>
     <cc:Agent>
      <dc:title>Matplotlib v3.3.2, https://matplotlib.org/</dc:title>
     </cc:Agent>
    </dc:creator>
   </cc:Work>
  </rdf:RDF>
 </metadata>
 <defs>
  <style type="text/css">*{stroke-linecap:butt;stroke-linejoin:round;}</style>
 </defs>
 <g id="figure_1">
  <g id="patch_1">
   <path d="M 0 380.88 
L 528.48 380.88 
L 528.48 0 
L 0 0 
z
" style="fill:#ffffff;"/>
  </g>
  <g id="axes_1">
   <g id="patch_2">
    <path d="M 66.06 338.9832 
L 475.632 338.9832 
L 475.632 45.7056 
L 66.06 45.7056 
z
" style="fill:#ffffff;"/>
   </g>
   <g id="matplotlib.axis_1">
    <g id="xtick_1">
     <g id="line2d_1">
      <path clip-path="url(#p8b52a84649)" d="M 84.676909 338.9832 
L 84.676909 45.7056 
" style="fill:none;stroke:#b0b0b0;stroke-linecap:square;stroke-width:0.8;"/>
     </g>
     <g id="line2d_2">
      <defs>
       <path d="M 0 0 
L 0 3.5 
" id="m899f2b5870" style="stroke:#000000;stroke-width:0.8;"/>
      </defs>
      <g>
       <use style="stroke:#000000;stroke-width:0.8;" x="84.676909" xlink:href="#m899f2b5870" y="338.9832"/>
      </g>
     </g>
     <g id="text_1">
      <!-- 0.0 -->
      <g transform="translate(76.725347 353.581637)scale(0.1 -0.1)">
       <defs>
        <path d="M 31.78125 66.40625 
Q 24.171875 66.40625 20.328125 58.90625 
Q 16.5 51.421875 16.5 36.375 
Q 16.5 21.390625 20.328125 13.890625 
Q 24.171875 6.390625 31.78125 6.390625 
Q 39.453125 6.390625 43.28125 13.890625 
Q 47.125 21.390625 47.125 36.375 
Q 47.125 51.421875 43.28125 58.90625 
Q 39.453125 66.40625 31.78125 66.40625 
z
M 31.78125 74.21875 
Q 44.046875 74.21875 50.515625 64.515625 
Q 56.984375 54.828125 56.984375 36.375 
Q 56.984375 17.96875 50.515625 8.265625 
Q 44.046875 -1.421875 31.78125 -1.421875 
Q 19.53125 -1.421875 13.0625 8.265625 
Q 6.59375 17.96875 6.59375 36.375 
Q 6.59375 54.828125 13.0625 64.515625 
Q 19.53125 74.21875 31.78125 74.21875 
z
" id="DejaVuSans-48"/>
        <path d="M 10.6875 12.40625 
L 21 12.40625 
L 21 0 
L 10.6875 0 
z
" id="DejaVuSans-46"/>
       </defs>
       <use xlink:href="#DejaVuSans-48"/>
       <use x="63.623047" xlink:href="#DejaVuSans-46"/>
       <use x="95.410156" xlink:href="#DejaVuSans-48"/>
      </g>
     </g>
    </g>
    <g id="xtick_2">
     <g id="line2d_3">
      <path clip-path="url(#p8b52a84649)" d="M 159.144545 338.9832 
L 159.144545 45.7056 
" style="fill:none;stroke:#b0b0b0;stroke-linecap:square;stroke-width:0.8;"/>
     </g>
     <g id="line2d_4">
      <g>
       <use style="stroke:#000000;stroke-width:0.8;" x="159.144545" xlink:href="#m899f2b5870" y="338.9832"/>
      </g>
     </g>
     <g id="text_2">
      <!-- 0.2 -->
      <g transform="translate(151.192983 353.581637)scale(0.1 -0.1)">
       <defs>
        <path d="M 19.1875 8.296875 
L 53.609375 8.296875 
L 53.609375 0 
L 7.328125 0 
L 7.328125 8.296875 
Q 12.9375 14.109375 22.625 23.890625 
Q 32.328125 33.6875 34.8125 36.53125 
Q 39.546875 41.84375 41.421875 45.53125 
Q 43.3125 49.21875 43.3125 52.78125 
Q 43.3125 58.59375 39.234375 62.25 
Q 35.15625 65.921875 28.609375 65.921875 
Q 23.96875 65.921875 18.8125 64.3125 
Q 13.671875 62.703125 7.8125 59.421875 
L 7.8125 69.390625 
Q 13.765625 71.78125 18.9375 73 
Q 24.125 74.21875 28.421875 74.21875 
Q 39.75 74.21875 46.484375 68.546875 
Q 53.21875 62.890625 53.21875 53.421875 
Q 53.21875 48.921875 51.53125 44.890625 
Q 49.859375 40.875 45.40625 35.40625 
Q 44.1875 33.984375 37.640625 27.21875 
Q 31.109375 20.453125 19.1875 8.296875 
z
" id="DejaVuSans-50"/>
       </defs>
       <use xlink:href="#DejaVuSans-48"/>
       <use x="63.623047" xlink:href="#DejaVuSans-46"/>
       <use x="95.410156" xlink:href="#DejaVuSans-50"/>
      </g>
     </g>
    </g>
    <g id="xtick_3">
     <g id="line2d_5">
      <path clip-path="url(#p8b52a84649)" d="M 233.612182 338.9832 
L 233.612182 45.7056 
" style="fill:none;stroke:#b0b0b0;stroke-linecap:square;stroke-width:0.8;"/>
     </g>
     <g id="line2d_6">
      <g>
       <use style="stroke:#000000;stroke-width:0.8;" x="233.612182" xlink:href="#m899f2b5870" y="338.9832"/>
      </g>
     </g>
     <g id="text_3">
      <!-- 0.4 -->
      <g transform="translate(225.660619 353.581637)scale(0.1 -0.1)">
       <defs>
        <path d="M 37.796875 64.3125 
L 12.890625 25.390625 
L 37.796875 25.390625 
z
M 35.203125 72.90625 
L 47.609375 72.90625 
L 47.609375 25.390625 
L 58.015625 25.390625 
L 58.015625 17.1875 
L 47.609375 17.1875 
L 47.609375 0 
L 37.796875 0 
L 37.796875 17.1875 
L 4.890625 17.1875 
L 4.890625 26.703125 
z
" id="DejaVuSans-52"/>
       </defs>
       <use xlink:href="#DejaVuSans-48"/>
       <use x="63.623047" xlink:href="#DejaVuSans-46"/>
       <use x="95.410156" xlink:href="#DejaVuSans-52"/>
      </g>
     </g>
    </g>
    <g id="xtick_4">
     <g id="line2d_7">
      <path clip-path="url(#p8b52a84649)" d="M 308.079818 338.9832 
L 308.079818 45.7056 
" style="fill:none;stroke:#b0b0b0;stroke-linecap:square;stroke-width:0.8;"/>
     </g>
     <g id="line2d_8">
      <g>
       <use style="stroke:#000000;stroke-width:0.8;" x="308.079818" xlink:href="#m899f2b5870" y="338.9832"/>
      </g>
     </g>
     <g id="text_4">
      <!-- 0.6 -->
      <g transform="translate(300.128256 353.581637)scale(0.1 -0.1)">
       <defs>
        <path d="M 33.015625 40.375 
Q 26.375 40.375 22.484375 35.828125 
Q 18.609375 31.296875 18.609375 23.390625 
Q 18.609375 15.53125 22.484375 10.953125 
Q 26.375 6.390625 33.015625 6.390625 
Q 39.65625 6.390625 43.53125 10.953125 
Q 47.40625 15.53125 47.40625 23.390625 
Q 47.40625 31.296875 43.53125 35.828125 
Q 39.65625 40.375 33.015625 40.375 
z
M 52.59375 71.296875 
L 52.59375 62.3125 
Q 48.875 64.0625 45.09375 64.984375 
Q 41.3125 65.921875 37.59375 65.921875 
Q 27.828125 65.921875 22.671875 59.328125 
Q 17.53125 52.734375 16.796875 39.40625 
Q 19.671875 43.65625 24.015625 45.921875 
Q 28.375 48.1875 33.59375 48.1875 
Q 44.578125 48.1875 50.953125 41.515625 
Q 57.328125 34.859375 57.328125 23.390625 
Q 57.328125 12.15625 50.6875 5.359375 
Q 44.046875 -1.421875 33.015625 -1.421875 
Q 20.359375 -1.421875 13.671875 8.265625 
Q 6.984375 17.96875 6.984375 36.375 
Q 6.984375 53.65625 15.1875 63.9375 
Q 23.390625 74.21875 37.203125 74.21875 
Q 40.921875 74.21875 44.703125 73.484375 
Q 48.484375 72.75 52.59375 71.296875 
z
" id="DejaVuSans-54"/>
       </defs>
       <use xlink:href="#DejaVuSans-48"/>
       <use x="63.623047" xlink:href="#DejaVuSans-46"/>
       <use x="95.410156" xlink:href="#DejaVuSans-54"/>
      </g>
     </g>
    </g>
    <g id="xtick_5">
     <g id="line2d_9">
      <path clip-path="url(#p8b52a84649)" d="M 382.547455 338.9832 
L 382.547455 45.7056 
" style="fill:none;stroke:#b0b0b0;stroke-linecap:square;stroke-width:0.8;"/>
     </g>
     <g id="line2d_10">
      <g>
       <use style="stroke:#000000;stroke-width:0.8;" x="382.547455" xlink:href="#m899f2b5870" y="338.9832"/>
      </g>
     </g>
     <g id="text_5">
      <!-- 0.8 -->
      <g transform="translate(374.595892 353.581637)scale(0.1 -0.1)">
       <defs>
        <path d="M 31.78125 34.625 
Q 24.75 34.625 20.71875 30.859375 
Q 16.703125 27.09375 16.703125 20.515625 
Q 16.703125 13.921875 20.71875 10.15625 
Q 24.75 6.390625 31.78125 6.390625 
Q 38.8125 6.390625 42.859375 10.171875 
Q 46.921875 13.96875 46.921875 20.515625 
Q 46.921875 27.09375 42.890625 30.859375 
Q 38.875 34.625 31.78125 34.625 
z
M 21.921875 38.8125 
Q 15.578125 40.375 12.03125 44.71875 
Q 8.5 49.078125 8.5 55.328125 
Q 8.5 64.0625 14.71875 69.140625 
Q 20.953125 74.21875 31.78125 74.21875 
Q 42.671875 74.21875 48.875 69.140625 
Q 55.078125 64.0625 55.078125 55.328125 
Q 55.078125 49.078125 51.53125 44.71875 
Q 48 40.375 41.703125 38.8125 
Q 48.828125 37.15625 52.796875 32.3125 
Q 56.78125 27.484375 56.78125 20.515625 
Q 56.78125 9.90625 50.3125 4.234375 
Q 43.84375 -1.421875 31.78125 -1.421875 
Q 19.734375 -1.421875 13.25 4.234375 
Q 6.78125 9.90625 6.78125 20.515625 
Q 6.78125 27.484375 10.78125 32.3125 
Q 14.796875 37.15625 21.921875 38.8125 
z
M 18.3125 54.390625 
Q 18.3125 48.734375 21.84375 45.5625 
Q 25.390625 42.390625 31.78125 42.390625 
Q 38.140625 42.390625 41.71875 45.5625 
Q 45.3125 48.734375 45.3125 54.390625 
Q 45.3125 60.0625 41.71875 63.234375 
Q 38.140625 66.40625 31.78125 66.40625 
Q 25.390625 66.40625 21.84375 63.234375 
Q 18.3125 60.0625 18.3125 54.390625 
z
" id="DejaVuSans-56"/>
       </defs>
       <use xlink:href="#DejaVuSans-48"/>
       <use x="63.623047" xlink:href="#DejaVuSans-46"/>
       <use x="95.410156" xlink:href="#DejaVuSans-56"/>
      </g>
     </g>
    </g>
    <g id="xtick_6">
     <g id="line2d_11">
      <path clip-path="url(#p8b52a84649)" d="M 457.015091 338.9832 
L 457.015091 45.7056 
" style="fill:none;stroke:#b0b0b0;stroke-linecap:square;stroke-width:0.8;"/>
     </g>
     <g id="line2d_12">
      <g>
       <use style="stroke:#000000;stroke-width:0.8;" x="457.015091" xlink:href="#m899f2b5870" y="338.9832"/>
      </g>
     </g>
     <g id="text_6">
      <!-- 1.0 -->
      <g transform="translate(449.063528 353.581637)scale(0.1 -0.1)">
       <defs>
        <path d="M 12.40625 8.296875 
L 28.515625 8.296875 
L 28.515625 63.921875 
L 10.984375 60.40625 
L 10.984375 69.390625 
L 28.421875 72.90625 
L 38.28125 72.90625 
L 38.28125 8.296875 
L 54.390625 8.296875 
L 54.390625 0 
L 12.40625 0 
z
" id="DejaVuSans-49"/>
       </defs>
       <use xlink:href="#DejaVuSans-49"/>
       <use x="63.623047" xlink:href="#DejaVuSans-46"/>
       <use x="95.410156" xlink:href="#DejaVuSans-48"/>
      </g>
     </g>
    </g>
    <g id="text_7">
     <!-- N [number of time steps] -->
     <g transform="translate(207.797562 367.259763)scale(0.1 -0.1)">
      <defs>
       <path d="M 9.8125 72.90625 
L 23.09375 72.90625 
L 55.421875 11.921875 
L 55.421875 72.90625 
L 64.984375 72.90625 
L 64.984375 0 
L 51.703125 0 
L 19.390625 60.984375 
L 19.390625 0 
L 9.8125 0 
z
" id="DejaVuSans-78"/>
       <path id="DejaVuSans-32"/>
       <path d="M 8.59375 75.984375 
L 29.296875 75.984375 
L 29.296875 69 
L 17.578125 69 
L 17.578125 -6.203125 
L 29.296875 -6.203125 
L 29.296875 -13.1875 
L 8.59375 -13.1875 
z
" id="DejaVuSans-91"/>
       <path d="M 54.890625 33.015625 
L 54.890625 0 
L 45.90625 0 
L 45.90625 32.71875 
Q 45.90625 40.484375 42.875 44.328125 
Q 39.84375 48.1875 33.796875 48.1875 
Q 26.515625 48.1875 22.3125 43.546875 
Q 18.109375 38.921875 18.109375 30.90625 
L 18.109375 0 
L 9.078125 0 
L 9.078125 54.6875 
L 18.109375 54.6875 
L 18.109375 46.1875 
Q 21.34375 51.125 25.703125 53.5625 
Q 30.078125 56 35.796875 56 
Q 45.21875 56 50.046875 50.171875 
Q 54.890625 44.34375 54.890625 33.015625 
z
" id="DejaVuSans-110"/>
       <path d="M 8.5 21.578125 
L 8.5 54.6875 
L 17.484375 54.6875 
L 17.484375 21.921875 
Q 17.484375 14.15625 20.5 10.265625 
Q 23.53125 6.390625 29.59375 6.390625 
Q 36.859375 6.390625 41.078125 11.03125 
Q 45.3125 15.671875 45.3125 23.6875 
L 45.3125 54.6875 
L 54.296875 54.6875 
L 54.296875 0 
L 45.3125 0 
L 45.3125 8.40625 
Q 42.046875 3.421875 37.71875 1 
Q 33.40625 -1.421875 27.6875 -1.421875 
Q 18.265625 -1.421875 13.375 4.4375 
Q 8.5 10.296875 8.5 21.578125 
z
M 31.109375 56 
z
" id="DejaVuSans-117"/>
       <path d="M 52 44.1875 
Q 55.375 50.25 60.0625 53.125 
Q 64.75 56 71.09375 56 
Q 79.640625 56 84.28125 50.015625 
Q 88.921875 44.046875 88.921875 33.015625 
L 88.921875 0 
L 79.890625 0 
L 79.890625 32.71875 
Q 79.890625 40.578125 77.09375 44.375 
Q 74.3125 48.1875 68.609375 48.1875 
Q 61.625 48.1875 57.5625 43.546875 
Q 53.515625 38.921875 53.515625 30.90625 
L 53.515625 0 
L 44.484375 0 
L 44.484375 32.71875 
Q 44.484375 40.625 41.703125 44.40625 
Q 38.921875 48.1875 33.109375 48.1875 
Q 26.21875 48.1875 22.15625 43.53125 
Q 18.109375 38.875 18.109375 30.90625 
L 18.109375 0 
L 9.078125 0 
L 9.078125 54.6875 
L 18.109375 54.6875 
L 18.109375 46.1875 
Q 21.1875 51.21875 25.484375 53.609375 
Q 29.78125 56 35.6875 56 
Q 41.65625 56 45.828125 52.96875 
Q 50 49.953125 52 44.1875 
z
" id="DejaVuSans-109"/>
       <path d="M 48.6875 27.296875 
Q 48.6875 37.203125 44.609375 42.84375 
Q 40.53125 48.484375 33.40625 48.484375 
Q 26.265625 48.484375 22.1875 42.84375 
Q 18.109375 37.203125 18.109375 27.296875 
Q 18.109375 17.390625 22.1875 11.75 
Q 26.265625 6.109375 33.40625 6.109375 
Q 40.53125 6.109375 44.609375 11.75 
Q 48.6875 17.390625 48.6875 27.296875 
z
M 18.109375 46.390625 
Q 20.953125 51.265625 25.265625 53.625 
Q 29.59375 56 35.59375 56 
Q 45.5625 56 51.78125 48.09375 
Q 58.015625 40.1875 58.015625 27.296875 
Q 58.015625 14.40625 51.78125 6.484375 
Q 45.5625 -1.421875 35.59375 -1.421875 
Q 29.59375 -1.421875 25.265625 0.953125 
Q 20.953125 3.328125 18.109375 8.203125 
L 18.109375 0 
L 9.078125 0 
L 9.078125 75.984375 
L 18.109375 75.984375 
z
" id="DejaVuSans-98"/>
       <path d="M 56.203125 29.59375 
L 56.203125 25.203125 
L 14.890625 25.203125 
Q 15.484375 15.921875 20.484375 11.0625 
Q 25.484375 6.203125 34.421875 6.203125 
Q 39.59375 6.203125 44.453125 7.46875 
Q 49.3125 8.734375 54.109375 11.28125 
L 54.109375 2.78125 
Q 49.265625 0.734375 44.1875 -0.34375 
Q 39.109375 -1.421875 33.890625 -1.421875 
Q 20.796875 -1.421875 13.15625 6.1875 
Q 5.515625 13.8125 5.515625 26.8125 
Q 5.515625 40.234375 12.765625 48.109375 
Q 20.015625 56 32.328125 56 
Q 43.359375 56 49.78125 48.890625 
Q 56.203125 41.796875 56.203125 29.59375 
z
M 47.21875 32.234375 
Q 47.125 39.59375 43.09375 43.984375 
Q 39.0625 48.390625 32.421875 48.390625 
Q 24.90625 48.390625 20.390625 44.140625 
Q 15.875 39.890625 15.1875 32.171875 
z
" id="DejaVuSans-101"/>
       <path d="M 41.109375 46.296875 
Q 39.59375 47.171875 37.8125 47.578125 
Q 36.03125 48 33.890625 48 
Q 26.265625 48 22.1875 43.046875 
Q 18.109375 38.09375 18.109375 28.8125 
L 18.109375 0 
L 9.078125 0 
L 9.078125 54.6875 
L 18.109375 54.6875 
L 18.109375 46.1875 
Q 20.953125 51.171875 25.484375 53.578125 
Q 30.03125 56 36.53125 56 
Q 37.453125 56 38.578125 55.875 
Q 39.703125 55.765625 41.0625 55.515625 
z
" id="DejaVuSans-114"/>
       <path d="M 30.609375 48.390625 
Q 23.390625 48.390625 19.1875 42.75 
Q 14.984375 37.109375 14.984375 27.296875 
Q 14.984375 17.484375 19.15625 11.84375 
Q 23.34375 6.203125 30.609375 6.203125 
Q 37.796875 6.203125 41.984375 11.859375 
Q 46.1875 17.53125 46.1875 27.296875 
Q 46.1875 37.015625 41.984375 42.703125 
Q 37.796875 48.390625 30.609375 48.390625 
z
M 30.609375 56 
Q 42.328125 56 49.015625 48.375 
Q 55.71875 40.765625 55.71875 27.296875 
Q 55.71875 13.875 49.015625 6.21875 
Q 42.328125 -1.421875 30.609375 -1.421875 
Q 18.84375 -1.421875 12.171875 6.21875 
Q 5.515625 13.875 5.515625 27.296875 
Q 5.515625 40.765625 12.171875 48.375 
Q 18.84375 56 30.609375 56 
z
" id="DejaVuSans-111"/>
       <path d="M 37.109375 75.984375 
L 37.109375 68.5 
L 28.515625 68.5 
Q 23.6875 68.5 21.796875 66.546875 
Q 19.921875 64.59375 19.921875 59.515625 
L 19.921875 54.6875 
L 34.71875 54.6875 
L 34.71875 47.703125 
L 19.921875 47.703125 
L 19.921875 0 
L 10.890625 0 
L 10.890625 47.703125 
L 2.296875 47.703125 
L 2.296875 54.6875 
L 10.890625 54.6875 
L 10.890625 58.5 
Q 10.890625 67.625 15.140625 71.796875 
Q 19.390625 75.984375 28.609375 75.984375 
z
" id="DejaVuSans-102"/>
       <path d="M 18.3125 70.21875 
L 18.3125 54.6875 
L 36.8125 54.6875 
L 36.8125 47.703125 
L 18.3125 47.703125 
L 18.3125 18.015625 
Q 18.3125 11.328125 20.140625 9.421875 
Q 21.96875 7.515625 27.59375 7.515625 
L 36.8125 7.515625 
L 36.8125 0 
L 27.59375 0 
Q 17.1875 0 13.234375 3.875 
Q 9.28125 7.765625 9.28125 18.015625 
L 9.28125 47.703125 
L 2.6875 47.703125 
L 2.6875 54.6875 
L 9.28125 54.6875 
L 9.28125 70.21875 
z
" id="DejaVuSans-116"/>
       <path d="M 9.421875 54.6875 
L 18.40625 54.6875 
L 18.40625 0 
L 9.421875 0 
z
M 9.421875 75.984375 
L 18.40625 75.984375 
L 18.40625 64.59375 
L 9.421875 64.59375 
z
" id="DejaVuSans-105"/>
       <path d="M 44.28125 53.078125 
L 44.28125 44.578125 
Q 40.484375 46.53125 36.375 47.5 
Q 32.28125 48.484375 27.875 48.484375 
Q 21.1875 48.484375 17.84375 46.4375 
Q 14.5 44.390625 14.5 40.28125 
Q 14.5 37.15625 16.890625 35.375 
Q 19.28125 33.59375 26.515625 31.984375 
L 29.59375 31.296875 
Q 39.15625 29.25 43.1875 25.515625 
Q 47.21875 21.78125 47.21875 15.09375 
Q 47.21875 7.46875 41.1875 3.015625 
Q 35.15625 -1.421875 24.609375 -1.421875 
Q 20.21875 -1.421875 15.453125 -0.5625 
Q 10.6875 0.296875 5.421875 2 
L 5.421875 11.28125 
Q 10.40625 8.6875 15.234375 7.390625 
Q 20.0625 6.109375 24.8125 6.109375 
Q 31.15625 6.109375 34.5625 8.28125 
Q 37.984375 10.453125 37.984375 14.40625 
Q 37.984375 18.0625 35.515625 20.015625 
Q 33.0625 21.96875 24.703125 23.78125 
L 21.578125 24.515625 
Q 13.234375 26.265625 9.515625 29.90625 
Q 5.8125 33.546875 5.8125 39.890625 
Q 5.8125 47.609375 11.28125 51.796875 
Q 16.75 56 26.8125 56 
Q 31.78125 56 36.171875 55.265625 
Q 40.578125 54.546875 44.28125 53.078125 
z
" id="DejaVuSans-115"/>
       <path d="M 18.109375 8.203125 
L 18.109375 -20.796875 
L 9.078125 -20.796875 
L 9.078125 54.6875 
L 18.109375 54.6875 
L 18.109375 46.390625 
Q 20.953125 51.265625 25.265625 53.625 
Q 29.59375 56 35.59375 56 
Q 45.5625 56 51.78125 48.09375 
Q 58.015625 40.1875 58.015625 27.296875 
Q 58.015625 14.40625 51.78125 6.484375 
Q 45.5625 -1.421875 35.59375 -1.421875 
Q 29.59375 -1.421875 25.265625 0.953125 
Q 20.953125 3.328125 18.109375 8.203125 
z
M 48.6875 27.296875 
Q 48.6875 37.203125 44.609375 42.84375 
Q 40.53125 48.484375 33.40625 48.484375 
Q 26.265625 48.484375 22.1875 42.84375 
Q 18.109375 37.203125 18.109375 27.296875 
Q 18.109375 17.390625 22.1875 11.75 
Q 26.265625 6.109375 33.40625 6.109375 
Q 40.53125 6.109375 44.609375 11.75 
Q 48.6875 17.390625 48.6875 27.296875 
z
" id="DejaVuSans-112"/>
       <path d="M 30.421875 75.984375 
L 30.421875 -13.1875 
L 9.71875 -13.1875 
L 9.71875 -6.203125 
L 21.390625 -6.203125 
L 21.390625 69 
L 9.71875 69 
L 9.71875 75.984375 
z
" id="DejaVuSans-93"/>
      </defs>
      <use xlink:href="#DejaVuSans-78"/>
      <use x="74.804688" xlink:href="#DejaVuSans-32"/>
      <use x="106.591797" xlink:href="#DejaVuSans-91"/>
      <use x="145.605469" xlink:href="#DejaVuSans-110"/>
      <use x="208.984375" xlink:href="#DejaVuSans-117"/>
      <use x="272.363281" xlink:href="#DejaVuSans-109"/>
      <use x="369.775391" xlink:href="#DejaVuSans-98"/>
      <use x="433.251953" xlink:href="#DejaVuSans-101"/>
      <use x="494.775391" xlink:href="#DejaVuSans-114"/>
      <use x="535.888672" xlink:href="#DejaVuSans-32"/>
      <use x="567.675781" xlink:href="#DejaVuSans-111"/>
      <use x="628.857422" xlink:href="#DejaVuSans-102"/>
      <use x="664.0625" xlink:href="#DejaVuSans-32"/>
      <use x="695.849609" xlink:href="#DejaVuSans-116"/>
      <use x="735.058594" xlink:href="#DejaVuSans-105"/>
      <use x="762.841797" xlink:href="#DejaVuSans-109"/>
      <use x="860.253906" xlink:href="#DejaVuSans-101"/>
      <use x="921.777344" xlink:href="#DejaVuSans-32"/>
      <use x="953.564453" xlink:href="#DejaVuSans-115"/>
      <use x="1005.664062" xlink:href="#DejaVuSans-116"/>
      <use x="1044.873047" xlink:href="#DejaVuSans-101"/>
      <use x="1106.396484" xlink:href="#DejaVuSans-112"/>
      <use x="1169.873047" xlink:href="#DejaVuSans-115"/>
      <use x="1221.972656" xlink:href="#DejaVuSans-93"/>
     </g>
    </g>
    <g id="text_8">
     <!-- 1e7 -->
     <g transform="translate(456.753875 366.259763)scale(0.1 -0.1)">
      <defs>
       <path d="M 8.203125 72.90625 
L 55.078125 72.90625 
L 55.078125 68.703125 
L 28.609375 0 
L 18.3125 0 
L 43.21875 64.59375 
L 8.203125 64.59375 
z
" id="DejaVuSans-55"/>
      </defs>
      <use xlink:href="#DejaVuSans-49"/>
      <use x="63.623047" xlink:href="#DejaVuSans-101"/>
      <use x="125.146484" xlink:href="#DejaVuSans-55"/>
     </g>
    </g>
   </g>
   <g id="matplotlib.axis_2">
    <g id="ytick_1">
     <g id="line2d_13">
      <path clip-path="url(#p8b52a84649)" d="M 66.06 317.575818 
L 475.632 317.575818 
" style="fill:none;stroke:#b0b0b0;stroke-linecap:square;stroke-width:0.8;"/>
     </g>
     <g id="line2d_14">
      <defs>
       <path d="M 0 0 
L -3.5 0 
" id="m9e45327e8a" style="stroke:#000000;stroke-width:0.8;"/>
      </defs>
      <g>
       <use style="stroke:#000000;stroke-width:0.8;" x="66.06" xlink:href="#m9e45327e8a" y="317.575818"/>
      </g>
     </g>
     <g id="text_9">
      <!-- −2.0 -->
      <g transform="translate(34.777187 321.375036)scale(0.1 -0.1)">
       <defs>
        <path d="M 10.59375 35.5 
L 73.1875 35.5 
L 73.1875 27.203125 
L 10.59375 27.203125 
z
" id="DejaVuSans-8722"/>
       </defs>
       <use xlink:href="#DejaVuSans-8722"/>
       <use x="83.789062" xlink:href="#DejaVuSans-50"/>
       <use x="147.412109" xlink:href="#DejaVuSans-46"/>
       <use x="179.199219" xlink:href="#DejaVuSans-48"/>
      </g>
     </g>
    </g>
    <g id="ytick_2">
     <g id="line2d_15">
      <path clip-path="url(#p8b52a84649)" d="M 66.06 275.832043 
L 475.632 275.832043 
" style="fill:none;stroke:#b0b0b0;stroke-linecap:square;stroke-width:0.8;"/>
     </g>
     <g id="line2d_16">
      <g>
       <use style="stroke:#000000;stroke-width:0.8;" x="66.06" xlink:href="#m9e45327e8a" y="275.832043"/>
      </g>
     </g>
     <g id="text_10">
      <!-- −1.5 -->
      <g transform="translate(34.777187 279.631262)scale(0.1 -0.1)">
       <defs>
        <path d="M 10.796875 72.90625 
L 49.515625 72.90625 
L 49.515625 64.59375 
L 19.828125 64.59375 
L 19.828125 46.734375 
Q 21.96875 47.46875 24.109375 47.828125 
Q 26.265625 48.1875 28.421875 48.1875 
Q 40.625 48.1875 47.75 41.5 
Q 54.890625 34.8125 54.890625 23.390625 
Q 54.890625 11.625 47.5625 5.09375 
Q 40.234375 -1.421875 26.90625 -1.421875 
Q 22.3125 -1.421875 17.546875 -0.640625 
Q 12.796875 0.140625 7.71875 1.703125 
L 7.71875 11.625 
Q 12.109375 9.234375 16.796875 8.0625 
Q 21.484375 6.890625 26.703125 6.890625 
Q 35.15625 6.890625 40.078125 11.328125 
Q 45.015625 15.765625 45.015625 23.390625 
Q 45.015625 31 40.078125 35.4375 
Q 35.15625 39.890625 26.703125 39.890625 
Q 22.75 39.890625 18.8125 39.015625 
Q 14.890625 38.140625 10.796875 36.28125 
z
" id="DejaVuSans-53"/>
       </defs>
       <use xlink:href="#DejaVuSans-8722"/>
       <use x="83.789062" xlink:href="#DejaVuSans-49"/>
       <use x="147.412109" xlink:href="#DejaVuSans-46"/>
       <use x="179.199219" xlink:href="#DejaVuSans-53"/>
      </g>
     </g>
    </g>
    <g id="ytick_3">
     <g id="line2d_17">
      <path clip-path="url(#p8b52a84649)" d="M 66.06 234.088269 
L 475.632 234.088269 
" style="fill:none;stroke:#b0b0b0;stroke-linecap:square;stroke-width:0.8;"/>
     </g>
     <g id="line2d_18">
      <g>
       <use style="stroke:#000000;stroke-width:0.8;" x="66.06" xlink:href="#m9e45327e8a" y="234.088269"/>
      </g>
     </g>
     <g id="text_11">
      <!-- −1.0 -->
      <g transform="translate(34.777187 237.887488)scale(0.1 -0.1)">
       <use xlink:href="#DejaVuSans-8722"/>
       <use x="83.789062" xlink:href="#DejaVuSans-49"/>
       <use x="147.412109" xlink:href="#DejaVuSans-46"/>
       <use x="179.199219" xlink:href="#DejaVuSans-48"/>
      </g>
     </g>
    </g>
    <g id="ytick_4">
     <g id="line2d_19">
      <path clip-path="url(#p8b52a84649)" d="M 66.06 192.344495 
L 475.632 192.344495 
" style="fill:none;stroke:#b0b0b0;stroke-linecap:square;stroke-width:0.8;"/>
     </g>
     <g id="line2d_20">
      <g>
       <use style="stroke:#000000;stroke-width:0.8;" x="66.06" xlink:href="#m9e45327e8a" y="192.344495"/>
      </g>
     </g>
     <g id="text_12">
      <!-- −0.5 -->
      <g transform="translate(34.777187 196.143714)scale(0.1 -0.1)">
       <use xlink:href="#DejaVuSans-8722"/>
       <use x="83.789062" xlink:href="#DejaVuSans-48"/>
       <use x="147.412109" xlink:href="#DejaVuSans-46"/>
       <use x="179.199219" xlink:href="#DejaVuSans-53"/>
      </g>
     </g>
    </g>
    <g id="ytick_5">
     <g id="line2d_21">
      <path clip-path="url(#p8b52a84649)" d="M 66.06 150.600721 
L 475.632 150.600721 
" style="fill:none;stroke:#b0b0b0;stroke-linecap:square;stroke-width:0.8;"/>
     </g>
     <g id="line2d_22">
      <g>
       <use style="stroke:#000000;stroke-width:0.8;" x="66.06" xlink:href="#m9e45327e8a" y="150.600721"/>
      </g>
     </g>
     <g id="text_13">
      <!-- 0.0 -->
      <g transform="translate(43.156875 154.39994)scale(0.1 -0.1)">
       <use xlink:href="#DejaVuSans-48"/>
       <use x="63.623047" xlink:href="#DejaVuSans-46"/>
       <use x="95.410156" xlink:href="#DejaVuSans-48"/>
      </g>
     </g>
    </g>
    <g id="ytick_6">
     <g id="line2d_23">
      <path clip-path="url(#p8b52a84649)" d="M 66.06 108.856947 
L 475.632 108.856947 
" style="fill:none;stroke:#b0b0b0;stroke-linecap:square;stroke-width:0.8;"/>
     </g>
     <g id="line2d_24">
      <g>
       <use style="stroke:#000000;stroke-width:0.8;" x="66.06" xlink:href="#m9e45327e8a" y="108.856947"/>
      </g>
     </g>
     <g id="text_14">
      <!-- 0.5 -->
      <g transform="translate(43.156875 112.656165)scale(0.1 -0.1)">
       <use xlink:href="#DejaVuSans-48"/>
       <use x="63.623047" xlink:href="#DejaVuSans-46"/>
       <use x="95.410156" xlink:href="#DejaVuSans-53"/>
      </g>
     </g>
    </g>
    <g id="ytick_7">
     <g id="line2d_25">
      <path clip-path="url(#p8b52a84649)" d="M 66.06 67.113173 
L 475.632 67.113173 
" style="fill:none;stroke:#b0b0b0;stroke-linecap:square;stroke-width:0.8;"/>
     </g>
     <g id="line2d_26">
      <g>
       <use style="stroke:#000000;stroke-width:0.8;" x="66.06" xlink:href="#m9e45327e8a" y="67.113173"/>
      </g>
     </g>
     <g id="text_15">
      <!-- 1.0 -->
      <g transform="translate(43.156875 70.912391)scale(0.1 -0.1)">
       <use xlink:href="#DejaVuSans-49"/>
       <use x="63.623047" xlink:href="#DejaVuSans-46"/>
       <use x="95.410156" xlink:href="#DejaVuSans-48"/>
      </g>
     </g>
    </g>
    <g id="text_16">
     <!-- Energy $[E_{tot}/max(|E_{tot}|)]$ -->
     <g transform="translate(28.377187 251.6444)rotate(-90)scale(0.1 -0.1)">
      <defs>
       <path d="M 9.8125 72.90625 
L 55.90625 72.90625 
L 55.90625 64.59375 
L 19.671875 64.59375 
L 19.671875 43.015625 
L 54.390625 43.015625 
L 54.390625 34.71875 
L 19.671875 34.71875 
L 19.671875 8.296875 
L 56.78125 8.296875 
L 56.78125 0 
L 9.8125 0 
z
" id="DejaVuSans-69"/>
       <path d="M 45.40625 27.984375 
Q 45.40625 37.75 41.375 43.109375 
Q 37.359375 48.484375 30.078125 48.484375 
Q 22.859375 48.484375 18.828125 43.109375 
Q 14.796875 37.75 14.796875 27.984375 
Q 14.796875 18.265625 18.828125 12.890625 
Q 22.859375 7.515625 30.078125 7.515625 
Q 37.359375 7.515625 41.375 12.890625 
Q 45.40625 18.265625 45.40625 27.984375 
z
M 54.390625 6.78125 
Q 54.390625 -7.171875 48.1875 -13.984375 
Q 42 -20.796875 29.203125 -20.796875 
Q 24.46875 -20.796875 20.265625 -20.09375 
Q 16.0625 -19.390625 12.109375 -17.921875 
L 12.109375 -9.1875 
Q 16.0625 -11.328125 19.921875 -12.34375 
Q 23.78125 -13.375 27.78125 -13.375 
Q 36.625 -13.375 41.015625 -8.765625 
Q 45.40625 -4.15625 45.40625 5.171875 
L 45.40625 9.625 
Q 42.625 4.78125 38.28125 2.390625 
Q 33.9375 0 27.875 0 
Q 17.828125 0 11.671875 7.65625 
Q 5.515625 15.328125 5.515625 27.984375 
Q 5.515625 40.671875 11.671875 48.328125 
Q 17.828125 56 27.875 56 
Q 33.9375 56 38.28125 53.609375 
Q 42.625 51.21875 45.40625 46.390625 
L 45.40625 54.6875 
L 54.390625 54.6875 
z
" id="DejaVuSans-103"/>
       <path d="M 32.171875 -5.078125 
Q 28.375 -14.84375 24.75 -17.8125 
Q 21.140625 -20.796875 15.09375 -20.796875 
L 7.90625 -20.796875 
L 7.90625 -13.28125 
L 13.1875 -13.28125 
Q 16.890625 -13.28125 18.9375 -11.515625 
Q 21 -9.765625 23.484375 -3.21875 
L 25.09375 0.875 
L 2.984375 54.6875 
L 12.5 54.6875 
L 29.59375 11.921875 
L 46.6875 54.6875 
L 56.203125 54.6875 
z
" id="DejaVuSans-121"/>
       <path d="M 16.890625 72.90625 
L 62.984375 72.90625 
L 61.375 64.59375 
L 25.09375 64.59375 
L 20.90625 43.015625 
L 55.71875 43.015625 
L 54.109375 34.71875 
L 19.28125 34.71875 
L 14.203125 8.296875 
L 51.3125 8.296875 
L 49.703125 0 
L 2.6875 0 
z
" id="DejaVuSans-Oblique-69"/>
       <path d="M 42.28125 54.6875 
L 40.921875 47.703125 
L 23 47.703125 
L 17.1875 18.015625 
Q 16.890625 16.359375 16.75 15.234375 
Q 16.609375 14.109375 16.609375 13.484375 
Q 16.609375 10.359375 18.484375 8.9375 
Q 20.359375 7.515625 24.515625 7.515625 
L 33.59375 7.515625 
L 32.078125 0 
L 23.484375 0 
Q 15.484375 0 11.546875 3.125 
Q 7.625 6.25 7.625 12.59375 
Q 7.625 13.71875 7.765625 15.0625 
Q 7.90625 16.40625 8.203125 18.015625 
L 14.015625 47.703125 
L 6.390625 47.703125 
L 7.8125 54.6875 
L 15.28125 54.6875 
L 18.3125 70.21875 
L 27.296875 70.21875 
L 24.3125 54.6875 
z
" id="DejaVuSans-Oblique-116"/>
       <path d="M 25.390625 -1.421875 
Q 15.765625 -1.421875 10.171875 4.515625 
Q 4.59375 10.453125 4.59375 20.703125 
Q 4.59375 26.65625 6.515625 32.828125 
Q 8.453125 39.015625 11.53125 43.21875 
Q 16.359375 49.75 22.3125 52.875 
Q 28.265625 56 35.796875 56 
Q 45.125 56 50.859375 50.1875 
Q 56.59375 44.390625 56.59375 35.015625 
Q 56.59375 28.515625 54.6875 22.0625 
Q 52.78125 15.625 49.703125 11.375 
Q 44.921875 4.828125 38.96875 1.703125 
Q 33.015625 -1.421875 25.390625 -1.421875 
z
M 13.921875 21 
Q 13.921875 13.578125 17.015625 9.890625 
Q 20.125 6.203125 26.421875 6.203125 
Q 35.453125 6.203125 41.375 14.078125 
Q 47.3125 21.96875 47.3125 34.078125 
Q 47.3125 41.15625 44.140625 44.765625 
Q 40.96875 48.390625 34.8125 48.390625 
Q 29.734375 48.390625 25.78125 46.015625 
Q 21.828125 43.65625 18.703125 38.8125 
Q 16.40625 35.203125 15.15625 30.5625 
Q 13.921875 25.921875 13.921875 21 
z
" id="DejaVuSans-Oblique-111"/>
       <path d="M 25.390625 72.90625 
L 33.6875 72.90625 
L 8.296875 -9.28125 
L 0 -9.28125 
z
" id="DejaVuSans-47"/>
       <path d="M 89.796875 33.015625 
L 83.40625 0 
L 74.421875 0 
L 80.71875 32.71875 
Q 81.109375 34.8125 81.296875 36.328125 
Q 81.5 37.84375 81.5 38.921875 
Q 81.5 43.3125 79.046875 45.75 
Q 76.609375 48.1875 72.21875 48.1875 
Q 65.671875 48.1875 60.546875 43.28125 
Q 55.421875 38.375 53.90625 30.515625 
L 47.90625 0 
L 38.921875 0 
L 45.3125 32.71875 
Q 45.703125 34.515625 45.890625 36.046875 
Q 46.09375 37.59375 46.09375 38.8125 
Q 46.09375 43.265625 43.65625 45.71875 
Q 41.21875 48.1875 36.921875 48.1875 
Q 30.28125 48.1875 25.140625 43.28125 
Q 20.015625 38.375 18.5 30.515625 
L 12.5 0 
L 3.515625 0 
L 14.203125 54.6875 
L 23.1875 54.6875 
L 21.484375 46.1875 
Q 25.140625 50.984375 30.046875 53.484375 
Q 34.96875 56 40.578125 56 
Q 46.53125 56 50.359375 52.875 
Q 54.203125 49.75 54.984375 44.1875 
Q 59.078125 49.953125 64.46875 52.96875 
Q 69.875 56 75.875 56 
Q 82.90625 56 86.734375 51.953125 
Q 90.578125 47.90625 90.578125 40.484375 
Q 90.578125 38.875 90.375 36.9375 
Q 90.1875 35.015625 89.796875 33.015625 
z
" id="DejaVuSans-Oblique-109"/>
       <path d="M 53.71875 31.203125 
L 47.609375 0 
L 38.625 0 
L 40.28125 8.296875 
Q 36.328125 3.421875 31.265625 1 
Q 26.21875 -1.421875 20.015625 -1.421875 
Q 13.03125 -1.421875 8.5625 2.84375 
Q 4.109375 7.125 4.109375 13.8125 
Q 4.109375 23.390625 11.75 28.953125 
Q 19.390625 34.515625 32.8125 34.515625 
L 45.3125 34.515625 
L 45.796875 36.921875 
Q 45.90625 37.3125 45.953125 37.765625 
Q 46 38.234375 46 39.203125 
Q 46 43.5625 42.453125 45.96875 
Q 38.921875 48.390625 32.515625 48.390625 
Q 28.125 48.390625 23.5 47.265625 
Q 18.890625 46.140625 14.015625 43.890625 
L 15.578125 52.203125 
Q 20.65625 54.109375 25.515625 55.046875 
Q 30.375 56 34.90625 56 
Q 44.578125 56 49.625 51.796875 
Q 54.6875 47.609375 54.6875 39.59375 
Q 54.6875 37.984375 54.4375 35.8125 
Q 54.203125 33.640625 53.71875 31.203125 
z
M 44 27.484375 
L 35.015625 27.484375 
Q 23.96875 27.484375 18.671875 24.53125 
Q 13.375 21.578125 13.375 15.375 
Q 13.375 11.078125 16.078125 8.640625 
Q 18.796875 6.203125 23.578125 6.203125 
Q 30.90625 6.203125 36.375 11.453125 
Q 41.84375 16.703125 43.609375 25.484375 
z
" id="DejaVuSans-Oblique-97"/>
       <path d="M 60.015625 54.6875 
L 34.90625 27.875 
L 50.296875 0 
L 39.984375 0 
L 28.421875 21.6875 
L 8.296875 0 
L -2.59375 0 
L 24.3125 28.8125 
L 10.015625 54.6875 
L 20.3125 54.6875 
L 30.8125 34.90625 
L 49.125 54.6875 
z
" id="DejaVuSans-Oblique-120"/>
       <path d="M 31 75.875 
Q 24.46875 64.65625 21.28125 53.65625 
Q 18.109375 42.671875 18.109375 31.390625 
Q 18.109375 20.125 21.3125 9.0625 
Q 24.515625 -2 31 -13.1875 
L 23.1875 -13.1875 
Q 15.875 -1.703125 12.234375 9.375 
Q 8.59375 20.453125 8.59375 31.390625 
Q 8.59375 42.28125 12.203125 53.3125 
Q 15.828125 64.359375 23.1875 75.875 
z
" id="DejaVuSans-40"/>
       <path d="M 21 76.421875 
L 21 -23.578125 
L 12.703125 -23.578125 
L 12.703125 76.421875 
z
" id="DejaVuSans-124"/>
       <path d="M 8.015625 75.875 
L 15.828125 75.875 
Q 23.140625 64.359375 26.78125 53.3125 
Q 30.421875 42.28125 30.421875 31.390625 
Q 30.421875 20.453125 26.78125 9.375 
Q 23.140625 -1.703125 15.828125 -13.1875 
L 8.015625 -13.1875 
Q 14.5 -2 17.703125 9.0625 
Q 20.90625 20.125 20.90625 31.390625 
Q 20.90625 42.671875 17.703125 53.65625 
Q 14.5 64.65625 8.015625 75.875 
z
" id="DejaVuSans-41"/>
      </defs>
      <use transform="translate(0 0.578125)" xlink:href="#DejaVuSans-69"/>
      <use transform="translate(63.183594 0.578125)" xlink:href="#DejaVuSans-110"/>
      <use transform="translate(126.5625 0.578125)" xlink:href="#DejaVuSans-101"/>
      <use transform="translate(188.085938 0.578125)" xlink:href="#DejaVuSans-114"/>
      <use transform="translate(229.199219 0.578125)" xlink:href="#DejaVuSans-103"/>
      <use transform="translate(292.675781 0.578125)" xlink:href="#DejaVuSans-121"/>
      <use transform="translate(351.855469 0.578125)" xlink:href="#DejaVuSans-32"/>
      <use transform="translate(383.642578 0.578125)" xlink:href="#DejaVuSans-91"/>
      <use transform="translate(422.65625 0.578125)" xlink:href="#DejaVuSans-Oblique-69"/>
      <use transform="translate(485.839844 -15.828125)scale(0.7)" xlink:href="#DejaVuSans-Oblique-116"/>
      <use transform="translate(513.286133 -15.828125)scale(0.7)" xlink:href="#DejaVuSans-Oblique-111"/>
      <use transform="translate(556.113281 -15.828125)scale(0.7)" xlink:href="#DejaVuSans-Oblique-116"/>
      <use transform="translate(586.293945 0.578125)" xlink:href="#DejaVuSans-47"/>
      <use transform="translate(619.985352 0.578125)" xlink:href="#DejaVuSans-Oblique-109"/>
      <use transform="translate(717.397461 0.578125)" xlink:href="#DejaVuSans-Oblique-97"/>
      <use transform="translate(778.676758 0.578125)" xlink:href="#DejaVuSans-Oblique-120"/>
      <use transform="translate(837.856445 0.578125)" xlink:href="#DejaVuSans-40"/>
      <use transform="translate(876.870117 0.578125)" xlink:href="#DejaVuSans-124"/>
      <use transform="translate(910.561523 0.578125)" xlink:href="#DejaVuSans-Oblique-69"/>
      <use transform="translate(973.745117 -15.828125)scale(0.7)" xlink:href="#DejaVuSans-Oblique-116"/>
      <use transform="translate(1001.191406 -15.828125)scale(0.7)" xlink:href="#DejaVuSans-Oblique-111"/>
      <use transform="translate(1044.018555 -15.828125)scale(0.7)" xlink:href="#DejaVuSans-Oblique-116"/>
      <use transform="translate(1074.199219 0.578125)" xlink:href="#DejaVuSans-124"/>
      <use transform="translate(1107.890625 0.578125)" xlink:href="#DejaVuSans-41"/>
      <use transform="translate(1146.904297 0.578125)" xlink:href="#DejaVuSans-93"/>
     </g>
    </g>
   </g>
   <g id="line2d_27">
    <path clip-path="url(#p8b52a84649)" d="M 84.676909 65.883388 
L 85.795042 63.411841 
L 86.540464 61.973702 
L 87.285885 61.151121 
L 87.658596 60.85798 
L 88.031307 60.745058 
L 88.404018 60.787261 
L 89.14944 61.227733 
L 89.522151 61.584178 
L 90.640283 63.448912 
L 91.385705 64.97697 
L 92.876549 68.162929 
L 93.621971 69.65962 
L 95.112814 71.803046 
L 96.230947 72.619164 
L 96.976369 72.597112 
L 97.349079 72.523162 
L 98.094501 72.023948 
L 99.585345 70.028422 
L 100.703477 67.880244 
L 103.685165 61.25948 
L 104.430586 59.987112 
L 105.176008 59.317184 
L 105.92143 59.0364 
L 106.294141 59.167952 
L 107.039563 59.788453 
L 107.784984 60.864633 
L 109.648539 65.000353 
L 111.512093 69.40526 
L 113.002937 72.08212 
L 114.12107 73.256964 
L 114.493781 73.462847 
L 115.239202 73.502199 
L 115.611913 73.510944 
L 115.984624 73.337759 
L 116.730046 72.70167 
L 117.475468 71.804757 
L 119.339022 68.212356 
L 121.202577 64.063139 
L 122.320709 62.180916 
L 122.69342 61.685124 
L 123.438842 61.207391 
L 123.811553 61.099222 
L 124.184264 61.156634 
L 124.556975 61.410043 
L 125.675107 62.782786 
L 127.165951 65.790997 
L 128.284084 68.418429 
L 129.774927 71.42759 
L 130.89306 73.061917 
L 131.638482 73.620824 
L 132.383903 73.947613 
L 133.129325 73.751616 
L 133.874747 73.302209 
L 134.620169 72.311575 
L 135.36559 71.157832 
L 136.856434 67.96522 
L 139.092699 62.475768 
L 140.210832 60.437279 
L 140.956254 59.558617 
L 141.701676 59.304067 
L 142.074387 59.283346 
L 142.819808 59.866205 
L 143.56523 60.790303 
L 144.310652 62.257718 
L 145.428785 64.692954 
L 147.292339 68.827533 
L 148.410472 70.631814 
L 149.155894 71.556861 
L 150.274026 72.278497 
L 150.646737 72.361383 
L 151.76487 71.99258 
L 152.510292 71.233114 
L 153.628424 69.686615 
L 157.728244 61.437228 
L 158.473666 60.601339 
L 158.846377 60.36732 
L 159.591799 60.377396 
L 159.964509 60.52967 
L 160.33722 60.80418 
L 161.082642 61.905264 
L 161.828064 63.292646 
L 165.927884 72.641406 
L 167.046016 74.122319 
L 167.418727 74.411658 
L 168.53686 74.726661 
L 169.654993 74.06928 
L 170.027704 73.734126 
L 171.145836 72.012161 
L 172.263969 69.58662 
L 175.618367 62.101072 
L 176.363789 61.176024 
L 176.7365 60.879081 
L 177.10921 60.726047 
L 177.854632 60.867295 
L 178.227343 61.078691 
L 178.972765 62.035296 
L 180.090898 63.954779 
L 182.327163 68.769742 
L 183.818007 71.214293 
L 184.936139 72.340852 
L 185.681561 72.508904 
L 186.426983 72.479438 
L 186.799694 72.33876 
L 187.917826 71.344515 
L 189.035959 69.524836 
L 189.781381 68.136314 
L 192.017646 62.945896 
L 193.50849 60.251547 
L 194.253912 59.515463 
L 194.626622 59.231827 
L 194.999333 59.194757 
L 195.744755 59.559187 
L 196.490177 60.328159 
L 197.60831 62.355051 
L 199.471864 66.843415 
L 200.589997 69.508867 
L 201.708129 71.764645 
L 202.826262 73.168376 
L 203.571684 73.684699 
L 204.689817 73.812829 
L 205.435238 73.320269 
L 206.18066 72.610039 
L 207.298793 70.858038 
L 208.416925 68.469567 
L 211.398613 62.33376 
L 212.144034 61.633605 
L 212.516745 61.403579 
L 212.889456 61.313089 
L 213.262167 61.388561 
L 214.007589 61.899942 
L 214.3803 62.307145 
L 215.498432 64.307043 
L 216.243854 65.878635 
L 218.107409 70.045722 
L 219.225541 72.022047 
L 219.970963 72.984735 
L 221.089096 73.865108 
L 221.834518 73.85047 
L 222.579939 73.565314 
L 222.95265 73.269701 
L 224.070783 71.88175 
L 225.188916 69.703724 
L 225.934337 68.072819 
L 228.170603 62.632414 
L 229.288735 60.534422 
L 230.034157 59.69283 
L 230.779579 59.232588 
L 231.15229 59.281064 
L 231.897712 59.777807 
L 232.643133 60.683464 
L 234.133977 63.616964 
L 236.370242 68.637999 
L 237.861086 71.164106 
L 238.979219 72.198463 
L 239.35193 72.381724 
L 240.097351 72.363854 
L 240.470062 72.354729 
L 241.215484 71.82795 
L 241.960906 70.996434 
L 242.333617 70.492467 
L 244.197171 66.869459 
L 245.688015 63.542443 
L 246.433437 62.163996 
L 247.551569 60.630045 
L 248.296991 60.298122 
L 248.669702 60.301734 
L 249.042413 60.43861 
L 249.787835 61.280962 
L 250.533256 62.414364 
L 252.0241 65.798221 
L 253.142233 68.633817 
L 254.633076 71.881559 
L 255.751209 73.620254 
L 256.496631 74.226877 
L 257.242052 74.63446 
L 257.987474 74.489221 
L 258.732896 74.054642 
L 259.478318 73.077316 
L 260.22374 71.962164 
L 261.341872 69.579586 
L 262.087294 67.806863 
L 263.205427 65.121259 
L 264.323559 62.693437 
L 265.441692 61.028503 
L 265.814403 60.720534 
L 266.559825 60.574154 
L 266.932536 60.595636 
L 267.677957 61.224691 
L 268.423379 62.20753 
L 269.541512 64.398863 
L 272.523199 70.350269 
L 273.641332 71.710085 
L 274.386753 72.161773 
L 275.132175 72.396742 
L 275.504886 72.377922 
L 276.623019 71.68271 
L 277.368441 70.77097 
L 278.486573 68.938364 
L 281.840971 61.476199 
L 282.586393 60.25782 
L 283.331815 59.440942 
L 283.704526 59.213577 
L 284.449948 59.234109 
L 285.195369 59.6915 
L 286.313502 61.458329 
L 287.431635 64.015042 
L 290.413322 71.086543 
L 291.904165 73.235483 
L 292.276876 73.543642 
L 293.395009 73.929363 
L 294.140431 73.662457 
L 294.885853 73.159251 
L 296.003985 71.588989 
L 297.122118 69.409823 
L 298.612962 66.062276 
L 300.103805 63.047411 
L 301.221938 61.730368 
L 301.594649 61.470496 
L 301.96736 61.367649 
L 302.712781 61.634746 
L 303.085492 61.894238 
L 303.830914 62.89989 
L 304.949047 64.918418 
L 306.812601 69.110599 
L 307.930734 71.240338 
L 308.676156 72.425448 
L 309.794288 73.543261 
L 310.53971 73.725001 
L 311.285132 73.696105 
L 311.657843 73.544402 
L 312.775975 72.449021 
L 313.894108 70.56984 
L 314.63953 69.108888 
L 317.248506 62.848182 
L 318.366639 60.605901 
L 319.112061 59.737885 
L 319.484771 59.389804 
L 319.857482 59.278973 
L 320.602904 59.472309 
L 321.348326 60.05593 
L 322.466459 61.910397 
L 324.330013 66.063036 
L 325.448146 68.631726 
L 326.566278 70.750439 
L 327.684411 72.069192 
L 328.057122 72.390849 
L 328.429833 72.565365 
L 329.547966 72.595591 
L 330.293387 72.062539 
L 331.038809 71.350598 
L 332.156942 69.522555 
L 333.647785 66.359219 
L 335.884051 61.796335 
L 336.256762 61.220509 
L 337.002183 60.647154 
L 337.747605 60.464084 
L 338.120316 60.62149 
L 338.865738 61.333431 
L 339.61116 62.558273 
L 341.102003 65.879586 
L 342.965558 70.446842 
L 344.08369 72.555669 
L 344.829112 73.646298 
L 345.947245 74.611458 
L 346.692667 74.640544 
L 347.438088 74.402153 
L 347.810799 74.134866 
L 348.928932 72.741211 
L 350.047065 70.55273 
L 350.792486 68.951101 
L 353.028752 63.549477 
L 354.146885 61.562126 
L 354.519595 61.072227 
L 355.265017 60.569211 
L 355.637728 60.405912 
L 356.010439 60.506857 
L 356.755861 61.093139 
L 357.501283 62.00564 
L 359.364837 65.728453 
L 360.48297 68.049436 
L 361.228391 69.471227 
L 362.346524 71.165627 
L 362.719235 71.596593 
L 363.837368 72.274125 
L 364.210079 72.371648 
L 364.9555 72.158161 
L 365.328211 72.035354 
L 366.073633 71.302692 
L 367.191766 69.686615 
L 369.05532 65.717427 
L 370.173453 63.137901 
L 370.918875 61.53266 
L 371.664296 60.324547 
L 372.409718 59.347221 
L 373.15514 59.077843 
L 373.900562 59.258062 
L 374.645984 60.13045 
L 375.391405 61.306056 
L 376.882249 64.779262 
L 378.000382 67.646605 
L 379.491225 70.969439 
L 380.609358 72.73836 
L 381.35478 73.400113 
L 382.100201 73.881837 
L 382.845623 73.799142 
L 383.591045 73.438324 
L 384.336467 72.585516 
L 385.081889 71.588989 
L 385.82731 70.162256 
L 389.554419 62.554471 
L 390.299841 61.667444 
L 390.672552 61.409282 
L 391.417974 61.360996 
L 391.790685 61.431524 
L 392.536106 62.139853 
L 393.654239 63.908584 
L 396.635926 70.257118 
L 397.381348 71.564085 
L 398.499481 72.93873 
L 399.244903 73.388707 
L 399.990324 73.562842 
L 400.363035 73.528243 
L 401.481168 72.777521 
L 402.22659 71.816354 
L 403.344722 69.833375 
L 407.071831 61.126407 
L 407.817253 60.03825 
L 408.189964 59.539416 
L 408.562675 59.230306 
L 409.308097 59.089629 
L 410.053518 59.410715 
L 411.171651 60.945998 
L 411.917073 62.40771 
L 414.89876 69.25812 
L 415.644182 70.608431 
L 416.762314 72.10132 
L 417.135025 72.384005 
L 418.253158 72.737219 
L 418.99858 72.459667 
L 419.744002 71.923192 
L 420.862134 70.31548 
L 421.607556 68.970492 
L 424.589243 62.609791 
L 425.334665 61.454337 
L 426.080087 60.758745 
L 426.452798 60.570162 
L 426.825509 60.564459 
L 427.57093 61.019378 
L 427.943641 61.376965 
L 428.689063 62.559223 
L 429.807196 64.908533 
L 431.67075 69.501073 
L 432.788883 71.855895 
L 433.534305 73.149745 
L 434.652437 74.365082 
L 435.397859 74.650239 
L 436.143281 74.653661 
L 436.515992 74.510512 
L 437.634124 73.41361 
L 438.379546 72.269753 
L 439.497679 70.085074 
L 442.106655 63.818855 
L 443.224788 61.608512 
L 443.97021 60.836688 
L 444.342921 60.525107 
L 444.715631 60.440701 
L 445.461053 60.687836 
L 446.206475 61.312329 
L 447.697319 63.947935 
L 450.306295 69.435867 
L 451.424428 71.215624 
L 452.54256 72.234013 
L 452.915271 72.459287 
L 453.287982 72.508143 
L 454.406115 72.188768 
L 455.151536 71.477588 
L 455.896958 70.582006 
L 457.015091 68.473179 
L 457.015091 68.473179 
" style="fill:none;stroke:#1f77b4;stroke-linecap:square;stroke-width:1.5;"/>
   </g>
   <g id="line2d_28">
    <path clip-path="url(#p8b52a84649)" d="M 84.676909 318.805412 
L 85.795042 321.277149 
L 86.540464 322.715098 
L 87.285885 323.537679 
L 87.658596 323.83082 
L 88.031307 323.943552 
L 88.404018 323.901349 
L 89.14944 323.460877 
L 89.522151 323.104432 
L 90.640283 321.239698 
L 91.385705 319.71164 
L 92.876549 316.525681 
L 93.621971 315.02918 
L 95.112814 312.885754 
L 96.230947 312.069636 
L 96.976369 312.091688 
L 97.349079 312.165638 
L 98.094501 312.664852 
L 99.585345 314.660378 
L 100.703477 316.808556 
L 103.685165 323.42932 
L 104.430586 324.701688 
L 105.176008 325.371616 
L 105.92143 325.6524 
L 106.294141 325.520848 
L 107.039563 324.900347 
L 107.784984 323.823977 
L 109.648539 319.688257 
L 111.512093 315.283349 
L 113.002937 312.60649 
L 114.12107 311.431836 
L 114.493781 311.225953 
L 115.239202 311.186411 
L 115.611913 311.177856 
L 115.984624 311.351041 
L 116.730046 311.98713 
L 117.475468 312.884043 
L 119.339022 316.476444 
L 121.202577 320.625661 
L 122.320709 322.508074 
L 122.69342 323.003866 
L 123.438842 323.481409 
L 123.811553 323.589578 
L 124.184264 323.532166 
L 124.556975 323.278757 
L 125.675107 321.905824 
L 127.165951 318.897613 
L 128.284084 316.270181 
L 129.774927 313.26102 
L 130.89306 311.626883 
L 131.638482 311.067786 
L 132.383903 310.741187 
L 133.129325 310.937184 
L 133.874747 311.386781 
L 134.620169 312.377225 
L 135.36559 313.531158 
L 136.856434 316.72358 
L 139.092699 322.213032 
L 140.210832 324.251521 
L 140.956254 325.129993 
L 141.701676 325.384733 
L 142.074387 325.405264 
L 142.819808 324.822595 
L 143.56523 323.898497 
L 144.310652 322.430892 
L 145.428785 319.995846 
L 147.292339 315.861267 
L 148.410472 314.056986 
L 149.155894 313.131939 
L 150.274026 312.410303 
L 150.646737 312.327417 
L 151.76487 312.69622 
L 152.510292 313.455686 
L 153.628424 315.002185 
L 157.728244 323.251572 
L 158.473666 324.087461 
L 158.846377 324.32167 
L 159.591799 324.311404 
L 159.964509 324.15913 
L 160.33722 323.88443 
L 161.082642 322.783536 
L 161.828064 321.395964 
L 165.927884 312.047394 
L 167.046016 310.566481 
L 167.418727 310.277142 
L 168.53686 309.962139 
L 169.654993 310.61952 
L 170.027704 310.954674 
L 171.145836 312.676639 
L 172.263969 315.10237 
L 175.618367 322.587728 
L 176.363789 323.512776 
L 176.7365 323.809719 
L 177.10921 323.962753 
L 177.854632 323.821505 
L 178.227343 323.609919 
L 178.972765 322.653504 
L 180.090898 320.733831 
L 182.327163 315.919058 
L 183.818007 313.474507 
L 184.936139 312.347948 
L 185.681561 312.179896 
L 186.426983 312.209362 
L 186.799694 312.35004 
L 187.917826 313.344095 
L 189.035959 315.163964 
L 189.781381 316.552486 
L 192.017646 321.742904 
L 193.50849 324.437253 
L 194.253912 325.173337 
L 194.626622 325.456973 
L 194.999333 325.494043 
L 195.744755 325.129613 
L 196.490177 324.360641 
L 197.60831 322.333749 
L 199.471864 317.845195 
L 200.589997 315.179743 
L 201.708129 312.923965 
L 202.826262 311.520234 
L 203.571684 311.004101 
L 204.689817 310.875971 
L 205.435238 311.368531 
L 206.18066 312.078761 
L 207.298793 313.830762 
L 208.416925 316.219233 
L 211.398613 322.35504 
L 212.144034 323.055195 
L 212.516745 323.285221 
L 212.889456 323.375711 
L 213.262167 323.300049 
L 214.007589 322.788668 
L 214.3803 322.381655 
L 215.498432 320.381757 
L 216.243854 318.810165 
L 218.107409 314.642888 
L 219.225541 312.666563 
L 219.970963 311.704065 
L 221.089096 310.823692 
L 221.834518 310.83833 
L 222.579939 311.123486 
L 222.95265 311.419289 
L 224.070783 312.80705 
L 225.188916 314.985076 
L 225.934337 316.615981 
L 228.170603 322.056386 
L 229.288735 324.154378 
L 230.034157 324.99597 
L 230.779579 325.456212 
L 231.15229 325.407736 
L 231.897712 324.910993 
L 232.643133 324.005146 
L 234.133977 321.071646 
L 236.370242 316.050801 
L 237.861086 313.524504 
L 238.979219 312.490337 
L 239.35193 312.306886 
L 240.097351 312.324756 
L 240.470062 312.334071 
L 241.215484 312.86085 
L 241.960906 313.692366 
L 242.333617 314.196333 
L 244.197171 317.819531 
L 245.688015 321.146357 
L 246.433437 322.524994 
L 247.551569 324.058946 
L 248.296991 324.390678 
L 248.669702 324.387066 
L 249.042413 324.25019 
L 249.787835 323.407648 
L 250.533256 322.274246 
L 252.0241 318.890579 
L 253.142233 316.054793 
L 254.633076 312.80705 
L 255.751209 311.068356 
L 256.496631 310.461923 
L 257.242052 310.05434 
L 257.987474 310.199579 
L 258.732896 310.634158 
L 259.478318 311.611674 
L 260.22374 312.726636 
L 261.341872 315.109214 
L 262.087294 316.881937 
L 263.205427 319.567541 
L 264.323559 321.995363 
L 265.441692 323.660297 
L 265.814403 323.968266 
L 266.559825 324.114646 
L 266.932536 324.092974 
L 267.677957 323.463919 
L 268.423379 322.48127 
L 269.541512 320.289937 
L 272.523199 314.338531 
L 273.641332 312.978715 
L 274.386753 312.527027 
L 275.132175 312.291868 
L 275.504886 312.310878 
L 276.623019 313.00609 
L 277.368441 313.91783 
L 278.486573 315.750436 
L 281.840971 323.212791 
L 282.586393 324.43098 
L 283.331815 325.247858 
L 283.704526 325.475223 
L 284.449948 325.454691 
L 285.195369 324.9973 
L 286.313502 323.230471 
L 287.431635 320.673568 
L 290.413322 313.602067 
L 291.904165 311.453317 
L 292.276876 311.145158 
L 293.395009 310.759437 
L 294.140431 311.026343 
L 294.885853 311.529549 
L 296.003985 313.099811 
L 297.122118 315.278977 
L 298.612962 318.626524 
L 300.103805 321.641389 
L 301.221938 322.958432 
L 301.594649 323.218114 
L 301.96736 323.321151 
L 302.712781 323.054054 
L 303.085492 322.794562 
L 303.830914 321.78891 
L 304.949047 319.770192 
L 306.812601 315.578011 
L 307.930734 313.448462 
L 308.676156 312.263352 
L 309.794288 311.145539 
L 310.53971 310.963799 
L 311.285132 310.992695 
L 311.657843 311.144398 
L 312.775975 312.239779 
L 313.894108 314.11896 
L 314.63953 315.579912 
L 317.248506 321.840808 
L 318.366639 324.082899 
L 319.112061 324.950915 
L 319.484771 325.298996 
L 319.857482 325.409827 
L 320.602904 325.216491 
L 321.348326 324.63287 
L 322.466459 322.778403 
L 324.330013 318.625764 
L 325.448146 316.056884 
L 326.566278 313.938171 
L 327.684411 312.619608 
L 328.057122 312.297951 
L 328.429833 312.123245 
L 329.547966 312.093209 
L 330.293387 312.626261 
L 331.038809 313.338202 
L 332.156942 315.166245 
L 333.647785 318.329581 
L 335.884051 322.892465 
L 336.256762 323.468291 
L 337.002183 324.041646 
L 337.747605 324.224716 
L 338.120316 324.06712 
L 338.865738 323.355179 
L 339.61116 322.130337 
L 341.102003 318.809024 
L 342.965558 314.241958 
L 344.08369 312.13294 
L 344.829112 311.042312 
L 345.947245 310.077342 
L 346.692667 310.048256 
L 347.438088 310.286837 
L 347.810799 310.554124 
L 348.928932 311.947589 
L 350.047065 314.13607 
L 350.792486 315.737699 
L 353.028752 321.139323 
L 354.146885 323.126674 
L 354.519595 323.616573 
L 355.265017 324.119589 
L 355.637728 324.282888 
L 356.010439 324.181943 
L 356.755861 323.595471 
L 357.501283 322.68316 
L 359.364837 318.960347 
L 360.48297 316.639364 
L 361.228391 315.217573 
L 362.346524 313.522983 
L 362.719235 313.092207 
L 363.837368 312.414675 
L 364.210079 312.317152 
L 364.9555 312.530449 
L 365.328211 312.653256 
L 366.073633 313.386108 
L 367.191766 315.002185 
L 369.05532 318.971373 
L 370.173453 321.550899 
L 370.918875 323.15614 
L 371.664296 324.364253 
L 372.409718 325.341579 
L 373.15514 325.610957 
L 373.900562 325.430738 
L 374.645984 324.55835 
L 375.391405 323.382744 
L 376.882249 319.909348 
L 378.000382 317.042005 
L 379.491225 313.719361 
L 380.609358 311.95044 
L 381.35478 311.288687 
L 382.100201 310.806963 
L 382.845623 310.889658 
L 383.591045 311.250476 
L 384.336467 312.103284 
L 385.081889 313.099811 
L 385.82731 314.526544 
L 389.554419 322.134329 
L 390.299841 323.021356 
L 390.672552 323.279518 
L 391.417974 323.327804 
L 391.790685 323.257276 
L 392.536106 322.548757 
L 393.654239 320.780026 
L 396.635926 314.431682 
L 397.381348 313.124715 
L 398.499481 311.75007 
L 399.244903 311.300093 
L 399.990324 311.125768 
L 400.363035 311.160367 
L 401.481168 311.911279 
L 402.22659 312.872446 
L 403.344722 314.855425 
L 407.071831 323.562583 
L 407.817253 324.65055 
L 408.189964 325.149384 
L 408.562675 325.458494 
L 409.308097 325.599171 
L 410.053518 325.277894 
L 411.171651 323.742802 
L 411.917073 322.2809 
L 414.89876 315.43049 
L 415.644182 314.080179 
L 416.762314 312.58748 
L 417.135025 312.304795 
L 418.253158 311.951581 
L 418.99858 312.229133 
L 419.744002 312.765608 
L 420.862134 314.37332 
L 421.607556 315.718308 
L 424.589243 322.079009 
L 425.334665 323.234463 
L 426.080087 323.930055 
L 426.452798 324.118638 
L 426.825509 324.124151 
L 427.57093 323.669232 
L 427.943641 323.311645 
L 428.689063 322.129387 
L 429.807196 319.780077 
L 431.67075 315.187537 
L 432.788883 312.832715 
L 433.534305 311.539055 
L 434.652437 310.323527 
L 435.397859 310.038751 
L 436.143281 310.035139 
L 436.515992 310.178288 
L 437.634124 311.27519 
L 438.379546 312.419047 
L 439.497679 314.603726 
L 442.106655 320.869945 
L 443.224788 323.080479 
L 443.97021 323.852112 
L 444.342921 324.163693 
L 444.715631 324.248099 
L 445.461053 324.000964 
L 446.206475 323.376471 
L 447.697319 320.740674 
L 450.306295 315.252743 
L 451.424428 313.472986 
L 452.54256 312.454787 
L 452.915271 312.229513 
L 453.287982 312.180657 
L 454.406115 312.500032 
L 455.151536 313.211212 
L 455.896958 314.106794 
L 457.015091 316.215621 
L 457.015091 316.215621 
" style="fill:none;stroke:#ff7f0e;stroke-linecap:square;stroke-width:1.5;"/>
   </g>
   <g id="line2d_29">
    <path clip-path="url(#p8b52a84649)" d="M 84.676909 234.088079 
L 302.34007 234.088079 
L 457.015091 234.088079 
L 457.015091 234.088079 
" style="fill:none;stroke:#2ca02c;stroke-dasharray:5.55,2.4;stroke-dashoffset:0;stroke-width:1.5;"/>
   </g>
   <g id="patch_3">
    <path d="M 66.06 338.9832 
L 66.06 45.7056 
" style="fill:none;stroke:#000000;stroke-linecap:square;stroke-linejoin:miter;stroke-width:0.8;"/>
   </g>
   <g id="patch_4">
    <path d="M 475.632 338.9832 
L 475.632 45.7056 
" style="fill:none;stroke:#000000;stroke-linecap:square;stroke-linejoin:miter;stroke-width:0.8;"/>
   </g>
   <g id="patch_5">
    <path d="M 66.06 338.9832 
L 475.632 338.9832 
" style="fill:none;stroke:#000000;stroke-linecap:square;stroke-linejoin:miter;stroke-width:0.8;"/>
   </g>
   <g id="patch_6">
    <path d="M 66.06 45.7056 
L 475.632 45.7056 
" style="fill:none;stroke:#000000;stroke-linecap:square;stroke-linejoin:miter;stroke-width:0.8;"/>
   </g>
   <g id="text_17">
    <!-- n = 10, N = 1.0e+07, dt = 2.48e-05, VelocityVerlet, Simulated time = 248.0 years -->
    <g transform="translate(22.964438 39.7056)scale(0.12 -0.12)">
     <defs>
      <path d="M 10.59375 45.40625 
L 73.1875 45.40625 
L 73.1875 37.203125 
L 10.59375 37.203125 
z
M 10.59375 25.484375 
L 73.1875 25.484375 
L 73.1875 17.1875 
L 10.59375 17.1875 
z
" id="DejaVuSans-61"/>
      <path d="M 11.71875 12.40625 
L 22.015625 12.40625 
L 22.015625 4 
L 14.015625 -11.625 
L 7.71875 -11.625 
L 11.71875 4 
z
" id="DejaVuSans-44"/>
      <path d="M 46 62.703125 
L 46 35.5 
L 73.1875 35.5 
L 73.1875 27.203125 
L 46 27.203125 
L 46 0 
L 37.796875 0 
L 37.796875 27.203125 
L 10.59375 27.203125 
L 10.59375 35.5 
L 37.796875 35.5 
L 37.796875 62.703125 
z
" id="DejaVuSans-43"/>
      <path d="M 45.40625 46.390625 
L 45.40625 75.984375 
L 54.390625 75.984375 
L 54.390625 0 
L 45.40625 0 
L 45.40625 8.203125 
Q 42.578125 3.328125 38.25 0.953125 
Q 33.9375 -1.421875 27.875 -1.421875 
Q 17.96875 -1.421875 11.734375 6.484375 
Q 5.515625 14.40625 5.515625 27.296875 
Q 5.515625 40.1875 11.734375 48.09375 
Q 17.96875 56 27.875 56 
Q 33.9375 56 38.25 53.625 
Q 42.578125 51.265625 45.40625 46.390625 
z
M 14.796875 27.296875 
Q 14.796875 17.390625 18.875 11.75 
Q 22.953125 6.109375 30.078125 6.109375 
Q 37.203125 6.109375 41.296875 11.75 
Q 45.40625 17.390625 45.40625 27.296875 
Q 45.40625 37.203125 41.296875 42.84375 
Q 37.203125 48.484375 30.078125 48.484375 
Q 22.953125 48.484375 18.875 42.84375 
Q 14.796875 37.203125 14.796875 27.296875 
z
" id="DejaVuSans-100"/>
      <path d="M 4.890625 31.390625 
L 31.203125 31.390625 
L 31.203125 23.390625 
L 4.890625 23.390625 
z
" id="DejaVuSans-45"/>
      <path d="M 28.609375 0 
L 0.78125 72.90625 
L 11.078125 72.90625 
L 34.1875 11.53125 
L 57.328125 72.90625 
L 67.578125 72.90625 
L 39.796875 0 
z
" id="DejaVuSans-86"/>
      <path d="M 9.421875 75.984375 
L 18.40625 75.984375 
L 18.40625 0 
L 9.421875 0 
z
" id="DejaVuSans-108"/>
      <path d="M 48.78125 52.59375 
L 48.78125 44.1875 
Q 44.96875 46.296875 41.140625 47.34375 
Q 37.3125 48.390625 33.40625 48.390625 
Q 24.65625 48.390625 19.8125 42.84375 
Q 14.984375 37.3125 14.984375 27.296875 
Q 14.984375 17.28125 19.8125 11.734375 
Q 24.65625 6.203125 33.40625 6.203125 
Q 37.3125 6.203125 41.140625 7.25 
Q 44.96875 8.296875 48.78125 10.40625 
L 48.78125 2.09375 
Q 45.015625 0.34375 40.984375 -0.53125 
Q 36.96875 -1.421875 32.421875 -1.421875 
Q 20.0625 -1.421875 12.78125 6.34375 
Q 5.515625 14.109375 5.515625 27.296875 
Q 5.515625 40.671875 12.859375 48.328125 
Q 20.21875 56 33.015625 56 
Q 37.15625 56 41.109375 55.140625 
Q 45.0625 54.296875 48.78125 52.59375 
z
" id="DejaVuSans-99"/>
      <path d="M 53.515625 70.515625 
L 53.515625 60.890625 
Q 47.90625 63.578125 42.921875 64.890625 
Q 37.9375 66.21875 33.296875 66.21875 
Q 25.25 66.21875 20.875 63.09375 
Q 16.5 59.96875 16.5 54.203125 
Q 16.5 49.359375 19.40625 46.890625 
Q 22.3125 44.4375 30.421875 42.921875 
L 36.375 41.703125 
Q 47.40625 39.59375 52.65625 34.296875 
Q 57.90625 29 57.90625 20.125 
Q 57.90625 9.515625 50.796875 4.046875 
Q 43.703125 -1.421875 29.984375 -1.421875 
Q 24.8125 -1.421875 18.96875 -0.25 
Q 13.140625 0.921875 6.890625 3.21875 
L 6.890625 13.375 
Q 12.890625 10.015625 18.65625 8.296875 
Q 24.421875 6.59375 29.984375 6.59375 
Q 38.421875 6.59375 43.015625 9.90625 
Q 47.609375 13.234375 47.609375 19.390625 
Q 47.609375 24.75 44.3125 27.78125 
Q 41.015625 30.8125 33.5 32.328125 
L 27.484375 33.5 
Q 16.453125 35.6875 11.515625 40.375 
Q 6.59375 45.0625 6.59375 53.421875 
Q 6.59375 63.09375 13.40625 68.65625 
Q 20.21875 74.21875 32.171875 74.21875 
Q 37.3125 74.21875 42.625 73.28125 
Q 47.953125 72.359375 53.515625 70.515625 
z
" id="DejaVuSans-83"/>
      <path d="M 34.28125 27.484375 
Q 23.390625 27.484375 19.1875 25 
Q 14.984375 22.515625 14.984375 16.5 
Q 14.984375 11.71875 18.140625 8.90625 
Q 21.296875 6.109375 26.703125 6.109375 
Q 34.1875 6.109375 38.703125 11.40625 
Q 43.21875 16.703125 43.21875 25.484375 
L 43.21875 27.484375 
z
M 52.203125 31.203125 
L 52.203125 0 
L 43.21875 0 
L 43.21875 8.296875 
Q 40.140625 3.328125 35.546875 0.953125 
Q 30.953125 -1.421875 24.3125 -1.421875 
Q 15.921875 -1.421875 10.953125 3.296875 
Q 6 8.015625 6 15.921875 
Q 6 25.140625 12.171875 29.828125 
Q 18.359375 34.515625 30.609375 34.515625 
L 43.21875 34.515625 
L 43.21875 35.40625 
Q 43.21875 41.609375 39.140625 45 
Q 35.0625 48.390625 27.6875 48.390625 
Q 23 48.390625 18.546875 47.265625 
Q 14.109375 46.140625 10.015625 43.890625 
L 10.015625 52.203125 
Q 14.9375 54.109375 19.578125 55.046875 
Q 24.21875 56 28.609375 56 
Q 40.484375 56 46.34375 49.84375 
Q 52.203125 43.703125 52.203125 31.203125 
z
" id="DejaVuSans-97"/>
     </defs>
     <use xlink:href="#DejaVuSans-110"/>
     <use x="63.378906" xlink:href="#DejaVuSans-32"/>
     <use x="95.166016" xlink:href="#DejaVuSans-61"/>
     <use x="178.955078" xlink:href="#DejaVuSans-32"/>
     <use x="210.742188" xlink:href="#DejaVuSans-49"/>
     <use x="274.365234" xlink:href="#DejaVuSans-48"/>
     <use x="337.988281" xlink:href="#DejaVuSans-44"/>
     <use x="369.775391" xlink:href="#DejaVuSans-32"/>
     <use x="401.5625" xlink:href="#DejaVuSans-78"/>
     <use x="476.367188" xlink:href="#DejaVuSans-32"/>
     <use x="508.154297" xlink:href="#DejaVuSans-61"/>
     <use x="591.943359" xlink:href="#DejaVuSans-32"/>
     <use x="623.730469" xlink:href="#DejaVuSans-49"/>
     <use x="687.353516" xlink:href="#DejaVuSans-46"/>
     <use x="719.140625" xlink:href="#DejaVuSans-48"/>
     <use x="782.763672" xlink:href="#DejaVuSans-101"/>
     <use x="844.287109" xlink:href="#DejaVuSans-43"/>
     <use x="928.076172" xlink:href="#DejaVuSans-48"/>
     <use x="991.699219" xlink:href="#DejaVuSans-55"/>
     <use x="1055.322266" xlink:href="#DejaVuSans-44"/>
     <use x="1087.109375" xlink:href="#DejaVuSans-32"/>
     <use x="1118.896484" xlink:href="#DejaVuSans-100"/>
     <use x="1182.373047" xlink:href="#DejaVuSans-116"/>
     <use x="1221.582031" xlink:href="#DejaVuSans-32"/>
     <use x="1253.369141" xlink:href="#DejaVuSans-61"/>
     <use x="1337.158203" xlink:href="#DejaVuSans-32"/>
     <use x="1368.945312" xlink:href="#DejaVuSans-50"/>
     <use x="1432.568359" xlink:href="#DejaVuSans-46"/>
     <use x="1464.355469" xlink:href="#DejaVuSans-52"/>
     <use x="1527.978516" xlink:href="#DejaVuSans-56"/>
     <use x="1591.601562" xlink:href="#DejaVuSans-101"/>
     <use x="1653.125" xlink:href="#DejaVuSans-45"/>
     <use x="1689.208984" xlink:href="#DejaVuSans-48"/>
     <use x="1752.832031" xlink:href="#DejaVuSans-53"/>
     <use x="1816.455078" xlink:href="#DejaVuSans-44"/>
     <use x="1848.242188" xlink:href="#DejaVuSans-32"/>
     <use x="1880.029297" xlink:href="#DejaVuSans-86"/>
     <use x="1940.6875" xlink:href="#DejaVuSans-101"/>
     <use x="2002.210938" xlink:href="#DejaVuSans-108"/>
     <use x="2029.994141" xlink:href="#DejaVuSans-111"/>
     <use x="2091.175781" xlink:href="#DejaVuSans-99"/>
     <use x="2146.15625" xlink:href="#DejaVuSans-105"/>
     <use x="2173.939453" xlink:href="#DejaVuSans-116"/>
     <use x="2213.148438" xlink:href="#DejaVuSans-121"/>
     <use x="2272.328125" xlink:href="#DejaVuSans-86"/>
     <use x="2332.986328" xlink:href="#DejaVuSans-101"/>
     <use x="2394.509766" xlink:href="#DejaVuSans-114"/>
     <use x="2435.623047" xlink:href="#DejaVuSans-108"/>
     <use x="2463.40625" xlink:href="#DejaVuSans-101"/>
     <use x="2524.929688" xlink:href="#DejaVuSans-116"/>
     <use x="2564.138672" xlink:href="#DejaVuSans-44"/>
     <use x="2595.925781" xlink:href="#DejaVuSans-32"/>
     <use x="2627.712891" xlink:href="#DejaVuSans-83"/>
     <use x="2691.189453" xlink:href="#DejaVuSans-105"/>
     <use x="2718.972656" xlink:href="#DejaVuSans-109"/>
     <use x="2816.384766" xlink:href="#DejaVuSans-117"/>
     <use x="2879.763672" xlink:href="#DejaVuSans-108"/>
     <use x="2907.546875" xlink:href="#DejaVuSans-97"/>
     <use x="2968.826172" xlink:href="#DejaVuSans-116"/>
     <use x="3008.035156" xlink:href="#DejaVuSans-101"/>
     <use x="3069.558594" xlink:href="#DejaVuSans-100"/>
     <use x="3133.035156" xlink:href="#DejaVuSans-32"/>
     <use x="3164.822266" xlink:href="#DejaVuSans-116"/>
     <use x="3204.03125" xlink:href="#DejaVuSans-105"/>
     <use x="3231.814453" xlink:href="#DejaVuSans-109"/>
     <use x="3329.226562" xlink:href="#DejaVuSans-101"/>
     <use x="3390.75" xlink:href="#DejaVuSans-32"/>
     <use x="3422.537109" xlink:href="#DejaVuSans-61"/>
     <use x="3506.326172" xlink:href="#DejaVuSans-32"/>
     <use x="3538.113281" xlink:href="#DejaVuSans-50"/>
     <use x="3601.736328" xlink:href="#DejaVuSans-52"/>
     <use x="3665.359375" xlink:href="#DejaVuSans-56"/>
     <use x="3728.982422" xlink:href="#DejaVuSans-46"/>
     <use x="3760.769531" xlink:href="#DejaVuSans-48"/>
     <use x="3824.392578" xlink:href="#DejaVuSans-32"/>
     <use x="3856.179688" xlink:href="#DejaVuSans-121"/>
     <use x="3915.359375" xlink:href="#DejaVuSans-101"/>
     <use x="3976.882812" xlink:href="#DejaVuSans-97"/>
     <use x="4038.162109" xlink:href="#DejaVuSans-114"/>
     <use x="4079.275391" xlink:href="#DejaVuSans-115"/>
    </g>
   </g>
   <g id="legend_1">
    <g id="patch_7">
     <path d="M 170.136687 216.00065 
L 468.632 216.00065 
Q 470.632 216.00065 470.632 214.00065 
L 470.632 170.68815 
Q 470.632 168.68815 468.632 168.68815 
L 170.136687 168.68815 
Q 168.136687 168.68815 168.136687 170.68815 
L 168.136687 214.00065 
Q 168.136687 216.00065 170.136687 216.00065 
z
" style="fill:#ffffff;opacity:0.8;stroke:#cccccc;stroke-linejoin:miter;"/>
    </g>
    <g id="line2d_30">
     <path d="M 172.136687 176.786587 
L 192.136687 176.786587 
" style="fill:none;stroke:#1f77b4;stroke-linecap:square;stroke-width:1.5;"/>
    </g>
    <g id="line2d_31"/>
    <g id="text_18">
     <!-- Kinetic energy -->
     <g transform="translate(200.136687 180.286587)scale(0.1 -0.1)">
      <defs>
       <path d="M 9.8125 72.90625 
L 19.671875 72.90625 
L 19.671875 42.09375 
L 52.390625 72.90625 
L 65.09375 72.90625 
L 28.90625 38.921875 
L 67.671875 0 
L 54.6875 0 
L 19.671875 35.109375 
L 19.671875 0 
L 9.8125 0 
z
" id="DejaVuSans-75"/>
      </defs>
      <use xlink:href="#DejaVuSans-75"/>
      <use x="65.576172" xlink:href="#DejaVuSans-105"/>
      <use x="93.359375" xlink:href="#DejaVuSans-110"/>
      <use x="156.738281" xlink:href="#DejaVuSans-101"/>
      <use x="218.261719" xlink:href="#DejaVuSans-116"/>
      <use x="257.470703" xlink:href="#DejaVuSans-105"/>
      <use x="285.253906" xlink:href="#DejaVuSans-99"/>
      <use x="340.234375" xlink:href="#DejaVuSans-32"/>
      <use x="372.021484" xlink:href="#DejaVuSans-101"/>
      <use x="433.544922" xlink:href="#DejaVuSans-110"/>
      <use x="496.923828" xlink:href="#DejaVuSans-101"/>
      <use x="558.447266" xlink:href="#DejaVuSans-114"/>
      <use x="597.810547" xlink:href="#DejaVuSans-103"/>
      <use x="661.287109" xlink:href="#DejaVuSans-121"/>
     </g>
    </g>
    <g id="line2d_32">
     <path d="M 172.136687 191.464712 
L 192.136687 191.464712 
" style="fill:none;stroke:#ff7f0e;stroke-linecap:square;stroke-width:1.5;"/>
    </g>
    <g id="line2d_33"/>
    <g id="text_19">
     <!-- Potential energy -->
     <g transform="translate(200.136687 194.964712)scale(0.1 -0.1)">
      <defs>
       <path d="M 19.671875 64.796875 
L 19.671875 37.40625 
L 32.078125 37.40625 
Q 38.96875 37.40625 42.71875 40.96875 
Q 46.484375 44.53125 46.484375 51.125 
Q 46.484375 57.671875 42.71875 61.234375 
Q 38.96875 64.796875 32.078125 64.796875 
z
M 9.8125 72.90625 
L 32.078125 72.90625 
Q 44.34375 72.90625 50.609375 67.359375 
Q 56.890625 61.8125 56.890625 51.125 
Q 56.890625 40.328125 50.609375 34.8125 
Q 44.34375 29.296875 32.078125 29.296875 
L 19.671875 29.296875 
L 19.671875 0 
L 9.8125 0 
z
" id="DejaVuSans-80"/>
      </defs>
      <use xlink:href="#DejaVuSans-80"/>
      <use x="56.677734" xlink:href="#DejaVuSans-111"/>
      <use x="117.859375" xlink:href="#DejaVuSans-116"/>
      <use x="157.068359" xlink:href="#DejaVuSans-101"/>
      <use x="218.591797" xlink:href="#DejaVuSans-110"/>
      <use x="281.970703" xlink:href="#DejaVuSans-116"/>
      <use x="321.179688" xlink:href="#DejaVuSans-105"/>
      <use x="348.962891" xlink:href="#DejaVuSans-97"/>
      <use x="410.242188" xlink:href="#DejaVuSans-108"/>
      <use x="438.025391" xlink:href="#DejaVuSans-32"/>
      <use x="469.8125" xlink:href="#DejaVuSans-101"/>
      <use x="531.335938" xlink:href="#DejaVuSans-110"/>
      <use x="594.714844" xlink:href="#DejaVuSans-101"/>
      <use x="656.238281" xlink:href="#DejaVuSans-114"/>
      <use x="695.601562" xlink:href="#DejaVuSans-103"/>
      <use x="759.078125" xlink:href="#DejaVuSans-121"/>
     </g>
    </g>
    <g id="line2d_34">
     <path d="M 172.136687 206.142837 
L 192.136687 206.142837 
" style="fill:none;stroke:#2ca02c;stroke-dasharray:5.55,2.4;stroke-dashoffset:0;stroke-width:1.5;"/>
    </g>
    <g id="line2d_35"/>
    <g id="text_20">
     <!-- Total energy. E_mean = -1.00e+00, E_std = 1.23e-06 -->
     <g transform="translate(200.136687 209.642837)scale(0.1 -0.1)">
      <defs>
       <path d="M -0.296875 72.90625 
L 61.375 72.90625 
L 61.375 64.59375 
L 35.5 64.59375 
L 35.5 0 
L 25.59375 0 
L 25.59375 64.59375 
L -0.296875 64.59375 
z
" id="DejaVuSans-84"/>
       <path d="M 50.984375 -16.609375 
L 50.984375 -23.578125 
L -0.984375 -23.578125 
L -0.984375 -16.609375 
z
" id="DejaVuSans-95"/>
       <path d="M 40.578125 39.3125 
Q 47.65625 37.796875 51.625 33 
Q 55.609375 28.21875 55.609375 21.1875 
Q 55.609375 10.40625 48.1875 4.484375 
Q 40.765625 -1.421875 27.09375 -1.421875 
Q 22.515625 -1.421875 17.65625 -0.515625 
Q 12.796875 0.390625 7.625 2.203125 
L 7.625 11.71875 
Q 11.71875 9.328125 16.59375 8.109375 
Q 21.484375 6.890625 26.8125 6.890625 
Q 36.078125 6.890625 40.9375 10.546875 
Q 45.796875 14.203125 45.796875 21.1875 
Q 45.796875 27.640625 41.28125 31.265625 
Q 36.765625 34.90625 28.71875 34.90625 
L 20.21875 34.90625 
L 20.21875 43.015625 
L 29.109375 43.015625 
Q 36.375 43.015625 40.234375 45.921875 
Q 44.09375 48.828125 44.09375 54.296875 
Q 44.09375 59.90625 40.109375 62.90625 
Q 36.140625 65.921875 28.71875 65.921875 
Q 24.65625 65.921875 20.015625 65.03125 
Q 15.375 64.15625 9.8125 62.3125 
L 9.8125 71.09375 
Q 15.4375 72.65625 20.34375 73.4375 
Q 25.25 74.21875 29.59375 74.21875 
Q 40.828125 74.21875 47.359375 69.109375 
Q 53.90625 64.015625 53.90625 55.328125 
Q 53.90625 49.265625 50.4375 45.09375 
Q 46.96875 40.921875 40.578125 39.3125 
z
" id="DejaVuSans-51"/>
      </defs>
      <use xlink:href="#DejaVuSans-84"/>
      <use x="44.083984" xlink:href="#DejaVuSans-111"/>
      <use x="105.265625" xlink:href="#DejaVuSans-116"/>
      <use x="144.474609" xlink:href="#DejaVuSans-97"/>
      <use x="205.753906" xlink:href="#DejaVuSans-108"/>
      <use x="233.537109" xlink:href="#DejaVuSans-32"/>
      <use x="265.324219" xlink:href="#DejaVuSans-101"/>
      <use x="326.847656" xlink:href="#DejaVuSans-110"/>
      <use x="390.226562" xlink:href="#DejaVuSans-101"/>
      <use x="451.75" xlink:href="#DejaVuSans-114"/>
      <use x="491.113281" xlink:href="#DejaVuSans-103"/>
      <use x="554.589844" xlink:href="#DejaVuSans-121"/>
      <use x="599.519531" xlink:href="#DejaVuSans-46"/>
      <use x="631.306641" xlink:href="#DejaVuSans-32"/>
      <use x="663.09375" xlink:href="#DejaVuSans-69"/>
      <use x="726.277344" xlink:href="#DejaVuSans-95"/>
      <use x="776.277344" xlink:href="#DejaVuSans-109"/>
      <use x="873.689453" xlink:href="#DejaVuSans-101"/>
      <use x="935.212891" xlink:href="#DejaVuSans-97"/>
      <use x="996.492188" xlink:href="#DejaVuSans-110"/>
      <use x="1059.871094" xlink:href="#DejaVuSans-32"/>
      <use x="1091.658203" xlink:href="#DejaVuSans-61"/>
      <use x="1175.447266" xlink:href="#DejaVuSans-32"/>
      <use x="1207.234375" xlink:href="#DejaVuSans-45"/>
      <use x="1243.318359" xlink:href="#DejaVuSans-49"/>
      <use x="1306.941406" xlink:href="#DejaVuSans-46"/>
      <use x="1338.728516" xlink:href="#DejaVuSans-48"/>
      <use x="1402.351562" xlink:href="#DejaVuSans-48"/>
      <use x="1465.974609" xlink:href="#DejaVuSans-101"/>
      <use x="1527.498047" xlink:href="#DejaVuSans-43"/>
      <use x="1611.287109" xlink:href="#DejaVuSans-48"/>
      <use x="1674.910156" xlink:href="#DejaVuSans-48"/>
      <use x="1738.533203" xlink:href="#DejaVuSans-44"/>
      <use x="1770.320312" xlink:href="#DejaVuSans-32"/>
      <use x="1802.107422" xlink:href="#DejaVuSans-69"/>
      <use x="1865.291016" xlink:href="#DejaVuSans-95"/>
      <use x="1915.291016" xlink:href="#DejaVuSans-115"/>
      <use x="1967.390625" xlink:href="#DejaVuSans-116"/>
      <use x="2006.599609" xlink:href="#DejaVuSans-100"/>
      <use x="2070.076172" xlink:href="#DejaVuSans-32"/>
      <use x="2101.863281" xlink:href="#DejaVuSans-61"/>
      <use x="2185.652344" xlink:href="#DejaVuSans-32"/>
      <use x="2217.439453" xlink:href="#DejaVuSans-49"/>
      <use x="2281.0625" xlink:href="#DejaVuSans-46"/>
      <use x="2312.849609" xlink:href="#DejaVuSans-50"/>
      <use x="2376.472656" xlink:href="#DejaVuSans-51"/>
      <use x="2440.095703" xlink:href="#DejaVuSans-101"/>
      <use x="2501.619141" xlink:href="#DejaVuSans-45"/>
      <use x="2537.703125" xlink:href="#DejaVuSans-48"/>
      <use x="2601.326172" xlink:href="#DejaVuSans-54"/>
     </g>
    </g>
   </g>
  </g>
 </g>
 <defs>
  <clipPath id="p8b52a84649">
   <rect height="293.2776" width="409.572" x="66.06" y="45.7056"/>
  </clipPath>
 </defs>
</svg>
