<?xml version="1.0" encoding="utf-8" standalone="no"?>
<!DOCTYPE svg PUBLIC "-//W3C//DTD SVG 1.1//EN"
  "http://www.w3.org/Graphics/SVG/1.1/DTD/svg11.dtd">
<!-- Created with matplotlib (https://matplotlib.org/) -->
<svg height="375.84pt" version="1.1" viewBox="0 0 502.56 375.84" width="502.56pt" xmlns="http://www.w3.org/2000/svg" xmlns:xlink="http://www.w3.org/1999/xlink">
 <metadata>
  <rdf:RDF xmlns:cc="http://creativecommons.org/ns#" xmlns:dc="http://purl.org/dc/elements/1.1/" xmlns:rdf="http://www.w3.org/1999/02/22-rdf-syntax-ns#">
   <cc:Work>
    <dc:type rdf:resource="http://purl.org/dc/dcmitype/StillImage"/>
    <dc:date>2020-10-22T15:48:57.432026</dc:date>
    <dc:format>image/svg+xml</dc:format>
    <dc:creator>
     <cc:Agent>
      <dc:title>Matplotlib v3.3.2, https://matplotlib.org/</dc:title>
     </cc:Agent>
    </dc:creator>
   </cc:Work>
  </rdf:RDF>
 </metadata>
 <defs>
  <style type="text/css">*{stroke-linecap:butt;stroke-linejoin:round;}</style>
 </defs>
 <g id="figure_1">
  <g id="patch_1">
   <path d="M 0 375.84 
L 502.56 375.84 
L 502.56 0 
L 0 0 
z
" style="fill:#ffffff;"/>
  </g>
  <g id="axes_1">
   <g id="patch_2">
    <path d="M 62.82 334.4976 
L 452.304 334.4976 
L 452.304 45.1008 
L 62.82 45.1008 
z
" style="fill:#ffffff;"/>
   </g>
   <g id="matplotlib.axis_1">
    <g id="xtick_1">
     <g id="line2d_1">
      <path clip-path="url(#p197d3355b1)" d="M 80.523818 334.4976 
L 80.523818 45.1008 
" style="fill:none;stroke:#b0b0b0;stroke-linecap:square;stroke-width:0.8;"/>
     </g>
     <g id="line2d_2">
      <defs>
       <path d="M 0 0 
L 0 3.5 
" id="m3a4d3013c3" style="stroke:#000000;stroke-width:0.8;"/>
      </defs>
      <g>
       <use style="stroke:#000000;stroke-width:0.8;" x="80.523818" xlink:href="#m3a4d3013c3" y="334.4976"/>
      </g>
     </g>
     <g id="text_1">
      <!-- 0.0 -->
      <g transform="translate(72.572256 349.096037)scale(0.1 -0.1)">
       <defs>
        <path d="M 31.78125 66.40625 
Q 24.171875 66.40625 20.328125 58.90625 
Q 16.5 51.421875 16.5 36.375 
Q 16.5 21.390625 20.328125 13.890625 
Q 24.171875 6.390625 31.78125 6.390625 
Q 39.453125 6.390625 43.28125 13.890625 
Q 47.125 21.390625 47.125 36.375 
Q 47.125 51.421875 43.28125 58.90625 
Q 39.453125 66.40625 31.78125 66.40625 
z
M 31.78125 74.21875 
Q 44.046875 74.21875 50.515625 64.515625 
Q 56.984375 54.828125 56.984375 36.375 
Q 56.984375 17.96875 50.515625 8.265625 
Q 44.046875 -1.421875 31.78125 -1.421875 
Q 19.53125 -1.421875 13.0625 8.265625 
Q 6.59375 17.96875 6.59375 36.375 
Q 6.59375 54.828125 13.0625 64.515625 
Q 19.53125 74.21875 31.78125 74.21875 
z
" id="DejaVuSans-48"/>
        <path d="M 10.6875 12.40625 
L 21 12.40625 
L 21 0 
L 10.6875 0 
z
" id="DejaVuSans-46"/>
       </defs>
       <use xlink:href="#DejaVuSans-48"/>
       <use x="63.623047" xlink:href="#DejaVuSans-46"/>
       <use x="95.410156" xlink:href="#DejaVuSans-48"/>
      </g>
     </g>
    </g>
    <g id="xtick_2">
     <g id="line2d_3">
      <path clip-path="url(#p197d3355b1)" d="M 151.339091 334.4976 
L 151.339091 45.1008 
" style="fill:none;stroke:#b0b0b0;stroke-linecap:square;stroke-width:0.8;"/>
     </g>
     <g id="line2d_4">
      <g>
       <use style="stroke:#000000;stroke-width:0.8;" x="151.339091" xlink:href="#m3a4d3013c3" y="334.4976"/>
      </g>
     </g>
     <g id="text_2">
      <!-- 0.2 -->
      <g transform="translate(143.387528 349.096037)scale(0.1 -0.1)">
       <defs>
        <path d="M 19.1875 8.296875 
L 53.609375 8.296875 
L 53.609375 0 
L 7.328125 0 
L 7.328125 8.296875 
Q 12.9375 14.109375 22.625 23.890625 
Q 32.328125 33.6875 34.8125 36.53125 
Q 39.546875 41.84375 41.421875 45.53125 
Q 43.3125 49.21875 43.3125 52.78125 
Q 43.3125 58.59375 39.234375 62.25 
Q 35.15625 65.921875 28.609375 65.921875 
Q 23.96875 65.921875 18.8125 64.3125 
Q 13.671875 62.703125 7.8125 59.421875 
L 7.8125 69.390625 
Q 13.765625 71.78125 18.9375 73 
Q 24.125 74.21875 28.421875 74.21875 
Q 39.75 74.21875 46.484375 68.546875 
Q 53.21875 62.890625 53.21875 53.421875 
Q 53.21875 48.921875 51.53125 44.890625 
Q 49.859375 40.875 45.40625 35.40625 
Q 44.1875 33.984375 37.640625 27.21875 
Q 31.109375 20.453125 19.1875 8.296875 
z
" id="DejaVuSans-50"/>
       </defs>
       <use xlink:href="#DejaVuSans-48"/>
       <use x="63.623047" xlink:href="#DejaVuSans-46"/>
       <use x="95.410156" xlink:href="#DejaVuSans-50"/>
      </g>
     </g>
    </g>
    <g id="xtick_3">
     <g id="line2d_5">
      <path clip-path="url(#p197d3355b1)" d="M 222.154364 334.4976 
L 222.154364 45.1008 
" style="fill:none;stroke:#b0b0b0;stroke-linecap:square;stroke-width:0.8;"/>
     </g>
     <g id="line2d_6">
      <g>
       <use style="stroke:#000000;stroke-width:0.8;" x="222.154364" xlink:href="#m3a4d3013c3" y="334.4976"/>
      </g>
     </g>
     <g id="text_3">
      <!-- 0.4 -->
      <g transform="translate(214.202801 349.096037)scale(0.1 -0.1)">
       <defs>
        <path d="M 37.796875 64.3125 
L 12.890625 25.390625 
L 37.796875 25.390625 
z
M 35.203125 72.90625 
L 47.609375 72.90625 
L 47.609375 25.390625 
L 58.015625 25.390625 
L 58.015625 17.1875 
L 47.609375 17.1875 
L 47.609375 0 
L 37.796875 0 
L 37.796875 17.1875 
L 4.890625 17.1875 
L 4.890625 26.703125 
z
" id="DejaVuSans-52"/>
       </defs>
       <use xlink:href="#DejaVuSans-48"/>
       <use x="63.623047" xlink:href="#DejaVuSans-46"/>
       <use x="95.410156" xlink:href="#DejaVuSans-52"/>
      </g>
     </g>
    </g>
    <g id="xtick_4">
     <g id="line2d_7">
      <path clip-path="url(#p197d3355b1)" d="M 292.969636 334.4976 
L 292.969636 45.1008 
" style="fill:none;stroke:#b0b0b0;stroke-linecap:square;stroke-width:0.8;"/>
     </g>
     <g id="line2d_8">
      <g>
       <use style="stroke:#000000;stroke-width:0.8;" x="292.969636" xlink:href="#m3a4d3013c3" y="334.4976"/>
      </g>
     </g>
     <g id="text_4">
      <!-- 0.6 -->
      <g transform="translate(285.018074 349.096037)scale(0.1 -0.1)">
       <defs>
        <path d="M 33.015625 40.375 
Q 26.375 40.375 22.484375 35.828125 
Q 18.609375 31.296875 18.609375 23.390625 
Q 18.609375 15.53125 22.484375 10.953125 
Q 26.375 6.390625 33.015625 6.390625 
Q 39.65625 6.390625 43.53125 10.953125 
Q 47.40625 15.53125 47.40625 23.390625 
Q 47.40625 31.296875 43.53125 35.828125 
Q 39.65625 40.375 33.015625 40.375 
z
M 52.59375 71.296875 
L 52.59375 62.3125 
Q 48.875 64.0625 45.09375 64.984375 
Q 41.3125 65.921875 37.59375 65.921875 
Q 27.828125 65.921875 22.671875 59.328125 
Q 17.53125 52.734375 16.796875 39.40625 
Q 19.671875 43.65625 24.015625 45.921875 
Q 28.375 48.1875 33.59375 48.1875 
Q 44.578125 48.1875 50.953125 41.515625 
Q 57.328125 34.859375 57.328125 23.390625 
Q 57.328125 12.15625 50.6875 5.359375 
Q 44.046875 -1.421875 33.015625 -1.421875 
Q 20.359375 -1.421875 13.671875 8.265625 
Q 6.984375 17.96875 6.984375 36.375 
Q 6.984375 53.65625 15.1875 63.9375 
Q 23.390625 74.21875 37.203125 74.21875 
Q 40.921875 74.21875 44.703125 73.484375 
Q 48.484375 72.75 52.59375 71.296875 
z
" id="DejaVuSans-54"/>
       </defs>
       <use xlink:href="#DejaVuSans-48"/>
       <use x="63.623047" xlink:href="#DejaVuSans-46"/>
       <use x="95.410156" xlink:href="#DejaVuSans-54"/>
      </g>
     </g>
    </g>
    <g id="xtick_5">
     <g id="line2d_9">
      <path clip-path="url(#p197d3355b1)" d="M 363.784909 334.4976 
L 363.784909 45.1008 
" style="fill:none;stroke:#b0b0b0;stroke-linecap:square;stroke-width:0.8;"/>
     </g>
     <g id="line2d_10">
      <g>
       <use style="stroke:#000000;stroke-width:0.8;" x="363.784909" xlink:href="#m3a4d3013c3" y="334.4976"/>
      </g>
     </g>
     <g id="text_5">
      <!-- 0.8 -->
      <g transform="translate(355.833347 349.096037)scale(0.1 -0.1)">
       <defs>
        <path d="M 31.78125 34.625 
Q 24.75 34.625 20.71875 30.859375 
Q 16.703125 27.09375 16.703125 20.515625 
Q 16.703125 13.921875 20.71875 10.15625 
Q 24.75 6.390625 31.78125 6.390625 
Q 38.8125 6.390625 42.859375 10.171875 
Q 46.921875 13.96875 46.921875 20.515625 
Q 46.921875 27.09375 42.890625 30.859375 
Q 38.875 34.625 31.78125 34.625 
z
M 21.921875 38.8125 
Q 15.578125 40.375 12.03125 44.71875 
Q 8.5 49.078125 8.5 55.328125 
Q 8.5 64.0625 14.71875 69.140625 
Q 20.953125 74.21875 31.78125 74.21875 
Q 42.671875 74.21875 48.875 69.140625 
Q 55.078125 64.0625 55.078125 55.328125 
Q 55.078125 49.078125 51.53125 44.71875 
Q 48 40.375 41.703125 38.8125 
Q 48.828125 37.15625 52.796875 32.3125 
Q 56.78125 27.484375 56.78125 20.515625 
Q 56.78125 9.90625 50.3125 4.234375 
Q 43.84375 -1.421875 31.78125 -1.421875 
Q 19.734375 -1.421875 13.25 4.234375 
Q 6.78125 9.90625 6.78125 20.515625 
Q 6.78125 27.484375 10.78125 32.3125 
Q 14.796875 37.15625 21.921875 38.8125 
z
M 18.3125 54.390625 
Q 18.3125 48.734375 21.84375 45.5625 
Q 25.390625 42.390625 31.78125 42.390625 
Q 38.140625 42.390625 41.71875 45.5625 
Q 45.3125 48.734375 45.3125 54.390625 
Q 45.3125 60.0625 41.71875 63.234375 
Q 38.140625 66.40625 31.78125 66.40625 
Q 25.390625 66.40625 21.84375 63.234375 
Q 18.3125 60.0625 18.3125 54.390625 
z
" id="DejaVuSans-56"/>
       </defs>
       <use xlink:href="#DejaVuSans-48"/>
       <use x="63.623047" xlink:href="#DejaVuSans-46"/>
       <use x="95.410156" xlink:href="#DejaVuSans-56"/>
      </g>
     </g>
    </g>
    <g id="xtick_6">
     <g id="line2d_11">
      <path clip-path="url(#p197d3355b1)" d="M 434.600182 334.4976 
L 434.600182 45.1008 
" style="fill:none;stroke:#b0b0b0;stroke-linecap:square;stroke-width:0.8;"/>
     </g>
     <g id="line2d_12">
      <g>
       <use style="stroke:#000000;stroke-width:0.8;" x="434.600182" xlink:href="#m3a4d3013c3" y="334.4976"/>
      </g>
     </g>
     <g id="text_6">
      <!-- 1.0 -->
      <g transform="translate(426.648619 349.096037)scale(0.1 -0.1)">
       <defs>
        <path d="M 12.40625 8.296875 
L 28.515625 8.296875 
L 28.515625 63.921875 
L 10.984375 60.40625 
L 10.984375 69.390625 
L 28.421875 72.90625 
L 38.28125 72.90625 
L 38.28125 8.296875 
L 54.390625 8.296875 
L 54.390625 0 
L 12.40625 0 
z
" id="DejaVuSans-49"/>
       </defs>
       <use xlink:href="#DejaVuSans-49"/>
       <use x="63.623047" xlink:href="#DejaVuSans-46"/>
       <use x="95.410156" xlink:href="#DejaVuSans-48"/>
      </g>
     </g>
    </g>
    <g id="text_7">
     <!-- N [number of time steps] -->
     <g transform="translate(194.513563 362.774162)scale(0.1 -0.1)">
      <defs>
       <path d="M 9.8125 72.90625 
L 23.09375 72.90625 
L 55.421875 11.921875 
L 55.421875 72.90625 
L 64.984375 72.90625 
L 64.984375 0 
L 51.703125 0 
L 19.390625 60.984375 
L 19.390625 0 
L 9.8125 0 
z
" id="DejaVuSans-78"/>
       <path id="DejaVuSans-32"/>
       <path d="M 8.59375 75.984375 
L 29.296875 75.984375 
L 29.296875 69 
L 17.578125 69 
L 17.578125 -6.203125 
L 29.296875 -6.203125 
L 29.296875 -13.1875 
L 8.59375 -13.1875 
z
" id="DejaVuSans-91"/>
       <path d="M 54.890625 33.015625 
L 54.890625 0 
L 45.90625 0 
L 45.90625 32.71875 
Q 45.90625 40.484375 42.875 44.328125 
Q 39.84375 48.1875 33.796875 48.1875 
Q 26.515625 48.1875 22.3125 43.546875 
Q 18.109375 38.921875 18.109375 30.90625 
L 18.109375 0 
L 9.078125 0 
L 9.078125 54.6875 
L 18.109375 54.6875 
L 18.109375 46.1875 
Q 21.34375 51.125 25.703125 53.5625 
Q 30.078125 56 35.796875 56 
Q 45.21875 56 50.046875 50.171875 
Q 54.890625 44.34375 54.890625 33.015625 
z
" id="DejaVuSans-110"/>
       <path d="M 8.5 21.578125 
L 8.5 54.6875 
L 17.484375 54.6875 
L 17.484375 21.921875 
Q 17.484375 14.15625 20.5 10.265625 
Q 23.53125 6.390625 29.59375 6.390625 
Q 36.859375 6.390625 41.078125 11.03125 
Q 45.3125 15.671875 45.3125 23.6875 
L 45.3125 54.6875 
L 54.296875 54.6875 
L 54.296875 0 
L 45.3125 0 
L 45.3125 8.40625 
Q 42.046875 3.421875 37.71875 1 
Q 33.40625 -1.421875 27.6875 -1.421875 
Q 18.265625 -1.421875 13.375 4.4375 
Q 8.5 10.296875 8.5 21.578125 
z
M 31.109375 56 
z
" id="DejaVuSans-117"/>
       <path d="M 52 44.1875 
Q 55.375 50.25 60.0625 53.125 
Q 64.75 56 71.09375 56 
Q 79.640625 56 84.28125 50.015625 
Q 88.921875 44.046875 88.921875 33.015625 
L 88.921875 0 
L 79.890625 0 
L 79.890625 32.71875 
Q 79.890625 40.578125 77.09375 44.375 
Q 74.3125 48.1875 68.609375 48.1875 
Q 61.625 48.1875 57.5625 43.546875 
Q 53.515625 38.921875 53.515625 30.90625 
L 53.515625 0 
L 44.484375 0 
L 44.484375 32.71875 
Q 44.484375 40.625 41.703125 44.40625 
Q 38.921875 48.1875 33.109375 48.1875 
Q 26.21875 48.1875 22.15625 43.53125 
Q 18.109375 38.875 18.109375 30.90625 
L 18.109375 0 
L 9.078125 0 
L 9.078125 54.6875 
L 18.109375 54.6875 
L 18.109375 46.1875 
Q 21.1875 51.21875 25.484375 53.609375 
Q 29.78125 56 35.6875 56 
Q 41.65625 56 45.828125 52.96875 
Q 50 49.953125 52 44.1875 
z
" id="DejaVuSans-109"/>
       <path d="M 48.6875 27.296875 
Q 48.6875 37.203125 44.609375 42.84375 
Q 40.53125 48.484375 33.40625 48.484375 
Q 26.265625 48.484375 22.1875 42.84375 
Q 18.109375 37.203125 18.109375 27.296875 
Q 18.109375 17.390625 22.1875 11.75 
Q 26.265625 6.109375 33.40625 6.109375 
Q 40.53125 6.109375 44.609375 11.75 
Q 48.6875 17.390625 48.6875 27.296875 
z
M 18.109375 46.390625 
Q 20.953125 51.265625 25.265625 53.625 
Q 29.59375 56 35.59375 56 
Q 45.5625 56 51.78125 48.09375 
Q 58.015625 40.1875 58.015625 27.296875 
Q 58.015625 14.40625 51.78125 6.484375 
Q 45.5625 -1.421875 35.59375 -1.421875 
Q 29.59375 -1.421875 25.265625 0.953125 
Q 20.953125 3.328125 18.109375 8.203125 
L 18.109375 0 
L 9.078125 0 
L 9.078125 75.984375 
L 18.109375 75.984375 
z
" id="DejaVuSans-98"/>
       <path d="M 56.203125 29.59375 
L 56.203125 25.203125 
L 14.890625 25.203125 
Q 15.484375 15.921875 20.484375 11.0625 
Q 25.484375 6.203125 34.421875 6.203125 
Q 39.59375 6.203125 44.453125 7.46875 
Q 49.3125 8.734375 54.109375 11.28125 
L 54.109375 2.78125 
Q 49.265625 0.734375 44.1875 -0.34375 
Q 39.109375 -1.421875 33.890625 -1.421875 
Q 20.796875 -1.421875 13.15625 6.1875 
Q 5.515625 13.8125 5.515625 26.8125 
Q 5.515625 40.234375 12.765625 48.109375 
Q 20.015625 56 32.328125 56 
Q 43.359375 56 49.78125 48.890625 
Q 56.203125 41.796875 56.203125 29.59375 
z
M 47.21875 32.234375 
Q 47.125 39.59375 43.09375 43.984375 
Q 39.0625 48.390625 32.421875 48.390625 
Q 24.90625 48.390625 20.390625 44.140625 
Q 15.875 39.890625 15.1875 32.171875 
z
" id="DejaVuSans-101"/>
       <path d="M 41.109375 46.296875 
Q 39.59375 47.171875 37.8125 47.578125 
Q 36.03125 48 33.890625 48 
Q 26.265625 48 22.1875 43.046875 
Q 18.109375 38.09375 18.109375 28.8125 
L 18.109375 0 
L 9.078125 0 
L 9.078125 54.6875 
L 18.109375 54.6875 
L 18.109375 46.1875 
Q 20.953125 51.171875 25.484375 53.578125 
Q 30.03125 56 36.53125 56 
Q 37.453125 56 38.578125 55.875 
Q 39.703125 55.765625 41.0625 55.515625 
z
" id="DejaVuSans-114"/>
       <path d="M 30.609375 48.390625 
Q 23.390625 48.390625 19.1875 42.75 
Q 14.984375 37.109375 14.984375 27.296875 
Q 14.984375 17.484375 19.15625 11.84375 
Q 23.34375 6.203125 30.609375 6.203125 
Q 37.796875 6.203125 41.984375 11.859375 
Q 46.1875 17.53125 46.1875 27.296875 
Q 46.1875 37.015625 41.984375 42.703125 
Q 37.796875 48.390625 30.609375 48.390625 
z
M 30.609375 56 
Q 42.328125 56 49.015625 48.375 
Q 55.71875 40.765625 55.71875 27.296875 
Q 55.71875 13.875 49.015625 6.21875 
Q 42.328125 -1.421875 30.609375 -1.421875 
Q 18.84375 -1.421875 12.171875 6.21875 
Q 5.515625 13.875 5.515625 27.296875 
Q 5.515625 40.765625 12.171875 48.375 
Q 18.84375 56 30.609375 56 
z
" id="DejaVuSans-111"/>
       <path d="M 37.109375 75.984375 
L 37.109375 68.5 
L 28.515625 68.5 
Q 23.6875 68.5 21.796875 66.546875 
Q 19.921875 64.59375 19.921875 59.515625 
L 19.921875 54.6875 
L 34.71875 54.6875 
L 34.71875 47.703125 
L 19.921875 47.703125 
L 19.921875 0 
L 10.890625 0 
L 10.890625 47.703125 
L 2.296875 47.703125 
L 2.296875 54.6875 
L 10.890625 54.6875 
L 10.890625 58.5 
Q 10.890625 67.625 15.140625 71.796875 
Q 19.390625 75.984375 28.609375 75.984375 
z
" id="DejaVuSans-102"/>
       <path d="M 18.3125 70.21875 
L 18.3125 54.6875 
L 36.8125 54.6875 
L 36.8125 47.703125 
L 18.3125 47.703125 
L 18.3125 18.015625 
Q 18.3125 11.328125 20.140625 9.421875 
Q 21.96875 7.515625 27.59375 7.515625 
L 36.8125 7.515625 
L 36.8125 0 
L 27.59375 0 
Q 17.1875 0 13.234375 3.875 
Q 9.28125 7.765625 9.28125 18.015625 
L 9.28125 47.703125 
L 2.6875 47.703125 
L 2.6875 54.6875 
L 9.28125 54.6875 
L 9.28125 70.21875 
z
" id="DejaVuSans-116"/>
       <path d="M 9.421875 54.6875 
L 18.40625 54.6875 
L 18.40625 0 
L 9.421875 0 
z
M 9.421875 75.984375 
L 18.40625 75.984375 
L 18.40625 64.59375 
L 9.421875 64.59375 
z
" id="DejaVuSans-105"/>
       <path d="M 44.28125 53.078125 
L 44.28125 44.578125 
Q 40.484375 46.53125 36.375 47.5 
Q 32.28125 48.484375 27.875 48.484375 
Q 21.1875 48.484375 17.84375 46.4375 
Q 14.5 44.390625 14.5 40.28125 
Q 14.5 37.15625 16.890625 35.375 
Q 19.28125 33.59375 26.515625 31.984375 
L 29.59375 31.296875 
Q 39.15625 29.25 43.1875 25.515625 
Q 47.21875 21.78125 47.21875 15.09375 
Q 47.21875 7.46875 41.1875 3.015625 
Q 35.15625 -1.421875 24.609375 -1.421875 
Q 20.21875 -1.421875 15.453125 -0.5625 
Q 10.6875 0.296875 5.421875 2 
L 5.421875 11.28125 
Q 10.40625 8.6875 15.234375 7.390625 
Q 20.0625 6.109375 24.8125 6.109375 
Q 31.15625 6.109375 34.5625 8.28125 
Q 37.984375 10.453125 37.984375 14.40625 
Q 37.984375 18.0625 35.515625 20.015625 
Q 33.0625 21.96875 24.703125 23.78125 
L 21.578125 24.515625 
Q 13.234375 26.265625 9.515625 29.90625 
Q 5.8125 33.546875 5.8125 39.890625 
Q 5.8125 47.609375 11.28125 51.796875 
Q 16.75 56 26.8125 56 
Q 31.78125 56 36.171875 55.265625 
Q 40.578125 54.546875 44.28125 53.078125 
z
" id="DejaVuSans-115"/>
       <path d="M 18.109375 8.203125 
L 18.109375 -20.796875 
L 9.078125 -20.796875 
L 9.078125 54.6875 
L 18.109375 54.6875 
L 18.109375 46.390625 
Q 20.953125 51.265625 25.265625 53.625 
Q 29.59375 56 35.59375 56 
Q 45.5625 56 51.78125 48.09375 
Q 58.015625 40.1875 58.015625 27.296875 
Q 58.015625 14.40625 51.78125 6.484375 
Q 45.5625 -1.421875 35.59375 -1.421875 
Q 29.59375 -1.421875 25.265625 0.953125 
Q 20.953125 3.328125 18.109375 8.203125 
z
M 48.6875 27.296875 
Q 48.6875 37.203125 44.609375 42.84375 
Q 40.53125 48.484375 33.40625 48.484375 
Q 26.265625 48.484375 22.1875 42.84375 
Q 18.109375 37.203125 18.109375 27.296875 
Q 18.109375 17.390625 22.1875 11.75 
Q 26.265625 6.109375 33.40625 6.109375 
Q 40.53125 6.109375 44.609375 11.75 
Q 48.6875 17.390625 48.6875 27.296875 
z
" id="DejaVuSans-112"/>
       <path d="M 30.421875 75.984375 
L 30.421875 -13.1875 
L 9.71875 -13.1875 
L 9.71875 -6.203125 
L 21.390625 -6.203125 
L 21.390625 69 
L 9.71875 69 
L 9.71875 75.984375 
z
" id="DejaVuSans-93"/>
      </defs>
      <use xlink:href="#DejaVuSans-78"/>
      <use x="74.804688" xlink:href="#DejaVuSans-32"/>
      <use x="106.591797" xlink:href="#DejaVuSans-91"/>
      <use x="145.605469" xlink:href="#DejaVuSans-110"/>
      <use x="208.984375" xlink:href="#DejaVuSans-117"/>
      <use x="272.363281" xlink:href="#DejaVuSans-109"/>
      <use x="369.775391" xlink:href="#DejaVuSans-98"/>
      <use x="433.251953" xlink:href="#DejaVuSans-101"/>
      <use x="494.775391" xlink:href="#DejaVuSans-114"/>
      <use x="535.888672" xlink:href="#DejaVuSans-32"/>
      <use x="567.675781" xlink:href="#DejaVuSans-111"/>
      <use x="628.857422" xlink:href="#DejaVuSans-102"/>
      <use x="664.0625" xlink:href="#DejaVuSans-32"/>
      <use x="695.849609" xlink:href="#DejaVuSans-116"/>
      <use x="735.058594" xlink:href="#DejaVuSans-105"/>
      <use x="762.841797" xlink:href="#DejaVuSans-109"/>
      <use x="860.253906" xlink:href="#DejaVuSans-101"/>
      <use x="921.777344" xlink:href="#DejaVuSans-32"/>
      <use x="953.564453" xlink:href="#DejaVuSans-115"/>
      <use x="1005.664062" xlink:href="#DejaVuSans-116"/>
      <use x="1044.873047" xlink:href="#DejaVuSans-101"/>
      <use x="1106.396484" xlink:href="#DejaVuSans-112"/>
      <use x="1169.873047" xlink:href="#DejaVuSans-115"/>
      <use x="1221.972656" xlink:href="#DejaVuSans-93"/>
     </g>
    </g>
    <g id="text_8">
     <!-- 1e7 -->
     <g transform="translate(433.425875 361.774162)scale(0.1 -0.1)">
      <defs>
       <path d="M 8.203125 72.90625 
L 55.078125 72.90625 
L 55.078125 68.703125 
L 28.609375 0 
L 18.3125 0 
L 43.21875 64.59375 
L 8.203125 64.59375 
z
" id="DejaVuSans-55"/>
      </defs>
      <use xlink:href="#DejaVuSans-49"/>
      <use x="63.623047" xlink:href="#DejaVuSans-101"/>
      <use x="125.146484" xlink:href="#DejaVuSans-55"/>
     </g>
    </g>
   </g>
   <g id="matplotlib.axis_2">
    <g id="ytick_1">
     <g id="line2d_13">
      <path clip-path="url(#p197d3355b1)" d="M 62.82 326.702253 
L 452.304 326.702253 
" style="fill:none;stroke:#b0b0b0;stroke-linecap:square;stroke-width:0.8;"/>
     </g>
     <g id="line2d_14">
      <defs>
       <path d="M 0 0 
L -3.5 0 
" id="m0563978deb" style="stroke:#000000;stroke-width:0.8;"/>
      </defs>
      <g>
       <use style="stroke:#000000;stroke-width:0.8;" x="62.82" xlink:href="#m0563978deb" y="326.702253"/>
      </g>
     </g>
     <g id="text_9">
      <!-- −2.5 -->
      <g transform="translate(31.537188 330.501472)scale(0.1 -0.1)">
       <defs>
        <path d="M 10.59375 35.5 
L 73.1875 35.5 
L 73.1875 27.203125 
L 10.59375 27.203125 
z
" id="DejaVuSans-8722"/>
        <path d="M 10.796875 72.90625 
L 49.515625 72.90625 
L 49.515625 64.59375 
L 19.828125 64.59375 
L 19.828125 46.734375 
Q 21.96875 47.46875 24.109375 47.828125 
Q 26.265625 48.1875 28.421875 48.1875 
Q 40.625 48.1875 47.75 41.5 
Q 54.890625 34.8125 54.890625 23.390625 
Q 54.890625 11.625 47.5625 5.09375 
Q 40.234375 -1.421875 26.90625 -1.421875 
Q 22.3125 -1.421875 17.546875 -0.640625 
Q 12.796875 0.140625 7.71875 1.703125 
L 7.71875 11.625 
Q 12.109375 9.234375 16.796875 8.0625 
Q 21.484375 6.890625 26.703125 6.890625 
Q 35.15625 6.890625 40.078125 11.328125 
Q 45.015625 15.765625 45.015625 23.390625 
Q 45.015625 31 40.078125 35.4375 
Q 35.15625 39.890625 26.703125 39.890625 
Q 22.75 39.890625 18.8125 39.015625 
Q 14.890625 38.140625 10.796875 36.28125 
z
" id="DejaVuSans-53"/>
       </defs>
       <use xlink:href="#DejaVuSans-8722"/>
       <use x="83.789062" xlink:href="#DejaVuSans-50"/>
       <use x="147.412109" xlink:href="#DejaVuSans-46"/>
       <use x="179.199219" xlink:href="#DejaVuSans-53"/>
      </g>
     </g>
    </g>
    <g id="ytick_2">
     <g id="line2d_15">
      <path clip-path="url(#p197d3355b1)" d="M 62.82 292.47649 
L 452.304 292.47649 
" style="fill:none;stroke:#b0b0b0;stroke-linecap:square;stroke-width:0.8;"/>
     </g>
     <g id="line2d_16">
      <g>
       <use style="stroke:#000000;stroke-width:0.8;" x="62.82" xlink:href="#m0563978deb" y="292.47649"/>
      </g>
     </g>
     <g id="text_10">
      <!-- −2.0 -->
      <g transform="translate(31.537188 296.275709)scale(0.1 -0.1)">
       <use xlink:href="#DejaVuSans-8722"/>
       <use x="83.789062" xlink:href="#DejaVuSans-50"/>
       <use x="147.412109" xlink:href="#DejaVuSans-46"/>
       <use x="179.199219" xlink:href="#DejaVuSans-48"/>
      </g>
     </g>
    </g>
    <g id="ytick_3">
     <g id="line2d_17">
      <path clip-path="url(#p197d3355b1)" d="M 62.82 258.250727 
L 452.304 258.250727 
" style="fill:none;stroke:#b0b0b0;stroke-linecap:square;stroke-width:0.8;"/>
     </g>
     <g id="line2d_18">
      <g>
       <use style="stroke:#000000;stroke-width:0.8;" x="62.82" xlink:href="#m0563978deb" y="258.250727"/>
      </g>
     </g>
     <g id="text_11">
      <!-- −1.5 -->
      <g transform="translate(31.537188 262.049945)scale(0.1 -0.1)">
       <use xlink:href="#DejaVuSans-8722"/>
       <use x="83.789062" xlink:href="#DejaVuSans-49"/>
       <use x="147.412109" xlink:href="#DejaVuSans-46"/>
       <use x="179.199219" xlink:href="#DejaVuSans-53"/>
      </g>
     </g>
    </g>
    <g id="ytick_4">
     <g id="line2d_19">
      <path clip-path="url(#p197d3355b1)" d="M 62.82 224.024963 
L 452.304 224.024963 
" style="fill:none;stroke:#b0b0b0;stroke-linecap:square;stroke-width:0.8;"/>
     </g>
     <g id="line2d_20">
      <g>
       <use style="stroke:#000000;stroke-width:0.8;" x="62.82" xlink:href="#m0563978deb" y="224.024963"/>
      </g>
     </g>
     <g id="text_12">
      <!-- −1.0 -->
      <g transform="translate(31.537188 227.824182)scale(0.1 -0.1)">
       <use xlink:href="#DejaVuSans-8722"/>
       <use x="83.789062" xlink:href="#DejaVuSans-49"/>
       <use x="147.412109" xlink:href="#DejaVuSans-46"/>
       <use x="179.199219" xlink:href="#DejaVuSans-48"/>
      </g>
     </g>
    </g>
    <g id="ytick_5">
     <g id="line2d_21">
      <path clip-path="url(#p197d3355b1)" d="M 62.82 189.7992 
L 452.304 189.7992 
" style="fill:none;stroke:#b0b0b0;stroke-linecap:square;stroke-width:0.8;"/>
     </g>
     <g id="line2d_22">
      <g>
       <use style="stroke:#000000;stroke-width:0.8;" x="62.82" xlink:href="#m0563978deb" y="189.7992"/>
      </g>
     </g>
     <g id="text_13">
      <!-- −0.5 -->
      <g transform="translate(31.537188 193.598419)scale(0.1 -0.1)">
       <use xlink:href="#DejaVuSans-8722"/>
       <use x="83.789062" xlink:href="#DejaVuSans-48"/>
       <use x="147.412109" xlink:href="#DejaVuSans-46"/>
       <use x="179.199219" xlink:href="#DejaVuSans-53"/>
      </g>
     </g>
    </g>
    <g id="ytick_6">
     <g id="line2d_23">
      <path clip-path="url(#p197d3355b1)" d="M 62.82 155.573437 
L 452.304 155.573437 
" style="fill:none;stroke:#b0b0b0;stroke-linecap:square;stroke-width:0.8;"/>
     </g>
     <g id="line2d_24">
      <g>
       <use style="stroke:#000000;stroke-width:0.8;" x="62.82" xlink:href="#m0563978deb" y="155.573437"/>
      </g>
     </g>
     <g id="text_14">
      <!-- 0.0 -->
      <g transform="translate(39.916875 159.372655)scale(0.1 -0.1)">
       <use xlink:href="#DejaVuSans-48"/>
       <use x="63.623047" xlink:href="#DejaVuSans-46"/>
       <use x="95.410156" xlink:href="#DejaVuSans-48"/>
      </g>
     </g>
    </g>
    <g id="ytick_7">
     <g id="line2d_25">
      <path clip-path="url(#p197d3355b1)" d="M 62.82 121.347673 
L 452.304 121.347673 
" style="fill:none;stroke:#b0b0b0;stroke-linecap:square;stroke-width:0.8;"/>
     </g>
     <g id="line2d_26">
      <g>
       <use style="stroke:#000000;stroke-width:0.8;" x="62.82" xlink:href="#m0563978deb" y="121.347673"/>
      </g>
     </g>
     <g id="text_15">
      <!-- 0.5 -->
      <g transform="translate(39.916875 125.146892)scale(0.1 -0.1)">
       <use xlink:href="#DejaVuSans-48"/>
       <use x="63.623047" xlink:href="#DejaVuSans-46"/>
       <use x="95.410156" xlink:href="#DejaVuSans-53"/>
      </g>
     </g>
    </g>
    <g id="ytick_8">
     <g id="line2d_27">
      <path clip-path="url(#p197d3355b1)" d="M 62.82 87.12191 
L 452.304 87.12191 
" style="fill:none;stroke:#b0b0b0;stroke-linecap:square;stroke-width:0.8;"/>
     </g>
     <g id="line2d_28">
      <g>
       <use style="stroke:#000000;stroke-width:0.8;" x="62.82" xlink:href="#m0563978deb" y="87.12191"/>
      </g>
     </g>
     <g id="text_16">
      <!-- 1.0 -->
      <g transform="translate(39.916875 90.921129)scale(0.1 -0.1)">
       <use xlink:href="#DejaVuSans-49"/>
       <use x="63.623047" xlink:href="#DejaVuSans-46"/>
       <use x="95.410156" xlink:href="#DejaVuSans-48"/>
      </g>
     </g>
    </g>
    <g id="ytick_9">
     <g id="line2d_29">
      <path clip-path="url(#p197d3355b1)" d="M 62.82 52.896147 
L 452.304 52.896147 
" style="fill:none;stroke:#b0b0b0;stroke-linecap:square;stroke-width:0.8;"/>
     </g>
     <g id="line2d_30">
      <g>
       <use style="stroke:#000000;stroke-width:0.8;" x="62.82" xlink:href="#m0563978deb" y="52.896147"/>
      </g>
     </g>
     <g id="text_17">
      <!-- 1.5 -->
      <g transform="translate(39.916875 56.695365)scale(0.1 -0.1)">
       <use xlink:href="#DejaVuSans-49"/>
       <use x="63.623047" xlink:href="#DejaVuSans-46"/>
       <use x="95.410156" xlink:href="#DejaVuSans-53"/>
      </g>
     </g>
    </g>
    <g id="text_18">
     <!-- Energy $[E_{tot}/max(|E_{tot}|)]$ -->
     <g transform="translate(25.137188 249.0992)rotate(-90)scale(0.1 -0.1)">
      <defs>
       <path d="M 9.8125 72.90625 
L 55.90625 72.90625 
L 55.90625 64.59375 
L 19.671875 64.59375 
L 19.671875 43.015625 
L 54.390625 43.015625 
L 54.390625 34.71875 
L 19.671875 34.71875 
L 19.671875 8.296875 
L 56.78125 8.296875 
L 56.78125 0 
L 9.8125 0 
z
" id="DejaVuSans-69"/>
       <path d="M 45.40625 27.984375 
Q 45.40625 37.75 41.375 43.109375 
Q 37.359375 48.484375 30.078125 48.484375 
Q 22.859375 48.484375 18.828125 43.109375 
Q 14.796875 37.75 14.796875 27.984375 
Q 14.796875 18.265625 18.828125 12.890625 
Q 22.859375 7.515625 30.078125 7.515625 
Q 37.359375 7.515625 41.375 12.890625 
Q 45.40625 18.265625 45.40625 27.984375 
z
M 54.390625 6.78125 
Q 54.390625 -7.171875 48.1875 -13.984375 
Q 42 -20.796875 29.203125 -20.796875 
Q 24.46875 -20.796875 20.265625 -20.09375 
Q 16.0625 -19.390625 12.109375 -17.921875 
L 12.109375 -9.1875 
Q 16.0625 -11.328125 19.921875 -12.34375 
Q 23.78125 -13.375 27.78125 -13.375 
Q 36.625 -13.375 41.015625 -8.765625 
Q 45.40625 -4.15625 45.40625 5.171875 
L 45.40625 9.625 
Q 42.625 4.78125 38.28125 2.390625 
Q 33.9375 0 27.875 0 
Q 17.828125 0 11.671875 7.65625 
Q 5.515625 15.328125 5.515625 27.984375 
Q 5.515625 40.671875 11.671875 48.328125 
Q 17.828125 56 27.875 56 
Q 33.9375 56 38.28125 53.609375 
Q 42.625 51.21875 45.40625 46.390625 
L 45.40625 54.6875 
L 54.390625 54.6875 
z
" id="DejaVuSans-103"/>
       <path d="M 32.171875 -5.078125 
Q 28.375 -14.84375 24.75 -17.8125 
Q 21.140625 -20.796875 15.09375 -20.796875 
L 7.90625 -20.796875 
L 7.90625 -13.28125 
L 13.1875 -13.28125 
Q 16.890625 -13.28125 18.9375 -11.515625 
Q 21 -9.765625 23.484375 -3.21875 
L 25.09375 0.875 
L 2.984375 54.6875 
L 12.5 54.6875 
L 29.59375 11.921875 
L 46.6875 54.6875 
L 56.203125 54.6875 
z
" id="DejaVuSans-121"/>
       <path d="M 16.890625 72.90625 
L 62.984375 72.90625 
L 61.375 64.59375 
L 25.09375 64.59375 
L 20.90625 43.015625 
L 55.71875 43.015625 
L 54.109375 34.71875 
L 19.28125 34.71875 
L 14.203125 8.296875 
L 51.3125 8.296875 
L 49.703125 0 
L 2.6875 0 
z
" id="DejaVuSans-Oblique-69"/>
       <path d="M 42.28125 54.6875 
L 40.921875 47.703125 
L 23 47.703125 
L 17.1875 18.015625 
Q 16.890625 16.359375 16.75 15.234375 
Q 16.609375 14.109375 16.609375 13.484375 
Q 16.609375 10.359375 18.484375 8.9375 
Q 20.359375 7.515625 24.515625 7.515625 
L 33.59375 7.515625 
L 32.078125 0 
L 23.484375 0 
Q 15.484375 0 11.546875 3.125 
Q 7.625 6.25 7.625 12.59375 
Q 7.625 13.71875 7.765625 15.0625 
Q 7.90625 16.40625 8.203125 18.015625 
L 14.015625 47.703125 
L 6.390625 47.703125 
L 7.8125 54.6875 
L 15.28125 54.6875 
L 18.3125 70.21875 
L 27.296875 70.21875 
L 24.3125 54.6875 
z
" id="DejaVuSans-Oblique-116"/>
       <path d="M 25.390625 -1.421875 
Q 15.765625 -1.421875 10.171875 4.515625 
Q 4.59375 10.453125 4.59375 20.703125 
Q 4.59375 26.65625 6.515625 32.828125 
Q 8.453125 39.015625 11.53125 43.21875 
Q 16.359375 49.75 22.3125 52.875 
Q 28.265625 56 35.796875 56 
Q 45.125 56 50.859375 50.1875 
Q 56.59375 44.390625 56.59375 35.015625 
Q 56.59375 28.515625 54.6875 22.0625 
Q 52.78125 15.625 49.703125 11.375 
Q 44.921875 4.828125 38.96875 1.703125 
Q 33.015625 -1.421875 25.390625 -1.421875 
z
M 13.921875 21 
Q 13.921875 13.578125 17.015625 9.890625 
Q 20.125 6.203125 26.421875 6.203125 
Q 35.453125 6.203125 41.375 14.078125 
Q 47.3125 21.96875 47.3125 34.078125 
Q 47.3125 41.15625 44.140625 44.765625 
Q 40.96875 48.390625 34.8125 48.390625 
Q 29.734375 48.390625 25.78125 46.015625 
Q 21.828125 43.65625 18.703125 38.8125 
Q 16.40625 35.203125 15.15625 30.5625 
Q 13.921875 25.921875 13.921875 21 
z
" id="DejaVuSans-Oblique-111"/>
       <path d="M 25.390625 72.90625 
L 33.6875 72.90625 
L 8.296875 -9.28125 
L 0 -9.28125 
z
" id="DejaVuSans-47"/>
       <path d="M 89.796875 33.015625 
L 83.40625 0 
L 74.421875 0 
L 80.71875 32.71875 
Q 81.109375 34.8125 81.296875 36.328125 
Q 81.5 37.84375 81.5 38.921875 
Q 81.5 43.3125 79.046875 45.75 
Q 76.609375 48.1875 72.21875 48.1875 
Q 65.671875 48.1875 60.546875 43.28125 
Q 55.421875 38.375 53.90625 30.515625 
L 47.90625 0 
L 38.921875 0 
L 45.3125 32.71875 
Q 45.703125 34.515625 45.890625 36.046875 
Q 46.09375 37.59375 46.09375 38.8125 
Q 46.09375 43.265625 43.65625 45.71875 
Q 41.21875 48.1875 36.921875 48.1875 
Q 30.28125 48.1875 25.140625 43.28125 
Q 20.015625 38.375 18.5 30.515625 
L 12.5 0 
L 3.515625 0 
L 14.203125 54.6875 
L 23.1875 54.6875 
L 21.484375 46.1875 
Q 25.140625 50.984375 30.046875 53.484375 
Q 34.96875 56 40.578125 56 
Q 46.53125 56 50.359375 52.875 
Q 54.203125 49.75 54.984375 44.1875 
Q 59.078125 49.953125 64.46875 52.96875 
Q 69.875 56 75.875 56 
Q 82.90625 56 86.734375 51.953125 
Q 90.578125 47.90625 90.578125 40.484375 
Q 90.578125 38.875 90.375 36.9375 
Q 90.1875 35.015625 89.796875 33.015625 
z
" id="DejaVuSans-Oblique-109"/>
       <path d="M 53.71875 31.203125 
L 47.609375 0 
L 38.625 0 
L 40.28125 8.296875 
Q 36.328125 3.421875 31.265625 1 
Q 26.21875 -1.421875 20.015625 -1.421875 
Q 13.03125 -1.421875 8.5625 2.84375 
Q 4.109375 7.125 4.109375 13.8125 
Q 4.109375 23.390625 11.75 28.953125 
Q 19.390625 34.515625 32.8125 34.515625 
L 45.3125 34.515625 
L 45.796875 36.921875 
Q 45.90625 37.3125 45.953125 37.765625 
Q 46 38.234375 46 39.203125 
Q 46 43.5625 42.453125 45.96875 
Q 38.921875 48.390625 32.515625 48.390625 
Q 28.125 48.390625 23.5 47.265625 
Q 18.890625 46.140625 14.015625 43.890625 
L 15.578125 52.203125 
Q 20.65625 54.109375 25.515625 55.046875 
Q 30.375 56 34.90625 56 
Q 44.578125 56 49.625 51.796875 
Q 54.6875 47.609375 54.6875 39.59375 
Q 54.6875 37.984375 54.4375 35.8125 
Q 54.203125 33.640625 53.71875 31.203125 
z
M 44 27.484375 
L 35.015625 27.484375 
Q 23.96875 27.484375 18.671875 24.53125 
Q 13.375 21.578125 13.375 15.375 
Q 13.375 11.078125 16.078125 8.640625 
Q 18.796875 6.203125 23.578125 6.203125 
Q 30.90625 6.203125 36.375 11.453125 
Q 41.84375 16.703125 43.609375 25.484375 
z
" id="DejaVuSans-Oblique-97"/>
       <path d="M 60.015625 54.6875 
L 34.90625 27.875 
L 50.296875 0 
L 39.984375 0 
L 28.421875 21.6875 
L 8.296875 0 
L -2.59375 0 
L 24.3125 28.8125 
L 10.015625 54.6875 
L 20.3125 54.6875 
L 30.8125 34.90625 
L 49.125 54.6875 
z
" id="DejaVuSans-Oblique-120"/>
       <path d="M 31 75.875 
Q 24.46875 64.65625 21.28125 53.65625 
Q 18.109375 42.671875 18.109375 31.390625 
Q 18.109375 20.125 21.3125 9.0625 
Q 24.515625 -2 31 -13.1875 
L 23.1875 -13.1875 
Q 15.875 -1.703125 12.234375 9.375 
Q 8.59375 20.453125 8.59375 31.390625 
Q 8.59375 42.28125 12.203125 53.3125 
Q 15.828125 64.359375 23.1875 75.875 
z
" id="DejaVuSans-40"/>
       <path d="M 21 76.421875 
L 21 -23.578125 
L 12.703125 -23.578125 
L 12.703125 76.421875 
z
" id="DejaVuSans-124"/>
       <path d="M 8.015625 75.875 
L 15.828125 75.875 
Q 23.140625 64.359375 26.78125 53.3125 
Q 30.421875 42.28125 30.421875 31.390625 
Q 30.421875 20.453125 26.78125 9.375 
Q 23.140625 -1.703125 15.828125 -13.1875 
L 8.015625 -13.1875 
Q 14.5 -2 17.703125 9.0625 
Q 20.90625 20.125 20.90625 31.390625 
Q 20.90625 42.671875 17.703125 53.65625 
Q 14.5 64.65625 8.015625 75.875 
z
" id="DejaVuSans-41"/>
      </defs>
      <use transform="translate(0 0.578125)" xlink:href="#DejaVuSans-69"/>
      <use transform="translate(63.183594 0.578125)" xlink:href="#DejaVuSans-110"/>
      <use transform="translate(126.5625 0.578125)" xlink:href="#DejaVuSans-101"/>
      <use transform="translate(188.085938 0.578125)" xlink:href="#DejaVuSans-114"/>
      <use transform="translate(229.199219 0.578125)" xlink:href="#DejaVuSans-103"/>
      <use transform="translate(292.675781 0.578125)" xlink:href="#DejaVuSans-121"/>
      <use transform="translate(351.855469 0.578125)" xlink:href="#DejaVuSans-32"/>
      <use transform="translate(383.642578 0.578125)" xlink:href="#DejaVuSans-91"/>
      <use transform="translate(422.65625 0.578125)" xlink:href="#DejaVuSans-Oblique-69"/>
      <use transform="translate(485.839844 -15.828125)scale(0.7)" xlink:href="#DejaVuSans-Oblique-116"/>
      <use transform="translate(513.286133 -15.828125)scale(0.7)" xlink:href="#DejaVuSans-Oblique-111"/>
      <use transform="translate(556.113281 -15.828125)scale(0.7)" xlink:href="#DejaVuSans-Oblique-116"/>
      <use transform="translate(586.293945 0.578125)" xlink:href="#DejaVuSans-47"/>
      <use transform="translate(619.985352 0.578125)" xlink:href="#DejaVuSans-Oblique-109"/>
      <use transform="translate(717.397461 0.578125)" xlink:href="#DejaVuSans-Oblique-97"/>
      <use transform="translate(778.676758 0.578125)" xlink:href="#DejaVuSans-Oblique-120"/>
      <use transform="translate(837.856445 0.578125)" xlink:href="#DejaVuSans-40"/>
      <use transform="translate(876.870117 0.578125)" xlink:href="#DejaVuSans-124"/>
      <use transform="translate(910.561523 0.578125)" xlink:href="#DejaVuSans-Oblique-69"/>
      <use transform="translate(973.745117 -15.828125)scale(0.7)" xlink:href="#DejaVuSans-Oblique-116"/>
      <use transform="translate(1001.191406 -15.828125)scale(0.7)" xlink:href="#DejaVuSans-Oblique-111"/>
      <use transform="translate(1044.018555 -15.828125)scale(0.7)" xlink:href="#DejaVuSans-Oblique-116"/>
      <use transform="translate(1074.199219 0.578125)" xlink:href="#DejaVuSans-124"/>
      <use transform="translate(1107.890625 0.578125)" xlink:href="#DejaVuSans-41"/>
      <use transform="translate(1146.904297 0.578125)" xlink:href="#DejaVuSans-93"/>
     </g>
    </g>
   </g>
   <g id="line2d_31">
    <path clip-path="url(#p197d3355b1)" d="M 80.523818 153.178157 
L 82.08191 153.069577 
L 83.498357 152.75545 
L 84.666926 152.278839 
L 85.623028 151.660414 
L 86.437485 150.870411 
L 87.145708 149.857454 
L 87.747698 148.594978 
L 88.278866 146.95507 
L 88.774623 144.633814 
L 89.199557 141.519687 
L 89.58908 136.879794 
L 89.943191 129.58305 
L 90.261892 117.462711 
L 90.545181 97.131204 
L 90.970116 58.27564 
L 91.005527 58.579043 
L 91.11176 64.948587 
L 91.784573 121.802458 
L 92.174096 133.467821 
L 92.59903 139.941864 
L 93.059375 143.888976 
L 93.590543 146.624776 
L 94.192533 148.558953 
L 94.829934 149.894073 
L 95.573569 150.936169 
L 96.423437 151.7321 
L 97.41495 152.343416 
L 98.583519 152.79394 
L 99.964555 153.082294 
L 101.522646 153.177787 
L 103.080738 153.055997 
L 104.497185 152.726202 
L 105.665754 152.229918 
L 106.621856 151.585637 
L 107.400902 150.802723 
L 108.073714 149.820375 
L 108.675704 148.540685 
L 109.206872 146.874524 
L 109.702628 144.50862 
L 110.127563 141.321549 
L 110.517086 136.547711 
L 110.871197 128.987933 
L 111.189898 116.332519 
L 111.473187 95.067361 
L 111.898121 58.336959 
L 111.933533 59.238225 
L 112.075177 70.689609 
L 112.570934 115.948826 
L 112.925046 129.777483 
L 113.34998 138.012924 
L 113.810325 142.776541 
L 114.306081 145.788853 
L 114.87266 147.93075 
L 115.510062 149.479126 
L 116.218285 150.615476 
L 116.997331 151.457997 
L 117.918022 152.12609 
L 119.015768 152.638585 
L 120.325982 152.994263 
L 121.813251 153.166129 
L 123.406754 153.127645 
L 124.894024 152.87333 
L 126.133415 152.44656 
L 127.160339 151.866716 
L 128.010207 151.13722 
L 128.718431 150.246819 
L 129.355832 149.080934 
L 129.922411 147.552103 
L 130.418167 145.547727 
L 130.878513 142.665017 
L 131.268036 138.760445 
L 131.622147 132.866125 
L 131.940848 123.536262 
L 132.224137 108.333094 
L 132.542838 77.115363 
L 132.790716 58.2552 
L 132.861538 60.235942 
L 133.074006 81.241004 
L 133.463529 115.156146 
L 133.81764 129.389639 
L 134.207163 137.307496 
L 134.667509 142.381415 
L 135.163265 145.548366 
L 135.729844 147.779176 
L 136.367245 149.380543 
L 137.075469 150.54973 
L 137.854515 151.413438 
L 138.775205 152.096689 
L 139.83754 152.607089 
L 141.112343 152.970546 
L 142.599612 153.159946 
L 144.193115 153.138472 
L 145.680385 152.90307 
L 146.955187 152.483926 
L 148.017522 151.901093 
L 148.867391 151.188287 
L 149.611025 150.268076 
L 150.248427 149.112041 
L 150.815005 147.598348 
L 151.310762 145.617478 
L 151.771107 142.775519 
L 152.16063 138.938462 
L 152.514742 133.169145 
L 152.833443 124.081621 
L 153.116732 109.334707 
L 153.435433 78.75821 
L 153.683311 58.335682 
L 153.718722 58.439158 
L 153.824956 64.323258 
L 154.533179 122.980236 
L 154.922702 134.041987 
L 155.347636 140.252868 
L 155.843393 144.295025 
L 156.37456 146.875035 
L 156.97655 148.718703 
L 157.649363 150.059035 
L 158.392997 151.046844 
L 159.242866 151.806061 
L 160.234379 152.39127 
L 161.402948 152.822332 
L 162.783983 153.095063 
L 164.342075 153.17656 
L 165.900167 153.040406 
L 167.281203 152.7052 
L 168.449772 152.194857 
L 169.405874 151.531918 
L 170.18492 150.724113 
L 170.857732 149.706302 
L 171.459722 148.372951 
L 171.99089 146.624201 
L 172.451235 144.337246 
L 172.876169 141.048933 
L 173.265692 136.087497 
L 173.584393 129.186455 
L 173.903093 116.710463 
L 174.186383 95.755735 
L 174.611317 58.276279 
L 174.646728 58.982728 
L 174.788373 69.928227 
L 175.31954 117.469418 
L 175.709063 131.410621 
L 176.133997 138.852296 
L 176.594343 143.254704 
L 177.12551 146.239805 
L 177.692089 148.218312 
L 178.32949 149.667785 
L 179.037714 150.742074 
L 179.852171 151.57398 
L 180.808273 152.222304 
L 181.94143 152.709997 
L 183.287055 153.036969 
L 184.809736 153.175474 
L 186.403239 153.097643 
L 187.855097 152.808248 
L 189.059077 152.350301 
L 190.05059 151.742742 
L 190.865047 150.991983 
L 191.573271 150.035676 
L 192.175261 148.854308 
L 192.706428 147.337166 
L 193.202185 145.221457 
L 193.627119 142.43756 
L 194.016642 138.392273 
L 194.370754 132.235111 
L 194.689454 122.39189 
L 194.972744 106.224731 
L 195.326856 69.900761 
L 195.503911 58.275001 
L 195.539323 58.581598 
L 195.645556 64.960723 
L 196.318369 121.807952 
L 196.707891 133.470503 
L 197.132826 139.943269 
L 197.593171 143.88987 
L 198.124339 146.625287 
L 198.726329 148.559336 
L 199.36373 149.89429 
L 200.107365 150.936316 
L 200.957233 151.732196 
L 201.948746 152.34348 
L 203.117315 152.793979 
L 204.498351 153.082314 
L 206.056442 153.177787 
L 207.614534 153.055978 
L 209.030981 152.726163 
L 210.19955 152.229847 
L 211.155652 151.585528 
L 211.934698 150.80257 
L 212.60751 149.820145 
L 213.2095 148.540366 
L 213.740668 146.874013 
L 214.236424 144.507854 
L 214.661358 141.320335 
L 215.050881 136.545604 
L 215.404993 128.984229 
L 215.723694 116.325493 
L 216.006983 95.054523 
L 216.431917 58.338237 
L 216.467329 59.243335 
L 216.608973 70.703661 
L 217.10473 115.955916 
L 217.458842 129.780996 
L 217.883776 138.014712 
L 218.344121 142.777563 
L 218.839877 145.789492 
L 219.406456 147.931133 
L 220.043857 149.479382 
L 220.752081 150.615642 
L 221.531127 151.458112 
L 222.451818 152.126167 
L 223.549564 152.63863 
L 224.859778 152.994288 
L 226.347047 153.166136 
L 227.94055 153.127632 
L 229.427819 152.873298 
L 230.667211 152.446503 
L 231.694135 151.866626 
L 232.544003 151.137086 
L 233.252227 150.246621 
L 233.889628 149.080615 
L 234.456207 147.551719 
L 234.951963 145.547089 
L 235.412308 142.663995 
L 235.801831 138.758784 
L 236.155943 132.863314 
L 236.474644 123.531216 
L 236.757933 108.323769 
L 237.076634 77.100033 
L 237.324512 58.2552 
L 237.395334 60.242968 
L 237.607801 81.256334 
L 237.997324 115.163492 
L 238.351436 129.393216 
L 238.740959 137.309412 
L 239.201304 142.382437 
L 239.697061 145.549005 
L 240.26364 147.779559 
L 240.901041 149.380805 
L 241.609265 150.549902 
L 242.38831 151.413553 
L 243.309001 152.096765 
L 244.371336 152.607134 
L 245.646139 152.970572 
L 247.133408 153.159953 
L 248.726911 153.138459 
L 250.214181 152.903038 
L 251.488983 152.483869 
L 252.551318 151.901003 
L 253.401187 151.188153 
L 254.144821 150.267884 
L 254.782223 149.111721 
L 255.348801 147.597901 
L 255.844558 145.616839 
L 256.304903 142.774561 
L 256.694426 138.936866 
L 257.048538 133.166398 
L 257.367239 124.076703 
L 257.650528 109.325701 
L 257.969229 78.74288 
L 258.217107 58.333765 
L 258.252518 58.441074 
L 258.358751 64.334755 
L 259.066975 122.985474 
L 259.456498 134.044542 
L 259.881432 140.254273 
L 260.377189 144.295855 
L 260.908356 146.875482 
L 261.510346 148.719022 
L 262.183159 150.059245 
L 262.926793 151.046991 
L 263.776662 151.80615 
L 264.768175 152.391328 
L 265.936743 152.822371 
L 267.317779 153.095082 
L 268.875871 153.176554 
L 270.433963 153.04038 
L 271.814999 152.705161 
L 272.983568 152.194787 
L 273.93967 151.53181 
L 274.718715 150.723947 
L 275.391528 149.706065 
L 275.993518 148.372632 
L 276.524686 146.62369 
L 276.985031 144.336479 
L 277.409965 141.047656 
L 277.799488 136.085325 
L 278.118189 129.182814 
L 278.436889 116.703501 
L 278.720179 95.743087 
L 279.145113 58.276917 
L 279.180524 58.987199 
L 279.322169 69.94228 
L 279.853336 117.476188 
L 280.242859 131.413751 
L 280.667793 138.853957 
L 281.128139 143.255662 
L 281.659306 146.24038 
L 282.225885 148.218695 
L 282.863286 149.668022 
L 283.57151 150.742234 
L 284.385967 151.574088 
L 285.342069 152.222374 
L 286.475226 152.710035 
L 287.820851 153.036988 
L 289.343532 153.175481 
L 290.937035 153.097631 
L 292.388893 152.80821 
L 293.592873 152.350238 
L 294.584386 151.742646 
L 295.398843 150.991836 
L 296.107067 150.035465 
L 296.709057 148.854052 
L 297.240224 147.336719 
L 297.735981 145.220819 
L 298.160915 142.436474 
L 298.550438 138.390549 
L 298.90455 132.232109 
L 299.22325 122.386525 
L 299.50654 106.214831 
L 299.860652 69.886709 
L 300.037707 58.274362 
L 300.073119 58.584791 
L 300.179352 64.972221 
L 300.852164 121.813509 
L 301.241687 133.473186 
L 301.666622 139.944738 
L 302.126967 143.8907 
L 302.658135 146.625798 
L 303.260125 148.559656 
L 303.897526 149.894514 
L 304.64116 150.936463 
L 305.491029 151.732298 
L 306.482542 152.343544 
L 307.651111 152.794011 
L 309.032146 153.082333 
L 310.590238 153.177787 
L 312.14833 153.055959 
L 313.564777 152.726119 
L 314.733346 152.229777 
L 315.689448 151.58542 
L 316.468494 150.80241 
L 317.141306 149.819921 
L 317.743296 148.540046 
L 318.274464 146.873502 
L 318.77022 144.507087 
L 319.195154 141.319121 
L 319.584677 136.54356 
L 319.938789 128.980524 
L 320.25749 116.318467 
L 320.540779 95.041684 
L 320.965713 58.340153 
L 321.001124 59.248445 
L 321.142769 70.717714 
L 321.638526 115.96307 
L 321.992637 129.78451 
L 322.417572 138.016501 
L 322.877917 142.778585 
L 323.373673 145.790066 
L 323.940252 147.931516 
L 324.577653 149.479637 
L 325.285877 150.615814 
L 326.064923 151.458227 
L 326.985613 152.126243 
L 328.08336 152.638681 
L 329.393574 152.994314 
L 330.880843 153.166142 
L 332.474346 153.12762 
L 333.961615 152.873266 
L 335.201007 152.446445 
L 336.227931 151.86653 
L 337.077799 151.136952 
L 337.786023 150.246429 
L 338.423424 149.080359 
L 338.990003 147.551272 
L 339.485759 145.54645 
L 339.946104 142.662973 
L 340.335627 138.757123 
L 340.689739 132.860504 
L 341.00844 123.52617 
L 341.291729 108.314443 
L 341.61043 77.085342 
L 341.858308 58.2552 
L 341.92913 60.249994 
L 342.141597 81.271025 
L 342.53112 115.170901 
L 342.885232 129.396856 
L 343.274755 137.311329 
L 343.7351 142.383523 
L 344.230857 145.549644 
L 344.797436 147.780006 
L 345.434837 149.381067 
L 346.14306 150.550081 
L 346.922106 151.413674 
L 347.842797 152.096842 
L 348.905132 152.607185 
L 350.179935 152.970597 
L 351.667204 153.159966 
L 353.260707 153.138446 
L 354.747977 152.903006 
L 356.022779 152.483811 
L 357.085114 151.900914 
L 357.934983 151.188019 
L 358.678617 150.267693 
L 359.316018 149.111466 
L 359.882597 147.597517 
L 360.378354 145.616201 
L 360.838699 142.773539 
L 361.228222 138.935205 
L 361.582334 133.163651 
L 361.901034 124.071784 
L 362.184324 109.316631 
L 362.503024 78.728189 
L 362.750903 58.332488 
L 362.786314 58.443629 
L 362.892547 64.345614 
L 363.600771 122.990648 
L 363.990294 134.047097 
L 364.415228 140.255614 
L 364.910985 144.296622 
L 365.442152 146.875993 
L 366.044142 148.719342 
L 366.716955 150.05945 
L 367.460589 151.047132 
L 368.310458 151.806246 
L 369.301971 152.391392 
L 370.470539 152.822403 
L 371.851575 153.095095 
L 373.409667 153.176554 
L 374.967759 153.040361 
L 376.348795 152.705117 
L 377.517364 152.19471 
L 378.473466 151.531701 
L 379.252511 150.723787 
L 379.925324 149.705829 
L 380.527314 148.372249 
L 381.058481 146.623179 
L 381.518827 144.335649 
L 381.943761 141.046378 
L 382.333284 136.083218 
L 382.651984 129.179173 
L 382.970685 116.696603 
L 383.253974 95.73044 
L 383.678909 58.277556 
L 383.71432 58.991671 
L 383.855964 69.956332 
L 384.387132 117.482895 
L 384.776655 131.416881 
L 385.201589 138.855554 
L 385.661935 143.25662 
L 386.193102 146.240955 
L 386.759681 148.219078 
L 387.397082 149.668265 
L 388.105306 150.742394 
L 388.919763 151.574197 
L 389.875865 152.222444 
L 391.009022 152.71008 
L 392.354647 153.037014 
L 393.877328 153.175481 
L 395.470831 153.097618 
L 396.922689 152.808172 
L 398.126669 152.350174 
L 399.118182 151.74255 
L 399.932639 150.991689 
L 400.640863 150.035254 
L 401.242853 148.853733 
L 401.77402 147.336271 
L 402.269777 145.220116 
L 402.694711 142.435452 
L 403.084234 138.388824 
L 403.438346 132.22917 
L 403.757046 122.381159 
L 404.040336 106.20493 
L 404.394447 69.872657 
L 404.571503 58.273724 
L 404.606914 58.587985 
L 404.713148 64.984357 
L 405.38596 121.819002 
L 405.775483 133.475869 
L 406.200417 139.946207 
L 406.660763 143.891531 
L 407.19193 146.626309 
L 407.79392 148.559975 
L 408.431322 149.894737 
L 409.174956 150.936616 
L 410.024825 151.732394 
L 411.016338 152.343607 
L 412.184906 152.794049 
L 413.565942 153.082346 
L 415.124034 153.177787 
L 416.682126 153.05594 
L 418.098573 152.72608 
L 419.267142 152.229707 
L 420.223244 151.585317 
L 421.00229 150.80225 
L 421.675102 149.819691 
L 422.277092 148.539663 
L 422.80826 146.873055 
L 423.304016 144.506321 
L 423.72895 141.317844 
L 424.118473 136.541516 
L 424.472585 128.976819 
L 424.791286 116.311377 
L 425.074575 95.028909 
L 425.499509 58.34143 
L 425.53492 59.253555 
L 425.676565 70.732405 
L 426.172322 115.970224 
L 426.526433 129.788023 
L 426.951367 138.018226 
L 427.411713 142.779543 
L 427.907469 145.790705 
L 428.474048 147.931899 
L 429.111449 149.479886 
L 429.819673 150.61598 
L 430.598719 151.458342 
L 431.519409 152.12632 
L 432.617156 152.638726 
L 433.927369 152.994333 
L 434.600182 153.098576 
L 434.600182 153.098576 
" style="fill:none;stroke:#1f77b4;stroke-linecap:square;stroke-width:1.5;"/>
   </g>
   <g id="line2d_32">
    <path clip-path="url(#p197d3355b1)" d="M 80.523818 163.138389 
L 81.763209 163.251893 
L 82.931778 163.585637 
L 83.958702 164.108192 
L 84.879393 164.830419 
L 85.69385 165.763367 
L 86.402074 166.915851 
L 87.039475 168.375634 
L 87.641465 170.344431 
L 88.172633 172.872895 
L 88.668389 176.398692 
L 89.093323 181.038138 
L 89.482846 187.779495 
L 89.836958 198.039942 
L 90.155658 214.442286 
L 90.438948 241.382164 
L 90.79306 301.917749 
L 90.970116 321.309985 
L 91.005527 320.802185 
L 91.11176 310.181806 
L 91.784573 215.428761 
L 92.174096 195.987789 
L 92.59903 185.198271 
L 93.059375 178.619921 
L 93.590543 174.06051 
L 94.157122 170.989689 
L 94.794523 168.713784 
L 95.502746 167.012429 
L 96.246381 165.782721 
L 97.060838 164.843832 
L 97.981529 164.117198 
L 99.008453 163.591194 
L 100.141611 163.261283 
L 101.381002 163.13858 
L 102.620393 163.242887 
L 103.788962 163.56641 
L 104.815886 164.076958 
L 105.736577 164.783791 
L 106.551034 165.696363 
L 107.259257 166.821636 
L 107.896658 168.242967 
L 108.498648 170.152808 
L 109.029816 172.59319 
L 109.525573 175.973801 
L 109.985918 180.847984 
L 110.375441 187.47111 
L 110.729553 197.510296 
L 111.048253 213.479317 
L 111.331543 239.606459 
L 111.685654 299.339783 
L 111.898121 321.206509 
L 112.004355 312.2475 
L 112.783401 209.456578 
L 113.172924 193.037627 
L 113.597858 183.583081 
L 114.093614 177.30954 
L 114.624782 173.248157 
L 115.226772 170.316135 
L 115.864173 168.261299 
L 116.572397 166.703469 
L 117.351443 165.521539 
L 118.201311 164.631067 
L 119.157413 163.954447 
L 120.219748 163.479605 
L 121.388317 163.204499 
L 122.627708 163.144521 
L 123.831688 163.30459 
L 124.964846 163.677041 
L 125.956359 164.230511 
L 126.841638 164.976691 
L 127.620684 165.922733 
L 128.328908 167.140752 
L 128.966309 168.693664 
L 129.532888 170.658948 
L 130.064055 173.335409 
L 130.559812 177.108464 
L 130.984746 182.143483 
L 131.374269 189.593589 
L 131.728381 201.204786 
L 132.047081 220.293427 
L 132.330371 252.191611 
L 132.790716 321.3432 
L 132.861538 318.038983 
L 133.074006 283.026288 
L 133.463529 226.505202 
L 133.81764 202.784333 
L 134.207163 189.58867 
L 134.667509 181.132544 
L 135.163265 175.854419 
L 135.729844 172.136488 
L 136.331834 169.588223 
L 137.004646 167.680745 
L 137.748281 166.244787 
L 138.562738 165.163459 
L 139.448018 164.357621 
L 140.43953 163.758161 
L 141.537277 163.356583 
L 142.741257 163.156848 
L 143.980648 163.178119 
L 145.184628 163.422949 
L 146.246964 163.857741 
L 147.203065 164.483773 
L 148.052934 165.307688 
L 148.796568 166.336766 
L 149.469381 167.648425 
L 150.071371 169.303983 
L 150.63795 171.539328 
L 151.133706 174.401343 
L 151.594051 178.391634 
L 152.018986 184.185671 
L 152.373097 192.018065 
L 152.691798 203.798593 
L 153.010498 225.202805 
L 153.293788 261.178724 
L 153.683311 321.210341 
L 153.718722 321.035965 
L 153.824956 311.224873 
L 154.533179 213.465904 
L 154.922702 195.030824 
L 155.347636 184.679931 
L 155.807982 178.313324 
L 156.339149 173.872145 
L 156.905728 170.866795 
L 157.543129 168.63177 
L 158.251353 166.956666 
L 158.994987 165.743821 
L 159.844856 164.783599 
L 160.765546 164.07683 
L 161.792471 163.566283 
L 162.925628 163.249275 
L 164.165019 163.138389 
L 165.404411 163.254576 
L 166.537568 163.577333 
L 167.564492 164.094779 
L 168.485183 164.810426 
L 169.29964 165.734623 
L 170.007864 166.875354 
L 170.645265 168.318594 
L 171.247255 170.261906 
L 171.778423 172.752237 
L 172.274179 176.215054 
L 172.699113 180.754919 
L 173.088636 187.320558 
L 173.442748 197.2525 
L 173.761448 213.012524 
L 174.044738 238.746711 
L 174.363439 291.295454 
L 174.611317 321.308069 
L 174.682139 317.361915 
L 174.894606 281.653629 
L 175.284129 225.833245 
L 175.638241 202.456083 
L 176.027764 189.41423 
L 176.488109 181.035455 
L 176.983866 175.795591 
L 177.550444 172.099569 
L 178.152434 169.563696 
L 178.825247 167.664202 
L 179.568882 166.233418 
L 180.383339 165.155667 
L 181.268618 164.35232 
L 182.260131 163.754776 
L 183.357878 163.354731 
L 184.561858 163.156337 
L 185.801249 163.178885 
L 187.005229 163.42512 
L 188.067564 163.86151 
L 189.023666 164.489522 
L 189.873534 165.315991 
L 190.617169 166.348519 
L 191.289981 167.664968 
L 191.891971 169.327361 
L 192.45855 171.573309 
L 192.954307 174.451421 
L 193.414652 178.468347 
L 193.839586 184.309588 
L 194.193698 192.220164 
L 194.512398 204.144536 
L 194.795688 222.678493 
L 195.078977 256.575943 
L 195.503911 321.310624 
L 195.539323 320.797714 
L 195.645556 310.162643 
L 196.318369 215.419563 
L 196.707891 195.983318 
L 197.132826 185.195843 
L 197.593171 178.618516 
L 198.124339 174.059616 
L 198.690917 170.989114 
L 199.328319 168.713401 
L 200.001131 167.082754 
L 200.744766 165.831712 
L 201.559223 164.877877 
L 202.479913 164.140002 
L 203.506838 163.60531 
L 204.639995 163.268245 
L 205.843975 163.139475 
L 207.047955 163.224875 
L 208.216524 163.526808 
L 209.27886 164.033523 
L 210.19955 164.718958 
L 211.014007 165.603298 
L 211.757642 166.755909 
L 212.395043 168.150796 
L 212.997033 170.020078 
L 213.528201 172.400417 
L 214.023957 175.682853 
L 214.484303 180.386301 
L 214.873826 186.727102 
L 215.227937 196.242136 
L 215.546638 211.194023 
L 215.829927 235.406724 
L 216.148628 285.822066 
L 216.431917 321.203954 
L 216.538151 312.229616 
L 217.281786 211.613932 
L 217.671309 194.116847 
L 218.096243 184.179923 
L 218.591999 177.655675 
L 219.123167 173.464627 
L 219.725157 170.455828 
L 220.362558 168.355769 
L 221.070782 166.768237 
L 221.849828 165.566315 
L 222.699696 164.661791 
L 223.655798 163.974695 
L 224.718133 163.491614 
L 225.886702 163.209609 
L 227.090682 163.141902 
L 228.330073 163.296669 
L 229.463231 163.661711 
L 230.454744 164.206303 
L 231.340023 164.941177 
L 232.119069 165.872209 
L 232.827293 167.069341 
L 233.464694 168.592423 
L 234.031273 170.514592 
L 234.56244 173.12258 
L 235.058197 176.780724 
L 235.483131 181.630955 
L 235.872654 188.747765 
L 236.226766 199.718878 
L 236.545466 217.526201 
L 236.828756 247.081029 
L 237.324512 321.3432 
L 237.395334 318.026847 
L 237.607801 283.001377 
L 237.997324 226.493066 
L 238.351436 202.778329 
L 238.740959 189.585477 
L 239.201304 181.130756 
L 239.697061 175.853397 
L 240.26364 172.13585 
L 240.86563 169.587776 
L 241.538442 167.68049 
L 242.282077 166.244596 
L 243.096534 165.163332 
L 243.981813 164.357494 
L 244.973326 163.758097 
L 246.071073 163.356583 
L 247.275053 163.156848 
L 248.514444 163.178119 
L 249.718424 163.422949 
L 250.816171 163.876584 
L 251.772272 164.512516 
L 252.622141 165.349334 
L 253.365775 166.395531 
L 254.038588 167.731334 
L 254.640578 169.42132 
L 255.207157 171.710511 
L 255.702913 174.653774 
L 256.163258 178.779607 
L 256.588193 184.814322 
L 256.942304 193.047463 
L 257.261005 205.568933 
L 257.544294 225.214303 
L 257.827584 261.200442 
L 258.217107 321.212896 
L 258.252518 321.032132 
L 258.358751 311.206349 
L 259.066975 213.457153 
L 259.456498 195.026545 
L 259.881432 184.677631 
L 260.341777 178.311919 
L 260.872945 173.871314 
L 261.439524 170.866284 
L 262.076925 168.63145 
L 262.785149 166.956411 
L 263.528783 165.74363 
L 264.378652 164.783471 
L 265.299342 164.076766 
L 266.326266 163.566283 
L 267.459424 163.249211 
L 268.698815 163.138389 
L 269.938207 163.25464 
L 271.071364 163.577397 
L 272.098288 164.094906 
L 273.018979 164.810554 
L 273.833436 165.734751 
L 274.54166 166.87561 
L 275.179061 168.318913 
L 275.781051 170.262353 
L 276.312218 172.752939 
L 276.807975 176.21614 
L 277.232909 180.75658 
L 277.622432 187.323368 
L 277.976544 197.257227 
L 278.295244 213.021083 
L 278.578534 238.762679 
L 278.897234 291.320365 
L 279.145113 321.306792 
L 279.215935 317.34914 
L 279.428402 281.628719 
L 279.817925 225.821108 
L 280.172037 202.450143 
L 280.56156 189.4111 
L 281.021905 181.033667 
L 281.517662 175.794569 
L 282.08424 172.09893 
L 282.68623 169.563249 
L 283.359043 167.663883 
L 284.102678 166.233226 
L 284.917135 165.155475 
L 285.802414 164.352192 
L 286.793927 163.754712 
L 287.891674 163.354667 
L 289.095654 163.156337 
L 290.335045 163.178885 
L 291.539025 163.425184 
L 292.60136 163.861574 
L 293.557462 164.489649 
L 294.40733 165.316183 
L 295.150965 166.348711 
L 295.823777 167.665288 
L 296.425767 169.327744 
L 296.992346 171.573947 
L 297.488103 174.452315 
L 297.948448 178.469752 
L 298.373382 184.311823 
L 298.727494 192.223868 
L 299.046194 204.15086 
L 299.329484 222.689352 
L 299.612773 256.597021 
L 300.037707 321.311902 
L 300.073119 320.792604 
L 300.179352 310.142842 
L 300.852164 215.410301 
L 301.241687 195.978846 
L 301.666622 185.193416 
L 302.126967 178.61711 
L 302.658135 174.058785 
L 303.224713 170.988603 
L 303.862115 168.713018 
L 304.570338 167.011918 
L 305.313973 165.782337 
L 306.12843 164.843641 
L 307.049121 164.117071 
L 308.076045 163.591066 
L 309.209202 163.261283 
L 310.413182 163.1389 
L 311.652574 163.236755 
L 312.821142 163.552997 
L 313.848067 164.055177 
L 314.768757 164.751279 
L 315.583214 165.649671 
L 316.291438 166.756165 
L 316.928839 168.151116 
L 317.530829 170.020589 
L 318.061997 172.40112 
L 318.557753 175.683875 
L 319.018099 180.387961 
L 319.407621 186.729721 
L 319.761733 196.246671 
L 320.080434 211.202135 
L 320.363723 235.421415 
L 320.682424 285.846977 
L 320.965713 321.201399 
L 321.071947 312.211092 
L 321.815582 211.605756 
L 322.205104 194.112759 
L 322.630039 184.177687 
L 323.125795 177.654397 
L 323.656963 173.463796 
L 324.258953 170.455317 
L 324.896354 168.355386 
L 325.604578 166.767982 
L 326.383623 165.566123 
L 327.233492 164.661727 
L 328.154182 163.995262 
L 329.216518 163.503877 
L 330.385086 163.214846 
L 331.589067 163.14088 
L 332.793047 163.281403 
L 333.926204 163.63169 
L 334.953128 164.182478 
L 335.838408 164.906174 
L 336.617454 165.822578 
L 337.325677 166.999271 
L 337.963078 168.493226 
L 338.565068 170.515103 
L 339.096236 173.123346 
L 339.591993 176.781938 
L 340.016927 181.632808 
L 340.40645 188.750831 
L 340.760561 199.72418 
L 341.079262 217.535974 
L 341.362552 247.098914 
L 341.858308 321.3432 
L 341.92913 318.015349 
L 342.141597 282.976466 
L 342.53112 226.480291 
L 342.885232 202.772325 
L 343.274755 189.582283 
L 343.7351 181.128967 
L 344.230857 175.852312 
L 344.797436 172.135147 
L 345.399426 169.587329 
L 346.072238 167.68017 
L 346.815873 166.244404 
L 347.63033 165.163204 
L 348.515609 164.35743 
L 349.507122 163.758097 
L 350.604869 163.356519 
L 351.808849 163.156848 
L 353.04824 163.178119 
L 354.25222 163.423013 
L 355.349967 163.876648 
L 356.306068 164.51258 
L 357.155937 165.349461 
L 357.899571 166.395786 
L 358.572384 167.731653 
L 359.174374 169.421767 
L 359.740953 171.711149 
L 360.236709 174.654669 
L 360.697054 178.781012 
L 361.121989 184.816686 
L 361.4761 193.051296 
L 361.794801 205.57564 
L 362.07809 225.226439 
L 362.36138 261.222159 
L 362.750903 321.215451 
L 362.786314 321.0283 
L 362.892547 311.187187 
L 363.600771 213.448466 
L 363.990294 195.022265 
L 364.415228 184.675268 
L 364.875573 178.310578 
L 365.406741 173.87042 
L 365.97332 170.865709 
L 366.610721 168.631067 
L 367.318945 166.956219 
L 368.062579 165.743502 
L 368.912448 164.783343 
L 369.833138 164.076702 
L 370.860062 163.566219 
L 371.99322 163.249211 
L 373.232611 163.138389 
L 374.472002 163.25464 
L 375.60516 163.577461 
L 376.632084 164.09497 
L 377.552775 164.810618 
L 378.367232 165.734943 
L 379.075456 166.875865 
L 379.712857 168.319233 
L 380.314847 170.262864 
L 380.846014 172.753706 
L 381.341771 176.217225 
L 381.766705 180.758305 
L 382.156228 187.326115 
L 382.51034 197.262017 
L 382.82904 213.029642 
L 383.11233 238.778009 
L 383.43103 291.345276 
L 383.678909 321.305514 
L 383.749731 317.336365 
L 383.962198 281.603808 
L 384.351721 225.808972 
L 384.705833 202.444266 
L 385.095356 189.407906 
L 385.555701 181.031942 
L 386.051457 175.793483 
L 386.618036 172.098228 
L 387.220026 169.562801 
L 387.892839 167.663627 
L 388.636473 166.233034 
L 389.450931 165.155347 
L 390.33621 164.352128 
L 391.327723 163.754648 
L 392.425469 163.354667 
L 393.629449 163.156337 
L 394.868841 163.178949 
L 396.072821 163.425184 
L 397.135156 163.861637 
L 398.091258 164.489713 
L 398.941126 165.316311 
L 399.684761 166.348902 
L 400.357573 167.665543 
L 400.959563 169.328191 
L 401.526142 171.574522 
L 402.021899 174.453209 
L 402.482244 178.471158 
L 402.907178 184.314123 
L 403.26129 192.227573 
L 403.57999 204.157183 
L 403.86328 222.700849 
L 404.146569 256.617461 
L 404.571503 321.313179 
L 404.606914 320.787494 
L 404.713148 310.123041 
L 405.38596 215.401103 
L 405.775483 195.974375 
L 406.200417 185.191053 
L 406.660763 178.615705 
L 407.19193 174.057891 
L 407.758509 170.988029 
L 408.39591 168.712635 
L 409.104134 167.011662 
L 409.847769 165.782146 
L 410.662226 164.843513 
L 411.582916 164.116943 
L 412.609841 163.591066 
L 413.742998 163.261219 
L 414.946978 163.1389 
L 416.18637 163.236755 
L 417.354938 163.553061 
L 418.381863 164.055304 
L 419.302553 164.751406 
L 420.11701 165.649862 
L 420.825234 166.756357 
L 421.498046 168.243989 
L 422.100036 170.154277 
L 422.631204 172.595361 
L 423.12696 175.977058 
L 423.587306 180.853158 
L 423.976829 187.479541 
L 424.33094 197.524668 
L 424.649641 213.505442 
L 424.93293 239.654365 
L 425.287042 299.411961 
L 425.499509 321.198844 
L 425.605743 312.192569 
L 426.349377 211.597517 
L 426.7389 194.108735 
L 427.163835 184.175452 
L 427.659591 177.653056 
L 428.190759 173.46303 
L 428.792749 170.454742 
L 429.43015 168.355066 
L 430.138373 166.76779 
L 430.917419 165.565995 
L 431.767288 164.661599 
L 432.723389 163.974567 
L 433.785725 163.49155 
L 434.600182 163.271056 
L 434.600182 163.271056 
" style="fill:none;stroke:#ff7f0e;stroke-linecap:square;stroke-width:1.5;"/>
   </g>
   <g id="line2d_33">
    <path clip-path="url(#p197d3355b1)" d="M 80.523818 160.743109 
L 82.471433 160.857783 
L 84.100347 161.168327 
L 85.375149 161.630764 
L 86.366662 162.227113 
L 87.145708 162.95705 
L 87.78311 163.859274 
L 88.349688 165.074546 
L 88.845445 166.724611 
L 89.270379 168.969218 
L 89.659902 172.374995 
L 89.978603 177.144105 
L 90.261892 184.55627 
L 90.545181 198.11327 
L 90.970116 224.012188 
L 91.005527 223.807791 
L 91.11176 219.556956 
L 91.784573 181.657782 
L 92.174096 173.882173 
L 92.59903 169.566698 
L 93.059375 166.93546 
L 93.590543 165.111849 
L 94.192533 163.822419 
L 94.865345 162.892466 
L 95.644391 162.184656 
L 96.600493 161.620633 
L 97.804473 161.181855 
L 99.327153 160.877705 
L 101.168535 160.745153 
L 103.080738 160.824581 
L 104.780475 161.109799 
L 106.090688 161.543984 
L 107.117612 162.113653 
L 107.93207 162.82276 
L 108.604882 163.716451 
L 109.171461 164.856863 
L 109.667217 166.385119 
L 110.092151 168.430055 
L 110.481674 171.466192 
L 110.835786 176.219525 
L 111.154487 184.074466 
L 111.437776 197.228355 
L 111.898121 223.970031 
L 111.933533 223.367058 
L 112.075177 215.72897 
L 112.570934 185.559671 
L 112.925046 176.341972 
L 113.34998 170.852487 
L 113.810325 167.677041 
L 114.306081 165.669024 
L 114.87266 164.241178 
L 115.510062 163.209034 
L 116.253696 162.420863 
L 117.138976 161.808647 
L 118.236722 161.328012 
L 119.617758 160.975113 
L 121.317495 160.773686 
L 123.265109 160.768429 
L 125.071079 160.977745 
L 126.522938 161.357612 
L 127.656095 161.877478 
L 128.541375 162.52768 
L 129.249598 163.32342 
L 129.851588 164.34293 
L 130.382756 165.715014 
L 130.843101 167.56986 
L 131.232624 170.062618 
L 131.586736 173.788469 
L 131.905437 179.615082 
L 132.188726 189.009841 
L 132.507427 208.718127 
L 132.790716 224.024963 
L 132.861538 222.701488 
L 133.074006 208.693855 
L 133.463529 186.087912 
L 133.81764 176.600535 
L 134.207163 171.32273 
L 134.667509 167.940522 
L 135.163265 165.829349 
L 135.729844 164.342228 
L 136.367245 163.274735 
L 137.11088 162.463902 
L 137.996159 161.836439 
L 139.093906 161.34508 
L 140.474942 160.984286 
L 142.210089 160.774561 
L 144.122293 160.765759 
L 145.928263 160.968726 
L 147.380121 161.340302 
L 148.513279 161.848722 
L 149.398558 162.482968 
L 150.106782 163.256224 
L 150.708772 164.241817 
L 151.23994 165.559672 
L 151.700285 167.326115 
L 152.125219 169.949433 
L 152.479331 173.597932 
L 152.798031 179.276357 
L 153.081321 188.391858 
L 153.36461 204.962958 
L 153.683311 223.972586 
L 153.718722 223.901686 
L 153.824956 219.974694 
L 154.533179 180.872703 
L 154.922702 173.499374 
L 155.347636 169.359362 
L 155.843393 166.664825 
L 156.37456 164.945009 
L 156.97655 163.71594 
L 157.684774 162.784685 
L 158.499231 162.088896 
L 159.490744 161.543818 
L 160.730135 161.127415 
L 162.288227 160.847633 
L 164.165019 160.743103 
L 166.077223 160.855247 
L 167.706137 161.162655 
L 168.98094 161.620799 
L 169.972452 162.211196 
L 170.751498 162.932765 
L 171.3889 163.82293 
L 171.955478 165.018976 
L 172.451235 166.637423 
L 172.876169 168.829844 
L 173.265692 172.137894 
L 173.584393 176.73927 
L 173.903093 185.057875 
L 174.186383 199.030249 
L 174.611317 224.010911 
L 174.646728 223.537602 
L 174.788373 216.236132 
L 175.31954 184.545731 
L 175.709063 175.253426 
L 176.133997 170.292949 
L 176.594343 167.358308 
L 177.12551 165.368368 
L 177.7275 163.98434 
L 178.400313 162.998006 
L 179.179359 162.253896 
L 180.100049 161.682131 
L 181.268618 161.228694 
L 182.720476 160.911009 
L 184.526446 160.75133 
L 186.474061 160.802749 
L 188.209209 161.063234 
L 189.554834 161.475626 
L 190.617169 162.027219 
L 191.431626 162.690374 
L 192.104438 163.517036 
L 192.671017 164.556973 
L 193.166774 165.925607 
L 193.627119 167.90405 
L 194.016642 170.601206 
L 194.370754 174.706535 
L 194.689454 181.269746 
L 194.972744 192.050066 
L 195.326856 216.268069 
L 195.503911 224.012188 
L 195.539323 223.805875 
L 195.645556 219.54993 
L 196.318369 181.654078 
L 196.707891 173.880384 
L 197.132826 169.565676 
L 197.593171 166.934949 
L 198.124339 165.111466 
L 198.726329 163.822227 
L 199.399141 162.8923 
L 200.178187 162.184605 
L 201.134289 161.620601 
L 202.338269 161.181842 
L 203.860949 160.877667 
L 205.702331 160.745096 
L 207.649945 160.828247 
L 209.314271 161.109811 
L 210.624484 161.544029 
L 211.651408 162.113775 
L 212.465865 162.822933 
L 213.138678 163.716643 
L 213.705257 164.857182 
L 214.201013 166.38563 
L 214.625947 168.430757 
L 215.01547 171.467533 
L 215.369582 176.221824 
L 215.688283 184.07881 
L 215.971572 197.236787 
L 216.431917 223.968754 
L 216.467329 223.363864 
L 216.608973 215.719389 
L 217.10473 185.554625 
L 217.458842 176.339672 
L 217.883776 170.851338 
L 218.344121 167.676402 
L 218.839877 165.668641 
L 219.406456 164.240923 
L 220.043857 163.208842 
L 220.787492 162.420774 
L 221.672772 161.808564 
L 222.770518 161.327949 
L 224.151554 160.975081 
L 225.851291 160.773698 
L 227.798905 160.768422 
L 229.604875 160.97777 
L 231.056734 161.357669 
L 232.189891 161.877555 
L 233.075171 162.527757 
L 233.783394 163.323599 
L 234.385384 164.343122 
L 234.916552 165.715461 
L 235.376897 167.570562 
L 235.76642 170.063704 
L 236.120532 173.790322 
L 236.439233 179.618212 
L 236.722522 189.015271 
L 237.041223 208.728347 
L 237.324512 224.024963 
L 237.395334 222.696378 
L 237.607801 208.684274 
L 237.997324 186.083121 
L 238.351436 176.598108 
L 238.740959 171.321452 
L 239.201304 167.939756 
L 239.697061 165.828966 
L 240.26364 164.341972 
L 240.901041 163.27455 
L 241.644676 162.463755 
L 242.529955 161.836356 
L 243.627702 161.345016 
L 245.008738 160.984254 
L 246.743885 160.774574 
L 248.656089 160.765753 
L 250.49747 160.975171 
L 251.949328 161.352687 
L 253.082486 161.869264 
L 253.967765 162.514931 
L 254.675989 163.3042 
L 255.277979 164.313995 
L 255.809147 165.67043 
L 256.269492 167.499662 
L 256.659015 169.950455 
L 257.013127 173.599721 
L 257.331827 179.279487 
L 257.615117 188.397606 
L 257.898406 204.972539 
L 258.217107 223.973225 
L 258.252518 223.89977 
L 258.358751 219.967668 
L 259.066975 180.86919 
L 259.456498 173.49765 
L 259.881432 169.358468 
L 260.377189 166.664314 
L 260.908356 164.944626 
L 261.510346 163.715749 
L 262.183159 162.822288 
L 262.997616 162.113353 
L 263.989129 161.55932 
L 265.22852 161.136383 
L 266.786612 160.851772 
L 268.627993 160.743224 
L 270.540197 160.846892 
L 272.204522 161.153201 
L 273.479324 161.604365 
L 274.470837 162.185007 
L 275.249883 162.892926 
L 275.887284 163.763463 
L 276.453863 164.928338 
L 276.94962 166.496005 
L 277.374554 168.60507 
L 277.764077 171.758736 
L 278.118189 176.741697 
L 278.436889 185.06241 
L 278.720179 199.038681 
L 279.145113 224.010272 
L 279.180524 223.535047 
L 279.322169 216.227189 
L 279.853336 184.541643 
L 280.242859 175.251318 
L 280.667793 170.291863 
L 281.128139 167.357669 
L 281.659306 165.368049 
L 282.261296 163.984084 
L 282.934109 162.997853 
L 283.713155 162.253851 
L 284.633845 161.6821 
L 285.802414 161.228624 
L 287.289683 160.905676 
L 289.095654 160.750308 
L 291.043268 160.80584 
L 292.743005 161.063253 
L 294.08863 161.475677 
L 295.150965 162.027283 
L 295.965422 162.690566 
L 296.638234 163.517227 
L 297.204813 164.557228 
L 297.70057 165.926055 
L 298.160915 167.904689 
L 298.550438 170.602292 
L 298.90455 174.708451 
L 299.22325 181.273323 
L 299.50654 192.056773 
L 299.860652 216.27765 
L 300.037707 224.012827 
L 300.073119 223.803958 
L 300.179352 219.541627 
L 300.852164 181.650373 
L 301.241687 173.878596 
L 301.666622 169.564718 
L 302.126967 166.934374 
L 302.658135 165.111146 
L 303.260125 163.822035 
L 303.932937 162.892134 
L 304.711983 162.184496 
L 305.668085 161.620563 
L 306.872065 161.181836 
L 308.359334 160.882464 
L 310.200715 160.745702 
L 312.112919 160.821049 
L 313.812655 161.101246 
L 315.122869 161.528808 
L 316.149793 162.08926 
L 316.96425 162.785285 
L 317.637063 163.659667 
L 318.203641 164.77108 
L 318.699398 166.252708 
L 319.124332 168.222336 
L 319.513855 171.122165 
L 319.867967 175.61208 
L 320.186667 182.937632 
L 320.469957 195.132129 
L 320.965713 223.968115 
L 321.001124 223.360032 
L 321.142769 215.709808 
L 321.638526 185.549643 
L 321.992637 176.337309 
L 322.417572 170.850124 
L 322.877917 167.675763 
L 323.373673 165.668194 
L 323.940252 164.240667 
L 324.577653 163.208714 
L 325.321288 162.420684 
L 326.206568 161.808481 
L 327.304314 161.327949 
L 328.68535 160.975056 
L 330.385086 160.773711 
L 332.29729 160.766481 
L 334.138671 160.977802 
L 335.59053 161.357727 
L 336.723687 161.877632 
L 337.608967 162.527904 
L 338.31719 163.323778 
L 338.91918 164.343441 
L 339.450348 165.715908 
L 339.910693 167.571201 
L 340.300216 170.064726 
L 340.654328 173.792046 
L 340.973029 179.621406 
L 341.256318 189.021339 
L 341.575019 208.737928 
L 341.858308 224.024963 
L 341.92913 222.691907 
L 342.141597 208.674054 
L 342.53112 186.077756 
L 342.885232 176.595745 
L 343.274755 171.320175 
L 343.7351 167.939053 
L 344.230857 165.828519 
L 344.797436 164.341717 
L 345.434837 163.274428 
L 346.178472 162.463672 
L 347.063751 161.836279 
L 348.161498 161.344958 
L 349.542534 160.984292 
L 351.24227 160.776758 
L 353.189885 160.765804 
L 354.995855 160.968719 
L 356.483124 161.352687 
L 357.616282 161.869341 
L 358.501561 162.515014 
L 359.209785 163.304385 
L 359.811775 164.314187 
L 360.342943 165.670813 
L 360.803288 167.5003 
L 361.192811 169.95154 
L 361.546923 173.601381 
L 361.865623 179.282489 
L 362.148913 188.403291 
L 362.432202 204.981481 
L 362.750903 223.974503 
L 362.786314 223.898492 
L 362.892547 219.959364 
L 363.600771 180.865677 
L 363.990294 173.495925 
L 364.415228 169.357446 
L 364.910985 166.663739 
L 365.442152 164.944307 
L 366.044142 163.715493 
L 366.716955 162.822173 
L 367.531412 162.113296 
L 368.522925 161.559218 
L 369.762316 161.13637 
L 371.320408 160.851791 
L 373.161789 160.743224 
L 375.073992 160.846873 
L 376.702907 161.14392 
L 377.977709 161.588185 
L 378.969222 162.159279 
L 379.748268 162.853931 
L 380.385669 163.705465 
L 380.952248 164.840192 
L 381.448004 166.359378 
L 381.872939 168.389495 
L 382.262462 171.398804 
L 382.616573 176.099952 
L 382.935274 183.849629 
L 383.218563 196.814705 
L 383.678909 224.009634 
L 383.71432 223.531854 
L 383.855964 216.217608 
L 384.387132 184.536852 
L 384.776655 175.249211 
L 385.201589 170.290713 
L 385.661935 167.357094 
L 386.193102 165.367666 
L 386.795092 163.983893 
L 387.467905 162.997699 
L 388.24695 162.253749 
L 389.167641 161.682004 
L 390.33621 161.228618 
L 391.788068 160.911009 
L 393.558627 160.752505 
L 395.470831 160.796834 
L 397.205978 161.047617 
L 398.587014 161.461491 
L 399.64935 162.004262 
L 400.499218 162.690687 
L 401.17203 163.517355 
L 401.738609 164.557548 
L 402.234366 165.926502 
L 402.694711 167.905455 
L 403.084234 170.603441 
L 403.438346 174.710431 
L 403.757046 181.2769 
L 404.040336 192.062841 
L 404.394447 216.286593 
L 404.571503 224.013466 
L 404.606914 223.802042 
L 404.713148 219.533962 
L 405.38596 181.646668 
L 405.775483 173.876807 
L 406.200417 169.563823 
L 406.660763 166.933799 
L 407.19193 165.110763 
L 407.79392 163.82178 
L 408.466733 162.892032 
L 409.245779 162.184381 
L 410.201881 161.620461 
L 411.405861 161.181759 
L 412.928541 160.877654 
L 414.769922 160.745102 
L 416.717537 160.828273 
L 418.381863 161.109907 
L 419.692076 161.544118 
L 420.719 162.113947 
L 421.533457 162.82322 
L 422.20627 163.71709 
L 422.772849 164.857821 
L 423.268605 166.386588 
L 423.693539 168.432418 
L 424.083062 171.470152 
L 424.437174 176.226423 
L 424.755874 184.087497 
L 425.039164 197.252372 
L 425.499509 223.966838 
L 425.53492 223.356838 
L 425.676565 215.700865 
L 426.172322 185.5453 
L 426.526433 176.33501 
L 426.951367 170.84891 
L 427.411713 167.675061 
L 427.907469 165.667811 
L 428.474048 164.240412 
L 429.111449 163.208516 
L 429.855084 162.420531 
L 430.740363 161.808398 
L 431.83811 161.327891 
L 433.219146 160.97503 
L 434.600182 160.796195 
L 434.600182 160.796195 
" style="fill:none;stroke:#2ca02c;stroke-dasharray:5.55,2.4;stroke-dashoffset:0;stroke-width:1.5;"/>
   </g>
   <g id="patch_3">
    <path d="M 62.82 334.4976 
L 62.82 45.1008 
" style="fill:none;stroke:#000000;stroke-linecap:square;stroke-linejoin:miter;stroke-width:0.8;"/>
   </g>
   <g id="patch_4">
    <path d="M 452.304 334.4976 
L 452.304 45.1008 
" style="fill:none;stroke:#000000;stroke-linecap:square;stroke-linejoin:miter;stroke-width:0.8;"/>
   </g>
   <g id="patch_5">
    <path d="M 62.82 334.4976 
L 452.304 334.4976 
" style="fill:none;stroke:#000000;stroke-linecap:square;stroke-linejoin:miter;stroke-width:0.8;"/>
   </g>
   <g id="patch_6">
    <path d="M 62.82 45.1008 
L 452.304 45.1008 
" style="fill:none;stroke:#000000;stroke-linecap:square;stroke-linejoin:miter;stroke-width:0.8;"/>
   </g>
   <g id="text_19">
    <!-- n = 2, N = 1.0e+07, dt = 1e-06, VelocityVerlet, Simulated time = 10.00 years -->
    <g transform="translate(23.039813 25.663425)scale(0.12 -0.12)">
     <defs>
      <path d="M 10.59375 45.40625 
L 73.1875 45.40625 
L 73.1875 37.203125 
L 10.59375 37.203125 
z
M 10.59375 25.484375 
L 73.1875 25.484375 
L 73.1875 17.1875 
L 10.59375 17.1875 
z
" id="DejaVuSans-61"/>
      <path d="M 11.71875 12.40625 
L 22.015625 12.40625 
L 22.015625 4 
L 14.015625 -11.625 
L 7.71875 -11.625 
L 11.71875 4 
z
" id="DejaVuSans-44"/>
      <path d="M 46 62.703125 
L 46 35.5 
L 73.1875 35.5 
L 73.1875 27.203125 
L 46 27.203125 
L 46 0 
L 37.796875 0 
L 37.796875 27.203125 
L 10.59375 27.203125 
L 10.59375 35.5 
L 37.796875 35.5 
L 37.796875 62.703125 
z
" id="DejaVuSans-43"/>
      <path d="M 45.40625 46.390625 
L 45.40625 75.984375 
L 54.390625 75.984375 
L 54.390625 0 
L 45.40625 0 
L 45.40625 8.203125 
Q 42.578125 3.328125 38.25 0.953125 
Q 33.9375 -1.421875 27.875 -1.421875 
Q 17.96875 -1.421875 11.734375 6.484375 
Q 5.515625 14.40625 5.515625 27.296875 
Q 5.515625 40.1875 11.734375 48.09375 
Q 17.96875 56 27.875 56 
Q 33.9375 56 38.25 53.625 
Q 42.578125 51.265625 45.40625 46.390625 
z
M 14.796875 27.296875 
Q 14.796875 17.390625 18.875 11.75 
Q 22.953125 6.109375 30.078125 6.109375 
Q 37.203125 6.109375 41.296875 11.75 
Q 45.40625 17.390625 45.40625 27.296875 
Q 45.40625 37.203125 41.296875 42.84375 
Q 37.203125 48.484375 30.078125 48.484375 
Q 22.953125 48.484375 18.875 42.84375 
Q 14.796875 37.203125 14.796875 27.296875 
z
" id="DejaVuSans-100"/>
      <path d="M 4.890625 31.390625 
L 31.203125 31.390625 
L 31.203125 23.390625 
L 4.890625 23.390625 
z
" id="DejaVuSans-45"/>
      <path d="M 28.609375 0 
L 0.78125 72.90625 
L 11.078125 72.90625 
L 34.1875 11.53125 
L 57.328125 72.90625 
L 67.578125 72.90625 
L 39.796875 0 
z
" id="DejaVuSans-86"/>
      <path d="M 9.421875 75.984375 
L 18.40625 75.984375 
L 18.40625 0 
L 9.421875 0 
z
" id="DejaVuSans-108"/>
      <path d="M 48.78125 52.59375 
L 48.78125 44.1875 
Q 44.96875 46.296875 41.140625 47.34375 
Q 37.3125 48.390625 33.40625 48.390625 
Q 24.65625 48.390625 19.8125 42.84375 
Q 14.984375 37.3125 14.984375 27.296875 
Q 14.984375 17.28125 19.8125 11.734375 
Q 24.65625 6.203125 33.40625 6.203125 
Q 37.3125 6.203125 41.140625 7.25 
Q 44.96875 8.296875 48.78125 10.40625 
L 48.78125 2.09375 
Q 45.015625 0.34375 40.984375 -0.53125 
Q 36.96875 -1.421875 32.421875 -1.421875 
Q 20.0625 -1.421875 12.78125 6.34375 
Q 5.515625 14.109375 5.515625 27.296875 
Q 5.515625 40.671875 12.859375 48.328125 
Q 20.21875 56 33.015625 56 
Q 37.15625 56 41.109375 55.140625 
Q 45.0625 54.296875 48.78125 52.59375 
z
" id="DejaVuSans-99"/>
      <path d="M 53.515625 70.515625 
L 53.515625 60.890625 
Q 47.90625 63.578125 42.921875 64.890625 
Q 37.9375 66.21875 33.296875 66.21875 
Q 25.25 66.21875 20.875 63.09375 
Q 16.5 59.96875 16.5 54.203125 
Q 16.5 49.359375 19.40625 46.890625 
Q 22.3125 44.4375 30.421875 42.921875 
L 36.375 41.703125 
Q 47.40625 39.59375 52.65625 34.296875 
Q 57.90625 29 57.90625 20.125 
Q 57.90625 9.515625 50.796875 4.046875 
Q 43.703125 -1.421875 29.984375 -1.421875 
Q 24.8125 -1.421875 18.96875 -0.25 
Q 13.140625 0.921875 6.890625 3.21875 
L 6.890625 13.375 
Q 12.890625 10.015625 18.65625 8.296875 
Q 24.421875 6.59375 29.984375 6.59375 
Q 38.421875 6.59375 43.015625 9.90625 
Q 47.609375 13.234375 47.609375 19.390625 
Q 47.609375 24.75 44.3125 27.78125 
Q 41.015625 30.8125 33.5 32.328125 
L 27.484375 33.5 
Q 16.453125 35.6875 11.515625 40.375 
Q 6.59375 45.0625 6.59375 53.421875 
Q 6.59375 63.09375 13.40625 68.65625 
Q 20.21875 74.21875 32.171875 74.21875 
Q 37.3125 74.21875 42.625 73.28125 
Q 47.953125 72.359375 53.515625 70.515625 
z
" id="DejaVuSans-83"/>
      <path d="M 34.28125 27.484375 
Q 23.390625 27.484375 19.1875 25 
Q 14.984375 22.515625 14.984375 16.5 
Q 14.984375 11.71875 18.140625 8.90625 
Q 21.296875 6.109375 26.703125 6.109375 
Q 34.1875 6.109375 38.703125 11.40625 
Q 43.21875 16.703125 43.21875 25.484375 
L 43.21875 27.484375 
z
M 52.203125 31.203125 
L 52.203125 0 
L 43.21875 0 
L 43.21875 8.296875 
Q 40.140625 3.328125 35.546875 0.953125 
Q 30.953125 -1.421875 24.3125 -1.421875 
Q 15.921875 -1.421875 10.953125 3.296875 
Q 6 8.015625 6 15.921875 
Q 6 25.140625 12.171875 29.828125 
Q 18.359375 34.515625 30.609375 34.515625 
L 43.21875 34.515625 
L 43.21875 35.40625 
Q 43.21875 41.609375 39.140625 45 
Q 35.0625 48.390625 27.6875 48.390625 
Q 23 48.390625 18.546875 47.265625 
Q 14.109375 46.140625 10.015625 43.890625 
L 10.015625 52.203125 
Q 14.9375 54.109375 19.578125 55.046875 
Q 24.21875 56 28.609375 56 
Q 40.484375 56 46.34375 49.84375 
Q 52.203125 43.703125 52.203125 31.203125 
z
" id="DejaVuSans-97"/>
     </defs>
     <use xlink:href="#DejaVuSans-110"/>
     <use x="63.378906" xlink:href="#DejaVuSans-32"/>
     <use x="95.166016" xlink:href="#DejaVuSans-61"/>
     <use x="178.955078" xlink:href="#DejaVuSans-32"/>
     <use x="210.742188" xlink:href="#DejaVuSans-50"/>
     <use x="274.365234" xlink:href="#DejaVuSans-44"/>
     <use x="306.152344" xlink:href="#DejaVuSans-32"/>
     <use x="337.939453" xlink:href="#DejaVuSans-78"/>
     <use x="412.744141" xlink:href="#DejaVuSans-32"/>
     <use x="444.53125" xlink:href="#DejaVuSans-61"/>
     <use x="528.320312" xlink:href="#DejaVuSans-32"/>
     <use x="560.107422" xlink:href="#DejaVuSans-49"/>
     <use x="623.730469" xlink:href="#DejaVuSans-46"/>
     <use x="655.517578" xlink:href="#DejaVuSans-48"/>
     <use x="719.140625" xlink:href="#DejaVuSans-101"/>
     <use x="780.664062" xlink:href="#DejaVuSans-43"/>
     <use x="864.453125" xlink:href="#DejaVuSans-48"/>
     <use x="928.076172" xlink:href="#DejaVuSans-55"/>
     <use x="991.699219" xlink:href="#DejaVuSans-44"/>
     <use x="1023.486328" xlink:href="#DejaVuSans-32"/>
     <use x="1055.273438" xlink:href="#DejaVuSans-100"/>
     <use x="1118.75" xlink:href="#DejaVuSans-116"/>
     <use x="1157.958984" xlink:href="#DejaVuSans-32"/>
     <use x="1189.746094" xlink:href="#DejaVuSans-61"/>
     <use x="1273.535156" xlink:href="#DejaVuSans-32"/>
     <use x="1305.322266" xlink:href="#DejaVuSans-49"/>
     <use x="1368.945312" xlink:href="#DejaVuSans-101"/>
     <use x="1430.46875" xlink:href="#DejaVuSans-45"/>
     <use x="1466.552734" xlink:href="#DejaVuSans-48"/>
     <use x="1530.175781" xlink:href="#DejaVuSans-54"/>
     <use x="1593.798828" xlink:href="#DejaVuSans-44"/>
     <use x="1625.585938" xlink:href="#DejaVuSans-32"/>
     <use x="1657.373047" xlink:href="#DejaVuSans-86"/>
     <use x="1718.03125" xlink:href="#DejaVuSans-101"/>
     <use x="1779.554688" xlink:href="#DejaVuSans-108"/>
     <use x="1807.337891" xlink:href="#DejaVuSans-111"/>
     <use x="1868.519531" xlink:href="#DejaVuSans-99"/>
     <use x="1923.5" xlink:href="#DejaVuSans-105"/>
     <use x="1951.283203" xlink:href="#DejaVuSans-116"/>
     <use x="1990.492188" xlink:href="#DejaVuSans-121"/>
     <use x="2049.671875" xlink:href="#DejaVuSans-86"/>
     <use x="2110.330078" xlink:href="#DejaVuSans-101"/>
     <use x="2171.853516" xlink:href="#DejaVuSans-114"/>
     <use x="2212.966797" xlink:href="#DejaVuSans-108"/>
     <use x="2240.75" xlink:href="#DejaVuSans-101"/>
     <use x="2302.273438" xlink:href="#DejaVuSans-116"/>
     <use x="2341.482422" xlink:href="#DejaVuSans-44"/>
     <use x="2373.269531" xlink:href="#DejaVuSans-32"/>
     <use x="2405.056641" xlink:href="#DejaVuSans-83"/>
     <use x="2468.533203" xlink:href="#DejaVuSans-105"/>
     <use x="2496.316406" xlink:href="#DejaVuSans-109"/>
     <use x="2593.728516" xlink:href="#DejaVuSans-117"/>
     <use x="2657.107422" xlink:href="#DejaVuSans-108"/>
     <use x="2684.890625" xlink:href="#DejaVuSans-97"/>
     <use x="2746.169922" xlink:href="#DejaVuSans-116"/>
     <use x="2785.378906" xlink:href="#DejaVuSans-101"/>
     <use x="2846.902344" xlink:href="#DejaVuSans-100"/>
     <use x="2910.378906" xlink:href="#DejaVuSans-32"/>
     <use x="2942.166016" xlink:href="#DejaVuSans-116"/>
     <use x="2981.375" xlink:href="#DejaVuSans-105"/>
     <use x="3009.158203" xlink:href="#DejaVuSans-109"/>
     <use x="3106.570312" xlink:href="#DejaVuSans-101"/>
     <use x="3168.09375" xlink:href="#DejaVuSans-32"/>
     <use x="3199.880859" xlink:href="#DejaVuSans-61"/>
     <use x="3283.669922" xlink:href="#DejaVuSans-32"/>
     <use x="3315.457031" xlink:href="#DejaVuSans-49"/>
     <use x="3379.080078" xlink:href="#DejaVuSans-48"/>
     <use x="3442.703125" xlink:href="#DejaVuSans-46"/>
     <use x="3474.490234" xlink:href="#DejaVuSans-48"/>
     <use x="3538.113281" xlink:href="#DejaVuSans-48"/>
     <use x="3601.736328" xlink:href="#DejaVuSans-32"/>
     <use x="3633.523438" xlink:href="#DejaVuSans-121"/>
     <use x="3692.703125" xlink:href="#DejaVuSans-101"/>
     <use x="3754.226562" xlink:href="#DejaVuSans-97"/>
     <use x="3815.505859" xlink:href="#DejaVuSans-114"/>
     <use x="3856.619141" xlink:href="#DejaVuSans-115"/>
    </g>
    <!--  -->
    <g transform="translate(257.562 39.1008)scale(0.12 -0.12)"/>
   </g>
   <g id="legend_1">
    <g id="patch_7">
     <path d="M 151.580563 329.4976 
L 445.304 329.4976 
Q 447.304 329.4976 447.304 327.4976 
L 447.304 284.1851 
Q 447.304 282.1851 445.304 282.1851 
L 151.580563 282.1851 
Q 149.580563 282.1851 149.580563 284.1851 
L 149.580563 327.4976 
Q 149.580563 329.4976 151.580563 329.4976 
z
" style="fill:#ffffff;opacity:0.8;stroke:#cccccc;stroke-linejoin:miter;"/>
    </g>
    <g id="line2d_34">
     <path d="M 153.580563 290.283537 
L 173.580563 290.283537 
" style="fill:none;stroke:#1f77b4;stroke-linecap:square;stroke-width:1.5;"/>
    </g>
    <g id="line2d_35"/>
    <g id="text_20">
     <!-- Kinetic energy -->
     <g transform="translate(181.580563 293.783537)scale(0.1 -0.1)">
      <defs>
       <path d="M 9.8125 72.90625 
L 19.671875 72.90625 
L 19.671875 42.09375 
L 52.390625 72.90625 
L 65.09375 72.90625 
L 28.90625 38.921875 
L 67.671875 0 
L 54.6875 0 
L 19.671875 35.109375 
L 19.671875 0 
L 9.8125 0 
z
" id="DejaVuSans-75"/>
      </defs>
      <use xlink:href="#DejaVuSans-75"/>
      <use x="65.576172" xlink:href="#DejaVuSans-105"/>
      <use x="93.359375" xlink:href="#DejaVuSans-110"/>
      <use x="156.738281" xlink:href="#DejaVuSans-101"/>
      <use x="218.261719" xlink:href="#DejaVuSans-116"/>
      <use x="257.470703" xlink:href="#DejaVuSans-105"/>
      <use x="285.253906" xlink:href="#DejaVuSans-99"/>
      <use x="340.234375" xlink:href="#DejaVuSans-32"/>
      <use x="372.021484" xlink:href="#DejaVuSans-101"/>
      <use x="433.544922" xlink:href="#DejaVuSans-110"/>
      <use x="496.923828" xlink:href="#DejaVuSans-101"/>
      <use x="558.447266" xlink:href="#DejaVuSans-114"/>
      <use x="597.810547" xlink:href="#DejaVuSans-103"/>
      <use x="661.287109" xlink:href="#DejaVuSans-121"/>
     </g>
    </g>
    <g id="line2d_36">
     <path d="M 153.580563 304.961662 
L 173.580563 304.961662 
" style="fill:none;stroke:#ff7f0e;stroke-linecap:square;stroke-width:1.5;"/>
    </g>
    <g id="line2d_37"/>
    <g id="text_21">
     <!-- Potential energy -->
     <g transform="translate(181.580563 308.461662)scale(0.1 -0.1)">
      <defs>
       <path d="M 19.671875 64.796875 
L 19.671875 37.40625 
L 32.078125 37.40625 
Q 38.96875 37.40625 42.71875 40.96875 
Q 46.484375 44.53125 46.484375 51.125 
Q 46.484375 57.671875 42.71875 61.234375 
Q 38.96875 64.796875 32.078125 64.796875 
z
M 9.8125 72.90625 
L 32.078125 72.90625 
Q 44.34375 72.90625 50.609375 67.359375 
Q 56.890625 61.8125 56.890625 51.125 
Q 56.890625 40.328125 50.609375 34.8125 
Q 44.34375 29.296875 32.078125 29.296875 
L 19.671875 29.296875 
L 19.671875 0 
L 9.8125 0 
z
" id="DejaVuSans-80"/>
      </defs>
      <use xlink:href="#DejaVuSans-80"/>
      <use x="56.677734" xlink:href="#DejaVuSans-111"/>
      <use x="117.859375" xlink:href="#DejaVuSans-116"/>
      <use x="157.068359" xlink:href="#DejaVuSans-101"/>
      <use x="218.591797" xlink:href="#DejaVuSans-110"/>
      <use x="281.970703" xlink:href="#DejaVuSans-116"/>
      <use x="321.179688" xlink:href="#DejaVuSans-105"/>
      <use x="348.962891" xlink:href="#DejaVuSans-97"/>
      <use x="410.242188" xlink:href="#DejaVuSans-108"/>
      <use x="438.025391" xlink:href="#DejaVuSans-32"/>
      <use x="469.8125" xlink:href="#DejaVuSans-101"/>
      <use x="531.335938" xlink:href="#DejaVuSans-110"/>
      <use x="594.714844" xlink:href="#DejaVuSans-101"/>
      <use x="656.238281" xlink:href="#DejaVuSans-114"/>
      <use x="695.601562" xlink:href="#DejaVuSans-103"/>
      <use x="759.078125" xlink:href="#DejaVuSans-121"/>
     </g>
    </g>
    <g id="line2d_38">
     <path d="M 153.580563 319.639788 
L 173.580563 319.639788 
" style="fill:none;stroke:#2ca02c;stroke-dasharray:5.55,2.4;stroke-dashoffset:0;stroke-width:1.5;"/>
    </g>
    <g id="line2d_39"/>
    <g id="text_22">
     <!-- Total energy. E_mean = -1.57e-01, E_std = 1.70e-01 -->
     <g transform="translate(181.580563 323.139788)scale(0.1 -0.1)">
      <defs>
       <path d="M -0.296875 72.90625 
L 61.375 72.90625 
L 61.375 64.59375 
L 35.5 64.59375 
L 35.5 0 
L 25.59375 0 
L 25.59375 64.59375 
L -0.296875 64.59375 
z
" id="DejaVuSans-84"/>
       <path d="M 50.984375 -16.609375 
L 50.984375 -23.578125 
L -0.984375 -23.578125 
L -0.984375 -16.609375 
z
" id="DejaVuSans-95"/>
      </defs>
      <use xlink:href="#DejaVuSans-84"/>
      <use x="44.083984" xlink:href="#DejaVuSans-111"/>
      <use x="105.265625" xlink:href="#DejaVuSans-116"/>
      <use x="144.474609" xlink:href="#DejaVuSans-97"/>
      <use x="205.753906" xlink:href="#DejaVuSans-108"/>
      <use x="233.537109" xlink:href="#DejaVuSans-32"/>
      <use x="265.324219" xlink:href="#DejaVuSans-101"/>
      <use x="326.847656" xlink:href="#DejaVuSans-110"/>
      <use x="390.226562" xlink:href="#DejaVuSans-101"/>
      <use x="451.75" xlink:href="#DejaVuSans-114"/>
      <use x="491.113281" xlink:href="#DejaVuSans-103"/>
      <use x="554.589844" xlink:href="#DejaVuSans-121"/>
      <use x="599.519531" xlink:href="#DejaVuSans-46"/>
      <use x="631.306641" xlink:href="#DejaVuSans-32"/>
      <use x="663.09375" xlink:href="#DejaVuSans-69"/>
      <use x="726.277344" xlink:href="#DejaVuSans-95"/>
      <use x="776.277344" xlink:href="#DejaVuSans-109"/>
      <use x="873.689453" xlink:href="#DejaVuSans-101"/>
      <use x="935.212891" xlink:href="#DejaVuSans-97"/>
      <use x="996.492188" xlink:href="#DejaVuSans-110"/>
      <use x="1059.871094" xlink:href="#DejaVuSans-32"/>
      <use x="1091.658203" xlink:href="#DejaVuSans-61"/>
      <use x="1175.447266" xlink:href="#DejaVuSans-32"/>
      <use x="1207.234375" xlink:href="#DejaVuSans-45"/>
      <use x="1243.318359" xlink:href="#DejaVuSans-49"/>
      <use x="1306.941406" xlink:href="#DejaVuSans-46"/>
      <use x="1338.728516" xlink:href="#DejaVuSans-53"/>
      <use x="1402.351562" xlink:href="#DejaVuSans-55"/>
      <use x="1465.974609" xlink:href="#DejaVuSans-101"/>
      <use x="1527.498047" xlink:href="#DejaVuSans-45"/>
      <use x="1563.582031" xlink:href="#DejaVuSans-48"/>
      <use x="1627.205078" xlink:href="#DejaVuSans-49"/>
      <use x="1690.828125" xlink:href="#DejaVuSans-44"/>
      <use x="1722.615234" xlink:href="#DejaVuSans-32"/>
      <use x="1754.402344" xlink:href="#DejaVuSans-69"/>
      <use x="1817.585938" xlink:href="#DejaVuSans-95"/>
      <use x="1867.585938" xlink:href="#DejaVuSans-115"/>
      <use x="1919.685547" xlink:href="#DejaVuSans-116"/>
      <use x="1958.894531" xlink:href="#DejaVuSans-100"/>
      <use x="2022.371094" xlink:href="#DejaVuSans-32"/>
      <use x="2054.158203" xlink:href="#DejaVuSans-61"/>
      <use x="2137.947266" xlink:href="#DejaVuSans-32"/>
      <use x="2169.734375" xlink:href="#DejaVuSans-49"/>
      <use x="2233.357422" xlink:href="#DejaVuSans-46"/>
      <use x="2265.144531" xlink:href="#DejaVuSans-55"/>
      <use x="2328.767578" xlink:href="#DejaVuSans-48"/>
      <use x="2392.390625" xlink:href="#DejaVuSans-101"/>
      <use x="2453.914062" xlink:href="#DejaVuSans-45"/>
      <use x="2489.998047" xlink:href="#DejaVuSans-48"/>
      <use x="2553.621094" xlink:href="#DejaVuSans-49"/>
     </g>
    </g>
   </g>
  </g>
 </g>
 <defs>
  <clipPath id="p197d3355b1">
   <rect height="289.3968" width="389.484" x="62.82" y="45.1008"/>
  </clipPath>
 </defs>
</svg>
