<?xml version="1.0" encoding="utf-8" standalone="no"?>
<!DOCTYPE svg PUBLIC "-//W3C//DTD SVG 1.1//EN"
  "http://www.w3.org/Graphics/SVG/1.1/DTD/svg11.dtd">
<!-- Created with matplotlib (https://matplotlib.org/) -->
<svg height="387.36pt" version="1.1" viewBox="0 0 504 387.36" width="504pt" xmlns="http://www.w3.org/2000/svg" xmlns:xlink="http://www.w3.org/1999/xlink">
 <metadata>
  <rdf:RDF xmlns:cc="http://creativecommons.org/ns#" xmlns:dc="http://purl.org/dc/elements/1.1/" xmlns:rdf="http://www.w3.org/1999/02/22-rdf-syntax-ns#">
   <cc:Work>
    <dc:type rdf:resource="http://purl.org/dc/dcmitype/StillImage"/>
    <dc:date>2020-10-22T15:46:47.496706</dc:date>
    <dc:format>image/svg+xml</dc:format>
    <dc:creator>
     <cc:Agent>
      <dc:title>Matplotlib v3.3.2, https://matplotlib.org/</dc:title>
     </cc:Agent>
    </dc:creator>
   </cc:Work>
  </rdf:RDF>
 </metadata>
 <defs>
  <style type="text/css">*{stroke-linecap:butt;stroke-linejoin:round;}</style>
 </defs>
 <g id="figure_1">
  <g id="patch_1">
   <path d="M 0 387.36 
L 504 387.36 
L 504 0 
L 0 0 
z
" style="fill:#ffffff;"/>
  </g>
  <g id="axes_1">
   <g id="patch_2">
    <path d="M 63 344.7504 
L 453.6 344.7504 
L 453.6 46.4832 
L 63 46.4832 
z
" style="fill:#ffffff;"/>
   </g>
   <g id="matplotlib.axis_1">
    <g id="xtick_1">
     <g id="line2d_1">
      <path clip-path="url(#p752b84aa95)" d="M 80.754545 344.7504 
L 80.754545 46.4832 
" style="fill:none;stroke:#b0b0b0;stroke-linecap:square;stroke-width:0.8;"/>
     </g>
     <g id="line2d_2">
      <defs>
       <path d="M 0 0 
L 0 3.5 
" id="m6ef1f1582f" style="stroke:#000000;stroke-width:0.8;"/>
      </defs>
      <g>
       <use style="stroke:#000000;stroke-width:0.8;" x="80.754545" xlink:href="#m6ef1f1582f" y="344.7504"/>
      </g>
     </g>
     <g id="text_1">
      <!-- 0.0 -->
      <g transform="translate(72.802983 359.348838)scale(0.1 -0.1)">
       <defs>
        <path d="M 31.78125 66.40625 
Q 24.171875 66.40625 20.328125 58.90625 
Q 16.5 51.421875 16.5 36.375 
Q 16.5 21.390625 20.328125 13.890625 
Q 24.171875 6.390625 31.78125 6.390625 
Q 39.453125 6.390625 43.28125 13.890625 
Q 47.125 21.390625 47.125 36.375 
Q 47.125 51.421875 43.28125 58.90625 
Q 39.453125 66.40625 31.78125 66.40625 
z
M 31.78125 74.21875 
Q 44.046875 74.21875 50.515625 64.515625 
Q 56.984375 54.828125 56.984375 36.375 
Q 56.984375 17.96875 50.515625 8.265625 
Q 44.046875 -1.421875 31.78125 -1.421875 
Q 19.53125 -1.421875 13.0625 8.265625 
Q 6.59375 17.96875 6.59375 36.375 
Q 6.59375 54.828125 13.0625 64.515625 
Q 19.53125 74.21875 31.78125 74.21875 
z
" id="DejaVuSans-48"/>
        <path d="M 10.6875 12.40625 
L 21 12.40625 
L 21 0 
L 10.6875 0 
z
" id="DejaVuSans-46"/>
       </defs>
       <use xlink:href="#DejaVuSans-48"/>
       <use x="63.623047" xlink:href="#DejaVuSans-46"/>
       <use x="95.410156" xlink:href="#DejaVuSans-48"/>
      </g>
     </g>
    </g>
    <g id="xtick_2">
     <g id="line2d_3">
      <path clip-path="url(#p752b84aa95)" d="M 151.772727 344.7504 
L 151.772727 46.4832 
" style="fill:none;stroke:#b0b0b0;stroke-linecap:square;stroke-width:0.8;"/>
     </g>
     <g id="line2d_4">
      <g>
       <use style="stroke:#000000;stroke-width:0.8;" x="151.772727" xlink:href="#m6ef1f1582f" y="344.7504"/>
      </g>
     </g>
     <g id="text_2">
      <!-- 0.2 -->
      <g transform="translate(143.821165 359.348838)scale(0.1 -0.1)">
       <defs>
        <path d="M 19.1875 8.296875 
L 53.609375 8.296875 
L 53.609375 0 
L 7.328125 0 
L 7.328125 8.296875 
Q 12.9375 14.109375 22.625 23.890625 
Q 32.328125 33.6875 34.8125 36.53125 
Q 39.546875 41.84375 41.421875 45.53125 
Q 43.3125 49.21875 43.3125 52.78125 
Q 43.3125 58.59375 39.234375 62.25 
Q 35.15625 65.921875 28.609375 65.921875 
Q 23.96875 65.921875 18.8125 64.3125 
Q 13.671875 62.703125 7.8125 59.421875 
L 7.8125 69.390625 
Q 13.765625 71.78125 18.9375 73 
Q 24.125 74.21875 28.421875 74.21875 
Q 39.75 74.21875 46.484375 68.546875 
Q 53.21875 62.890625 53.21875 53.421875 
Q 53.21875 48.921875 51.53125 44.890625 
Q 49.859375 40.875 45.40625 35.40625 
Q 44.1875 33.984375 37.640625 27.21875 
Q 31.109375 20.453125 19.1875 8.296875 
z
" id="DejaVuSans-50"/>
       </defs>
       <use xlink:href="#DejaVuSans-48"/>
       <use x="63.623047" xlink:href="#DejaVuSans-46"/>
       <use x="95.410156" xlink:href="#DejaVuSans-50"/>
      </g>
     </g>
    </g>
    <g id="xtick_3">
     <g id="line2d_5">
      <path clip-path="url(#p752b84aa95)" d="M 222.790909 344.7504 
L 222.790909 46.4832 
" style="fill:none;stroke:#b0b0b0;stroke-linecap:square;stroke-width:0.8;"/>
     </g>
     <g id="line2d_6">
      <g>
       <use style="stroke:#000000;stroke-width:0.8;" x="222.790909" xlink:href="#m6ef1f1582f" y="344.7504"/>
      </g>
     </g>
     <g id="text_3">
      <!-- 0.4 -->
      <g transform="translate(214.839347 359.348838)scale(0.1 -0.1)">
       <defs>
        <path d="M 37.796875 64.3125 
L 12.890625 25.390625 
L 37.796875 25.390625 
z
M 35.203125 72.90625 
L 47.609375 72.90625 
L 47.609375 25.390625 
L 58.015625 25.390625 
L 58.015625 17.1875 
L 47.609375 17.1875 
L 47.609375 0 
L 37.796875 0 
L 37.796875 17.1875 
L 4.890625 17.1875 
L 4.890625 26.703125 
z
" id="DejaVuSans-52"/>
       </defs>
       <use xlink:href="#DejaVuSans-48"/>
       <use x="63.623047" xlink:href="#DejaVuSans-46"/>
       <use x="95.410156" xlink:href="#DejaVuSans-52"/>
      </g>
     </g>
    </g>
    <g id="xtick_4">
     <g id="line2d_7">
      <path clip-path="url(#p752b84aa95)" d="M 293.809091 344.7504 
L 293.809091 46.4832 
" style="fill:none;stroke:#b0b0b0;stroke-linecap:square;stroke-width:0.8;"/>
     </g>
     <g id="line2d_8">
      <g>
       <use style="stroke:#000000;stroke-width:0.8;" x="293.809091" xlink:href="#m6ef1f1582f" y="344.7504"/>
      </g>
     </g>
     <g id="text_4">
      <!-- 0.6 -->
      <g transform="translate(285.857528 359.348838)scale(0.1 -0.1)">
       <defs>
        <path d="M 33.015625 40.375 
Q 26.375 40.375 22.484375 35.828125 
Q 18.609375 31.296875 18.609375 23.390625 
Q 18.609375 15.53125 22.484375 10.953125 
Q 26.375 6.390625 33.015625 6.390625 
Q 39.65625 6.390625 43.53125 10.953125 
Q 47.40625 15.53125 47.40625 23.390625 
Q 47.40625 31.296875 43.53125 35.828125 
Q 39.65625 40.375 33.015625 40.375 
z
M 52.59375 71.296875 
L 52.59375 62.3125 
Q 48.875 64.0625 45.09375 64.984375 
Q 41.3125 65.921875 37.59375 65.921875 
Q 27.828125 65.921875 22.671875 59.328125 
Q 17.53125 52.734375 16.796875 39.40625 
Q 19.671875 43.65625 24.015625 45.921875 
Q 28.375 48.1875 33.59375 48.1875 
Q 44.578125 48.1875 50.953125 41.515625 
Q 57.328125 34.859375 57.328125 23.390625 
Q 57.328125 12.15625 50.6875 5.359375 
Q 44.046875 -1.421875 33.015625 -1.421875 
Q 20.359375 -1.421875 13.671875 8.265625 
Q 6.984375 17.96875 6.984375 36.375 
Q 6.984375 53.65625 15.1875 63.9375 
Q 23.390625 74.21875 37.203125 74.21875 
Q 40.921875 74.21875 44.703125 73.484375 
Q 48.484375 72.75 52.59375 71.296875 
z
" id="DejaVuSans-54"/>
       </defs>
       <use xlink:href="#DejaVuSans-48"/>
       <use x="63.623047" xlink:href="#DejaVuSans-46"/>
       <use x="95.410156" xlink:href="#DejaVuSans-54"/>
      </g>
     </g>
    </g>
    <g id="xtick_5">
     <g id="line2d_9">
      <path clip-path="url(#p752b84aa95)" d="M 364.827273 344.7504 
L 364.827273 46.4832 
" style="fill:none;stroke:#b0b0b0;stroke-linecap:square;stroke-width:0.8;"/>
     </g>
     <g id="line2d_10">
      <g>
       <use style="stroke:#000000;stroke-width:0.8;" x="364.827273" xlink:href="#m6ef1f1582f" y="344.7504"/>
      </g>
     </g>
     <g id="text_5">
      <!-- 0.8 -->
      <g transform="translate(356.87571 359.348838)scale(0.1 -0.1)">
       <defs>
        <path d="M 31.78125 34.625 
Q 24.75 34.625 20.71875 30.859375 
Q 16.703125 27.09375 16.703125 20.515625 
Q 16.703125 13.921875 20.71875 10.15625 
Q 24.75 6.390625 31.78125 6.390625 
Q 38.8125 6.390625 42.859375 10.171875 
Q 46.921875 13.96875 46.921875 20.515625 
Q 46.921875 27.09375 42.890625 30.859375 
Q 38.875 34.625 31.78125 34.625 
z
M 21.921875 38.8125 
Q 15.578125 40.375 12.03125 44.71875 
Q 8.5 49.078125 8.5 55.328125 
Q 8.5 64.0625 14.71875 69.140625 
Q 20.953125 74.21875 31.78125 74.21875 
Q 42.671875 74.21875 48.875 69.140625 
Q 55.078125 64.0625 55.078125 55.328125 
Q 55.078125 49.078125 51.53125 44.71875 
Q 48 40.375 41.703125 38.8125 
Q 48.828125 37.15625 52.796875 32.3125 
Q 56.78125 27.484375 56.78125 20.515625 
Q 56.78125 9.90625 50.3125 4.234375 
Q 43.84375 -1.421875 31.78125 -1.421875 
Q 19.734375 -1.421875 13.25 4.234375 
Q 6.78125 9.90625 6.78125 20.515625 
Q 6.78125 27.484375 10.78125 32.3125 
Q 14.796875 37.15625 21.921875 38.8125 
z
M 18.3125 54.390625 
Q 18.3125 48.734375 21.84375 45.5625 
Q 25.390625 42.390625 31.78125 42.390625 
Q 38.140625 42.390625 41.71875 45.5625 
Q 45.3125 48.734375 45.3125 54.390625 
Q 45.3125 60.0625 41.71875 63.234375 
Q 38.140625 66.40625 31.78125 66.40625 
Q 25.390625 66.40625 21.84375 63.234375 
Q 18.3125 60.0625 18.3125 54.390625 
z
" id="DejaVuSans-56"/>
       </defs>
       <use xlink:href="#DejaVuSans-48"/>
       <use x="63.623047" xlink:href="#DejaVuSans-46"/>
       <use x="95.410156" xlink:href="#DejaVuSans-56"/>
      </g>
     </g>
    </g>
    <g id="xtick_6">
     <g id="line2d_11">
      <path clip-path="url(#p752b84aa95)" d="M 435.845455 344.7504 
L 435.845455 46.4832 
" style="fill:none;stroke:#b0b0b0;stroke-linecap:square;stroke-width:0.8;"/>
     </g>
     <g id="line2d_12">
      <g>
       <use style="stroke:#000000;stroke-width:0.8;" x="435.845455" xlink:href="#m6ef1f1582f" y="344.7504"/>
      </g>
     </g>
     <g id="text_6">
      <!-- 1.0 -->
      <g transform="translate(427.893892 359.348838)scale(0.1 -0.1)">
       <defs>
        <path d="M 12.40625 8.296875 
L 28.515625 8.296875 
L 28.515625 63.921875 
L 10.984375 60.40625 
L 10.984375 69.390625 
L 28.421875 72.90625 
L 38.28125 72.90625 
L 38.28125 8.296875 
L 54.390625 8.296875 
L 54.390625 0 
L 12.40625 0 
z
" id="DejaVuSans-49"/>
       </defs>
       <use xlink:href="#DejaVuSans-49"/>
       <use x="63.623047" xlink:href="#DejaVuSans-46"/>
       <use x="95.410156" xlink:href="#DejaVuSans-48"/>
      </g>
     </g>
    </g>
    <g id="text_7">
     <!-- N [number of time steps] -->
     <g transform="translate(195.251563 373.026963)scale(0.1 -0.1)">
      <defs>
       <path d="M 9.8125 72.90625 
L 23.09375 72.90625 
L 55.421875 11.921875 
L 55.421875 72.90625 
L 64.984375 72.90625 
L 64.984375 0 
L 51.703125 0 
L 19.390625 60.984375 
L 19.390625 0 
L 9.8125 0 
z
" id="DejaVuSans-78"/>
       <path id="DejaVuSans-32"/>
       <path d="M 8.59375 75.984375 
L 29.296875 75.984375 
L 29.296875 69 
L 17.578125 69 
L 17.578125 -6.203125 
L 29.296875 -6.203125 
L 29.296875 -13.1875 
L 8.59375 -13.1875 
z
" id="DejaVuSans-91"/>
       <path d="M 54.890625 33.015625 
L 54.890625 0 
L 45.90625 0 
L 45.90625 32.71875 
Q 45.90625 40.484375 42.875 44.328125 
Q 39.84375 48.1875 33.796875 48.1875 
Q 26.515625 48.1875 22.3125 43.546875 
Q 18.109375 38.921875 18.109375 30.90625 
L 18.109375 0 
L 9.078125 0 
L 9.078125 54.6875 
L 18.109375 54.6875 
L 18.109375 46.1875 
Q 21.34375 51.125 25.703125 53.5625 
Q 30.078125 56 35.796875 56 
Q 45.21875 56 50.046875 50.171875 
Q 54.890625 44.34375 54.890625 33.015625 
z
" id="DejaVuSans-110"/>
       <path d="M 8.5 21.578125 
L 8.5 54.6875 
L 17.484375 54.6875 
L 17.484375 21.921875 
Q 17.484375 14.15625 20.5 10.265625 
Q 23.53125 6.390625 29.59375 6.390625 
Q 36.859375 6.390625 41.078125 11.03125 
Q 45.3125 15.671875 45.3125 23.6875 
L 45.3125 54.6875 
L 54.296875 54.6875 
L 54.296875 0 
L 45.3125 0 
L 45.3125 8.40625 
Q 42.046875 3.421875 37.71875 1 
Q 33.40625 -1.421875 27.6875 -1.421875 
Q 18.265625 -1.421875 13.375 4.4375 
Q 8.5 10.296875 8.5 21.578125 
z
M 31.109375 56 
z
" id="DejaVuSans-117"/>
       <path d="M 52 44.1875 
Q 55.375 50.25 60.0625 53.125 
Q 64.75 56 71.09375 56 
Q 79.640625 56 84.28125 50.015625 
Q 88.921875 44.046875 88.921875 33.015625 
L 88.921875 0 
L 79.890625 0 
L 79.890625 32.71875 
Q 79.890625 40.578125 77.09375 44.375 
Q 74.3125 48.1875 68.609375 48.1875 
Q 61.625 48.1875 57.5625 43.546875 
Q 53.515625 38.921875 53.515625 30.90625 
L 53.515625 0 
L 44.484375 0 
L 44.484375 32.71875 
Q 44.484375 40.625 41.703125 44.40625 
Q 38.921875 48.1875 33.109375 48.1875 
Q 26.21875 48.1875 22.15625 43.53125 
Q 18.109375 38.875 18.109375 30.90625 
L 18.109375 0 
L 9.078125 0 
L 9.078125 54.6875 
L 18.109375 54.6875 
L 18.109375 46.1875 
Q 21.1875 51.21875 25.484375 53.609375 
Q 29.78125 56 35.6875 56 
Q 41.65625 56 45.828125 52.96875 
Q 50 49.953125 52 44.1875 
z
" id="DejaVuSans-109"/>
       <path d="M 48.6875 27.296875 
Q 48.6875 37.203125 44.609375 42.84375 
Q 40.53125 48.484375 33.40625 48.484375 
Q 26.265625 48.484375 22.1875 42.84375 
Q 18.109375 37.203125 18.109375 27.296875 
Q 18.109375 17.390625 22.1875 11.75 
Q 26.265625 6.109375 33.40625 6.109375 
Q 40.53125 6.109375 44.609375 11.75 
Q 48.6875 17.390625 48.6875 27.296875 
z
M 18.109375 46.390625 
Q 20.953125 51.265625 25.265625 53.625 
Q 29.59375 56 35.59375 56 
Q 45.5625 56 51.78125 48.09375 
Q 58.015625 40.1875 58.015625 27.296875 
Q 58.015625 14.40625 51.78125 6.484375 
Q 45.5625 -1.421875 35.59375 -1.421875 
Q 29.59375 -1.421875 25.265625 0.953125 
Q 20.953125 3.328125 18.109375 8.203125 
L 18.109375 0 
L 9.078125 0 
L 9.078125 75.984375 
L 18.109375 75.984375 
z
" id="DejaVuSans-98"/>
       <path d="M 56.203125 29.59375 
L 56.203125 25.203125 
L 14.890625 25.203125 
Q 15.484375 15.921875 20.484375 11.0625 
Q 25.484375 6.203125 34.421875 6.203125 
Q 39.59375 6.203125 44.453125 7.46875 
Q 49.3125 8.734375 54.109375 11.28125 
L 54.109375 2.78125 
Q 49.265625 0.734375 44.1875 -0.34375 
Q 39.109375 -1.421875 33.890625 -1.421875 
Q 20.796875 -1.421875 13.15625 6.1875 
Q 5.515625 13.8125 5.515625 26.8125 
Q 5.515625 40.234375 12.765625 48.109375 
Q 20.015625 56 32.328125 56 
Q 43.359375 56 49.78125 48.890625 
Q 56.203125 41.796875 56.203125 29.59375 
z
M 47.21875 32.234375 
Q 47.125 39.59375 43.09375 43.984375 
Q 39.0625 48.390625 32.421875 48.390625 
Q 24.90625 48.390625 20.390625 44.140625 
Q 15.875 39.890625 15.1875 32.171875 
z
" id="DejaVuSans-101"/>
       <path d="M 41.109375 46.296875 
Q 39.59375 47.171875 37.8125 47.578125 
Q 36.03125 48 33.890625 48 
Q 26.265625 48 22.1875 43.046875 
Q 18.109375 38.09375 18.109375 28.8125 
L 18.109375 0 
L 9.078125 0 
L 9.078125 54.6875 
L 18.109375 54.6875 
L 18.109375 46.1875 
Q 20.953125 51.171875 25.484375 53.578125 
Q 30.03125 56 36.53125 56 
Q 37.453125 56 38.578125 55.875 
Q 39.703125 55.765625 41.0625 55.515625 
z
" id="DejaVuSans-114"/>
       <path d="M 30.609375 48.390625 
Q 23.390625 48.390625 19.1875 42.75 
Q 14.984375 37.109375 14.984375 27.296875 
Q 14.984375 17.484375 19.15625 11.84375 
Q 23.34375 6.203125 30.609375 6.203125 
Q 37.796875 6.203125 41.984375 11.859375 
Q 46.1875 17.53125 46.1875 27.296875 
Q 46.1875 37.015625 41.984375 42.703125 
Q 37.796875 48.390625 30.609375 48.390625 
z
M 30.609375 56 
Q 42.328125 56 49.015625 48.375 
Q 55.71875 40.765625 55.71875 27.296875 
Q 55.71875 13.875 49.015625 6.21875 
Q 42.328125 -1.421875 30.609375 -1.421875 
Q 18.84375 -1.421875 12.171875 6.21875 
Q 5.515625 13.875 5.515625 27.296875 
Q 5.515625 40.765625 12.171875 48.375 
Q 18.84375 56 30.609375 56 
z
" id="DejaVuSans-111"/>
       <path d="M 37.109375 75.984375 
L 37.109375 68.5 
L 28.515625 68.5 
Q 23.6875 68.5 21.796875 66.546875 
Q 19.921875 64.59375 19.921875 59.515625 
L 19.921875 54.6875 
L 34.71875 54.6875 
L 34.71875 47.703125 
L 19.921875 47.703125 
L 19.921875 0 
L 10.890625 0 
L 10.890625 47.703125 
L 2.296875 47.703125 
L 2.296875 54.6875 
L 10.890625 54.6875 
L 10.890625 58.5 
Q 10.890625 67.625 15.140625 71.796875 
Q 19.390625 75.984375 28.609375 75.984375 
z
" id="DejaVuSans-102"/>
       <path d="M 18.3125 70.21875 
L 18.3125 54.6875 
L 36.8125 54.6875 
L 36.8125 47.703125 
L 18.3125 47.703125 
L 18.3125 18.015625 
Q 18.3125 11.328125 20.140625 9.421875 
Q 21.96875 7.515625 27.59375 7.515625 
L 36.8125 7.515625 
L 36.8125 0 
L 27.59375 0 
Q 17.1875 0 13.234375 3.875 
Q 9.28125 7.765625 9.28125 18.015625 
L 9.28125 47.703125 
L 2.6875 47.703125 
L 2.6875 54.6875 
L 9.28125 54.6875 
L 9.28125 70.21875 
z
" id="DejaVuSans-116"/>
       <path d="M 9.421875 54.6875 
L 18.40625 54.6875 
L 18.40625 0 
L 9.421875 0 
z
M 9.421875 75.984375 
L 18.40625 75.984375 
L 18.40625 64.59375 
L 9.421875 64.59375 
z
" id="DejaVuSans-105"/>
       <path d="M 44.28125 53.078125 
L 44.28125 44.578125 
Q 40.484375 46.53125 36.375 47.5 
Q 32.28125 48.484375 27.875 48.484375 
Q 21.1875 48.484375 17.84375 46.4375 
Q 14.5 44.390625 14.5 40.28125 
Q 14.5 37.15625 16.890625 35.375 
Q 19.28125 33.59375 26.515625 31.984375 
L 29.59375 31.296875 
Q 39.15625 29.25 43.1875 25.515625 
Q 47.21875 21.78125 47.21875 15.09375 
Q 47.21875 7.46875 41.1875 3.015625 
Q 35.15625 -1.421875 24.609375 -1.421875 
Q 20.21875 -1.421875 15.453125 -0.5625 
Q 10.6875 0.296875 5.421875 2 
L 5.421875 11.28125 
Q 10.40625 8.6875 15.234375 7.390625 
Q 20.0625 6.109375 24.8125 6.109375 
Q 31.15625 6.109375 34.5625 8.28125 
Q 37.984375 10.453125 37.984375 14.40625 
Q 37.984375 18.0625 35.515625 20.015625 
Q 33.0625 21.96875 24.703125 23.78125 
L 21.578125 24.515625 
Q 13.234375 26.265625 9.515625 29.90625 
Q 5.8125 33.546875 5.8125 39.890625 
Q 5.8125 47.609375 11.28125 51.796875 
Q 16.75 56 26.8125 56 
Q 31.78125 56 36.171875 55.265625 
Q 40.578125 54.546875 44.28125 53.078125 
z
" id="DejaVuSans-115"/>
       <path d="M 18.109375 8.203125 
L 18.109375 -20.796875 
L 9.078125 -20.796875 
L 9.078125 54.6875 
L 18.109375 54.6875 
L 18.109375 46.390625 
Q 20.953125 51.265625 25.265625 53.625 
Q 29.59375 56 35.59375 56 
Q 45.5625 56 51.78125 48.09375 
Q 58.015625 40.1875 58.015625 27.296875 
Q 58.015625 14.40625 51.78125 6.484375 
Q 45.5625 -1.421875 35.59375 -1.421875 
Q 29.59375 -1.421875 25.265625 0.953125 
Q 20.953125 3.328125 18.109375 8.203125 
z
M 48.6875 27.296875 
Q 48.6875 37.203125 44.609375 42.84375 
Q 40.53125 48.484375 33.40625 48.484375 
Q 26.265625 48.484375 22.1875 42.84375 
Q 18.109375 37.203125 18.109375 27.296875 
Q 18.109375 17.390625 22.1875 11.75 
Q 26.265625 6.109375 33.40625 6.109375 
Q 40.53125 6.109375 44.609375 11.75 
Q 48.6875 17.390625 48.6875 27.296875 
z
" id="DejaVuSans-112"/>
       <path d="M 30.421875 75.984375 
L 30.421875 -13.1875 
L 9.71875 -13.1875 
L 9.71875 -6.203125 
L 21.390625 -6.203125 
L 21.390625 69 
L 9.71875 69 
L 9.71875 75.984375 
z
" id="DejaVuSans-93"/>
      </defs>
      <use xlink:href="#DejaVuSans-78"/>
      <use x="74.804688" xlink:href="#DejaVuSans-32"/>
      <use x="106.591797" xlink:href="#DejaVuSans-91"/>
      <use x="145.605469" xlink:href="#DejaVuSans-110"/>
      <use x="208.984375" xlink:href="#DejaVuSans-117"/>
      <use x="272.363281" xlink:href="#DejaVuSans-109"/>
      <use x="369.775391" xlink:href="#DejaVuSans-98"/>
      <use x="433.251953" xlink:href="#DejaVuSans-101"/>
      <use x="494.775391" xlink:href="#DejaVuSans-114"/>
      <use x="535.888672" xlink:href="#DejaVuSans-32"/>
      <use x="567.675781" xlink:href="#DejaVuSans-111"/>
      <use x="628.857422" xlink:href="#DejaVuSans-102"/>
      <use x="664.0625" xlink:href="#DejaVuSans-32"/>
      <use x="695.849609" xlink:href="#DejaVuSans-116"/>
      <use x="735.058594" xlink:href="#DejaVuSans-105"/>
      <use x="762.841797" xlink:href="#DejaVuSans-109"/>
      <use x="860.253906" xlink:href="#DejaVuSans-101"/>
      <use x="921.777344" xlink:href="#DejaVuSans-32"/>
      <use x="953.564453" xlink:href="#DejaVuSans-115"/>
      <use x="1005.664062" xlink:href="#DejaVuSans-116"/>
      <use x="1044.873047" xlink:href="#DejaVuSans-101"/>
      <use x="1106.396484" xlink:href="#DejaVuSans-112"/>
      <use x="1169.873047" xlink:href="#DejaVuSans-115"/>
      <use x="1221.972656" xlink:href="#DejaVuSans-93"/>
     </g>
    </g>
    <g id="text_8">
     <!-- 1e7 -->
     <g transform="translate(434.721875 372.026963)scale(0.1 -0.1)">
      <defs>
       <path d="M 8.203125 72.90625 
L 55.078125 72.90625 
L 55.078125 68.703125 
L 28.609375 0 
L 18.3125 0 
L 43.21875 64.59375 
L 8.203125 64.59375 
z
" id="DejaVuSans-55"/>
      </defs>
      <use xlink:href="#DejaVuSans-49"/>
      <use x="63.623047" xlink:href="#DejaVuSans-101"/>
      <use x="125.146484" xlink:href="#DejaVuSans-55"/>
     </g>
    </g>
   </g>
   <g id="matplotlib.axis_2">
    <g id="ytick_1">
     <g id="line2d_13">
      <path clip-path="url(#p752b84aa95)" d="M 63 341.487997 
L 453.6 341.487997 
" style="fill:none;stroke:#b0b0b0;stroke-linecap:square;stroke-width:0.8;"/>
     </g>
     <g id="line2d_14">
      <defs>
       <path d="M 0 0 
L -3.5 0 
" id="m0e89d5ad53" style="stroke:#000000;stroke-width:0.8;"/>
      </defs>
      <g>
       <use style="stroke:#000000;stroke-width:0.8;" x="63" xlink:href="#m0e89d5ad53" y="341.487997"/>
      </g>
     </g>
     <g id="text_9">
      <!-- −3 -->
      <g transform="translate(41.257812 345.287216)scale(0.1 -0.1)">
       <defs>
        <path d="M 10.59375 35.5 
L 73.1875 35.5 
L 73.1875 27.203125 
L 10.59375 27.203125 
z
" id="DejaVuSans-8722"/>
        <path d="M 40.578125 39.3125 
Q 47.65625 37.796875 51.625 33 
Q 55.609375 28.21875 55.609375 21.1875 
Q 55.609375 10.40625 48.1875 4.484375 
Q 40.765625 -1.421875 27.09375 -1.421875 
Q 22.515625 -1.421875 17.65625 -0.515625 
Q 12.796875 0.390625 7.625 2.203125 
L 7.625 11.71875 
Q 11.71875 9.328125 16.59375 8.109375 
Q 21.484375 6.890625 26.8125 6.890625 
Q 36.078125 6.890625 40.9375 10.546875 
Q 45.796875 14.203125 45.796875 21.1875 
Q 45.796875 27.640625 41.28125 31.265625 
Q 36.765625 34.90625 28.71875 34.90625 
L 20.21875 34.90625 
L 20.21875 43.015625 
L 29.109375 43.015625 
Q 36.375 43.015625 40.234375 45.921875 
Q 44.09375 48.828125 44.09375 54.296875 
Q 44.09375 59.90625 40.109375 62.90625 
Q 36.140625 65.921875 28.71875 65.921875 
Q 24.65625 65.921875 20.015625 65.03125 
Q 15.375 64.15625 9.8125 62.3125 
L 9.8125 71.09375 
Q 15.4375 72.65625 20.34375 73.4375 
Q 25.25 74.21875 29.59375 74.21875 
Q 40.828125 74.21875 47.359375 69.109375 
Q 53.90625 64.015625 53.90625 55.328125 
Q 53.90625 49.265625 50.4375 45.09375 
Q 46.96875 40.921875 40.578125 39.3125 
z
" id="DejaVuSans-51"/>
       </defs>
       <use xlink:href="#DejaVuSans-8722"/>
       <use x="83.789062" xlink:href="#DejaVuSans-51"/>
      </g>
     </g>
    </g>
    <g id="ytick_2">
     <g id="line2d_15">
      <path clip-path="url(#p752b84aa95)" d="M 63 283.139518 
L 453.6 283.139518 
" style="fill:none;stroke:#b0b0b0;stroke-linecap:square;stroke-width:0.8;"/>
     </g>
     <g id="line2d_16">
      <g>
       <use style="stroke:#000000;stroke-width:0.8;" x="63" xlink:href="#m0e89d5ad53" y="283.139518"/>
      </g>
     </g>
     <g id="text_10">
      <!-- −2 -->
      <g transform="translate(41.257812 286.938737)scale(0.1 -0.1)">
       <use xlink:href="#DejaVuSans-8722"/>
       <use x="83.789062" xlink:href="#DejaVuSans-50"/>
      </g>
     </g>
    </g>
    <g id="ytick_3">
     <g id="line2d_17">
      <path clip-path="url(#p752b84aa95)" d="M 63 224.791039 
L 453.6 224.791039 
" style="fill:none;stroke:#b0b0b0;stroke-linecap:square;stroke-width:0.8;"/>
     </g>
     <g id="line2d_18">
      <g>
       <use style="stroke:#000000;stroke-width:0.8;" x="63" xlink:href="#m0e89d5ad53" y="224.791039"/>
      </g>
     </g>
     <g id="text_11">
      <!-- −1 -->
      <g transform="translate(41.257812 228.590258)scale(0.1 -0.1)">
       <use xlink:href="#DejaVuSans-8722"/>
       <use x="83.789062" xlink:href="#DejaVuSans-49"/>
      </g>
     </g>
    </g>
    <g id="ytick_4">
     <g id="line2d_19">
      <path clip-path="url(#p752b84aa95)" d="M 63 166.442561 
L 453.6 166.442561 
" style="fill:none;stroke:#b0b0b0;stroke-linecap:square;stroke-width:0.8;"/>
     </g>
     <g id="line2d_20">
      <g>
       <use style="stroke:#000000;stroke-width:0.8;" x="63" xlink:href="#m0e89d5ad53" y="166.442561"/>
      </g>
     </g>
     <g id="text_12">
      <!-- 0 -->
      <g transform="translate(49.6375 170.241779)scale(0.1 -0.1)">
       <use xlink:href="#DejaVuSans-48"/>
      </g>
     </g>
    </g>
    <g id="ytick_5">
     <g id="line2d_21">
      <path clip-path="url(#p752b84aa95)" d="M 63 108.094082 
L 453.6 108.094082 
" style="fill:none;stroke:#b0b0b0;stroke-linecap:square;stroke-width:0.8;"/>
     </g>
     <g id="line2d_22">
      <g>
       <use style="stroke:#000000;stroke-width:0.8;" x="63" xlink:href="#m0e89d5ad53" y="108.094082"/>
      </g>
     </g>
     <g id="text_13">
      <!-- 1 -->
      <g transform="translate(49.6375 111.8933)scale(0.1 -0.1)">
       <use xlink:href="#DejaVuSans-49"/>
      </g>
     </g>
    </g>
    <g id="ytick_6">
     <g id="line2d_23">
      <path clip-path="url(#p752b84aa95)" d="M 63 49.745603 
L 453.6 49.745603 
" style="fill:none;stroke:#b0b0b0;stroke-linecap:square;stroke-width:0.8;"/>
     </g>
     <g id="line2d_24">
      <g>
       <use style="stroke:#000000;stroke-width:0.8;" x="63" xlink:href="#m0e89d5ad53" y="49.745603"/>
      </g>
     </g>
     <g id="text_14">
      <!-- 2 -->
      <g transform="translate(49.6375 53.544821)scale(0.1 -0.1)">
       <use xlink:href="#DejaVuSans-50"/>
      </g>
     </g>
    </g>
    <g id="text_15">
     <!-- Energy $[E_{tot}/max(|E_{tot}|)]$ -->
     <g transform="translate(34.857812 254.9168)rotate(-90)scale(0.1 -0.1)">
      <defs>
       <path d="M 9.8125 72.90625 
L 55.90625 72.90625 
L 55.90625 64.59375 
L 19.671875 64.59375 
L 19.671875 43.015625 
L 54.390625 43.015625 
L 54.390625 34.71875 
L 19.671875 34.71875 
L 19.671875 8.296875 
L 56.78125 8.296875 
L 56.78125 0 
L 9.8125 0 
z
" id="DejaVuSans-69"/>
       <path d="M 45.40625 27.984375 
Q 45.40625 37.75 41.375 43.109375 
Q 37.359375 48.484375 30.078125 48.484375 
Q 22.859375 48.484375 18.828125 43.109375 
Q 14.796875 37.75 14.796875 27.984375 
Q 14.796875 18.265625 18.828125 12.890625 
Q 22.859375 7.515625 30.078125 7.515625 
Q 37.359375 7.515625 41.375 12.890625 
Q 45.40625 18.265625 45.40625 27.984375 
z
M 54.390625 6.78125 
Q 54.390625 -7.171875 48.1875 -13.984375 
Q 42 -20.796875 29.203125 -20.796875 
Q 24.46875 -20.796875 20.265625 -20.09375 
Q 16.0625 -19.390625 12.109375 -17.921875 
L 12.109375 -9.1875 
Q 16.0625 -11.328125 19.921875 -12.34375 
Q 23.78125 -13.375 27.78125 -13.375 
Q 36.625 -13.375 41.015625 -8.765625 
Q 45.40625 -4.15625 45.40625 5.171875 
L 45.40625 9.625 
Q 42.625 4.78125 38.28125 2.390625 
Q 33.9375 0 27.875 0 
Q 17.828125 0 11.671875 7.65625 
Q 5.515625 15.328125 5.515625 27.984375 
Q 5.515625 40.671875 11.671875 48.328125 
Q 17.828125 56 27.875 56 
Q 33.9375 56 38.28125 53.609375 
Q 42.625 51.21875 45.40625 46.390625 
L 45.40625 54.6875 
L 54.390625 54.6875 
z
" id="DejaVuSans-103"/>
       <path d="M 32.171875 -5.078125 
Q 28.375 -14.84375 24.75 -17.8125 
Q 21.140625 -20.796875 15.09375 -20.796875 
L 7.90625 -20.796875 
L 7.90625 -13.28125 
L 13.1875 -13.28125 
Q 16.890625 -13.28125 18.9375 -11.515625 
Q 21 -9.765625 23.484375 -3.21875 
L 25.09375 0.875 
L 2.984375 54.6875 
L 12.5 54.6875 
L 29.59375 11.921875 
L 46.6875 54.6875 
L 56.203125 54.6875 
z
" id="DejaVuSans-121"/>
       <path d="M 16.890625 72.90625 
L 62.984375 72.90625 
L 61.375 64.59375 
L 25.09375 64.59375 
L 20.90625 43.015625 
L 55.71875 43.015625 
L 54.109375 34.71875 
L 19.28125 34.71875 
L 14.203125 8.296875 
L 51.3125 8.296875 
L 49.703125 0 
L 2.6875 0 
z
" id="DejaVuSans-Oblique-69"/>
       <path d="M 42.28125 54.6875 
L 40.921875 47.703125 
L 23 47.703125 
L 17.1875 18.015625 
Q 16.890625 16.359375 16.75 15.234375 
Q 16.609375 14.109375 16.609375 13.484375 
Q 16.609375 10.359375 18.484375 8.9375 
Q 20.359375 7.515625 24.515625 7.515625 
L 33.59375 7.515625 
L 32.078125 0 
L 23.484375 0 
Q 15.484375 0 11.546875 3.125 
Q 7.625 6.25 7.625 12.59375 
Q 7.625 13.71875 7.765625 15.0625 
Q 7.90625 16.40625 8.203125 18.015625 
L 14.015625 47.703125 
L 6.390625 47.703125 
L 7.8125 54.6875 
L 15.28125 54.6875 
L 18.3125 70.21875 
L 27.296875 70.21875 
L 24.3125 54.6875 
z
" id="DejaVuSans-Oblique-116"/>
       <path d="M 25.390625 -1.421875 
Q 15.765625 -1.421875 10.171875 4.515625 
Q 4.59375 10.453125 4.59375 20.703125 
Q 4.59375 26.65625 6.515625 32.828125 
Q 8.453125 39.015625 11.53125 43.21875 
Q 16.359375 49.75 22.3125 52.875 
Q 28.265625 56 35.796875 56 
Q 45.125 56 50.859375 50.1875 
Q 56.59375 44.390625 56.59375 35.015625 
Q 56.59375 28.515625 54.6875 22.0625 
Q 52.78125 15.625 49.703125 11.375 
Q 44.921875 4.828125 38.96875 1.703125 
Q 33.015625 -1.421875 25.390625 -1.421875 
z
M 13.921875 21 
Q 13.921875 13.578125 17.015625 9.890625 
Q 20.125 6.203125 26.421875 6.203125 
Q 35.453125 6.203125 41.375 14.078125 
Q 47.3125 21.96875 47.3125 34.078125 
Q 47.3125 41.15625 44.140625 44.765625 
Q 40.96875 48.390625 34.8125 48.390625 
Q 29.734375 48.390625 25.78125 46.015625 
Q 21.828125 43.65625 18.703125 38.8125 
Q 16.40625 35.203125 15.15625 30.5625 
Q 13.921875 25.921875 13.921875 21 
z
" id="DejaVuSans-Oblique-111"/>
       <path d="M 25.390625 72.90625 
L 33.6875 72.90625 
L 8.296875 -9.28125 
L 0 -9.28125 
z
" id="DejaVuSans-47"/>
       <path d="M 89.796875 33.015625 
L 83.40625 0 
L 74.421875 0 
L 80.71875 32.71875 
Q 81.109375 34.8125 81.296875 36.328125 
Q 81.5 37.84375 81.5 38.921875 
Q 81.5 43.3125 79.046875 45.75 
Q 76.609375 48.1875 72.21875 48.1875 
Q 65.671875 48.1875 60.546875 43.28125 
Q 55.421875 38.375 53.90625 30.515625 
L 47.90625 0 
L 38.921875 0 
L 45.3125 32.71875 
Q 45.703125 34.515625 45.890625 36.046875 
Q 46.09375 37.59375 46.09375 38.8125 
Q 46.09375 43.265625 43.65625 45.71875 
Q 41.21875 48.1875 36.921875 48.1875 
Q 30.28125 48.1875 25.140625 43.28125 
Q 20.015625 38.375 18.5 30.515625 
L 12.5 0 
L 3.515625 0 
L 14.203125 54.6875 
L 23.1875 54.6875 
L 21.484375 46.1875 
Q 25.140625 50.984375 30.046875 53.484375 
Q 34.96875 56 40.578125 56 
Q 46.53125 56 50.359375 52.875 
Q 54.203125 49.75 54.984375 44.1875 
Q 59.078125 49.953125 64.46875 52.96875 
Q 69.875 56 75.875 56 
Q 82.90625 56 86.734375 51.953125 
Q 90.578125 47.90625 90.578125 40.484375 
Q 90.578125 38.875 90.375 36.9375 
Q 90.1875 35.015625 89.796875 33.015625 
z
" id="DejaVuSans-Oblique-109"/>
       <path d="M 53.71875 31.203125 
L 47.609375 0 
L 38.625 0 
L 40.28125 8.296875 
Q 36.328125 3.421875 31.265625 1 
Q 26.21875 -1.421875 20.015625 -1.421875 
Q 13.03125 -1.421875 8.5625 2.84375 
Q 4.109375 7.125 4.109375 13.8125 
Q 4.109375 23.390625 11.75 28.953125 
Q 19.390625 34.515625 32.8125 34.515625 
L 45.3125 34.515625 
L 45.796875 36.921875 
Q 45.90625 37.3125 45.953125 37.765625 
Q 46 38.234375 46 39.203125 
Q 46 43.5625 42.453125 45.96875 
Q 38.921875 48.390625 32.515625 48.390625 
Q 28.125 48.390625 23.5 47.265625 
Q 18.890625 46.140625 14.015625 43.890625 
L 15.578125 52.203125 
Q 20.65625 54.109375 25.515625 55.046875 
Q 30.375 56 34.90625 56 
Q 44.578125 56 49.625 51.796875 
Q 54.6875 47.609375 54.6875 39.59375 
Q 54.6875 37.984375 54.4375 35.8125 
Q 54.203125 33.640625 53.71875 31.203125 
z
M 44 27.484375 
L 35.015625 27.484375 
Q 23.96875 27.484375 18.671875 24.53125 
Q 13.375 21.578125 13.375 15.375 
Q 13.375 11.078125 16.078125 8.640625 
Q 18.796875 6.203125 23.578125 6.203125 
Q 30.90625 6.203125 36.375 11.453125 
Q 41.84375 16.703125 43.609375 25.484375 
z
" id="DejaVuSans-Oblique-97"/>
       <path d="M 60.015625 54.6875 
L 34.90625 27.875 
L 50.296875 0 
L 39.984375 0 
L 28.421875 21.6875 
L 8.296875 0 
L -2.59375 0 
L 24.3125 28.8125 
L 10.015625 54.6875 
L 20.3125 54.6875 
L 30.8125 34.90625 
L 49.125 54.6875 
z
" id="DejaVuSans-Oblique-120"/>
       <path d="M 31 75.875 
Q 24.46875 64.65625 21.28125 53.65625 
Q 18.109375 42.671875 18.109375 31.390625 
Q 18.109375 20.125 21.3125 9.0625 
Q 24.515625 -2 31 -13.1875 
L 23.1875 -13.1875 
Q 15.875 -1.703125 12.234375 9.375 
Q 8.59375 20.453125 8.59375 31.390625 
Q 8.59375 42.28125 12.203125 53.3125 
Q 15.828125 64.359375 23.1875 75.875 
z
" id="DejaVuSans-40"/>
       <path d="M 21 76.421875 
L 21 -23.578125 
L 12.703125 -23.578125 
L 12.703125 76.421875 
z
" id="DejaVuSans-124"/>
       <path d="M 8.015625 75.875 
L 15.828125 75.875 
Q 23.140625 64.359375 26.78125 53.3125 
Q 30.421875 42.28125 30.421875 31.390625 
Q 30.421875 20.453125 26.78125 9.375 
Q 23.140625 -1.703125 15.828125 -13.1875 
L 8.015625 -13.1875 
Q 14.5 -2 17.703125 9.0625 
Q 20.90625 20.125 20.90625 31.390625 
Q 20.90625 42.671875 17.703125 53.65625 
Q 14.5 64.65625 8.015625 75.875 
z
" id="DejaVuSans-41"/>
      </defs>
      <use transform="translate(0 0.578125)" xlink:href="#DejaVuSans-69"/>
      <use transform="translate(63.183594 0.578125)" xlink:href="#DejaVuSans-110"/>
      <use transform="translate(126.5625 0.578125)" xlink:href="#DejaVuSans-101"/>
      <use transform="translate(188.085938 0.578125)" xlink:href="#DejaVuSans-114"/>
      <use transform="translate(229.199219 0.578125)" xlink:href="#DejaVuSans-103"/>
      <use transform="translate(292.675781 0.578125)" xlink:href="#DejaVuSans-121"/>
      <use transform="translate(351.855469 0.578125)" xlink:href="#DejaVuSans-32"/>
      <use transform="translate(383.642578 0.578125)" xlink:href="#DejaVuSans-91"/>
      <use transform="translate(422.65625 0.578125)" xlink:href="#DejaVuSans-Oblique-69"/>
      <use transform="translate(485.839844 -15.828125)scale(0.7)" xlink:href="#DejaVuSans-Oblique-116"/>
      <use transform="translate(513.286133 -15.828125)scale(0.7)" xlink:href="#DejaVuSans-Oblique-111"/>
      <use transform="translate(556.113281 -15.828125)scale(0.7)" xlink:href="#DejaVuSans-Oblique-116"/>
      <use transform="translate(586.293945 0.578125)" xlink:href="#DejaVuSans-47"/>
      <use transform="translate(619.985352 0.578125)" xlink:href="#DejaVuSans-Oblique-109"/>
      <use transform="translate(717.397461 0.578125)" xlink:href="#DejaVuSans-Oblique-97"/>
      <use transform="translate(778.676758 0.578125)" xlink:href="#DejaVuSans-Oblique-120"/>
      <use transform="translate(837.856445 0.578125)" xlink:href="#DejaVuSans-40"/>
      <use transform="translate(876.870117 0.578125)" xlink:href="#DejaVuSans-124"/>
      <use transform="translate(910.561523 0.578125)" xlink:href="#DejaVuSans-Oblique-69"/>
      <use transform="translate(973.745117 -15.828125)scale(0.7)" xlink:href="#DejaVuSans-Oblique-116"/>
      <use transform="translate(1001.191406 -15.828125)scale(0.7)" xlink:href="#DejaVuSans-Oblique-111"/>
      <use transform="translate(1044.018555 -15.828125)scale(0.7)" xlink:href="#DejaVuSans-Oblique-116"/>
      <use transform="translate(1074.199219 0.578125)" xlink:href="#DejaVuSans-124"/>
      <use transform="translate(1107.890625 0.578125)" xlink:href="#DejaVuSans-41"/>
      <use transform="translate(1146.904297 0.578125)" xlink:href="#DejaVuSans-93"/>
     </g>
    </g>
   </g>
   <g id="line2d_25">
    <path clip-path="url(#p752b84aa95)" d="M 80.754545 153.9046 
L 81.464798 153.789485 
L 82.175051 153.438588 
L 82.885304 152.834658 
L 83.631069 151.893907 
L 84.376835 150.582467 
L 85.1226 148.812403 
L 85.868366 146.450011 
L 86.614131 143.289433 
L 87.324384 139.242303 
L 87.999124 134.050905 
L 88.638352 127.366817 
L 89.27758 118.159249 
L 89.916807 105.342744 
L 90.62706 86.008489 
L 91.514876 62.438064 
L 91.763465 60.12539 
L 91.83449 60.046484 
L 91.870002 60.107335 
L 92.012053 61.009402 
L 92.260642 64.890162 
L 92.686793 76.089432 
L 93.894223 109.194416 
L 94.604476 122.009917 
L 95.314729 130.901194 
L 96.060494 137.463011 
L 96.80626 142.164591 
L 97.587538 145.754871 
L 98.404329 148.497014 
L 99.221119 150.496306 
L 100.03791 151.937239 
L 100.854701 152.936199 
L 101.635979 153.545479 
L 102.381745 153.846859 
L 103.091997 153.894871 
L 103.80225 153.712217 
L 104.512503 153.289971 
L 105.222756 152.607236 
L 105.968521 151.570594 
L 106.714287 150.1424 
L 107.460052 148.223986 
L 108.205818 145.664932 
L 108.916071 142.4203 
L 109.626324 138.069248 
L 110.301064 132.457242 
L 110.940291 125.188549 
L 111.579519 115.128398 
L 112.218746 101.161741 
L 113.035537 77.537821 
L 113.639252 62.535359 
L 113.887841 60.145116 
L 113.958866 60.042472 
L 113.994379 60.091621 
L 114.100916 60.636271 
L 114.313992 63.401651 
L 114.669119 71.777031 
L 116.267188 114.105632 
L 116.97744 125.407212 
L 117.687693 133.28816 
L 118.433459 139.158582 
L 119.214737 143.572123 
L 119.996015 146.786163 
L 120.812806 149.249227 
L 121.629597 151.042059 
L 122.446387 152.322172 
L 123.227665 153.159041 
L 123.973431 153.655445 
L 124.683684 153.879491 
L 125.393937 153.872102 
L 126.10419 153.63291 
L 126.814442 153.150281 
L 127.560208 152.354837 
L 128.305973 151.217357 
L 129.051739 149.664953 
L 129.797504 147.586822 
L 130.54327 144.813485 
L 131.253523 141.285795 
L 131.928263 136.804048 
L 132.603003 130.728002 
L 133.242231 122.811346 
L 133.845946 112.526847 
L 134.485173 97.613991 
L 135.941191 60.558703 
L 136.083242 60.0408 
L 136.118755 60.077912 
L 136.225293 60.587791 
L 136.438368 63.290314 
L 136.793495 71.599827 
L 138.427076 114.656969 
L 139.137329 125.788701 
L 139.847582 133.557576 
L 140.593348 139.350999 
L 141.374626 143.710977 
L 142.155904 146.888205 
L 142.972695 149.323686 
L 143.789485 151.095889 
L 144.606276 152.359819 
L 145.387554 153.183783 
L 146.13332 153.669321 
L 146.843573 153.883704 
L 147.553825 153.866886 
L 148.264078 153.617999 
L 148.974331 153.124971 
L 149.720097 152.317157 
L 150.465862 151.164965 
L 151.211628 149.594406 
L 151.957393 147.492704 
L 152.703158 144.68757 
L 153.413411 141.117619 
L 154.088152 136.578598 
L 154.762892 130.418732 
L 155.402119 122.385054 
L 156.005834 111.943078 
L 156.645062 96.824933 
L 158.065567 60.60618 
L 158.207618 60.041469 
L 158.243131 60.066545 
L 158.349669 60.540982 
L 158.562744 63.180648 
L 158.917871 71.423626 
L 160.551452 114.538276 
L 161.261705 125.706452 
L 161.971958 133.499467 
L 162.717724 139.309473 
L 163.499002 143.680987 
L 164.28028 146.866172 
L 165.097071 149.307603 
L 165.913861 151.084287 
L 166.730652 152.351695 
L 167.51193 153.178467 
L 168.257696 153.666345 
L 168.967949 153.882834 
L 169.678201 153.868023 
L 170.388454 153.621242 
L 171.098707 153.130488 
L 171.844473 152.325382 
L 172.590238 151.1764 
L 173.336004 149.609752 
L 174.081769 147.513199 
L 174.827535 144.714987 
L 175.537787 141.154263 
L 176.212528 136.627747 
L 176.887268 130.48627 
L 177.526495 122.478002 
L 178.13021 112.070464 
L 178.769438 96.996787 
L 180.189944 60.655998 
L 180.331994 60.043809 
L 180.367507 60.057183 
L 180.474045 60.49618 
L 180.651608 62.497578 
L 180.971222 69.331955 
L 182.95993 119.402014 
L 183.670182 129.081346 
L 184.380435 135.895528 
L 185.126201 141.029719 
L 185.907479 144.927497 
L 186.72427 147.894421 
L 187.54106 150.05761 
L 188.357851 151.624257 
L 189.174642 152.724792 
L 189.95592 153.417257 
L 190.701686 153.790755 
L 191.411938 153.9046 
L 192.122191 153.788214 
L 192.832444 153.436014 
L 193.542697 152.830613 
L 194.288462 151.888123 
L 195.034228 150.574576 
L 195.779993 148.801804 
L 196.525759 146.435901 
L 197.271524 143.270443 
L 197.981777 139.216759 
L 198.656517 134.016266 
L 199.295745 127.319674 
L 199.934973 118.093717 
L 200.5742 105.251802 
L 201.284453 85.891468 
L 202.136756 62.942593 
L 202.420858 60.114022 
L 202.491883 60.049827 
L 202.527395 60.118034 
L 202.669446 61.04852 
L 202.918035 64.970405 
L 203.344186 76.205116 
L 204.551616 109.278003 
L 205.261869 122.067759 
L 205.972122 130.941649 
L 206.717887 137.491564 
L 207.463653 142.185354 
L 208.244931 145.770017 
L 209.061722 148.508047 
L 209.878512 150.504363 
L 210.695303 151.942956 
L 211.512094 152.940011 
L 212.293372 153.547719 
L 213.039138 153.847761 
L 213.74939 153.894503 
L 214.459643 153.710546 
L 215.169896 153.286995 
L 215.880149 152.602755 
L 216.625914 151.564242 
L 217.37168 150.133807 
L 218.117445 148.212518 
L 218.863211 145.649619 
L 219.573464 142.399938 
L 220.283717 138.041665 
L 220.958457 132.419795 
L 221.597684 125.13706 
L 222.236912 115.056847 
L 222.876139 101.063443 
L 223.69293 77.4208 
L 224.296645 62.475511 
L 224.545234 60.132745 
L 224.616259 60.044812 
L 224.651772 60.100982 
L 224.793822 60.985329 
L 225.042411 64.839341 
L 225.468562 76.015876 
L 226.675992 109.141589 
L 227.386245 121.973473 
L 228.096498 130.875783 
L 228.842263 137.444856 
L 229.588029 142.151418 
L 230.369307 145.745242 
L 231.186098 148.489993 
L 232.002888 150.491224 
L 232.819679 151.933628 
L 233.63647 152.933758 
L 234.417748 153.544041 
L 235.163514 153.84629 
L 235.873766 153.895105 
L 236.584019 153.71322 
L 237.294272 153.291877 
L 238.004525 152.610078 
L 238.75029 151.574606 
L 239.496056 150.14785 
L 240.241821 148.231275 
L 240.987587 145.674628 
L 241.69784 142.433205 
L 242.408093 138.086701 
L 243.082833 132.480981 
L 243.72206 125.220981 
L 244.361288 115.173869 
L 245.000516 101.22393 
L 245.817306 77.612046 
L 246.421021 62.573809 
L 246.66961 60.153475 
L 246.740635 60.041803 
L 246.776148 60.086271 
L 246.882686 60.617213 
L 247.095761 63.358186 
L 247.450888 71.708155 
L 249.048957 114.058823 
L 249.75921 125.37478 
L 250.469462 133.265324 
L 251.215228 139.142266 
L 251.996506 143.560354 
L 252.777784 146.777537 
L 253.594575 149.242941 
L 254.411366 151.037479 
L 255.228156 152.318995 
L 256.009435 153.156935 
L 256.7552 153.654242 
L 257.465453 153.879123 
L 258.175706 153.872503 
L 258.885959 153.634147 
L 259.596211 153.152421 
L 260.341977 152.358014 
L 261.087742 151.221737 
L 261.833508 149.670838 
L 262.579273 147.594679 
L 263.325039 144.823984 
L 264.035292 141.299838 
L 264.710032 136.822905 
L 265.384772 130.754081 
L 266.024 122.847121 
L 266.627715 112.575328 
L 267.266942 97.680191 
L 268.72296 60.577092 
L 268.865011 60.0408 
L 268.900524 60.073232 
L 269.007062 60.569402 
L 269.220137 63.247517 
L 269.575264 71.531286 
L 271.208845 114.610829 
L 271.919098 125.756604 
L 272.629351 133.535042 
L 273.375117 139.334883 
L 274.156395 143.699342 
L 274.937673 146.879646 
L 275.754464 149.317467 
L 276.571254 151.091375 
L 277.388045 152.356676 
L 278.169323 153.18171 
L 278.915089 153.66815 
L 279.625342 153.883369 
L 280.335594 153.867321 
L 281.045847 153.619269 
L 281.7561 153.127111 
L 282.501866 152.320333 
L 283.247631 151.169412 
L 283.993397 149.600357 
L 284.739162 147.500661 
L 285.484928 144.698236 
L 286.19518 141.131862 
L 286.869921 136.597689 
L 287.544661 130.445145 
L 288.183888 122.421163 
L 288.787603 111.992562 
L 289.426831 96.891802 
L 290.847337 60.625238 
L 290.989387 60.042137 
L 291.0249 60.062533 
L 291.131438 60.523262 
L 291.309001 62.557426 
L 291.628615 69.433596 
L 293.58181 118.882774 
L 294.292063 128.719917 
L 295.002316 135.637847 
L 295.748081 140.843856 
L 296.529359 144.792388 
L 297.34615 147.796123 
L 298.162941 149.985959 
L 298.979732 151.572901 
L 299.796522 152.689719 
L 300.577801 153.395391 
L 301.323566 153.780257 
L 302.033819 153.904433 
L 302.744072 153.798345 
L 303.454325 153.45691 
L 304.164577 152.863345 
L 304.910343 151.935166 
L 305.656108 150.638871 
L 306.401874 148.887932 
L 307.147639 146.550716 
L 307.893405 143.424743 
L 308.603658 139.424455 
L 309.278398 134.297452 
L 309.917625 127.702835 
L 310.556853 118.625662 
L 311.160568 106.804173 
L 311.835308 88.972137 
L 312.829662 62.321377 
L 313.078251 60.103657 
L 313.149276 60.054174 
L 313.184788 60.129736 
L 313.326839 61.088308 
L 313.575428 65.051317 
L 314.037092 77.389371 
L 315.173496 108.591924 
L 315.883749 121.592653 
L 316.594002 130.609643 
L 317.304255 136.989342 
L 318.05002 141.82085 
L 318.831299 145.503844 
L 319.648089 148.314059 
L 320.46488 150.363236 
L 321.281671 151.842585 
L 322.098462 152.872707 
L 322.87974 153.507664 
L 323.625505 153.831412 
L 324.335758 153.899919 
L 325.046011 153.737995 
L 325.756264 153.337783 
L 326.466517 152.679454 
L 327.212282 151.672637 
L 327.958048 150.280953 
L 328.703813 148.409114 
L 329.449579 145.91198 
L 330.159831 142.748594 
L 330.870084 138.513026 
L 331.544824 133.061239 
L 332.184052 126.015723 
L 332.82328 116.280221 
L 333.462507 102.745541 
L 334.243785 80.546271 
L 334.918525 62.983384 
L 335.202627 60.121043 
L 335.273652 60.047487 
L 335.309165 60.111347 
L 335.451215 61.023779 
L 335.699804 64.919584 
L 336.125955 76.13156 
L 337.333385 109.224841 
L 338.043638 122.030981 
L 338.753891 130.916239 
L 339.499656 137.473443 
L 340.245422 142.172181 
L 341.0267 145.760421 
L 341.843491 148.501059 
L 342.660281 150.499248 
L 343.477072 151.939345 
L 344.293863 152.93757 
L 345.075141 153.546281 
L 345.820907 153.847193 
L 346.531159 153.894737 
L 347.241412 153.711616 
L 347.951665 153.288901 
L 348.661918 152.605597 
L 349.407683 151.568254 
L 350.153449 150.139257 
L 350.899214 148.219807 
L 351.64498 145.659315 
L 352.355233 142.412844 
L 353.065486 138.059151 
L 353.740226 132.443534 
L 354.379453 125.169492 
L 354.983168 115.753625 
L 355.622396 102.020677 
L 356.403674 79.654234 
L 357.042902 63.09004 
L 357.327003 60.14077 
L 357.398028 60.04314 
L 357.433541 60.094964 
L 357.540079 60.647639 
L 357.753154 63.426727 
L 358.108281 71.816484 
L 359.70635 114.132714 
L 360.416603 125.425601 
L 361.126855 133.301333 
L 361.872621 139.167978 
L 362.653899 143.578877 
L 363.435177 146.791145 
L 364.251968 149.252871 
L 365.068759 151.044667 
L 365.885549 152.324011 
L 366.666828 153.160245 
L 367.412593 153.656114 
L 368.122846 153.879692 
L 368.833099 153.871834 
L 369.543352 153.632175 
L 370.253604 153.149078 
L 370.99937 152.353032 
L 371.745135 151.214816 
L 372.490901 149.661543 
L 373.236666 147.582275 
L 373.982432 144.8074 
L 374.692685 141.277671 
L 375.367425 136.793181 
L 376.042165 130.713291 
L 376.681393 122.790951 
L 377.285108 112.498428 
L 377.924335 97.576209 
L 379.380353 60.548338 
L 379.522404 60.041134 
L 379.557917 60.080922 
L 379.664455 60.59849 
L 379.87753 63.315055 
L 380.232657 71.63928 
L 381.866238 114.683717 
L 382.576491 125.80709 
L 383.286744 133.570549 
L 384.03251 139.36026 
L 384.813788 143.717664 
L 385.595066 146.89312 
L 386.411857 149.327296 
L 387.228647 151.098497 
L 388.045438 152.361625 
L 388.826716 153.184986 
L 389.572482 153.669956 
L 390.282735 153.883904 
L 390.992987 153.866619 
L 391.70324 153.617263 
L 392.413493 153.123701 
L 393.159259 152.315318 
L 393.905024 151.162424 
L 394.65079 149.590962 
L 395.396555 147.488123 
L 396.142321 144.681418 
L 396.852573 141.109394 
L 397.527314 136.567598 
L 398.202054 130.403686 
L 398.841281 122.364324 
L 399.444996 111.914325 
L 400.084224 96.786483 
L 401.50473 60.595481 
L 401.64678 60.041134 
L 401.682293 60.068885 
L 401.788831 60.551347 
L 402.001907 63.205055 
L 402.357033 71.463079 
L 403.990615 114.564689 
L 404.700867 125.724841 
L 405.41112 133.512507 
L 406.156886 139.318768 
L 406.938164 143.687707 
L 407.719442 146.87112 
L 408.536233 149.311214 
L 409.353023 151.086862 
L 410.169814 152.3535 
L 410.951092 153.179637 
L 411.696858 153.667014 
L 412.407111 153.883035 
L 413.117364 153.867789 
L 413.827616 153.62054 
L 414.537869 153.129251 
L 415.283635 152.323543 
L 416.0294 151.173825 
L 416.775166 149.606342 
L 417.520931 147.508619 
L 418.266697 144.708868 
L 418.97695 141.146072 
L 419.65169 136.616747 
L 420.32643 130.471224 
L 420.965657 122.457273 
L 421.569372 112.041711 
L 422.2086 96.958337 
L 423.629106 60.64463 
L 423.771156 60.04314 
L 423.806669 60.059189 
L 423.913207 60.50621 
L 424.09077 62.519311 
L 424.410384 69.369067 
L 426.399092 119.425084 
L 427.109345 129.097394 
L 427.819597 135.906996 
L 428.565363 141.037978 
L 429.346641 144.933515 
L 430.163432 147.898768 
L 430.980223 150.060786 
L 431.797013 151.62653 
L 432.613804 152.72633 
L 433.395082 153.418193 
L 434.140848 153.79119 
L 434.851101 153.9046 
L 435.561353 153.787746 
L 435.845455 153.675673 
L 435.845455 153.675673 
" style="fill:none;stroke:#1f77b4;stroke-linecap:square;stroke-width:1.5;"/>
   </g>
   <g id="line2d_26">
    <path clip-path="url(#p752b84aa95)" d="M 80.754545 206.040888 
L 81.35826 206.151891 
L 81.961975 206.487909 
L 82.601203 207.102772 
L 83.275943 208.068365 
L 83.986196 209.486997 
L 84.731961 211.509125 
L 85.477727 214.218 
L 86.223492 217.83262 
L 86.933745 222.425872 
L 87.608485 228.252529 
L 88.283226 236.136085 
L 88.922453 246.387483 
L 89.526168 259.690461 
L 90.165396 279.028728 
L 91.727952 330.894563 
L 91.83449 331.18511 
L 91.870002 331.103864 
L 92.012053 329.900551 
L 92.260642 324.72587 
L 92.686793 309.793287 
L 93.894223 265.653531 
L 94.604476 248.566419 
L 95.314729 236.711495 
L 96.024982 228.315052 
L 96.770747 221.949763 
L 97.552025 217.094049 
L 98.368816 213.387149 
L 99.185607 210.684292 
L 100.002398 208.734383 
L 100.783676 207.427423 
L 101.493928 206.636693 
L 102.168669 206.197362 
L 102.772384 206.0449 
L 103.376099 206.11411 
L 103.979813 206.407666 
L 104.619041 206.974049 
L 105.293781 207.882468 
L 106.004034 209.231222 
L 106.714287 211.057423 
L 107.460052 213.615173 
L 108.205818 217.027514 
L 108.916071 221.353623 
L 109.626324 227.155204 
L 110.301064 234.637878 
L 110.940291 244.329914 
L 111.544006 256.875264 
L 112.183234 275.173379 
L 112.964512 304.985384 
L 113.603739 327.095718 
L 113.887841 331.053712 
L 113.958866 331.190125 
L 113.994379 331.124928 
L 114.100916 330.398393 
L 114.313992 326.710885 
L 114.669119 315.543378 
L 116.267188 259.105355 
L 116.97744 244.037027 
L 117.687693 233.529185 
L 118.433459 225.702134 
L 119.214737 219.817301 
L 119.996015 215.531982 
L 120.812806 212.248031 
L 121.629597 209.857788 
L 122.410875 208.212803 
L 123.15664 207.117818 
L 123.866893 206.445447 
L 124.506121 206.119794 
L 125.145348 206.045903 
L 125.749063 206.204718 
L 126.352778 206.590219 
L 127.027518 207.307392 
L 127.737771 208.42411 
L 128.448024 209.972134 
L 129.193789 212.162104 
L 129.939555 215.088973 
L 130.649808 218.785173 
L 131.360061 223.698395 
L 132.034801 229.959033 
L 132.674028 237.95727 
L 133.313256 248.898091 
L 133.916971 263.127209 
L 134.556198 283.677482 
L 135.905679 330.111858 
L 136.083242 331.192466 
L 136.154267 331.004229 
L 136.296318 329.579912 
L 136.544906 324.082922 
L 137.006571 307.450187 
L 138.107463 267.054443 
L 138.817715 249.536358 
L 139.527968 237.389884 
L 140.238221 228.80186 
L 140.983987 222.302833 
L 141.765265 217.351496 
L 142.582055 213.574718 
L 143.398846 210.820705 
L 144.215637 208.831678 
L 144.996915 207.493958 
L 145.742681 206.647727 
L 146.417421 206.202712 
L 147.056648 206.043563 
L 147.660363 206.121131 
L 148.264078 206.423046 
L 148.903306 206.999459 
L 149.578046 207.919581 
L 150.288299 209.282043 
L 151.034064 211.231952 
L 151.77983 213.848213 
L 152.525595 217.338456 
L 153.235848 221.767544 
L 153.910588 227.372863 
L 154.585329 234.934778 
L 155.224556 244.736814 
L 155.828271 257.432285 
L 156.467499 275.938698 
L 157.284289 307.353895 
L 157.888004 327.600581 
L 158.172105 331.136295 
L 158.207618 331.192131 
L 158.243131 331.158362 
L 158.349669 330.525444 
L 158.527232 327.785141 
L 158.846846 318.581584 
L 160.800041 252.681556 
L 161.510294 239.582194 
L 162.220547 230.369276 
L 162.966312 223.435599 
L 163.74759 218.176328 
L 164.528868 214.323988 
L 165.345659 211.366693 
L 166.16245 209.222195 
L 166.943728 207.764778 
L 167.689493 206.820584 
L 168.364234 206.295326 
L 169.003461 206.063623 
L 169.607176 206.073988 
L 170.210891 206.307028 
L 170.850119 206.805538 
L 171.524859 207.634718 
L 172.235112 208.886845 
L 172.945365 210.596025 
L 173.69113 212.998973 
L 174.436896 216.204687 
L 175.147148 220.261647 
L 175.857401 225.68107 
L 176.532141 232.634808 
L 177.171369 241.591282 
L 177.810597 253.933014 
L 178.449824 271.111069 
L 179.160077 296.982466 
L 180.01238 327.463834 
L 180.296481 331.117238 
L 180.331994 331.188788 
L 180.367507 331.170733 
L 180.474045 330.585292 
L 180.651608 327.916539 
L 180.971222 318.803256 
L 182.95993 252.043622 
L 183.670182 239.138182 
L 184.380435 230.05265 
L 185.126201 223.20724 
L 185.907479 218.010158 
L 186.688757 214.201617 
L 187.505548 211.277423 
L 188.322339 209.158335 
L 189.103617 207.719976 
L 189.849382 206.791496 
L 190.524122 206.279277 
L 191.16335 206.059277 
L 191.767065 206.080006 
L 192.37078 206.324079 
L 193.010007 206.834626 
L 193.684748 207.678183 
L 194.395 208.947362 
L 195.140766 210.777909 
L 195.886531 213.242043 
L 196.632297 216.529003 
L 197.34255 220.691617 
L 198.052803 226.260827 
L 198.727543 233.421526 
L 199.36677 242.664869 
L 200.005998 255.425537 
L 200.645225 273.175324 
L 201.390991 301.055141 
L 202.136756 327.324745 
L 202.420858 331.095171 
L 202.491883 331.180429 
L 202.527395 331.089487 
L 202.669446 329.848727 
L 202.918035 324.618879 
L 203.344186 309.638819 
L 204.551616 265.542194 
L 205.261869 248.489519 
L 205.972122 236.657665 
L 206.682375 228.276267 
L 207.42814 221.921678 
L 208.209418 217.073319 
L 209.026209 213.372104 
L 209.843 210.673259 
L 210.659791 208.726693 
L 211.441069 207.422073 
L 212.186834 206.602924 
L 212.861574 206.18031 
L 213.500802 206.041557 
L 214.104517 206.138183 
L 214.708232 206.459824 
L 215.382972 207.100098 
L 216.057712 208.064353 
L 216.767965 209.481313 
L 217.51373 211.501435 
L 218.259496 214.20797 
L 219.005261 217.818912 
L 219.715514 222.407818 
L 220.390254 228.228121 
L 221.064995 236.10265 
L 221.704222 246.341343 
L 222.307937 259.627604 
L 222.947165 278.942801 
L 224.509721 330.87818 
L 224.616259 331.18745 
L 224.651772 331.112222 
L 224.793822 329.932982 
L 225.042411 324.793742 
L 225.468562 309.89125 
L 226.675992 265.724078 
L 227.386245 248.615233 
L 228.096498 236.745598 
L 228.806751 228.339459 
L 229.552516 221.967483 
L 230.333794 217.106754 
L 231.150585 213.396511 
L 231.967376 210.691313 
L 232.748654 208.810949 
L 233.529932 207.479915 
L 234.240185 206.670128 
L 234.914925 206.214414 
L 235.554153 206.0449 
L 236.157868 206.113441 
L 236.761583 206.405994 
L 237.40081 206.971374 
L 238.07555 207.878791 
L 238.785803 209.225538 
L 239.531569 211.155721 
L 240.277334 213.746572 
L 241.0231 217.202711 
L 241.733352 221.586997 
L 242.443605 227.470827 
L 243.118345 235.068516 
L 243.757573 244.920036 
L 244.361288 257.68271 
L 245.000516 276.283075 
L 245.817306 307.76581 
L 246.421021 327.816235 
L 246.66961 331.042344 
L 246.740635 331.191463 
L 246.776148 331.132283 
L 246.882686 330.423803 
L 247.095761 326.768727 
L 247.450888 315.634989 
L 249.048957 259.167543 
L 249.75921 244.080158 
L 250.469462 233.559611 
L 251.215228 225.723866 
L 251.996506 219.833015 
L 252.777784 215.543684 
L 253.594575 212.256389 
L 254.411366 209.863806 
L 255.192644 208.217149 
L 255.938409 207.120827 
L 256.648662 206.447119 
L 257.28789 206.120797 
L 257.891605 206.043563 
L 258.49532 206.188 
L 259.099034 206.559125 
L 259.738262 207.213775 
L 260.413002 208.226511 
L 261.123255 209.703319 
L 261.869021 211.800675 
L 262.614786 214.60718 
L 263.360552 218.352863 
L 264.070804 223.120644 
L 264.745545 229.183015 
L 265.420285 237.410948 
L 266.059512 248.143805 
L 266.663227 262.094747 
L 267.302455 282.288941 
L 268.72296 330.478302 
L 268.865011 331.1928 
L 268.900524 331.149335 
L 269.007062 330.487663 
L 269.220137 326.916508 
L 269.575264 315.870703 
L 271.208845 258.431647 
L 271.919098 243.570948 
L 272.629351 233.199854 
L 273.375117 225.467088 
L 274.156395 219.647787 
L 274.937673 215.407271 
L 275.754464 212.157088 
L 276.571254 209.791921 
L 277.352533 208.165994 
L 278.098298 207.086055 
L 278.808551 206.426389 
L 279.483291 206.101739 
L 280.087006 206.048244 
L 280.690721 206.216754 
L 281.329948 206.64338 
L 281.969176 207.342499 
L 282.643916 208.407727 
L 283.389682 210.039672 
L 284.135447 212.253046 
L 284.881213 215.210341 
L 285.591466 218.945325 
L 286.301718 223.913046 
L 286.976459 230.247574 
L 287.615686 238.348121 
L 288.254914 249.437726 
L 288.858629 263.86578 
L 289.497856 284.667148 
L 290.811824 330.002526 
L 290.989387 331.191128 
L 291.060412 331.047025 
L 291.202463 329.706964 
L 291.451051 324.333013 
L 291.912716 307.804594 
L 293.04912 266.272741 
L 293.759373 248.995051 
L 294.469626 237.011404 
L 295.179879 228.530371 
L 295.925644 222.105903 
L 296.706923 217.208061 
L 297.523713 213.470067 
L 298.340504 210.744809 
L 299.121782 208.849733 
L 299.90306 207.506329 
L 300.648826 206.655417 
L 301.323566 206.206724 
L 301.962794 206.043897 
L 302.566508 206.118456 
L 303.170223 206.417028 
L 303.809451 206.989429 
L 304.484191 207.905204 
L 305.194444 209.262316 
L 305.940209 211.205204 
L 306.685975 213.812772 
L 307.43174 217.291313 
L 308.141993 221.704687 
L 308.816733 227.288942 
L 309.491474 234.820431 
L 310.130701 244.580006 
L 310.734416 257.2173 
L 311.373644 275.643804 
L 312.190434 306.998819 
L 312.794149 327.410004 
L 313.078251 331.108879 
L 313.149276 331.17508 
L 313.255814 330.607359 
L 313.433377 327.966691 
L 313.752991 318.889183 
L 315.741699 252.097118 
L 316.451952 239.175294 
L 317.162204 230.079064 
L 317.90797 223.226298 
L 318.689248 218.024201 
L 319.470526 214.211982 
L 320.287317 211.285113 
L 321.068595 209.241921 
L 321.849873 207.778487 
L 322.595639 206.829277 
L 323.270379 206.300341 
L 323.909606 206.065295 
L 324.513321 206.072316 
L 325.117036 206.302013 
L 325.756264 206.796845 
L 326.431004 207.622012 
L 327.141257 208.868456 
L 327.887022 210.670584 
L 328.632788 213.098608 
L 329.378553 216.337757 
L 330.088806 220.437848 
L 330.799059 225.918456 
L 331.473799 232.956784 
L 332.113027 242.030614 
L 332.752254 254.543531 
L 333.391482 271.955962 
L 334.101735 298.064746 
L 334.918525 327.269913 
L 335.202627 331.085809 
L 335.273652 331.183438 
L 335.309165 331.098514 
L 335.451215 329.881827 
L 335.699804 324.686752 
L 336.125955 309.736782 
L 337.333385 265.612741 
L 338.043638 248.538334 
L 338.753891 236.691769 
L 339.464144 228.300675 
L 340.209909 221.939398 
L 340.991187 217.086359 
L 341.807978 213.3818 
L 342.624769 210.68028 
L 343.44156 208.731709 
L 344.222838 207.425417 
L 344.933091 206.635356 
L 345.607831 206.196693 
L 346.211546 206.0449 
L 346.815261 206.114444 
L 347.418976 206.408335 
L 348.058203 206.975386 
L 348.732943 207.884809 
L 349.443196 209.234231 
L 350.188962 211.167423 
L 350.934727 213.761952 
L 351.680493 217.223441 
L 352.390745 221.614413 
L 353.065486 227.168577 
L 353.740226 234.656267 
L 354.379453 244.35499 
L 354.983168 256.909701 
L 355.622396 275.220856 
L 356.403674 305.042892 
L 357.042902 327.127815 
L 357.327003 331.05973 
L 357.398028 331.189457 
L 357.433541 331.120247 
L 357.540079 330.383347 
L 357.753154 326.677116 
L 358.108281 315.490217 
L 359.70635 259.069245 
L 360.416603 244.012285 
L 361.126855 233.511465 
L 361.872621 225.689429 
L 362.653899 219.808274 
L 363.435177 215.525295 
L 364.251968 212.243015 
L 365.068759 209.85411 
L 365.850037 208.210462 
L 366.595802 207.116146 
L 367.306055 206.44411 
L 367.980795 206.10876 
L 368.620023 206.049247 
L 369.223738 206.221435 
L 369.862965 206.652408 
L 370.537706 207.403684 
L 371.247958 208.560857 
L 371.958211 210.157362 
L 372.703977 212.410857 
L 373.449742 215.420979 
L 374.159995 219.223502 
L 374.870248 224.285842 
L 375.544988 230.749763 
L 376.184216 239.028182 
L 376.823443 250.378577 
L 377.427158 265.153014 
L 378.101898 287.731099 
L 379.273816 329.10514 
L 379.486891 331.156022 
L 379.522404 331.192131 
L 379.557917 331.139305 
L 379.664455 330.448879 
L 379.87753 326.826235 
L 380.232657 315.7266 
L 381.866238 258.334686 
L 382.576491 243.503744 
L 383.286744 233.152711 
L 384.03251 225.432985 
L 384.813788 219.62338 
L 385.595066 215.38955 
L 386.411857 212.144049 
L 387.228647 209.782225 
L 388.009926 208.159307 
L 388.755691 207.081709 
L 389.465944 206.423715 
L 390.105171 206.110766 
L 390.708886 206.045569 
L 391.312601 206.202377 
L 391.916316 206.586207 
L 392.555544 207.255569 
L 393.230284 208.285356 
L 393.940537 209.783563 
L 394.686302 211.908669 
L 395.432068 214.751283 
L 396.177833 218.545781 
L 396.888086 223.378426 
L 397.562826 229.528729 
L 398.237566 237.886054 
L 398.876794 248.799458 
L 399.480509 262.992467 
L 400.119737 283.496935 
L 401.469217 330.051341 
L 401.64678 331.192466 
L 401.717805 331.02897 
L 401.859856 329.651797 
L 402.108444 324.223347 
L 402.570109 307.648454 
L 403.671001 267.199215 
L 404.381254 249.636662 
L 405.091506 237.459763 
L 405.801759 228.852012 
L 406.547525 222.339277 
L 407.328803 217.377909 
L 408.145594 213.59411 
L 408.962384 210.835082 
L 409.743663 208.91493 
L 410.524941 207.551465 
L 411.270706 206.683836 
L 411.945446 206.221435 
L 412.584674 206.046237 
L 413.188389 206.109095 
L 413.792104 206.39563 
L 414.431331 206.954657 
L 415.106072 207.854718 
L 415.816324 209.192438 
L 416.56209 211.110584 
L 417.307855 213.686389 
L 418.053621 217.122468 
L 418.763874 221.480006 
L 419.474127 227.326055 
L 420.148867 234.870583 
L 420.788094 244.648881 
L 421.391809 257.31192 
L 422.031037 275.773531 
L 422.847828 307.155293 
L 423.451542 327.494593 
L 423.735644 331.121584 
L 423.771156 331.189791 
L 423.806669 331.168393 
L 423.913207 330.571919 
L 424.09077 327.887116 
L 424.410384 318.753773 
L 426.399092 252.012863 
L 427.109345 239.116784 
L 427.819597 230.03727 
L 428.565363 223.196207 
L 429.346641 218.002134 
L 430.163432 214.048487 
L 430.980223 211.166085 
L 431.761501 209.155326 
L 432.542779 207.71797 
L 433.288544 206.790158 
L 433.963285 206.278608 
L 434.602512 206.058943 
L 435.206227 206.080341 
L 435.809942 206.324748 
L 435.845455 206.346146 
L 435.845455 206.346146 
" style="fill:none;stroke:#ff7f0e;stroke-linecap:square;stroke-width:1.5;"/>
   </g>
   <g id="line2d_27">
    <path clip-path="url(#p752b84aa95)" d="M 80.754545 193.502928 
L 81.961975 193.614733 
L 83.133892 193.951988 
L 84.199272 194.493764 
L 85.158113 195.233271 
L 86.010416 196.16573 
L 86.791695 197.342529 
L 87.53746 198.881794 
L 88.2122 200.788973 
L 88.851428 203.263137 
L 89.490655 206.690189 
L 90.129883 211.44259 
L 91.053212 220.42414 
L 91.550389 224.163471 
L 91.798977 224.787362 
L 91.905515 224.726176 
L 92.083078 224.190888 
L 92.367179 222.375386 
L 92.970894 216.556754 
L 93.85871 208.662833 
L 94.568963 204.311982 
L 95.279216 201.294839 
L 96.024982 199.071335 
L 96.80626 197.416019 
L 97.658563 196.127782 
L 98.581892 195.141961 
L 99.576246 194.41001 
L 100.641625 193.899998 
L 101.813542 193.590894 
L 103.020972 193.504432 
L 104.228402 193.641682 
L 105.364806 193.992511 
L 106.394673 194.535323 
L 107.353514 195.293754 
L 108.205818 196.249885 
L 108.987096 197.457745 
L 109.732861 199.040575 
L 110.407602 201.00563 
L 111.046829 203.560371 
L 111.686057 207.104778 
L 112.325284 212.007635 
L 113.852328 224.706115 
L 113.994379 224.773988 
L 114.136429 224.488456 
L 114.385018 223.216936 
L 114.811169 219.503015 
L 116.054112 208.197423 
L 116.764365 203.989672 
L 117.474617 201.06949 
L 118.220383 198.911885 
L 119.001661 197.301906 
L 119.853964 196.046903 
L 120.741781 195.116384 
L 121.736135 194.392624 
L 122.801514 193.889232 
L 124.008944 193.58053 
L 125.180861 193.505101 
L 126.388291 193.647867 
L 127.524695 194.004782 
L 128.554562 194.554581 
L 129.477891 195.287636 
L 130.330194 196.241426 
L 131.111472 197.446143 
L 131.857238 199.024827 
L 132.531978 200.983897 
L 133.171205 203.530949 
L 133.810433 207.063654 
L 134.44966 211.9518 
L 135.976704 224.694748 
L 136.118755 224.778334 
L 136.260805 224.508182 
L 136.473881 223.491769 
L 136.86452 220.262316 
L 138.285026 207.505994 
L 138.995279 203.511557 
L 139.705531 200.733806 
L 140.451297 198.67373 
L 141.268088 197.072311 
L 142.120391 195.883074 
L 143.04372 194.970508 
L 144.038074 194.294894 
L 145.103453 193.829952 
L 146.27537 193.560703 
L 147.518313 193.513627 
L 148.69023 193.686952 
L 149.862147 194.095925 
L 150.856501 194.671001 
L 151.815342 195.491019 
L 152.667646 196.524517 
L 153.448924 197.834687 
L 154.159177 199.465931 
L 154.833917 201.589399 
L 155.473145 204.365478 
L 156.07686 207.977088 
L 156.716087 213.183532 
L 158.030055 224.501495 
L 158.243131 224.782346 
L 158.385181 224.527909 
L 158.598257 223.531222 
L 158.988896 220.323502 
L 160.409402 207.548456 
L 161.119655 203.540979 
L 161.829908 200.754535 
L 162.575673 198.688742 
L 163.356951 197.141754 
L 164.209255 195.932691 
L 165.132583 195.00518 
L 166.16245 194.298137 
L 167.298854 193.808754 
L 168.470772 193.552545 
L 169.713714 193.517438 
L 170.885631 193.702967 
L 172.057548 194.126384 
L 173.051902 194.717308 
L 174.010744 195.558055 
L 174.863047 196.617967 
L 175.644325 197.963578 
L 176.354578 199.641763 
L 177.029318 201.831131 
L 177.668546 204.700158 
L 178.307774 208.692924 
L 178.982514 214.475781 
L 180.083406 224.209277 
L 180.331994 224.790036 
L 180.438532 224.709793 
L 180.616095 224.144413 
L 180.900196 222.292802 
L 181.539424 216.094687 
L 182.391727 208.588274 
L 183.10198 204.260493 
L 183.812233 201.25873 
L 184.557999 199.045657 
L 185.339277 197.398031 
L 186.19158 196.115077 
L 187.079396 195.164764 
L 188.038237 194.447055 
L 189.068104 193.936308 
L 190.204509 193.613897 
L 191.411938 193.502928 
L 192.654881 193.622323 
L 193.791285 193.953426 
L 194.821152 194.473937 
L 195.779993 195.204083 
L 196.632297 196.125107 
L 197.449088 197.349183 
L 198.194853 198.891156 
L 198.869593 200.802013 
L 199.508821 203.280189 
L 200.148048 206.714596 
L 200.787276 211.47569 
L 201.746117 220.798274 
L 202.207782 224.181191 
L 202.45637 224.788365 
L 202.562908 224.719824 
L 202.740471 224.173501 
L 203.024572 222.344292 
L 203.6638 216.158213 
L 204.516103 208.634414 
L 205.226356 204.292256 
L 205.936609 201.281131 
L 206.682375 199.061539 
L 207.463653 197.409031 
L 208.315956 196.123134 
L 209.239285 195.138584 
L 210.233639 194.407602 
L 211.334531 193.885587 
L 212.470935 193.590125 
L 213.678365 193.504533 
L 214.885795 193.642584 
L 215.986687 193.979405 
L 217.052066 194.537797 
L 218.010907 195.297466 
L 218.863211 196.254967 
L 219.644489 197.464499 
L 220.390254 199.050137 
L 221.064995 201.018669 
L 221.704222 203.57876 
L 222.34345 207.130189 
L 222.982677 212.042073 
L 224.509721 224.712468 
L 224.651772 224.770644 
L 224.793822 224.475751 
L 225.042411 223.190523 
L 225.468562 219.464565 
L 226.675992 208.423107 
L 227.386245 204.146146 
L 228.096498 201.178821 
L 228.842263 198.989353 
L 229.623541 197.357341 
L 230.475845 196.086089 
L 231.399174 195.112873 
L 232.393528 194.39045 
L 233.423394 193.900967 
L 234.595311 193.591329 
L 235.767229 193.503764 
L 236.939146 193.626669 
L 238.07555 193.962587 
L 239.105417 194.488347 
L 240.064258 195.225147 
L 240.952074 196.200268 
L 241.733352 197.389806 
L 242.479118 198.946791 
L 243.153858 200.877575 
L 243.793086 203.384839 
L 244.432313 206.859702 
L 245.071541 211.673958 
L 246.66961 224.753258 
L 246.81166 224.738547 
L 246.989223 224.229337 
L 247.273325 222.445599 
L 247.87704 216.646024 
L 248.764856 208.727028 
L 249.475108 204.35645 
L 250.185361 201.326268 
L 250.931127 199.093268 
L 251.712405 197.4317 
L 252.564708 196.139049 
L 253.452524 195.181648 
L 254.446878 194.436624 
L 255.54777 193.903308 
L 256.684175 193.598216 
L 257.891605 193.503697 
L 259.099034 193.632587 
L 260.235439 193.974122 
L 261.300818 194.529706 
L 262.224147 195.252061 
L 263.07645 196.191776 
L 263.857729 197.378338 
L 264.603494 198.931277 
L 265.278234 200.856511 
L 265.917462 203.355751 
L 266.556689 206.819247 
L 267.195917 211.619125 
L 268.793986 224.745903 
L 268.936036 224.746906 
L 269.078087 224.396511 
L 269.326675 223.030036 
L 269.78834 218.879125 
L 270.889232 208.773502 
L 271.599484 204.388882 
L 272.309737 201.348335 
L 273.055503 199.109083 
L 273.836781 197.443067 
L 274.689084 196.147241 
L 275.612413 195.155402 
L 276.606767 194.419204 
L 277.636634 193.918888 
L 278.808551 193.599253 
L 280.051493 193.503964 
L 281.258923 193.638405 
L 282.43084 194.00077 
L 283.49622 194.572068 
L 284.455061 195.347116 
L 285.307364 196.324311 
L 286.088643 197.559821 
L 286.798895 199.091396 
L 287.473636 201.075174 
L 288.112863 203.656329 
L 288.752091 207.238517 
L 289.391318 212.189186 
L 290.882849 224.67803 
L 291.0249 224.783684 
L 291.16695 224.53493 
L 291.380026 223.546602 
L 291.770665 220.34724 
L 293.191171 207.564839 
L 293.901424 203.552681 
L 294.611677 200.762894 
L 295.357442 198.694292 
L 296.13872 197.1458 
L 296.991024 195.935566 
L 297.914352 195.007353 
L 298.908706 194.319302 
L 300.009598 193.832928 
L 301.181515 193.562174 
L 302.353433 193.509648 
L 303.489837 193.65997 
L 304.661754 194.044034 
L 305.691621 194.6158 
L 306.61495 195.375569 
L 307.467253 196.363864 
L 308.248531 197.613818 
L 308.958784 199.164952 
L 309.633524 201.176146 
L 310.272752 203.795082 
L 310.911979 207.432438 
L 311.551207 212.451313 
L 312.971713 224.579732 
L 313.149276 224.786693 
L 313.291326 224.553319 
L 313.504402 223.585386 
L 313.895041 220.407757 
L 315.35106 207.369247 
L 316.061312 203.417271 
L 316.771565 200.667271 
L 317.517331 198.626721 
L 318.298609 197.09742 
L 319.150912 195.900861 
L 320.074241 194.983247 
L 321.033082 194.323013 
L 322.133974 193.834967 
L 323.305891 193.562976 
L 324.477809 193.509147 
L 325.685239 193.675049 
L 326.78613 194.040992 
L 327.85151 194.635894 
L 328.774838 195.40439 
L 329.627142 196.403684 
L 330.40842 197.668852 
L 331.118673 199.239578 
L 331.793413 201.278456 
L 332.432641 203.936511 
L 333.036355 207.389976 
L 333.675583 212.39414 
L 335.131601 224.651283 
L 335.273652 224.788365 
L 335.309165 224.767301 
L 335.451215 224.463046 
L 335.699804 223.163775 
L 336.125955 219.425781 
L 337.333385 208.395022 
L 338.043638 204.126754 
L 338.753891 201.165447 
L 339.499656 198.979824 
L 340.280934 197.350721 
L 341.097725 196.126143 
L 341.985541 195.172487 
L 342.979895 194.430539 
L 344.045275 193.912803 
L 345.181679 193.602663 
L 346.389109 193.503262 
L 347.632051 193.634727 
L 348.768456 193.978402 
L 349.833835 194.536226 
L 350.792677 195.295092 
L 351.64498 196.251624 
L 352.426258 197.460086 
L 353.172024 199.044052 
L 353.846764 201.010311 
L 354.485991 203.567058 
L 355.125219 207.11414 
L 355.764446 212.020341 
L 357.29149 224.708456 
L 357.433541 224.77265 
L 357.575591 224.483775 
L 357.82418 223.20724 
L 358.250331 219.488973 
L 359.457761 208.440493 
L 360.168014 204.158517 
L 360.878267 201.187514 
L 361.624032 198.995271 
L 362.405311 197.361721 
L 363.257614 196.089198 
L 364.180943 195.115113 
L 365.175297 194.391788 
L 366.240676 193.888764 
L 367.412593 193.585779 
L 368.620023 193.505001 
L 369.827453 193.648302 
L 370.928345 193.990238 
L 371.993724 194.555484 
L 372.952565 195.322976 
L 373.804869 196.290341 
L 374.586147 197.51308 
L 375.331912 199.117107 
L 376.006652 201.11028 
L 376.64588 203.704475 
L 377.285108 207.305721 
L 377.924335 212.280462 
L 379.380353 224.62186 
L 379.557917 224.777666 
L 379.699967 224.503836 
L 379.913043 223.482742 
L 380.303682 220.248608 
L 381.688675 207.737028 
L 382.398928 203.671709 
L 383.109181 200.846481 
L 383.854946 198.753605 
L 384.636225 197.188362 
L 385.488528 195.966058 
L 386.376344 195.058809 
L 387.370698 194.353973 
L 388.436077 193.86566 
L 389.607994 193.575815 
L 390.779912 193.505937 
L 391.987341 193.654387 
L 393.159259 194.032733 
L 394.189125 194.598514 
L 395.112454 195.350894 
L 395.964757 196.329393 
L 396.746036 197.566776 
L 397.491801 199.190997 
L 398.166541 201.211921 
L 398.805769 203.844231 
L 399.444996 207.500645 
L 400.084224 212.543593 
L 401.50473 224.60648 
L 401.682293 224.781343 
L 401.824343 224.523562 
L 402.037419 223.522195 
L 402.428058 220.309793 
L 403.848564 207.53876 
L 404.558817 203.534627 
L 405.26907 200.750189 
L 406.014835 198.685265 
L 406.831626 197.080469 
L 407.683929 195.888824 
L 408.607258 194.974754 
L 409.601612 194.297469 
L 410.666991 193.831423 
L 411.874421 193.556724 
L 413.117364 193.515265 
L 414.289281 193.694508 
L 415.425685 194.093718 
L 416.455552 194.692833 
L 417.378881 195.486037 
L 418.231184 196.517429 
L 419.012462 197.825092 
L 419.722715 199.452824 
L 420.397455 201.571344 
L 421.036683 204.340402 
L 421.67591 208.192073 
L 422.350651 213.806085 
L 423.55808 224.360736 
L 423.771156 224.790371 
L 423.877694 224.707453 
L 424.055257 224.138061 
L 424.339358 222.2811 
L 424.978586 216.08031 
L 425.830889 208.578243 
L 426.541142 204.253472 
L 427.251395 201.253715 
L 427.997161 199.04218 
L 428.778439 197.395256 
L 429.630742 196.113104 
L 430.554071 195.131764 
L 431.548425 194.403089 
L 432.613804 193.895751 
L 433.785721 193.588922 
L 434.993151 193.5047 
L 435.845455 193.579259 
L 435.845455 193.579259 
" style="fill:none;stroke:#2ca02c;stroke-dasharray:5.55,2.4;stroke-dashoffset:0;stroke-width:1.5;"/>
   </g>
   <g id="patch_3">
    <path d="M 63 344.7504 
L 63 46.4832 
" style="fill:none;stroke:#000000;stroke-linecap:square;stroke-linejoin:miter;stroke-width:0.8;"/>
   </g>
   <g id="patch_4">
    <path d="M 453.6 344.7504 
L 453.6 46.4832 
" style="fill:none;stroke:#000000;stroke-linecap:square;stroke-linejoin:miter;stroke-width:0.8;"/>
   </g>
   <g id="patch_5">
    <path d="M 63 344.7504 
L 453.6 344.7504 
" style="fill:none;stroke:#000000;stroke-linecap:square;stroke-linejoin:miter;stroke-width:0.8;"/>
   </g>
   <g id="patch_6">
    <path d="M 63 46.4832 
L 453.6 46.4832 
" style="fill:none;stroke:#000000;stroke-linecap:square;stroke-linejoin:miter;stroke-width:0.8;"/>
   </g>
   <g id="text_16">
    <!-- n = 2, N = 1.0e+07, dt = 1e-06, VelocityVerlet, Simulated time = 10.00 years -->
    <g transform="translate(23.777813 27.045825)scale(0.12 -0.12)">
     <defs>
      <path d="M 10.59375 45.40625 
L 73.1875 45.40625 
L 73.1875 37.203125 
L 10.59375 37.203125 
z
M 10.59375 25.484375 
L 73.1875 25.484375 
L 73.1875 17.1875 
L 10.59375 17.1875 
z
" id="DejaVuSans-61"/>
      <path d="M 11.71875 12.40625 
L 22.015625 12.40625 
L 22.015625 4 
L 14.015625 -11.625 
L 7.71875 -11.625 
L 11.71875 4 
z
" id="DejaVuSans-44"/>
      <path d="M 46 62.703125 
L 46 35.5 
L 73.1875 35.5 
L 73.1875 27.203125 
L 46 27.203125 
L 46 0 
L 37.796875 0 
L 37.796875 27.203125 
L 10.59375 27.203125 
L 10.59375 35.5 
L 37.796875 35.5 
L 37.796875 62.703125 
z
" id="DejaVuSans-43"/>
      <path d="M 45.40625 46.390625 
L 45.40625 75.984375 
L 54.390625 75.984375 
L 54.390625 0 
L 45.40625 0 
L 45.40625 8.203125 
Q 42.578125 3.328125 38.25 0.953125 
Q 33.9375 -1.421875 27.875 -1.421875 
Q 17.96875 -1.421875 11.734375 6.484375 
Q 5.515625 14.40625 5.515625 27.296875 
Q 5.515625 40.1875 11.734375 48.09375 
Q 17.96875 56 27.875 56 
Q 33.9375 56 38.25 53.625 
Q 42.578125 51.265625 45.40625 46.390625 
z
M 14.796875 27.296875 
Q 14.796875 17.390625 18.875 11.75 
Q 22.953125 6.109375 30.078125 6.109375 
Q 37.203125 6.109375 41.296875 11.75 
Q 45.40625 17.390625 45.40625 27.296875 
Q 45.40625 37.203125 41.296875 42.84375 
Q 37.203125 48.484375 30.078125 48.484375 
Q 22.953125 48.484375 18.875 42.84375 
Q 14.796875 37.203125 14.796875 27.296875 
z
" id="DejaVuSans-100"/>
      <path d="M 4.890625 31.390625 
L 31.203125 31.390625 
L 31.203125 23.390625 
L 4.890625 23.390625 
z
" id="DejaVuSans-45"/>
      <path d="M 28.609375 0 
L 0.78125 72.90625 
L 11.078125 72.90625 
L 34.1875 11.53125 
L 57.328125 72.90625 
L 67.578125 72.90625 
L 39.796875 0 
z
" id="DejaVuSans-86"/>
      <path d="M 9.421875 75.984375 
L 18.40625 75.984375 
L 18.40625 0 
L 9.421875 0 
z
" id="DejaVuSans-108"/>
      <path d="M 48.78125 52.59375 
L 48.78125 44.1875 
Q 44.96875 46.296875 41.140625 47.34375 
Q 37.3125 48.390625 33.40625 48.390625 
Q 24.65625 48.390625 19.8125 42.84375 
Q 14.984375 37.3125 14.984375 27.296875 
Q 14.984375 17.28125 19.8125 11.734375 
Q 24.65625 6.203125 33.40625 6.203125 
Q 37.3125 6.203125 41.140625 7.25 
Q 44.96875 8.296875 48.78125 10.40625 
L 48.78125 2.09375 
Q 45.015625 0.34375 40.984375 -0.53125 
Q 36.96875 -1.421875 32.421875 -1.421875 
Q 20.0625 -1.421875 12.78125 6.34375 
Q 5.515625 14.109375 5.515625 27.296875 
Q 5.515625 40.671875 12.859375 48.328125 
Q 20.21875 56 33.015625 56 
Q 37.15625 56 41.109375 55.140625 
Q 45.0625 54.296875 48.78125 52.59375 
z
" id="DejaVuSans-99"/>
      <path d="M 53.515625 70.515625 
L 53.515625 60.890625 
Q 47.90625 63.578125 42.921875 64.890625 
Q 37.9375 66.21875 33.296875 66.21875 
Q 25.25 66.21875 20.875 63.09375 
Q 16.5 59.96875 16.5 54.203125 
Q 16.5 49.359375 19.40625 46.890625 
Q 22.3125 44.4375 30.421875 42.921875 
L 36.375 41.703125 
Q 47.40625 39.59375 52.65625 34.296875 
Q 57.90625 29 57.90625 20.125 
Q 57.90625 9.515625 50.796875 4.046875 
Q 43.703125 -1.421875 29.984375 -1.421875 
Q 24.8125 -1.421875 18.96875 -0.25 
Q 13.140625 0.921875 6.890625 3.21875 
L 6.890625 13.375 
Q 12.890625 10.015625 18.65625 8.296875 
Q 24.421875 6.59375 29.984375 6.59375 
Q 38.421875 6.59375 43.015625 9.90625 
Q 47.609375 13.234375 47.609375 19.390625 
Q 47.609375 24.75 44.3125 27.78125 
Q 41.015625 30.8125 33.5 32.328125 
L 27.484375 33.5 
Q 16.453125 35.6875 11.515625 40.375 
Q 6.59375 45.0625 6.59375 53.421875 
Q 6.59375 63.09375 13.40625 68.65625 
Q 20.21875 74.21875 32.171875 74.21875 
Q 37.3125 74.21875 42.625 73.28125 
Q 47.953125 72.359375 53.515625 70.515625 
z
" id="DejaVuSans-83"/>
      <path d="M 34.28125 27.484375 
Q 23.390625 27.484375 19.1875 25 
Q 14.984375 22.515625 14.984375 16.5 
Q 14.984375 11.71875 18.140625 8.90625 
Q 21.296875 6.109375 26.703125 6.109375 
Q 34.1875 6.109375 38.703125 11.40625 
Q 43.21875 16.703125 43.21875 25.484375 
L 43.21875 27.484375 
z
M 52.203125 31.203125 
L 52.203125 0 
L 43.21875 0 
L 43.21875 8.296875 
Q 40.140625 3.328125 35.546875 0.953125 
Q 30.953125 -1.421875 24.3125 -1.421875 
Q 15.921875 -1.421875 10.953125 3.296875 
Q 6 8.015625 6 15.921875 
Q 6 25.140625 12.171875 29.828125 
Q 18.359375 34.515625 30.609375 34.515625 
L 43.21875 34.515625 
L 43.21875 35.40625 
Q 43.21875 41.609375 39.140625 45 
Q 35.0625 48.390625 27.6875 48.390625 
Q 23 48.390625 18.546875 47.265625 
Q 14.109375 46.140625 10.015625 43.890625 
L 10.015625 52.203125 
Q 14.9375 54.109375 19.578125 55.046875 
Q 24.21875 56 28.609375 56 
Q 40.484375 56 46.34375 49.84375 
Q 52.203125 43.703125 52.203125 31.203125 
z
" id="DejaVuSans-97"/>
     </defs>
     <use xlink:href="#DejaVuSans-110"/>
     <use x="63.378906" xlink:href="#DejaVuSans-32"/>
     <use x="95.166016" xlink:href="#DejaVuSans-61"/>
     <use x="178.955078" xlink:href="#DejaVuSans-32"/>
     <use x="210.742188" xlink:href="#DejaVuSans-50"/>
     <use x="274.365234" xlink:href="#DejaVuSans-44"/>
     <use x="306.152344" xlink:href="#DejaVuSans-32"/>
     <use x="337.939453" xlink:href="#DejaVuSans-78"/>
     <use x="412.744141" xlink:href="#DejaVuSans-32"/>
     <use x="444.53125" xlink:href="#DejaVuSans-61"/>
     <use x="528.320312" xlink:href="#DejaVuSans-32"/>
     <use x="560.107422" xlink:href="#DejaVuSans-49"/>
     <use x="623.730469" xlink:href="#DejaVuSans-46"/>
     <use x="655.517578" xlink:href="#DejaVuSans-48"/>
     <use x="719.140625" xlink:href="#DejaVuSans-101"/>
     <use x="780.664062" xlink:href="#DejaVuSans-43"/>
     <use x="864.453125" xlink:href="#DejaVuSans-48"/>
     <use x="928.076172" xlink:href="#DejaVuSans-55"/>
     <use x="991.699219" xlink:href="#DejaVuSans-44"/>
     <use x="1023.486328" xlink:href="#DejaVuSans-32"/>
     <use x="1055.273438" xlink:href="#DejaVuSans-100"/>
     <use x="1118.75" xlink:href="#DejaVuSans-116"/>
     <use x="1157.958984" xlink:href="#DejaVuSans-32"/>
     <use x="1189.746094" xlink:href="#DejaVuSans-61"/>
     <use x="1273.535156" xlink:href="#DejaVuSans-32"/>
     <use x="1305.322266" xlink:href="#DejaVuSans-49"/>
     <use x="1368.945312" xlink:href="#DejaVuSans-101"/>
     <use x="1430.46875" xlink:href="#DejaVuSans-45"/>
     <use x="1466.552734" xlink:href="#DejaVuSans-48"/>
     <use x="1530.175781" xlink:href="#DejaVuSans-54"/>
     <use x="1593.798828" xlink:href="#DejaVuSans-44"/>
     <use x="1625.585938" xlink:href="#DejaVuSans-32"/>
     <use x="1657.373047" xlink:href="#DejaVuSans-86"/>
     <use x="1718.03125" xlink:href="#DejaVuSans-101"/>
     <use x="1779.554688" xlink:href="#DejaVuSans-108"/>
     <use x="1807.337891" xlink:href="#DejaVuSans-111"/>
     <use x="1868.519531" xlink:href="#DejaVuSans-99"/>
     <use x="1923.5" xlink:href="#DejaVuSans-105"/>
     <use x="1951.283203" xlink:href="#DejaVuSans-116"/>
     <use x="1990.492188" xlink:href="#DejaVuSans-121"/>
     <use x="2049.671875" xlink:href="#DejaVuSans-86"/>
     <use x="2110.330078" xlink:href="#DejaVuSans-101"/>
     <use x="2171.853516" xlink:href="#DejaVuSans-114"/>
     <use x="2212.966797" xlink:href="#DejaVuSans-108"/>
     <use x="2240.75" xlink:href="#DejaVuSans-101"/>
     <use x="2302.273438" xlink:href="#DejaVuSans-116"/>
     <use x="2341.482422" xlink:href="#DejaVuSans-44"/>
     <use x="2373.269531" xlink:href="#DejaVuSans-32"/>
     <use x="2405.056641" xlink:href="#DejaVuSans-83"/>
     <use x="2468.533203" xlink:href="#DejaVuSans-105"/>
     <use x="2496.316406" xlink:href="#DejaVuSans-109"/>
     <use x="2593.728516" xlink:href="#DejaVuSans-117"/>
     <use x="2657.107422" xlink:href="#DejaVuSans-108"/>
     <use x="2684.890625" xlink:href="#DejaVuSans-97"/>
     <use x="2746.169922" xlink:href="#DejaVuSans-116"/>
     <use x="2785.378906" xlink:href="#DejaVuSans-101"/>
     <use x="2846.902344" xlink:href="#DejaVuSans-100"/>
     <use x="2910.378906" xlink:href="#DejaVuSans-32"/>
     <use x="2942.166016" xlink:href="#DejaVuSans-116"/>
     <use x="2981.375" xlink:href="#DejaVuSans-105"/>
     <use x="3009.158203" xlink:href="#DejaVuSans-109"/>
     <use x="3106.570312" xlink:href="#DejaVuSans-101"/>
     <use x="3168.09375" xlink:href="#DejaVuSans-32"/>
     <use x="3199.880859" xlink:href="#DejaVuSans-61"/>
     <use x="3283.669922" xlink:href="#DejaVuSans-32"/>
     <use x="3315.457031" xlink:href="#DejaVuSans-49"/>
     <use x="3379.080078" xlink:href="#DejaVuSans-48"/>
     <use x="3442.703125" xlink:href="#DejaVuSans-46"/>
     <use x="3474.490234" xlink:href="#DejaVuSans-48"/>
     <use x="3538.113281" xlink:href="#DejaVuSans-48"/>
     <use x="3601.736328" xlink:href="#DejaVuSans-32"/>
     <use x="3633.523438" xlink:href="#DejaVuSans-121"/>
     <use x="3692.703125" xlink:href="#DejaVuSans-101"/>
     <use x="3754.226562" xlink:href="#DejaVuSans-97"/>
     <use x="3815.505859" xlink:href="#DejaVuSans-114"/>
     <use x="3856.619141" xlink:href="#DejaVuSans-115"/>
    </g>
    <!--  -->
    <g transform="translate(258.3 40.4832)scale(0.12 -0.12)"/>
   </g>
   <g id="legend_1">
    <g id="patch_7">
     <path d="M 70 339.7504 
L 363.723437 339.7504 
Q 365.723437 339.7504 365.723437 337.7504 
L 365.723437 294.4379 
Q 365.723437 292.4379 363.723437 292.4379 
L 70 292.4379 
Q 68 292.4379 68 294.4379 
L 68 337.7504 
Q 68 339.7504 70 339.7504 
z
" style="fill:#ffffff;opacity:0.8;stroke:#cccccc;stroke-linejoin:miter;"/>
    </g>
    <g id="line2d_28">
     <path d="M 72 300.536338 
L 92 300.536338 
" style="fill:none;stroke:#1f77b4;stroke-linecap:square;stroke-width:1.5;"/>
    </g>
    <g id="line2d_29"/>
    <g id="text_17">
     <!-- Kinetic energy -->
     <g transform="translate(100 304.036338)scale(0.1 -0.1)">
      <defs>
       <path d="M 9.8125 72.90625 
L 19.671875 72.90625 
L 19.671875 42.09375 
L 52.390625 72.90625 
L 65.09375 72.90625 
L 28.90625 38.921875 
L 67.671875 0 
L 54.6875 0 
L 19.671875 35.109375 
L 19.671875 0 
L 9.8125 0 
z
" id="DejaVuSans-75"/>
      </defs>
      <use xlink:href="#DejaVuSans-75"/>
      <use x="65.576172" xlink:href="#DejaVuSans-105"/>
      <use x="93.359375" xlink:href="#DejaVuSans-110"/>
      <use x="156.738281" xlink:href="#DejaVuSans-101"/>
      <use x="218.261719" xlink:href="#DejaVuSans-116"/>
      <use x="257.470703" xlink:href="#DejaVuSans-105"/>
      <use x="285.253906" xlink:href="#DejaVuSans-99"/>
      <use x="340.234375" xlink:href="#DejaVuSans-32"/>
      <use x="372.021484" xlink:href="#DejaVuSans-101"/>
      <use x="433.544922" xlink:href="#DejaVuSans-110"/>
      <use x="496.923828" xlink:href="#DejaVuSans-101"/>
      <use x="558.447266" xlink:href="#DejaVuSans-114"/>
      <use x="597.810547" xlink:href="#DejaVuSans-103"/>
      <use x="661.287109" xlink:href="#DejaVuSans-121"/>
     </g>
    </g>
    <g id="line2d_30">
     <path d="M 72 315.214463 
L 92 315.214463 
" style="fill:none;stroke:#ff7f0e;stroke-linecap:square;stroke-width:1.5;"/>
    </g>
    <g id="line2d_31"/>
    <g id="text_18">
     <!-- Potential energy -->
     <g transform="translate(100 318.714463)scale(0.1 -0.1)">
      <defs>
       <path d="M 19.671875 64.796875 
L 19.671875 37.40625 
L 32.078125 37.40625 
Q 38.96875 37.40625 42.71875 40.96875 
Q 46.484375 44.53125 46.484375 51.125 
Q 46.484375 57.671875 42.71875 61.234375 
Q 38.96875 64.796875 32.078125 64.796875 
z
M 9.8125 72.90625 
L 32.078125 72.90625 
Q 44.34375 72.90625 50.609375 67.359375 
Q 56.890625 61.8125 56.890625 51.125 
Q 56.890625 40.328125 50.609375 34.8125 
Q 44.34375 29.296875 32.078125 29.296875 
L 19.671875 29.296875 
L 19.671875 0 
L 9.8125 0 
z
" id="DejaVuSans-80"/>
      </defs>
      <use xlink:href="#DejaVuSans-80"/>
      <use x="56.677734" xlink:href="#DejaVuSans-111"/>
      <use x="117.859375" xlink:href="#DejaVuSans-116"/>
      <use x="157.068359" xlink:href="#DejaVuSans-101"/>
      <use x="218.591797" xlink:href="#DejaVuSans-110"/>
      <use x="281.970703" xlink:href="#DejaVuSans-116"/>
      <use x="321.179688" xlink:href="#DejaVuSans-105"/>
      <use x="348.962891" xlink:href="#DejaVuSans-97"/>
      <use x="410.242188" xlink:href="#DejaVuSans-108"/>
      <use x="438.025391" xlink:href="#DejaVuSans-32"/>
      <use x="469.8125" xlink:href="#DejaVuSans-101"/>
      <use x="531.335938" xlink:href="#DejaVuSans-110"/>
      <use x="594.714844" xlink:href="#DejaVuSans-101"/>
      <use x="656.238281" xlink:href="#DejaVuSans-114"/>
      <use x="695.601562" xlink:href="#DejaVuSans-103"/>
      <use x="759.078125" xlink:href="#DejaVuSans-121"/>
     </g>
    </g>
    <g id="line2d_32">
     <path d="M 72 329.892588 
L 92 329.892588 
" style="fill:none;stroke:#2ca02c;stroke-dasharray:5.55,2.4;stroke-dashoffset:0;stroke-width:1.5;"/>
    </g>
    <g id="line2d_33"/>
    <g id="text_19">
     <!-- Total energy. E_mean = -5.88e-01, E_std = 1.55e-01 -->
     <g transform="translate(100 333.392588)scale(0.1 -0.1)">
      <defs>
       <path d="M -0.296875 72.90625 
L 61.375 72.90625 
L 61.375 64.59375 
L 35.5 64.59375 
L 35.5 0 
L 25.59375 0 
L 25.59375 64.59375 
L -0.296875 64.59375 
z
" id="DejaVuSans-84"/>
       <path d="M 50.984375 -16.609375 
L 50.984375 -23.578125 
L -0.984375 -23.578125 
L -0.984375 -16.609375 
z
" id="DejaVuSans-95"/>
       <path d="M 10.796875 72.90625 
L 49.515625 72.90625 
L 49.515625 64.59375 
L 19.828125 64.59375 
L 19.828125 46.734375 
Q 21.96875 47.46875 24.109375 47.828125 
Q 26.265625 48.1875 28.421875 48.1875 
Q 40.625 48.1875 47.75 41.5 
Q 54.890625 34.8125 54.890625 23.390625 
Q 54.890625 11.625 47.5625 5.09375 
Q 40.234375 -1.421875 26.90625 -1.421875 
Q 22.3125 -1.421875 17.546875 -0.640625 
Q 12.796875 0.140625 7.71875 1.703125 
L 7.71875 11.625 
Q 12.109375 9.234375 16.796875 8.0625 
Q 21.484375 6.890625 26.703125 6.890625 
Q 35.15625 6.890625 40.078125 11.328125 
Q 45.015625 15.765625 45.015625 23.390625 
Q 45.015625 31 40.078125 35.4375 
Q 35.15625 39.890625 26.703125 39.890625 
Q 22.75 39.890625 18.8125 39.015625 
Q 14.890625 38.140625 10.796875 36.28125 
z
" id="DejaVuSans-53"/>
      </defs>
      <use xlink:href="#DejaVuSans-84"/>
      <use x="44.083984" xlink:href="#DejaVuSans-111"/>
      <use x="105.265625" xlink:href="#DejaVuSans-116"/>
      <use x="144.474609" xlink:href="#DejaVuSans-97"/>
      <use x="205.753906" xlink:href="#DejaVuSans-108"/>
      <use x="233.537109" xlink:href="#DejaVuSans-32"/>
      <use x="265.324219" xlink:href="#DejaVuSans-101"/>
      <use x="326.847656" xlink:href="#DejaVuSans-110"/>
      <use x="390.226562" xlink:href="#DejaVuSans-101"/>
      <use x="451.75" xlink:href="#DejaVuSans-114"/>
      <use x="491.113281" xlink:href="#DejaVuSans-103"/>
      <use x="554.589844" xlink:href="#DejaVuSans-121"/>
      <use x="599.519531" xlink:href="#DejaVuSans-46"/>
      <use x="631.306641" xlink:href="#DejaVuSans-32"/>
      <use x="663.09375" xlink:href="#DejaVuSans-69"/>
      <use x="726.277344" xlink:href="#DejaVuSans-95"/>
      <use x="776.277344" xlink:href="#DejaVuSans-109"/>
      <use x="873.689453" xlink:href="#DejaVuSans-101"/>
      <use x="935.212891" xlink:href="#DejaVuSans-97"/>
      <use x="996.492188" xlink:href="#DejaVuSans-110"/>
      <use x="1059.871094" xlink:href="#DejaVuSans-32"/>
      <use x="1091.658203" xlink:href="#DejaVuSans-61"/>
      <use x="1175.447266" xlink:href="#DejaVuSans-32"/>
      <use x="1207.234375" xlink:href="#DejaVuSans-45"/>
      <use x="1243.318359" xlink:href="#DejaVuSans-53"/>
      <use x="1306.941406" xlink:href="#DejaVuSans-46"/>
      <use x="1338.728516" xlink:href="#DejaVuSans-56"/>
      <use x="1402.351562" xlink:href="#DejaVuSans-56"/>
      <use x="1465.974609" xlink:href="#DejaVuSans-101"/>
      <use x="1527.498047" xlink:href="#DejaVuSans-45"/>
      <use x="1563.582031" xlink:href="#DejaVuSans-48"/>
      <use x="1627.205078" xlink:href="#DejaVuSans-49"/>
      <use x="1690.828125" xlink:href="#DejaVuSans-44"/>
      <use x="1722.615234" xlink:href="#DejaVuSans-32"/>
      <use x="1754.402344" xlink:href="#DejaVuSans-69"/>
      <use x="1817.585938" xlink:href="#DejaVuSans-95"/>
      <use x="1867.585938" xlink:href="#DejaVuSans-115"/>
      <use x="1919.685547" xlink:href="#DejaVuSans-116"/>
      <use x="1958.894531" xlink:href="#DejaVuSans-100"/>
      <use x="2022.371094" xlink:href="#DejaVuSans-32"/>
      <use x="2054.158203" xlink:href="#DejaVuSans-61"/>
      <use x="2137.947266" xlink:href="#DejaVuSans-32"/>
      <use x="2169.734375" xlink:href="#DejaVuSans-49"/>
      <use x="2233.357422" xlink:href="#DejaVuSans-46"/>
      <use x="2265.144531" xlink:href="#DejaVuSans-53"/>
      <use x="2328.767578" xlink:href="#DejaVuSans-53"/>
      <use x="2392.390625" xlink:href="#DejaVuSans-101"/>
      <use x="2453.914062" xlink:href="#DejaVuSans-45"/>
      <use x="2489.998047" xlink:href="#DejaVuSans-48"/>
      <use x="2553.621094" xlink:href="#DejaVuSans-49"/>
     </g>
    </g>
   </g>
  </g>
 </g>
 <defs>
  <clipPath id="p752b84aa95">
   <rect height="298.2672" width="390.6" x="63" y="46.4832"/>
  </clipPath>
 </defs>
</svg>
