<?xml version="1.0" encoding="utf-8" standalone="no"?>
<!DOCTYPE svg PUBLIC "-//W3C//DTD SVG 1.1//EN"
  "http://www.w3.org/Graphics/SVG/1.1/DTD/svg11.dtd">
<!-- Created with matplotlib (https://matplotlib.org/) -->
<svg height="360pt" version="1.1" viewBox="0 0 493.2 360" width="493.2pt" xmlns="http://www.w3.org/2000/svg" xmlns:xlink="http://www.w3.org/1999/xlink">
 <metadata>
  <rdf:RDF xmlns:cc="http://creativecommons.org/ns#" xmlns:dc="http://purl.org/dc/elements/1.1/" xmlns:rdf="http://www.w3.org/1999/02/22-rdf-syntax-ns#">
   <cc:Work>
    <dc:type rdf:resource="http://purl.org/dc/dcmitype/StillImage"/>
    <dc:date>2020-10-22T13:51:44.068411</dc:date>
    <dc:format>image/svg+xml</dc:format>
    <dc:creator>
     <cc:Agent>
      <dc:title>Matplotlib v3.3.2, https://matplotlib.org/</dc:title>
     </cc:Agent>
    </dc:creator>
   </cc:Work>
  </rdf:RDF>
 </metadata>
 <defs>
  <style type="text/css">*{stroke-linecap:butt;stroke-linejoin:round;}</style>
 </defs>
 <g id="figure_1">
  <g id="patch_1">
   <path d="M 0 360 
L 493.2 360 
L 493.2 0 
L 0 0 
z
" style="fill:#ffffff;"/>
  </g>
  <g id="axes_1">
   <g id="patch_2">
    <path d="M 61.65 320.4 
L 443.88 320.4 
L 443.88 43.2 
L 61.65 43.2 
z
" style="fill:#ffffff;"/>
   </g>
   <g id="matplotlib.axis_1">
    <g id="xtick_1">
     <g id="line2d_1">
      <path clip-path="url(#pa67464077c)" d="M 79.024091 320.4 
L 79.024091 43.2 
" style="fill:none;stroke:#b0b0b0;stroke-linecap:square;stroke-width:0.8;"/>
     </g>
     <g id="line2d_2">
      <defs>
       <path d="M 0 0 
L 0 3.5 
" id="m785e27117c" style="stroke:#000000;stroke-width:0.8;"/>
      </defs>
      <g>
       <use style="stroke:#000000;stroke-width:0.8;" x="79.024091" xlink:href="#m785e27117c" y="320.4"/>
      </g>
     </g>
     <g id="text_1">
      <!-- 0.0 -->
      <g transform="translate(71.072528 334.998438)scale(0.1 -0.1)">
       <defs>
        <path d="M 31.78125 66.40625 
Q 24.171875 66.40625 20.328125 58.90625 
Q 16.5 51.421875 16.5 36.375 
Q 16.5 21.390625 20.328125 13.890625 
Q 24.171875 6.390625 31.78125 6.390625 
Q 39.453125 6.390625 43.28125 13.890625 
Q 47.125 21.390625 47.125 36.375 
Q 47.125 51.421875 43.28125 58.90625 
Q 39.453125 66.40625 31.78125 66.40625 
z
M 31.78125 74.21875 
Q 44.046875 74.21875 50.515625 64.515625 
Q 56.984375 54.828125 56.984375 36.375 
Q 56.984375 17.96875 50.515625 8.265625 
Q 44.046875 -1.421875 31.78125 -1.421875 
Q 19.53125 -1.421875 13.0625 8.265625 
Q 6.59375 17.96875 6.59375 36.375 
Q 6.59375 54.828125 13.0625 64.515625 
Q 19.53125 74.21875 31.78125 74.21875 
z
" id="DejaVuSans-48"/>
        <path d="M 10.6875 12.40625 
L 21 12.40625 
L 21 0 
L 10.6875 0 
z
" id="DejaVuSans-46"/>
       </defs>
       <use xlink:href="#DejaVuSans-48"/>
       <use x="63.623047" xlink:href="#DejaVuSans-46"/>
       <use x="95.410156" xlink:href="#DejaVuSans-48"/>
      </g>
     </g>
    </g>
    <g id="xtick_2">
     <g id="line2d_3">
      <path clip-path="url(#pa67464077c)" d="M 148.520455 320.4 
L 148.520455 43.2 
" style="fill:none;stroke:#b0b0b0;stroke-linecap:square;stroke-width:0.8;"/>
     </g>
     <g id="line2d_4">
      <g>
       <use style="stroke:#000000;stroke-width:0.8;" x="148.520455" xlink:href="#m785e27117c" y="320.4"/>
      </g>
     </g>
     <g id="text_2">
      <!-- 0.2 -->
      <g transform="translate(140.568892 334.998438)scale(0.1 -0.1)">
       <defs>
        <path d="M 19.1875 8.296875 
L 53.609375 8.296875 
L 53.609375 0 
L 7.328125 0 
L 7.328125 8.296875 
Q 12.9375 14.109375 22.625 23.890625 
Q 32.328125 33.6875 34.8125 36.53125 
Q 39.546875 41.84375 41.421875 45.53125 
Q 43.3125 49.21875 43.3125 52.78125 
Q 43.3125 58.59375 39.234375 62.25 
Q 35.15625 65.921875 28.609375 65.921875 
Q 23.96875 65.921875 18.8125 64.3125 
Q 13.671875 62.703125 7.8125 59.421875 
L 7.8125 69.390625 
Q 13.765625 71.78125 18.9375 73 
Q 24.125 74.21875 28.421875 74.21875 
Q 39.75 74.21875 46.484375 68.546875 
Q 53.21875 62.890625 53.21875 53.421875 
Q 53.21875 48.921875 51.53125 44.890625 
Q 49.859375 40.875 45.40625 35.40625 
Q 44.1875 33.984375 37.640625 27.21875 
Q 31.109375 20.453125 19.1875 8.296875 
z
" id="DejaVuSans-50"/>
       </defs>
       <use xlink:href="#DejaVuSans-48"/>
       <use x="63.623047" xlink:href="#DejaVuSans-46"/>
       <use x="95.410156" xlink:href="#DejaVuSans-50"/>
      </g>
     </g>
    </g>
    <g id="xtick_3">
     <g id="line2d_5">
      <path clip-path="url(#pa67464077c)" d="M 218.016818 320.4 
L 218.016818 43.2 
" style="fill:none;stroke:#b0b0b0;stroke-linecap:square;stroke-width:0.8;"/>
     </g>
     <g id="line2d_6">
      <g>
       <use style="stroke:#000000;stroke-width:0.8;" x="218.016818" xlink:href="#m785e27117c" y="320.4"/>
      </g>
     </g>
     <g id="text_3">
      <!-- 0.4 -->
      <g transform="translate(210.065256 334.998438)scale(0.1 -0.1)">
       <defs>
        <path d="M 37.796875 64.3125 
L 12.890625 25.390625 
L 37.796875 25.390625 
z
M 35.203125 72.90625 
L 47.609375 72.90625 
L 47.609375 25.390625 
L 58.015625 25.390625 
L 58.015625 17.1875 
L 47.609375 17.1875 
L 47.609375 0 
L 37.796875 0 
L 37.796875 17.1875 
L 4.890625 17.1875 
L 4.890625 26.703125 
z
" id="DejaVuSans-52"/>
       </defs>
       <use xlink:href="#DejaVuSans-48"/>
       <use x="63.623047" xlink:href="#DejaVuSans-46"/>
       <use x="95.410156" xlink:href="#DejaVuSans-52"/>
      </g>
     </g>
    </g>
    <g id="xtick_4">
     <g id="line2d_7">
      <path clip-path="url(#pa67464077c)" d="M 287.513182 320.4 
L 287.513182 43.2 
" style="fill:none;stroke:#b0b0b0;stroke-linecap:square;stroke-width:0.8;"/>
     </g>
     <g id="line2d_8">
      <g>
       <use style="stroke:#000000;stroke-width:0.8;" x="287.513182" xlink:href="#m785e27117c" y="320.4"/>
      </g>
     </g>
     <g id="text_4">
      <!-- 0.6 -->
      <g transform="translate(279.561619 334.998438)scale(0.1 -0.1)">
       <defs>
        <path d="M 33.015625 40.375 
Q 26.375 40.375 22.484375 35.828125 
Q 18.609375 31.296875 18.609375 23.390625 
Q 18.609375 15.53125 22.484375 10.953125 
Q 26.375 6.390625 33.015625 6.390625 
Q 39.65625 6.390625 43.53125 10.953125 
Q 47.40625 15.53125 47.40625 23.390625 
Q 47.40625 31.296875 43.53125 35.828125 
Q 39.65625 40.375 33.015625 40.375 
z
M 52.59375 71.296875 
L 52.59375 62.3125 
Q 48.875 64.0625 45.09375 64.984375 
Q 41.3125 65.921875 37.59375 65.921875 
Q 27.828125 65.921875 22.671875 59.328125 
Q 17.53125 52.734375 16.796875 39.40625 
Q 19.671875 43.65625 24.015625 45.921875 
Q 28.375 48.1875 33.59375 48.1875 
Q 44.578125 48.1875 50.953125 41.515625 
Q 57.328125 34.859375 57.328125 23.390625 
Q 57.328125 12.15625 50.6875 5.359375 
Q 44.046875 -1.421875 33.015625 -1.421875 
Q 20.359375 -1.421875 13.671875 8.265625 
Q 6.984375 17.96875 6.984375 36.375 
Q 6.984375 53.65625 15.1875 63.9375 
Q 23.390625 74.21875 37.203125 74.21875 
Q 40.921875 74.21875 44.703125 73.484375 
Q 48.484375 72.75 52.59375 71.296875 
z
" id="DejaVuSans-54"/>
       </defs>
       <use xlink:href="#DejaVuSans-48"/>
       <use x="63.623047" xlink:href="#DejaVuSans-46"/>
       <use x="95.410156" xlink:href="#DejaVuSans-54"/>
      </g>
     </g>
    </g>
    <g id="xtick_5">
     <g id="line2d_9">
      <path clip-path="url(#pa67464077c)" d="M 357.009545 320.4 
L 357.009545 43.2 
" style="fill:none;stroke:#b0b0b0;stroke-linecap:square;stroke-width:0.8;"/>
     </g>
     <g id="line2d_10">
      <g>
       <use style="stroke:#000000;stroke-width:0.8;" x="357.009545" xlink:href="#m785e27117c" y="320.4"/>
      </g>
     </g>
     <g id="text_5">
      <!-- 0.8 -->
      <g transform="translate(349.057983 334.998438)scale(0.1 -0.1)">
       <defs>
        <path d="M 31.78125 34.625 
Q 24.75 34.625 20.71875 30.859375 
Q 16.703125 27.09375 16.703125 20.515625 
Q 16.703125 13.921875 20.71875 10.15625 
Q 24.75 6.390625 31.78125 6.390625 
Q 38.8125 6.390625 42.859375 10.171875 
Q 46.921875 13.96875 46.921875 20.515625 
Q 46.921875 27.09375 42.890625 30.859375 
Q 38.875 34.625 31.78125 34.625 
z
M 21.921875 38.8125 
Q 15.578125 40.375 12.03125 44.71875 
Q 8.5 49.078125 8.5 55.328125 
Q 8.5 64.0625 14.71875 69.140625 
Q 20.953125 74.21875 31.78125 74.21875 
Q 42.671875 74.21875 48.875 69.140625 
Q 55.078125 64.0625 55.078125 55.328125 
Q 55.078125 49.078125 51.53125 44.71875 
Q 48 40.375 41.703125 38.8125 
Q 48.828125 37.15625 52.796875 32.3125 
Q 56.78125 27.484375 56.78125 20.515625 
Q 56.78125 9.90625 50.3125 4.234375 
Q 43.84375 -1.421875 31.78125 -1.421875 
Q 19.734375 -1.421875 13.25 4.234375 
Q 6.78125 9.90625 6.78125 20.515625 
Q 6.78125 27.484375 10.78125 32.3125 
Q 14.796875 37.15625 21.921875 38.8125 
z
M 18.3125 54.390625 
Q 18.3125 48.734375 21.84375 45.5625 
Q 25.390625 42.390625 31.78125 42.390625 
Q 38.140625 42.390625 41.71875 45.5625 
Q 45.3125 48.734375 45.3125 54.390625 
Q 45.3125 60.0625 41.71875 63.234375 
Q 38.140625 66.40625 31.78125 66.40625 
Q 25.390625 66.40625 21.84375 63.234375 
Q 18.3125 60.0625 18.3125 54.390625 
z
" id="DejaVuSans-56"/>
       </defs>
       <use xlink:href="#DejaVuSans-48"/>
       <use x="63.623047" xlink:href="#DejaVuSans-46"/>
       <use x="95.410156" xlink:href="#DejaVuSans-56"/>
      </g>
     </g>
    </g>
    <g id="xtick_6">
     <g id="line2d_11">
      <path clip-path="url(#pa67464077c)" d="M 426.505909 320.4 
L 426.505909 43.2 
" style="fill:none;stroke:#b0b0b0;stroke-linecap:square;stroke-width:0.8;"/>
     </g>
     <g id="line2d_12">
      <g>
       <use style="stroke:#000000;stroke-width:0.8;" x="426.505909" xlink:href="#m785e27117c" y="320.4"/>
      </g>
     </g>
     <g id="text_6">
      <!-- 1.0 -->
      <g transform="translate(418.554347 334.998438)scale(0.1 -0.1)">
       <defs>
        <path d="M 12.40625 8.296875 
L 28.515625 8.296875 
L 28.515625 63.921875 
L 10.984375 60.40625 
L 10.984375 69.390625 
L 28.421875 72.90625 
L 38.28125 72.90625 
L 38.28125 8.296875 
L 54.390625 8.296875 
L 54.390625 0 
L 12.40625 0 
z
" id="DejaVuSans-49"/>
       </defs>
       <use xlink:href="#DejaVuSans-49"/>
       <use x="63.623047" xlink:href="#DejaVuSans-46"/>
       <use x="95.410156" xlink:href="#DejaVuSans-48"/>
      </g>
     </g>
    </g>
    <g id="text_7">
     <!-- N [number of time steps] -->
     <g transform="translate(189.716563 348.676562)scale(0.1 -0.1)">
      <defs>
       <path d="M 9.8125 72.90625 
L 23.09375 72.90625 
L 55.421875 11.921875 
L 55.421875 72.90625 
L 64.984375 72.90625 
L 64.984375 0 
L 51.703125 0 
L 19.390625 60.984375 
L 19.390625 0 
L 9.8125 0 
z
" id="DejaVuSans-78"/>
       <path id="DejaVuSans-32"/>
       <path d="M 8.59375 75.984375 
L 29.296875 75.984375 
L 29.296875 69 
L 17.578125 69 
L 17.578125 -6.203125 
L 29.296875 -6.203125 
L 29.296875 -13.1875 
L 8.59375 -13.1875 
z
" id="DejaVuSans-91"/>
       <path d="M 54.890625 33.015625 
L 54.890625 0 
L 45.90625 0 
L 45.90625 32.71875 
Q 45.90625 40.484375 42.875 44.328125 
Q 39.84375 48.1875 33.796875 48.1875 
Q 26.515625 48.1875 22.3125 43.546875 
Q 18.109375 38.921875 18.109375 30.90625 
L 18.109375 0 
L 9.078125 0 
L 9.078125 54.6875 
L 18.109375 54.6875 
L 18.109375 46.1875 
Q 21.34375 51.125 25.703125 53.5625 
Q 30.078125 56 35.796875 56 
Q 45.21875 56 50.046875 50.171875 
Q 54.890625 44.34375 54.890625 33.015625 
z
" id="DejaVuSans-110"/>
       <path d="M 8.5 21.578125 
L 8.5 54.6875 
L 17.484375 54.6875 
L 17.484375 21.921875 
Q 17.484375 14.15625 20.5 10.265625 
Q 23.53125 6.390625 29.59375 6.390625 
Q 36.859375 6.390625 41.078125 11.03125 
Q 45.3125 15.671875 45.3125 23.6875 
L 45.3125 54.6875 
L 54.296875 54.6875 
L 54.296875 0 
L 45.3125 0 
L 45.3125 8.40625 
Q 42.046875 3.421875 37.71875 1 
Q 33.40625 -1.421875 27.6875 -1.421875 
Q 18.265625 -1.421875 13.375 4.4375 
Q 8.5 10.296875 8.5 21.578125 
z
M 31.109375 56 
z
" id="DejaVuSans-117"/>
       <path d="M 52 44.1875 
Q 55.375 50.25 60.0625 53.125 
Q 64.75 56 71.09375 56 
Q 79.640625 56 84.28125 50.015625 
Q 88.921875 44.046875 88.921875 33.015625 
L 88.921875 0 
L 79.890625 0 
L 79.890625 32.71875 
Q 79.890625 40.578125 77.09375 44.375 
Q 74.3125 48.1875 68.609375 48.1875 
Q 61.625 48.1875 57.5625 43.546875 
Q 53.515625 38.921875 53.515625 30.90625 
L 53.515625 0 
L 44.484375 0 
L 44.484375 32.71875 
Q 44.484375 40.625 41.703125 44.40625 
Q 38.921875 48.1875 33.109375 48.1875 
Q 26.21875 48.1875 22.15625 43.53125 
Q 18.109375 38.875 18.109375 30.90625 
L 18.109375 0 
L 9.078125 0 
L 9.078125 54.6875 
L 18.109375 54.6875 
L 18.109375 46.1875 
Q 21.1875 51.21875 25.484375 53.609375 
Q 29.78125 56 35.6875 56 
Q 41.65625 56 45.828125 52.96875 
Q 50 49.953125 52 44.1875 
z
" id="DejaVuSans-109"/>
       <path d="M 48.6875 27.296875 
Q 48.6875 37.203125 44.609375 42.84375 
Q 40.53125 48.484375 33.40625 48.484375 
Q 26.265625 48.484375 22.1875 42.84375 
Q 18.109375 37.203125 18.109375 27.296875 
Q 18.109375 17.390625 22.1875 11.75 
Q 26.265625 6.109375 33.40625 6.109375 
Q 40.53125 6.109375 44.609375 11.75 
Q 48.6875 17.390625 48.6875 27.296875 
z
M 18.109375 46.390625 
Q 20.953125 51.265625 25.265625 53.625 
Q 29.59375 56 35.59375 56 
Q 45.5625 56 51.78125 48.09375 
Q 58.015625 40.1875 58.015625 27.296875 
Q 58.015625 14.40625 51.78125 6.484375 
Q 45.5625 -1.421875 35.59375 -1.421875 
Q 29.59375 -1.421875 25.265625 0.953125 
Q 20.953125 3.328125 18.109375 8.203125 
L 18.109375 0 
L 9.078125 0 
L 9.078125 75.984375 
L 18.109375 75.984375 
z
" id="DejaVuSans-98"/>
       <path d="M 56.203125 29.59375 
L 56.203125 25.203125 
L 14.890625 25.203125 
Q 15.484375 15.921875 20.484375 11.0625 
Q 25.484375 6.203125 34.421875 6.203125 
Q 39.59375 6.203125 44.453125 7.46875 
Q 49.3125 8.734375 54.109375 11.28125 
L 54.109375 2.78125 
Q 49.265625 0.734375 44.1875 -0.34375 
Q 39.109375 -1.421875 33.890625 -1.421875 
Q 20.796875 -1.421875 13.15625 6.1875 
Q 5.515625 13.8125 5.515625 26.8125 
Q 5.515625 40.234375 12.765625 48.109375 
Q 20.015625 56 32.328125 56 
Q 43.359375 56 49.78125 48.890625 
Q 56.203125 41.796875 56.203125 29.59375 
z
M 47.21875 32.234375 
Q 47.125 39.59375 43.09375 43.984375 
Q 39.0625 48.390625 32.421875 48.390625 
Q 24.90625 48.390625 20.390625 44.140625 
Q 15.875 39.890625 15.1875 32.171875 
z
" id="DejaVuSans-101"/>
       <path d="M 41.109375 46.296875 
Q 39.59375 47.171875 37.8125 47.578125 
Q 36.03125 48 33.890625 48 
Q 26.265625 48 22.1875 43.046875 
Q 18.109375 38.09375 18.109375 28.8125 
L 18.109375 0 
L 9.078125 0 
L 9.078125 54.6875 
L 18.109375 54.6875 
L 18.109375 46.1875 
Q 20.953125 51.171875 25.484375 53.578125 
Q 30.03125 56 36.53125 56 
Q 37.453125 56 38.578125 55.875 
Q 39.703125 55.765625 41.0625 55.515625 
z
" id="DejaVuSans-114"/>
       <path d="M 30.609375 48.390625 
Q 23.390625 48.390625 19.1875 42.75 
Q 14.984375 37.109375 14.984375 27.296875 
Q 14.984375 17.484375 19.15625 11.84375 
Q 23.34375 6.203125 30.609375 6.203125 
Q 37.796875 6.203125 41.984375 11.859375 
Q 46.1875 17.53125 46.1875 27.296875 
Q 46.1875 37.015625 41.984375 42.703125 
Q 37.796875 48.390625 30.609375 48.390625 
z
M 30.609375 56 
Q 42.328125 56 49.015625 48.375 
Q 55.71875 40.765625 55.71875 27.296875 
Q 55.71875 13.875 49.015625 6.21875 
Q 42.328125 -1.421875 30.609375 -1.421875 
Q 18.84375 -1.421875 12.171875 6.21875 
Q 5.515625 13.875 5.515625 27.296875 
Q 5.515625 40.765625 12.171875 48.375 
Q 18.84375 56 30.609375 56 
z
" id="DejaVuSans-111"/>
       <path d="M 37.109375 75.984375 
L 37.109375 68.5 
L 28.515625 68.5 
Q 23.6875 68.5 21.796875 66.546875 
Q 19.921875 64.59375 19.921875 59.515625 
L 19.921875 54.6875 
L 34.71875 54.6875 
L 34.71875 47.703125 
L 19.921875 47.703125 
L 19.921875 0 
L 10.890625 0 
L 10.890625 47.703125 
L 2.296875 47.703125 
L 2.296875 54.6875 
L 10.890625 54.6875 
L 10.890625 58.5 
Q 10.890625 67.625 15.140625 71.796875 
Q 19.390625 75.984375 28.609375 75.984375 
z
" id="DejaVuSans-102"/>
       <path d="M 18.3125 70.21875 
L 18.3125 54.6875 
L 36.8125 54.6875 
L 36.8125 47.703125 
L 18.3125 47.703125 
L 18.3125 18.015625 
Q 18.3125 11.328125 20.140625 9.421875 
Q 21.96875 7.515625 27.59375 7.515625 
L 36.8125 7.515625 
L 36.8125 0 
L 27.59375 0 
Q 17.1875 0 13.234375 3.875 
Q 9.28125 7.765625 9.28125 18.015625 
L 9.28125 47.703125 
L 2.6875 47.703125 
L 2.6875 54.6875 
L 9.28125 54.6875 
L 9.28125 70.21875 
z
" id="DejaVuSans-116"/>
       <path d="M 9.421875 54.6875 
L 18.40625 54.6875 
L 18.40625 0 
L 9.421875 0 
z
M 9.421875 75.984375 
L 18.40625 75.984375 
L 18.40625 64.59375 
L 9.421875 64.59375 
z
" id="DejaVuSans-105"/>
       <path d="M 44.28125 53.078125 
L 44.28125 44.578125 
Q 40.484375 46.53125 36.375 47.5 
Q 32.28125 48.484375 27.875 48.484375 
Q 21.1875 48.484375 17.84375 46.4375 
Q 14.5 44.390625 14.5 40.28125 
Q 14.5 37.15625 16.890625 35.375 
Q 19.28125 33.59375 26.515625 31.984375 
L 29.59375 31.296875 
Q 39.15625 29.25 43.1875 25.515625 
Q 47.21875 21.78125 47.21875 15.09375 
Q 47.21875 7.46875 41.1875 3.015625 
Q 35.15625 -1.421875 24.609375 -1.421875 
Q 20.21875 -1.421875 15.453125 -0.5625 
Q 10.6875 0.296875 5.421875 2 
L 5.421875 11.28125 
Q 10.40625 8.6875 15.234375 7.390625 
Q 20.0625 6.109375 24.8125 6.109375 
Q 31.15625 6.109375 34.5625 8.28125 
Q 37.984375 10.453125 37.984375 14.40625 
Q 37.984375 18.0625 35.515625 20.015625 
Q 33.0625 21.96875 24.703125 23.78125 
L 21.578125 24.515625 
Q 13.234375 26.265625 9.515625 29.90625 
Q 5.8125 33.546875 5.8125 39.890625 
Q 5.8125 47.609375 11.28125 51.796875 
Q 16.75 56 26.8125 56 
Q 31.78125 56 36.171875 55.265625 
Q 40.578125 54.546875 44.28125 53.078125 
z
" id="DejaVuSans-115"/>
       <path d="M 18.109375 8.203125 
L 18.109375 -20.796875 
L 9.078125 -20.796875 
L 9.078125 54.6875 
L 18.109375 54.6875 
L 18.109375 46.390625 
Q 20.953125 51.265625 25.265625 53.625 
Q 29.59375 56 35.59375 56 
Q 45.5625 56 51.78125 48.09375 
Q 58.015625 40.1875 58.015625 27.296875 
Q 58.015625 14.40625 51.78125 6.484375 
Q 45.5625 -1.421875 35.59375 -1.421875 
Q 29.59375 -1.421875 25.265625 0.953125 
Q 20.953125 3.328125 18.109375 8.203125 
z
M 48.6875 27.296875 
Q 48.6875 37.203125 44.609375 42.84375 
Q 40.53125 48.484375 33.40625 48.484375 
Q 26.265625 48.484375 22.1875 42.84375 
Q 18.109375 37.203125 18.109375 27.296875 
Q 18.109375 17.390625 22.1875 11.75 
Q 26.265625 6.109375 33.40625 6.109375 
Q 40.53125 6.109375 44.609375 11.75 
Q 48.6875 17.390625 48.6875 27.296875 
z
" id="DejaVuSans-112"/>
       <path d="M 30.421875 75.984375 
L 30.421875 -13.1875 
L 9.71875 -13.1875 
L 9.71875 -6.203125 
L 21.390625 -6.203125 
L 21.390625 69 
L 9.71875 69 
L 9.71875 75.984375 
z
" id="DejaVuSans-93"/>
      </defs>
      <use xlink:href="#DejaVuSans-78"/>
      <use x="74.804688" xlink:href="#DejaVuSans-32"/>
      <use x="106.591797" xlink:href="#DejaVuSans-91"/>
      <use x="145.605469" xlink:href="#DejaVuSans-110"/>
      <use x="208.984375" xlink:href="#DejaVuSans-117"/>
      <use x="272.363281" xlink:href="#DejaVuSans-109"/>
      <use x="369.775391" xlink:href="#DejaVuSans-98"/>
      <use x="433.251953" xlink:href="#DejaVuSans-101"/>
      <use x="494.775391" xlink:href="#DejaVuSans-114"/>
      <use x="535.888672" xlink:href="#DejaVuSans-32"/>
      <use x="567.675781" xlink:href="#DejaVuSans-111"/>
      <use x="628.857422" xlink:href="#DejaVuSans-102"/>
      <use x="664.0625" xlink:href="#DejaVuSans-32"/>
      <use x="695.849609" xlink:href="#DejaVuSans-116"/>
      <use x="735.058594" xlink:href="#DejaVuSans-105"/>
      <use x="762.841797" xlink:href="#DejaVuSans-109"/>
      <use x="860.253906" xlink:href="#DejaVuSans-101"/>
      <use x="921.777344" xlink:href="#DejaVuSans-32"/>
      <use x="953.564453" xlink:href="#DejaVuSans-115"/>
      <use x="1005.664062" xlink:href="#DejaVuSans-116"/>
      <use x="1044.873047" xlink:href="#DejaVuSans-101"/>
      <use x="1106.396484" xlink:href="#DejaVuSans-112"/>
      <use x="1169.873047" xlink:href="#DejaVuSans-115"/>
      <use x="1221.972656" xlink:href="#DejaVuSans-93"/>
     </g>
    </g>
    <g id="text_8">
     <!-- 1e7 -->
     <g transform="translate(425.001875 347.676562)scale(0.1 -0.1)">
      <defs>
       <path d="M 8.203125 72.90625 
L 55.078125 72.90625 
L 55.078125 68.703125 
L 28.609375 0 
L 18.3125 0 
L 43.21875 64.59375 
L 8.203125 64.59375 
z
" id="DejaVuSans-55"/>
      </defs>
      <use xlink:href="#DejaVuSans-49"/>
      <use x="63.623047" xlink:href="#DejaVuSans-101"/>
      <use x="125.146484" xlink:href="#DejaVuSans-55"/>
     </g>
    </g>
   </g>
   <g id="matplotlib.axis_2">
    <g id="ytick_1">
     <g id="line2d_13">
      <path clip-path="url(#pa67464077c)" d="M 61.65 299.540563 
L 443.88 299.540563 
" style="fill:none;stroke:#b0b0b0;stroke-linecap:square;stroke-width:0.8;"/>
     </g>
     <g id="line2d_14">
      <defs>
       <path d="M 0 0 
L -3.5 0 
" id="m5c992bd251" style="stroke:#000000;stroke-width:0.8;"/>
      </defs>
      <g>
       <use style="stroke:#000000;stroke-width:0.8;" x="61.65" xlink:href="#m5c992bd251" y="299.540563"/>
      </g>
     </g>
     <g id="text_9">
      <!-- −2.0 -->
      <g transform="translate(30.367187 303.339782)scale(0.1 -0.1)">
       <defs>
        <path d="M 10.59375 35.5 
L 73.1875 35.5 
L 73.1875 27.203125 
L 10.59375 27.203125 
z
" id="DejaVuSans-8722"/>
       </defs>
       <use xlink:href="#DejaVuSans-8722"/>
       <use x="83.789062" xlink:href="#DejaVuSans-50"/>
       <use x="147.412109" xlink:href="#DejaVuSans-46"/>
       <use x="179.199219" xlink:href="#DejaVuSans-48"/>
      </g>
     </g>
    </g>
    <g id="ytick_2">
     <g id="line2d_15">
      <path clip-path="url(#pa67464077c)" d="M 61.65 260.293953 
L 443.88 260.293953 
" style="fill:none;stroke:#b0b0b0;stroke-linecap:square;stroke-width:0.8;"/>
     </g>
     <g id="line2d_16">
      <g>
       <use style="stroke:#000000;stroke-width:0.8;" x="61.65" xlink:href="#m5c992bd251" y="260.293953"/>
      </g>
     </g>
     <g id="text_10">
      <!-- −1.5 -->
      <g transform="translate(30.367187 264.093172)scale(0.1 -0.1)">
       <defs>
        <path d="M 10.796875 72.90625 
L 49.515625 72.90625 
L 49.515625 64.59375 
L 19.828125 64.59375 
L 19.828125 46.734375 
Q 21.96875 47.46875 24.109375 47.828125 
Q 26.265625 48.1875 28.421875 48.1875 
Q 40.625 48.1875 47.75 41.5 
Q 54.890625 34.8125 54.890625 23.390625 
Q 54.890625 11.625 47.5625 5.09375 
Q 40.234375 -1.421875 26.90625 -1.421875 
Q 22.3125 -1.421875 17.546875 -0.640625 
Q 12.796875 0.140625 7.71875 1.703125 
L 7.71875 11.625 
Q 12.109375 9.234375 16.796875 8.0625 
Q 21.484375 6.890625 26.703125 6.890625 
Q 35.15625 6.890625 40.078125 11.328125 
Q 45.015625 15.765625 45.015625 23.390625 
Q 45.015625 31 40.078125 35.4375 
Q 35.15625 39.890625 26.703125 39.890625 
Q 22.75 39.890625 18.8125 39.015625 
Q 14.890625 38.140625 10.796875 36.28125 
z
" id="DejaVuSans-53"/>
       </defs>
       <use xlink:href="#DejaVuSans-8722"/>
       <use x="83.789062" xlink:href="#DejaVuSans-49"/>
       <use x="147.412109" xlink:href="#DejaVuSans-46"/>
       <use x="179.199219" xlink:href="#DejaVuSans-53"/>
      </g>
     </g>
    </g>
    <g id="ytick_3">
     <g id="line2d_17">
      <path clip-path="url(#pa67464077c)" d="M 61.65 221.047343 
L 443.88 221.047343 
" style="fill:none;stroke:#b0b0b0;stroke-linecap:square;stroke-width:0.8;"/>
     </g>
     <g id="line2d_18">
      <g>
       <use style="stroke:#000000;stroke-width:0.8;" x="61.65" xlink:href="#m5c992bd251" y="221.047343"/>
      </g>
     </g>
     <g id="text_11">
      <!-- −1.0 -->
      <g transform="translate(30.367187 224.846561)scale(0.1 -0.1)">
       <use xlink:href="#DejaVuSans-8722"/>
       <use x="83.789062" xlink:href="#DejaVuSans-49"/>
       <use x="147.412109" xlink:href="#DejaVuSans-46"/>
       <use x="179.199219" xlink:href="#DejaVuSans-48"/>
      </g>
     </g>
    </g>
    <g id="ytick_4">
     <g id="line2d_19">
      <path clip-path="url(#pa67464077c)" d="M 61.65 181.800733 
L 443.88 181.800733 
" style="fill:none;stroke:#b0b0b0;stroke-linecap:square;stroke-width:0.8;"/>
     </g>
     <g id="line2d_20">
      <g>
       <use style="stroke:#000000;stroke-width:0.8;" x="61.65" xlink:href="#m5c992bd251" y="181.800733"/>
      </g>
     </g>
     <g id="text_12">
      <!-- −0.5 -->
      <g transform="translate(30.367187 185.599951)scale(0.1 -0.1)">
       <use xlink:href="#DejaVuSans-8722"/>
       <use x="83.789062" xlink:href="#DejaVuSans-48"/>
       <use x="147.412109" xlink:href="#DejaVuSans-46"/>
       <use x="179.199219" xlink:href="#DejaVuSans-53"/>
      </g>
     </g>
    </g>
    <g id="ytick_5">
     <g id="line2d_21">
      <path clip-path="url(#pa67464077c)" d="M 61.65 142.554122 
L 443.88 142.554122 
" style="fill:none;stroke:#b0b0b0;stroke-linecap:square;stroke-width:0.8;"/>
     </g>
     <g id="line2d_22">
      <g>
       <use style="stroke:#000000;stroke-width:0.8;" x="61.65" xlink:href="#m5c992bd251" y="142.554122"/>
      </g>
     </g>
     <g id="text_13">
      <!-- 0.0 -->
      <g transform="translate(38.746875 146.353341)scale(0.1 -0.1)">
       <use xlink:href="#DejaVuSans-48"/>
       <use x="63.623047" xlink:href="#DejaVuSans-46"/>
       <use x="95.410156" xlink:href="#DejaVuSans-48"/>
      </g>
     </g>
    </g>
    <g id="ytick_6">
     <g id="line2d_23">
      <path clip-path="url(#pa67464077c)" d="M 61.65 103.307512 
L 443.88 103.307512 
" style="fill:none;stroke:#b0b0b0;stroke-linecap:square;stroke-width:0.8;"/>
     </g>
     <g id="line2d_24">
      <g>
       <use style="stroke:#000000;stroke-width:0.8;" x="61.65" xlink:href="#m5c992bd251" y="103.307512"/>
      </g>
     </g>
     <g id="text_14">
      <!-- 0.5 -->
      <g transform="translate(38.746875 107.106731)scale(0.1 -0.1)">
       <use xlink:href="#DejaVuSans-48"/>
       <use x="63.623047" xlink:href="#DejaVuSans-46"/>
       <use x="95.410156" xlink:href="#DejaVuSans-53"/>
      </g>
     </g>
    </g>
    <g id="ytick_7">
     <g id="line2d_25">
      <path clip-path="url(#pa67464077c)" d="M 61.65 64.060902 
L 443.88 64.060902 
" style="fill:none;stroke:#b0b0b0;stroke-linecap:square;stroke-width:0.8;"/>
     </g>
     <g id="line2d_26">
      <g>
       <use style="stroke:#000000;stroke-width:0.8;" x="61.65" xlink:href="#m5c992bd251" y="64.060902"/>
      </g>
     </g>
     <g id="text_15">
      <!-- 1.0 -->
      <g transform="translate(38.746875 67.860121)scale(0.1 -0.1)">
       <use xlink:href="#DejaVuSans-49"/>
       <use x="63.623047" xlink:href="#DejaVuSans-46"/>
       <use x="95.410156" xlink:href="#DejaVuSans-48"/>
      </g>
     </g>
    </g>
    <g id="text_16">
     <!-- Energy $[E_{tot}/max(|E_{tot}|)]$ -->
     <g transform="translate(23.967187 241.1)rotate(-90)scale(0.1 -0.1)">
      <defs>
       <path d="M 9.8125 72.90625 
L 55.90625 72.90625 
L 55.90625 64.59375 
L 19.671875 64.59375 
L 19.671875 43.015625 
L 54.390625 43.015625 
L 54.390625 34.71875 
L 19.671875 34.71875 
L 19.671875 8.296875 
L 56.78125 8.296875 
L 56.78125 0 
L 9.8125 0 
z
" id="DejaVuSans-69"/>
       <path d="M 45.40625 27.984375 
Q 45.40625 37.75 41.375 43.109375 
Q 37.359375 48.484375 30.078125 48.484375 
Q 22.859375 48.484375 18.828125 43.109375 
Q 14.796875 37.75 14.796875 27.984375 
Q 14.796875 18.265625 18.828125 12.890625 
Q 22.859375 7.515625 30.078125 7.515625 
Q 37.359375 7.515625 41.375 12.890625 
Q 45.40625 18.265625 45.40625 27.984375 
z
M 54.390625 6.78125 
Q 54.390625 -7.171875 48.1875 -13.984375 
Q 42 -20.796875 29.203125 -20.796875 
Q 24.46875 -20.796875 20.265625 -20.09375 
Q 16.0625 -19.390625 12.109375 -17.921875 
L 12.109375 -9.1875 
Q 16.0625 -11.328125 19.921875 -12.34375 
Q 23.78125 -13.375 27.78125 -13.375 
Q 36.625 -13.375 41.015625 -8.765625 
Q 45.40625 -4.15625 45.40625 5.171875 
L 45.40625 9.625 
Q 42.625 4.78125 38.28125 2.390625 
Q 33.9375 0 27.875 0 
Q 17.828125 0 11.671875 7.65625 
Q 5.515625 15.328125 5.515625 27.984375 
Q 5.515625 40.671875 11.671875 48.328125 
Q 17.828125 56 27.875 56 
Q 33.9375 56 38.28125 53.609375 
Q 42.625 51.21875 45.40625 46.390625 
L 45.40625 54.6875 
L 54.390625 54.6875 
z
" id="DejaVuSans-103"/>
       <path d="M 32.171875 -5.078125 
Q 28.375 -14.84375 24.75 -17.8125 
Q 21.140625 -20.796875 15.09375 -20.796875 
L 7.90625 -20.796875 
L 7.90625 -13.28125 
L 13.1875 -13.28125 
Q 16.890625 -13.28125 18.9375 -11.515625 
Q 21 -9.765625 23.484375 -3.21875 
L 25.09375 0.875 
L 2.984375 54.6875 
L 12.5 54.6875 
L 29.59375 11.921875 
L 46.6875 54.6875 
L 56.203125 54.6875 
z
" id="DejaVuSans-121"/>
       <path d="M 16.890625 72.90625 
L 62.984375 72.90625 
L 61.375 64.59375 
L 25.09375 64.59375 
L 20.90625 43.015625 
L 55.71875 43.015625 
L 54.109375 34.71875 
L 19.28125 34.71875 
L 14.203125 8.296875 
L 51.3125 8.296875 
L 49.703125 0 
L 2.6875 0 
z
" id="DejaVuSans-Oblique-69"/>
       <path d="M 42.28125 54.6875 
L 40.921875 47.703125 
L 23 47.703125 
L 17.1875 18.015625 
Q 16.890625 16.359375 16.75 15.234375 
Q 16.609375 14.109375 16.609375 13.484375 
Q 16.609375 10.359375 18.484375 8.9375 
Q 20.359375 7.515625 24.515625 7.515625 
L 33.59375 7.515625 
L 32.078125 0 
L 23.484375 0 
Q 15.484375 0 11.546875 3.125 
Q 7.625 6.25 7.625 12.59375 
Q 7.625 13.71875 7.765625 15.0625 
Q 7.90625 16.40625 8.203125 18.015625 
L 14.015625 47.703125 
L 6.390625 47.703125 
L 7.8125 54.6875 
L 15.28125 54.6875 
L 18.3125 70.21875 
L 27.296875 70.21875 
L 24.3125 54.6875 
z
" id="DejaVuSans-Oblique-116"/>
       <path d="M 25.390625 -1.421875 
Q 15.765625 -1.421875 10.171875 4.515625 
Q 4.59375 10.453125 4.59375 20.703125 
Q 4.59375 26.65625 6.515625 32.828125 
Q 8.453125 39.015625 11.53125 43.21875 
Q 16.359375 49.75 22.3125 52.875 
Q 28.265625 56 35.796875 56 
Q 45.125 56 50.859375 50.1875 
Q 56.59375 44.390625 56.59375 35.015625 
Q 56.59375 28.515625 54.6875 22.0625 
Q 52.78125 15.625 49.703125 11.375 
Q 44.921875 4.828125 38.96875 1.703125 
Q 33.015625 -1.421875 25.390625 -1.421875 
z
M 13.921875 21 
Q 13.921875 13.578125 17.015625 9.890625 
Q 20.125 6.203125 26.421875 6.203125 
Q 35.453125 6.203125 41.375 14.078125 
Q 47.3125 21.96875 47.3125 34.078125 
Q 47.3125 41.15625 44.140625 44.765625 
Q 40.96875 48.390625 34.8125 48.390625 
Q 29.734375 48.390625 25.78125 46.015625 
Q 21.828125 43.65625 18.703125 38.8125 
Q 16.40625 35.203125 15.15625 30.5625 
Q 13.921875 25.921875 13.921875 21 
z
" id="DejaVuSans-Oblique-111"/>
       <path d="M 25.390625 72.90625 
L 33.6875 72.90625 
L 8.296875 -9.28125 
L 0 -9.28125 
z
" id="DejaVuSans-47"/>
       <path d="M 89.796875 33.015625 
L 83.40625 0 
L 74.421875 0 
L 80.71875 32.71875 
Q 81.109375 34.8125 81.296875 36.328125 
Q 81.5 37.84375 81.5 38.921875 
Q 81.5 43.3125 79.046875 45.75 
Q 76.609375 48.1875 72.21875 48.1875 
Q 65.671875 48.1875 60.546875 43.28125 
Q 55.421875 38.375 53.90625 30.515625 
L 47.90625 0 
L 38.921875 0 
L 45.3125 32.71875 
Q 45.703125 34.515625 45.890625 36.046875 
Q 46.09375 37.59375 46.09375 38.8125 
Q 46.09375 43.265625 43.65625 45.71875 
Q 41.21875 48.1875 36.921875 48.1875 
Q 30.28125 48.1875 25.140625 43.28125 
Q 20.015625 38.375 18.5 30.515625 
L 12.5 0 
L 3.515625 0 
L 14.203125 54.6875 
L 23.1875 54.6875 
L 21.484375 46.1875 
Q 25.140625 50.984375 30.046875 53.484375 
Q 34.96875 56 40.578125 56 
Q 46.53125 56 50.359375 52.875 
Q 54.203125 49.75 54.984375 44.1875 
Q 59.078125 49.953125 64.46875 52.96875 
Q 69.875 56 75.875 56 
Q 82.90625 56 86.734375 51.953125 
Q 90.578125 47.90625 90.578125 40.484375 
Q 90.578125 38.875 90.375 36.9375 
Q 90.1875 35.015625 89.796875 33.015625 
z
" id="DejaVuSans-Oblique-109"/>
       <path d="M 53.71875 31.203125 
L 47.609375 0 
L 38.625 0 
L 40.28125 8.296875 
Q 36.328125 3.421875 31.265625 1 
Q 26.21875 -1.421875 20.015625 -1.421875 
Q 13.03125 -1.421875 8.5625 2.84375 
Q 4.109375 7.125 4.109375 13.8125 
Q 4.109375 23.390625 11.75 28.953125 
Q 19.390625 34.515625 32.8125 34.515625 
L 45.3125 34.515625 
L 45.796875 36.921875 
Q 45.90625 37.3125 45.953125 37.765625 
Q 46 38.234375 46 39.203125 
Q 46 43.5625 42.453125 45.96875 
Q 38.921875 48.390625 32.515625 48.390625 
Q 28.125 48.390625 23.5 47.265625 
Q 18.890625 46.140625 14.015625 43.890625 
L 15.578125 52.203125 
Q 20.65625 54.109375 25.515625 55.046875 
Q 30.375 56 34.90625 56 
Q 44.578125 56 49.625 51.796875 
Q 54.6875 47.609375 54.6875 39.59375 
Q 54.6875 37.984375 54.4375 35.8125 
Q 54.203125 33.640625 53.71875 31.203125 
z
M 44 27.484375 
L 35.015625 27.484375 
Q 23.96875 27.484375 18.671875 24.53125 
Q 13.375 21.578125 13.375 15.375 
Q 13.375 11.078125 16.078125 8.640625 
Q 18.796875 6.203125 23.578125 6.203125 
Q 30.90625 6.203125 36.375 11.453125 
Q 41.84375 16.703125 43.609375 25.484375 
z
" id="DejaVuSans-Oblique-97"/>
       <path d="M 60.015625 54.6875 
L 34.90625 27.875 
L 50.296875 0 
L 39.984375 0 
L 28.421875 21.6875 
L 8.296875 0 
L -2.59375 0 
L 24.3125 28.8125 
L 10.015625 54.6875 
L 20.3125 54.6875 
L 30.8125 34.90625 
L 49.125 54.6875 
z
" id="DejaVuSans-Oblique-120"/>
       <path d="M 31 75.875 
Q 24.46875 64.65625 21.28125 53.65625 
Q 18.109375 42.671875 18.109375 31.390625 
Q 18.109375 20.125 21.3125 9.0625 
Q 24.515625 -2 31 -13.1875 
L 23.1875 -13.1875 
Q 15.875 -1.703125 12.234375 9.375 
Q 8.59375 20.453125 8.59375 31.390625 
Q 8.59375 42.28125 12.203125 53.3125 
Q 15.828125 64.359375 23.1875 75.875 
z
" id="DejaVuSans-40"/>
       <path d="M 21 76.421875 
L 21 -23.578125 
L 12.703125 -23.578125 
L 12.703125 76.421875 
z
" id="DejaVuSans-124"/>
       <path d="M 8.015625 75.875 
L 15.828125 75.875 
Q 23.140625 64.359375 26.78125 53.3125 
Q 30.421875 42.28125 30.421875 31.390625 
Q 30.421875 20.453125 26.78125 9.375 
Q 23.140625 -1.703125 15.828125 -13.1875 
L 8.015625 -13.1875 
Q 14.5 -2 17.703125 9.0625 
Q 20.90625 20.125 20.90625 31.390625 
Q 20.90625 42.671875 17.703125 53.65625 
Q 14.5 64.65625 8.015625 75.875 
z
" id="DejaVuSans-41"/>
      </defs>
      <use transform="translate(0 0.578125)" xlink:href="#DejaVuSans-69"/>
      <use transform="translate(63.183594 0.578125)" xlink:href="#DejaVuSans-110"/>
      <use transform="translate(126.5625 0.578125)" xlink:href="#DejaVuSans-101"/>
      <use transform="translate(188.085938 0.578125)" xlink:href="#DejaVuSans-114"/>
      <use transform="translate(229.199219 0.578125)" xlink:href="#DejaVuSans-103"/>
      <use transform="translate(292.675781 0.578125)" xlink:href="#DejaVuSans-121"/>
      <use transform="translate(351.855469 0.578125)" xlink:href="#DejaVuSans-32"/>
      <use transform="translate(383.642578 0.578125)" xlink:href="#DejaVuSans-91"/>
      <use transform="translate(422.65625 0.578125)" xlink:href="#DejaVuSans-Oblique-69"/>
      <use transform="translate(485.839844 -15.828125)scale(0.7)" xlink:href="#DejaVuSans-Oblique-116"/>
      <use transform="translate(513.286133 -15.828125)scale(0.7)" xlink:href="#DejaVuSans-Oblique-111"/>
      <use transform="translate(556.113281 -15.828125)scale(0.7)" xlink:href="#DejaVuSans-Oblique-116"/>
      <use transform="translate(586.293945 0.578125)" xlink:href="#DejaVuSans-47"/>
      <use transform="translate(619.985352 0.578125)" xlink:href="#DejaVuSans-Oblique-109"/>
      <use transform="translate(717.397461 0.578125)" xlink:href="#DejaVuSans-Oblique-97"/>
      <use transform="translate(778.676758 0.578125)" xlink:href="#DejaVuSans-Oblique-120"/>
      <use transform="translate(837.856445 0.578125)" xlink:href="#DejaVuSans-40"/>
      <use transform="translate(876.870117 0.578125)" xlink:href="#DejaVuSans-124"/>
      <use transform="translate(910.561523 0.578125)" xlink:href="#DejaVuSans-Oblique-69"/>
      <use transform="translate(973.745117 -15.828125)scale(0.7)" xlink:href="#DejaVuSans-Oblique-116"/>
      <use transform="translate(1001.191406 -15.828125)scale(0.7)" xlink:href="#DejaVuSans-Oblique-111"/>
      <use transform="translate(1044.018555 -15.828125)scale(0.7)" xlink:href="#DejaVuSans-Oblique-116"/>
      <use transform="translate(1074.199219 0.578125)" xlink:href="#DejaVuSans-124"/>
      <use transform="translate(1107.890625 0.578125)" xlink:href="#DejaVuSans-41"/>
      <use transform="translate(1146.904297 0.578125)" xlink:href="#DejaVuSans-93"/>
     </g>
    </g>
   </g>
   <g id="line2d_27">
    <path clip-path="url(#pa67464077c)" d="M 79.024091 55.8 
L 79.997137 55.910022 
L 81.004935 56.251516 
L 82.082237 56.857005 
L 83.298545 57.804721 
L 84.758114 59.240724 
L 86.738959 61.530682 
L 91.673694 67.353221 
L 93.411277 68.993447 
L 94.94035 70.134543 
L 96.295664 70.876425 
L 97.581476 71.32882 
L 98.797784 71.523227 
L 99.97934 71.490997 
L 101.195648 71.231104 
L 102.446708 70.728312 
L 103.767271 69.949512 
L 105.192089 68.844015 
L 106.825416 67.27997 
L 108.841013 65.015064 
L 114.679291 58.217561 
L 116.104109 57.024749 
L 117.285665 56.315684 
L 118.328215 55.934488 
L 119.336013 55.80044 
L 120.309059 55.895079 
L 121.316857 56.221191 
L 122.394159 56.811443 
L 123.610467 57.744655 
L 125.035285 59.130409 
L 126.946626 61.321186 
L 132.194126 67.497231 
L 133.896957 69.081494 
L 135.391279 70.179519 
L 136.746593 70.907629 
L 138.032404 71.3464 
L 139.248712 71.527329 
L 140.430269 71.482207 
L 141.611825 71.21997 
L 142.862885 70.710586 
L 144.218199 69.901021 
L 145.643017 68.782631 
L 147.276345 67.20628 
L 149.291941 64.931118 
L 154.956461 58.316302 
L 156.381279 57.099611 
L 157.597587 56.349086 
L 158.674889 55.943132 
L 159.682687 55.801172 
L 160.655733 55.888194 
L 161.663531 56.206687 
L 162.740833 56.789468 
L 163.957141 57.715355 
L 165.381959 59.094516 
L 167.328051 61.322358 
L 172.575552 67.49811 
L 174.278383 69.082373 
L 175.772704 70.180105 
L 177.128019 70.908069 
L 178.41383 71.346693 
L 179.630138 71.527475 
L 180.811694 71.48206 
L 181.993251 71.219677 
L 183.24431 70.71 
L 184.564873 69.924314 
L 185.989691 68.812078 
L 187.623019 67.241733 
L 189.673367 64.929946 
L 195.337887 58.315423 
L 196.762705 57.098878 
L 197.979013 56.348646 
L 199.021562 55.951922 
L 200.029361 55.802051 
L 201.002407 55.881455 
L 202.010205 56.19233 
L 203.087506 56.76764 
L 204.269063 57.656462 
L 205.659129 58.985812 
L 207.535718 61.114326 
L 213.165487 67.710097 
L 214.833566 69.225797 
L 216.327888 70.288809 
L 217.683202 70.982345 
L 218.934262 71.37907 
L 220.15057 71.533482 
L 221.332126 71.462282 
L 222.548434 71.162688 
L 223.799494 70.620341 
L 225.120057 69.802279 
L 226.579626 68.627194 
L 228.247706 66.983452 
L 230.298054 64.636944 
L 235.545554 58.4839 
L 236.970372 57.228385 
L 238.18668 56.437133 
L 239.263981 55.990598 
L 240.271779 55.808644 
L 241.244826 55.856842 
L 242.217872 56.122888 
L 243.295173 56.659375 
L 244.47673 57.511132 
L 245.866796 58.806495 
L 247.639131 60.783673 
L 253.894429 68.052617 
L 255.527757 69.473531 
L 256.952575 70.433405 
L 258.273138 71.065265 
L 259.524197 71.422141 
L 260.740505 71.536705 
L 261.922062 71.426976 
L 263.13837 71.088119 
L 264.389429 70.507096 
L 265.744744 69.624573 
L 267.204313 68.405245 
L 268.941896 66.644155 
L 271.166002 64.045373 
L 275.509959 58.905237 
L 277.039032 57.475386 
L 278.324844 56.571475 
L 279.436897 56.056816 
L 280.444695 55.826956 
L 281.417741 55.828128 
L 282.390788 56.048319 
L 283.398586 56.498224 
L 284.54539 57.261788 
L 285.865953 58.424127 
L 287.499281 60.175547 
L 290.244662 63.50288 
L 293.12905 66.881048 
L 294.936136 68.666017 
L 296.465209 69.881682 
L 297.855275 70.713955 
L 299.141086 71.232862 
L 300.357394 71.491729 
L 301.573702 71.520443 
L 302.79001 71.318418 
L 304.006318 70.889317 
L 305.29213 70.197246 
L 306.682196 69.19049 
L 308.24602 67.770749 
L 310.087858 65.783169 
L 312.902742 62.374968 
L 315.648123 59.160148 
L 317.2467 57.619397 
L 318.532511 56.674758 
L 319.644564 56.119226 
L 320.687114 55.844683 
L 321.66016 55.814504 
L 322.633206 56.003929 
L 323.641004 56.423802 
L 324.787809 57.156893 
L 326.07362 58.257116 
L 327.672197 59.938362 
L 330.243819 63.032611 
L 333.440972 66.807065 
L 335.248058 68.604779 
L 336.811882 69.858096 
L 338.201949 70.696961 
L 339.48776 71.22246 
L 340.73882 71.491876 
L 341.955128 71.520297 
L 343.136684 71.327209 
L 344.387744 70.888877 
L 345.673555 70.19666 
L 347.063621 69.189611 
L 348.627446 67.769723 
L 350.469284 65.782143 
L 353.423174 62.202536 
L 356.133804 59.048661 
L 357.697628 57.560064 
L 358.98344 56.631833 
L 360.095493 56.093002 
L 361.103291 55.839702 
L 362.076337 55.81758 
L 363.049383 56.014917 
L 364.091933 56.461306 
L 365.238738 57.210073 
L 366.524549 58.324653 
L 368.157877 60.0582 
L 370.7295 63.162558 
L 373.822397 66.80809 
L 375.629483 68.605658 
L 377.193308 69.858828 
L 378.618126 70.714834 
L 379.903937 71.233448 
L 381.120245 71.492022 
L 382.336553 71.520297 
L 383.552861 71.317979 
L 384.803921 70.872909 
L 386.089732 70.173952 
L 387.479798 69.160458 
L 389.043623 67.734123 
L 390.885461 65.740976 
L 393.8046 62.201364 
L 396.445726 59.121179 
L 398.00955 57.617785 
L 399.295362 56.673439 
L 400.442166 56.105455 
L 401.449964 55.84439 
L 402.423011 55.81465 
L 403.430809 56.015357 
L 404.438607 56.443286 
L 405.55066 57.158358 
L 406.836471 58.258874 
L 408.469799 59.980115 
L 411.00667 63.034955 
L 414.203823 66.809116 
L 416.010909 68.606537 
L 417.574733 69.859414 
L 418.9648 70.697986 
L 420.250611 71.223046 
L 421.50167 71.492022 
L 422.683227 71.522641 
L 423.899535 71.326622 
L 425.115843 70.903381 
L 426.401654 70.21717 
L 426.505909 70.151244 
L 426.505909 70.151244 
" style="fill:none;stroke:#1f77b4;stroke-linecap:square;stroke-width:1.5;"/>
   </g>
   <g id="line2d_28">
    <path clip-path="url(#pa67464077c)" d="M 79.024091 307.8 
L 79.997137 307.690124 
L 80.935432 307.379542 
L 81.94323 306.834558 
L 83.055283 306.005362 
L 84.445349 304.689782 
L 85.974422 302.985975 
L 92.611989 295.319574 
L 94.280068 293.920489 
L 95.809141 292.959442 
L 97.164456 292.391018 
L 98.51977 292.100946 
L 99.875085 292.098016 
L 100.952386 292.298722 
L 102.342453 292.821731 
L 103.524009 293.489776 
L 104.775069 294.406873 
L 106.199887 295.687292 
L 108.423993 298.094304 
L 110.648099 300.791389 
L 113.949506 304.654622 
L 115.409076 306.036127 
L 116.868645 307.06603 
L 117.841692 307.518718 
L 118.953745 307.77656 
L 119.822536 307.780955 
L 120.934589 307.530438 
L 122.116146 306.963479 
L 123.193447 306.204603 
L 124.51401 305.00769 
L 125.904076 303.508984 
L 128.336692 300.574567 
L 130.977818 297.413074 
L 133.271427 295.063197 
L 134.661494 293.920489 
L 136.190567 292.959442 
L 137.580633 292.379298 
L 138.901196 292.100946 
L 140.256511 292.098016 
L 141.611825 292.380763 
L 142.723878 292.821731 
L 144.218199 293.699272 
L 145.851527 295.003132 
L 147.3806 296.504768 
L 149.361445 298.752094 
L 154.330932 304.656087 
L 155.790501 306.036127 
L 157.006809 306.923924 
L 158.223117 307.518718 
L 159.33517 307.77656 
L 160.203962 307.780955 
L 161.316015 307.528973 
L 162.289061 307.085075 
L 163.609624 306.176768 
L 165.2082 304.688317 
L 167.223796 302.404366 
L 172.193283 296.500373 
L 174.000369 294.75408 
L 175.668449 293.486846 
L 177.128019 292.69281 
L 178.483333 292.237192 
L 179.803896 292.065785 
L 181.159211 292.172731 
L 182.549277 292.578539 
L 183.696082 293.130848 
L 185.225155 294.159286 
L 186.580469 295.322504 
L 188.665569 297.49658 
L 191.341446 300.707883 
L 194.712357 304.657552 
L 196.171927 306.037592 
L 197.388235 306.923924 
L 198.430784 307.452792 
L 199.334327 307.720889 
L 200.411629 307.79414 
L 201.48893 307.597829 
L 202.461977 307.196416 
L 203.504526 306.547416 
L 204.720834 305.542419 
L 206.249907 303.977787 
L 209.134295 300.529152 
L 211.740669 297.411609 
L 213.582507 295.48219 
L 215.076828 294.181261 
L 216.640653 293.127918 
L 218.065471 292.471593 
L 219.420785 292.131711 
L 220.741348 292.076041 
L 221.818649 292.231332 
L 222.930702 292.578539 
L 224.35552 293.294929 
L 225.60658 294.159286 
L 227.344163 295.690222 
L 229.568269 298.097234 
L 236.10158 305.643504 
L 237.317888 306.626526 
L 238.39519 307.269666 
L 239.541995 307.684264 
L 240.619296 307.8 
L 241.522839 307.690124 
L 242.634892 307.298966 
L 243.677442 306.693917 
L 244.824246 305.792935 
L 246.283816 304.35576 
L 248.612177 301.641095 
L 252.990886 296.460817 
L 254.76322 294.752615 
L 256.118535 293.694877 
L 257.612856 292.818801 
L 258.968171 292.307512 
L 260.323485 292.077506 
L 261.400787 292.098016 
L 262.72135 292.370508 
L 264.146168 292.962372 
L 265.675241 293.924884 
L 266.995804 295.006062 
L 268.524876 296.507698 
L 270.505721 298.756489 
L 276.483006 305.644969 
L 277.942575 306.793538 
L 279.193635 307.454257 
L 280.270937 307.75019 
L 281.17448 307.79414 
L 282.251781 307.596364 
L 283.224827 307.194951 
L 284.267377 306.547416 
L 285.761698 305.277252 
L 287.395026 303.544144 
L 289.862394 300.568707 
L 293.302808 296.534068 
L 295.144646 294.75115 
L 296.812725 293.485381 
L 298.272295 292.691345 
L 299.627609 292.237192 
L 300.704911 292.077506 
L 301.782212 292.098016 
L 303.102775 292.370508 
L 304.527593 292.962372 
L 306.056666 293.924884 
L 307.724746 295.325434 
L 309.809845 297.49951 
L 312.485723 300.710813 
L 315.092097 303.832751 
L 317.03819 305.801725 
L 318.567262 306.947364 
L 319.748819 307.520183 
L 320.860872 307.778025 
L 321.903422 307.75898 
L 322.806965 307.540693 
L 324.023273 306.960549 
L 325.100574 306.201673 
L 326.733902 304.683922 
L 328.228223 303.01967 
L 334.900541 295.315179 
L 336.568621 293.916094 
L 338.097694 292.956512 
L 339.453008 292.389553 
L 340.565061 292.131711 
L 341.885624 292.076041 
L 342.962926 292.231332 
L 344.352992 292.69574 
L 345.812562 293.492706 
L 347.411138 294.70134 
L 349.287727 296.509163 
L 351.268572 298.757954 
L 356.238059 304.661947 
L 357.975642 306.266134 
L 359.157198 307.070425 
L 360.304003 307.578783 
L 361.242297 307.778025 
L 362.284847 307.75898 
L 363.18839 307.539228 
L 364.196188 307.082145 
L 365.481999 306.200208 
L 366.802562 305.003295 
L 368.609649 303.018205 
L 375.281967 295.313714 
L 376.950046 293.916094 
L 378.479119 292.956512 
L 379.834434 292.389553 
L 380.946487 292.131711 
L 382.26705 292.076041 
L 383.344351 292.231332 
L 384.734417 292.697205 
L 385.881222 293.297859 
L 387.132282 294.163681 
L 388.487596 295.326899 
L 390.572696 297.50244 
L 393.248573 300.713743 
L 396.619484 304.661947 
L 398.079054 306.041987 
L 399.538623 307.070425 
L 400.685428 307.578783 
L 401.623723 307.778025 
L 402.666272 307.75898 
L 403.569815 307.539228 
L 404.542862 307.10119 
L 405.863425 306.200208 
L 407.496753 304.682457 
L 409.512349 302.397041 
L 414.481836 296.494513 
L 416.288922 294.749685 
L 417.644237 293.693412 
L 418.860545 292.956512 
L 419.972598 292.470128 
L 421.293161 292.136106 
L 422.648475 292.076041 
L 423.725777 292.231332 
L 425.115843 292.697205 
L 426.505909 293.448756 
L 426.505909 293.448756 
" style="fill:none;stroke:#ff7f0e;stroke-linecap:square;stroke-width:1.5;"/>
   </g>
   <g id="line2d_29">
    <path clip-path="url(#pa67464077c)" d="M 79.024091 221.045878 
L 426.505909 221.045878 
L 426.505909 221.045878 
" style="fill:none;stroke:#2ca02c;stroke-dasharray:5.55,2.4;stroke-dashoffset:0;stroke-width:1.5;"/>
   </g>
   <g id="patch_3">
    <path d="M 61.65 320.4 
L 61.65 43.2 
" style="fill:none;stroke:#000000;stroke-linecap:square;stroke-linejoin:miter;stroke-width:0.8;"/>
   </g>
   <g id="patch_4">
    <path d="M 443.88 320.4 
L 443.88 43.2 
" style="fill:none;stroke:#000000;stroke-linecap:square;stroke-linejoin:miter;stroke-width:0.8;"/>
   </g>
   <g id="patch_5">
    <path d="M 61.65 320.4 
L 443.88 320.4 
" style="fill:none;stroke:#000000;stroke-linecap:square;stroke-linejoin:miter;stroke-width:0.8;"/>
   </g>
   <g id="patch_6">
    <path d="M 61.65 43.2 
L 443.88 43.2 
" style="fill:none;stroke:#000000;stroke-linecap:square;stroke-linejoin:miter;stroke-width:0.8;"/>
   </g>
   <g id="text_17">
    <!-- n = 2, N = 1.0e+07, dt = 1e-06, VelocityVerlet, Simulated time = 10.00 years -->
    <g transform="translate(18.242813 23.762625)scale(0.12 -0.12)">
     <defs>
      <path d="M 10.59375 45.40625 
L 73.1875 45.40625 
L 73.1875 37.203125 
L 10.59375 37.203125 
z
M 10.59375 25.484375 
L 73.1875 25.484375 
L 73.1875 17.1875 
L 10.59375 17.1875 
z
" id="DejaVuSans-61"/>
      <path d="M 11.71875 12.40625 
L 22.015625 12.40625 
L 22.015625 4 
L 14.015625 -11.625 
L 7.71875 -11.625 
L 11.71875 4 
z
" id="DejaVuSans-44"/>
      <path d="M 46 62.703125 
L 46 35.5 
L 73.1875 35.5 
L 73.1875 27.203125 
L 46 27.203125 
L 46 0 
L 37.796875 0 
L 37.796875 27.203125 
L 10.59375 27.203125 
L 10.59375 35.5 
L 37.796875 35.5 
L 37.796875 62.703125 
z
" id="DejaVuSans-43"/>
      <path d="M 45.40625 46.390625 
L 45.40625 75.984375 
L 54.390625 75.984375 
L 54.390625 0 
L 45.40625 0 
L 45.40625 8.203125 
Q 42.578125 3.328125 38.25 0.953125 
Q 33.9375 -1.421875 27.875 -1.421875 
Q 17.96875 -1.421875 11.734375 6.484375 
Q 5.515625 14.40625 5.515625 27.296875 
Q 5.515625 40.1875 11.734375 48.09375 
Q 17.96875 56 27.875 56 
Q 33.9375 56 38.25 53.625 
Q 42.578125 51.265625 45.40625 46.390625 
z
M 14.796875 27.296875 
Q 14.796875 17.390625 18.875 11.75 
Q 22.953125 6.109375 30.078125 6.109375 
Q 37.203125 6.109375 41.296875 11.75 
Q 45.40625 17.390625 45.40625 27.296875 
Q 45.40625 37.203125 41.296875 42.84375 
Q 37.203125 48.484375 30.078125 48.484375 
Q 22.953125 48.484375 18.875 42.84375 
Q 14.796875 37.203125 14.796875 27.296875 
z
" id="DejaVuSans-100"/>
      <path d="M 4.890625 31.390625 
L 31.203125 31.390625 
L 31.203125 23.390625 
L 4.890625 23.390625 
z
" id="DejaVuSans-45"/>
      <path d="M 28.609375 0 
L 0.78125 72.90625 
L 11.078125 72.90625 
L 34.1875 11.53125 
L 57.328125 72.90625 
L 67.578125 72.90625 
L 39.796875 0 
z
" id="DejaVuSans-86"/>
      <path d="M 9.421875 75.984375 
L 18.40625 75.984375 
L 18.40625 0 
L 9.421875 0 
z
" id="DejaVuSans-108"/>
      <path d="M 48.78125 52.59375 
L 48.78125 44.1875 
Q 44.96875 46.296875 41.140625 47.34375 
Q 37.3125 48.390625 33.40625 48.390625 
Q 24.65625 48.390625 19.8125 42.84375 
Q 14.984375 37.3125 14.984375 27.296875 
Q 14.984375 17.28125 19.8125 11.734375 
Q 24.65625 6.203125 33.40625 6.203125 
Q 37.3125 6.203125 41.140625 7.25 
Q 44.96875 8.296875 48.78125 10.40625 
L 48.78125 2.09375 
Q 45.015625 0.34375 40.984375 -0.53125 
Q 36.96875 -1.421875 32.421875 -1.421875 
Q 20.0625 -1.421875 12.78125 6.34375 
Q 5.515625 14.109375 5.515625 27.296875 
Q 5.515625 40.671875 12.859375 48.328125 
Q 20.21875 56 33.015625 56 
Q 37.15625 56 41.109375 55.140625 
Q 45.0625 54.296875 48.78125 52.59375 
z
" id="DejaVuSans-99"/>
      <path d="M 53.515625 70.515625 
L 53.515625 60.890625 
Q 47.90625 63.578125 42.921875 64.890625 
Q 37.9375 66.21875 33.296875 66.21875 
Q 25.25 66.21875 20.875 63.09375 
Q 16.5 59.96875 16.5 54.203125 
Q 16.5 49.359375 19.40625 46.890625 
Q 22.3125 44.4375 30.421875 42.921875 
L 36.375 41.703125 
Q 47.40625 39.59375 52.65625 34.296875 
Q 57.90625 29 57.90625 20.125 
Q 57.90625 9.515625 50.796875 4.046875 
Q 43.703125 -1.421875 29.984375 -1.421875 
Q 24.8125 -1.421875 18.96875 -0.25 
Q 13.140625 0.921875 6.890625 3.21875 
L 6.890625 13.375 
Q 12.890625 10.015625 18.65625 8.296875 
Q 24.421875 6.59375 29.984375 6.59375 
Q 38.421875 6.59375 43.015625 9.90625 
Q 47.609375 13.234375 47.609375 19.390625 
Q 47.609375 24.75 44.3125 27.78125 
Q 41.015625 30.8125 33.5 32.328125 
L 27.484375 33.5 
Q 16.453125 35.6875 11.515625 40.375 
Q 6.59375 45.0625 6.59375 53.421875 
Q 6.59375 63.09375 13.40625 68.65625 
Q 20.21875 74.21875 32.171875 74.21875 
Q 37.3125 74.21875 42.625 73.28125 
Q 47.953125 72.359375 53.515625 70.515625 
z
" id="DejaVuSans-83"/>
      <path d="M 34.28125 27.484375 
Q 23.390625 27.484375 19.1875 25 
Q 14.984375 22.515625 14.984375 16.5 
Q 14.984375 11.71875 18.140625 8.90625 
Q 21.296875 6.109375 26.703125 6.109375 
Q 34.1875 6.109375 38.703125 11.40625 
Q 43.21875 16.703125 43.21875 25.484375 
L 43.21875 27.484375 
z
M 52.203125 31.203125 
L 52.203125 0 
L 43.21875 0 
L 43.21875 8.296875 
Q 40.140625 3.328125 35.546875 0.953125 
Q 30.953125 -1.421875 24.3125 -1.421875 
Q 15.921875 -1.421875 10.953125 3.296875 
Q 6 8.015625 6 15.921875 
Q 6 25.140625 12.171875 29.828125 
Q 18.359375 34.515625 30.609375 34.515625 
L 43.21875 34.515625 
L 43.21875 35.40625 
Q 43.21875 41.609375 39.140625 45 
Q 35.0625 48.390625 27.6875 48.390625 
Q 23 48.390625 18.546875 47.265625 
Q 14.109375 46.140625 10.015625 43.890625 
L 10.015625 52.203125 
Q 14.9375 54.109375 19.578125 55.046875 
Q 24.21875 56 28.609375 56 
Q 40.484375 56 46.34375 49.84375 
Q 52.203125 43.703125 52.203125 31.203125 
z
" id="DejaVuSans-97"/>
     </defs>
     <use xlink:href="#DejaVuSans-110"/>
     <use x="63.378906" xlink:href="#DejaVuSans-32"/>
     <use x="95.166016" xlink:href="#DejaVuSans-61"/>
     <use x="178.955078" xlink:href="#DejaVuSans-32"/>
     <use x="210.742188" xlink:href="#DejaVuSans-50"/>
     <use x="274.365234" xlink:href="#DejaVuSans-44"/>
     <use x="306.152344" xlink:href="#DejaVuSans-32"/>
     <use x="337.939453" xlink:href="#DejaVuSans-78"/>
     <use x="412.744141" xlink:href="#DejaVuSans-32"/>
     <use x="444.53125" xlink:href="#DejaVuSans-61"/>
     <use x="528.320312" xlink:href="#DejaVuSans-32"/>
     <use x="560.107422" xlink:href="#DejaVuSans-49"/>
     <use x="623.730469" xlink:href="#DejaVuSans-46"/>
     <use x="655.517578" xlink:href="#DejaVuSans-48"/>
     <use x="719.140625" xlink:href="#DejaVuSans-101"/>
     <use x="780.664062" xlink:href="#DejaVuSans-43"/>
     <use x="864.453125" xlink:href="#DejaVuSans-48"/>
     <use x="928.076172" xlink:href="#DejaVuSans-55"/>
     <use x="991.699219" xlink:href="#DejaVuSans-44"/>
     <use x="1023.486328" xlink:href="#DejaVuSans-32"/>
     <use x="1055.273438" xlink:href="#DejaVuSans-100"/>
     <use x="1118.75" xlink:href="#DejaVuSans-116"/>
     <use x="1157.958984" xlink:href="#DejaVuSans-32"/>
     <use x="1189.746094" xlink:href="#DejaVuSans-61"/>
     <use x="1273.535156" xlink:href="#DejaVuSans-32"/>
     <use x="1305.322266" xlink:href="#DejaVuSans-49"/>
     <use x="1368.945312" xlink:href="#DejaVuSans-101"/>
     <use x="1430.46875" xlink:href="#DejaVuSans-45"/>
     <use x="1466.552734" xlink:href="#DejaVuSans-48"/>
     <use x="1530.175781" xlink:href="#DejaVuSans-54"/>
     <use x="1593.798828" xlink:href="#DejaVuSans-44"/>
     <use x="1625.585938" xlink:href="#DejaVuSans-32"/>
     <use x="1657.373047" xlink:href="#DejaVuSans-86"/>
     <use x="1718.03125" xlink:href="#DejaVuSans-101"/>
     <use x="1779.554688" xlink:href="#DejaVuSans-108"/>
     <use x="1807.337891" xlink:href="#DejaVuSans-111"/>
     <use x="1868.519531" xlink:href="#DejaVuSans-99"/>
     <use x="1923.5" xlink:href="#DejaVuSans-105"/>
     <use x="1951.283203" xlink:href="#DejaVuSans-116"/>
     <use x="1990.492188" xlink:href="#DejaVuSans-121"/>
     <use x="2049.671875" xlink:href="#DejaVuSans-86"/>
     <use x="2110.330078" xlink:href="#DejaVuSans-101"/>
     <use x="2171.853516" xlink:href="#DejaVuSans-114"/>
     <use x="2212.966797" xlink:href="#DejaVuSans-108"/>
     <use x="2240.75" xlink:href="#DejaVuSans-101"/>
     <use x="2302.273438" xlink:href="#DejaVuSans-116"/>
     <use x="2341.482422" xlink:href="#DejaVuSans-44"/>
     <use x="2373.269531" xlink:href="#DejaVuSans-32"/>
     <use x="2405.056641" xlink:href="#DejaVuSans-83"/>
     <use x="2468.533203" xlink:href="#DejaVuSans-105"/>
     <use x="2496.316406" xlink:href="#DejaVuSans-109"/>
     <use x="2593.728516" xlink:href="#DejaVuSans-117"/>
     <use x="2657.107422" xlink:href="#DejaVuSans-108"/>
     <use x="2684.890625" xlink:href="#DejaVuSans-97"/>
     <use x="2746.169922" xlink:href="#DejaVuSans-116"/>
     <use x="2785.378906" xlink:href="#DejaVuSans-101"/>
     <use x="2846.902344" xlink:href="#DejaVuSans-100"/>
     <use x="2910.378906" xlink:href="#DejaVuSans-32"/>
     <use x="2942.166016" xlink:href="#DejaVuSans-116"/>
     <use x="2981.375" xlink:href="#DejaVuSans-105"/>
     <use x="3009.158203" xlink:href="#DejaVuSans-109"/>
     <use x="3106.570312" xlink:href="#DejaVuSans-101"/>
     <use x="3168.09375" xlink:href="#DejaVuSans-32"/>
     <use x="3199.880859" xlink:href="#DejaVuSans-61"/>
     <use x="3283.669922" xlink:href="#DejaVuSans-32"/>
     <use x="3315.457031" xlink:href="#DejaVuSans-49"/>
     <use x="3379.080078" xlink:href="#DejaVuSans-48"/>
     <use x="3442.703125" xlink:href="#DejaVuSans-46"/>
     <use x="3474.490234" xlink:href="#DejaVuSans-48"/>
     <use x="3538.113281" xlink:href="#DejaVuSans-48"/>
     <use x="3601.736328" xlink:href="#DejaVuSans-32"/>
     <use x="3633.523438" xlink:href="#DejaVuSans-121"/>
     <use x="3692.703125" xlink:href="#DejaVuSans-101"/>
     <use x="3754.226562" xlink:href="#DejaVuSans-97"/>
     <use x="3815.505859" xlink:href="#DejaVuSans-114"/>
     <use x="3856.619141" xlink:href="#DejaVuSans-115"/>
    </g>
    <!--  -->
    <g transform="translate(252.765 37.2)scale(0.12 -0.12)"/>
   </g>
   <g id="legend_1">
    <g id="patch_7">
     <path d="M 138.384688 205.45625 
L 436.88 205.45625 
Q 438.88 205.45625 438.88 203.45625 
L 438.88 160.14375 
Q 438.88 158.14375 436.88 158.14375 
L 138.384688 158.14375 
Q 136.384688 158.14375 136.384688 160.14375 
L 136.384688 203.45625 
Q 136.384688 205.45625 138.384688 205.45625 
z
" style="fill:#ffffff;opacity:0.8;stroke:#cccccc;stroke-linejoin:miter;"/>
    </g>
    <g id="line2d_30">
     <path d="M 140.384688 166.242188 
L 160.384688 166.242188 
" style="fill:none;stroke:#1f77b4;stroke-linecap:square;stroke-width:1.5;"/>
    </g>
    <g id="line2d_31"/>
    <g id="text_18">
     <!-- Kinetic energy -->
     <g transform="translate(168.384688 169.742188)scale(0.1 -0.1)">
      <defs>
       <path d="M 9.8125 72.90625 
L 19.671875 72.90625 
L 19.671875 42.09375 
L 52.390625 72.90625 
L 65.09375 72.90625 
L 28.90625 38.921875 
L 67.671875 0 
L 54.6875 0 
L 19.671875 35.109375 
L 19.671875 0 
L 9.8125 0 
z
" id="DejaVuSans-75"/>
      </defs>
      <use xlink:href="#DejaVuSans-75"/>
      <use x="65.576172" xlink:href="#DejaVuSans-105"/>
      <use x="93.359375" xlink:href="#DejaVuSans-110"/>
      <use x="156.738281" xlink:href="#DejaVuSans-101"/>
      <use x="218.261719" xlink:href="#DejaVuSans-116"/>
      <use x="257.470703" xlink:href="#DejaVuSans-105"/>
      <use x="285.253906" xlink:href="#DejaVuSans-99"/>
      <use x="340.234375" xlink:href="#DejaVuSans-32"/>
      <use x="372.021484" xlink:href="#DejaVuSans-101"/>
      <use x="433.544922" xlink:href="#DejaVuSans-110"/>
      <use x="496.923828" xlink:href="#DejaVuSans-101"/>
      <use x="558.447266" xlink:href="#DejaVuSans-114"/>
      <use x="597.810547" xlink:href="#DejaVuSans-103"/>
      <use x="661.287109" xlink:href="#DejaVuSans-121"/>
     </g>
    </g>
    <g id="line2d_32">
     <path d="M 140.384688 180.920312 
L 160.384688 180.920312 
" style="fill:none;stroke:#ff7f0e;stroke-linecap:square;stroke-width:1.5;"/>
    </g>
    <g id="line2d_33"/>
    <g id="text_19">
     <!-- Potential energy -->
     <g transform="translate(168.384688 184.420312)scale(0.1 -0.1)">
      <defs>
       <path d="M 19.671875 64.796875 
L 19.671875 37.40625 
L 32.078125 37.40625 
Q 38.96875 37.40625 42.71875 40.96875 
Q 46.484375 44.53125 46.484375 51.125 
Q 46.484375 57.671875 42.71875 61.234375 
Q 38.96875 64.796875 32.078125 64.796875 
z
M 9.8125 72.90625 
L 32.078125 72.90625 
Q 44.34375 72.90625 50.609375 67.359375 
Q 56.890625 61.8125 56.890625 51.125 
Q 56.890625 40.328125 50.609375 34.8125 
Q 44.34375 29.296875 32.078125 29.296875 
L 19.671875 29.296875 
L 19.671875 0 
L 9.8125 0 
z
" id="DejaVuSans-80"/>
      </defs>
      <use xlink:href="#DejaVuSans-80"/>
      <use x="56.677734" xlink:href="#DejaVuSans-111"/>
      <use x="117.859375" xlink:href="#DejaVuSans-116"/>
      <use x="157.068359" xlink:href="#DejaVuSans-101"/>
      <use x="218.591797" xlink:href="#DejaVuSans-110"/>
      <use x="281.970703" xlink:href="#DejaVuSans-116"/>
      <use x="321.179688" xlink:href="#DejaVuSans-105"/>
      <use x="348.962891" xlink:href="#DejaVuSans-97"/>
      <use x="410.242188" xlink:href="#DejaVuSans-108"/>
      <use x="438.025391" xlink:href="#DejaVuSans-32"/>
      <use x="469.8125" xlink:href="#DejaVuSans-101"/>
      <use x="531.335938" xlink:href="#DejaVuSans-110"/>
      <use x="594.714844" xlink:href="#DejaVuSans-101"/>
      <use x="656.238281" xlink:href="#DejaVuSans-114"/>
      <use x="695.601562" xlink:href="#DejaVuSans-103"/>
      <use x="759.078125" xlink:href="#DejaVuSans-121"/>
     </g>
    </g>
    <g id="line2d_34">
     <path d="M 140.384688 195.598437 
L 160.384688 195.598437 
" style="fill:none;stroke:#2ca02c;stroke-dasharray:5.55,2.4;stroke-dashoffset:0;stroke-width:1.5;"/>
    </g>
    <g id="line2d_35"/>
    <g id="text_20">
     <!-- Total energy. E_mean = -1.00e+00, E_std = 5.41e-06 -->
     <g transform="translate(168.384688 199.098437)scale(0.1 -0.1)">
      <defs>
       <path d="M -0.296875 72.90625 
L 61.375 72.90625 
L 61.375 64.59375 
L 35.5 64.59375 
L 35.5 0 
L 25.59375 0 
L 25.59375 64.59375 
L -0.296875 64.59375 
z
" id="DejaVuSans-84"/>
       <path d="M 50.984375 -16.609375 
L 50.984375 -23.578125 
L -0.984375 -23.578125 
L -0.984375 -16.609375 
z
" id="DejaVuSans-95"/>
      </defs>
      <use xlink:href="#DejaVuSans-84"/>
      <use x="44.083984" xlink:href="#DejaVuSans-111"/>
      <use x="105.265625" xlink:href="#DejaVuSans-116"/>
      <use x="144.474609" xlink:href="#DejaVuSans-97"/>
      <use x="205.753906" xlink:href="#DejaVuSans-108"/>
      <use x="233.537109" xlink:href="#DejaVuSans-32"/>
      <use x="265.324219" xlink:href="#DejaVuSans-101"/>
      <use x="326.847656" xlink:href="#DejaVuSans-110"/>
      <use x="390.226562" xlink:href="#DejaVuSans-101"/>
      <use x="451.75" xlink:href="#DejaVuSans-114"/>
      <use x="491.113281" xlink:href="#DejaVuSans-103"/>
      <use x="554.589844" xlink:href="#DejaVuSans-121"/>
      <use x="599.519531" xlink:href="#DejaVuSans-46"/>
      <use x="631.306641" xlink:href="#DejaVuSans-32"/>
      <use x="663.09375" xlink:href="#DejaVuSans-69"/>
      <use x="726.277344" xlink:href="#DejaVuSans-95"/>
      <use x="776.277344" xlink:href="#DejaVuSans-109"/>
      <use x="873.689453" xlink:href="#DejaVuSans-101"/>
      <use x="935.212891" xlink:href="#DejaVuSans-97"/>
      <use x="996.492188" xlink:href="#DejaVuSans-110"/>
      <use x="1059.871094" xlink:href="#DejaVuSans-32"/>
      <use x="1091.658203" xlink:href="#DejaVuSans-61"/>
      <use x="1175.447266" xlink:href="#DejaVuSans-32"/>
      <use x="1207.234375" xlink:href="#DejaVuSans-45"/>
      <use x="1243.318359" xlink:href="#DejaVuSans-49"/>
      <use x="1306.941406" xlink:href="#DejaVuSans-46"/>
      <use x="1338.728516" xlink:href="#DejaVuSans-48"/>
      <use x="1402.351562" xlink:href="#DejaVuSans-48"/>
      <use x="1465.974609" xlink:href="#DejaVuSans-101"/>
      <use x="1527.498047" xlink:href="#DejaVuSans-43"/>
      <use x="1611.287109" xlink:href="#DejaVuSans-48"/>
      <use x="1674.910156" xlink:href="#DejaVuSans-48"/>
      <use x="1738.533203" xlink:href="#DejaVuSans-44"/>
      <use x="1770.320312" xlink:href="#DejaVuSans-32"/>
      <use x="1802.107422" xlink:href="#DejaVuSans-69"/>
      <use x="1865.291016" xlink:href="#DejaVuSans-95"/>
      <use x="1915.291016" xlink:href="#DejaVuSans-115"/>
      <use x="1967.390625" xlink:href="#DejaVuSans-116"/>
      <use x="2006.599609" xlink:href="#DejaVuSans-100"/>
      <use x="2070.076172" xlink:href="#DejaVuSans-32"/>
      <use x="2101.863281" xlink:href="#DejaVuSans-61"/>
      <use x="2185.652344" xlink:href="#DejaVuSans-32"/>
      <use x="2217.439453" xlink:href="#DejaVuSans-53"/>
      <use x="2281.0625" xlink:href="#DejaVuSans-46"/>
      <use x="2312.849609" xlink:href="#DejaVuSans-52"/>
      <use x="2376.472656" xlink:href="#DejaVuSans-49"/>
      <use x="2440.095703" xlink:href="#DejaVuSans-101"/>
      <use x="2501.619141" xlink:href="#DejaVuSans-45"/>
      <use x="2537.703125" xlink:href="#DejaVuSans-48"/>
      <use x="2601.326172" xlink:href="#DejaVuSans-54"/>
     </g>
    </g>
   </g>
  </g>
 </g>
 <defs>
  <clipPath id="pa67464077c">
   <rect height="277.2" width="382.23" x="61.65" y="43.2"/>
  </clipPath>
 </defs>
</svg>
