<?xml version="1.0" encoding="utf-8" standalone="no"?>
<!DOCTYPE svg PUBLIC "-//W3C//DTD SVG 1.1//EN"
  "http://www.w3.org/Graphics/SVG/1.1/DTD/svg11.dtd">
<!-- Created with matplotlib (https://matplotlib.org/) -->
<svg height="372.96pt" version="1.1" viewBox="0 0 498.24 372.96" width="498.24pt" xmlns="http://www.w3.org/2000/svg" xmlns:xlink="http://www.w3.org/1999/xlink">
 <metadata>
  <rdf:RDF xmlns:cc="http://creativecommons.org/ns#" xmlns:dc="http://purl.org/dc/elements/1.1/" xmlns:rdf="http://www.w3.org/1999/02/22-rdf-syntax-ns#">
   <cc:Work>
    <dc:type rdf:resource="http://purl.org/dc/dcmitype/StillImage"/>
    <dc:date>2020-10-22T17:03:08.639200</dc:date>
    <dc:format>image/svg+xml</dc:format>
    <dc:creator>
     <cc:Agent>
      <dc:title>Matplotlib v3.3.2, https://matplotlib.org/</dc:title>
     </cc:Agent>
    </dc:creator>
   </cc:Work>
  </rdf:RDF>
 </metadata>
 <defs>
  <style type="text/css">*{stroke-linecap:butt;stroke-linejoin:round;}</style>
 </defs>
 <g id="figure_1">
  <g id="patch_1">
   <path d="M 0 372.96 
L 498.24 372.96 
L 498.24 0 
L 0 0 
z
" style="fill:#ffffff;"/>
  </g>
  <g id="axes_1">
   <g id="patch_2">
    <path d="M 62.28 331.9344 
L 448.416 331.9344 
L 448.416 44.7552 
L 62.28 44.7552 
z
" style="fill:#ffffff;"/>
   </g>
   <g id="matplotlib.axis_1">
    <g id="xtick_1">
     <g id="line2d_1">
      <path clip-path="url(#p576f202b1c)" d="M 79.831636 331.9344 
L 79.831636 44.7552 
" style="fill:none;stroke:#b0b0b0;stroke-linecap:square;stroke-width:0.8;"/>
     </g>
     <g id="line2d_2">
      <defs>
       <path d="M 0 0 
L 0 3.5 
" id="m96321c0436" style="stroke:#000000;stroke-width:0.8;"/>
      </defs>
      <g>
       <use style="stroke:#000000;stroke-width:0.8;" x="79.831636" xlink:href="#m96321c0436" y="331.9344"/>
      </g>
     </g>
     <g id="text_1">
      <!-- 0.0 -->
      <g transform="translate(71.880074 346.532837)scale(0.1 -0.1)">
       <defs>
        <path d="M 31.78125 66.40625 
Q 24.171875 66.40625 20.328125 58.90625 
Q 16.5 51.421875 16.5 36.375 
Q 16.5 21.390625 20.328125 13.890625 
Q 24.171875 6.390625 31.78125 6.390625 
Q 39.453125 6.390625 43.28125 13.890625 
Q 47.125 21.390625 47.125 36.375 
Q 47.125 51.421875 43.28125 58.90625 
Q 39.453125 66.40625 31.78125 66.40625 
z
M 31.78125 74.21875 
Q 44.046875 74.21875 50.515625 64.515625 
Q 56.984375 54.828125 56.984375 36.375 
Q 56.984375 17.96875 50.515625 8.265625 
Q 44.046875 -1.421875 31.78125 -1.421875 
Q 19.53125 -1.421875 13.0625 8.265625 
Q 6.59375 17.96875 6.59375 36.375 
Q 6.59375 54.828125 13.0625 64.515625 
Q 19.53125 74.21875 31.78125 74.21875 
z
" id="DejaVuSans-48"/>
        <path d="M 10.6875 12.40625 
L 21 12.40625 
L 21 0 
L 10.6875 0 
z
" id="DejaVuSans-46"/>
       </defs>
       <use xlink:href="#DejaVuSans-48"/>
       <use x="63.623047" xlink:href="#DejaVuSans-46"/>
       <use x="95.410156" xlink:href="#DejaVuSans-48"/>
      </g>
     </g>
    </g>
    <g id="xtick_2">
     <g id="line2d_3">
      <path clip-path="url(#p576f202b1c)" d="M 150.038182 331.9344 
L 150.038182 44.7552 
" style="fill:none;stroke:#b0b0b0;stroke-linecap:square;stroke-width:0.8;"/>
     </g>
     <g id="line2d_4">
      <g>
       <use style="stroke:#000000;stroke-width:0.8;" x="150.038182" xlink:href="#m96321c0436" y="331.9344"/>
      </g>
     </g>
     <g id="text_2">
      <!-- 0.2 -->
      <g transform="translate(142.086619 346.532837)scale(0.1 -0.1)">
       <defs>
        <path d="M 19.1875 8.296875 
L 53.609375 8.296875 
L 53.609375 0 
L 7.328125 0 
L 7.328125 8.296875 
Q 12.9375 14.109375 22.625 23.890625 
Q 32.328125 33.6875 34.8125 36.53125 
Q 39.546875 41.84375 41.421875 45.53125 
Q 43.3125 49.21875 43.3125 52.78125 
Q 43.3125 58.59375 39.234375 62.25 
Q 35.15625 65.921875 28.609375 65.921875 
Q 23.96875 65.921875 18.8125 64.3125 
Q 13.671875 62.703125 7.8125 59.421875 
L 7.8125 69.390625 
Q 13.765625 71.78125 18.9375 73 
Q 24.125 74.21875 28.421875 74.21875 
Q 39.75 74.21875 46.484375 68.546875 
Q 53.21875 62.890625 53.21875 53.421875 
Q 53.21875 48.921875 51.53125 44.890625 
Q 49.859375 40.875 45.40625 35.40625 
Q 44.1875 33.984375 37.640625 27.21875 
Q 31.109375 20.453125 19.1875 8.296875 
z
" id="DejaVuSans-50"/>
       </defs>
       <use xlink:href="#DejaVuSans-48"/>
       <use x="63.623047" xlink:href="#DejaVuSans-46"/>
       <use x="95.410156" xlink:href="#DejaVuSans-50"/>
      </g>
     </g>
    </g>
    <g id="xtick_3">
     <g id="line2d_5">
      <path clip-path="url(#p576f202b1c)" d="M 220.244727 331.9344 
L 220.244727 44.7552 
" style="fill:none;stroke:#b0b0b0;stroke-linecap:square;stroke-width:0.8;"/>
     </g>
     <g id="line2d_6">
      <g>
       <use style="stroke:#000000;stroke-width:0.8;" x="220.244727" xlink:href="#m96321c0436" y="331.9344"/>
      </g>
     </g>
     <g id="text_3">
      <!-- 0.4 -->
      <g transform="translate(212.293165 346.532837)scale(0.1 -0.1)">
       <defs>
        <path d="M 37.796875 64.3125 
L 12.890625 25.390625 
L 37.796875 25.390625 
z
M 35.203125 72.90625 
L 47.609375 72.90625 
L 47.609375 25.390625 
L 58.015625 25.390625 
L 58.015625 17.1875 
L 47.609375 17.1875 
L 47.609375 0 
L 37.796875 0 
L 37.796875 17.1875 
L 4.890625 17.1875 
L 4.890625 26.703125 
z
" id="DejaVuSans-52"/>
       </defs>
       <use xlink:href="#DejaVuSans-48"/>
       <use x="63.623047" xlink:href="#DejaVuSans-46"/>
       <use x="95.410156" xlink:href="#DejaVuSans-52"/>
      </g>
     </g>
    </g>
    <g id="xtick_4">
     <g id="line2d_7">
      <path clip-path="url(#p576f202b1c)" d="M 290.451273 331.9344 
L 290.451273 44.7552 
" style="fill:none;stroke:#b0b0b0;stroke-linecap:square;stroke-width:0.8;"/>
     </g>
     <g id="line2d_8">
      <g>
       <use style="stroke:#000000;stroke-width:0.8;" x="290.451273" xlink:href="#m96321c0436" y="331.9344"/>
      </g>
     </g>
     <g id="text_4">
      <!-- 0.6 -->
      <g transform="translate(282.49971 346.532837)scale(0.1 -0.1)">
       <defs>
        <path d="M 33.015625 40.375 
Q 26.375 40.375 22.484375 35.828125 
Q 18.609375 31.296875 18.609375 23.390625 
Q 18.609375 15.53125 22.484375 10.953125 
Q 26.375 6.390625 33.015625 6.390625 
Q 39.65625 6.390625 43.53125 10.953125 
Q 47.40625 15.53125 47.40625 23.390625 
Q 47.40625 31.296875 43.53125 35.828125 
Q 39.65625 40.375 33.015625 40.375 
z
M 52.59375 71.296875 
L 52.59375 62.3125 
Q 48.875 64.0625 45.09375 64.984375 
Q 41.3125 65.921875 37.59375 65.921875 
Q 27.828125 65.921875 22.671875 59.328125 
Q 17.53125 52.734375 16.796875 39.40625 
Q 19.671875 43.65625 24.015625 45.921875 
Q 28.375 48.1875 33.59375 48.1875 
Q 44.578125 48.1875 50.953125 41.515625 
Q 57.328125 34.859375 57.328125 23.390625 
Q 57.328125 12.15625 50.6875 5.359375 
Q 44.046875 -1.421875 33.015625 -1.421875 
Q 20.359375 -1.421875 13.671875 8.265625 
Q 6.984375 17.96875 6.984375 36.375 
Q 6.984375 53.65625 15.1875 63.9375 
Q 23.390625 74.21875 37.203125 74.21875 
Q 40.921875 74.21875 44.703125 73.484375 
Q 48.484375 72.75 52.59375 71.296875 
z
" id="DejaVuSans-54"/>
       </defs>
       <use xlink:href="#DejaVuSans-48"/>
       <use x="63.623047" xlink:href="#DejaVuSans-46"/>
       <use x="95.410156" xlink:href="#DejaVuSans-54"/>
      </g>
     </g>
    </g>
    <g id="xtick_5">
     <g id="line2d_9">
      <path clip-path="url(#p576f202b1c)" d="M 360.657818 331.9344 
L 360.657818 44.7552 
" style="fill:none;stroke:#b0b0b0;stroke-linecap:square;stroke-width:0.8;"/>
     </g>
     <g id="line2d_10">
      <g>
       <use style="stroke:#000000;stroke-width:0.8;" x="360.657818" xlink:href="#m96321c0436" y="331.9344"/>
      </g>
     </g>
     <g id="text_5">
      <!-- 0.8 -->
      <g transform="translate(352.706256 346.532837)scale(0.1 -0.1)">
       <defs>
        <path d="M 31.78125 34.625 
Q 24.75 34.625 20.71875 30.859375 
Q 16.703125 27.09375 16.703125 20.515625 
Q 16.703125 13.921875 20.71875 10.15625 
Q 24.75 6.390625 31.78125 6.390625 
Q 38.8125 6.390625 42.859375 10.171875 
Q 46.921875 13.96875 46.921875 20.515625 
Q 46.921875 27.09375 42.890625 30.859375 
Q 38.875 34.625 31.78125 34.625 
z
M 21.921875 38.8125 
Q 15.578125 40.375 12.03125 44.71875 
Q 8.5 49.078125 8.5 55.328125 
Q 8.5 64.0625 14.71875 69.140625 
Q 20.953125 74.21875 31.78125 74.21875 
Q 42.671875 74.21875 48.875 69.140625 
Q 55.078125 64.0625 55.078125 55.328125 
Q 55.078125 49.078125 51.53125 44.71875 
Q 48 40.375 41.703125 38.8125 
Q 48.828125 37.15625 52.796875 32.3125 
Q 56.78125 27.484375 56.78125 20.515625 
Q 56.78125 9.90625 50.3125 4.234375 
Q 43.84375 -1.421875 31.78125 -1.421875 
Q 19.734375 -1.421875 13.25 4.234375 
Q 6.78125 9.90625 6.78125 20.515625 
Q 6.78125 27.484375 10.78125 32.3125 
Q 14.796875 37.15625 21.921875 38.8125 
z
M 18.3125 54.390625 
Q 18.3125 48.734375 21.84375 45.5625 
Q 25.390625 42.390625 31.78125 42.390625 
Q 38.140625 42.390625 41.71875 45.5625 
Q 45.3125 48.734375 45.3125 54.390625 
Q 45.3125 60.0625 41.71875 63.234375 
Q 38.140625 66.40625 31.78125 66.40625 
Q 25.390625 66.40625 21.84375 63.234375 
Q 18.3125 60.0625 18.3125 54.390625 
z
" id="DejaVuSans-56"/>
       </defs>
       <use xlink:href="#DejaVuSans-48"/>
       <use x="63.623047" xlink:href="#DejaVuSans-46"/>
       <use x="95.410156" xlink:href="#DejaVuSans-56"/>
      </g>
     </g>
    </g>
    <g id="xtick_6">
     <g id="line2d_11">
      <path clip-path="url(#p576f202b1c)" d="M 430.864364 331.9344 
L 430.864364 44.7552 
" style="fill:none;stroke:#b0b0b0;stroke-linecap:square;stroke-width:0.8;"/>
     </g>
     <g id="line2d_12">
      <g>
       <use style="stroke:#000000;stroke-width:0.8;" x="430.864364" xlink:href="#m96321c0436" y="331.9344"/>
      </g>
     </g>
     <g id="text_6">
      <!-- 1.0 -->
      <g transform="translate(422.912801 346.532837)scale(0.1 -0.1)">
       <defs>
        <path d="M 12.40625 8.296875 
L 28.515625 8.296875 
L 28.515625 63.921875 
L 10.984375 60.40625 
L 10.984375 69.390625 
L 28.421875 72.90625 
L 38.28125 72.90625 
L 38.28125 8.296875 
L 54.390625 8.296875 
L 54.390625 0 
L 12.40625 0 
z
" id="DejaVuSans-49"/>
       </defs>
       <use xlink:href="#DejaVuSans-49"/>
       <use x="63.623047" xlink:href="#DejaVuSans-46"/>
       <use x="95.410156" xlink:href="#DejaVuSans-48"/>
      </g>
     </g>
    </g>
    <g id="text_7">
     <!-- N [number of time steps] -->
     <g transform="translate(192.299562 360.210962)scale(0.1 -0.1)">
      <defs>
       <path d="M 9.8125 72.90625 
L 23.09375 72.90625 
L 55.421875 11.921875 
L 55.421875 72.90625 
L 64.984375 72.90625 
L 64.984375 0 
L 51.703125 0 
L 19.390625 60.984375 
L 19.390625 0 
L 9.8125 0 
z
" id="DejaVuSans-78"/>
       <path id="DejaVuSans-32"/>
       <path d="M 8.59375 75.984375 
L 29.296875 75.984375 
L 29.296875 69 
L 17.578125 69 
L 17.578125 -6.203125 
L 29.296875 -6.203125 
L 29.296875 -13.1875 
L 8.59375 -13.1875 
z
" id="DejaVuSans-91"/>
       <path d="M 54.890625 33.015625 
L 54.890625 0 
L 45.90625 0 
L 45.90625 32.71875 
Q 45.90625 40.484375 42.875 44.328125 
Q 39.84375 48.1875 33.796875 48.1875 
Q 26.515625 48.1875 22.3125 43.546875 
Q 18.109375 38.921875 18.109375 30.90625 
L 18.109375 0 
L 9.078125 0 
L 9.078125 54.6875 
L 18.109375 54.6875 
L 18.109375 46.1875 
Q 21.34375 51.125 25.703125 53.5625 
Q 30.078125 56 35.796875 56 
Q 45.21875 56 50.046875 50.171875 
Q 54.890625 44.34375 54.890625 33.015625 
z
" id="DejaVuSans-110"/>
       <path d="M 8.5 21.578125 
L 8.5 54.6875 
L 17.484375 54.6875 
L 17.484375 21.921875 
Q 17.484375 14.15625 20.5 10.265625 
Q 23.53125 6.390625 29.59375 6.390625 
Q 36.859375 6.390625 41.078125 11.03125 
Q 45.3125 15.671875 45.3125 23.6875 
L 45.3125 54.6875 
L 54.296875 54.6875 
L 54.296875 0 
L 45.3125 0 
L 45.3125 8.40625 
Q 42.046875 3.421875 37.71875 1 
Q 33.40625 -1.421875 27.6875 -1.421875 
Q 18.265625 -1.421875 13.375 4.4375 
Q 8.5 10.296875 8.5 21.578125 
z
M 31.109375 56 
z
" id="DejaVuSans-117"/>
       <path d="M 52 44.1875 
Q 55.375 50.25 60.0625 53.125 
Q 64.75 56 71.09375 56 
Q 79.640625 56 84.28125 50.015625 
Q 88.921875 44.046875 88.921875 33.015625 
L 88.921875 0 
L 79.890625 0 
L 79.890625 32.71875 
Q 79.890625 40.578125 77.09375 44.375 
Q 74.3125 48.1875 68.609375 48.1875 
Q 61.625 48.1875 57.5625 43.546875 
Q 53.515625 38.921875 53.515625 30.90625 
L 53.515625 0 
L 44.484375 0 
L 44.484375 32.71875 
Q 44.484375 40.625 41.703125 44.40625 
Q 38.921875 48.1875 33.109375 48.1875 
Q 26.21875 48.1875 22.15625 43.53125 
Q 18.109375 38.875 18.109375 30.90625 
L 18.109375 0 
L 9.078125 0 
L 9.078125 54.6875 
L 18.109375 54.6875 
L 18.109375 46.1875 
Q 21.1875 51.21875 25.484375 53.609375 
Q 29.78125 56 35.6875 56 
Q 41.65625 56 45.828125 52.96875 
Q 50 49.953125 52 44.1875 
z
" id="DejaVuSans-109"/>
       <path d="M 48.6875 27.296875 
Q 48.6875 37.203125 44.609375 42.84375 
Q 40.53125 48.484375 33.40625 48.484375 
Q 26.265625 48.484375 22.1875 42.84375 
Q 18.109375 37.203125 18.109375 27.296875 
Q 18.109375 17.390625 22.1875 11.75 
Q 26.265625 6.109375 33.40625 6.109375 
Q 40.53125 6.109375 44.609375 11.75 
Q 48.6875 17.390625 48.6875 27.296875 
z
M 18.109375 46.390625 
Q 20.953125 51.265625 25.265625 53.625 
Q 29.59375 56 35.59375 56 
Q 45.5625 56 51.78125 48.09375 
Q 58.015625 40.1875 58.015625 27.296875 
Q 58.015625 14.40625 51.78125 6.484375 
Q 45.5625 -1.421875 35.59375 -1.421875 
Q 29.59375 -1.421875 25.265625 0.953125 
Q 20.953125 3.328125 18.109375 8.203125 
L 18.109375 0 
L 9.078125 0 
L 9.078125 75.984375 
L 18.109375 75.984375 
z
" id="DejaVuSans-98"/>
       <path d="M 56.203125 29.59375 
L 56.203125 25.203125 
L 14.890625 25.203125 
Q 15.484375 15.921875 20.484375 11.0625 
Q 25.484375 6.203125 34.421875 6.203125 
Q 39.59375 6.203125 44.453125 7.46875 
Q 49.3125 8.734375 54.109375 11.28125 
L 54.109375 2.78125 
Q 49.265625 0.734375 44.1875 -0.34375 
Q 39.109375 -1.421875 33.890625 -1.421875 
Q 20.796875 -1.421875 13.15625 6.1875 
Q 5.515625 13.8125 5.515625 26.8125 
Q 5.515625 40.234375 12.765625 48.109375 
Q 20.015625 56 32.328125 56 
Q 43.359375 56 49.78125 48.890625 
Q 56.203125 41.796875 56.203125 29.59375 
z
M 47.21875 32.234375 
Q 47.125 39.59375 43.09375 43.984375 
Q 39.0625 48.390625 32.421875 48.390625 
Q 24.90625 48.390625 20.390625 44.140625 
Q 15.875 39.890625 15.1875 32.171875 
z
" id="DejaVuSans-101"/>
       <path d="M 41.109375 46.296875 
Q 39.59375 47.171875 37.8125 47.578125 
Q 36.03125 48 33.890625 48 
Q 26.265625 48 22.1875 43.046875 
Q 18.109375 38.09375 18.109375 28.8125 
L 18.109375 0 
L 9.078125 0 
L 9.078125 54.6875 
L 18.109375 54.6875 
L 18.109375 46.1875 
Q 20.953125 51.171875 25.484375 53.578125 
Q 30.03125 56 36.53125 56 
Q 37.453125 56 38.578125 55.875 
Q 39.703125 55.765625 41.0625 55.515625 
z
" id="DejaVuSans-114"/>
       <path d="M 30.609375 48.390625 
Q 23.390625 48.390625 19.1875 42.75 
Q 14.984375 37.109375 14.984375 27.296875 
Q 14.984375 17.484375 19.15625 11.84375 
Q 23.34375 6.203125 30.609375 6.203125 
Q 37.796875 6.203125 41.984375 11.859375 
Q 46.1875 17.53125 46.1875 27.296875 
Q 46.1875 37.015625 41.984375 42.703125 
Q 37.796875 48.390625 30.609375 48.390625 
z
M 30.609375 56 
Q 42.328125 56 49.015625 48.375 
Q 55.71875 40.765625 55.71875 27.296875 
Q 55.71875 13.875 49.015625 6.21875 
Q 42.328125 -1.421875 30.609375 -1.421875 
Q 18.84375 -1.421875 12.171875 6.21875 
Q 5.515625 13.875 5.515625 27.296875 
Q 5.515625 40.765625 12.171875 48.375 
Q 18.84375 56 30.609375 56 
z
" id="DejaVuSans-111"/>
       <path d="M 37.109375 75.984375 
L 37.109375 68.5 
L 28.515625 68.5 
Q 23.6875 68.5 21.796875 66.546875 
Q 19.921875 64.59375 19.921875 59.515625 
L 19.921875 54.6875 
L 34.71875 54.6875 
L 34.71875 47.703125 
L 19.921875 47.703125 
L 19.921875 0 
L 10.890625 0 
L 10.890625 47.703125 
L 2.296875 47.703125 
L 2.296875 54.6875 
L 10.890625 54.6875 
L 10.890625 58.5 
Q 10.890625 67.625 15.140625 71.796875 
Q 19.390625 75.984375 28.609375 75.984375 
z
" id="DejaVuSans-102"/>
       <path d="M 18.3125 70.21875 
L 18.3125 54.6875 
L 36.8125 54.6875 
L 36.8125 47.703125 
L 18.3125 47.703125 
L 18.3125 18.015625 
Q 18.3125 11.328125 20.140625 9.421875 
Q 21.96875 7.515625 27.59375 7.515625 
L 36.8125 7.515625 
L 36.8125 0 
L 27.59375 0 
Q 17.1875 0 13.234375 3.875 
Q 9.28125 7.765625 9.28125 18.015625 
L 9.28125 47.703125 
L 2.6875 47.703125 
L 2.6875 54.6875 
L 9.28125 54.6875 
L 9.28125 70.21875 
z
" id="DejaVuSans-116"/>
       <path d="M 9.421875 54.6875 
L 18.40625 54.6875 
L 18.40625 0 
L 9.421875 0 
z
M 9.421875 75.984375 
L 18.40625 75.984375 
L 18.40625 64.59375 
L 9.421875 64.59375 
z
" id="DejaVuSans-105"/>
       <path d="M 44.28125 53.078125 
L 44.28125 44.578125 
Q 40.484375 46.53125 36.375 47.5 
Q 32.28125 48.484375 27.875 48.484375 
Q 21.1875 48.484375 17.84375 46.4375 
Q 14.5 44.390625 14.5 40.28125 
Q 14.5 37.15625 16.890625 35.375 
Q 19.28125 33.59375 26.515625 31.984375 
L 29.59375 31.296875 
Q 39.15625 29.25 43.1875 25.515625 
Q 47.21875 21.78125 47.21875 15.09375 
Q 47.21875 7.46875 41.1875 3.015625 
Q 35.15625 -1.421875 24.609375 -1.421875 
Q 20.21875 -1.421875 15.453125 -0.5625 
Q 10.6875 0.296875 5.421875 2 
L 5.421875 11.28125 
Q 10.40625 8.6875 15.234375 7.390625 
Q 20.0625 6.109375 24.8125 6.109375 
Q 31.15625 6.109375 34.5625 8.28125 
Q 37.984375 10.453125 37.984375 14.40625 
Q 37.984375 18.0625 35.515625 20.015625 
Q 33.0625 21.96875 24.703125 23.78125 
L 21.578125 24.515625 
Q 13.234375 26.265625 9.515625 29.90625 
Q 5.8125 33.546875 5.8125 39.890625 
Q 5.8125 47.609375 11.28125 51.796875 
Q 16.75 56 26.8125 56 
Q 31.78125 56 36.171875 55.265625 
Q 40.578125 54.546875 44.28125 53.078125 
z
" id="DejaVuSans-115"/>
       <path d="M 18.109375 8.203125 
L 18.109375 -20.796875 
L 9.078125 -20.796875 
L 9.078125 54.6875 
L 18.109375 54.6875 
L 18.109375 46.390625 
Q 20.953125 51.265625 25.265625 53.625 
Q 29.59375 56 35.59375 56 
Q 45.5625 56 51.78125 48.09375 
Q 58.015625 40.1875 58.015625 27.296875 
Q 58.015625 14.40625 51.78125 6.484375 
Q 45.5625 -1.421875 35.59375 -1.421875 
Q 29.59375 -1.421875 25.265625 0.953125 
Q 20.953125 3.328125 18.109375 8.203125 
z
M 48.6875 27.296875 
Q 48.6875 37.203125 44.609375 42.84375 
Q 40.53125 48.484375 33.40625 48.484375 
Q 26.265625 48.484375 22.1875 42.84375 
Q 18.109375 37.203125 18.109375 27.296875 
Q 18.109375 17.390625 22.1875 11.75 
Q 26.265625 6.109375 33.40625 6.109375 
Q 40.53125 6.109375 44.609375 11.75 
Q 48.6875 17.390625 48.6875 27.296875 
z
" id="DejaVuSans-112"/>
       <path d="M 30.421875 75.984375 
L 30.421875 -13.1875 
L 9.71875 -13.1875 
L 9.71875 -6.203125 
L 21.390625 -6.203125 
L 21.390625 69 
L 9.71875 69 
L 9.71875 75.984375 
z
" id="DejaVuSans-93"/>
      </defs>
      <use xlink:href="#DejaVuSans-78"/>
      <use x="74.804688" xlink:href="#DejaVuSans-32"/>
      <use x="106.591797" xlink:href="#DejaVuSans-91"/>
      <use x="145.605469" xlink:href="#DejaVuSans-110"/>
      <use x="208.984375" xlink:href="#DejaVuSans-117"/>
      <use x="272.363281" xlink:href="#DejaVuSans-109"/>
      <use x="369.775391" xlink:href="#DejaVuSans-98"/>
      <use x="433.251953" xlink:href="#DejaVuSans-101"/>
      <use x="494.775391" xlink:href="#DejaVuSans-114"/>
      <use x="535.888672" xlink:href="#DejaVuSans-32"/>
      <use x="567.675781" xlink:href="#DejaVuSans-111"/>
      <use x="628.857422" xlink:href="#DejaVuSans-102"/>
      <use x="664.0625" xlink:href="#DejaVuSans-32"/>
      <use x="695.849609" xlink:href="#DejaVuSans-116"/>
      <use x="735.058594" xlink:href="#DejaVuSans-105"/>
      <use x="762.841797" xlink:href="#DejaVuSans-109"/>
      <use x="860.253906" xlink:href="#DejaVuSans-101"/>
      <use x="921.777344" xlink:href="#DejaVuSans-32"/>
      <use x="953.564453" xlink:href="#DejaVuSans-115"/>
      <use x="1005.664062" xlink:href="#DejaVuSans-116"/>
      <use x="1044.873047" xlink:href="#DejaVuSans-101"/>
      <use x="1106.396484" xlink:href="#DejaVuSans-112"/>
      <use x="1169.873047" xlink:href="#DejaVuSans-115"/>
      <use x="1221.972656" xlink:href="#DejaVuSans-93"/>
     </g>
    </g>
    <g id="text_8">
     <!-- 1e7 -->
     <g transform="translate(429.537875 359.210962)scale(0.1 -0.1)">
      <defs>
       <path d="M 8.203125 72.90625 
L 55.078125 72.90625 
L 55.078125 68.703125 
L 28.609375 0 
L 18.3125 0 
L 43.21875 64.59375 
L 8.203125 64.59375 
z
" id="DejaVuSans-55"/>
      </defs>
      <use xlink:href="#DejaVuSans-49"/>
      <use x="63.623047" xlink:href="#DejaVuSans-101"/>
      <use x="125.146484" xlink:href="#DejaVuSans-55"/>
     </g>
    </g>
   </g>
   <g id="matplotlib.axis_2">
    <g id="ytick_1">
     <g id="line2d_13">
      <path clip-path="url(#p576f202b1c)" d="M 62.28 300.919463 
L 448.416 300.919463 
" style="fill:none;stroke:#b0b0b0;stroke-linecap:square;stroke-width:0.8;"/>
     </g>
     <g id="line2d_14">
      <defs>
       <path d="M 0 0 
L -3.5 0 
" id="mdaea17b51f" style="stroke:#000000;stroke-width:0.8;"/>
      </defs>
      <g>
       <use style="stroke:#000000;stroke-width:0.8;" x="62.28" xlink:href="#mdaea17b51f" y="300.919463"/>
      </g>
     </g>
     <g id="text_9">
      <!-- −40 -->
      <g transform="translate(34.175313 304.718681)scale(0.1 -0.1)">
       <defs>
        <path d="M 10.59375 35.5 
L 73.1875 35.5 
L 73.1875 27.203125 
L 10.59375 27.203125 
z
" id="DejaVuSans-8722"/>
       </defs>
       <use xlink:href="#DejaVuSans-8722"/>
       <use x="83.789062" xlink:href="#DejaVuSans-52"/>
       <use x="147.412109" xlink:href="#DejaVuSans-48"/>
      </g>
     </g>
    </g>
    <g id="ytick_2">
     <g id="line2d_15">
      <path clip-path="url(#p576f202b1c)" d="M 62.28 243.921135 
L 448.416 243.921135 
" style="fill:none;stroke:#b0b0b0;stroke-linecap:square;stroke-width:0.8;"/>
     </g>
     <g id="line2d_16">
      <g>
       <use style="stroke:#000000;stroke-width:0.8;" x="62.28" xlink:href="#mdaea17b51f" y="243.921135"/>
      </g>
     </g>
     <g id="text_10">
      <!-- −20 -->
      <g transform="translate(34.175313 247.720354)scale(0.1 -0.1)">
       <use xlink:href="#DejaVuSans-8722"/>
       <use x="83.789062" xlink:href="#DejaVuSans-50"/>
       <use x="147.412109" xlink:href="#DejaVuSans-48"/>
      </g>
     </g>
    </g>
    <g id="ytick_3">
     <g id="line2d_17">
      <path clip-path="url(#p576f202b1c)" d="M 62.28 186.922808 
L 448.416 186.922808 
" style="fill:none;stroke:#b0b0b0;stroke-linecap:square;stroke-width:0.8;"/>
     </g>
     <g id="line2d_18">
      <g>
       <use style="stroke:#000000;stroke-width:0.8;" x="62.28" xlink:href="#mdaea17b51f" y="186.922808"/>
      </g>
     </g>
     <g id="text_11">
      <!-- 0 -->
      <g transform="translate(48.9175 190.722027)scale(0.1 -0.1)">
       <use xlink:href="#DejaVuSans-48"/>
      </g>
     </g>
    </g>
    <g id="ytick_4">
     <g id="line2d_19">
      <path clip-path="url(#p576f202b1c)" d="M 62.28 129.92448 
L 448.416 129.92448 
" style="fill:none;stroke:#b0b0b0;stroke-linecap:square;stroke-width:0.8;"/>
     </g>
     <g id="line2d_20">
      <g>
       <use style="stroke:#000000;stroke-width:0.8;" x="62.28" xlink:href="#mdaea17b51f" y="129.92448"/>
      </g>
     </g>
     <g id="text_12">
      <!-- 20 -->
      <g transform="translate(42.555 133.723699)scale(0.1 -0.1)">
       <use xlink:href="#DejaVuSans-50"/>
       <use x="63.623047" xlink:href="#DejaVuSans-48"/>
      </g>
     </g>
    </g>
    <g id="ytick_5">
     <g id="line2d_21">
      <path clip-path="url(#p576f202b1c)" d="M 62.28 72.926153 
L 448.416 72.926153 
" style="fill:none;stroke:#b0b0b0;stroke-linecap:square;stroke-width:0.8;"/>
     </g>
     <g id="line2d_22">
      <g>
       <use style="stroke:#000000;stroke-width:0.8;" x="62.28" xlink:href="#mdaea17b51f" y="72.926153"/>
      </g>
     </g>
     <g id="text_13">
      <!-- 40 -->
      <g transform="translate(42.555 76.725372)scale(0.1 -0.1)">
       <use xlink:href="#DejaVuSans-52"/>
       <use x="63.623047" xlink:href="#DejaVuSans-48"/>
      </g>
     </g>
    </g>
    <g id="text_14">
     <!-- Energy $[E_{tot}/max(|E_{tot}|)]$ -->
     <g transform="translate(27.775312 247.6448)rotate(-90)scale(0.1 -0.1)">
      <defs>
       <path d="M 9.8125 72.90625 
L 55.90625 72.90625 
L 55.90625 64.59375 
L 19.671875 64.59375 
L 19.671875 43.015625 
L 54.390625 43.015625 
L 54.390625 34.71875 
L 19.671875 34.71875 
L 19.671875 8.296875 
L 56.78125 8.296875 
L 56.78125 0 
L 9.8125 0 
z
" id="DejaVuSans-69"/>
       <path d="M 45.40625 27.984375 
Q 45.40625 37.75 41.375 43.109375 
Q 37.359375 48.484375 30.078125 48.484375 
Q 22.859375 48.484375 18.828125 43.109375 
Q 14.796875 37.75 14.796875 27.984375 
Q 14.796875 18.265625 18.828125 12.890625 
Q 22.859375 7.515625 30.078125 7.515625 
Q 37.359375 7.515625 41.375 12.890625 
Q 45.40625 18.265625 45.40625 27.984375 
z
M 54.390625 6.78125 
Q 54.390625 -7.171875 48.1875 -13.984375 
Q 42 -20.796875 29.203125 -20.796875 
Q 24.46875 -20.796875 20.265625 -20.09375 
Q 16.0625 -19.390625 12.109375 -17.921875 
L 12.109375 -9.1875 
Q 16.0625 -11.328125 19.921875 -12.34375 
Q 23.78125 -13.375 27.78125 -13.375 
Q 36.625 -13.375 41.015625 -8.765625 
Q 45.40625 -4.15625 45.40625 5.171875 
L 45.40625 9.625 
Q 42.625 4.78125 38.28125 2.390625 
Q 33.9375 0 27.875 0 
Q 17.828125 0 11.671875 7.65625 
Q 5.515625 15.328125 5.515625 27.984375 
Q 5.515625 40.671875 11.671875 48.328125 
Q 17.828125 56 27.875 56 
Q 33.9375 56 38.28125 53.609375 
Q 42.625 51.21875 45.40625 46.390625 
L 45.40625 54.6875 
L 54.390625 54.6875 
z
" id="DejaVuSans-103"/>
       <path d="M 32.171875 -5.078125 
Q 28.375 -14.84375 24.75 -17.8125 
Q 21.140625 -20.796875 15.09375 -20.796875 
L 7.90625 -20.796875 
L 7.90625 -13.28125 
L 13.1875 -13.28125 
Q 16.890625 -13.28125 18.9375 -11.515625 
Q 21 -9.765625 23.484375 -3.21875 
L 25.09375 0.875 
L 2.984375 54.6875 
L 12.5 54.6875 
L 29.59375 11.921875 
L 46.6875 54.6875 
L 56.203125 54.6875 
z
" id="DejaVuSans-121"/>
       <path d="M 16.890625 72.90625 
L 62.984375 72.90625 
L 61.375 64.59375 
L 25.09375 64.59375 
L 20.90625 43.015625 
L 55.71875 43.015625 
L 54.109375 34.71875 
L 19.28125 34.71875 
L 14.203125 8.296875 
L 51.3125 8.296875 
L 49.703125 0 
L 2.6875 0 
z
" id="DejaVuSans-Oblique-69"/>
       <path d="M 42.28125 54.6875 
L 40.921875 47.703125 
L 23 47.703125 
L 17.1875 18.015625 
Q 16.890625 16.359375 16.75 15.234375 
Q 16.609375 14.109375 16.609375 13.484375 
Q 16.609375 10.359375 18.484375 8.9375 
Q 20.359375 7.515625 24.515625 7.515625 
L 33.59375 7.515625 
L 32.078125 0 
L 23.484375 0 
Q 15.484375 0 11.546875 3.125 
Q 7.625 6.25 7.625 12.59375 
Q 7.625 13.71875 7.765625 15.0625 
Q 7.90625 16.40625 8.203125 18.015625 
L 14.015625 47.703125 
L 6.390625 47.703125 
L 7.8125 54.6875 
L 15.28125 54.6875 
L 18.3125 70.21875 
L 27.296875 70.21875 
L 24.3125 54.6875 
z
" id="DejaVuSans-Oblique-116"/>
       <path d="M 25.390625 -1.421875 
Q 15.765625 -1.421875 10.171875 4.515625 
Q 4.59375 10.453125 4.59375 20.703125 
Q 4.59375 26.65625 6.515625 32.828125 
Q 8.453125 39.015625 11.53125 43.21875 
Q 16.359375 49.75 22.3125 52.875 
Q 28.265625 56 35.796875 56 
Q 45.125 56 50.859375 50.1875 
Q 56.59375 44.390625 56.59375 35.015625 
Q 56.59375 28.515625 54.6875 22.0625 
Q 52.78125 15.625 49.703125 11.375 
Q 44.921875 4.828125 38.96875 1.703125 
Q 33.015625 -1.421875 25.390625 -1.421875 
z
M 13.921875 21 
Q 13.921875 13.578125 17.015625 9.890625 
Q 20.125 6.203125 26.421875 6.203125 
Q 35.453125 6.203125 41.375 14.078125 
Q 47.3125 21.96875 47.3125 34.078125 
Q 47.3125 41.15625 44.140625 44.765625 
Q 40.96875 48.390625 34.8125 48.390625 
Q 29.734375 48.390625 25.78125 46.015625 
Q 21.828125 43.65625 18.703125 38.8125 
Q 16.40625 35.203125 15.15625 30.5625 
Q 13.921875 25.921875 13.921875 21 
z
" id="DejaVuSans-Oblique-111"/>
       <path d="M 25.390625 72.90625 
L 33.6875 72.90625 
L 8.296875 -9.28125 
L 0 -9.28125 
z
" id="DejaVuSans-47"/>
       <path d="M 89.796875 33.015625 
L 83.40625 0 
L 74.421875 0 
L 80.71875 32.71875 
Q 81.109375 34.8125 81.296875 36.328125 
Q 81.5 37.84375 81.5 38.921875 
Q 81.5 43.3125 79.046875 45.75 
Q 76.609375 48.1875 72.21875 48.1875 
Q 65.671875 48.1875 60.546875 43.28125 
Q 55.421875 38.375 53.90625 30.515625 
L 47.90625 0 
L 38.921875 0 
L 45.3125 32.71875 
Q 45.703125 34.515625 45.890625 36.046875 
Q 46.09375 37.59375 46.09375 38.8125 
Q 46.09375 43.265625 43.65625 45.71875 
Q 41.21875 48.1875 36.921875 48.1875 
Q 30.28125 48.1875 25.140625 43.28125 
Q 20.015625 38.375 18.5 30.515625 
L 12.5 0 
L 3.515625 0 
L 14.203125 54.6875 
L 23.1875 54.6875 
L 21.484375 46.1875 
Q 25.140625 50.984375 30.046875 53.484375 
Q 34.96875 56 40.578125 56 
Q 46.53125 56 50.359375 52.875 
Q 54.203125 49.75 54.984375 44.1875 
Q 59.078125 49.953125 64.46875 52.96875 
Q 69.875 56 75.875 56 
Q 82.90625 56 86.734375 51.953125 
Q 90.578125 47.90625 90.578125 40.484375 
Q 90.578125 38.875 90.375 36.9375 
Q 90.1875 35.015625 89.796875 33.015625 
z
" id="DejaVuSans-Oblique-109"/>
       <path d="M 53.71875 31.203125 
L 47.609375 0 
L 38.625 0 
L 40.28125 8.296875 
Q 36.328125 3.421875 31.265625 1 
Q 26.21875 -1.421875 20.015625 -1.421875 
Q 13.03125 -1.421875 8.5625 2.84375 
Q 4.109375 7.125 4.109375 13.8125 
Q 4.109375 23.390625 11.75 28.953125 
Q 19.390625 34.515625 32.8125 34.515625 
L 45.3125 34.515625 
L 45.796875 36.921875 
Q 45.90625 37.3125 45.953125 37.765625 
Q 46 38.234375 46 39.203125 
Q 46 43.5625 42.453125 45.96875 
Q 38.921875 48.390625 32.515625 48.390625 
Q 28.125 48.390625 23.5 47.265625 
Q 18.890625 46.140625 14.015625 43.890625 
L 15.578125 52.203125 
Q 20.65625 54.109375 25.515625 55.046875 
Q 30.375 56 34.90625 56 
Q 44.578125 56 49.625 51.796875 
Q 54.6875 47.609375 54.6875 39.59375 
Q 54.6875 37.984375 54.4375 35.8125 
Q 54.203125 33.640625 53.71875 31.203125 
z
M 44 27.484375 
L 35.015625 27.484375 
Q 23.96875 27.484375 18.671875 24.53125 
Q 13.375 21.578125 13.375 15.375 
Q 13.375 11.078125 16.078125 8.640625 
Q 18.796875 6.203125 23.578125 6.203125 
Q 30.90625 6.203125 36.375 11.453125 
Q 41.84375 16.703125 43.609375 25.484375 
z
" id="DejaVuSans-Oblique-97"/>
       <path d="M 60.015625 54.6875 
L 34.90625 27.875 
L 50.296875 0 
L 39.984375 0 
L 28.421875 21.6875 
L 8.296875 0 
L -2.59375 0 
L 24.3125 28.8125 
L 10.015625 54.6875 
L 20.3125 54.6875 
L 30.8125 34.90625 
L 49.125 54.6875 
z
" id="DejaVuSans-Oblique-120"/>
       <path d="M 31 75.875 
Q 24.46875 64.65625 21.28125 53.65625 
Q 18.109375 42.671875 18.109375 31.390625 
Q 18.109375 20.125 21.3125 9.0625 
Q 24.515625 -2 31 -13.1875 
L 23.1875 -13.1875 
Q 15.875 -1.703125 12.234375 9.375 
Q 8.59375 20.453125 8.59375 31.390625 
Q 8.59375 42.28125 12.203125 53.3125 
Q 15.828125 64.359375 23.1875 75.875 
z
" id="DejaVuSans-40"/>
       <path d="M 21 76.421875 
L 21 -23.578125 
L 12.703125 -23.578125 
L 12.703125 76.421875 
z
" id="DejaVuSans-124"/>
       <path d="M 8.015625 75.875 
L 15.828125 75.875 
Q 23.140625 64.359375 26.78125 53.3125 
Q 30.421875 42.28125 30.421875 31.390625 
Q 30.421875 20.453125 26.78125 9.375 
Q 23.140625 -1.703125 15.828125 -13.1875 
L 8.015625 -13.1875 
Q 14.5 -2 17.703125 9.0625 
Q 20.90625 20.125 20.90625 31.390625 
Q 20.90625 42.671875 17.703125 53.65625 
Q 14.5 64.65625 8.015625 75.875 
z
" id="DejaVuSans-41"/>
      </defs>
      <use transform="translate(0 0.578125)" xlink:href="#DejaVuSans-69"/>
      <use transform="translate(63.183594 0.578125)" xlink:href="#DejaVuSans-110"/>
      <use transform="translate(126.5625 0.578125)" xlink:href="#DejaVuSans-101"/>
      <use transform="translate(188.085938 0.578125)" xlink:href="#DejaVuSans-114"/>
      <use transform="translate(229.199219 0.578125)" xlink:href="#DejaVuSans-103"/>
      <use transform="translate(292.675781 0.578125)" xlink:href="#DejaVuSans-121"/>
      <use transform="translate(351.855469 0.578125)" xlink:href="#DejaVuSans-32"/>
      <use transform="translate(383.642578 0.578125)" xlink:href="#DejaVuSans-91"/>
      <use transform="translate(422.65625 0.578125)" xlink:href="#DejaVuSans-Oblique-69"/>
      <use transform="translate(485.839844 -15.828125)scale(0.7)" xlink:href="#DejaVuSans-Oblique-116"/>
      <use transform="translate(513.286133 -15.828125)scale(0.7)" xlink:href="#DejaVuSans-Oblique-111"/>
      <use transform="translate(556.113281 -15.828125)scale(0.7)" xlink:href="#DejaVuSans-Oblique-116"/>
      <use transform="translate(586.293945 0.578125)" xlink:href="#DejaVuSans-47"/>
      <use transform="translate(619.985352 0.578125)" xlink:href="#DejaVuSans-Oblique-109"/>
      <use transform="translate(717.397461 0.578125)" xlink:href="#DejaVuSans-Oblique-97"/>
      <use transform="translate(778.676758 0.578125)" xlink:href="#DejaVuSans-Oblique-120"/>
      <use transform="translate(837.856445 0.578125)" xlink:href="#DejaVuSans-40"/>
      <use transform="translate(876.870117 0.578125)" xlink:href="#DejaVuSans-124"/>
      <use transform="translate(910.561523 0.578125)" xlink:href="#DejaVuSans-Oblique-69"/>
      <use transform="translate(973.745117 -15.828125)scale(0.7)" xlink:href="#DejaVuSans-Oblique-116"/>
      <use transform="translate(1001.191406 -15.828125)scale(0.7)" xlink:href="#DejaVuSans-Oblique-111"/>
      <use transform="translate(1044.018555 -15.828125)scale(0.7)" xlink:href="#DejaVuSans-Oblique-116"/>
      <use transform="translate(1074.199219 0.578125)" xlink:href="#DejaVuSans-124"/>
      <use transform="translate(1107.890625 0.578125)" xlink:href="#DejaVuSans-41"/>
      <use transform="translate(1146.904297 0.578125)" xlink:href="#DejaVuSans-93"/>
     </g>
    </g>
   </g>
   <g id="line2d_23">
    <path clip-path="url(#p576f202b1c)" d="M 79.831636 183.744943 
L 81.200801 183.632345 
L 82.464645 183.306219 
L 83.552955 182.799378 
L 84.465732 182.139016 
L 85.273188 181.280999 
L 85.975323 180.206708 
L 86.607246 178.818783 
L 87.168954 177.031149 
L 87.695556 174.539019 
L 88.151944 171.233353 
L 88.573225 166.391292 
L 88.924293 159.773435 
L 89.240254 149.686697 
L 89.521109 133.825468 
L 89.801963 104.770049 
L 90.188137 57.835918 
L 90.223244 58.238448 
L 90.328565 66.689048 
L 90.995593 142.11819 
L 91.381768 157.594855 
L 91.80305 166.184094 
L 92.259438 171.420805 
L 92.786039 175.050444 
L 93.347748 177.494949 
L 93.97967 179.306675 
L 94.681806 180.661059 
L 95.454155 181.67847 
L 96.331825 182.466447 
L 97.314814 183.052735 
L 98.438232 183.46757 
L 99.737183 183.704894 
L 101.106347 183.727207 
L 102.440405 183.528636 
L 103.634036 183.12997 
L 104.652132 182.561529 
L 105.529802 181.819203 
L 106.302151 180.865536 
L 106.96918 179.681605 
L 107.565995 178.16137 
L 108.092597 176.2188 
L 108.584092 173.527777 
L 109.04048 169.647891 
L 109.426655 164.375927 
L 109.777723 156.38489 
L 110.093684 143.673907 
L 110.374538 122.877569 
L 110.725606 75.329472 
L 110.936246 57.917271 
L 111.041567 65.045028 
L 111.813916 146.872542 
L 112.200091 159.943345 
L 112.621372 167.469819 
L 113.112867 172.463995 
L 113.639469 175.697036 
L 114.236284 178.03112 
L 114.903313 179.740807 
L 115.605449 180.957822 
L 116.412905 181.917641 
L 117.325681 182.651323 
L 118.343778 183.18707 
L 119.537408 183.559152 
L 120.871466 183.734817 
L 122.240631 183.690699 
L 123.539582 183.429648 
L 124.698106 182.969339 
L 125.681095 182.338002 
L 126.523658 181.528593 
L 127.260901 180.500945 
L 127.892823 179.240296 
L 128.489638 177.51927 
L 129.01624 175.273065 
L 129.472628 172.353744 
L 129.89391 168.189968 
L 130.280084 161.975404 
L 130.631152 152.179505 
L 130.947113 135.865408 
L 131.227967 108.47994 
L 131.649249 57.8088 
L 131.684355 58.479967 
L 131.824783 72.283799 
L 132.351384 135.874475 
L 132.737559 154.635281 
L 133.15884 164.618886 
L 133.615229 170.510578 
L 134.14183 174.498427 
L 134.703539 177.138095 
L 135.335461 179.070165 
L 136.037597 180.501157 
L 136.809946 181.569067 
L 137.652509 182.365636 
L 138.635499 182.987296 
L 139.758916 183.429682 
L 141.02276 183.686606 
L 142.391924 183.736452 
L 143.725982 183.566737 
L 144.95472 183.187011 
L 146.007923 182.628129 
L 146.885593 181.917514 
L 147.657942 181.0076 
L 148.324971 179.884082 
L 148.921786 178.452073 
L 149.483495 176.49286 
L 149.97499 173.940562 
L 150.431378 170.301092 
L 150.817552 165.425049 
L 151.16862 158.165177 
L 151.484581 146.866441 
L 151.765436 128.729346 
L 152.081397 90.445978 
L 152.362251 57.915577 
L 152.397358 58.052861 
L 152.502678 65.859411 
L 153.204814 143.680772 
L 153.590988 158.356612 
L 154.01227 166.596709 
L 154.503765 171.959518 
L 155.030366 175.382469 
L 155.627182 177.828498 
L 156.259104 179.530076 
L 156.96124 180.813241 
L 157.733589 181.783128 
L 158.611258 182.537123 
L 159.629355 183.114411 
L 160.787879 183.511577 
L 162.08683 183.719707 
L 163.455994 183.714546 
L 164.754945 183.495527 
L 165.913469 183.08559 
L 166.931566 182.491929 
L 167.809236 181.716223 
L 168.546478 180.77026 
L 169.213507 179.545075 
L 169.810322 177.964003 
L 170.336924 175.930419 
L 170.828419 173.089231 
L 171.2497 169.34129 
L 171.635875 163.877891 
L 171.986943 155.527373 
L 172.302904 142.110818 
L 172.583758 119.993246 
L 173.11036 57.836765 
L 173.180573 60.974809 
L 173.391214 89.397704 
L 173.777389 133.835044 
L 174.163563 153.693698 
L 174.584845 164.132714 
L 175.041233 170.232789 
L 175.567835 174.33216 
L 176.129543 177.031573 
L 176.761465 179.000066 
L 177.463601 180.454006 
L 178.23595 181.536915 
L 179.078513 182.343679 
L 180.061503 182.973034 
L 181.18492 183.421368 
L 182.448764 183.683225 
L 183.817929 183.737664 
L 185.151987 183.572686 
L 186.380724 183.198561 
L 187.433928 182.646611 
L 188.311597 181.944776 
L 189.083946 181.04687 
L 189.750975 179.939835 
L 190.347791 178.531681 
L 190.909499 176.610399 
L 191.400994 174.116489 
L 191.857382 170.576847 
L 192.243557 165.863087 
L 192.594625 158.898037 
L 192.910586 148.159284 
L 193.19144 131.075887 
L 193.472294 99.852482 
L 193.823362 57.83507 
L 193.858469 58.241838 
L 193.963789 66.705149 
L 194.630818 142.125478 
L 195.016993 157.598414 
L 195.438274 166.185959 
L 195.894662 171.421992 
L 196.421264 175.051122 
L 196.982973 177.495373 
L 197.614895 179.306972 
L 198.31703 180.661263 
L 199.08938 181.678614 
L 199.967049 182.46654 
L 200.950039 183.052794 
L 202.073456 183.467604 
L 203.372407 183.704911 
L 204.741572 183.727198 
L 206.075629 183.528602 
L 207.26926 183.129911 
L 208.287357 182.561444 
L 209.165026 181.819076 
L 209.937376 180.86535 
L 210.604405 179.681334 
L 211.20122 178.161031 
L 211.727822 176.218207 
L 212.219317 173.52693 
L 212.675705 169.646535 
L 213.061879 164.373724 
L 213.412947 156.381077 
L 213.728908 143.666959 
L 214.009763 122.864772 
L 214.36083 75.310829 
L 214.571471 57.918966 
L 214.676791 65.060282 
L 215.449141 146.878644 
L 215.835315 159.946481 
L 216.256597 167.471599 
L 216.748092 172.465012 
L 217.274693 175.697713 
L 217.871509 178.031543 
L 218.538538 179.741069 
L 219.240673 180.958008 
L 220.048129 181.917768 
L 220.960906 182.651408 
L 221.979002 183.187121 
L 223.172633 183.559178 
L 224.506691 183.734817 
L 225.875855 183.690682 
L 227.174806 183.429605 
L 228.33333 182.969271 
L 229.31632 182.3379 
L 230.158883 181.528441 
L 230.896125 180.500725 
L 231.528047 179.239991 
L 232.124863 177.518762 
L 232.651465 175.272387 
L 233.107853 172.352727 
L 233.529134 168.188358 
L 233.915309 161.972693 
L 234.266377 152.174675 
L 234.582338 135.85634 
L 234.863192 108.463331 
L 235.284473 57.8088 
L 235.31958 58.485051 
L 235.460007 72.301595 
L 235.986609 135.883543 
L 236.372784 154.639518 
L 236.794065 164.621089 
L 237.250453 170.511849 
L 237.777055 174.499189 
L 238.338763 177.138603 
L 238.970686 179.070487 
L 239.672821 180.501369 
L 240.44517 181.569211 
L 241.287733 182.365738 
L 242.270723 182.987356 
L 243.39414 183.429724 
L 244.657984 183.686623 
L 246.027149 183.736452 
L 247.361207 183.566703 
L 248.589944 183.18696 
L 249.643148 182.628044 
L 250.520817 181.917395 
L 251.293167 181.007414 
L 251.960195 179.883828 
L 252.557011 178.4517 
L 253.118719 176.492266 
L 253.610214 173.939799 
L 254.066602 170.299821 
L 254.452777 165.423015 
L 254.803845 158.161787 
L 255.119806 146.860424 
L 255.40066 128.718329 
L 255.716621 90.426487 
L 255.997475 57.913034 
L 256.032582 58.055403 
L 256.137903 65.874665 
L 256.840038 143.687721 
L 257.226213 158.360002 
L 257.647494 166.598574 
L 258.138989 171.96062 
L 258.665591 175.383062 
L 259.262406 177.828922 
L 259.894328 179.530355 
L 260.596464 180.813436 
L 261.368813 181.783255 
L 262.246483 182.537216 
L 263.26458 183.11447 
L 264.423104 183.511611 
L 265.722054 183.719715 
L 267.091219 183.714538 
L 268.425277 183.486349 
L 269.583801 183.069201 
L 270.601897 182.466261 
L 271.44446 181.716088 
L 272.181703 180.770065 
L 272.848732 179.544796 
L 273.445547 177.963579 
L 273.972149 175.929825 
L 274.463644 173.088299 
L 274.884925 169.339934 
L 275.2711 163.875518 
L 275.622167 155.523306 
L 275.938128 142.103445 
L 276.218983 119.979687 
L 276.745584 57.837613 
L 276.815798 60.985825 
L 277.026439 89.417195 
L 277.412613 133.844704 
L 277.798788 153.698105 
L 278.220069 164.135002 
L 278.676458 170.23406 
L 279.203059 174.332923 
L 279.764768 177.032081 
L 280.39669 179.000388 
L 281.098826 180.454226 
L 281.871175 181.537068 
L 282.713738 182.343781 
L 283.696728 182.973102 
L 284.820145 183.421402 
L 286.083989 183.683242 
L 287.453153 183.737656 
L 288.787211 183.57266 
L 290.015949 183.19851 
L 291.069152 182.646527 
L 291.946822 181.944649 
L 292.719171 181.046692 
L 293.3862 179.939581 
L 293.983015 178.531325 
L 294.544724 176.609805 
L 295.036219 174.115641 
L 295.492607 170.575576 
L 295.878781 165.861138 
L 296.229849 158.894732 
L 296.54581 148.153522 
L 296.826665 131.065464 
L 297.107519 99.833838 
L 297.458587 57.834223 
L 297.493693 58.246075 
L 297.599014 66.720403 
L 298.266043 142.132851 
L 298.652217 157.601973 
L 299.073499 166.187908 
L 299.529887 171.423093 
L 300.056489 175.0518 
L 300.618197 177.495796 
L 301.250119 179.307277 
L 301.952255 180.661466 
L 302.724604 181.67875 
L 303.602274 182.466634 
L 304.585264 183.052854 
L 305.708681 183.467638 
L 307.007632 183.704919 
L 308.376796 183.72719 
L 309.710854 183.528568 
L 310.904485 183.129851 
L 311.922581 182.561351 
L 312.800251 181.818941 
L 313.5726 180.865155 
L 314.239629 179.681063 
L 314.836444 178.160607 
L 315.363046 176.217613 
L 315.854541 173.526082 
L 316.310929 169.645179 
L 316.697104 164.371436 
L 317.048172 156.377263 
L 317.364133 143.66001 
L 317.644987 122.852061 
L 317.996055 75.291338 
L 318.206696 57.921509 
L 318.312016 65.074688 
L 319.084365 146.884745 
L 319.47054 159.949532 
L 319.891821 167.473294 
L 320.383316 172.465944 
L 320.909918 175.698307 
L 321.506733 178.031967 
L 322.173762 179.741341 
L 322.875898 180.958186 
L 323.683354 181.917895 
L 324.59613 182.651484 
L 325.614227 183.187172 
L 326.807858 183.559212 
L 328.141915 183.734825 
L 329.51108 183.690665 
L 330.810031 183.429571 
L 331.968555 182.969212 
L 332.951545 182.337798 
L 333.794108 181.528288 
L 334.53135 180.500513 
L 335.163272 179.239686 
L 335.760087 177.518338 
L 336.286689 175.271709 
L 336.743077 172.35171 
L 337.164359 168.186832 
L 337.550533 161.970065 
L 337.901601 152.169929 
L 338.217562 135.847273 
L 338.498416 108.446806 
L 338.919698 57.8088 
L 338.954805 58.490136 
L 339.095232 72.320239 
L 339.621834 135.89261 
L 340.008008 154.64367 
L 340.42929 164.623208 
L 340.885678 170.51312 
L 341.41228 174.499952 
L 341.973988 177.139112 
L 342.60591 179.070801 
L 343.308046 180.501589 
L 344.080395 181.569363 
L 344.922958 182.36584 
L 345.905948 182.987423 
L 347.029365 183.429758 
L 348.293209 183.68664 
L 349.662374 183.736444 
L 350.996431 183.566677 
L 352.225169 183.186909 
L 353.278372 182.627951 
L 354.156042 181.917268 
L 354.928391 181.007236 
L 355.59542 179.883574 
L 356.192235 178.451336 
L 356.753944 176.491758 
L 357.245439 173.938952 
L 357.701827 170.29855 
L 358.088002 165.420981 
L 358.439069 158.158313 
L 358.755031 146.854323 
L 359.035885 128.707228 
L 359.351846 90.406996 
L 359.6327 57.911339 
L 359.667807 58.058793 
L 359.773127 65.889071 
L 360.475263 143.694585 
L 360.861438 158.363392 
L 361.282719 166.600353 
L 361.774214 171.961637 
L 362.300816 175.38374 
L 362.897631 177.829346 
L 363.529553 179.530635 
L 364.231689 180.813631 
L 365.004038 181.783391 
L 365.881708 182.537309 
L 366.899804 183.11453 
L 368.058328 183.511645 
L 369.357279 183.719732 
L 370.726444 183.714521 
L 372.025395 183.495459 
L 373.183919 183.085471 
L 374.202015 182.491743 
L 375.079685 181.715952 
L 375.816927 180.769861 
L 376.483956 179.544516 
L 377.080771 177.963155 
L 377.607373 175.929232 
L 378.098868 173.087451 
L 378.52015 169.338493 
L 378.906324 163.87323 
L 379.257392 155.519323 
L 379.573353 142.096157 
L 379.854207 119.966129 
L 380.380809 57.83846 
L 380.451023 60.995995 
L 380.661663 89.436685 
L 381.047838 133.854365 
L 381.434013 153.702511 
L 381.855294 164.13729 
L 382.311682 170.235331 
L 382.838284 174.333686 
L 383.399992 177.03259 
L 384.031915 179.000718 
L 384.73405 180.454438 
L 385.506399 181.537212 
L 386.348962 182.343883 
L 387.331952 182.973161 
L 388.455369 183.421444 
L 389.719213 183.683259 
L 391.088378 183.737656 
L 392.422436 183.572626 
L 393.651173 183.198459 
L 394.704377 182.646442 
L 395.582046 181.944522 
L 396.354396 181.046514 
L 397.021424 179.939326 
L 397.61824 178.530961 
L 398.179948 176.609297 
L 398.671443 174.114879 
L 399.127831 170.574389 
L 399.514006 165.859189 
L 399.865074 158.891512 
L 400.181035 148.147759 
L 400.461889 131.05504 
L 400.742743 99.816042 
L 401.093811 57.833376 
L 401.128918 58.250312 
L 401.234238 66.736504 
L 401.901267 142.140139 
L 402.287442 157.605533 
L 402.708723 166.189857 
L 403.165112 171.424195 
L 403.691713 175.052478 
L 404.253422 177.496305 
L 404.885344 179.307574 
L 405.58748 180.66167 
L 406.359829 181.678885 
L 407.237498 182.466727 
L 408.220488 183.052921 
L 409.379012 183.477189 
L 410.677963 183.7083 
L 412.047128 183.724825 
L 413.381186 183.520086 
L 414.574816 183.114182 
L 415.592913 182.536767 
L 416.470582 181.782594 
L 417.242932 180.81247 
L 417.909961 179.605633 
L 418.506776 178.051712 
L 419.033378 176.058805 
L 419.524873 173.284988 
L 419.946154 169.643823 
L 420.332329 164.369232 
L 420.683396 156.37345 
L 420.999357 143.653061 
L 421.280212 122.839265 
L 421.63128 75.272694 
L 421.84192 57.923203 
L 421.947241 65.089095 
L 422.71959 146.890847 
L 423.105765 159.952582 
L 423.527046 167.474989 
L 424.018541 172.466961 
L 424.545143 175.6989 
L 425.141958 178.032306 
L 425.808987 179.741603 
L 426.511122 180.958373 
L 427.318579 181.918022 
L 428.231355 182.651569 
L 429.249452 183.187231 
L 430.443082 183.559237 
L 430.864364 183.639362 
L 430.864364 183.639362 
" style="fill:none;stroke:#1f77b4;stroke-linecap:square;stroke-width:1.5;"/>
   </g>
   <g id="line2d_24">
    <path clip-path="url(#p576f202b1c)" d="M 79.831636 192.944767 
L 81.200801 193.057365 
L 82.464645 193.3835 
L 83.552955 193.890358 
L 84.465732 194.550728 
L 85.273188 195.408745 
L 85.975323 196.483036 
L 86.607246 197.871046 
L 87.168954 199.658705 
L 87.695556 202.15092 
L 88.151944 205.456671 
L 88.573225 210.298902 
L 88.924293 216.917097 
L 89.240254 227.004513 
L 89.521109 242.866929 
L 89.801963 271.924551 
L 90.188137 318.85453 
L 90.223244 318.450304 
L 90.328565 309.996315 
L 90.995593 234.569545 
L 91.381768 219.093898 
L 91.80305 210.505082 
L 92.259438 205.268541 
L 92.786039 201.639071 
L 93.347748 199.194651 
L 93.97967 197.382925 
L 94.681806 196.028558 
L 95.454155 195.011198 
L 96.331825 194.223238 
L 97.314814 193.636958 
L 98.438232 193.222131 
L 99.737183 192.984808 
L 101.106347 192.962503 
L 102.440405 193.161082 
L 103.634036 193.559757 
L 104.652132 194.128198 
L 105.529802 194.870541 
L 106.302151 195.824242 
L 106.96918 197.00819 
L 107.565995 198.528399 
L 108.092597 200.471054 
L 108.584092 203.162162 
L 109.04048 207.042133 
L 109.426655 212.314351 
L 109.777723 220.305896 
L 110.093684 233.017726 
L 110.374538 253.815675 
L 110.725606 301.365212 
L 110.936246 318.772329 
L 111.041567 311.640335 
L 111.813916 229.815447 
L 112.200091 216.745492 
L 112.621372 209.219357 
L 113.112867 204.225436 
L 113.639469 200.99248 
L 114.236284 198.65848 
L 114.903313 196.94887 
L 115.605449 195.731871 
L 116.412905 194.772027 
L 117.325681 194.038362 
L 118.343778 193.502623 
L 119.537408 193.130549 
L 120.871466 192.954894 
L 122.240631 192.999019 
L 123.539582 193.260071 
L 124.698106 193.720388 
L 125.681095 194.351734 
L 126.523658 195.161159 
L 127.260901 196.188807 
L 127.892823 197.449533 
L 128.489638 199.170584 
L 129.01624 201.416874 
L 129.472628 204.33628 
L 129.89391 208.500141 
L 130.280084 214.715043 
L 130.631152 224.511535 
L 130.947113 240.826735 
L 131.227967 268.214321 
L 131.649249 318.8808 
L 131.684355 318.207938 
L 131.824783 304.401564 
L 132.351384 240.812752 
L 132.737559 222.053302 
L 133.15884 212.070205 
L 133.615229 206.178768 
L 134.14183 202.191089 
L 134.703539 199.551505 
L 135.335461 197.619443 
L 136.037597 196.188468 
L 136.809946 195.120601 
L 137.652509 194.32404 
L 138.635499 193.702397 
L 139.758916 193.260012 
L 141.02276 193.003096 
L 142.391924 192.953258 
L 143.725982 193.122982 
L 144.95472 193.502708 
L 146.007923 194.061607 
L 146.885593 194.772222 
L 147.657942 195.682127 
L 148.324971 196.805653 
L 148.921786 198.23773 
L 149.483495 200.196995 
L 149.97499 202.749293 
L 150.431378 206.388932 
L 150.817552 211.265229 
L 151.16862 218.52544 
L 151.484581 229.824854 
L 151.765436 247.96339 
L 152.081397 286.248707 
L 152.362251 318.774871 
L 152.397358 318.635892 
L 152.502678 310.826799 
L 153.204814 233.007049 
L 153.590988 218.33214 
L 154.01227 210.092467 
L 154.503765 204.729828 
L 155.030366 201.307047 
L 155.627182 198.861102 
L 156.259104 197.159541 
L 156.96124 195.876443 
L 157.733589 194.906548 
L 158.611258 194.152553 
L 159.629355 193.575274 
L 160.787879 193.178124 
L 162.08683 192.969995 
L 163.455994 192.975164 
L 164.754945 193.194192 
L 165.913469 193.604137 
L 166.931566 194.197806 
L 167.809236 194.973521 
L 168.546478 195.919493 
L 169.213507 197.144711 
L 169.810322 198.725851 
L 170.336924 200.759436 
L 170.828419 203.600708 
L 171.2497 207.348734 
L 171.635875 212.812472 
L 171.986943 221.163413 
L 172.302904 234.580901 
L 172.583758 256.700167 
L 173.11036 318.852835 
L 173.180573 315.711401 
L 173.391214 287.286812 
L 173.777389 242.852014 
L 174.163563 222.9948 
L 174.584845 212.556378 
L 175.041233 206.456557 
L 175.567835 202.357355 
L 176.129543 199.657943 
L 176.761465 197.689526 
L 177.463601 196.23567 
L 178.23595 195.152753 
L 179.078513 194.345997 
L 180.061503 193.716659 
L 181.18492 193.268333 
L 182.448764 193.006477 
L 183.817929 192.952046 
L 185.151987 193.117033 
L 186.380724 193.491157 
L 187.433928 194.043124 
L 188.311597 194.744968 
L 189.083946 195.642891 
L 189.750975 196.749977 
L 190.347791 198.158156 
L 190.909499 200.079456 
L 191.400994 202.57345 
L 191.857382 206.113177 
L 192.243557 210.827106 
L 192.594625 217.79258 
L 192.910586 228.532011 
L 193.19144 245.616679 
L 193.472294 276.842203 
L 193.823362 318.855377 
L 193.858469 318.446067 
L 193.963789 309.980214 
L 194.630818 234.562173 
L 195.016993 219.090338 
L 195.438274 210.503218 
L 195.894662 205.267439 
L 196.421264 201.638393 
L 196.982973 199.194227 
L 197.614895 197.38267 
L 198.31703 196.028388 
L 199.08938 195.011062 
L 199.967049 194.223144 
L 200.950039 193.63689 
L 202.073456 193.222089 
L 203.372407 192.984799 
L 204.741572 192.962512 
L 206.075629 193.161116 
L 207.26926 193.559808 
L 208.287357 194.128291 
L 209.165026 194.870668 
L 209.937376 195.824411 
L 210.604405 197.008444 
L 211.20122 198.528823 
L 211.727822 200.471648 
L 212.219317 203.163009 
L 212.675705 207.043573 
L 213.061879 212.316639 
L 213.412947 220.309709 
L 213.728908 233.024675 
L 214.009763 253.828387 
L 214.36083 301.384703 
L 214.571471 318.769786 
L 214.676791 311.625928 
L 215.449141 229.809431 
L 215.835315 216.742441 
L 216.256597 209.217662 
L 216.748092 204.224419 
L 217.274693 200.991887 
L 217.871509 198.658057 
L 218.538538 196.948531 
L 219.27578 195.681703 
L 220.083236 194.737833 
L 220.996012 194.015523 
L 222.049216 193.473929 
L 223.242847 193.115474 
L 224.576904 192.951741 
L 225.946069 193.007392 
L 227.24502 193.281189 
L 228.368437 193.738625 
L 229.351427 194.379809 
L 230.19399 195.202319 
L 230.931232 196.248212 
L 231.563154 197.534107 
L 232.124863 199.171008 
L 232.651465 201.417552 
L 233.107853 204.337297 
L 233.529134 208.501751 
L 233.915309 214.717755 
L 234.266377 224.516281 
L 234.582338 240.835802 
L 234.863192 268.230846 
L 235.284473 318.8808 
L 235.31958 318.203701 
L 235.460007 304.38292 
L 235.986609 240.803684 
L 236.372784 222.049065 
L 236.794065 212.068087 
L 237.250453 206.177497 
L 237.777055 202.190326 
L 238.338763 199.550997 
L 238.970686 197.619104 
L 239.672821 196.188299 
L 240.44517 195.120449 
L 241.287733 194.323947 
L 242.270723 193.702329 
L 243.39414 193.259978 
L 244.657984 193.003079 
L 246.027149 192.953258 
L 247.361207 193.123007 
L 248.589944 193.502759 
L 249.643148 194.061692 
L 250.520817 194.772349 
L 251.293167 195.682381 
L 251.960195 196.805992 
L 252.557011 198.238069 
L 253.118719 200.197588 
L 253.610214 202.75014 
L 254.066602 206.390203 
L 254.452777 211.267263 
L 254.803845 218.528914 
L 255.119806 229.830955 
L 255.40066 247.974491 
L 255.716621 286.268198 
L 255.997475 318.776566 
L 256.032582 318.63335 
L 256.137903 310.811545 
L 256.840038 233.0001 
L 257.226213 218.328751 
L 257.647494 210.090687 
L 258.138989 204.728811 
L 258.665591 201.306454 
L 259.262406 198.860678 
L 259.894328 197.159287 
L 260.596464 195.876189 
L 261.368813 194.906413 
L 262.246483 194.152469 
L 263.26458 193.575214 
L 264.423104 193.17809 
L 265.722054 192.969986 
L 267.091219 192.975173 
L 268.425277 193.203369 
L 269.583801 193.620527 
L 270.601897 194.223475 
L 271.44446 194.973656 
L 272.181703 195.919662 
L 272.848732 197.144965 
L 273.445547 198.726275 
L 273.972149 200.760029 
L 274.463644 203.60164 
L 274.884925 207.350175 
L 275.2711 212.81476 
L 275.622167 221.167481 
L 275.938128 234.588274 
L 276.218983 256.713726 
L 276.745584 318.851987 
L 276.815798 315.701232 
L 277.026439 287.267321 
L 277.412613 242.842353 
L 277.798788 222.990394 
L 278.220069 212.55409 
L 278.676458 206.455286 
L 279.203059 202.356592 
L 279.764768 199.657434 
L 280.39669 197.689187 
L 281.098826 196.235416 
L 281.871175 195.1526 
L 282.713738 194.345895 
L 283.696728 193.716592 
L 284.820145 193.268291 
L 286.083989 193.00646 
L 287.453153 192.952046 
L 288.787211 193.117058 
L 290.015949 193.491208 
L 291.069152 194.043209 
L 291.946822 194.745095 
L 292.719171 195.64306 
L 293.3862 196.750231 
L 293.983015 198.158495 
L 294.544724 200.080049 
L 295.036219 202.574213 
L 295.492607 206.114448 
L 295.878781 210.82914 
L 296.229849 217.795885 
L 296.54581 228.537773 
L 296.826665 245.627102 
L 297.107519 276.860847 
L 297.458587 318.856224 
L 297.493693 318.442677 
L 297.599014 309.96496 
L 298.266043 234.554885 
L 298.652217 219.086779 
L 299.073499 210.501268 
L 299.529887 205.266337 
L 300.056489 201.637715 
L 300.618197 199.193719 
L 301.250119 197.382331 
L 301.952255 196.028219 
L 302.724604 195.010918 
L 303.602274 194.223043 
L 304.585264 193.636831 
L 305.708681 193.222055 
L 307.007632 192.984782 
L 308.376796 192.96252 
L 309.710854 193.161142 
L 310.904485 193.559867 
L 311.922581 194.128376 
L 312.800251 194.870803 
L 313.5726 195.824581 
L 314.239629 197.008698 
L 314.836444 198.529247 
L 315.363046 200.472241 
L 315.854541 203.163857 
L 316.310929 207.044929 
L 316.697104 212.318842 
L 317.048172 220.313523 
L 317.364133 233.031624 
L 317.644987 253.841183 
L 317.996055 301.403347 
L 318.206696 318.768091 
L 318.312016 311.611522 
L 319.084365 229.803329 
L 319.47054 216.739391 
L 319.891821 209.215967 
L 320.383316 204.223487 
L 320.909918 200.991209 
L 321.506733 198.657633 
L 322.173762 196.948276 
L 322.875898 195.731448 
L 323.683354 194.771781 
L 324.59613 194.038192 
L 325.614227 193.502522 
L 326.807858 193.13049 
L 328.141915 192.954877 
L 329.51108 192.999045 
L 330.810031 193.260147 
L 331.968555 193.720515 
L 332.951545 194.351937 
L 333.794108 195.161456 
L 334.53135 196.189231 
L 335.163272 197.450126 
L 335.760087 199.171516 
L 336.286689 201.41823 
L 336.743077 204.338314 
L 337.164359 208.503361 
L 337.550533 214.720382 
L 337.901601 224.521111 
L 338.217562 240.84487 
L 338.498416 268.247455 
L 338.919698 318.8808 
L 338.954805 318.198617 
L 339.095232 304.365124 
L 339.621834 240.794617 
L 340.008008 222.044828 
L 340.42929 212.065884 
L 340.885678 206.176311 
L 341.41228 202.189563 
L 341.973988 199.550488 
L 342.60591 197.61885 
L 343.308046 196.188044 
L 344.080395 195.120305 
L 344.922958 194.323845 
L 345.905948 193.70227 
L 347.029365 193.259935 
L 348.293209 193.003062 
L 349.662374 192.953266 
L 350.996431 193.123033 
L 352.225169 193.50281 
L 353.278372 194.061776 
L 354.156042 194.772476 
L 354.928391 195.682551 
L 355.59542 196.806247 
L 356.192235 198.238493 
L 356.753944 200.198096 
L 357.245439 202.750987 
L 357.701827 206.391559 
L 358.088002 211.269297 
L 358.439069 218.532304 
L 358.755031 229.837057 
L 359.035885 247.985508 
L 359.351846 286.288536 
L 359.6327 318.779108 
L 359.667807 318.62996 
L 359.773127 310.796291 
L 360.475263 232.993151 
L 360.861438 218.325361 
L 361.282719 210.088823 
L 361.774214 204.727709 
L 362.300816 201.305776 
L 362.897631 198.860254 
L 363.529553 197.159033 
L 364.231689 195.87602 
L 365.004038 194.906277 
L 365.881708 194.152375 
L 366.899804 193.575163 
L 368.058328 193.178056 
L 369.357279 192.969978 
L 370.726444 192.97519 
L 372.025395 193.194251 
L 373.183919 193.604256 
L 374.202015 194.197993 
L 375.079685 194.973792 
L 375.816927 195.919917 
L 376.483956 197.145304 
L 377.080771 198.726614 
L 377.607373 200.760622 
L 378.098868 203.602573 
L 378.52015 207.351615 
L 378.906324 212.817133 
L 379.257392 221.171464 
L 379.573353 234.595561 
L 379.854207 256.727285 
L 380.380809 318.850292 
L 380.451023 315.691063 
L 380.661663 287.246983 
L 381.047838 242.832693 
L 381.434013 222.985987 
L 381.855294 212.551802 
L 382.311682 206.454014 
L 382.838284 202.35583 
L 383.399992 199.65701 
L 384.031915 197.688933 
L 384.698943 196.295245 
L 385.471293 195.193311 
L 386.313855 194.373665 
L 387.296845 193.734633 
L 388.420262 193.27885 
L 389.684107 193.010824 
L 391.053271 192.950673 
L 392.387329 193.109787 
L 393.616066 193.477005 
L 394.66927 194.020455 
L 395.582046 194.745214 
L 396.354396 195.64323 
L 397.056531 196.820399 
L 397.653347 198.258831 
L 398.215055 200.22818 
L 398.70655 202.796071 
L 399.162938 206.462489 
L 399.549113 211.382429 
L 399.900181 218.722637 
L 400.216142 230.174928 
L 400.496996 248.601422 
L 400.812957 287.37664 
L 401.093811 318.857072 
L 401.164025 316.716457 
L 401.339559 294.871335 
L 401.76084 243.899949 
L 402.111908 224.754325 
L 402.498083 214.132603 
L 402.954471 207.342293 
L 403.445966 203.111655 
L 404.007674 200.135471 
L 404.60449 198.097565 
L 405.271519 196.573118 
L 406.008761 195.426118 
L 406.851324 194.531881 
L 407.799207 193.857426 
L 408.887517 193.363517 
L 410.116255 193.053789 
L 411.450312 192.944775 
L 412.819477 193.055094 
L 414.083321 193.378644 
L 415.171631 193.882358 
L 416.119515 194.569685 
L 416.926971 195.436287 
L 417.629106 196.522526 
L 418.261028 197.927993 
L 418.822737 199.741754 
L 419.314232 202.072024 
L 419.77062 205.335064 
L 420.191901 210.100941 
L 420.542969 216.591259 
L 420.85893 226.440801 
L 421.139785 241.859162 
L 421.420639 270.097147 
L 421.84192 318.766397 
L 421.877027 317.554568 
L 422.017454 302.321964 
L 422.508949 242.306606 
L 422.895124 222.744045 
L 423.316405 212.427398 
L 423.772793 206.383169 
L 424.299395 202.313458 
L 424.861104 199.629893 
L 425.493026 197.671136 
L 426.195161 196.223213 
L 426.967511 195.144304 
L 427.810073 194.340234 
L 428.793063 193.712914 
L 429.91648 193.266147 
L 430.864364 193.05034 
L 430.864364 193.05034 
" style="fill:none;stroke:#ff7f0e;stroke-linecap:square;stroke-width:1.5;"/>
   </g>
   <g id="line2d_25">
    <path clip-path="url(#p576f202b1c)" d="M 79.831636 189.766902 
L 430.864364 189.766894 
L 430.864364 189.766894 
" style="fill:none;stroke:#2ca02c;stroke-dasharray:5.55,2.4;stroke-dashoffset:0;stroke-width:1.5;"/>
   </g>
   <g id="patch_3">
    <path d="M 62.28 331.9344 
L 62.28 44.7552 
" style="fill:none;stroke:#000000;stroke-linecap:square;stroke-linejoin:miter;stroke-width:0.8;"/>
   </g>
   <g id="patch_4">
    <path d="M 448.416 331.9344 
L 448.416 44.7552 
" style="fill:none;stroke:#000000;stroke-linecap:square;stroke-linejoin:miter;stroke-width:0.8;"/>
   </g>
   <g id="patch_5">
    <path d="M 62.28 331.9344 
L 448.416 331.9344 
" style="fill:none;stroke:#000000;stroke-linecap:square;stroke-linejoin:miter;stroke-width:0.8;"/>
   </g>
   <g id="patch_6">
    <path d="M 62.28 44.7552 
L 448.416 44.7552 
" style="fill:none;stroke:#000000;stroke-linecap:square;stroke-linejoin:miter;stroke-width:0.8;"/>
   </g>
   <g id="text_15">
    <!-- n = 2, N = 1.0e+07, dt = 1e-06, VelocityVerlet, Simulated time = 10.00 years -->
    <g transform="translate(20.825812 25.317825)scale(0.12 -0.12)">
     <defs>
      <path d="M 10.59375 45.40625 
L 73.1875 45.40625 
L 73.1875 37.203125 
L 10.59375 37.203125 
z
M 10.59375 25.484375 
L 73.1875 25.484375 
L 73.1875 17.1875 
L 10.59375 17.1875 
z
" id="DejaVuSans-61"/>
      <path d="M 11.71875 12.40625 
L 22.015625 12.40625 
L 22.015625 4 
L 14.015625 -11.625 
L 7.71875 -11.625 
L 11.71875 4 
z
" id="DejaVuSans-44"/>
      <path d="M 46 62.703125 
L 46 35.5 
L 73.1875 35.5 
L 73.1875 27.203125 
L 46 27.203125 
L 46 0 
L 37.796875 0 
L 37.796875 27.203125 
L 10.59375 27.203125 
L 10.59375 35.5 
L 37.796875 35.5 
L 37.796875 62.703125 
z
" id="DejaVuSans-43"/>
      <path d="M 45.40625 46.390625 
L 45.40625 75.984375 
L 54.390625 75.984375 
L 54.390625 0 
L 45.40625 0 
L 45.40625 8.203125 
Q 42.578125 3.328125 38.25 0.953125 
Q 33.9375 -1.421875 27.875 -1.421875 
Q 17.96875 -1.421875 11.734375 6.484375 
Q 5.515625 14.40625 5.515625 27.296875 
Q 5.515625 40.1875 11.734375 48.09375 
Q 17.96875 56 27.875 56 
Q 33.9375 56 38.25 53.625 
Q 42.578125 51.265625 45.40625 46.390625 
z
M 14.796875 27.296875 
Q 14.796875 17.390625 18.875 11.75 
Q 22.953125 6.109375 30.078125 6.109375 
Q 37.203125 6.109375 41.296875 11.75 
Q 45.40625 17.390625 45.40625 27.296875 
Q 45.40625 37.203125 41.296875 42.84375 
Q 37.203125 48.484375 30.078125 48.484375 
Q 22.953125 48.484375 18.875 42.84375 
Q 14.796875 37.203125 14.796875 27.296875 
z
" id="DejaVuSans-100"/>
      <path d="M 4.890625 31.390625 
L 31.203125 31.390625 
L 31.203125 23.390625 
L 4.890625 23.390625 
z
" id="DejaVuSans-45"/>
      <path d="M 28.609375 0 
L 0.78125 72.90625 
L 11.078125 72.90625 
L 34.1875 11.53125 
L 57.328125 72.90625 
L 67.578125 72.90625 
L 39.796875 0 
z
" id="DejaVuSans-86"/>
      <path d="M 9.421875 75.984375 
L 18.40625 75.984375 
L 18.40625 0 
L 9.421875 0 
z
" id="DejaVuSans-108"/>
      <path d="M 48.78125 52.59375 
L 48.78125 44.1875 
Q 44.96875 46.296875 41.140625 47.34375 
Q 37.3125 48.390625 33.40625 48.390625 
Q 24.65625 48.390625 19.8125 42.84375 
Q 14.984375 37.3125 14.984375 27.296875 
Q 14.984375 17.28125 19.8125 11.734375 
Q 24.65625 6.203125 33.40625 6.203125 
Q 37.3125 6.203125 41.140625 7.25 
Q 44.96875 8.296875 48.78125 10.40625 
L 48.78125 2.09375 
Q 45.015625 0.34375 40.984375 -0.53125 
Q 36.96875 -1.421875 32.421875 -1.421875 
Q 20.0625 -1.421875 12.78125 6.34375 
Q 5.515625 14.109375 5.515625 27.296875 
Q 5.515625 40.671875 12.859375 48.328125 
Q 20.21875 56 33.015625 56 
Q 37.15625 56 41.109375 55.140625 
Q 45.0625 54.296875 48.78125 52.59375 
z
" id="DejaVuSans-99"/>
      <path d="M 53.515625 70.515625 
L 53.515625 60.890625 
Q 47.90625 63.578125 42.921875 64.890625 
Q 37.9375 66.21875 33.296875 66.21875 
Q 25.25 66.21875 20.875 63.09375 
Q 16.5 59.96875 16.5 54.203125 
Q 16.5 49.359375 19.40625 46.890625 
Q 22.3125 44.4375 30.421875 42.921875 
L 36.375 41.703125 
Q 47.40625 39.59375 52.65625 34.296875 
Q 57.90625 29 57.90625 20.125 
Q 57.90625 9.515625 50.796875 4.046875 
Q 43.703125 -1.421875 29.984375 -1.421875 
Q 24.8125 -1.421875 18.96875 -0.25 
Q 13.140625 0.921875 6.890625 3.21875 
L 6.890625 13.375 
Q 12.890625 10.015625 18.65625 8.296875 
Q 24.421875 6.59375 29.984375 6.59375 
Q 38.421875 6.59375 43.015625 9.90625 
Q 47.609375 13.234375 47.609375 19.390625 
Q 47.609375 24.75 44.3125 27.78125 
Q 41.015625 30.8125 33.5 32.328125 
L 27.484375 33.5 
Q 16.453125 35.6875 11.515625 40.375 
Q 6.59375 45.0625 6.59375 53.421875 
Q 6.59375 63.09375 13.40625 68.65625 
Q 20.21875 74.21875 32.171875 74.21875 
Q 37.3125 74.21875 42.625 73.28125 
Q 47.953125 72.359375 53.515625 70.515625 
z
" id="DejaVuSans-83"/>
      <path d="M 34.28125 27.484375 
Q 23.390625 27.484375 19.1875 25 
Q 14.984375 22.515625 14.984375 16.5 
Q 14.984375 11.71875 18.140625 8.90625 
Q 21.296875 6.109375 26.703125 6.109375 
Q 34.1875 6.109375 38.703125 11.40625 
Q 43.21875 16.703125 43.21875 25.484375 
L 43.21875 27.484375 
z
M 52.203125 31.203125 
L 52.203125 0 
L 43.21875 0 
L 43.21875 8.296875 
Q 40.140625 3.328125 35.546875 0.953125 
Q 30.953125 -1.421875 24.3125 -1.421875 
Q 15.921875 -1.421875 10.953125 3.296875 
Q 6 8.015625 6 15.921875 
Q 6 25.140625 12.171875 29.828125 
Q 18.359375 34.515625 30.609375 34.515625 
L 43.21875 34.515625 
L 43.21875 35.40625 
Q 43.21875 41.609375 39.140625 45 
Q 35.0625 48.390625 27.6875 48.390625 
Q 23 48.390625 18.546875 47.265625 
Q 14.109375 46.140625 10.015625 43.890625 
L 10.015625 52.203125 
Q 14.9375 54.109375 19.578125 55.046875 
Q 24.21875 56 28.609375 56 
Q 40.484375 56 46.34375 49.84375 
Q 52.203125 43.703125 52.203125 31.203125 
z
" id="DejaVuSans-97"/>
     </defs>
     <use xlink:href="#DejaVuSans-110"/>
     <use x="63.378906" xlink:href="#DejaVuSans-32"/>
     <use x="95.166016" xlink:href="#DejaVuSans-61"/>
     <use x="178.955078" xlink:href="#DejaVuSans-32"/>
     <use x="210.742188" xlink:href="#DejaVuSans-50"/>
     <use x="274.365234" xlink:href="#DejaVuSans-44"/>
     <use x="306.152344" xlink:href="#DejaVuSans-32"/>
     <use x="337.939453" xlink:href="#DejaVuSans-78"/>
     <use x="412.744141" xlink:href="#DejaVuSans-32"/>
     <use x="444.53125" xlink:href="#DejaVuSans-61"/>
     <use x="528.320312" xlink:href="#DejaVuSans-32"/>
     <use x="560.107422" xlink:href="#DejaVuSans-49"/>
     <use x="623.730469" xlink:href="#DejaVuSans-46"/>
     <use x="655.517578" xlink:href="#DejaVuSans-48"/>
     <use x="719.140625" xlink:href="#DejaVuSans-101"/>
     <use x="780.664062" xlink:href="#DejaVuSans-43"/>
     <use x="864.453125" xlink:href="#DejaVuSans-48"/>
     <use x="928.076172" xlink:href="#DejaVuSans-55"/>
     <use x="991.699219" xlink:href="#DejaVuSans-44"/>
     <use x="1023.486328" xlink:href="#DejaVuSans-32"/>
     <use x="1055.273438" xlink:href="#DejaVuSans-100"/>
     <use x="1118.75" xlink:href="#DejaVuSans-116"/>
     <use x="1157.958984" xlink:href="#DejaVuSans-32"/>
     <use x="1189.746094" xlink:href="#DejaVuSans-61"/>
     <use x="1273.535156" xlink:href="#DejaVuSans-32"/>
     <use x="1305.322266" xlink:href="#DejaVuSans-49"/>
     <use x="1368.945312" xlink:href="#DejaVuSans-101"/>
     <use x="1430.46875" xlink:href="#DejaVuSans-45"/>
     <use x="1466.552734" xlink:href="#DejaVuSans-48"/>
     <use x="1530.175781" xlink:href="#DejaVuSans-54"/>
     <use x="1593.798828" xlink:href="#DejaVuSans-44"/>
     <use x="1625.585938" xlink:href="#DejaVuSans-32"/>
     <use x="1657.373047" xlink:href="#DejaVuSans-86"/>
     <use x="1718.03125" xlink:href="#DejaVuSans-101"/>
     <use x="1779.554688" xlink:href="#DejaVuSans-108"/>
     <use x="1807.337891" xlink:href="#DejaVuSans-111"/>
     <use x="1868.519531" xlink:href="#DejaVuSans-99"/>
     <use x="1923.5" xlink:href="#DejaVuSans-105"/>
     <use x="1951.283203" xlink:href="#DejaVuSans-116"/>
     <use x="1990.492188" xlink:href="#DejaVuSans-121"/>
     <use x="2049.671875" xlink:href="#DejaVuSans-86"/>
     <use x="2110.330078" xlink:href="#DejaVuSans-101"/>
     <use x="2171.853516" xlink:href="#DejaVuSans-114"/>
     <use x="2212.966797" xlink:href="#DejaVuSans-108"/>
     <use x="2240.75" xlink:href="#DejaVuSans-101"/>
     <use x="2302.273438" xlink:href="#DejaVuSans-116"/>
     <use x="2341.482422" xlink:href="#DejaVuSans-44"/>
     <use x="2373.269531" xlink:href="#DejaVuSans-32"/>
     <use x="2405.056641" xlink:href="#DejaVuSans-83"/>
     <use x="2468.533203" xlink:href="#DejaVuSans-105"/>
     <use x="2496.316406" xlink:href="#DejaVuSans-109"/>
     <use x="2593.728516" xlink:href="#DejaVuSans-117"/>
     <use x="2657.107422" xlink:href="#DejaVuSans-108"/>
     <use x="2684.890625" xlink:href="#DejaVuSans-97"/>
     <use x="2746.169922" xlink:href="#DejaVuSans-116"/>
     <use x="2785.378906" xlink:href="#DejaVuSans-101"/>
     <use x="2846.902344" xlink:href="#DejaVuSans-100"/>
     <use x="2910.378906" xlink:href="#DejaVuSans-32"/>
     <use x="2942.166016" xlink:href="#DejaVuSans-116"/>
     <use x="2981.375" xlink:href="#DejaVuSans-105"/>
     <use x="3009.158203" xlink:href="#DejaVuSans-109"/>
     <use x="3106.570312" xlink:href="#DejaVuSans-101"/>
     <use x="3168.09375" xlink:href="#DejaVuSans-32"/>
     <use x="3199.880859" xlink:href="#DejaVuSans-61"/>
     <use x="3283.669922" xlink:href="#DejaVuSans-32"/>
     <use x="3315.457031" xlink:href="#DejaVuSans-49"/>
     <use x="3379.080078" xlink:href="#DejaVuSans-48"/>
     <use x="3442.703125" xlink:href="#DejaVuSans-46"/>
     <use x="3474.490234" xlink:href="#DejaVuSans-48"/>
     <use x="3538.113281" xlink:href="#DejaVuSans-48"/>
     <use x="3601.736328" xlink:href="#DejaVuSans-32"/>
     <use x="3633.523438" xlink:href="#DejaVuSans-121"/>
     <use x="3692.703125" xlink:href="#DejaVuSans-101"/>
     <use x="3754.226562" xlink:href="#DejaVuSans-97"/>
     <use x="3815.505859" xlink:href="#DejaVuSans-114"/>
     <use x="3856.619141" xlink:href="#DejaVuSans-115"/>
    </g>
    <!--  -->
    <g transform="translate(255.348 38.7552)scale(0.12 -0.12)"/>
   </g>
   <g id="legend_1">
    <g id="patch_7">
     <path d="M 147.692562 97.0677 
L 441.416 97.0677 
Q 443.416 97.0677 443.416 95.0677 
L 443.416 51.7552 
Q 443.416 49.7552 441.416 49.7552 
L 147.692562 49.7552 
Q 145.692562 49.7552 145.692562 51.7552 
L 145.692562 95.0677 
Q 145.692562 97.0677 147.692562 97.0677 
z
" style="fill:#ffffff;opacity:0.8;stroke:#cccccc;stroke-linejoin:miter;"/>
    </g>
    <g id="line2d_26">
     <path d="M 149.692562 57.853637 
L 169.692562 57.853637 
" style="fill:none;stroke:#1f77b4;stroke-linecap:square;stroke-width:1.5;"/>
    </g>
    <g id="line2d_27"/>
    <g id="text_16">
     <!-- Kinetic energy -->
     <g transform="translate(177.692562 61.353637)scale(0.1 -0.1)">
      <defs>
       <path d="M 9.8125 72.90625 
L 19.671875 72.90625 
L 19.671875 42.09375 
L 52.390625 72.90625 
L 65.09375 72.90625 
L 28.90625 38.921875 
L 67.671875 0 
L 54.6875 0 
L 19.671875 35.109375 
L 19.671875 0 
L 9.8125 0 
z
" id="DejaVuSans-75"/>
      </defs>
      <use xlink:href="#DejaVuSans-75"/>
      <use x="65.576172" xlink:href="#DejaVuSans-105"/>
      <use x="93.359375" xlink:href="#DejaVuSans-110"/>
      <use x="156.738281" xlink:href="#DejaVuSans-101"/>
      <use x="218.261719" xlink:href="#DejaVuSans-116"/>
      <use x="257.470703" xlink:href="#DejaVuSans-105"/>
      <use x="285.253906" xlink:href="#DejaVuSans-99"/>
      <use x="340.234375" xlink:href="#DejaVuSans-32"/>
      <use x="372.021484" xlink:href="#DejaVuSans-101"/>
      <use x="433.544922" xlink:href="#DejaVuSans-110"/>
      <use x="496.923828" xlink:href="#DejaVuSans-101"/>
      <use x="558.447266" xlink:href="#DejaVuSans-114"/>
      <use x="597.810547" xlink:href="#DejaVuSans-103"/>
      <use x="661.287109" xlink:href="#DejaVuSans-121"/>
     </g>
    </g>
    <g id="line2d_28">
     <path d="M 149.692562 72.531763 
L 169.692562 72.531763 
" style="fill:none;stroke:#ff7f0e;stroke-linecap:square;stroke-width:1.5;"/>
    </g>
    <g id="line2d_29"/>
    <g id="text_17">
     <!-- Potential energy -->
     <g transform="translate(177.692562 76.031763)scale(0.1 -0.1)">
      <defs>
       <path d="M 19.671875 64.796875 
L 19.671875 37.40625 
L 32.078125 37.40625 
Q 38.96875 37.40625 42.71875 40.96875 
Q 46.484375 44.53125 46.484375 51.125 
Q 46.484375 57.671875 42.71875 61.234375 
Q 38.96875 64.796875 32.078125 64.796875 
z
M 9.8125 72.90625 
L 32.078125 72.90625 
Q 44.34375 72.90625 50.609375 67.359375 
Q 56.890625 61.8125 56.890625 51.125 
Q 56.890625 40.328125 50.609375 34.8125 
Q 44.34375 29.296875 32.078125 29.296875 
L 19.671875 29.296875 
L 19.671875 0 
L 9.8125 0 
z
" id="DejaVuSans-80"/>
      </defs>
      <use xlink:href="#DejaVuSans-80"/>
      <use x="56.677734" xlink:href="#DejaVuSans-111"/>
      <use x="117.859375" xlink:href="#DejaVuSans-116"/>
      <use x="157.068359" xlink:href="#DejaVuSans-101"/>
      <use x="218.591797" xlink:href="#DejaVuSans-110"/>
      <use x="281.970703" xlink:href="#DejaVuSans-116"/>
      <use x="321.179688" xlink:href="#DejaVuSans-105"/>
      <use x="348.962891" xlink:href="#DejaVuSans-97"/>
      <use x="410.242188" xlink:href="#DejaVuSans-108"/>
      <use x="438.025391" xlink:href="#DejaVuSans-32"/>
      <use x="469.8125" xlink:href="#DejaVuSans-101"/>
      <use x="531.335938" xlink:href="#DejaVuSans-110"/>
      <use x="594.714844" xlink:href="#DejaVuSans-101"/>
      <use x="656.238281" xlink:href="#DejaVuSans-114"/>
      <use x="695.601562" xlink:href="#DejaVuSans-103"/>
      <use x="759.078125" xlink:href="#DejaVuSans-121"/>
     </g>
    </g>
    <g id="line2d_30">
     <path d="M 149.692562 87.209887 
L 169.692562 87.209887 
" style="fill:none;stroke:#2ca02c;stroke-dasharray:5.55,2.4;stroke-dashoffset:0;stroke-width:1.5;"/>
    </g>
    <g id="line2d_31"/>
    <g id="text_18">
     <!-- Total energy. E_mean = -9.98e-01, E_std = 4.02e-04 -->
     <g transform="translate(177.692562 90.709887)scale(0.1 -0.1)">
      <defs>
       <path d="M -0.296875 72.90625 
L 61.375 72.90625 
L 61.375 64.59375 
L 35.5 64.59375 
L 35.5 0 
L 25.59375 0 
L 25.59375 64.59375 
L -0.296875 64.59375 
z
" id="DejaVuSans-84"/>
       <path d="M 50.984375 -16.609375 
L 50.984375 -23.578125 
L -0.984375 -23.578125 
L -0.984375 -16.609375 
z
" id="DejaVuSans-95"/>
       <path d="M 10.984375 1.515625 
L 10.984375 10.5 
Q 14.703125 8.734375 18.5 7.8125 
Q 22.3125 6.890625 25.984375 6.890625 
Q 35.75 6.890625 40.890625 13.453125 
Q 46.046875 20.015625 46.78125 33.40625 
Q 43.953125 29.203125 39.59375 26.953125 
Q 35.25 24.703125 29.984375 24.703125 
Q 19.046875 24.703125 12.671875 31.3125 
Q 6.296875 37.9375 6.296875 49.421875 
Q 6.296875 60.640625 12.9375 67.421875 
Q 19.578125 74.21875 30.609375 74.21875 
Q 43.265625 74.21875 49.921875 64.515625 
Q 56.59375 54.828125 56.59375 36.375 
Q 56.59375 19.140625 48.40625 8.859375 
Q 40.234375 -1.421875 26.421875 -1.421875 
Q 22.703125 -1.421875 18.890625 -0.6875 
Q 15.09375 0.046875 10.984375 1.515625 
z
M 30.609375 32.421875 
Q 37.25 32.421875 41.125 36.953125 
Q 45.015625 41.5 45.015625 49.421875 
Q 45.015625 57.28125 41.125 61.84375 
Q 37.25 66.40625 30.609375 66.40625 
Q 23.96875 66.40625 20.09375 61.84375 
Q 16.21875 57.28125 16.21875 49.421875 
Q 16.21875 41.5 20.09375 36.953125 
Q 23.96875 32.421875 30.609375 32.421875 
z
" id="DejaVuSans-57"/>
      </defs>
      <use xlink:href="#DejaVuSans-84"/>
      <use x="44.083984" xlink:href="#DejaVuSans-111"/>
      <use x="105.265625" xlink:href="#DejaVuSans-116"/>
      <use x="144.474609" xlink:href="#DejaVuSans-97"/>
      <use x="205.753906" xlink:href="#DejaVuSans-108"/>
      <use x="233.537109" xlink:href="#DejaVuSans-32"/>
      <use x="265.324219" xlink:href="#DejaVuSans-101"/>
      <use x="326.847656" xlink:href="#DejaVuSans-110"/>
      <use x="390.226562" xlink:href="#DejaVuSans-101"/>
      <use x="451.75" xlink:href="#DejaVuSans-114"/>
      <use x="491.113281" xlink:href="#DejaVuSans-103"/>
      <use x="554.589844" xlink:href="#DejaVuSans-121"/>
      <use x="599.519531" xlink:href="#DejaVuSans-46"/>
      <use x="631.306641" xlink:href="#DejaVuSans-32"/>
      <use x="663.09375" xlink:href="#DejaVuSans-69"/>
      <use x="726.277344" xlink:href="#DejaVuSans-95"/>
      <use x="776.277344" xlink:href="#DejaVuSans-109"/>
      <use x="873.689453" xlink:href="#DejaVuSans-101"/>
      <use x="935.212891" xlink:href="#DejaVuSans-97"/>
      <use x="996.492188" xlink:href="#DejaVuSans-110"/>
      <use x="1059.871094" xlink:href="#DejaVuSans-32"/>
      <use x="1091.658203" xlink:href="#DejaVuSans-61"/>
      <use x="1175.447266" xlink:href="#DejaVuSans-32"/>
      <use x="1207.234375" xlink:href="#DejaVuSans-45"/>
      <use x="1243.318359" xlink:href="#DejaVuSans-57"/>
      <use x="1306.941406" xlink:href="#DejaVuSans-46"/>
      <use x="1338.728516" xlink:href="#DejaVuSans-57"/>
      <use x="1402.351562" xlink:href="#DejaVuSans-56"/>
      <use x="1465.974609" xlink:href="#DejaVuSans-101"/>
      <use x="1527.498047" xlink:href="#DejaVuSans-45"/>
      <use x="1563.582031" xlink:href="#DejaVuSans-48"/>
      <use x="1627.205078" xlink:href="#DejaVuSans-49"/>
      <use x="1690.828125" xlink:href="#DejaVuSans-44"/>
      <use x="1722.615234" xlink:href="#DejaVuSans-32"/>
      <use x="1754.402344" xlink:href="#DejaVuSans-69"/>
      <use x="1817.585938" xlink:href="#DejaVuSans-95"/>
      <use x="1867.585938" xlink:href="#DejaVuSans-115"/>
      <use x="1919.685547" xlink:href="#DejaVuSans-116"/>
      <use x="1958.894531" xlink:href="#DejaVuSans-100"/>
      <use x="2022.371094" xlink:href="#DejaVuSans-32"/>
      <use x="2054.158203" xlink:href="#DejaVuSans-61"/>
      <use x="2137.947266" xlink:href="#DejaVuSans-32"/>
      <use x="2169.734375" xlink:href="#DejaVuSans-52"/>
      <use x="2233.357422" xlink:href="#DejaVuSans-46"/>
      <use x="2265.144531" xlink:href="#DejaVuSans-48"/>
      <use x="2328.767578" xlink:href="#DejaVuSans-50"/>
      <use x="2392.390625" xlink:href="#DejaVuSans-101"/>
      <use x="2453.914062" xlink:href="#DejaVuSans-45"/>
      <use x="2489.998047" xlink:href="#DejaVuSans-48"/>
      <use x="2553.621094" xlink:href="#DejaVuSans-52"/>
     </g>
    </g>
   </g>
  </g>
 </g>
 <defs>
  <clipPath id="p576f202b1c">
   <rect height="287.1792" width="386.136" x="62.28" y="44.7552"/>
  </clipPath>
 </defs>
</svg>
