<?xml version="1.0" encoding="utf-8" standalone="no"?>
<!DOCTYPE svg PUBLIC "-//W3C//DTD SVG 1.1//EN"
  "http://www.w3.org/Graphics/SVG/1.1/DTD/svg11.dtd">
<!-- Created with matplotlib (https://matplotlib.org/) -->
<svg height="385.2pt" version="1.1" viewBox="0 0 499.68 385.2" width="499.68pt" xmlns="http://www.w3.org/2000/svg" xmlns:xlink="http://www.w3.org/1999/xlink">
 <metadata>
  <rdf:RDF xmlns:cc="http://creativecommons.org/ns#" xmlns:dc="http://purl.org/dc/elements/1.1/" xmlns:rdf="http://www.w3.org/1999/02/22-rdf-syntax-ns#">
   <cc:Work>
    <dc:type rdf:resource="http://purl.org/dc/dcmitype/StillImage"/>
    <dc:date>2020-10-22T15:43:34.331413</dc:date>
    <dc:format>image/svg+xml</dc:format>
    <dc:creator>
     <cc:Agent>
      <dc:title>Matplotlib v3.3.2, https://matplotlib.org/</dc:title>
     </cc:Agent>
    </dc:creator>
   </cc:Work>
  </rdf:RDF>
 </metadata>
 <defs>
  <style type="text/css">*{stroke-linecap:butt;stroke-linejoin:round;}</style>
 </defs>
 <g id="figure_1">
  <g id="patch_1">
   <path d="M 0 385.2 
L 499.68 385.2 
L 499.68 0 
L 0 0 
z
" style="fill:#ffffff;"/>
  </g>
  <g id="axes_1">
   <g id="patch_2">
    <path d="M 62.46 342.828 
L 449.712 342.828 
L 449.712 46.224 
L 62.46 46.224 
z
" style="fill:#ffffff;"/>
   </g>
   <g id="matplotlib.axis_1">
    <g id="xtick_1">
     <g id="line2d_1">
      <path clip-path="url(#pda26797087)" d="M 80.062364 342.828 
L 80.062364 46.224 
" style="fill:none;stroke:#b0b0b0;stroke-linecap:square;stroke-width:0.8;"/>
     </g>
     <g id="line2d_2">
      <defs>
       <path d="M 0 0 
L 0 3.5 
" id="mb7842a77d9" style="stroke:#000000;stroke-width:0.8;"/>
      </defs>
      <g>
       <use style="stroke:#000000;stroke-width:0.8;" x="80.062364" xlink:href="#mb7842a77d9" y="342.828"/>
      </g>
     </g>
     <g id="text_1">
      <!-- 0.0 -->
      <g transform="translate(72.110801 357.426438)scale(0.1 -0.1)">
       <defs>
        <path d="M 31.78125 66.40625 
Q 24.171875 66.40625 20.328125 58.90625 
Q 16.5 51.421875 16.5 36.375 
Q 16.5 21.390625 20.328125 13.890625 
Q 24.171875 6.390625 31.78125 6.390625 
Q 39.453125 6.390625 43.28125 13.890625 
Q 47.125 21.390625 47.125 36.375 
Q 47.125 51.421875 43.28125 58.90625 
Q 39.453125 66.40625 31.78125 66.40625 
z
M 31.78125 74.21875 
Q 44.046875 74.21875 50.515625 64.515625 
Q 56.984375 54.828125 56.984375 36.375 
Q 56.984375 17.96875 50.515625 8.265625 
Q 44.046875 -1.421875 31.78125 -1.421875 
Q 19.53125 -1.421875 13.0625 8.265625 
Q 6.59375 17.96875 6.59375 36.375 
Q 6.59375 54.828125 13.0625 64.515625 
Q 19.53125 74.21875 31.78125 74.21875 
z
" id="DejaVuSans-48"/>
        <path d="M 10.6875 12.40625 
L 21 12.40625 
L 21 0 
L 10.6875 0 
z
" id="DejaVuSans-46"/>
       </defs>
       <use xlink:href="#DejaVuSans-48"/>
       <use x="63.623047" xlink:href="#DejaVuSans-46"/>
       <use x="95.410156" xlink:href="#DejaVuSans-48"/>
      </g>
     </g>
    </g>
    <g id="xtick_2">
     <g id="line2d_3">
      <path clip-path="url(#pda26797087)" d="M 150.471818 342.828 
L 150.471818 46.224 
" style="fill:none;stroke:#b0b0b0;stroke-linecap:square;stroke-width:0.8;"/>
     </g>
     <g id="line2d_4">
      <g>
       <use style="stroke:#000000;stroke-width:0.8;" x="150.471818" xlink:href="#mb7842a77d9" y="342.828"/>
      </g>
     </g>
     <g id="text_2">
      <!-- 0.2 -->
      <g transform="translate(142.520256 357.426438)scale(0.1 -0.1)">
       <defs>
        <path d="M 19.1875 8.296875 
L 53.609375 8.296875 
L 53.609375 0 
L 7.328125 0 
L 7.328125 8.296875 
Q 12.9375 14.109375 22.625 23.890625 
Q 32.328125 33.6875 34.8125 36.53125 
Q 39.546875 41.84375 41.421875 45.53125 
Q 43.3125 49.21875 43.3125 52.78125 
Q 43.3125 58.59375 39.234375 62.25 
Q 35.15625 65.921875 28.609375 65.921875 
Q 23.96875 65.921875 18.8125 64.3125 
Q 13.671875 62.703125 7.8125 59.421875 
L 7.8125 69.390625 
Q 13.765625 71.78125 18.9375 73 
Q 24.125 74.21875 28.421875 74.21875 
Q 39.75 74.21875 46.484375 68.546875 
Q 53.21875 62.890625 53.21875 53.421875 
Q 53.21875 48.921875 51.53125 44.890625 
Q 49.859375 40.875 45.40625 35.40625 
Q 44.1875 33.984375 37.640625 27.21875 
Q 31.109375 20.453125 19.1875 8.296875 
z
" id="DejaVuSans-50"/>
       </defs>
       <use xlink:href="#DejaVuSans-48"/>
       <use x="63.623047" xlink:href="#DejaVuSans-46"/>
       <use x="95.410156" xlink:href="#DejaVuSans-50"/>
      </g>
     </g>
    </g>
    <g id="xtick_3">
     <g id="line2d_5">
      <path clip-path="url(#pda26797087)" d="M 220.881273 342.828 
L 220.881273 46.224 
" style="fill:none;stroke:#b0b0b0;stroke-linecap:square;stroke-width:0.8;"/>
     </g>
     <g id="line2d_6">
      <g>
       <use style="stroke:#000000;stroke-width:0.8;" x="220.881273" xlink:href="#mb7842a77d9" y="342.828"/>
      </g>
     </g>
     <g id="text_3">
      <!-- 0.4 -->
      <g transform="translate(212.92971 357.426438)scale(0.1 -0.1)">
       <defs>
        <path d="M 37.796875 64.3125 
L 12.890625 25.390625 
L 37.796875 25.390625 
z
M 35.203125 72.90625 
L 47.609375 72.90625 
L 47.609375 25.390625 
L 58.015625 25.390625 
L 58.015625 17.1875 
L 47.609375 17.1875 
L 47.609375 0 
L 37.796875 0 
L 37.796875 17.1875 
L 4.890625 17.1875 
L 4.890625 26.703125 
z
" id="DejaVuSans-52"/>
       </defs>
       <use xlink:href="#DejaVuSans-48"/>
       <use x="63.623047" xlink:href="#DejaVuSans-46"/>
       <use x="95.410156" xlink:href="#DejaVuSans-52"/>
      </g>
     </g>
    </g>
    <g id="xtick_4">
     <g id="line2d_7">
      <path clip-path="url(#pda26797087)" d="M 291.290727 342.828 
L 291.290727 46.224 
" style="fill:none;stroke:#b0b0b0;stroke-linecap:square;stroke-width:0.8;"/>
     </g>
     <g id="line2d_8">
      <g>
       <use style="stroke:#000000;stroke-width:0.8;" x="291.290727" xlink:href="#mb7842a77d9" y="342.828"/>
      </g>
     </g>
     <g id="text_4">
      <!-- 0.6 -->
      <g transform="translate(283.339165 357.426438)scale(0.1 -0.1)">
       <defs>
        <path d="M 33.015625 40.375 
Q 26.375 40.375 22.484375 35.828125 
Q 18.609375 31.296875 18.609375 23.390625 
Q 18.609375 15.53125 22.484375 10.953125 
Q 26.375 6.390625 33.015625 6.390625 
Q 39.65625 6.390625 43.53125 10.953125 
Q 47.40625 15.53125 47.40625 23.390625 
Q 47.40625 31.296875 43.53125 35.828125 
Q 39.65625 40.375 33.015625 40.375 
z
M 52.59375 71.296875 
L 52.59375 62.3125 
Q 48.875 64.0625 45.09375 64.984375 
Q 41.3125 65.921875 37.59375 65.921875 
Q 27.828125 65.921875 22.671875 59.328125 
Q 17.53125 52.734375 16.796875 39.40625 
Q 19.671875 43.65625 24.015625 45.921875 
Q 28.375 48.1875 33.59375 48.1875 
Q 44.578125 48.1875 50.953125 41.515625 
Q 57.328125 34.859375 57.328125 23.390625 
Q 57.328125 12.15625 50.6875 5.359375 
Q 44.046875 -1.421875 33.015625 -1.421875 
Q 20.359375 -1.421875 13.671875 8.265625 
Q 6.984375 17.96875 6.984375 36.375 
Q 6.984375 53.65625 15.1875 63.9375 
Q 23.390625 74.21875 37.203125 74.21875 
Q 40.921875 74.21875 44.703125 73.484375 
Q 48.484375 72.75 52.59375 71.296875 
z
" id="DejaVuSans-54"/>
       </defs>
       <use xlink:href="#DejaVuSans-48"/>
       <use x="63.623047" xlink:href="#DejaVuSans-46"/>
       <use x="95.410156" xlink:href="#DejaVuSans-54"/>
      </g>
     </g>
    </g>
    <g id="xtick_5">
     <g id="line2d_9">
      <path clip-path="url(#pda26797087)" d="M 361.700182 342.828 
L 361.700182 46.224 
" style="fill:none;stroke:#b0b0b0;stroke-linecap:square;stroke-width:0.8;"/>
     </g>
     <g id="line2d_10">
      <g>
       <use style="stroke:#000000;stroke-width:0.8;" x="361.700182" xlink:href="#mb7842a77d9" y="342.828"/>
      </g>
     </g>
     <g id="text_5">
      <!-- 0.8 -->
      <g transform="translate(353.748619 357.426438)scale(0.1 -0.1)">
       <defs>
        <path d="M 31.78125 34.625 
Q 24.75 34.625 20.71875 30.859375 
Q 16.703125 27.09375 16.703125 20.515625 
Q 16.703125 13.921875 20.71875 10.15625 
Q 24.75 6.390625 31.78125 6.390625 
Q 38.8125 6.390625 42.859375 10.171875 
Q 46.921875 13.96875 46.921875 20.515625 
Q 46.921875 27.09375 42.890625 30.859375 
Q 38.875 34.625 31.78125 34.625 
z
M 21.921875 38.8125 
Q 15.578125 40.375 12.03125 44.71875 
Q 8.5 49.078125 8.5 55.328125 
Q 8.5 64.0625 14.71875 69.140625 
Q 20.953125 74.21875 31.78125 74.21875 
Q 42.671875 74.21875 48.875 69.140625 
Q 55.078125 64.0625 55.078125 55.328125 
Q 55.078125 49.078125 51.53125 44.71875 
Q 48 40.375 41.703125 38.8125 
Q 48.828125 37.15625 52.796875 32.3125 
Q 56.78125 27.484375 56.78125 20.515625 
Q 56.78125 9.90625 50.3125 4.234375 
Q 43.84375 -1.421875 31.78125 -1.421875 
Q 19.734375 -1.421875 13.25 4.234375 
Q 6.78125 9.90625 6.78125 20.515625 
Q 6.78125 27.484375 10.78125 32.3125 
Q 14.796875 37.15625 21.921875 38.8125 
z
M 18.3125 54.390625 
Q 18.3125 48.734375 21.84375 45.5625 
Q 25.390625 42.390625 31.78125 42.390625 
Q 38.140625 42.390625 41.71875 45.5625 
Q 45.3125 48.734375 45.3125 54.390625 
Q 45.3125 60.0625 41.71875 63.234375 
Q 38.140625 66.40625 31.78125 66.40625 
Q 25.390625 66.40625 21.84375 63.234375 
Q 18.3125 60.0625 18.3125 54.390625 
z
" id="DejaVuSans-56"/>
       </defs>
       <use xlink:href="#DejaVuSans-48"/>
       <use x="63.623047" xlink:href="#DejaVuSans-46"/>
       <use x="95.410156" xlink:href="#DejaVuSans-56"/>
      </g>
     </g>
    </g>
    <g id="xtick_6">
     <g id="line2d_11">
      <path clip-path="url(#pda26797087)" d="M 432.109636 342.828 
L 432.109636 46.224 
" style="fill:none;stroke:#b0b0b0;stroke-linecap:square;stroke-width:0.8;"/>
     </g>
     <g id="line2d_12">
      <g>
       <use style="stroke:#000000;stroke-width:0.8;" x="432.109636" xlink:href="#mb7842a77d9" y="342.828"/>
      </g>
     </g>
     <g id="text_6">
      <!-- 1.0 -->
      <g transform="translate(424.158074 357.426438)scale(0.1 -0.1)">
       <defs>
        <path d="M 12.40625 8.296875 
L 28.515625 8.296875 
L 28.515625 63.921875 
L 10.984375 60.40625 
L 10.984375 69.390625 
L 28.421875 72.90625 
L 38.28125 72.90625 
L 38.28125 8.296875 
L 54.390625 8.296875 
L 54.390625 0 
L 12.40625 0 
z
" id="DejaVuSans-49"/>
       </defs>
       <use xlink:href="#DejaVuSans-49"/>
       <use x="63.623047" xlink:href="#DejaVuSans-46"/>
       <use x="95.410156" xlink:href="#DejaVuSans-48"/>
      </g>
     </g>
    </g>
    <g id="text_7">
     <!-- N [number of time steps] -->
     <g transform="translate(193.037563 371.104562)scale(0.1 -0.1)">
      <defs>
       <path d="M 9.8125 72.90625 
L 23.09375 72.90625 
L 55.421875 11.921875 
L 55.421875 72.90625 
L 64.984375 72.90625 
L 64.984375 0 
L 51.703125 0 
L 19.390625 60.984375 
L 19.390625 0 
L 9.8125 0 
z
" id="DejaVuSans-78"/>
       <path id="DejaVuSans-32"/>
       <path d="M 8.59375 75.984375 
L 29.296875 75.984375 
L 29.296875 69 
L 17.578125 69 
L 17.578125 -6.203125 
L 29.296875 -6.203125 
L 29.296875 -13.1875 
L 8.59375 -13.1875 
z
" id="DejaVuSans-91"/>
       <path d="M 54.890625 33.015625 
L 54.890625 0 
L 45.90625 0 
L 45.90625 32.71875 
Q 45.90625 40.484375 42.875 44.328125 
Q 39.84375 48.1875 33.796875 48.1875 
Q 26.515625 48.1875 22.3125 43.546875 
Q 18.109375 38.921875 18.109375 30.90625 
L 18.109375 0 
L 9.078125 0 
L 9.078125 54.6875 
L 18.109375 54.6875 
L 18.109375 46.1875 
Q 21.34375 51.125 25.703125 53.5625 
Q 30.078125 56 35.796875 56 
Q 45.21875 56 50.046875 50.171875 
Q 54.890625 44.34375 54.890625 33.015625 
z
" id="DejaVuSans-110"/>
       <path d="M 8.5 21.578125 
L 8.5 54.6875 
L 17.484375 54.6875 
L 17.484375 21.921875 
Q 17.484375 14.15625 20.5 10.265625 
Q 23.53125 6.390625 29.59375 6.390625 
Q 36.859375 6.390625 41.078125 11.03125 
Q 45.3125 15.671875 45.3125 23.6875 
L 45.3125 54.6875 
L 54.296875 54.6875 
L 54.296875 0 
L 45.3125 0 
L 45.3125 8.40625 
Q 42.046875 3.421875 37.71875 1 
Q 33.40625 -1.421875 27.6875 -1.421875 
Q 18.265625 -1.421875 13.375 4.4375 
Q 8.5 10.296875 8.5 21.578125 
z
M 31.109375 56 
z
" id="DejaVuSans-117"/>
       <path d="M 52 44.1875 
Q 55.375 50.25 60.0625 53.125 
Q 64.75 56 71.09375 56 
Q 79.640625 56 84.28125 50.015625 
Q 88.921875 44.046875 88.921875 33.015625 
L 88.921875 0 
L 79.890625 0 
L 79.890625 32.71875 
Q 79.890625 40.578125 77.09375 44.375 
Q 74.3125 48.1875 68.609375 48.1875 
Q 61.625 48.1875 57.5625 43.546875 
Q 53.515625 38.921875 53.515625 30.90625 
L 53.515625 0 
L 44.484375 0 
L 44.484375 32.71875 
Q 44.484375 40.625 41.703125 44.40625 
Q 38.921875 48.1875 33.109375 48.1875 
Q 26.21875 48.1875 22.15625 43.53125 
Q 18.109375 38.875 18.109375 30.90625 
L 18.109375 0 
L 9.078125 0 
L 9.078125 54.6875 
L 18.109375 54.6875 
L 18.109375 46.1875 
Q 21.1875 51.21875 25.484375 53.609375 
Q 29.78125 56 35.6875 56 
Q 41.65625 56 45.828125 52.96875 
Q 50 49.953125 52 44.1875 
z
" id="DejaVuSans-109"/>
       <path d="M 48.6875 27.296875 
Q 48.6875 37.203125 44.609375 42.84375 
Q 40.53125 48.484375 33.40625 48.484375 
Q 26.265625 48.484375 22.1875 42.84375 
Q 18.109375 37.203125 18.109375 27.296875 
Q 18.109375 17.390625 22.1875 11.75 
Q 26.265625 6.109375 33.40625 6.109375 
Q 40.53125 6.109375 44.609375 11.75 
Q 48.6875 17.390625 48.6875 27.296875 
z
M 18.109375 46.390625 
Q 20.953125 51.265625 25.265625 53.625 
Q 29.59375 56 35.59375 56 
Q 45.5625 56 51.78125 48.09375 
Q 58.015625 40.1875 58.015625 27.296875 
Q 58.015625 14.40625 51.78125 6.484375 
Q 45.5625 -1.421875 35.59375 -1.421875 
Q 29.59375 -1.421875 25.265625 0.953125 
Q 20.953125 3.328125 18.109375 8.203125 
L 18.109375 0 
L 9.078125 0 
L 9.078125 75.984375 
L 18.109375 75.984375 
z
" id="DejaVuSans-98"/>
       <path d="M 56.203125 29.59375 
L 56.203125 25.203125 
L 14.890625 25.203125 
Q 15.484375 15.921875 20.484375 11.0625 
Q 25.484375 6.203125 34.421875 6.203125 
Q 39.59375 6.203125 44.453125 7.46875 
Q 49.3125 8.734375 54.109375 11.28125 
L 54.109375 2.78125 
Q 49.265625 0.734375 44.1875 -0.34375 
Q 39.109375 -1.421875 33.890625 -1.421875 
Q 20.796875 -1.421875 13.15625 6.1875 
Q 5.515625 13.8125 5.515625 26.8125 
Q 5.515625 40.234375 12.765625 48.109375 
Q 20.015625 56 32.328125 56 
Q 43.359375 56 49.78125 48.890625 
Q 56.203125 41.796875 56.203125 29.59375 
z
M 47.21875 32.234375 
Q 47.125 39.59375 43.09375 43.984375 
Q 39.0625 48.390625 32.421875 48.390625 
Q 24.90625 48.390625 20.390625 44.140625 
Q 15.875 39.890625 15.1875 32.171875 
z
" id="DejaVuSans-101"/>
       <path d="M 41.109375 46.296875 
Q 39.59375 47.171875 37.8125 47.578125 
Q 36.03125 48 33.890625 48 
Q 26.265625 48 22.1875 43.046875 
Q 18.109375 38.09375 18.109375 28.8125 
L 18.109375 0 
L 9.078125 0 
L 9.078125 54.6875 
L 18.109375 54.6875 
L 18.109375 46.1875 
Q 20.953125 51.171875 25.484375 53.578125 
Q 30.03125 56 36.53125 56 
Q 37.453125 56 38.578125 55.875 
Q 39.703125 55.765625 41.0625 55.515625 
z
" id="DejaVuSans-114"/>
       <path d="M 30.609375 48.390625 
Q 23.390625 48.390625 19.1875 42.75 
Q 14.984375 37.109375 14.984375 27.296875 
Q 14.984375 17.484375 19.15625 11.84375 
Q 23.34375 6.203125 30.609375 6.203125 
Q 37.796875 6.203125 41.984375 11.859375 
Q 46.1875 17.53125 46.1875 27.296875 
Q 46.1875 37.015625 41.984375 42.703125 
Q 37.796875 48.390625 30.609375 48.390625 
z
M 30.609375 56 
Q 42.328125 56 49.015625 48.375 
Q 55.71875 40.765625 55.71875 27.296875 
Q 55.71875 13.875 49.015625 6.21875 
Q 42.328125 -1.421875 30.609375 -1.421875 
Q 18.84375 -1.421875 12.171875 6.21875 
Q 5.515625 13.875 5.515625 27.296875 
Q 5.515625 40.765625 12.171875 48.375 
Q 18.84375 56 30.609375 56 
z
" id="DejaVuSans-111"/>
       <path d="M 37.109375 75.984375 
L 37.109375 68.5 
L 28.515625 68.5 
Q 23.6875 68.5 21.796875 66.546875 
Q 19.921875 64.59375 19.921875 59.515625 
L 19.921875 54.6875 
L 34.71875 54.6875 
L 34.71875 47.703125 
L 19.921875 47.703125 
L 19.921875 0 
L 10.890625 0 
L 10.890625 47.703125 
L 2.296875 47.703125 
L 2.296875 54.6875 
L 10.890625 54.6875 
L 10.890625 58.5 
Q 10.890625 67.625 15.140625 71.796875 
Q 19.390625 75.984375 28.609375 75.984375 
z
" id="DejaVuSans-102"/>
       <path d="M 18.3125 70.21875 
L 18.3125 54.6875 
L 36.8125 54.6875 
L 36.8125 47.703125 
L 18.3125 47.703125 
L 18.3125 18.015625 
Q 18.3125 11.328125 20.140625 9.421875 
Q 21.96875 7.515625 27.59375 7.515625 
L 36.8125 7.515625 
L 36.8125 0 
L 27.59375 0 
Q 17.1875 0 13.234375 3.875 
Q 9.28125 7.765625 9.28125 18.015625 
L 9.28125 47.703125 
L 2.6875 47.703125 
L 2.6875 54.6875 
L 9.28125 54.6875 
L 9.28125 70.21875 
z
" id="DejaVuSans-116"/>
       <path d="M 9.421875 54.6875 
L 18.40625 54.6875 
L 18.40625 0 
L 9.421875 0 
z
M 9.421875 75.984375 
L 18.40625 75.984375 
L 18.40625 64.59375 
L 9.421875 64.59375 
z
" id="DejaVuSans-105"/>
       <path d="M 44.28125 53.078125 
L 44.28125 44.578125 
Q 40.484375 46.53125 36.375 47.5 
Q 32.28125 48.484375 27.875 48.484375 
Q 21.1875 48.484375 17.84375 46.4375 
Q 14.5 44.390625 14.5 40.28125 
Q 14.5 37.15625 16.890625 35.375 
Q 19.28125 33.59375 26.515625 31.984375 
L 29.59375 31.296875 
Q 39.15625 29.25 43.1875 25.515625 
Q 47.21875 21.78125 47.21875 15.09375 
Q 47.21875 7.46875 41.1875 3.015625 
Q 35.15625 -1.421875 24.609375 -1.421875 
Q 20.21875 -1.421875 15.453125 -0.5625 
Q 10.6875 0.296875 5.421875 2 
L 5.421875 11.28125 
Q 10.40625 8.6875 15.234375 7.390625 
Q 20.0625 6.109375 24.8125 6.109375 
Q 31.15625 6.109375 34.5625 8.28125 
Q 37.984375 10.453125 37.984375 14.40625 
Q 37.984375 18.0625 35.515625 20.015625 
Q 33.0625 21.96875 24.703125 23.78125 
L 21.578125 24.515625 
Q 13.234375 26.265625 9.515625 29.90625 
Q 5.8125 33.546875 5.8125 39.890625 
Q 5.8125 47.609375 11.28125 51.796875 
Q 16.75 56 26.8125 56 
Q 31.78125 56 36.171875 55.265625 
Q 40.578125 54.546875 44.28125 53.078125 
z
" id="DejaVuSans-115"/>
       <path d="M 18.109375 8.203125 
L 18.109375 -20.796875 
L 9.078125 -20.796875 
L 9.078125 54.6875 
L 18.109375 54.6875 
L 18.109375 46.390625 
Q 20.953125 51.265625 25.265625 53.625 
Q 29.59375 56 35.59375 56 
Q 45.5625 56 51.78125 48.09375 
Q 58.015625 40.1875 58.015625 27.296875 
Q 58.015625 14.40625 51.78125 6.484375 
Q 45.5625 -1.421875 35.59375 -1.421875 
Q 29.59375 -1.421875 25.265625 0.953125 
Q 20.953125 3.328125 18.109375 8.203125 
z
M 48.6875 27.296875 
Q 48.6875 37.203125 44.609375 42.84375 
Q 40.53125 48.484375 33.40625 48.484375 
Q 26.265625 48.484375 22.1875 42.84375 
Q 18.109375 37.203125 18.109375 27.296875 
Q 18.109375 17.390625 22.1875 11.75 
Q 26.265625 6.109375 33.40625 6.109375 
Q 40.53125 6.109375 44.609375 11.75 
Q 48.6875 17.390625 48.6875 27.296875 
z
" id="DejaVuSans-112"/>
       <path d="M 30.421875 75.984375 
L 30.421875 -13.1875 
L 9.71875 -13.1875 
L 9.71875 -6.203125 
L 21.390625 -6.203125 
L 21.390625 69 
L 9.71875 69 
L 9.71875 75.984375 
z
" id="DejaVuSans-93"/>
      </defs>
      <use xlink:href="#DejaVuSans-78"/>
      <use x="74.804688" xlink:href="#DejaVuSans-32"/>
      <use x="106.591797" xlink:href="#DejaVuSans-91"/>
      <use x="145.605469" xlink:href="#DejaVuSans-110"/>
      <use x="208.984375" xlink:href="#DejaVuSans-117"/>
      <use x="272.363281" xlink:href="#DejaVuSans-109"/>
      <use x="369.775391" xlink:href="#DejaVuSans-98"/>
      <use x="433.251953" xlink:href="#DejaVuSans-101"/>
      <use x="494.775391" xlink:href="#DejaVuSans-114"/>
      <use x="535.888672" xlink:href="#DejaVuSans-32"/>
      <use x="567.675781" xlink:href="#DejaVuSans-111"/>
      <use x="628.857422" xlink:href="#DejaVuSans-102"/>
      <use x="664.0625" xlink:href="#DejaVuSans-32"/>
      <use x="695.849609" xlink:href="#DejaVuSans-116"/>
      <use x="735.058594" xlink:href="#DejaVuSans-105"/>
      <use x="762.841797" xlink:href="#DejaVuSans-109"/>
      <use x="860.253906" xlink:href="#DejaVuSans-101"/>
      <use x="921.777344" xlink:href="#DejaVuSans-32"/>
      <use x="953.564453" xlink:href="#DejaVuSans-115"/>
      <use x="1005.664062" xlink:href="#DejaVuSans-116"/>
      <use x="1044.873047" xlink:href="#DejaVuSans-101"/>
      <use x="1106.396484" xlink:href="#DejaVuSans-112"/>
      <use x="1169.873047" xlink:href="#DejaVuSans-115"/>
      <use x="1221.972656" xlink:href="#DejaVuSans-93"/>
     </g>
    </g>
    <g id="text_8">
     <!-- 1e7 -->
     <g transform="translate(430.833875 370.104562)scale(0.1 -0.1)">
      <defs>
       <path d="M 8.203125 72.90625 
L 55.078125 72.90625 
L 55.078125 68.703125 
L 28.609375 0 
L 18.3125 0 
L 43.21875 64.59375 
L 8.203125 64.59375 
z
" id="DejaVuSans-55"/>
      </defs>
      <use xlink:href="#DejaVuSans-49"/>
      <use x="63.623047" xlink:href="#DejaVuSans-101"/>
      <use x="125.146484" xlink:href="#DejaVuSans-55"/>
     </g>
    </g>
   </g>
   <g id="matplotlib.axis_2">
    <g id="ytick_1">
     <g id="line2d_13">
      <path clip-path="url(#pda26797087)" d="M 62.46 321.321306 
L 449.712 321.321306 
" style="fill:none;stroke:#b0b0b0;stroke-linecap:square;stroke-width:0.8;"/>
     </g>
     <g id="line2d_14">
      <defs>
       <path d="M 0 0 
L -3.5 0 
" id="m205374fd94" style="stroke:#000000;stroke-width:0.8;"/>
      </defs>
      <g>
       <use style="stroke:#000000;stroke-width:0.8;" x="62.46" xlink:href="#m205374fd94" y="321.321306"/>
      </g>
     </g>
     <g id="text_9">
      <!-- −3 -->
      <g transform="translate(40.717813 325.120525)scale(0.1 -0.1)">
       <defs>
        <path d="M 10.59375 35.5 
L 73.1875 35.5 
L 73.1875 27.203125 
L 10.59375 27.203125 
z
" id="DejaVuSans-8722"/>
        <path d="M 40.578125 39.3125 
Q 47.65625 37.796875 51.625 33 
Q 55.609375 28.21875 55.609375 21.1875 
Q 55.609375 10.40625 48.1875 4.484375 
Q 40.765625 -1.421875 27.09375 -1.421875 
Q 22.515625 -1.421875 17.65625 -0.515625 
Q 12.796875 0.390625 7.625 2.203125 
L 7.625 11.71875 
Q 11.71875 9.328125 16.59375 8.109375 
Q 21.484375 6.890625 26.8125 6.890625 
Q 36.078125 6.890625 40.9375 10.546875 
Q 45.796875 14.203125 45.796875 21.1875 
Q 45.796875 27.640625 41.28125 31.265625 
Q 36.765625 34.90625 28.71875 34.90625 
L 20.21875 34.90625 
L 20.21875 43.015625 
L 29.109375 43.015625 
Q 36.375 43.015625 40.234375 45.921875 
Q 44.09375 48.828125 44.09375 54.296875 
Q 44.09375 59.90625 40.109375 62.90625 
Q 36.140625 65.921875 28.71875 65.921875 
Q 24.65625 65.921875 20.015625 65.03125 
Q 15.375 64.15625 9.8125 62.3125 
L 9.8125 71.09375 
Q 15.4375 72.65625 20.34375 73.4375 
Q 25.25 74.21875 29.59375 74.21875 
Q 40.828125 74.21875 47.359375 69.109375 
Q 53.90625 64.015625 53.90625 55.328125 
Q 53.90625 49.265625 50.4375 45.09375 
Q 46.96875 40.921875 40.578125 39.3125 
z
" id="DejaVuSans-51"/>
       </defs>
       <use xlink:href="#DejaVuSans-8722"/>
       <use x="83.789062" xlink:href="#DejaVuSans-51"/>
      </g>
     </g>
    </g>
    <g id="ytick_2">
     <g id="line2d_15">
      <path clip-path="url(#pda26797087)" d="M 62.46 270.603309 
L 449.712 270.603309 
" style="fill:none;stroke:#b0b0b0;stroke-linecap:square;stroke-width:0.8;"/>
     </g>
     <g id="line2d_16">
      <g>
       <use style="stroke:#000000;stroke-width:0.8;" x="62.46" xlink:href="#m205374fd94" y="270.603309"/>
      </g>
     </g>
     <g id="text_10">
      <!-- −2 -->
      <g transform="translate(40.717813 274.402528)scale(0.1 -0.1)">
       <use xlink:href="#DejaVuSans-8722"/>
       <use x="83.789062" xlink:href="#DejaVuSans-50"/>
      </g>
     </g>
    </g>
    <g id="ytick_3">
     <g id="line2d_17">
      <path clip-path="url(#pda26797087)" d="M 62.46 219.885312 
L 449.712 219.885312 
" style="fill:none;stroke:#b0b0b0;stroke-linecap:square;stroke-width:0.8;"/>
     </g>
     <g id="line2d_18">
      <g>
       <use style="stroke:#000000;stroke-width:0.8;" x="62.46" xlink:href="#m205374fd94" y="219.885312"/>
      </g>
     </g>
     <g id="text_11">
      <!-- −1 -->
      <g transform="translate(40.717813 223.684531)scale(0.1 -0.1)">
       <use xlink:href="#DejaVuSans-8722"/>
       <use x="83.789062" xlink:href="#DejaVuSans-49"/>
      </g>
     </g>
    </g>
    <g id="ytick_4">
     <g id="line2d_19">
      <path clip-path="url(#pda26797087)" d="M 62.46 169.167315 
L 449.712 169.167315 
" style="fill:none;stroke:#b0b0b0;stroke-linecap:square;stroke-width:0.8;"/>
     </g>
     <g id="line2d_20">
      <g>
       <use style="stroke:#000000;stroke-width:0.8;" x="62.46" xlink:href="#m205374fd94" y="169.167315"/>
      </g>
     </g>
     <g id="text_12">
      <!-- 0 -->
      <g transform="translate(49.0975 172.966534)scale(0.1 -0.1)">
       <use xlink:href="#DejaVuSans-48"/>
      </g>
     </g>
    </g>
    <g id="ytick_5">
     <g id="line2d_21">
      <path clip-path="url(#pda26797087)" d="M 62.46 118.449318 
L 449.712 118.449318 
" style="fill:none;stroke:#b0b0b0;stroke-linecap:square;stroke-width:0.8;"/>
     </g>
     <g id="line2d_22">
      <g>
       <use style="stroke:#000000;stroke-width:0.8;" x="62.46" xlink:href="#m205374fd94" y="118.449318"/>
      </g>
     </g>
     <g id="text_13">
      <!-- 1 -->
      <g transform="translate(49.0975 122.248537)scale(0.1 -0.1)">
       <use xlink:href="#DejaVuSans-49"/>
      </g>
     </g>
    </g>
    <g id="ytick_6">
     <g id="line2d_23">
      <path clip-path="url(#pda26797087)" d="M 62.46 67.731321 
L 449.712 67.731321 
" style="fill:none;stroke:#b0b0b0;stroke-linecap:square;stroke-width:0.8;"/>
     </g>
     <g id="line2d_24">
      <g>
       <use style="stroke:#000000;stroke-width:0.8;" x="62.46" xlink:href="#m205374fd94" y="67.731321"/>
      </g>
     </g>
     <g id="text_14">
      <!-- 2 -->
      <g transform="translate(49.0975 71.53054)scale(0.1 -0.1)">
       <use xlink:href="#DejaVuSans-50"/>
      </g>
     </g>
    </g>
    <g id="text_15">
     <!-- Energy $[E_{tot}/max(|E_{tot}|)]$ -->
     <g transform="translate(34.317812 253.826)rotate(-90)scale(0.1 -0.1)">
      <defs>
       <path d="M 9.8125 72.90625 
L 55.90625 72.90625 
L 55.90625 64.59375 
L 19.671875 64.59375 
L 19.671875 43.015625 
L 54.390625 43.015625 
L 54.390625 34.71875 
L 19.671875 34.71875 
L 19.671875 8.296875 
L 56.78125 8.296875 
L 56.78125 0 
L 9.8125 0 
z
" id="DejaVuSans-69"/>
       <path d="M 45.40625 27.984375 
Q 45.40625 37.75 41.375 43.109375 
Q 37.359375 48.484375 30.078125 48.484375 
Q 22.859375 48.484375 18.828125 43.109375 
Q 14.796875 37.75 14.796875 27.984375 
Q 14.796875 18.265625 18.828125 12.890625 
Q 22.859375 7.515625 30.078125 7.515625 
Q 37.359375 7.515625 41.375 12.890625 
Q 45.40625 18.265625 45.40625 27.984375 
z
M 54.390625 6.78125 
Q 54.390625 -7.171875 48.1875 -13.984375 
Q 42 -20.796875 29.203125 -20.796875 
Q 24.46875 -20.796875 20.265625 -20.09375 
Q 16.0625 -19.390625 12.109375 -17.921875 
L 12.109375 -9.1875 
Q 16.0625 -11.328125 19.921875 -12.34375 
Q 23.78125 -13.375 27.78125 -13.375 
Q 36.625 -13.375 41.015625 -8.765625 
Q 45.40625 -4.15625 45.40625 5.171875 
L 45.40625 9.625 
Q 42.625 4.78125 38.28125 2.390625 
Q 33.9375 0 27.875 0 
Q 17.828125 0 11.671875 7.65625 
Q 5.515625 15.328125 5.515625 27.984375 
Q 5.515625 40.671875 11.671875 48.328125 
Q 17.828125 56 27.875 56 
Q 33.9375 56 38.28125 53.609375 
Q 42.625 51.21875 45.40625 46.390625 
L 45.40625 54.6875 
L 54.390625 54.6875 
z
" id="DejaVuSans-103"/>
       <path d="M 32.171875 -5.078125 
Q 28.375 -14.84375 24.75 -17.8125 
Q 21.140625 -20.796875 15.09375 -20.796875 
L 7.90625 -20.796875 
L 7.90625 -13.28125 
L 13.1875 -13.28125 
Q 16.890625 -13.28125 18.9375 -11.515625 
Q 21 -9.765625 23.484375 -3.21875 
L 25.09375 0.875 
L 2.984375 54.6875 
L 12.5 54.6875 
L 29.59375 11.921875 
L 46.6875 54.6875 
L 56.203125 54.6875 
z
" id="DejaVuSans-121"/>
       <path d="M 16.890625 72.90625 
L 62.984375 72.90625 
L 61.375 64.59375 
L 25.09375 64.59375 
L 20.90625 43.015625 
L 55.71875 43.015625 
L 54.109375 34.71875 
L 19.28125 34.71875 
L 14.203125 8.296875 
L 51.3125 8.296875 
L 49.703125 0 
L 2.6875 0 
z
" id="DejaVuSans-Oblique-69"/>
       <path d="M 42.28125 54.6875 
L 40.921875 47.703125 
L 23 47.703125 
L 17.1875 18.015625 
Q 16.890625 16.359375 16.75 15.234375 
Q 16.609375 14.109375 16.609375 13.484375 
Q 16.609375 10.359375 18.484375 8.9375 
Q 20.359375 7.515625 24.515625 7.515625 
L 33.59375 7.515625 
L 32.078125 0 
L 23.484375 0 
Q 15.484375 0 11.546875 3.125 
Q 7.625 6.25 7.625 12.59375 
Q 7.625 13.71875 7.765625 15.0625 
Q 7.90625 16.40625 8.203125 18.015625 
L 14.015625 47.703125 
L 6.390625 47.703125 
L 7.8125 54.6875 
L 15.28125 54.6875 
L 18.3125 70.21875 
L 27.296875 70.21875 
L 24.3125 54.6875 
z
" id="DejaVuSans-Oblique-116"/>
       <path d="M 25.390625 -1.421875 
Q 15.765625 -1.421875 10.171875 4.515625 
Q 4.59375 10.453125 4.59375 20.703125 
Q 4.59375 26.65625 6.515625 32.828125 
Q 8.453125 39.015625 11.53125 43.21875 
Q 16.359375 49.75 22.3125 52.875 
Q 28.265625 56 35.796875 56 
Q 45.125 56 50.859375 50.1875 
Q 56.59375 44.390625 56.59375 35.015625 
Q 56.59375 28.515625 54.6875 22.0625 
Q 52.78125 15.625 49.703125 11.375 
Q 44.921875 4.828125 38.96875 1.703125 
Q 33.015625 -1.421875 25.390625 -1.421875 
z
M 13.921875 21 
Q 13.921875 13.578125 17.015625 9.890625 
Q 20.125 6.203125 26.421875 6.203125 
Q 35.453125 6.203125 41.375 14.078125 
Q 47.3125 21.96875 47.3125 34.078125 
Q 47.3125 41.15625 44.140625 44.765625 
Q 40.96875 48.390625 34.8125 48.390625 
Q 29.734375 48.390625 25.78125 46.015625 
Q 21.828125 43.65625 18.703125 38.8125 
Q 16.40625 35.203125 15.15625 30.5625 
Q 13.921875 25.921875 13.921875 21 
z
" id="DejaVuSans-Oblique-111"/>
       <path d="M 25.390625 72.90625 
L 33.6875 72.90625 
L 8.296875 -9.28125 
L 0 -9.28125 
z
" id="DejaVuSans-47"/>
       <path d="M 89.796875 33.015625 
L 83.40625 0 
L 74.421875 0 
L 80.71875 32.71875 
Q 81.109375 34.8125 81.296875 36.328125 
Q 81.5 37.84375 81.5 38.921875 
Q 81.5 43.3125 79.046875 45.75 
Q 76.609375 48.1875 72.21875 48.1875 
Q 65.671875 48.1875 60.546875 43.28125 
Q 55.421875 38.375 53.90625 30.515625 
L 47.90625 0 
L 38.921875 0 
L 45.3125 32.71875 
Q 45.703125 34.515625 45.890625 36.046875 
Q 46.09375 37.59375 46.09375 38.8125 
Q 46.09375 43.265625 43.65625 45.71875 
Q 41.21875 48.1875 36.921875 48.1875 
Q 30.28125 48.1875 25.140625 43.28125 
Q 20.015625 38.375 18.5 30.515625 
L 12.5 0 
L 3.515625 0 
L 14.203125 54.6875 
L 23.1875 54.6875 
L 21.484375 46.1875 
Q 25.140625 50.984375 30.046875 53.484375 
Q 34.96875 56 40.578125 56 
Q 46.53125 56 50.359375 52.875 
Q 54.203125 49.75 54.984375 44.1875 
Q 59.078125 49.953125 64.46875 52.96875 
Q 69.875 56 75.875 56 
Q 82.90625 56 86.734375 51.953125 
Q 90.578125 47.90625 90.578125 40.484375 
Q 90.578125 38.875 90.375 36.9375 
Q 90.1875 35.015625 89.796875 33.015625 
z
" id="DejaVuSans-Oblique-109"/>
       <path d="M 53.71875 31.203125 
L 47.609375 0 
L 38.625 0 
L 40.28125 8.296875 
Q 36.328125 3.421875 31.265625 1 
Q 26.21875 -1.421875 20.015625 -1.421875 
Q 13.03125 -1.421875 8.5625 2.84375 
Q 4.109375 7.125 4.109375 13.8125 
Q 4.109375 23.390625 11.75 28.953125 
Q 19.390625 34.515625 32.8125 34.515625 
L 45.3125 34.515625 
L 45.796875 36.921875 
Q 45.90625 37.3125 45.953125 37.765625 
Q 46 38.234375 46 39.203125 
Q 46 43.5625 42.453125 45.96875 
Q 38.921875 48.390625 32.515625 48.390625 
Q 28.125 48.390625 23.5 47.265625 
Q 18.890625 46.140625 14.015625 43.890625 
L 15.578125 52.203125 
Q 20.65625 54.109375 25.515625 55.046875 
Q 30.375 56 34.90625 56 
Q 44.578125 56 49.625 51.796875 
Q 54.6875 47.609375 54.6875 39.59375 
Q 54.6875 37.984375 54.4375 35.8125 
Q 54.203125 33.640625 53.71875 31.203125 
z
M 44 27.484375 
L 35.015625 27.484375 
Q 23.96875 27.484375 18.671875 24.53125 
Q 13.375 21.578125 13.375 15.375 
Q 13.375 11.078125 16.078125 8.640625 
Q 18.796875 6.203125 23.578125 6.203125 
Q 30.90625 6.203125 36.375 11.453125 
Q 41.84375 16.703125 43.609375 25.484375 
z
" id="DejaVuSans-Oblique-97"/>
       <path d="M 60.015625 54.6875 
L 34.90625 27.875 
L 50.296875 0 
L 39.984375 0 
L 28.421875 21.6875 
L 8.296875 0 
L -2.59375 0 
L 24.3125 28.8125 
L 10.015625 54.6875 
L 20.3125 54.6875 
L 30.8125 34.90625 
L 49.125 54.6875 
z
" id="DejaVuSans-Oblique-120"/>
       <path d="M 31 75.875 
Q 24.46875 64.65625 21.28125 53.65625 
Q 18.109375 42.671875 18.109375 31.390625 
Q 18.109375 20.125 21.3125 9.0625 
Q 24.515625 -2 31 -13.1875 
L 23.1875 -13.1875 
Q 15.875 -1.703125 12.234375 9.375 
Q 8.59375 20.453125 8.59375 31.390625 
Q 8.59375 42.28125 12.203125 53.3125 
Q 15.828125 64.359375 23.1875 75.875 
z
" id="DejaVuSans-40"/>
       <path d="M 21 76.421875 
L 21 -23.578125 
L 12.703125 -23.578125 
L 12.703125 76.421875 
z
" id="DejaVuSans-124"/>
       <path d="M 8.015625 75.875 
L 15.828125 75.875 
Q 23.140625 64.359375 26.78125 53.3125 
Q 30.421875 42.28125 30.421875 31.390625 
Q 30.421875 20.453125 26.78125 9.375 
Q 23.140625 -1.703125 15.828125 -13.1875 
L 8.015625 -13.1875 
Q 14.5 -2 17.703125 9.0625 
Q 20.90625 20.125 20.90625 31.390625 
Q 20.90625 42.671875 17.703125 53.65625 
Q 14.5 64.65625 8.015625 75.875 
z
" id="DejaVuSans-41"/>
      </defs>
      <use transform="translate(0 0.578125)" xlink:href="#DejaVuSans-69"/>
      <use transform="translate(63.183594 0.578125)" xlink:href="#DejaVuSans-110"/>
      <use transform="translate(126.5625 0.578125)" xlink:href="#DejaVuSans-101"/>
      <use transform="translate(188.085938 0.578125)" xlink:href="#DejaVuSans-114"/>
      <use transform="translate(229.199219 0.578125)" xlink:href="#DejaVuSans-103"/>
      <use transform="translate(292.675781 0.578125)" xlink:href="#DejaVuSans-121"/>
      <use transform="translate(351.855469 0.578125)" xlink:href="#DejaVuSans-32"/>
      <use transform="translate(383.642578 0.578125)" xlink:href="#DejaVuSans-91"/>
      <use transform="translate(422.65625 0.578125)" xlink:href="#DejaVuSans-Oblique-69"/>
      <use transform="translate(485.839844 -15.828125)scale(0.7)" xlink:href="#DejaVuSans-Oblique-116"/>
      <use transform="translate(513.286133 -15.828125)scale(0.7)" xlink:href="#DejaVuSans-Oblique-111"/>
      <use transform="translate(556.113281 -15.828125)scale(0.7)" xlink:href="#DejaVuSans-Oblique-116"/>
      <use transform="translate(586.293945 0.578125)" xlink:href="#DejaVuSans-47"/>
      <use transform="translate(619.985352 0.578125)" xlink:href="#DejaVuSans-Oblique-109"/>
      <use transform="translate(717.397461 0.578125)" xlink:href="#DejaVuSans-Oblique-97"/>
      <use transform="translate(778.676758 0.578125)" xlink:href="#DejaVuSans-Oblique-120"/>
      <use transform="translate(837.856445 0.578125)" xlink:href="#DejaVuSans-40"/>
      <use transform="translate(876.870117 0.578125)" xlink:href="#DejaVuSans-124"/>
      <use transform="translate(910.561523 0.578125)" xlink:href="#DejaVuSans-Oblique-69"/>
      <use transform="translate(973.745117 -15.828125)scale(0.7)" xlink:href="#DejaVuSans-Oblique-116"/>
      <use transform="translate(1001.191406 -15.828125)scale(0.7)" xlink:href="#DejaVuSans-Oblique-111"/>
      <use transform="translate(1044.018555 -15.828125)scale(0.7)" xlink:href="#DejaVuSans-Oblique-116"/>
      <use transform="translate(1074.199219 0.578125)" xlink:href="#DejaVuSans-124"/>
      <use transform="translate(1107.890625 0.578125)" xlink:href="#DejaVuSans-41"/>
      <use transform="translate(1146.904297 0.578125)" xlink:href="#DejaVuSans-93"/>
     </g>
    </g>
   </g>
   <g id="line2d_25">
    <path clip-path="url(#pda26797087)" d="M 80.062364 145.668546 
L 80.555279 145.563084 
L 81.083403 145.213797 
L 81.646735 144.563663 
L 82.280483 143.470372 
L 82.984648 141.765359 
L 83.724021 139.346296 
L 84.498603 135.999561 
L 85.273184 131.641875 
L 86.082974 125.733893 
L 86.892764 118.07177 
L 87.702553 108.211848 
L 88.58276 94.629023 
L 90.58963 61.905491 
L 90.906504 59.987359 
L 91.082545 59.706 
L 91.18817 59.815661 
L 91.364211 60.459216 
L 91.645877 62.612335 
L 92.068376 67.978215 
L 92.842958 81.425186 
L 94.216079 104.792424 
L 95.131494 116.587709 
L 96.0117 125.188971 
L 96.891906 131.676152 
L 97.772112 136.536274 
L 98.61711 140.004827 
L 99.4269 142.43799 
L 100.166273 144.014793 
L 100.83523 144.971352 
L 101.43377 145.477172 
L 101.961894 145.660588 
L 102.454809 145.613152 
L 102.982933 145.32703 
L 103.546265 144.746891 
L 104.180014 143.737694 
L 104.84897 142.22907 
L 105.588344 139.966978 
L 106.362925 136.816443 
L 107.137506 132.700325 
L 107.947296 127.110862 
L 108.757086 119.854172 
L 109.566876 110.493867 
L 110.411873 98.071132 
L 111.67937 75.442697 
L 112.453952 63.618085 
L 112.841243 60.403445 
L 113.0877 59.712893 
L 113.193325 59.76365 
L 113.334158 60.155924 
L 113.580616 61.696821 
L 113.932698 65.551256 
L 114.531239 75.101807 
L 116.467692 107.875533 
L 117.383107 118.931451 
L 118.263313 126.96072 
L 119.143519 133.007314 
L 119.988517 137.370702 
L 120.833515 140.619932 
L 121.643305 142.878452 
L 122.382678 144.316518 
L 123.051635 145.158716 
L 123.650175 145.567658 
L 124.178299 145.667669 
L 124.671214 145.542467 
L 125.199338 145.171687 
L 125.76267 144.497553 
L 126.396418 143.375374 
L 127.100583 141.634643 
L 127.839956 139.172342 
L 128.614538 135.771277 
L 129.389119 131.346542 
L 130.198909 125.349953 
L 131.008699 117.575224 
L 131.818488 107.577693 
L 132.698695 93.840089 
L 134.635148 62.12356 
L 134.987231 59.953521 
L 135.163272 59.707253 
L 135.268897 59.838847 
L 135.444938 60.516866 
L 135.726604 62.71949 
L 136.149103 68.140514 
L 136.923684 81.62383 
L 138.296806 104.950336 
L 139.21222 116.707835 
L 140.092427 125.279895 
L 140.972633 131.744518 
L 141.852839 136.58722 
L 142.697837 140.042488 
L 143.507627 142.465123 
L 144.247 144.033592 
L 144.915957 144.983321 
L 145.514497 145.483376 
L 146.042621 145.661841 
L 146.535536 145.609768 
L 147.06366 145.318633 
L 147.626992 144.73298 
L 148.26074 143.717141 
L 148.929697 142.200808 
L 149.66907 139.929004 
L 150.443652 136.766375 
L 151.218233 132.635405 
L 152.028023 127.026328 
L 152.837812 119.744636 
L 153.647602 110.353375 
L 154.527808 97.315409 
L 156.816344 60.963031 
L 157.09801 59.77681 
L 157.238843 59.732945 
L 157.379676 60.061302 
L 157.590926 61.228098 
L 157.943008 64.779241 
L 158.471132 72.820228 
L 160.830085 111.744631 
L 161.710291 121.514756 
L 162.590497 128.909869 
L 163.470703 134.469004 
L 164.315701 138.46675 
L 165.125491 141.316062 
L 165.900072 143.294851 
L 166.604237 144.544174 
L 167.237986 145.263239 
L 167.801318 145.598802 
L 168.329442 145.661528 
L 168.822357 145.501548 
L 169.350481 145.092543 
L 169.949021 144.321155 
L 170.582769 143.12497 
L 171.286934 141.292563 
L 172.026308 138.71872 
L 172.800889 135.177164 
L 173.575471 130.5786 
L 174.38526 124.352099 
L 175.19505 116.285545 
L 176.00484 105.93478 
L 176.920254 91.19318 
L 178.61025 63.057873 
L 178.997541 60.16783 
L 179.20879 59.706627 
L 179.314415 59.789969 
L 179.490456 60.389033 
L 179.772122 62.478235 
L 180.194621 67.772052 
L 180.969203 81.172025 
L 182.342324 104.591274 
L 183.257739 116.434121 
L 184.137945 125.07273 
L 185.018151 131.588799 
L 185.898357 136.471167 
L 186.743355 139.956639 
L 187.553145 142.403212 
L 188.292518 143.99073 
L 188.961475 144.955999 
L 189.560015 145.469214 
L 190.088139 145.658896 
L 190.581054 145.617288 
L 191.109178 145.337558 
L 191.67251 144.764437 
L 192.27105 143.829622 
L 192.940007 142.355775 
L 193.67938 140.137674 
L 194.453962 137.041844 
L 195.228543 132.992838 
L 196.038333 127.491668 
L 196.848123 120.347459 
L 197.657912 111.127019 
L 198.50291 98.865705 
L 199.664782 78.240625 
L 200.544989 64.186444 
L 200.967488 60.474882 
L 201.213945 59.721666 
L 201.31957 59.745478 
L 201.460403 60.101407 
L 201.706861 61.584027 
L 202.058943 65.370158 
L 202.622275 74.235797 
L 204.699562 109.127676 
L 205.614976 119.878924 
L 206.495183 127.676024 
L 207.375389 133.544152 
L 208.220387 137.773879 
L 209.065385 140.915579 
L 209.839966 143.008855 
L 210.579339 144.404309 
L 211.248296 145.211165 
L 211.811628 145.576494 
L 212.339752 145.666604 
L 212.832667 145.532191 
L 213.360791 145.151259 
L 213.924123 144.46597 
L 214.557871 143.330193 
L 215.262036 141.572669 
L 216.00141 139.089939 
L 216.775991 135.663183 
L 217.550572 131.206802 
L 218.360362 125.168292 
L 219.170152 117.340298 
L 219.979942 107.278036 
L 220.860148 93.46912 
L 222.761393 62.25014 
L 223.113476 59.996759 
L 223.324725 59.717279 
L 223.465558 59.995506 
L 223.676808 61.090864 
L 223.993682 64.116261 
L 224.486597 71.300637 
L 227.162424 114.528585 
L 228.04263 123.629275 
L 228.922837 130.502777 
L 229.803043 135.660676 
L 230.648041 139.355444 
L 231.45783 141.967387 
L 232.232412 143.752546 
L 232.936577 144.844834 
L 233.570325 145.432368 
L 234.133657 145.655512 
L 234.626573 145.624306 
L 235.154697 145.355918 
L 235.718028 144.79533 
L 236.316569 143.874677 
L 236.985525 142.418188 
L 237.68969 140.341706 
L 238.464272 137.311735 
L 239.238853 133.343378 
L 240.048643 127.948172 
L 240.858433 120.939066 
L 241.668222 111.887003 
L 242.51322 99.823831 
L 243.604676 80.631239 
L 244.590507 64.482216 
L 245.013006 60.609608 
L 245.259464 59.746105 
L 245.400297 59.759264 
L 245.54113 60.143392 
L 245.787587 61.672382 
L 246.13967 65.511778 
L 246.73821 75.049797 
L 248.709872 108.318815 
L 249.625286 119.267202 
L 250.505493 127.214194 
L 251.385699 133.197623 
L 252.230697 137.5137 
L 253.075695 140.724894 
L 253.885484 142.953084 
L 254.624858 144.366837 
L 255.293814 145.18892 
L 255.857146 145.566405 
L 256.38527 145.667732 
L 256.878186 145.543846 
L 257.406309 145.174444 
L 257.969641 144.501876 
L 258.60339 143.381515 
L 259.307555 141.643103 
L 260.046928 139.183558 
L 260.821509 135.785941 
L 261.596091 131.365591 
L 262.405881 125.374705 
L 263.21567 117.607182 
L 264.02546 107.618487 
L 264.905666 93.890846 
L 266.84212 62.150505 
L 267.194202 59.962921 
L 267.370244 59.706627 
L 267.475868 59.83258 
L 267.65191 60.500574 
L 267.933575 62.690038 
L 268.356074 68.096023 
L 269.130656 81.569312 
L 270.503778 104.907098 
L 271.419192 116.675062 
L 272.299398 125.255081 
L 273.179604 131.725844 
L 274.024602 136.405746 
L 274.8696 139.9082 
L 275.67939 142.368308 
L 276.418763 143.966416 
L 277.08772 144.940459 
L 277.68626 145.461005 
L 278.214384 145.657079 
L 278.707299 145.621298 
L 279.235423 145.347897 
L 279.798755 144.781795 
L 280.397295 143.854938 
L 281.066252 142.390804 
L 281.770417 140.305236 
L 282.544998 137.263485 
L 283.31958 133.280652 
L 284.12937 127.866521 
L 284.939159 120.833227 
L 285.748949 111.75096 
L 286.593947 99.652133 
L 287.720611 79.784028 
L 288.671234 64.351249 
L 289.093733 60.548825 
L 289.34019 59.733572 
L 289.445815 59.730439 
L 289.586648 60.05065 
L 289.797898 61.206792 
L 290.114772 64.309264 
L 290.642896 72.166647 
L 293.107473 112.590903 
L 293.987679 122.158311 
L 294.867885 129.394885 
L 295.748091 134.832201 
L 296.593089 138.738146 
L 297.402879 141.51577 
L 298.177461 143.436283 
L 298.881626 144.638483 
L 299.515374 145.318257 
L 300.078706 145.620295 
L 300.60683 145.652129 
L 301.099745 145.463073 
L 301.627869 145.022235 
L 302.226409 144.212872 
L 302.895366 142.892113 
L 303.599531 140.977177 
L 304.338904 138.302384 
L 305.113485 134.633245 
L 305.888067 129.876392 
L 306.697857 123.440219 
L 307.507646 115.108348 
L 308.352644 103.918267 
L 309.303267 88.093841 
L 310.746805 63.869993 
L 311.169304 60.338275 
L 311.415762 59.70788 
L 311.521387 59.784956 
L 311.697428 60.37462 
L 311.943886 62.119173 
L 312.331176 66.701759 
L 313.000133 77.882816 
L 314.619712 105.575718 
L 315.535127 117.184454 
L 316.415333 125.640399 
L 317.295539 132.015538 
L 318.140537 136.624128 
L 318.985535 140.069746 
L 319.795325 142.484737 
L 320.534698 144.04719 
L 321.203655 144.991968 
L 321.802195 145.487762 
L 322.330319 145.662656 
L 322.823234 145.607199 
L 323.351358 145.312492 
L 323.91469 144.722765 
L 324.548438 143.702164 
L 325.217395 142.180192 
L 325.956768 139.901369 
L 326.73135 136.729842 
L 327.505931 132.588032 
L 328.315721 126.964668 
L 329.125511 119.664803 
L 329.9353 110.250983 
L 330.815507 97.186322 
L 333.104043 60.91102 
L 333.385709 59.764277 
L 333.526542 59.741718 
L 333.667375 60.090128 
L 333.913832 61.560214 
L 334.265915 65.331933 
L 334.829247 74.183786 
L 336.941742 109.559365 
L 337.821948 119.849096 
L 338.702154 127.653465 
L 339.58236 133.527233 
L 340.427358 137.761158 
L 341.272356 140.906305 
L 342.046938 143.00215 
L 342.786311 144.39986 
L 343.455268 145.208533 
L 344.0186 145.575303 
L 344.546723 145.666729 
L 345.039639 145.533632 
L 345.567763 145.154079 
L 346.131095 144.470294 
L 346.764843 143.336397 
L 347.469008 141.581128 
L 348.208381 139.101218 
L 348.982963 135.678034 
L 349.757544 131.225914 
L 350.567334 125.193169 
L 351.377123 117.372507 
L 352.186913 107.319081 
L 353.067119 93.519878 
L 354.968365 62.277712 
L 355.320447 60.006785 
L 355.531697 59.7154 
L 355.67253 59.985479 
L 355.883779 61.070185 
L 356.200653 64.081169 
L 356.693569 71.251132 
L 359.369396 114.493807 
L 360.249602 123.602893 
L 361.129808 130.482913 
L 362.010014 135.645825 
L 362.855012 139.344416 
L 363.664802 141.959366 
L 364.439384 143.746969 
L 365.143548 144.841262 
L 365.777297 145.430488 
L 366.340629 145.655074 
L 366.833544 145.625121 
L 367.361668 145.358111 
L 367.925 144.799027 
L 368.52354 143.880003 
L 369.192497 142.425645 
L 369.896662 140.351607 
L 370.671243 137.324895 
L 371.445825 133.360485 
L 372.255615 127.970417 
L 373.065404 120.967891 
L 373.875194 111.9241 
L 374.720192 99.870202 
L 375.811648 80.68513 
L 376.797479 64.518561 
L 377.219978 60.626528 
L 377.466435 59.749238 
L 377.607268 59.755504 
L 377.748101 60.132112 
L 377.994559 61.647943 
L 378.346642 65.472926 
L 378.945182 74.997159 
L 380.916844 108.278648 
L 381.832258 119.236748 
L 382.712464 127.191259 
L 383.59267 133.18039 
L 384.437668 137.500729 
L 385.282666 140.715369 
L 386.092456 142.946317 
L 386.831829 144.362325 
L 387.500786 145.186225 
L 388.099326 145.579564 
L 388.62745 145.666103 
L 389.120365 145.528368 
L 389.648489 145.143739 
L 390.211821 144.454377 
L 390.84557 143.31365 
L 391.549735 141.549985 
L 392.289108 139.059861 
L 393.063689 135.623705 
L 393.838271 131.155731 
L 394.64806 125.101994 
L 395.45785 117.254575 
L 396.26764 107.168688 
L 397.183054 92.721544 
L 399.013883 62.511447 
L 399.365966 60.093887 
L 399.577215 59.706 
L 399.68284 59.826314 
L 399.858881 60.484908 
L 400.140547 62.660586 
L 400.563046 68.051532 
L 401.337628 81.515422 
L 402.710749 104.864487 
L 403.626164 116.642226 
L 404.50637 125.230203 
L 405.386576 131.70717 
L 406.266782 136.559397 
L 407.11178 140.021934 
L 407.92157 142.450272 
L 408.660943 144.023315 
L 409.3299 144.976804 
L 409.92844 145.479992 
L 410.456564 145.661152 
L 410.949479 145.611585 
L 411.477603 145.323208 
L 412.040935 144.740562 
L 412.674683 143.728358 
L 413.34364 142.216286 
L 414.083013 139.949808 
L 414.857595 136.793759 
L 415.632176 132.670936 
L 416.441966 127.072574 
L 417.251756 119.804542 
L 418.061545 110.430201 
L 418.941752 97.412538 
L 420.38529 71.678498 
L 421.019038 62.809099 
L 421.371121 60.215455 
L 421.58237 59.710386 
L 421.687995 59.77117 
L 421.864036 60.333889 
L 422.110494 62.043977 
L 422.497785 66.583951 
L 423.166741 77.73117 
L 424.821529 105.962352 
L 425.736943 117.479098 
L 426.61715 125.86323 
L 427.497356 132.182975 
L 428.342354 136.750333 
L 429.187352 140.16299 
L 429.997141 142.551787 
L 430.736515 144.093435 
L 431.405471 145.021169 
L 432.004012 145.502551 
L 432.109636 145.554561 
L 432.109636 145.554561 
" style="fill:none;stroke:#1f77b4;stroke-linecap:square;stroke-width:1.5;"/>
   </g>
   <g id="line2d_26">
    <path clip-path="url(#pda26797087)" d="M 80.062364 243.38289 
L 80.555279 243.488791 
L 81.083403 243.837827 
L 81.646735 244.488275 
L 82.280483 245.581127 
L 82.984648 247.286202 
L 83.724021 249.705642 
L 84.498603 253.052502 
L 85.273184 257.410125 
L 86.082974 263.318045 
L 86.892764 270.979917 
L 87.702553 280.840026 
L 88.58276 294.423604 
L 90.58963 327.146509 
L 90.906504 329.064641 
L 91.082545 329.346 
L 91.18817 329.235712 
L 91.364211 328.592158 
L 91.645877 326.439038 
L 92.068376 321.073158 
L 92.842958 307.626187 
L 94.216079 284.258323 
L 95.131494 272.46379 
L 96.0117 263.862591 
L 96.891906 257.375034 
L 97.772112 252.514849 
L 98.61711 249.046421 
L 99.4269 246.613822 
L 100.166273 245.036581 
L 100.870438 244.041484 
L 101.468978 243.554588 
L 101.997102 243.387276 
L 102.490018 243.44994 
L 103.018141 243.752605 
L 103.581473 244.351041 
L 104.215222 245.381857 
L 104.884179 246.915861 
L 105.588344 249.084646 
L 106.362925 252.235369 
L 107.137506 256.351738 
L 107.912088 261.666233 
L 108.721878 268.841836 
L 109.531667 278.101629 
L 110.376665 290.408124 
L 111.573746 311.703704 
L 112.418744 325.027855 
L 112.841243 328.647928 
L 113.0877 329.339107 
L 113.193325 329.287723 
L 113.334158 328.896076 
L 113.580616 327.354552 
L 113.932698 323.500117 
L 114.531239 313.948939 
L 116.5029 280.69214 
L 117.418315 269.753591 
L 118.298521 261.814119 
L 119.178727 255.836643 
L 120.023725 251.524765 
L 120.868723 248.317017 
L 121.678513 246.091835 
L 122.417886 244.680025 
L 123.086843 243.859759 
L 123.685383 243.469992 
L 124.213507 243.386023 
L 124.74163 243.544562 
L 125.269754 243.948115 
L 125.833086 244.659346 
L 126.466835 245.826141 
L 127.171 247.622079 
L 127.910373 250.151806 
L 128.684954 253.637153 
L 129.494744 258.400836 
L 130.304534 264.605781 
L 131.114323 272.645514 
L 131.924113 282.963067 
L 132.839528 297.668949 
L 134.529523 325.880079 
L 134.916814 328.838425 
L 135.128064 329.341614 
L 135.233688 329.279577 
L 135.40973 328.715605 
L 135.656187 327.00301 
L 136.043478 322.459903 
L 136.712435 311.310804 
L 138.367222 283.081501 
L 139.282637 271.566448 
L 140.162843 263.183945 
L 141.043049 256.865579 
L 141.888047 252.298659 
L 142.733045 248.886629 
L 143.542835 246.498521 
L 144.282208 244.956998 
L 144.951165 244.029577 
L 145.549705 243.548948 
L 146.077829 243.386649 
L 146.570744 243.453699 
L 147.098868 243.761377 
L 147.6622 244.364827 
L 148.295948 245.402536 
L 149.000113 247.039308 
L 149.739487 249.374778 
L 150.514068 252.617617 
L 151.323858 257.066729 
L 152.133647 262.87188 
L 152.943437 270.402785 
L 153.753227 280.10185 
L 154.633433 293.501196 
L 156.745928 327.573875 
L 157.062802 329.20626 
L 157.203635 329.34224 
L 157.238843 329.318428 
L 157.379676 328.990071 
L 157.590926 327.823276 
L 157.943008 324.271506 
L 158.471132 316.230519 
L 160.830085 277.306429 
L 161.710291 267.536555 
L 162.590497 260.141629 
L 163.470703 254.582119 
L 164.315701 250.584811 
L 165.160699 247.630852 
L 165.935281 245.682015 
L 166.674654 244.409319 
L 167.308402 243.731299 
L 167.871734 243.430514 
L 168.399858 243.399809 
L 168.927982 243.612238 
L 169.456106 244.070935 
L 170.054646 244.901854 
L 170.723602 246.24912 
L 171.427767 248.194824 
L 172.167141 250.908155 
L 172.941722 254.625357 
L 173.716304 259.442304 
L 174.526093 265.95806 
L 175.335883 274.390694 
L 176.180881 285.705224 
L 177.131504 301.650591 
L 178.504625 324.801639 
L 178.927124 328.548293 
L 179.173582 329.325948 
L 179.279207 329.312788 
L 179.42004 328.970645 
L 179.666498 327.511211 
L 180.01858 323.751398 
L 180.581912 314.910198 
L 182.694407 279.524092 
L 183.574613 269.227217 
L 184.454819 261.416832 
L 185.335025 255.538365 
L 186.180023 251.301056 
L 187.025021 248.152839 
L 187.799603 246.054863 
L 188.538976 244.655586 
L 189.172724 243.877932 
L 189.736056 243.491924 
L 190.26418 243.383516 
L 190.757096 243.50007 
L 191.285219 243.862266 
L 191.88376 244.577883 
L 192.517508 245.710214 
L 193.186465 247.362652 
L 193.925838 249.80653 
L 194.700419 253.185349 
L 195.475001 257.58245 
L 196.249582 263.249115 
L 197.059372 270.890935 
L 197.869162 280.726605 
L 198.749368 294.281358 
L 200.791446 327.375858 
L 201.108321 329.14485 
L 201.284362 329.337854 
L 201.425195 329.073414 
L 201.636444 327.998107 
L 201.953319 324.998403 
L 202.446234 317.840346 
L 205.157269 274.171371 
L 206.037475 265.155966 
L 206.917682 258.348198 
L 207.797888 253.241119 
L 208.642886 249.584701 
L 209.452675 247.002963 
L 210.227257 245.242744 
L 210.931422 244.17057 
L 211.56517 243.600332 
L 212.093294 243.396676 
L 212.621418 243.436154 
L 213.149541 243.71814 
L 213.712873 244.294018 
L 214.346622 245.297888 
L 215.015579 246.801186 
L 215.719744 248.932374 
L 216.494325 252.034219 
L 217.268906 256.091057 
L 218.078696 261.60169 
L 218.888486 268.758494 
L 219.698276 277.994474 
L 220.543274 290.273397 
L 221.705146 310.910384 
L 222.550144 324.503988 
L 222.972643 328.41106 
L 223.2191 329.299002 
L 223.359933 329.299629 
L 223.500766 328.929287 
L 223.747224 327.423482 
L 224.099307 323.610405 
L 224.697847 314.096825 
L 226.669509 280.806188 
L 227.584923 269.840067 
L 228.465129 261.879289 
L 229.345336 255.885521 
L 230.190334 251.561736 
L 231.035331 248.343963 
L 231.809913 246.192723 
L 232.549286 244.748328 
L 233.218243 243.900491 
L 233.816783 243.487538 
L 234.344907 243.383516 
L 234.873031 243.522003 
L 235.401154 243.905504 
L 235.999694 244.646813 
L 236.633443 245.807969 
L 237.337608 247.59764 
L 238.076981 250.119221 
L 238.851563 253.594542 
L 239.626144 258.11133 
L 240.435934 264.229799 
L 241.245723 272.159245 
L 242.055513 282.344578 
L 242.970928 296.903201 
L 244.73134 326.162692 
L 245.118631 328.948086 
L 245.32988 329.345373 
L 245.435505 329.230699 
L 245.611546 328.579625 
L 245.893212 326.414599 
L 246.315711 321.036187 
L 247.090293 307.581069 
L 248.463414 284.222605 
L 249.378829 272.436218 
L 250.259035 263.841912 
L 251.139241 257.359994 
L 251.984239 252.671508 
L 252.829237 249.162349 
L 253.639027 246.697165 
L 254.3784 245.094858 
L 255.047357 244.117306 
L 255.645897 243.594066 
L 256.174021 243.395422 
L 256.666936 243.428634 
L 257.19506 243.699967 
L 257.723184 244.219448 
L 258.321724 245.123056 
L 258.99068 246.558052 
L 259.730054 248.72809 
L 260.504635 251.764139 
L 261.279217 255.739515 
L 262.089006 261.144246 
L 262.898796 268.165697 
L 263.708586 277.233112 
L 264.553584 289.314018 
L 265.645039 308.520396 
L 266.63087 324.635581 
L 267.053369 328.47247 
L 267.299827 329.312162 
L 267.44066 329.283963 
L 267.616701 328.729391 
L 267.863159 327.029329 
L 268.25045 322.501887 
L 268.919406 311.364068 
L 270.574194 283.123486 
L 271.489609 271.599033 
L 272.369815 263.208383 
L 273.250021 256.883751 
L 274.095019 252.312445 
L 274.940017 248.896655 
L 275.749807 246.506041 
L 276.48918 244.962011 
L 277.158136 244.033337 
L 277.756677 243.550201 
L 278.2848 243.386649 
L 278.812924 243.465605 
L 279.341048 243.787696 
L 279.939588 244.456943 
L 280.573337 245.536636 
L 281.242293 247.127037 
L 281.981666 249.493212 
L 282.72104 252.603831 
L 283.495621 256.829234 
L 284.305411 262.562949 
L 285.115201 270.002992 
L 285.92499 279.590515 
L 286.805196 292.859522 
L 288.988108 327.820143 
L 289.304982 329.270177 
L 289.445815 329.321561 
L 289.586648 329.000724 
L 289.797898 327.844581 
L 290.114772 324.741482 
L 290.642896 316.8841 
L 293.107473 276.460471 
L 293.987679 266.893 
L 294.867885 259.656613 
L 295.748091 254.219297 
L 296.593089 250.313478 
L 297.402879 247.535603 
L 298.177461 245.614965 
L 298.916834 244.365454 
L 299.550582 243.706234 
L 300.113914 243.421741 
L 300.60683 243.399182 
L 301.134953 243.610358 
L 301.663077 244.067802 
L 302.261617 244.896841 
L 302.930574 246.242227 
L 303.634739 248.185424 
L 304.374112 250.895623 
L 305.148694 254.609064 
L 305.958483 259.671026 
L 306.768273 266.254459 
L 307.578063 274.772941 
L 308.423061 286.192747 
L 309.408892 302.881303 
L 310.711597 324.765921 
L 311.134096 328.532627 
L 311.380554 329.323441 
L 311.486178 329.315921 
L 311.627011 328.981298 
L 311.838261 327.805103 
L 312.190343 324.240801 
L 312.718467 316.188535 
L 315.042211 277.723768 
L 315.922418 267.854259 
L 316.802624 260.381004 
L 317.68283 254.761964 
L 318.527828 250.718911 
L 319.372826 247.72798 
L 320.147407 245.751572 
L 320.851572 244.50394 
L 321.485321 243.786443 
L 322.048653 243.45182 
L 322.576777 243.390409 
L 323.069692 243.551455 
L 323.597816 243.961274 
L 324.196356 244.734542 
L 324.830104 245.932043 
L 325.534269 247.766205 
L 326.273643 250.34293 
L 327.048224 253.88718 
L 327.858014 258.72794 
L 328.667803 265.030639 
L 329.477593 273.19382 
L 330.322591 284.1731 
L 331.273214 299.785724 
L 332.787168 325.244044 
L 333.174459 328.561452 
L 333.420917 329.327828 
L 333.526542 329.309655 
L 333.667375 328.961246 
L 333.913832 327.491159 
L 334.265915 323.71944 
L 334.829247 314.86696 
L 336.941742 279.491507 
L 337.821948 269.202152 
L 338.702154 261.398033 
L 339.58236 255.523952 
L 340.462567 251.139384 
L 341.272356 248.145319 
L 342.046938 246.049224 
L 342.786311 244.651826 
L 343.420059 243.875425 
L 343.983391 243.491298 
L 344.511515 243.383516 
L 345.004431 243.501324 
L 345.532554 243.864772 
L 346.095886 244.529633 
L 346.764843 245.715227 
L 347.469008 247.470433 
L 348.208381 249.950656 
L 348.982963 253.373966 
L 349.757544 257.826211 
L 350.567334 263.858831 
L 351.377123 271.679242 
L 352.186913 281.732982 
L 353.067119 295.532749 
L 354.968365 326.774288 
L 355.320447 329.045215 
L 355.531697 329.335974 
L 355.67253 329.065894 
L 355.883779 327.981188 
L 356.200653 324.969578 
L 356.693569 317.799614 
L 359.369396 274.557379 
L 360.249602 265.448605 
L 361.129808 258.568148 
L 362.010014 253.405298 
L 362.855012 249.706895 
L 363.664802 247.091945 
L 364.439384 245.304781 
L 365.143548 244.210048 
L 365.777297 243.621011 
L 366.340629 243.396676 
L 366.833544 243.426754 
L 367.32646 243.668009 
L 367.889792 244.209422 
L 368.488332 245.108017 
L 369.157289 246.537373 
L 369.896662 248.699892 
L 370.636035 251.570509 
L 371.410617 255.487607 
L 372.220406 260.816516 
L 373.030196 267.740211 
L 373.839986 276.68606 
L 374.684984 288.623466 
L 375.741231 307.067228 
L 376.797479 324.534066 
L 377.219978 328.425472 
L 377.466435 329.302136 
L 377.607268 329.296496 
L 377.748101 328.919261 
L 377.994559 327.40343 
L 378.346642 323.57782 
L 378.945182 314.053587 
L 380.916844 280.77235 
L 381.832258 269.814375 
L 382.712464 261.859864 
L 383.59267 255.871108 
L 384.437668 251.550457 
L 385.282666 248.335817 
L 386.092456 246.104994 
L 386.831829 244.689425 
L 387.500786 243.865399 
L 388.099326 243.471872 
L 388.62745 243.385396 
L 389.155574 243.541428 
L 389.683697 243.942475 
L 390.282238 244.704464 
L 390.915986 245.890058 
L 391.620151 247.709181 
L 392.359524 250.267107 
L 393.134106 253.788172 
L 393.943895 258.598226 
L 394.753685 264.862701 
L 395.563475 272.976377 
L 396.373265 283.384793 
L 397.288679 298.187803 
L 398.943467 325.816789 
L 399.330757 328.812733 
L 399.542007 329.33848 
L 399.647632 329.28835 
L 399.788465 328.897956 
L 400.034922 327.358939 
L 400.387005 323.50701 
L 400.985545 313.957712 
L 402.957207 280.699033 
L 403.872621 269.758604 
L 404.752828 261.817879 
L 405.633034 255.839777 
L 406.478032 251.527271 
L 407.32303 248.318897 
L 408.097611 246.173924 
L 408.836984 244.735796 
L 409.505941 243.893598 
L 410.069273 243.499444 
L 410.597397 243.38289 
L 411.12552 243.508843 
L 411.653644 243.879812 
L 412.216976 244.553445 
L 412.850725 245.675122 
L 413.55489 247.415916 
L 414.294263 249.87734 
L 415.068844 253.278091 
L 415.843426 257.702137 
L 416.653215 263.697786 
L 417.463005 271.471199 
L 418.272795 281.467288 
L 419.153001 295.203138 
L 421.089455 326.923427 
L 421.441537 329.096599 
L 421.617578 329.34412 
L 421.723203 329.21378 
L 421.899244 328.53764 
L 422.18091 326.33627 
L 422.603409 320.917753 
L 423.413199 306.786496 
L 424.751113 284.10793 
L 425.666527 272.349115 
L 426.546733 263.775488 
L 427.426939 257.309863 
L 428.307146 252.466598 
L 429.152144 249.010703 
L 429.961933 246.587504 
L 430.701306 245.019035 
L 431.370263 244.069055 
L 431.968803 243.568374 
L 432.109636 243.496937 
L 432.109636 243.496937 
" style="fill:none;stroke:#ff7f0e;stroke-linecap:square;stroke-width:1.5;"/>
   </g>
   <g id="line2d_27">
    <path clip-path="url(#pda26797087)" d="M 80.062364 219.884121 
L 111.432913 219.885312 
L 117.735189 219.883745 
L 128.227247 219.884685 
L 137.240559 219.883432 
L 432.109636 219.884184 
L 432.109636 219.884184 
" style="fill:none;stroke:#2ca02c;stroke-dasharray:5.55,2.4;stroke-dashoffset:0;stroke-width:1.5;"/>
   </g>
   <g id="patch_3">
    <path d="M 62.46 342.828 
L 62.46 46.224 
" style="fill:none;stroke:#000000;stroke-linecap:square;stroke-linejoin:miter;stroke-width:0.8;"/>
   </g>
   <g id="patch_4">
    <path d="M 449.712 342.828 
L 449.712 46.224 
" style="fill:none;stroke:#000000;stroke-linecap:square;stroke-linejoin:miter;stroke-width:0.8;"/>
   </g>
   <g id="patch_5">
    <path d="M 62.46 342.828 
L 449.712 342.828 
" style="fill:none;stroke:#000000;stroke-linecap:square;stroke-linejoin:miter;stroke-width:0.8;"/>
   </g>
   <g id="patch_6">
    <path d="M 62.46 46.224 
L 449.712 46.224 
" style="fill:none;stroke:#000000;stroke-linecap:square;stroke-linejoin:miter;stroke-width:0.8;"/>
   </g>
   <g id="text_16">
    <!-- n = 2, N = 1.0e+07, dt = 1e-06, VelocityVerlet, Simulated time = 10.00 years -->
    <g transform="translate(21.563813 26.786625)scale(0.12 -0.12)">
     <defs>
      <path d="M 10.59375 45.40625 
L 73.1875 45.40625 
L 73.1875 37.203125 
L 10.59375 37.203125 
z
M 10.59375 25.484375 
L 73.1875 25.484375 
L 73.1875 17.1875 
L 10.59375 17.1875 
z
" id="DejaVuSans-61"/>
      <path d="M 11.71875 12.40625 
L 22.015625 12.40625 
L 22.015625 4 
L 14.015625 -11.625 
L 7.71875 -11.625 
L 11.71875 4 
z
" id="DejaVuSans-44"/>
      <path d="M 46 62.703125 
L 46 35.5 
L 73.1875 35.5 
L 73.1875 27.203125 
L 46 27.203125 
L 46 0 
L 37.796875 0 
L 37.796875 27.203125 
L 10.59375 27.203125 
L 10.59375 35.5 
L 37.796875 35.5 
L 37.796875 62.703125 
z
" id="DejaVuSans-43"/>
      <path d="M 45.40625 46.390625 
L 45.40625 75.984375 
L 54.390625 75.984375 
L 54.390625 0 
L 45.40625 0 
L 45.40625 8.203125 
Q 42.578125 3.328125 38.25 0.953125 
Q 33.9375 -1.421875 27.875 -1.421875 
Q 17.96875 -1.421875 11.734375 6.484375 
Q 5.515625 14.40625 5.515625 27.296875 
Q 5.515625 40.1875 11.734375 48.09375 
Q 17.96875 56 27.875 56 
Q 33.9375 56 38.25 53.625 
Q 42.578125 51.265625 45.40625 46.390625 
z
M 14.796875 27.296875 
Q 14.796875 17.390625 18.875 11.75 
Q 22.953125 6.109375 30.078125 6.109375 
Q 37.203125 6.109375 41.296875 11.75 
Q 45.40625 17.390625 45.40625 27.296875 
Q 45.40625 37.203125 41.296875 42.84375 
Q 37.203125 48.484375 30.078125 48.484375 
Q 22.953125 48.484375 18.875 42.84375 
Q 14.796875 37.203125 14.796875 27.296875 
z
" id="DejaVuSans-100"/>
      <path d="M 4.890625 31.390625 
L 31.203125 31.390625 
L 31.203125 23.390625 
L 4.890625 23.390625 
z
" id="DejaVuSans-45"/>
      <path d="M 28.609375 0 
L 0.78125 72.90625 
L 11.078125 72.90625 
L 34.1875 11.53125 
L 57.328125 72.90625 
L 67.578125 72.90625 
L 39.796875 0 
z
" id="DejaVuSans-86"/>
      <path d="M 9.421875 75.984375 
L 18.40625 75.984375 
L 18.40625 0 
L 9.421875 0 
z
" id="DejaVuSans-108"/>
      <path d="M 48.78125 52.59375 
L 48.78125 44.1875 
Q 44.96875 46.296875 41.140625 47.34375 
Q 37.3125 48.390625 33.40625 48.390625 
Q 24.65625 48.390625 19.8125 42.84375 
Q 14.984375 37.3125 14.984375 27.296875 
Q 14.984375 17.28125 19.8125 11.734375 
Q 24.65625 6.203125 33.40625 6.203125 
Q 37.3125 6.203125 41.140625 7.25 
Q 44.96875 8.296875 48.78125 10.40625 
L 48.78125 2.09375 
Q 45.015625 0.34375 40.984375 -0.53125 
Q 36.96875 -1.421875 32.421875 -1.421875 
Q 20.0625 -1.421875 12.78125 6.34375 
Q 5.515625 14.109375 5.515625 27.296875 
Q 5.515625 40.671875 12.859375 48.328125 
Q 20.21875 56 33.015625 56 
Q 37.15625 56 41.109375 55.140625 
Q 45.0625 54.296875 48.78125 52.59375 
z
" id="DejaVuSans-99"/>
      <path d="M 53.515625 70.515625 
L 53.515625 60.890625 
Q 47.90625 63.578125 42.921875 64.890625 
Q 37.9375 66.21875 33.296875 66.21875 
Q 25.25 66.21875 20.875 63.09375 
Q 16.5 59.96875 16.5 54.203125 
Q 16.5 49.359375 19.40625 46.890625 
Q 22.3125 44.4375 30.421875 42.921875 
L 36.375 41.703125 
Q 47.40625 39.59375 52.65625 34.296875 
Q 57.90625 29 57.90625 20.125 
Q 57.90625 9.515625 50.796875 4.046875 
Q 43.703125 -1.421875 29.984375 -1.421875 
Q 24.8125 -1.421875 18.96875 -0.25 
Q 13.140625 0.921875 6.890625 3.21875 
L 6.890625 13.375 
Q 12.890625 10.015625 18.65625 8.296875 
Q 24.421875 6.59375 29.984375 6.59375 
Q 38.421875 6.59375 43.015625 9.90625 
Q 47.609375 13.234375 47.609375 19.390625 
Q 47.609375 24.75 44.3125 27.78125 
Q 41.015625 30.8125 33.5 32.328125 
L 27.484375 33.5 
Q 16.453125 35.6875 11.515625 40.375 
Q 6.59375 45.0625 6.59375 53.421875 
Q 6.59375 63.09375 13.40625 68.65625 
Q 20.21875 74.21875 32.171875 74.21875 
Q 37.3125 74.21875 42.625 73.28125 
Q 47.953125 72.359375 53.515625 70.515625 
z
" id="DejaVuSans-83"/>
      <path d="M 34.28125 27.484375 
Q 23.390625 27.484375 19.1875 25 
Q 14.984375 22.515625 14.984375 16.5 
Q 14.984375 11.71875 18.140625 8.90625 
Q 21.296875 6.109375 26.703125 6.109375 
Q 34.1875 6.109375 38.703125 11.40625 
Q 43.21875 16.703125 43.21875 25.484375 
L 43.21875 27.484375 
z
M 52.203125 31.203125 
L 52.203125 0 
L 43.21875 0 
L 43.21875 8.296875 
Q 40.140625 3.328125 35.546875 0.953125 
Q 30.953125 -1.421875 24.3125 -1.421875 
Q 15.921875 -1.421875 10.953125 3.296875 
Q 6 8.015625 6 15.921875 
Q 6 25.140625 12.171875 29.828125 
Q 18.359375 34.515625 30.609375 34.515625 
L 43.21875 34.515625 
L 43.21875 35.40625 
Q 43.21875 41.609375 39.140625 45 
Q 35.0625 48.390625 27.6875 48.390625 
Q 23 48.390625 18.546875 47.265625 
Q 14.109375 46.140625 10.015625 43.890625 
L 10.015625 52.203125 
Q 14.9375 54.109375 19.578125 55.046875 
Q 24.21875 56 28.609375 56 
Q 40.484375 56 46.34375 49.84375 
Q 52.203125 43.703125 52.203125 31.203125 
z
" id="DejaVuSans-97"/>
     </defs>
     <use xlink:href="#DejaVuSans-110"/>
     <use x="63.378906" xlink:href="#DejaVuSans-32"/>
     <use x="95.166016" xlink:href="#DejaVuSans-61"/>
     <use x="178.955078" xlink:href="#DejaVuSans-32"/>
     <use x="210.742188" xlink:href="#DejaVuSans-50"/>
     <use x="274.365234" xlink:href="#DejaVuSans-44"/>
     <use x="306.152344" xlink:href="#DejaVuSans-32"/>
     <use x="337.939453" xlink:href="#DejaVuSans-78"/>
     <use x="412.744141" xlink:href="#DejaVuSans-32"/>
     <use x="444.53125" xlink:href="#DejaVuSans-61"/>
     <use x="528.320312" xlink:href="#DejaVuSans-32"/>
     <use x="560.107422" xlink:href="#DejaVuSans-49"/>
     <use x="623.730469" xlink:href="#DejaVuSans-46"/>
     <use x="655.517578" xlink:href="#DejaVuSans-48"/>
     <use x="719.140625" xlink:href="#DejaVuSans-101"/>
     <use x="780.664062" xlink:href="#DejaVuSans-43"/>
     <use x="864.453125" xlink:href="#DejaVuSans-48"/>
     <use x="928.076172" xlink:href="#DejaVuSans-55"/>
     <use x="991.699219" xlink:href="#DejaVuSans-44"/>
     <use x="1023.486328" xlink:href="#DejaVuSans-32"/>
     <use x="1055.273438" xlink:href="#DejaVuSans-100"/>
     <use x="1118.75" xlink:href="#DejaVuSans-116"/>
     <use x="1157.958984" xlink:href="#DejaVuSans-32"/>
     <use x="1189.746094" xlink:href="#DejaVuSans-61"/>
     <use x="1273.535156" xlink:href="#DejaVuSans-32"/>
     <use x="1305.322266" xlink:href="#DejaVuSans-49"/>
     <use x="1368.945312" xlink:href="#DejaVuSans-101"/>
     <use x="1430.46875" xlink:href="#DejaVuSans-45"/>
     <use x="1466.552734" xlink:href="#DejaVuSans-48"/>
     <use x="1530.175781" xlink:href="#DejaVuSans-54"/>
     <use x="1593.798828" xlink:href="#DejaVuSans-44"/>
     <use x="1625.585938" xlink:href="#DejaVuSans-32"/>
     <use x="1657.373047" xlink:href="#DejaVuSans-86"/>
     <use x="1718.03125" xlink:href="#DejaVuSans-101"/>
     <use x="1779.554688" xlink:href="#DejaVuSans-108"/>
     <use x="1807.337891" xlink:href="#DejaVuSans-111"/>
     <use x="1868.519531" xlink:href="#DejaVuSans-99"/>
     <use x="1923.5" xlink:href="#DejaVuSans-105"/>
     <use x="1951.283203" xlink:href="#DejaVuSans-116"/>
     <use x="1990.492188" xlink:href="#DejaVuSans-121"/>
     <use x="2049.671875" xlink:href="#DejaVuSans-86"/>
     <use x="2110.330078" xlink:href="#DejaVuSans-101"/>
     <use x="2171.853516" xlink:href="#DejaVuSans-114"/>
     <use x="2212.966797" xlink:href="#DejaVuSans-108"/>
     <use x="2240.75" xlink:href="#DejaVuSans-101"/>
     <use x="2302.273438" xlink:href="#DejaVuSans-116"/>
     <use x="2341.482422" xlink:href="#DejaVuSans-44"/>
     <use x="2373.269531" xlink:href="#DejaVuSans-32"/>
     <use x="2405.056641" xlink:href="#DejaVuSans-83"/>
     <use x="2468.533203" xlink:href="#DejaVuSans-105"/>
     <use x="2496.316406" xlink:href="#DejaVuSans-109"/>
     <use x="2593.728516" xlink:href="#DejaVuSans-117"/>
     <use x="2657.107422" xlink:href="#DejaVuSans-108"/>
     <use x="2684.890625" xlink:href="#DejaVuSans-97"/>
     <use x="2746.169922" xlink:href="#DejaVuSans-116"/>
     <use x="2785.378906" xlink:href="#DejaVuSans-101"/>
     <use x="2846.902344" xlink:href="#DejaVuSans-100"/>
     <use x="2910.378906" xlink:href="#DejaVuSans-32"/>
     <use x="2942.166016" xlink:href="#DejaVuSans-116"/>
     <use x="2981.375" xlink:href="#DejaVuSans-105"/>
     <use x="3009.158203" xlink:href="#DejaVuSans-109"/>
     <use x="3106.570312" xlink:href="#DejaVuSans-101"/>
     <use x="3168.09375" xlink:href="#DejaVuSans-32"/>
     <use x="3199.880859" xlink:href="#DejaVuSans-61"/>
     <use x="3283.669922" xlink:href="#DejaVuSans-32"/>
     <use x="3315.457031" xlink:href="#DejaVuSans-49"/>
     <use x="3379.080078" xlink:href="#DejaVuSans-48"/>
     <use x="3442.703125" xlink:href="#DejaVuSans-46"/>
     <use x="3474.490234" xlink:href="#DejaVuSans-48"/>
     <use x="3538.113281" xlink:href="#DejaVuSans-48"/>
     <use x="3601.736328" xlink:href="#DejaVuSans-32"/>
     <use x="3633.523438" xlink:href="#DejaVuSans-121"/>
     <use x="3692.703125" xlink:href="#DejaVuSans-101"/>
     <use x="3754.226562" xlink:href="#DejaVuSans-97"/>
     <use x="3815.505859" xlink:href="#DejaVuSans-114"/>
     <use x="3856.619141" xlink:href="#DejaVuSans-115"/>
    </g>
    <!--  -->
    <g transform="translate(256.086 40.224)scale(0.12 -0.12)"/>
   </g>
   <g id="legend_1">
    <g id="patch_7">
     <path d="M 144.216687 218.18225 
L 442.712 218.18225 
Q 444.712 218.18225 444.712 216.18225 
L 444.712 172.86975 
Q 444.712 170.86975 442.712 170.86975 
L 144.216687 170.86975 
Q 142.216687 170.86975 142.216687 172.86975 
L 142.216687 216.18225 
Q 142.216687 218.18225 144.216687 218.18225 
z
" style="fill:#ffffff;opacity:0.8;stroke:#cccccc;stroke-linejoin:miter;"/>
    </g>
    <g id="line2d_28">
     <path d="M 146.216687 178.968187 
L 166.216687 178.968187 
" style="fill:none;stroke:#1f77b4;stroke-linecap:square;stroke-width:1.5;"/>
    </g>
    <g id="line2d_29"/>
    <g id="text_17">
     <!-- Kinetic energy -->
     <g transform="translate(174.216687 182.468187)scale(0.1 -0.1)">
      <defs>
       <path d="M 9.8125 72.90625 
L 19.671875 72.90625 
L 19.671875 42.09375 
L 52.390625 72.90625 
L 65.09375 72.90625 
L 28.90625 38.921875 
L 67.671875 0 
L 54.6875 0 
L 19.671875 35.109375 
L 19.671875 0 
L 9.8125 0 
z
" id="DejaVuSans-75"/>
      </defs>
      <use xlink:href="#DejaVuSans-75"/>
      <use x="65.576172" xlink:href="#DejaVuSans-105"/>
      <use x="93.359375" xlink:href="#DejaVuSans-110"/>
      <use x="156.738281" xlink:href="#DejaVuSans-101"/>
      <use x="218.261719" xlink:href="#DejaVuSans-116"/>
      <use x="257.470703" xlink:href="#DejaVuSans-105"/>
      <use x="285.253906" xlink:href="#DejaVuSans-99"/>
      <use x="340.234375" xlink:href="#DejaVuSans-32"/>
      <use x="372.021484" xlink:href="#DejaVuSans-101"/>
      <use x="433.544922" xlink:href="#DejaVuSans-110"/>
      <use x="496.923828" xlink:href="#DejaVuSans-101"/>
      <use x="558.447266" xlink:href="#DejaVuSans-114"/>
      <use x="597.810547" xlink:href="#DejaVuSans-103"/>
      <use x="661.287109" xlink:href="#DejaVuSans-121"/>
     </g>
    </g>
    <g id="line2d_30">
     <path d="M 146.216687 193.646312 
L 166.216687 193.646312 
" style="fill:none;stroke:#ff7f0e;stroke-linecap:square;stroke-width:1.5;"/>
    </g>
    <g id="line2d_31"/>
    <g id="text_18">
     <!-- Potential energy -->
     <g transform="translate(174.216687 197.146312)scale(0.1 -0.1)">
      <defs>
       <path d="M 19.671875 64.796875 
L 19.671875 37.40625 
L 32.078125 37.40625 
Q 38.96875 37.40625 42.71875 40.96875 
Q 46.484375 44.53125 46.484375 51.125 
Q 46.484375 57.671875 42.71875 61.234375 
Q 38.96875 64.796875 32.078125 64.796875 
z
M 9.8125 72.90625 
L 32.078125 72.90625 
Q 44.34375 72.90625 50.609375 67.359375 
Q 56.890625 61.8125 56.890625 51.125 
Q 56.890625 40.328125 50.609375 34.8125 
Q 44.34375 29.296875 32.078125 29.296875 
L 19.671875 29.296875 
L 19.671875 0 
L 9.8125 0 
z
" id="DejaVuSans-80"/>
      </defs>
      <use xlink:href="#DejaVuSans-80"/>
      <use x="56.677734" xlink:href="#DejaVuSans-111"/>
      <use x="117.859375" xlink:href="#DejaVuSans-116"/>
      <use x="157.068359" xlink:href="#DejaVuSans-101"/>
      <use x="218.591797" xlink:href="#DejaVuSans-110"/>
      <use x="281.970703" xlink:href="#DejaVuSans-116"/>
      <use x="321.179688" xlink:href="#DejaVuSans-105"/>
      <use x="348.962891" xlink:href="#DejaVuSans-97"/>
      <use x="410.242188" xlink:href="#DejaVuSans-108"/>
      <use x="438.025391" xlink:href="#DejaVuSans-32"/>
      <use x="469.8125" xlink:href="#DejaVuSans-101"/>
      <use x="531.335938" xlink:href="#DejaVuSans-110"/>
      <use x="594.714844" xlink:href="#DejaVuSans-101"/>
      <use x="656.238281" xlink:href="#DejaVuSans-114"/>
      <use x="695.601562" xlink:href="#DejaVuSans-103"/>
      <use x="759.078125" xlink:href="#DejaVuSans-121"/>
     </g>
    </g>
    <g id="line2d_32">
     <path d="M 146.216687 208.324437 
L 166.216687 208.324437 
" style="fill:none;stroke:#2ca02c;stroke-dasharray:5.55,2.4;stroke-dashoffset:0;stroke-width:1.5;"/>
    </g>
    <g id="line2d_33"/>
    <g id="text_19">
     <!-- Total energy. E_mean = -1.00e+00, E_std = 8.07e-06 -->
     <g transform="translate(174.216687 211.824437)scale(0.1 -0.1)">
      <defs>
       <path d="M -0.296875 72.90625 
L 61.375 72.90625 
L 61.375 64.59375 
L 35.5 64.59375 
L 35.5 0 
L 25.59375 0 
L 25.59375 64.59375 
L -0.296875 64.59375 
z
" id="DejaVuSans-84"/>
       <path d="M 50.984375 -16.609375 
L 50.984375 -23.578125 
L -0.984375 -23.578125 
L -0.984375 -16.609375 
z
" id="DejaVuSans-95"/>
      </defs>
      <use xlink:href="#DejaVuSans-84"/>
      <use x="44.083984" xlink:href="#DejaVuSans-111"/>
      <use x="105.265625" xlink:href="#DejaVuSans-116"/>
      <use x="144.474609" xlink:href="#DejaVuSans-97"/>
      <use x="205.753906" xlink:href="#DejaVuSans-108"/>
      <use x="233.537109" xlink:href="#DejaVuSans-32"/>
      <use x="265.324219" xlink:href="#DejaVuSans-101"/>
      <use x="326.847656" xlink:href="#DejaVuSans-110"/>
      <use x="390.226562" xlink:href="#DejaVuSans-101"/>
      <use x="451.75" xlink:href="#DejaVuSans-114"/>
      <use x="491.113281" xlink:href="#DejaVuSans-103"/>
      <use x="554.589844" xlink:href="#DejaVuSans-121"/>
      <use x="599.519531" xlink:href="#DejaVuSans-46"/>
      <use x="631.306641" xlink:href="#DejaVuSans-32"/>
      <use x="663.09375" xlink:href="#DejaVuSans-69"/>
      <use x="726.277344" xlink:href="#DejaVuSans-95"/>
      <use x="776.277344" xlink:href="#DejaVuSans-109"/>
      <use x="873.689453" xlink:href="#DejaVuSans-101"/>
      <use x="935.212891" xlink:href="#DejaVuSans-97"/>
      <use x="996.492188" xlink:href="#DejaVuSans-110"/>
      <use x="1059.871094" xlink:href="#DejaVuSans-32"/>
      <use x="1091.658203" xlink:href="#DejaVuSans-61"/>
      <use x="1175.447266" xlink:href="#DejaVuSans-32"/>
      <use x="1207.234375" xlink:href="#DejaVuSans-45"/>
      <use x="1243.318359" xlink:href="#DejaVuSans-49"/>
      <use x="1306.941406" xlink:href="#DejaVuSans-46"/>
      <use x="1338.728516" xlink:href="#DejaVuSans-48"/>
      <use x="1402.351562" xlink:href="#DejaVuSans-48"/>
      <use x="1465.974609" xlink:href="#DejaVuSans-101"/>
      <use x="1527.498047" xlink:href="#DejaVuSans-43"/>
      <use x="1611.287109" xlink:href="#DejaVuSans-48"/>
      <use x="1674.910156" xlink:href="#DejaVuSans-48"/>
      <use x="1738.533203" xlink:href="#DejaVuSans-44"/>
      <use x="1770.320312" xlink:href="#DejaVuSans-32"/>
      <use x="1802.107422" xlink:href="#DejaVuSans-69"/>
      <use x="1865.291016" xlink:href="#DejaVuSans-95"/>
      <use x="1915.291016" xlink:href="#DejaVuSans-115"/>
      <use x="1967.390625" xlink:href="#DejaVuSans-116"/>
      <use x="2006.599609" xlink:href="#DejaVuSans-100"/>
      <use x="2070.076172" xlink:href="#DejaVuSans-32"/>
      <use x="2101.863281" xlink:href="#DejaVuSans-61"/>
      <use x="2185.652344" xlink:href="#DejaVuSans-32"/>
      <use x="2217.439453" xlink:href="#DejaVuSans-56"/>
      <use x="2281.0625" xlink:href="#DejaVuSans-46"/>
      <use x="2312.849609" xlink:href="#DejaVuSans-48"/>
      <use x="2376.472656" xlink:href="#DejaVuSans-55"/>
      <use x="2440.095703" xlink:href="#DejaVuSans-101"/>
      <use x="2501.619141" xlink:href="#DejaVuSans-45"/>
      <use x="2537.703125" xlink:href="#DejaVuSans-48"/>
      <use x="2601.326172" xlink:href="#DejaVuSans-54"/>
     </g>
    </g>
   </g>
  </g>
 </g>
 <defs>
  <clipPath id="pda26797087">
   <rect height="296.604" width="387.252" x="62.46" y="46.224"/>
  </clipPath>
 </defs>
</svg>
