<?xml version="1.0" encoding="utf-8" standalone="no"?>
<!DOCTYPE svg PUBLIC "-//W3C//DTD SVG 1.1//EN"
  "http://www.w3.org/Graphics/SVG/1.1/DTD/svg11.dtd">
<!-- Created with matplotlib (https://matplotlib.org/) -->
<svg height="380.88pt" version="1.1" viewBox="0 0 506.88 380.88" width="506.88pt" xmlns="http://www.w3.org/2000/svg" xmlns:xlink="http://www.w3.org/1999/xlink">
 <metadata>
  <rdf:RDF xmlns:cc="http://creativecommons.org/ns#" xmlns:dc="http://purl.org/dc/elements/1.1/" xmlns:rdf="http://www.w3.org/1999/02/22-rdf-syntax-ns#">
   <cc:Work>
    <dc:type rdf:resource="http://purl.org/dc/dcmitype/StillImage"/>
    <dc:date>2020-10-22T17:08:54.612768</dc:date>
    <dc:format>image/svg+xml</dc:format>
    <dc:creator>
     <cc:Agent>
      <dc:title>Matplotlib v3.3.2, https://matplotlib.org/</dc:title>
     </cc:Agent>
    </dc:creator>
   </cc:Work>
  </rdf:RDF>
 </metadata>
 <defs>
  <style type="text/css">*{stroke-linecap:butt;stroke-linejoin:round;}</style>
 </defs>
 <g id="figure_1">
  <g id="patch_1">
   <path d="M 0 380.88 
L 506.88 380.88 
L 506.88 0 
L 0 0 
z
" style="fill:#ffffff;"/>
  </g>
  <g id="axes_1">
   <g id="patch_2">
    <path d="M 63.36 338.9832 
L 456.192 338.9832 
L 456.192 45.7056 
L 63.36 45.7056 
z
" style="fill:#ffffff;"/>
   </g>
   <g id="matplotlib.axis_1">
    <g id="xtick_1">
     <g id="line2d_1">
      <path clip-path="url(#pf9353a817b)" d="M 81.216 338.9832 
L 81.216 45.7056 
" style="fill:none;stroke:#b0b0b0;stroke-linecap:square;stroke-width:0.8;"/>
     </g>
     <g id="line2d_2">
      <defs>
       <path d="M 0 0 
L 0 3.5 
" id="m7220f156b1" style="stroke:#000000;stroke-width:0.8;"/>
      </defs>
      <g>
       <use style="stroke:#000000;stroke-width:0.8;" x="81.216" xlink:href="#m7220f156b1" y="338.9832"/>
      </g>
     </g>
     <g id="text_1">
      <!-- 0.0 -->
      <g transform="translate(73.264438 353.581637)scale(0.1 -0.1)">
       <defs>
        <path d="M 31.78125 66.40625 
Q 24.171875 66.40625 20.328125 58.90625 
Q 16.5 51.421875 16.5 36.375 
Q 16.5 21.390625 20.328125 13.890625 
Q 24.171875 6.390625 31.78125 6.390625 
Q 39.453125 6.390625 43.28125 13.890625 
Q 47.125 21.390625 47.125 36.375 
Q 47.125 51.421875 43.28125 58.90625 
Q 39.453125 66.40625 31.78125 66.40625 
z
M 31.78125 74.21875 
Q 44.046875 74.21875 50.515625 64.515625 
Q 56.984375 54.828125 56.984375 36.375 
Q 56.984375 17.96875 50.515625 8.265625 
Q 44.046875 -1.421875 31.78125 -1.421875 
Q 19.53125 -1.421875 13.0625 8.265625 
Q 6.59375 17.96875 6.59375 36.375 
Q 6.59375 54.828125 13.0625 64.515625 
Q 19.53125 74.21875 31.78125 74.21875 
z
" id="DejaVuSans-48"/>
        <path d="M 10.6875 12.40625 
L 21 12.40625 
L 21 0 
L 10.6875 0 
z
" id="DejaVuSans-46"/>
       </defs>
       <use xlink:href="#DejaVuSans-48"/>
       <use x="63.623047" xlink:href="#DejaVuSans-46"/>
       <use x="95.410156" xlink:href="#DejaVuSans-48"/>
      </g>
     </g>
    </g>
    <g id="xtick_2">
     <g id="line2d_3">
      <path clip-path="url(#pf9353a817b)" d="M 152.64 338.9832 
L 152.64 45.7056 
" style="fill:none;stroke:#b0b0b0;stroke-linecap:square;stroke-width:0.8;"/>
     </g>
     <g id="line2d_4">
      <g>
       <use style="stroke:#000000;stroke-width:0.8;" x="152.64" xlink:href="#m7220f156b1" y="338.9832"/>
      </g>
     </g>
     <g id="text_2">
      <!-- 0.2 -->
      <g transform="translate(144.688437 353.581637)scale(0.1 -0.1)">
       <defs>
        <path d="M 19.1875 8.296875 
L 53.609375 8.296875 
L 53.609375 0 
L 7.328125 0 
L 7.328125 8.296875 
Q 12.9375 14.109375 22.625 23.890625 
Q 32.328125 33.6875 34.8125 36.53125 
Q 39.546875 41.84375 41.421875 45.53125 
Q 43.3125 49.21875 43.3125 52.78125 
Q 43.3125 58.59375 39.234375 62.25 
Q 35.15625 65.921875 28.609375 65.921875 
Q 23.96875 65.921875 18.8125 64.3125 
Q 13.671875 62.703125 7.8125 59.421875 
L 7.8125 69.390625 
Q 13.765625 71.78125 18.9375 73 
Q 24.125 74.21875 28.421875 74.21875 
Q 39.75 74.21875 46.484375 68.546875 
Q 53.21875 62.890625 53.21875 53.421875 
Q 53.21875 48.921875 51.53125 44.890625 
Q 49.859375 40.875 45.40625 35.40625 
Q 44.1875 33.984375 37.640625 27.21875 
Q 31.109375 20.453125 19.1875 8.296875 
z
" id="DejaVuSans-50"/>
       </defs>
       <use xlink:href="#DejaVuSans-48"/>
       <use x="63.623047" xlink:href="#DejaVuSans-46"/>
       <use x="95.410156" xlink:href="#DejaVuSans-50"/>
      </g>
     </g>
    </g>
    <g id="xtick_3">
     <g id="line2d_5">
      <path clip-path="url(#pf9353a817b)" d="M 224.064 338.9832 
L 224.064 45.7056 
" style="fill:none;stroke:#b0b0b0;stroke-linecap:square;stroke-width:0.8;"/>
     </g>
     <g id="line2d_6">
      <g>
       <use style="stroke:#000000;stroke-width:0.8;" x="224.064" xlink:href="#m7220f156b1" y="338.9832"/>
      </g>
     </g>
     <g id="text_3">
      <!-- 0.4 -->
      <g transform="translate(216.112437 353.581637)scale(0.1 -0.1)">
       <defs>
        <path d="M 37.796875 64.3125 
L 12.890625 25.390625 
L 37.796875 25.390625 
z
M 35.203125 72.90625 
L 47.609375 72.90625 
L 47.609375 25.390625 
L 58.015625 25.390625 
L 58.015625 17.1875 
L 47.609375 17.1875 
L 47.609375 0 
L 37.796875 0 
L 37.796875 17.1875 
L 4.890625 17.1875 
L 4.890625 26.703125 
z
" id="DejaVuSans-52"/>
       </defs>
       <use xlink:href="#DejaVuSans-48"/>
       <use x="63.623047" xlink:href="#DejaVuSans-46"/>
       <use x="95.410156" xlink:href="#DejaVuSans-52"/>
      </g>
     </g>
    </g>
    <g id="xtick_4">
     <g id="line2d_7">
      <path clip-path="url(#pf9353a817b)" d="M 295.488 338.9832 
L 295.488 45.7056 
" style="fill:none;stroke:#b0b0b0;stroke-linecap:square;stroke-width:0.8;"/>
     </g>
     <g id="line2d_8">
      <g>
       <use style="stroke:#000000;stroke-width:0.8;" x="295.488" xlink:href="#m7220f156b1" y="338.9832"/>
      </g>
     </g>
     <g id="text_4">
      <!-- 0.6 -->
      <g transform="translate(287.536437 353.581637)scale(0.1 -0.1)">
       <defs>
        <path d="M 33.015625 40.375 
Q 26.375 40.375 22.484375 35.828125 
Q 18.609375 31.296875 18.609375 23.390625 
Q 18.609375 15.53125 22.484375 10.953125 
Q 26.375 6.390625 33.015625 6.390625 
Q 39.65625 6.390625 43.53125 10.953125 
Q 47.40625 15.53125 47.40625 23.390625 
Q 47.40625 31.296875 43.53125 35.828125 
Q 39.65625 40.375 33.015625 40.375 
z
M 52.59375 71.296875 
L 52.59375 62.3125 
Q 48.875 64.0625 45.09375 64.984375 
Q 41.3125 65.921875 37.59375 65.921875 
Q 27.828125 65.921875 22.671875 59.328125 
Q 17.53125 52.734375 16.796875 39.40625 
Q 19.671875 43.65625 24.015625 45.921875 
Q 28.375 48.1875 33.59375 48.1875 
Q 44.578125 48.1875 50.953125 41.515625 
Q 57.328125 34.859375 57.328125 23.390625 
Q 57.328125 12.15625 50.6875 5.359375 
Q 44.046875 -1.421875 33.015625 -1.421875 
Q 20.359375 -1.421875 13.671875 8.265625 
Q 6.984375 17.96875 6.984375 36.375 
Q 6.984375 53.65625 15.1875 63.9375 
Q 23.390625 74.21875 37.203125 74.21875 
Q 40.921875 74.21875 44.703125 73.484375 
Q 48.484375 72.75 52.59375 71.296875 
z
" id="DejaVuSans-54"/>
       </defs>
       <use xlink:href="#DejaVuSans-48"/>
       <use x="63.623047" xlink:href="#DejaVuSans-46"/>
       <use x="95.410156" xlink:href="#DejaVuSans-54"/>
      </g>
     </g>
    </g>
    <g id="xtick_5">
     <g id="line2d_9">
      <path clip-path="url(#pf9353a817b)" d="M 366.912 338.9832 
L 366.912 45.7056 
" style="fill:none;stroke:#b0b0b0;stroke-linecap:square;stroke-width:0.8;"/>
     </g>
     <g id="line2d_10">
      <g>
       <use style="stroke:#000000;stroke-width:0.8;" x="366.912" xlink:href="#m7220f156b1" y="338.9832"/>
      </g>
     </g>
     <g id="text_5">
      <!-- 0.8 -->
      <g transform="translate(358.960437 353.581637)scale(0.1 -0.1)">
       <defs>
        <path d="M 31.78125 34.625 
Q 24.75 34.625 20.71875 30.859375 
Q 16.703125 27.09375 16.703125 20.515625 
Q 16.703125 13.921875 20.71875 10.15625 
Q 24.75 6.390625 31.78125 6.390625 
Q 38.8125 6.390625 42.859375 10.171875 
Q 46.921875 13.96875 46.921875 20.515625 
Q 46.921875 27.09375 42.890625 30.859375 
Q 38.875 34.625 31.78125 34.625 
z
M 21.921875 38.8125 
Q 15.578125 40.375 12.03125 44.71875 
Q 8.5 49.078125 8.5 55.328125 
Q 8.5 64.0625 14.71875 69.140625 
Q 20.953125 74.21875 31.78125 74.21875 
Q 42.671875 74.21875 48.875 69.140625 
Q 55.078125 64.0625 55.078125 55.328125 
Q 55.078125 49.078125 51.53125 44.71875 
Q 48 40.375 41.703125 38.8125 
Q 48.828125 37.15625 52.796875 32.3125 
Q 56.78125 27.484375 56.78125 20.515625 
Q 56.78125 9.90625 50.3125 4.234375 
Q 43.84375 -1.421875 31.78125 -1.421875 
Q 19.734375 -1.421875 13.25 4.234375 
Q 6.78125 9.90625 6.78125 20.515625 
Q 6.78125 27.484375 10.78125 32.3125 
Q 14.796875 37.15625 21.921875 38.8125 
z
M 18.3125 54.390625 
Q 18.3125 48.734375 21.84375 45.5625 
Q 25.390625 42.390625 31.78125 42.390625 
Q 38.140625 42.390625 41.71875 45.5625 
Q 45.3125 48.734375 45.3125 54.390625 
Q 45.3125 60.0625 41.71875 63.234375 
Q 38.140625 66.40625 31.78125 66.40625 
Q 25.390625 66.40625 21.84375 63.234375 
Q 18.3125 60.0625 18.3125 54.390625 
z
" id="DejaVuSans-56"/>
       </defs>
       <use xlink:href="#DejaVuSans-48"/>
       <use x="63.623047" xlink:href="#DejaVuSans-46"/>
       <use x="95.410156" xlink:href="#DejaVuSans-56"/>
      </g>
     </g>
    </g>
    <g id="xtick_6">
     <g id="line2d_11">
      <path clip-path="url(#pf9353a817b)" d="M 438.336 338.9832 
L 438.336 45.7056 
" style="fill:none;stroke:#b0b0b0;stroke-linecap:square;stroke-width:0.8;"/>
     </g>
     <g id="line2d_12">
      <g>
       <use style="stroke:#000000;stroke-width:0.8;" x="438.336" xlink:href="#m7220f156b1" y="338.9832"/>
      </g>
     </g>
     <g id="text_6">
      <!-- 1.0 -->
      <g transform="translate(430.384437 353.581637)scale(0.1 -0.1)">
       <defs>
        <path d="M 12.40625 8.296875 
L 28.515625 8.296875 
L 28.515625 63.921875 
L 10.984375 60.40625 
L 10.984375 69.390625 
L 28.421875 72.90625 
L 38.28125 72.90625 
L 38.28125 8.296875 
L 54.390625 8.296875 
L 54.390625 0 
L 12.40625 0 
z
" id="DejaVuSans-49"/>
       </defs>
       <use xlink:href="#DejaVuSans-49"/>
       <use x="63.623047" xlink:href="#DejaVuSans-46"/>
       <use x="95.410156" xlink:href="#DejaVuSans-48"/>
      </g>
     </g>
    </g>
    <g id="text_7">
     <!-- N [number of time steps] -->
     <g transform="translate(196.727563 367.259763)scale(0.1 -0.1)">
      <defs>
       <path d="M 9.8125 72.90625 
L 23.09375 72.90625 
L 55.421875 11.921875 
L 55.421875 72.90625 
L 64.984375 72.90625 
L 64.984375 0 
L 51.703125 0 
L 19.390625 60.984375 
L 19.390625 0 
L 9.8125 0 
z
" id="DejaVuSans-78"/>
       <path id="DejaVuSans-32"/>
       <path d="M 8.59375 75.984375 
L 29.296875 75.984375 
L 29.296875 69 
L 17.578125 69 
L 17.578125 -6.203125 
L 29.296875 -6.203125 
L 29.296875 -13.1875 
L 8.59375 -13.1875 
z
" id="DejaVuSans-91"/>
       <path d="M 54.890625 33.015625 
L 54.890625 0 
L 45.90625 0 
L 45.90625 32.71875 
Q 45.90625 40.484375 42.875 44.328125 
Q 39.84375 48.1875 33.796875 48.1875 
Q 26.515625 48.1875 22.3125 43.546875 
Q 18.109375 38.921875 18.109375 30.90625 
L 18.109375 0 
L 9.078125 0 
L 9.078125 54.6875 
L 18.109375 54.6875 
L 18.109375 46.1875 
Q 21.34375 51.125 25.703125 53.5625 
Q 30.078125 56 35.796875 56 
Q 45.21875 56 50.046875 50.171875 
Q 54.890625 44.34375 54.890625 33.015625 
z
" id="DejaVuSans-110"/>
       <path d="M 8.5 21.578125 
L 8.5 54.6875 
L 17.484375 54.6875 
L 17.484375 21.921875 
Q 17.484375 14.15625 20.5 10.265625 
Q 23.53125 6.390625 29.59375 6.390625 
Q 36.859375 6.390625 41.078125 11.03125 
Q 45.3125 15.671875 45.3125 23.6875 
L 45.3125 54.6875 
L 54.296875 54.6875 
L 54.296875 0 
L 45.3125 0 
L 45.3125 8.40625 
Q 42.046875 3.421875 37.71875 1 
Q 33.40625 -1.421875 27.6875 -1.421875 
Q 18.265625 -1.421875 13.375 4.4375 
Q 8.5 10.296875 8.5 21.578125 
z
M 31.109375 56 
z
" id="DejaVuSans-117"/>
       <path d="M 52 44.1875 
Q 55.375 50.25 60.0625 53.125 
Q 64.75 56 71.09375 56 
Q 79.640625 56 84.28125 50.015625 
Q 88.921875 44.046875 88.921875 33.015625 
L 88.921875 0 
L 79.890625 0 
L 79.890625 32.71875 
Q 79.890625 40.578125 77.09375 44.375 
Q 74.3125 48.1875 68.609375 48.1875 
Q 61.625 48.1875 57.5625 43.546875 
Q 53.515625 38.921875 53.515625 30.90625 
L 53.515625 0 
L 44.484375 0 
L 44.484375 32.71875 
Q 44.484375 40.625 41.703125 44.40625 
Q 38.921875 48.1875 33.109375 48.1875 
Q 26.21875 48.1875 22.15625 43.53125 
Q 18.109375 38.875 18.109375 30.90625 
L 18.109375 0 
L 9.078125 0 
L 9.078125 54.6875 
L 18.109375 54.6875 
L 18.109375 46.1875 
Q 21.1875 51.21875 25.484375 53.609375 
Q 29.78125 56 35.6875 56 
Q 41.65625 56 45.828125 52.96875 
Q 50 49.953125 52 44.1875 
z
" id="DejaVuSans-109"/>
       <path d="M 48.6875 27.296875 
Q 48.6875 37.203125 44.609375 42.84375 
Q 40.53125 48.484375 33.40625 48.484375 
Q 26.265625 48.484375 22.1875 42.84375 
Q 18.109375 37.203125 18.109375 27.296875 
Q 18.109375 17.390625 22.1875 11.75 
Q 26.265625 6.109375 33.40625 6.109375 
Q 40.53125 6.109375 44.609375 11.75 
Q 48.6875 17.390625 48.6875 27.296875 
z
M 18.109375 46.390625 
Q 20.953125 51.265625 25.265625 53.625 
Q 29.59375 56 35.59375 56 
Q 45.5625 56 51.78125 48.09375 
Q 58.015625 40.1875 58.015625 27.296875 
Q 58.015625 14.40625 51.78125 6.484375 
Q 45.5625 -1.421875 35.59375 -1.421875 
Q 29.59375 -1.421875 25.265625 0.953125 
Q 20.953125 3.328125 18.109375 8.203125 
L 18.109375 0 
L 9.078125 0 
L 9.078125 75.984375 
L 18.109375 75.984375 
z
" id="DejaVuSans-98"/>
       <path d="M 56.203125 29.59375 
L 56.203125 25.203125 
L 14.890625 25.203125 
Q 15.484375 15.921875 20.484375 11.0625 
Q 25.484375 6.203125 34.421875 6.203125 
Q 39.59375 6.203125 44.453125 7.46875 
Q 49.3125 8.734375 54.109375 11.28125 
L 54.109375 2.78125 
Q 49.265625 0.734375 44.1875 -0.34375 
Q 39.109375 -1.421875 33.890625 -1.421875 
Q 20.796875 -1.421875 13.15625 6.1875 
Q 5.515625 13.8125 5.515625 26.8125 
Q 5.515625 40.234375 12.765625 48.109375 
Q 20.015625 56 32.328125 56 
Q 43.359375 56 49.78125 48.890625 
Q 56.203125 41.796875 56.203125 29.59375 
z
M 47.21875 32.234375 
Q 47.125 39.59375 43.09375 43.984375 
Q 39.0625 48.390625 32.421875 48.390625 
Q 24.90625 48.390625 20.390625 44.140625 
Q 15.875 39.890625 15.1875 32.171875 
z
" id="DejaVuSans-101"/>
       <path d="M 41.109375 46.296875 
Q 39.59375 47.171875 37.8125 47.578125 
Q 36.03125 48 33.890625 48 
Q 26.265625 48 22.1875 43.046875 
Q 18.109375 38.09375 18.109375 28.8125 
L 18.109375 0 
L 9.078125 0 
L 9.078125 54.6875 
L 18.109375 54.6875 
L 18.109375 46.1875 
Q 20.953125 51.171875 25.484375 53.578125 
Q 30.03125 56 36.53125 56 
Q 37.453125 56 38.578125 55.875 
Q 39.703125 55.765625 41.0625 55.515625 
z
" id="DejaVuSans-114"/>
       <path d="M 30.609375 48.390625 
Q 23.390625 48.390625 19.1875 42.75 
Q 14.984375 37.109375 14.984375 27.296875 
Q 14.984375 17.484375 19.15625 11.84375 
Q 23.34375 6.203125 30.609375 6.203125 
Q 37.796875 6.203125 41.984375 11.859375 
Q 46.1875 17.53125 46.1875 27.296875 
Q 46.1875 37.015625 41.984375 42.703125 
Q 37.796875 48.390625 30.609375 48.390625 
z
M 30.609375 56 
Q 42.328125 56 49.015625 48.375 
Q 55.71875 40.765625 55.71875 27.296875 
Q 55.71875 13.875 49.015625 6.21875 
Q 42.328125 -1.421875 30.609375 -1.421875 
Q 18.84375 -1.421875 12.171875 6.21875 
Q 5.515625 13.875 5.515625 27.296875 
Q 5.515625 40.765625 12.171875 48.375 
Q 18.84375 56 30.609375 56 
z
" id="DejaVuSans-111"/>
       <path d="M 37.109375 75.984375 
L 37.109375 68.5 
L 28.515625 68.5 
Q 23.6875 68.5 21.796875 66.546875 
Q 19.921875 64.59375 19.921875 59.515625 
L 19.921875 54.6875 
L 34.71875 54.6875 
L 34.71875 47.703125 
L 19.921875 47.703125 
L 19.921875 0 
L 10.890625 0 
L 10.890625 47.703125 
L 2.296875 47.703125 
L 2.296875 54.6875 
L 10.890625 54.6875 
L 10.890625 58.5 
Q 10.890625 67.625 15.140625 71.796875 
Q 19.390625 75.984375 28.609375 75.984375 
z
" id="DejaVuSans-102"/>
       <path d="M 18.3125 70.21875 
L 18.3125 54.6875 
L 36.8125 54.6875 
L 36.8125 47.703125 
L 18.3125 47.703125 
L 18.3125 18.015625 
Q 18.3125 11.328125 20.140625 9.421875 
Q 21.96875 7.515625 27.59375 7.515625 
L 36.8125 7.515625 
L 36.8125 0 
L 27.59375 0 
Q 17.1875 0 13.234375 3.875 
Q 9.28125 7.765625 9.28125 18.015625 
L 9.28125 47.703125 
L 2.6875 47.703125 
L 2.6875 54.6875 
L 9.28125 54.6875 
L 9.28125 70.21875 
z
" id="DejaVuSans-116"/>
       <path d="M 9.421875 54.6875 
L 18.40625 54.6875 
L 18.40625 0 
L 9.421875 0 
z
M 9.421875 75.984375 
L 18.40625 75.984375 
L 18.40625 64.59375 
L 9.421875 64.59375 
z
" id="DejaVuSans-105"/>
       <path d="M 44.28125 53.078125 
L 44.28125 44.578125 
Q 40.484375 46.53125 36.375 47.5 
Q 32.28125 48.484375 27.875 48.484375 
Q 21.1875 48.484375 17.84375 46.4375 
Q 14.5 44.390625 14.5 40.28125 
Q 14.5 37.15625 16.890625 35.375 
Q 19.28125 33.59375 26.515625 31.984375 
L 29.59375 31.296875 
Q 39.15625 29.25 43.1875 25.515625 
Q 47.21875 21.78125 47.21875 15.09375 
Q 47.21875 7.46875 41.1875 3.015625 
Q 35.15625 -1.421875 24.609375 -1.421875 
Q 20.21875 -1.421875 15.453125 -0.5625 
Q 10.6875 0.296875 5.421875 2 
L 5.421875 11.28125 
Q 10.40625 8.6875 15.234375 7.390625 
Q 20.0625 6.109375 24.8125 6.109375 
Q 31.15625 6.109375 34.5625 8.28125 
Q 37.984375 10.453125 37.984375 14.40625 
Q 37.984375 18.0625 35.515625 20.015625 
Q 33.0625 21.96875 24.703125 23.78125 
L 21.578125 24.515625 
Q 13.234375 26.265625 9.515625 29.90625 
Q 5.8125 33.546875 5.8125 39.890625 
Q 5.8125 47.609375 11.28125 51.796875 
Q 16.75 56 26.8125 56 
Q 31.78125 56 36.171875 55.265625 
Q 40.578125 54.546875 44.28125 53.078125 
z
" id="DejaVuSans-115"/>
       <path d="M 18.109375 8.203125 
L 18.109375 -20.796875 
L 9.078125 -20.796875 
L 9.078125 54.6875 
L 18.109375 54.6875 
L 18.109375 46.390625 
Q 20.953125 51.265625 25.265625 53.625 
Q 29.59375 56 35.59375 56 
Q 45.5625 56 51.78125 48.09375 
Q 58.015625 40.1875 58.015625 27.296875 
Q 58.015625 14.40625 51.78125 6.484375 
Q 45.5625 -1.421875 35.59375 -1.421875 
Q 29.59375 -1.421875 25.265625 0.953125 
Q 20.953125 3.328125 18.109375 8.203125 
z
M 48.6875 27.296875 
Q 48.6875 37.203125 44.609375 42.84375 
Q 40.53125 48.484375 33.40625 48.484375 
Q 26.265625 48.484375 22.1875 42.84375 
Q 18.109375 37.203125 18.109375 27.296875 
Q 18.109375 17.390625 22.1875 11.75 
Q 26.265625 6.109375 33.40625 6.109375 
Q 40.53125 6.109375 44.609375 11.75 
Q 48.6875 17.390625 48.6875 27.296875 
z
" id="DejaVuSans-112"/>
       <path d="M 30.421875 75.984375 
L 30.421875 -13.1875 
L 9.71875 -13.1875 
L 9.71875 -6.203125 
L 21.390625 -6.203125 
L 21.390625 69 
L 9.71875 69 
L 9.71875 75.984375 
z
" id="DejaVuSans-93"/>
      </defs>
      <use xlink:href="#DejaVuSans-78"/>
      <use x="74.804688" xlink:href="#DejaVuSans-32"/>
      <use x="106.591797" xlink:href="#DejaVuSans-91"/>
      <use x="145.605469" xlink:href="#DejaVuSans-110"/>
      <use x="208.984375" xlink:href="#DejaVuSans-117"/>
      <use x="272.363281" xlink:href="#DejaVuSans-109"/>
      <use x="369.775391" xlink:href="#DejaVuSans-98"/>
      <use x="433.251953" xlink:href="#DejaVuSans-101"/>
      <use x="494.775391" xlink:href="#DejaVuSans-114"/>
      <use x="535.888672" xlink:href="#DejaVuSans-32"/>
      <use x="567.675781" xlink:href="#DejaVuSans-111"/>
      <use x="628.857422" xlink:href="#DejaVuSans-102"/>
      <use x="664.0625" xlink:href="#DejaVuSans-32"/>
      <use x="695.849609" xlink:href="#DejaVuSans-116"/>
      <use x="735.058594" xlink:href="#DejaVuSans-105"/>
      <use x="762.841797" xlink:href="#DejaVuSans-109"/>
      <use x="860.253906" xlink:href="#DejaVuSans-101"/>
      <use x="921.777344" xlink:href="#DejaVuSans-32"/>
      <use x="953.564453" xlink:href="#DejaVuSans-115"/>
      <use x="1005.664062" xlink:href="#DejaVuSans-116"/>
      <use x="1044.873047" xlink:href="#DejaVuSans-101"/>
      <use x="1106.396484" xlink:href="#DejaVuSans-112"/>
      <use x="1169.873047" xlink:href="#DejaVuSans-115"/>
      <use x="1221.972656" xlink:href="#DejaVuSans-93"/>
     </g>
    </g>
    <g id="text_8">
     <!-- 1e7 -->
     <g transform="translate(437.313875 366.259763)scale(0.1 -0.1)">
      <defs>
       <path d="M 8.203125 72.90625 
L 55.078125 72.90625 
L 55.078125 68.703125 
L 28.609375 0 
L 18.3125 0 
L 43.21875 64.59375 
L 8.203125 64.59375 
z
" id="DejaVuSans-55"/>
      </defs>
      <use xlink:href="#DejaVuSans-49"/>
      <use x="63.623047" xlink:href="#DejaVuSans-101"/>
      <use x="125.146484" xlink:href="#DejaVuSans-55"/>
     </g>
    </g>
   </g>
   <g id="matplotlib.axis_2">
    <g id="ytick_1">
     <g id="line2d_13">
      <path clip-path="url(#pf9353a817b)" d="M 63.36 301.779945 
L 456.192 301.779945 
" style="fill:none;stroke:#b0b0b0;stroke-linecap:square;stroke-width:0.8;"/>
     </g>
     <g id="line2d_14">
      <defs>
       <path d="M 0 0 
L -3.5 0 
" id="mbc74636f88" style="stroke:#000000;stroke-width:0.8;"/>
      </defs>
      <g>
       <use style="stroke:#000000;stroke-width:0.8;" x="63.36" xlink:href="#mbc74636f88" y="301.779945"/>
      </g>
     </g>
     <g id="text_9">
      <!-- −6 -->
      <g transform="translate(41.617812 305.579163)scale(0.1 -0.1)">
       <defs>
        <path d="M 10.59375 35.5 
L 73.1875 35.5 
L 73.1875 27.203125 
L 10.59375 27.203125 
z
" id="DejaVuSans-8722"/>
       </defs>
       <use xlink:href="#DejaVuSans-8722"/>
       <use x="83.789062" xlink:href="#DejaVuSans-54"/>
      </g>
     </g>
    </g>
    <g id="ytick_2">
     <g id="line2d_15">
      <path clip-path="url(#pf9353a817b)" d="M 63.36 261.985413 
L 456.192 261.985413 
" style="fill:none;stroke:#b0b0b0;stroke-linecap:square;stroke-width:0.8;"/>
     </g>
     <g id="line2d_16">
      <g>
       <use style="stroke:#000000;stroke-width:0.8;" x="63.36" xlink:href="#mbc74636f88" y="261.985413"/>
      </g>
     </g>
     <g id="text_10">
      <!-- −4 -->
      <g transform="translate(41.617812 265.784631)scale(0.1 -0.1)">
       <use xlink:href="#DejaVuSans-8722"/>
       <use x="83.789062" xlink:href="#DejaVuSans-52"/>
      </g>
     </g>
    </g>
    <g id="ytick_3">
     <g id="line2d_17">
      <path clip-path="url(#pf9353a817b)" d="M 63.36 222.190881 
L 456.192 222.190881 
" style="fill:none;stroke:#b0b0b0;stroke-linecap:square;stroke-width:0.8;"/>
     </g>
     <g id="line2d_18">
      <g>
       <use style="stroke:#000000;stroke-width:0.8;" x="63.36" xlink:href="#mbc74636f88" y="222.190881"/>
      </g>
     </g>
     <g id="text_11">
      <!-- −2 -->
      <g transform="translate(41.617812 225.990099)scale(0.1 -0.1)">
       <use xlink:href="#DejaVuSans-8722"/>
       <use x="83.789062" xlink:href="#DejaVuSans-50"/>
      </g>
     </g>
    </g>
    <g id="ytick_4">
     <g id="line2d_19">
      <path clip-path="url(#pf9353a817b)" d="M 63.36 182.396348 
L 456.192 182.396348 
" style="fill:none;stroke:#b0b0b0;stroke-linecap:square;stroke-width:0.8;"/>
     </g>
     <g id="line2d_20">
      <g>
       <use style="stroke:#000000;stroke-width:0.8;" x="63.36" xlink:href="#mbc74636f88" y="182.396348"/>
      </g>
     </g>
     <g id="text_12">
      <!-- 0 -->
      <g transform="translate(49.9975 186.195567)scale(0.1 -0.1)">
       <use xlink:href="#DejaVuSans-48"/>
      </g>
     </g>
    </g>
    <g id="ytick_5">
     <g id="line2d_21">
      <path clip-path="url(#pf9353a817b)" d="M 63.36 142.601816 
L 456.192 142.601816 
" style="fill:none;stroke:#b0b0b0;stroke-linecap:square;stroke-width:0.8;"/>
     </g>
     <g id="line2d_22">
      <g>
       <use style="stroke:#000000;stroke-width:0.8;" x="63.36" xlink:href="#mbc74636f88" y="142.601816"/>
      </g>
     </g>
     <g id="text_13">
      <!-- 2 -->
      <g transform="translate(49.9975 146.401035)scale(0.1 -0.1)">
       <use xlink:href="#DejaVuSans-50"/>
      </g>
     </g>
    </g>
    <g id="ytick_6">
     <g id="line2d_23">
      <path clip-path="url(#pf9353a817b)" d="M 63.36 102.807284 
L 456.192 102.807284 
" style="fill:none;stroke:#b0b0b0;stroke-linecap:square;stroke-width:0.8;"/>
     </g>
     <g id="line2d_24">
      <g>
       <use style="stroke:#000000;stroke-width:0.8;" x="63.36" xlink:href="#mbc74636f88" y="102.807284"/>
      </g>
     </g>
     <g id="text_14">
      <!-- 4 -->
      <g transform="translate(49.9975 106.606503)scale(0.1 -0.1)">
       <use xlink:href="#DejaVuSans-52"/>
      </g>
     </g>
    </g>
    <g id="ytick_7">
     <g id="line2d_25">
      <path clip-path="url(#pf9353a817b)" d="M 63.36 63.012752 
L 456.192 63.012752 
" style="fill:none;stroke:#b0b0b0;stroke-linecap:square;stroke-width:0.8;"/>
     </g>
     <g id="line2d_26">
      <g>
       <use style="stroke:#000000;stroke-width:0.8;" x="63.36" xlink:href="#mbc74636f88" y="63.012752"/>
      </g>
     </g>
     <g id="text_15">
      <!-- 6 -->
      <g transform="translate(49.9975 66.811971)scale(0.1 -0.1)">
       <use xlink:href="#DejaVuSans-54"/>
      </g>
     </g>
    </g>
    <g id="text_16">
     <!-- Energy $[E_{tot}/max(|E_{tot}|)]$ -->
     <g transform="translate(35.217812 251.6444)rotate(-90)scale(0.1 -0.1)">
      <defs>
       <path d="M 9.8125 72.90625 
L 55.90625 72.90625 
L 55.90625 64.59375 
L 19.671875 64.59375 
L 19.671875 43.015625 
L 54.390625 43.015625 
L 54.390625 34.71875 
L 19.671875 34.71875 
L 19.671875 8.296875 
L 56.78125 8.296875 
L 56.78125 0 
L 9.8125 0 
z
" id="DejaVuSans-69"/>
       <path d="M 45.40625 27.984375 
Q 45.40625 37.75 41.375 43.109375 
Q 37.359375 48.484375 30.078125 48.484375 
Q 22.859375 48.484375 18.828125 43.109375 
Q 14.796875 37.75 14.796875 27.984375 
Q 14.796875 18.265625 18.828125 12.890625 
Q 22.859375 7.515625 30.078125 7.515625 
Q 37.359375 7.515625 41.375 12.890625 
Q 45.40625 18.265625 45.40625 27.984375 
z
M 54.390625 6.78125 
Q 54.390625 -7.171875 48.1875 -13.984375 
Q 42 -20.796875 29.203125 -20.796875 
Q 24.46875 -20.796875 20.265625 -20.09375 
Q 16.0625 -19.390625 12.109375 -17.921875 
L 12.109375 -9.1875 
Q 16.0625 -11.328125 19.921875 -12.34375 
Q 23.78125 -13.375 27.78125 -13.375 
Q 36.625 -13.375 41.015625 -8.765625 
Q 45.40625 -4.15625 45.40625 5.171875 
L 45.40625 9.625 
Q 42.625 4.78125 38.28125 2.390625 
Q 33.9375 0 27.875 0 
Q 17.828125 0 11.671875 7.65625 
Q 5.515625 15.328125 5.515625 27.984375 
Q 5.515625 40.671875 11.671875 48.328125 
Q 17.828125 56 27.875 56 
Q 33.9375 56 38.28125 53.609375 
Q 42.625 51.21875 45.40625 46.390625 
L 45.40625 54.6875 
L 54.390625 54.6875 
z
" id="DejaVuSans-103"/>
       <path d="M 32.171875 -5.078125 
Q 28.375 -14.84375 24.75 -17.8125 
Q 21.140625 -20.796875 15.09375 -20.796875 
L 7.90625 -20.796875 
L 7.90625 -13.28125 
L 13.1875 -13.28125 
Q 16.890625 -13.28125 18.9375 -11.515625 
Q 21 -9.765625 23.484375 -3.21875 
L 25.09375 0.875 
L 2.984375 54.6875 
L 12.5 54.6875 
L 29.59375 11.921875 
L 46.6875 54.6875 
L 56.203125 54.6875 
z
" id="DejaVuSans-121"/>
       <path d="M 16.890625 72.90625 
L 62.984375 72.90625 
L 61.375 64.59375 
L 25.09375 64.59375 
L 20.90625 43.015625 
L 55.71875 43.015625 
L 54.109375 34.71875 
L 19.28125 34.71875 
L 14.203125 8.296875 
L 51.3125 8.296875 
L 49.703125 0 
L 2.6875 0 
z
" id="DejaVuSans-Oblique-69"/>
       <path d="M 42.28125 54.6875 
L 40.921875 47.703125 
L 23 47.703125 
L 17.1875 18.015625 
Q 16.890625 16.359375 16.75 15.234375 
Q 16.609375 14.109375 16.609375 13.484375 
Q 16.609375 10.359375 18.484375 8.9375 
Q 20.359375 7.515625 24.515625 7.515625 
L 33.59375 7.515625 
L 32.078125 0 
L 23.484375 0 
Q 15.484375 0 11.546875 3.125 
Q 7.625 6.25 7.625 12.59375 
Q 7.625 13.71875 7.765625 15.0625 
Q 7.90625 16.40625 8.203125 18.015625 
L 14.015625 47.703125 
L 6.390625 47.703125 
L 7.8125 54.6875 
L 15.28125 54.6875 
L 18.3125 70.21875 
L 27.296875 70.21875 
L 24.3125 54.6875 
z
" id="DejaVuSans-Oblique-116"/>
       <path d="M 25.390625 -1.421875 
Q 15.765625 -1.421875 10.171875 4.515625 
Q 4.59375 10.453125 4.59375 20.703125 
Q 4.59375 26.65625 6.515625 32.828125 
Q 8.453125 39.015625 11.53125 43.21875 
Q 16.359375 49.75 22.3125 52.875 
Q 28.265625 56 35.796875 56 
Q 45.125 56 50.859375 50.1875 
Q 56.59375 44.390625 56.59375 35.015625 
Q 56.59375 28.515625 54.6875 22.0625 
Q 52.78125 15.625 49.703125 11.375 
Q 44.921875 4.828125 38.96875 1.703125 
Q 33.015625 -1.421875 25.390625 -1.421875 
z
M 13.921875 21 
Q 13.921875 13.578125 17.015625 9.890625 
Q 20.125 6.203125 26.421875 6.203125 
Q 35.453125 6.203125 41.375 14.078125 
Q 47.3125 21.96875 47.3125 34.078125 
Q 47.3125 41.15625 44.140625 44.765625 
Q 40.96875 48.390625 34.8125 48.390625 
Q 29.734375 48.390625 25.78125 46.015625 
Q 21.828125 43.65625 18.703125 38.8125 
Q 16.40625 35.203125 15.15625 30.5625 
Q 13.921875 25.921875 13.921875 21 
z
" id="DejaVuSans-Oblique-111"/>
       <path d="M 25.390625 72.90625 
L 33.6875 72.90625 
L 8.296875 -9.28125 
L 0 -9.28125 
z
" id="DejaVuSans-47"/>
       <path d="M 89.796875 33.015625 
L 83.40625 0 
L 74.421875 0 
L 80.71875 32.71875 
Q 81.109375 34.8125 81.296875 36.328125 
Q 81.5 37.84375 81.5 38.921875 
Q 81.5 43.3125 79.046875 45.75 
Q 76.609375 48.1875 72.21875 48.1875 
Q 65.671875 48.1875 60.546875 43.28125 
Q 55.421875 38.375 53.90625 30.515625 
L 47.90625 0 
L 38.921875 0 
L 45.3125 32.71875 
Q 45.703125 34.515625 45.890625 36.046875 
Q 46.09375 37.59375 46.09375 38.8125 
Q 46.09375 43.265625 43.65625 45.71875 
Q 41.21875 48.1875 36.921875 48.1875 
Q 30.28125 48.1875 25.140625 43.28125 
Q 20.015625 38.375 18.5 30.515625 
L 12.5 0 
L 3.515625 0 
L 14.203125 54.6875 
L 23.1875 54.6875 
L 21.484375 46.1875 
Q 25.140625 50.984375 30.046875 53.484375 
Q 34.96875 56 40.578125 56 
Q 46.53125 56 50.359375 52.875 
Q 54.203125 49.75 54.984375 44.1875 
Q 59.078125 49.953125 64.46875 52.96875 
Q 69.875 56 75.875 56 
Q 82.90625 56 86.734375 51.953125 
Q 90.578125 47.90625 90.578125 40.484375 
Q 90.578125 38.875 90.375 36.9375 
Q 90.1875 35.015625 89.796875 33.015625 
z
" id="DejaVuSans-Oblique-109"/>
       <path d="M 53.71875 31.203125 
L 47.609375 0 
L 38.625 0 
L 40.28125 8.296875 
Q 36.328125 3.421875 31.265625 1 
Q 26.21875 -1.421875 20.015625 -1.421875 
Q 13.03125 -1.421875 8.5625 2.84375 
Q 4.109375 7.125 4.109375 13.8125 
Q 4.109375 23.390625 11.75 28.953125 
Q 19.390625 34.515625 32.8125 34.515625 
L 45.3125 34.515625 
L 45.796875 36.921875 
Q 45.90625 37.3125 45.953125 37.765625 
Q 46 38.234375 46 39.203125 
Q 46 43.5625 42.453125 45.96875 
Q 38.921875 48.390625 32.515625 48.390625 
Q 28.125 48.390625 23.5 47.265625 
Q 18.890625 46.140625 14.015625 43.890625 
L 15.578125 52.203125 
Q 20.65625 54.109375 25.515625 55.046875 
Q 30.375 56 34.90625 56 
Q 44.578125 56 49.625 51.796875 
Q 54.6875 47.609375 54.6875 39.59375 
Q 54.6875 37.984375 54.4375 35.8125 
Q 54.203125 33.640625 53.71875 31.203125 
z
M 44 27.484375 
L 35.015625 27.484375 
Q 23.96875 27.484375 18.671875 24.53125 
Q 13.375 21.578125 13.375 15.375 
Q 13.375 11.078125 16.078125 8.640625 
Q 18.796875 6.203125 23.578125 6.203125 
Q 30.90625 6.203125 36.375 11.453125 
Q 41.84375 16.703125 43.609375 25.484375 
z
" id="DejaVuSans-Oblique-97"/>
       <path d="M 60.015625 54.6875 
L 34.90625 27.875 
L 50.296875 0 
L 39.984375 0 
L 28.421875 21.6875 
L 8.296875 0 
L -2.59375 0 
L 24.3125 28.8125 
L 10.015625 54.6875 
L 20.3125 54.6875 
L 30.8125 34.90625 
L 49.125 54.6875 
z
" id="DejaVuSans-Oblique-120"/>
       <path d="M 31 75.875 
Q 24.46875 64.65625 21.28125 53.65625 
Q 18.109375 42.671875 18.109375 31.390625 
Q 18.109375 20.125 21.3125 9.0625 
Q 24.515625 -2 31 -13.1875 
L 23.1875 -13.1875 
Q 15.875 -1.703125 12.234375 9.375 
Q 8.59375 20.453125 8.59375 31.390625 
Q 8.59375 42.28125 12.203125 53.3125 
Q 15.828125 64.359375 23.1875 75.875 
z
" id="DejaVuSans-40"/>
       <path d="M 21 76.421875 
L 21 -23.578125 
L 12.703125 -23.578125 
L 12.703125 76.421875 
z
" id="DejaVuSans-124"/>
       <path d="M 8.015625 75.875 
L 15.828125 75.875 
Q 23.140625 64.359375 26.78125 53.3125 
Q 30.421875 42.28125 30.421875 31.390625 
Q 30.421875 20.453125 26.78125 9.375 
Q 23.140625 -1.703125 15.828125 -13.1875 
L 8.015625 -13.1875 
Q 14.5 -2 17.703125 9.0625 
Q 20.90625 20.125 20.90625 31.390625 
Q 20.90625 42.671875 17.703125 53.65625 
Q 14.5 64.65625 8.015625 75.875 
z
" id="DejaVuSans-41"/>
      </defs>
      <use transform="translate(0 0.578125)" xlink:href="#DejaVuSans-69"/>
      <use transform="translate(63.183594 0.578125)" xlink:href="#DejaVuSans-110"/>
      <use transform="translate(126.5625 0.578125)" xlink:href="#DejaVuSans-101"/>
      <use transform="translate(188.085938 0.578125)" xlink:href="#DejaVuSans-114"/>
      <use transform="translate(229.199219 0.578125)" xlink:href="#DejaVuSans-103"/>
      <use transform="translate(292.675781 0.578125)" xlink:href="#DejaVuSans-121"/>
      <use transform="translate(351.855469 0.578125)" xlink:href="#DejaVuSans-32"/>
      <use transform="translate(383.642578 0.578125)" xlink:href="#DejaVuSans-91"/>
      <use transform="translate(422.65625 0.578125)" xlink:href="#DejaVuSans-Oblique-69"/>
      <use transform="translate(485.839844 -15.828125)scale(0.7)" xlink:href="#DejaVuSans-Oblique-116"/>
      <use transform="translate(513.286133 -15.828125)scale(0.7)" xlink:href="#DejaVuSans-Oblique-111"/>
      <use transform="translate(556.113281 -15.828125)scale(0.7)" xlink:href="#DejaVuSans-Oblique-116"/>
      <use transform="translate(586.293945 0.578125)" xlink:href="#DejaVuSans-47"/>
      <use transform="translate(619.985352 0.578125)" xlink:href="#DejaVuSans-Oblique-109"/>
      <use transform="translate(717.397461 0.578125)" xlink:href="#DejaVuSans-Oblique-97"/>
      <use transform="translate(778.676758 0.578125)" xlink:href="#DejaVuSans-Oblique-120"/>
      <use transform="translate(837.856445 0.578125)" xlink:href="#DejaVuSans-40"/>
      <use transform="translate(876.870117 0.578125)" xlink:href="#DejaVuSans-124"/>
      <use transform="translate(910.561523 0.578125)" xlink:href="#DejaVuSans-Oblique-69"/>
      <use transform="translate(973.745117 -15.828125)scale(0.7)" xlink:href="#DejaVuSans-Oblique-116"/>
      <use transform="translate(1001.191406 -15.828125)scale(0.7)" xlink:href="#DejaVuSans-Oblique-111"/>
      <use transform="translate(1044.018555 -15.828125)scale(0.7)" xlink:href="#DejaVuSans-Oblique-116"/>
      <use transform="translate(1074.199219 0.578125)" xlink:href="#DejaVuSans-124"/>
      <use transform="translate(1107.890625 0.578125)" xlink:href="#DejaVuSans-41"/>
      <use transform="translate(1146.904297 0.578125)" xlink:href="#DejaVuSans-93"/>
     </g>
    </g>
   </g>
   <g id="line2d_27">
    <path clip-path="url(#pf9353a817b)" d="M 81.216 167.860103 
L 81.85888 167.752069 
L 82.501761 167.423782 
L 83.180356 166.82384 
L 83.894668 165.880997 
L 84.644695 164.49191 
L 85.394722 162.604713 
L 86.144749 160.08195 
L 86.894776 156.71306 
L 87.609087 152.418499 
L 88.287683 146.944444 
L 88.930563 139.948072 
L 89.573444 130.373506 
L 90.180608 117.919593 
L 90.823489 99.947319 
L 92.144965 60.233802 
L 92.359258 59.04299 
L 92.466405 59.486056 
L 92.644983 61.704874 
L 92.966423 69.499424 
L 95.002211 128.333 
L 95.716522 139.410811 
L 96.430833 147.216718 
L 97.18086 153.103565 
L 97.966603 157.576166 
L 98.788061 160.982192 
L 99.609519 163.465687 
L 100.430977 165.263341 
L 101.21672 166.479195 
L 101.966747 167.258301 
L 102.681059 167.695823 
L 103.359654 167.856769 
L 104.002535 167.786917 
L 104.645415 167.498246 
L 105.324011 166.943309 
L 106.038322 166.053921 
L 106.752634 164.804537 
L 107.502661 163.025606 
L 108.252688 160.643283 
L 109.002715 157.464334 
L 109.717026 153.422743 
L 110.395622 148.292093 
L 111.074218 141.343168 
L 111.717098 132.298498 
L 112.324263 120.553955 
L 112.967143 103.502312 
L 114.502913 59.33294 
L 114.610059 59.038338 
L 114.645775 59.09532 
L 114.752922 59.726777 
L 114.967215 62.932899 
L 115.324371 72.643137 
L 116.931572 121.718021 
L 117.610167 134.273494 
L 118.324479 143.572065 
L 119.074506 150.488584 
L 119.860248 155.682379 
L 120.645991 159.461387 
L 121.467449 162.356433 
L 122.288907 164.464349 
L 123.110365 165.971549 
L 123.896108 166.960132 
L 124.646135 167.551042 
L 125.324731 167.817192 
L 125.967611 167.84545 
L 126.610491 167.65706 
L 127.289087 167.214924 
L 127.967683 166.503422 
L 128.681995 165.426535 
L 129.432022 163.868672 
L 130.182049 161.769206 
L 130.932076 158.967851 
L 131.646387 155.422625 
L 132.360698 150.685231 
L 133.039294 144.604025 
L 133.682175 136.768309 
L 134.325055 125.966492 
L 134.93222 111.901571 
L 135.646531 89.586631 
L 136.53942 62.043667 
L 136.789429 59.183313 
L 136.86086 59.0364 
L 136.896576 59.079427 
L 137.003723 59.67057 
L 137.218016 62.803817 
L 137.575172 72.437691 
L 139.218088 122.35723 
L 139.896684 134.723925 
L 140.610995 143.889537 
L 141.361023 150.715117 
L 142.146765 155.845689 
L 142.932508 159.581321 
L 143.753966 162.443922 
L 144.575424 164.527689 
L 145.396882 166.015933 
L 146.182625 166.989438 
L 146.896936 167.54736 
L 147.575532 167.815835 
L 148.218412 167.846226 
L 148.861293 167.660006 
L 149.539888 167.220274 
L 150.218484 166.511407 
L 150.932796 165.437776 
L 151.682823 163.883983 
L 152.43285 161.789712 
L 153.182877 158.995179 
L 153.897188 155.458869 
L 154.6115 150.734073 
L 155.290095 144.670194 
L 155.932976 136.858627 
L 156.575856 126.092086 
L 157.183021 112.07213 
L 157.897332 89.80797 
L 158.790221 62.160732 
L 159.04023 59.211223 
L 159.111662 59.037175 
L 159.147377 59.066248 
L 159.254524 59.616301 
L 159.433102 61.998701 
L 159.754542 70.001022 
L 161.718898 127.303831 
L 162.43321 138.694463 
L 163.147521 146.705351 
L 163.897548 152.734614 
L 164.683291 157.307807 
L 165.469033 160.65751 
L 166.290491 163.229036 
L 167.11195 165.093712 
L 167.897692 166.36116 
L 168.647719 167.182286 
L 169.362031 167.655897 
L 170.040626 167.849249 
L 170.683507 167.809865 
L 171.326387 167.552438 
L 172.004983 167.03293 
L 172.719294 166.185368 
L 173.433606 164.98502 
L 174.183633 163.26935 
L 174.93366 160.96847 
L 175.683687 157.898949 
L 176.397998 154.002178 
L 177.076594 149.066897 
L 177.75519 142.402572 
L 178.39807 133.755227 
L 179.005235 122.547946 
L 179.648115 106.223117 
L 180.505289 77.508723 
L 181.076738 61.638201 
L 181.326747 59.102298 
L 181.398178 59.055394 
L 181.505325 59.564358 
L 181.683903 61.884736 
L 182.005343 69.808368 
L 184.005415 127.858535 
L 184.719726 139.080547 
L 185.434038 146.980765 
L 186.184065 152.933238 
L 186.969807 157.452239 
L 187.791266 160.892028 
L 188.612724 163.399983 
L 189.434182 165.216321 
L 190.219924 166.446556 
L 190.969951 167.237407 
L 191.684263 167.685047 
L 192.362859 167.855064 
L 193.005739 167.793817 
L 193.648619 167.513945 
L 194.327215 166.969009 
L 195.041527 166.091483 
L 195.755838 164.855976 
L 196.505865 163.095031 
L 197.255892 160.73585 
L 198.005919 157.588105 
L 198.72023 153.587875 
L 199.398826 148.513122 
L 200.077422 141.64591 
L 200.720302 132.714817 
L 201.327467 121.124165 
L 201.970347 104.277969 
L 203.541833 59.274795 
L 203.648979 59.046866 
L 203.684695 59.125944 
L 203.827557 60.20473 
L 204.077566 64.751679 
L 204.506153 77.776965 
L 205.720482 116.12097 
L 206.434794 130.949143 
L 207.149105 141.237344 
L 207.863417 148.52541 
L 208.613444 154.05102 
L 209.399186 158.266892 
L 210.220644 161.485264 
L 211.042103 163.831963 
L 211.863561 165.524723 
L 212.649303 166.659173 
L 213.39933 167.371451 
L 214.113642 167.751255 
L 214.792238 167.859831 
L 215.435118 167.740595 
L 216.113714 167.375056 
L 216.79231 166.74736 
L 217.506621 165.771374 
L 218.256648 164.340888 
L 219.006675 162.401864 
L 219.756702 159.811498 
L 220.471014 156.539555 
L 221.185325 152.186073 
L 221.863921 146.631662 
L 222.506801 139.524388 
L 223.149681 129.788179 
L 223.756846 117.118741 
L 224.399726 98.877061 
L 225.685487 60.263262 
L 225.89978 59.041052 
L 225.971212 59.248824 
L 226.114074 60.572207 
L 226.364083 65.473842 
L 226.828385 80.038424 
L 227.935568 115.066217 
L 228.649879 130.219228 
L 229.364191 140.726829 
L 230.078502 148.158941 
L 230.828529 153.785219 
L 231.614272 158.072881 
L 232.43573 161.343894 
L 233.257188 163.729085 
L 234.078646 165.45146 
L 234.864389 166.608975 
L 235.614416 167.340285 
L 236.328727 167.736525 
L 237.007323 167.860103 
L 237.650203 167.755054 
L 238.293084 167.429868 
L 238.97168 166.833415 
L 239.685991 165.894758 
L 240.436018 164.510943 
L 241.186045 162.630335 
L 241.936072 160.116101 
L 242.686099 156.758801 
L 243.40041 152.479706 
L 244.079006 147.026778 
L 244.721887 140.059323 
L 245.364767 130.527397 
L 245.971932 118.130078 
L 246.614812 100.229516 
L 247.972004 59.935711 
L 248.150581 59.037563 
L 248.222013 59.217813 
L 248.364875 60.488478 
L 248.614884 65.314524 
L 249.079186 79.815922 
L 250.186369 114.904962 
L 250.90068 130.107202 
L 251.614992 140.648915 
L 252.329303 148.102889 
L 253.07933 153.744634 
L 253.865073 158.043227 
L 254.686531 161.322302 
L 255.507989 163.713385 
L 256.329447 165.440257 
L 257.11519 166.601299 
L 257.865217 167.335479 
L 258.579528 167.734238 
L 259.258124 167.860064 
L 259.901005 167.757147 
L 260.543885 167.43417 
L 261.222481 166.840276 
L 261.936792 165.904682 
L 262.686819 164.524626 
L 263.436846 162.648709 
L 264.186873 160.140599 
L 264.9369 156.791633 
L 265.651212 152.523664 
L 266.329807 147.085892 
L 266.972688 140.139176 
L 267.615568 130.637873 
L 268.222733 118.281256 
L 268.865613 100.432249 
L 270.222805 60.002772 
L 270.401383 59.0364 
L 270.472814 59.189128 
L 270.615676 60.407075 
L 270.865685 65.15637 
L 271.329987 79.593807 
L 272.43717 114.74293 
L 273.151482 129.995175 
L 273.865793 140.570225 
L 274.580104 148.046682 
L 275.330131 153.703933 
L 276.115874 158.013534 
L 276.937332 161.300672 
L 277.75879 163.697647 
L 278.580248 165.429055 
L 279.365991 166.593585 
L 280.116018 167.330633 
L 280.830329 167.731912 
L 281.508925 167.859987 
L 282.151806 167.75924 
L 282.794686 167.438512 
L 283.473282 166.847137 
L 284.187593 165.914528 
L 284.93762 164.538271 
L 285.687647 162.667044 
L 286.437674 160.165059 
L 287.187701 156.824388 
L 287.902013 152.567505 
L 288.580608 147.144812 
L 289.223489 140.219029 
L 289.866369 130.747961 
L 290.473534 118.431658 
L 291.116414 100.634594 
L 292.473606 60.071771 
L 292.652184 59.037951 
L 292.723615 59.163156 
L 292.866477 60.32761 
L 293.116486 65.000153 
L 293.580788 79.371693 
L 294.723687 115.485638 
L 295.437998 130.509178 
L 296.15231 140.92995 
L 296.866621 148.304536 
L 297.616648 153.890772 
L 298.402391 158.149904 
L 299.223849 161.399984 
L 300.045307 163.769941 
L 300.866765 165.480571 
L 301.652508 166.628938 
L 302.402535 167.35269 
L 303.116846 167.742456 
L 303.795442 167.860103 
L 304.438322 167.749433 
L 305.081203 167.418432 
L 305.759798 166.815351 
L 306.47411 165.868787 
L 307.224137 164.475048 
L 307.974164 162.582075 
L 308.724191 160.051754 
L 309.474218 156.672629 
L 310.188529 152.364346 
L 310.867125 146.871569 
L 311.510005 139.849226 
L 312.152886 130.237447 
L 312.76005 117.733141 
L 313.402931 99.697682 
L 314.724407 60.143096 
L 314.902985 59.041827 
L 314.9387 59.051905 
L 315.045847 59.544976 
L 315.224425 61.840934 
L 315.545865 69.733555 
L 317.545937 127.812019 
L 318.260248 139.047986 
L 318.97456 146.95774 
L 319.724587 152.916609 
L 320.510329 157.440145 
L 321.296072 160.755077 
L 322.11753 163.300167 
L 322.938988 165.144764 
L 323.724731 166.396784 
L 324.474758 167.20535 
L 325.189069 167.668224 
L 325.867665 167.851924 
L 326.510545 167.803508 
L 327.153426 167.536816 
L 327.832022 167.006842 
L 328.546333 166.146914 
L 329.260644 164.932146 
L 330.010671 163.197871 
L 330.760698 160.873073 
L 331.510725 157.771495 
L 332.225037 153.832356 
L 332.903633 148.840053 
L 333.582229 142.092853 
L 334.225109 133.329605 
L 334.832274 121.965332 
L 335.475154 105.425754 
L 336.368043 75.375959 
L 336.868061 61.790929 
L 337.11807 59.129432 
L 337.189501 59.044153 
L 337.225217 59.118191 
L 337.368079 60.176045 
L 337.618088 64.692759 
L 338.046675 77.691686 
L 339.261005 116.059336 
L 339.975316 130.906503 
L 340.689627 141.207884 
L 341.403939 148.50409 
L 342.153966 154.035554 
L 342.939708 158.255573 
L 343.761167 161.477007 
L 344.582625 163.825954 
L 345.404083 165.520459 
L 346.189825 166.656266 
L 346.939852 167.369668 
L 347.654164 167.750402 
L 348.33276 167.85987 
L 348.97564 167.741448 
L 349.61852 167.402384 
L 350.297116 166.790077 
L 351.011428 165.832504 
L 351.761455 164.425043 
L 352.511482 162.514859 
L 353.261509 159.962133 
L 353.97582 156.738682 
L 354.690131 152.452766 
L 355.368727 146.990534 
L 356.011608 140.010094 
L 356.654488 130.459949 
L 357.261653 118.037434 
L 357.904533 100.105086 
L 359.261725 59.896173 
L 359.440302 59.039113 
L 359.511734 59.236419 
L 359.654596 60.539646 
L 359.904605 65.411821 
L 360.368907 79.952369 
L 361.47609 115.003808 
L 362.190401 130.175813 
L 362.904713 140.696594 
L 363.619024 148.137195 
L 364.369051 153.769482 
L 365.154794 158.061368 
L 365.976252 161.335521 
L 366.79771 163.722999 
L 367.619168 165.447118 
L 368.404911 166.60599 
L 369.154938 167.338425 
L 369.869249 167.735633 
L 370.547845 167.860064 
L 371.190725 167.755868 
L 371.833606 167.431534 
L 372.512202 166.836089 
L 373.226513 165.898596 
L 373.97654 164.516253 
L 374.726567 162.637468 
L 375.476594 160.125598 
L 376.226621 156.771554 
L 376.940932 152.496801 
L 377.619528 147.049726 
L 378.262409 140.090334 
L 378.905289 130.570424 
L 379.512454 118.188611 
L 380.155334 100.308206 
L 381.512526 59.961683 
L 381.691104 59.036788 
L 381.762535 59.206571 
L 381.905397 60.456692 
L 382.155406 65.25289 
L 382.619708 79.729867 
L 383.726891 114.842165 
L 384.441203 130.063787 
L 385.155514 140.618292 
L 385.869825 148.081104 
L 386.619852 153.728857 
L 387.405595 158.031714 
L 388.227053 161.313929 
L 389.048511 163.707261 
L 389.869969 165.435916 
L 390.655712 166.598315 
L 391.405739 167.333579 
L 392.12005 167.733308 
L 392.798646 167.860025 
L 393.441527 167.757961 
L 394.084407 167.435876 
L 394.763003 166.842951 
L 395.477314 165.908519 
L 396.227341 164.529937 
L 396.977368 162.655842 
L 397.727395 160.150096 
L 398.477422 156.804348 
L 399.191734 152.540681 
L 399.870329 147.108762 
L 400.51321 140.170187 
L 401.15609 130.680513 
L 401.763255 118.339789 
L 402.406135 100.510939 
L 403.763327 60.029131 
L 403.941905 59.036788 
L 404.013336 59.178662 
L 404.156198 60.376064 
L 404.406207 65.095511 
L 404.870509 79.507752 
L 405.977692 114.680134 
L 406.692004 129.951373 
L 407.406315 140.53999 
L 408.120626 148.024858 
L 408.870653 153.688078 
L 409.656396 158.002021 
L 410.477854 161.292261 
L 411.299312 163.691523 
L 412.12077 165.424674 
L 412.906513 166.590601 
L 413.65654 167.328773 
L 414.370851 167.730982 
L 415.049447 167.859948 
L 415.692328 167.760016 
L 416.335208 167.440179 
L 417.013804 166.849773 
L 417.728115 165.918365 
L 418.478142 164.543543 
L 419.228169 162.674138 
L 419.978196 160.174556 
L 420.728223 156.837064 
L 421.442535 152.584484 
L 422.121131 147.167644 
L 422.764011 140.249652 
L 423.406891 130.790601 
L 424.014056 118.490191 
L 424.656936 100.712896 
L 426.049843 59.736467 
L 426.192706 59.039113 
L 426.228421 59.05772 
L 426.335568 59.575987 
L 426.514146 61.909933 
L 426.835586 69.851396 
L 428.835658 127.885282 
L 429.549969 139.099153 
L 430.264281 146.994061 
L 431.014308 152.942813 
L 431.80005 157.459217 
L 432.621509 160.897068 
L 433.442967 163.403666 
L 434.264425 165.218957 
L 435.050167 166.448378 
L 435.800194 167.23857 
L 436.514506 167.685667 
L 437.193102 167.85518 
L 437.835982 167.79343 
L 438.336 167.59469 
L 438.336 167.59469 
" style="fill:none;stroke:#1f77b4;stroke-linecap:square;stroke-width:1.5;"/>
   </g>
   <g id="line2d_28">
    <path clip-path="url(#pf9353a817b)" d="M 81.216 216.828503 
L 81.85888 216.936576 
L 82.501761 217.264863 
L 83.180356 217.864844 
L 83.894668 218.807686 
L 84.644695 220.196774 
L 85.394722 222.083893 
L 86.144749 224.606617 
L 86.894776 227.975546 
L 87.609087 232.270534 
L 88.287683 237.744705 
L 88.930563 244.741115 
L 89.573444 254.315681 
L 90.180608 266.769982 
L 90.823489 284.742644 
L 92.144965 324.455385 
L 92.359258 325.64581 
L 92.466405 325.202357 
L 92.644983 322.983151 
L 92.966423 315.187826 
L 95.002211 256.355025 
L 95.716522 245.277214 
L 96.430833 237.471423 
L 97.18086 231.584809 
L 97.966603 227.112285 
L 98.788061 223.706143 
L 99.609519 221.222958 
L 100.430977 219.425188 
L 101.21672 218.209373 
L 101.966747 217.430306 
L 102.681059 216.992783 
L 103.359654 216.831876 
L 104.002535 216.901689 
L 104.645415 217.190437 
L 105.324011 217.745375 
L 106.038322 218.634763 
L 106.752634 219.884147 
L 107.502661 221.662923 
L 108.252688 224.045323 
L 109.002715 227.224311 
L 109.717026 231.266174 
L 110.395622 236.396901 
L 111.074218 243.345632 
L 111.717098 252.39069 
L 112.324263 264.135232 
L 112.967143 281.187263 
L 114.502913 325.35586 
L 114.610059 325.650074 
L 114.645775 325.593092 
L 114.752922 324.961248 
L 114.967215 321.755125 
L 115.324371 312.0445 
L 116.931572 262.969616 
L 117.610167 250.41453 
L 118.324479 241.116348 
L 119.074506 234.19979 
L 119.860248 229.005878 
L 120.645991 225.22722 
L 121.467449 222.331979 
L 122.288907 220.224179 
L 123.110365 218.717019 
L 123.896108 217.728474 
L 124.610419 217.158458 
L 125.289015 216.879322 
L 125.931896 216.839125 
L 126.574776 217.015343 
L 127.253372 217.44395 
L 127.931968 218.140607 
L 128.646279 219.199507 
L 129.396306 220.734577 
L 130.146333 222.805281 
L 130.89636 225.568338 
L 131.610671 229.064023 
L 132.324983 233.731527 
L 133.003579 239.716213 
L 133.646459 247.418118 
L 134.289339 258.024178 
L 134.896504 271.836749 
L 135.5751 292.632164 
L 136.53942 322.645521 
L 136.789429 325.505487 
L 136.86086 325.652012 
L 136.896576 325.608985 
L 137.003723 325.017843 
L 137.218016 321.884207 
L 137.575172 312.249558 
L 139.218088 262.330407 
L 139.896684 249.964099 
L 140.610995 240.798875 
L 141.361023 233.973024 
L 142.146765 228.842684 
L 142.932508 225.107053 
L 143.753966 222.244762 
L 144.575424 220.16084 
L 145.396882 218.672635 
L 146.182625 217.699169 
L 146.896936 217.141247 
L 147.575532 216.872771 
L 148.218412 216.842419 
L 148.861293 217.028639 
L 149.539888 217.468371 
L 150.218484 218.177238 
L 150.932796 219.250907 
L 151.682823 220.8047 
L 152.43285 222.899088 
L 153.182877 225.693544 
L 153.897188 229.229931 
L 154.6115 233.954805 
L 155.290095 240.018955 
L 155.932976 247.83056 
L 156.575856 258.597489 
L 157.183021 272.617445 
L 157.897332 294.881606 
L 158.790221 322.528843 
L 159.04023 325.477577 
L 159.111662 325.651625 
L 159.147377 325.622165 
L 159.254524 325.072112 
L 159.433102 322.689324 
L 159.754542 314.686227 
L 161.718898 257.384194 
L 162.43321 245.993949 
L 163.147521 237.9831 
L 163.897548 231.953837 
L 164.683291 227.380528 
L 165.469033 224.03098 
L 166.290491 221.459415 
L 167.11195 219.594855 
L 167.897692 218.327407 
L 168.647719 217.506321 
L 169.362031 217.032709 
L 170.040626 216.839357 
L 170.683507 216.87878 
L 171.326387 217.136207 
L 172.004983 217.655715 
L 172.719294 218.503316 
L 173.433606 219.703703 
L 174.183633 221.419488 
L 174.93366 223.720485 
L 175.683687 226.789773 
L 176.397998 230.68666 
L 177.076594 235.62202 
L 177.75519 242.286615 
L 178.39807 250.93396 
L 179.005235 262.141629 
L 179.648115 278.466846 
L 180.505289 307.18124 
L 181.076738 323.051374 
L 181.326747 325.586502 
L 181.398178 325.633406 
L 181.505325 325.124055 
L 181.683903 322.803288 
L 182.005343 314.879269 
L 184.005415 256.829489 
L 184.719726 245.607866 
L 185.434038 237.707492 
L 186.184065 231.75498 
L 186.969807 227.236328 
L 187.75555 223.924381 
L 188.577008 221.381888 
L 189.398466 219.539113 
L 190.184209 218.288528 
L 190.934236 217.481124 
L 191.648547 217.019258 
L 192.327143 216.83645 
L 192.970023 216.885757 
L 193.612904 217.153263 
L 194.2915 217.684245 
L 195.005811 218.545297 
L 195.720122 219.76146 
L 196.470149 221.497403 
L 197.220176 223.824371 
L 197.970203 226.928934 
L 198.684515 230.872337 
L 199.363111 235.869718 
L 200.041707 242.62502 
L 200.684587 251.399121 
L 201.291752 262.777737 
L 201.934632 279.337472 
L 202.863237 310.589321 
L 203.363255 323.529715 
L 203.613264 325.643484 
L 203.684695 325.562469 
L 203.827557 324.483683 
L 204.077566 319.935958 
L 204.506153 306.910284 
L 205.720482 268.567055 
L 206.434794 253.738882 
L 207.149105 243.450681 
L 207.863417 236.162769 
L 208.613444 230.637431 
L 209.399186 226.421521 
L 210.220644 223.203381 
L 211.042103 220.856605 
L 211.863561 219.163845 
L 212.649303 218.029433 
L 213.39933 217.317155 
L 214.113642 216.937351 
L 214.792238 216.828813 
L 215.435118 216.94805 
L 216.113714 217.313589 
L 216.79231 217.941324 
L 217.506621 218.917309 
L 218.256648 220.347835 
L 219.006675 222.287014 
L 219.756702 224.877186 
L 220.506729 228.338372 
L 221.221041 232.75624 
L 221.899636 238.398644 
L 222.542517 245.627247 
L 223.185397 255.540993 
L 223.792562 268.4465 
L 224.435442 286.976193 
L 225.649771 323.962315 
L 225.864065 325.635344 
L 225.935496 325.582238 
L 226.078358 324.556946 
L 226.292652 320.909695 
L 226.685523 309.560927 
L 228.07843 266.130386 
L 228.757026 252.640714 
L 229.471338 242.681615 
L 230.185649 235.609615 
L 230.935676 230.235454 
L 231.721419 226.127694 
L 232.542877 222.989019 
L 233.364335 220.700892 
L 234.185793 219.053253 
L 234.971536 217.954038 
L 235.721563 217.27091 
L 236.435874 216.916458 
L 237.11447 216.831023 
L 237.75735 216.972277 
L 238.435946 217.362082 
L 239.114542 218.016215 
L 239.828853 219.02387 
L 240.57888 220.494244 
L 241.328907 222.483157 
L 242.078934 225.139227 
L 242.793246 228.495752 
L 243.507557 232.9675 
L 244.186153 238.683555 
L 244.829033 246.013719 
L 245.471914 256.076316 
L 246.079078 269.177578 
L 246.757674 289.130664 
L 247.900572 323.872771 
L 248.114866 325.625266 
L 248.150581 325.651237 
L 248.186297 325.599682 
L 248.293444 324.983731 
L 248.507737 321.805518 
L 248.864893 312.124352 
L 250.472094 263.023885 
L 251.150689 250.452906 
L 251.865001 241.143094 
L 252.615028 234.218784 
L 253.40077 229.019833 
L 254.186513 225.237298 
L 255.007971 222.339344 
L 255.829429 220.229568 
L 256.650887 218.720779 
L 257.43663 217.730955 
L 258.186657 217.138998 
L 258.865253 216.871957 
L 259.508133 216.842885 
L 260.151014 217.030461 
L 260.829609 217.471627 
L 261.508205 218.182161 
L 262.222517 219.257807 
L 262.972544 220.814081 
L 263.722571 222.911493 
L 264.472598 225.710212 
L 265.186909 229.252026 
L 265.901221 233.984653 
L 266.579816 240.059269 
L 267.222697 247.885992 
L 267.865577 258.673853 
L 268.472742 272.721718 
L 269.187053 295.017278 
L 270.079942 322.600556 
L 270.329951 325.49502 
L 270.401383 325.6524 
L 270.437098 325.614412 
L 270.544245 325.039163 
L 270.758538 321.933825 
L 271.115694 312.329023 
L 272.75861 262.383901 
L 273.437206 250.0017 
L 274.151518 240.825234 
L 274.901545 233.992018 
L 275.687287 228.856251 
L 276.47303 225.117131 
L 277.294488 222.251739 
L 278.115946 220.166151 
L 278.937404 218.676356 
L 279.723147 217.701611 
L 280.437458 217.142681 
L 281.116054 216.873314 
L 281.758934 216.842109 
L 282.401815 217.027515 
L 283.08041 217.466278 
L 283.759006 218.174137 
L 284.473318 219.246566 
L 285.223345 220.79877 
L 285.973372 222.890948 
L 286.723399 225.683077 
L 287.43771 229.215976 
L 288.152022 233.935811 
L 288.830617 239.992983 
L 289.473498 247.795673 
L 290.116378 258.548647 
L 290.723543 272.551159 
L 291.437854 294.795938 
L 292.330743 322.482715 
L 292.616468 325.596968 
L 292.652184 325.650849 
L 292.687899 325.626816 
L 292.795046 325.092656 
L 292.973624 322.733902 
L 293.295064 314.761428 
L 295.25942 257.431098 
L 295.973732 246.026511 
L 296.688043 238.006358 
L 297.43807 231.970505 
L 298.223813 227.392932 
L 299.045271 223.910426 
L 299.866729 221.371809 
L 300.688187 219.531787 
L 301.47393 218.283411 
L 302.223957 217.477829 
L 302.938268 217.017514 
L 303.616864 216.836101 
L 304.259744 216.886687 
L 304.902625 217.155589 
L 305.581221 217.688082 
L 306.295532 218.550917 
L 307.009843 219.769174 
L 307.75987 221.507869 
L 308.509897 223.838326 
L 309.259924 226.94754 
L 309.974236 230.897146 
L 310.652832 235.903054 
L 311.331428 242.670373 
L 311.974308 251.461143 
L 312.581473 262.863017 
L 313.224353 279.453762 
L 314.152958 310.718403 
L 314.652976 323.589798 
L 314.902985 325.646973 
L 314.974416 325.549289 
L 315.117278 324.437554 
L 315.367287 319.84215 
L 315.83159 305.537284 
L 316.974488 269.362092 
L 317.688799 254.289322 
L 318.403111 243.835989 
L 319.117422 236.43954 
L 319.867449 230.837838 
L 320.653192 226.568046 
L 321.47465 223.309981 
L 322.296108 220.934209 
L 323.117566 219.219121 
L 323.903309 218.067266 
L 324.653336 217.340646 
L 325.367647 216.948399 
L 326.046243 216.828503 
L 326.689123 216.937041 
L 327.332004 217.265832 
L 328.010599 217.866394 
L 328.724911 218.809935 
L 329.474938 220.199875 
L 330.224965 222.088157 
L 330.974992 224.612432 
L 331.689303 227.799173 
L 332.403615 232.034077 
L 333.082211 237.426845 
L 333.725091 244.311617 
L 334.367971 253.722213 
L 334.975136 265.957888 
L 335.618016 283.652229 
L 337.010923 324.855812 
L 337.189501 325.64426 
L 337.296648 325.191891 
L 337.475226 322.958342 
L 337.796666 315.145186 
L 339.832454 256.328666 
L 340.546765 245.258995 
L 341.261077 237.458631 
L 342.011104 231.575506 
L 342.796846 227.105308 
L 343.618304 223.701104 
L 344.439762 221.219081 
L 345.261221 219.422591 
L 346.046963 218.207551 
L 346.79699 217.429143 
L 347.511302 216.992201 
L 348.189897 216.831798 
L 348.832778 216.902076 
L 349.475658 217.191329 
L 350.154254 217.746809 
L 350.868565 218.636856 
L 351.618592 219.960162 
L 352.368619 221.765646 
L 353.118646 224.182158 
L 353.868673 227.407275 
L 354.582985 231.510383 
L 355.261581 236.724064 
L 355.904461 243.362688 
L 356.547341 252.414335 
L 357.154506 264.167406 
L 357.797386 281.231065 
L 359.333156 325.364388 
L 359.440302 325.649299 
L 359.476018 325.589216 
L 359.583165 324.948456 
L 359.797458 321.726053 
L 360.154614 311.998371 
L 361.761815 262.938605 
L 362.44041 250.392435 
L 363.154722 241.100842 
L 363.904749 234.188548 
L 364.690491 228.998126 
L 365.476234 225.221405 
L 366.297692 222.327715 
L 367.11915 220.221117 
L 367.940608 218.714848 
L 368.726351 217.72704 
L 369.440662 217.157644 
L 370.119258 216.879012 
L 370.762139 216.83928 
L 371.405019 217.016002 
L 372.083615 217.445152 
L 372.762211 218.14239 
L 373.476522 219.201988 
L 374.226549 220.73795 
L 374.976576 222.809545 
L 375.726603 225.57454 
L 376.440914 229.072164 
L 377.155226 233.741994 
L 377.833822 239.730555 
L 378.476702 247.437887 
L 379.119582 258.0517 
L 379.726747 271.87435 
L 380.405343 292.681006 
L 381.369663 322.671493 
L 381.619672 325.511689 
L 381.691104 325.652012 
L 381.726819 325.605496 
L 381.833966 325.005438 
L 382.048259 321.855523 
L 382.405415 312.203817 
L 384.048331 262.299784 
L 384.726927 249.942392 
L 385.441239 240.78337 
L 386.191266 233.96217 
L 386.977008 228.834932 
L 387.762751 225.101238 
L 388.584209 222.240498 
L 389.405667 220.157816 
L 390.227125 218.670503 
L 391.012868 217.697734 
L 391.727179 217.140433 
L 392.405775 216.8725 
L 393.048655 216.842574 
L 393.691536 217.029298 
L 394.370131 217.469573 
L 395.048727 218.179021 
L 395.763039 219.253427 
L 396.513066 220.80815 
L 397.263093 222.90374 
L 398.01312 225.699746 
L 398.727431 229.238071 
L 399.441743 233.965658 
L 400.120338 240.033685 
L 400.763219 247.850717 
L 401.406099 258.625399 
L 402.013264 272.655433 
L 402.727575 294.931223 
L 403.620464 322.555202 
L 403.870473 325.484167 
L 403.941905 325.652012 
L 403.97762 325.619451 
L 404.084767 325.060095 
L 404.29906 321.983054 
L 404.656216 312.408488 
L 406.299132 262.437394 
L 406.977728 250.039688 
L 407.69204 240.851981 
L 408.442067 234.011012 
L 409.227809 228.870206 
L 410.013552 225.12721 
L 410.83501 222.259104 
L 411.656468 220.171461 
L 412.477926 218.680077 
L 413.263669 217.704053 
L 413.97798 217.144115 
L 414.656576 216.873857 
L 415.299456 216.841838 
L 415.942337 217.026391 
L 416.620932 217.464224 
L 417.299528 218.171036 
L 418.01384 219.242224 
L 418.763867 220.792839 
L 419.513894 222.883195 
L 420.263921 225.672611 
L 420.978232 229.202021 
L 421.692544 233.917204 
L 422.37114 239.9674 
L 423.01402 247.760786 
L 423.6569 258.500193 
L 424.264065 272.485262 
L 424.978376 294.709884 
L 425.871266 322.436586 
L 426.15699 325.590379 
L 426.228421 325.63108 
L 426.335568 325.112425 
L 426.514146 322.778092 
L 426.835586 314.836242 
L 428.835658 256.802743 
L 429.549969 245.589259 
L 430.264281 237.694312 
L 431.014308 231.745677 
L 431.80005 227.229351 
L 432.585793 223.919342 
L 433.407251 221.378012 
L 434.228709 219.536439 
L 435.014452 218.286667 
L 435.764479 217.479923 
L 436.47879 217.018638 
L 437.157386 216.836334 
L 437.800266 216.886106 
L 438.336 217.093955 
L 438.336 217.093955 
" style="fill:none;stroke:#ff7f0e;stroke-linecap:square;stroke-width:1.5;"/>
   </g>
   <g id="line2d_29">
    <path clip-path="url(#pf9353a817b)" d="M 81.216 202.292258 
L 182.398214 202.291289 
L 192.541437 202.292297 
L 438.336 202.292297 
L 438.336 202.292297 
" style="fill:none;stroke:#2ca02c;stroke-dasharray:5.55,2.4;stroke-dashoffset:0;stroke-width:1.5;"/>
   </g>
   <g id="patch_3">
    <path d="M 63.36 338.9832 
L 63.36 45.7056 
" style="fill:none;stroke:#000000;stroke-linecap:square;stroke-linejoin:miter;stroke-width:0.8;"/>
   </g>
   <g id="patch_4">
    <path d="M 456.192 338.9832 
L 456.192 45.7056 
" style="fill:none;stroke:#000000;stroke-linecap:square;stroke-linejoin:miter;stroke-width:0.8;"/>
   </g>
   <g id="patch_5">
    <path d="M 63.36 338.9832 
L 456.192 338.9832 
" style="fill:none;stroke:#000000;stroke-linecap:square;stroke-linejoin:miter;stroke-width:0.8;"/>
   </g>
   <g id="patch_6">
    <path d="M 63.36 45.7056 
L 456.192 45.7056 
" style="fill:none;stroke:#000000;stroke-linecap:square;stroke-linejoin:miter;stroke-width:0.8;"/>
   </g>
   <g id="text_17">
    <!-- n = 2, N = 1.0e+07, dt = 1e-06, VelocityVerlet, Simulated time = 10.00 years -->
    <g transform="translate(25.253813 26.268225)scale(0.12 -0.12)">
     <defs>
      <path d="M 10.59375 45.40625 
L 73.1875 45.40625 
L 73.1875 37.203125 
L 10.59375 37.203125 
z
M 10.59375 25.484375 
L 73.1875 25.484375 
L 73.1875 17.1875 
L 10.59375 17.1875 
z
" id="DejaVuSans-61"/>
      <path d="M 11.71875 12.40625 
L 22.015625 12.40625 
L 22.015625 4 
L 14.015625 -11.625 
L 7.71875 -11.625 
L 11.71875 4 
z
" id="DejaVuSans-44"/>
      <path d="M 46 62.703125 
L 46 35.5 
L 73.1875 35.5 
L 73.1875 27.203125 
L 46 27.203125 
L 46 0 
L 37.796875 0 
L 37.796875 27.203125 
L 10.59375 27.203125 
L 10.59375 35.5 
L 37.796875 35.5 
L 37.796875 62.703125 
z
" id="DejaVuSans-43"/>
      <path d="M 45.40625 46.390625 
L 45.40625 75.984375 
L 54.390625 75.984375 
L 54.390625 0 
L 45.40625 0 
L 45.40625 8.203125 
Q 42.578125 3.328125 38.25 0.953125 
Q 33.9375 -1.421875 27.875 -1.421875 
Q 17.96875 -1.421875 11.734375 6.484375 
Q 5.515625 14.40625 5.515625 27.296875 
Q 5.515625 40.1875 11.734375 48.09375 
Q 17.96875 56 27.875 56 
Q 33.9375 56 38.25 53.625 
Q 42.578125 51.265625 45.40625 46.390625 
z
M 14.796875 27.296875 
Q 14.796875 17.390625 18.875 11.75 
Q 22.953125 6.109375 30.078125 6.109375 
Q 37.203125 6.109375 41.296875 11.75 
Q 45.40625 17.390625 45.40625 27.296875 
Q 45.40625 37.203125 41.296875 42.84375 
Q 37.203125 48.484375 30.078125 48.484375 
Q 22.953125 48.484375 18.875 42.84375 
Q 14.796875 37.203125 14.796875 27.296875 
z
" id="DejaVuSans-100"/>
      <path d="M 4.890625 31.390625 
L 31.203125 31.390625 
L 31.203125 23.390625 
L 4.890625 23.390625 
z
" id="DejaVuSans-45"/>
      <path d="M 28.609375 0 
L 0.78125 72.90625 
L 11.078125 72.90625 
L 34.1875 11.53125 
L 57.328125 72.90625 
L 67.578125 72.90625 
L 39.796875 0 
z
" id="DejaVuSans-86"/>
      <path d="M 9.421875 75.984375 
L 18.40625 75.984375 
L 18.40625 0 
L 9.421875 0 
z
" id="DejaVuSans-108"/>
      <path d="M 48.78125 52.59375 
L 48.78125 44.1875 
Q 44.96875 46.296875 41.140625 47.34375 
Q 37.3125 48.390625 33.40625 48.390625 
Q 24.65625 48.390625 19.8125 42.84375 
Q 14.984375 37.3125 14.984375 27.296875 
Q 14.984375 17.28125 19.8125 11.734375 
Q 24.65625 6.203125 33.40625 6.203125 
Q 37.3125 6.203125 41.140625 7.25 
Q 44.96875 8.296875 48.78125 10.40625 
L 48.78125 2.09375 
Q 45.015625 0.34375 40.984375 -0.53125 
Q 36.96875 -1.421875 32.421875 -1.421875 
Q 20.0625 -1.421875 12.78125 6.34375 
Q 5.515625 14.109375 5.515625 27.296875 
Q 5.515625 40.671875 12.859375 48.328125 
Q 20.21875 56 33.015625 56 
Q 37.15625 56 41.109375 55.140625 
Q 45.0625 54.296875 48.78125 52.59375 
z
" id="DejaVuSans-99"/>
      <path d="M 53.515625 70.515625 
L 53.515625 60.890625 
Q 47.90625 63.578125 42.921875 64.890625 
Q 37.9375 66.21875 33.296875 66.21875 
Q 25.25 66.21875 20.875 63.09375 
Q 16.5 59.96875 16.5 54.203125 
Q 16.5 49.359375 19.40625 46.890625 
Q 22.3125 44.4375 30.421875 42.921875 
L 36.375 41.703125 
Q 47.40625 39.59375 52.65625 34.296875 
Q 57.90625 29 57.90625 20.125 
Q 57.90625 9.515625 50.796875 4.046875 
Q 43.703125 -1.421875 29.984375 -1.421875 
Q 24.8125 -1.421875 18.96875 -0.25 
Q 13.140625 0.921875 6.890625 3.21875 
L 6.890625 13.375 
Q 12.890625 10.015625 18.65625 8.296875 
Q 24.421875 6.59375 29.984375 6.59375 
Q 38.421875 6.59375 43.015625 9.90625 
Q 47.609375 13.234375 47.609375 19.390625 
Q 47.609375 24.75 44.3125 27.78125 
Q 41.015625 30.8125 33.5 32.328125 
L 27.484375 33.5 
Q 16.453125 35.6875 11.515625 40.375 
Q 6.59375 45.0625 6.59375 53.421875 
Q 6.59375 63.09375 13.40625 68.65625 
Q 20.21875 74.21875 32.171875 74.21875 
Q 37.3125 74.21875 42.625 73.28125 
Q 47.953125 72.359375 53.515625 70.515625 
z
" id="DejaVuSans-83"/>
      <path d="M 34.28125 27.484375 
Q 23.390625 27.484375 19.1875 25 
Q 14.984375 22.515625 14.984375 16.5 
Q 14.984375 11.71875 18.140625 8.90625 
Q 21.296875 6.109375 26.703125 6.109375 
Q 34.1875 6.109375 38.703125 11.40625 
Q 43.21875 16.703125 43.21875 25.484375 
L 43.21875 27.484375 
z
M 52.203125 31.203125 
L 52.203125 0 
L 43.21875 0 
L 43.21875 8.296875 
Q 40.140625 3.328125 35.546875 0.953125 
Q 30.953125 -1.421875 24.3125 -1.421875 
Q 15.921875 -1.421875 10.953125 3.296875 
Q 6 8.015625 6 15.921875 
Q 6 25.140625 12.171875 29.828125 
Q 18.359375 34.515625 30.609375 34.515625 
L 43.21875 34.515625 
L 43.21875 35.40625 
Q 43.21875 41.609375 39.140625 45 
Q 35.0625 48.390625 27.6875 48.390625 
Q 23 48.390625 18.546875 47.265625 
Q 14.109375 46.140625 10.015625 43.890625 
L 10.015625 52.203125 
Q 14.9375 54.109375 19.578125 55.046875 
Q 24.21875 56 28.609375 56 
Q 40.484375 56 46.34375 49.84375 
Q 52.203125 43.703125 52.203125 31.203125 
z
" id="DejaVuSans-97"/>
     </defs>
     <use xlink:href="#DejaVuSans-110"/>
     <use x="63.378906" xlink:href="#DejaVuSans-32"/>
     <use x="95.166016" xlink:href="#DejaVuSans-61"/>
     <use x="178.955078" xlink:href="#DejaVuSans-32"/>
     <use x="210.742188" xlink:href="#DejaVuSans-50"/>
     <use x="274.365234" xlink:href="#DejaVuSans-44"/>
     <use x="306.152344" xlink:href="#DejaVuSans-32"/>
     <use x="337.939453" xlink:href="#DejaVuSans-78"/>
     <use x="412.744141" xlink:href="#DejaVuSans-32"/>
     <use x="444.53125" xlink:href="#DejaVuSans-61"/>
     <use x="528.320312" xlink:href="#DejaVuSans-32"/>
     <use x="560.107422" xlink:href="#DejaVuSans-49"/>
     <use x="623.730469" xlink:href="#DejaVuSans-46"/>
     <use x="655.517578" xlink:href="#DejaVuSans-48"/>
     <use x="719.140625" xlink:href="#DejaVuSans-101"/>
     <use x="780.664062" xlink:href="#DejaVuSans-43"/>
     <use x="864.453125" xlink:href="#DejaVuSans-48"/>
     <use x="928.076172" xlink:href="#DejaVuSans-55"/>
     <use x="991.699219" xlink:href="#DejaVuSans-44"/>
     <use x="1023.486328" xlink:href="#DejaVuSans-32"/>
     <use x="1055.273438" xlink:href="#DejaVuSans-100"/>
     <use x="1118.75" xlink:href="#DejaVuSans-116"/>
     <use x="1157.958984" xlink:href="#DejaVuSans-32"/>
     <use x="1189.746094" xlink:href="#DejaVuSans-61"/>
     <use x="1273.535156" xlink:href="#DejaVuSans-32"/>
     <use x="1305.322266" xlink:href="#DejaVuSans-49"/>
     <use x="1368.945312" xlink:href="#DejaVuSans-101"/>
     <use x="1430.46875" xlink:href="#DejaVuSans-45"/>
     <use x="1466.552734" xlink:href="#DejaVuSans-48"/>
     <use x="1530.175781" xlink:href="#DejaVuSans-54"/>
     <use x="1593.798828" xlink:href="#DejaVuSans-44"/>
     <use x="1625.585938" xlink:href="#DejaVuSans-32"/>
     <use x="1657.373047" xlink:href="#DejaVuSans-86"/>
     <use x="1718.03125" xlink:href="#DejaVuSans-101"/>
     <use x="1779.554688" xlink:href="#DejaVuSans-108"/>
     <use x="1807.337891" xlink:href="#DejaVuSans-111"/>
     <use x="1868.519531" xlink:href="#DejaVuSans-99"/>
     <use x="1923.5" xlink:href="#DejaVuSans-105"/>
     <use x="1951.283203" xlink:href="#DejaVuSans-116"/>
     <use x="1990.492188" xlink:href="#DejaVuSans-121"/>
     <use x="2049.671875" xlink:href="#DejaVuSans-86"/>
     <use x="2110.330078" xlink:href="#DejaVuSans-101"/>
     <use x="2171.853516" xlink:href="#DejaVuSans-114"/>
     <use x="2212.966797" xlink:href="#DejaVuSans-108"/>
     <use x="2240.75" xlink:href="#DejaVuSans-101"/>
     <use x="2302.273438" xlink:href="#DejaVuSans-116"/>
     <use x="2341.482422" xlink:href="#DejaVuSans-44"/>
     <use x="2373.269531" xlink:href="#DejaVuSans-32"/>
     <use x="2405.056641" xlink:href="#DejaVuSans-83"/>
     <use x="2468.533203" xlink:href="#DejaVuSans-105"/>
     <use x="2496.316406" xlink:href="#DejaVuSans-109"/>
     <use x="2593.728516" xlink:href="#DejaVuSans-117"/>
     <use x="2657.107422" xlink:href="#DejaVuSans-108"/>
     <use x="2684.890625" xlink:href="#DejaVuSans-97"/>
     <use x="2746.169922" xlink:href="#DejaVuSans-116"/>
     <use x="2785.378906" xlink:href="#DejaVuSans-101"/>
     <use x="2846.902344" xlink:href="#DejaVuSans-100"/>
     <use x="2910.378906" xlink:href="#DejaVuSans-32"/>
     <use x="2942.166016" xlink:href="#DejaVuSans-116"/>
     <use x="2981.375" xlink:href="#DejaVuSans-105"/>
     <use x="3009.158203" xlink:href="#DejaVuSans-109"/>
     <use x="3106.570312" xlink:href="#DejaVuSans-101"/>
     <use x="3168.09375" xlink:href="#DejaVuSans-32"/>
     <use x="3199.880859" xlink:href="#DejaVuSans-61"/>
     <use x="3283.669922" xlink:href="#DejaVuSans-32"/>
     <use x="3315.457031" xlink:href="#DejaVuSans-49"/>
     <use x="3379.080078" xlink:href="#DejaVuSans-48"/>
     <use x="3442.703125" xlink:href="#DejaVuSans-46"/>
     <use x="3474.490234" xlink:href="#DejaVuSans-48"/>
     <use x="3538.113281" xlink:href="#DejaVuSans-48"/>
     <use x="3601.736328" xlink:href="#DejaVuSans-32"/>
     <use x="3633.523438" xlink:href="#DejaVuSans-121"/>
     <use x="3692.703125" xlink:href="#DejaVuSans-101"/>
     <use x="3754.226562" xlink:href="#DejaVuSans-97"/>
     <use x="3815.505859" xlink:href="#DejaVuSans-114"/>
     <use x="3856.619141" xlink:href="#DejaVuSans-115"/>
    </g>
    <!--  -->
    <g transform="translate(259.776 39.7056)scale(0.12 -0.12)"/>
   </g>
   <g id="legend_1">
    <g id="patch_7">
     <path d="M 70.36 98.0181 
L 368.855313 98.0181 
Q 370.855313 98.0181 370.855313 96.0181 
L 370.855313 52.7056 
Q 370.855313 50.7056 368.855313 50.7056 
L 70.36 50.7056 
Q 68.36 50.7056 68.36 52.7056 
L 68.36 96.0181 
Q 68.36 98.0181 70.36 98.0181 
z
" style="fill:#ffffff;opacity:0.8;stroke:#cccccc;stroke-linejoin:miter;"/>
    </g>
    <g id="line2d_30">
     <path d="M 72.36 58.804037 
L 92.36 58.804037 
" style="fill:none;stroke:#1f77b4;stroke-linecap:square;stroke-width:1.5;"/>
    </g>
    <g id="line2d_31"/>
    <g id="text_18">
     <!-- Kinetic energy -->
     <g transform="translate(100.36 62.304037)scale(0.1 -0.1)">
      <defs>
       <path d="M 9.8125 72.90625 
L 19.671875 72.90625 
L 19.671875 42.09375 
L 52.390625 72.90625 
L 65.09375 72.90625 
L 28.90625 38.921875 
L 67.671875 0 
L 54.6875 0 
L 19.671875 35.109375 
L 19.671875 0 
L 9.8125 0 
z
" id="DejaVuSans-75"/>
      </defs>
      <use xlink:href="#DejaVuSans-75"/>
      <use x="65.576172" xlink:href="#DejaVuSans-105"/>
      <use x="93.359375" xlink:href="#DejaVuSans-110"/>
      <use x="156.738281" xlink:href="#DejaVuSans-101"/>
      <use x="218.261719" xlink:href="#DejaVuSans-116"/>
      <use x="257.470703" xlink:href="#DejaVuSans-105"/>
      <use x="285.253906" xlink:href="#DejaVuSans-99"/>
      <use x="340.234375" xlink:href="#DejaVuSans-32"/>
      <use x="372.021484" xlink:href="#DejaVuSans-101"/>
      <use x="433.544922" xlink:href="#DejaVuSans-110"/>
      <use x="496.923828" xlink:href="#DejaVuSans-101"/>
      <use x="558.447266" xlink:href="#DejaVuSans-114"/>
      <use x="597.810547" xlink:href="#DejaVuSans-103"/>
      <use x="661.287109" xlink:href="#DejaVuSans-121"/>
     </g>
    </g>
    <g id="line2d_32">
     <path d="M 72.36 73.482163 
L 92.36 73.482163 
" style="fill:none;stroke:#ff7f0e;stroke-linecap:square;stroke-width:1.5;"/>
    </g>
    <g id="line2d_33"/>
    <g id="text_19">
     <!-- Potential energy -->
     <g transform="translate(100.36 76.982163)scale(0.1 -0.1)">
      <defs>
       <path d="M 19.671875 64.796875 
L 19.671875 37.40625 
L 32.078125 37.40625 
Q 38.96875 37.40625 42.71875 40.96875 
Q 46.484375 44.53125 46.484375 51.125 
Q 46.484375 57.671875 42.71875 61.234375 
Q 38.96875 64.796875 32.078125 64.796875 
z
M 9.8125 72.90625 
L 32.078125 72.90625 
Q 44.34375 72.90625 50.609375 67.359375 
Q 56.890625 61.8125 56.890625 51.125 
Q 56.890625 40.328125 50.609375 34.8125 
Q 44.34375 29.296875 32.078125 29.296875 
L 19.671875 29.296875 
L 19.671875 0 
L 9.8125 0 
z
" id="DejaVuSans-80"/>
      </defs>
      <use xlink:href="#DejaVuSans-80"/>
      <use x="56.677734" xlink:href="#DejaVuSans-111"/>
      <use x="117.859375" xlink:href="#DejaVuSans-116"/>
      <use x="157.068359" xlink:href="#DejaVuSans-101"/>
      <use x="218.591797" xlink:href="#DejaVuSans-110"/>
      <use x="281.970703" xlink:href="#DejaVuSans-116"/>
      <use x="321.179688" xlink:href="#DejaVuSans-105"/>
      <use x="348.962891" xlink:href="#DejaVuSans-97"/>
      <use x="410.242188" xlink:href="#DejaVuSans-108"/>
      <use x="438.025391" xlink:href="#DejaVuSans-32"/>
      <use x="469.8125" xlink:href="#DejaVuSans-101"/>
      <use x="531.335938" xlink:href="#DejaVuSans-110"/>
      <use x="594.714844" xlink:href="#DejaVuSans-101"/>
      <use x="656.238281" xlink:href="#DejaVuSans-114"/>
      <use x="695.601562" xlink:href="#DejaVuSans-103"/>
      <use x="759.078125" xlink:href="#DejaVuSans-121"/>
     </g>
    </g>
    <g id="line2d_34">
     <path d="M 72.36 88.160287 
L 92.36 88.160287 
" style="fill:none;stroke:#2ca02c;stroke-dasharray:5.55,2.4;stroke-dashoffset:0;stroke-width:1.5;"/>
    </g>
    <g id="line2d_35"/>
    <g id="text_20">
     <!-- Total energy. E_mean = -1.00e+00, E_std = 2.66e-05 -->
     <g transform="translate(100.36 91.660287)scale(0.1 -0.1)">
      <defs>
       <path d="M -0.296875 72.90625 
L 61.375 72.90625 
L 61.375 64.59375 
L 35.5 64.59375 
L 35.5 0 
L 25.59375 0 
L 25.59375 64.59375 
L -0.296875 64.59375 
z
" id="DejaVuSans-84"/>
       <path d="M 50.984375 -16.609375 
L 50.984375 -23.578125 
L -0.984375 -23.578125 
L -0.984375 -16.609375 
z
" id="DejaVuSans-95"/>
       <path d="M 10.796875 72.90625 
L 49.515625 72.90625 
L 49.515625 64.59375 
L 19.828125 64.59375 
L 19.828125 46.734375 
Q 21.96875 47.46875 24.109375 47.828125 
Q 26.265625 48.1875 28.421875 48.1875 
Q 40.625 48.1875 47.75 41.5 
Q 54.890625 34.8125 54.890625 23.390625 
Q 54.890625 11.625 47.5625 5.09375 
Q 40.234375 -1.421875 26.90625 -1.421875 
Q 22.3125 -1.421875 17.546875 -0.640625 
Q 12.796875 0.140625 7.71875 1.703125 
L 7.71875 11.625 
Q 12.109375 9.234375 16.796875 8.0625 
Q 21.484375 6.890625 26.703125 6.890625 
Q 35.15625 6.890625 40.078125 11.328125 
Q 45.015625 15.765625 45.015625 23.390625 
Q 45.015625 31 40.078125 35.4375 
Q 35.15625 39.890625 26.703125 39.890625 
Q 22.75 39.890625 18.8125 39.015625 
Q 14.890625 38.140625 10.796875 36.28125 
z
" id="DejaVuSans-53"/>
      </defs>
      <use xlink:href="#DejaVuSans-84"/>
      <use x="44.083984" xlink:href="#DejaVuSans-111"/>
      <use x="105.265625" xlink:href="#DejaVuSans-116"/>
      <use x="144.474609" xlink:href="#DejaVuSans-97"/>
      <use x="205.753906" xlink:href="#DejaVuSans-108"/>
      <use x="233.537109" xlink:href="#DejaVuSans-32"/>
      <use x="265.324219" xlink:href="#DejaVuSans-101"/>
      <use x="326.847656" xlink:href="#DejaVuSans-110"/>
      <use x="390.226562" xlink:href="#DejaVuSans-101"/>
      <use x="451.75" xlink:href="#DejaVuSans-114"/>
      <use x="491.113281" xlink:href="#DejaVuSans-103"/>
      <use x="554.589844" xlink:href="#DejaVuSans-121"/>
      <use x="599.519531" xlink:href="#DejaVuSans-46"/>
      <use x="631.306641" xlink:href="#DejaVuSans-32"/>
      <use x="663.09375" xlink:href="#DejaVuSans-69"/>
      <use x="726.277344" xlink:href="#DejaVuSans-95"/>
      <use x="776.277344" xlink:href="#DejaVuSans-109"/>
      <use x="873.689453" xlink:href="#DejaVuSans-101"/>
      <use x="935.212891" xlink:href="#DejaVuSans-97"/>
      <use x="996.492188" xlink:href="#DejaVuSans-110"/>
      <use x="1059.871094" xlink:href="#DejaVuSans-32"/>
      <use x="1091.658203" xlink:href="#DejaVuSans-61"/>
      <use x="1175.447266" xlink:href="#DejaVuSans-32"/>
      <use x="1207.234375" xlink:href="#DejaVuSans-45"/>
      <use x="1243.318359" xlink:href="#DejaVuSans-49"/>
      <use x="1306.941406" xlink:href="#DejaVuSans-46"/>
      <use x="1338.728516" xlink:href="#DejaVuSans-48"/>
      <use x="1402.351562" xlink:href="#DejaVuSans-48"/>
      <use x="1465.974609" xlink:href="#DejaVuSans-101"/>
      <use x="1527.498047" xlink:href="#DejaVuSans-43"/>
      <use x="1611.287109" xlink:href="#DejaVuSans-48"/>
      <use x="1674.910156" xlink:href="#DejaVuSans-48"/>
      <use x="1738.533203" xlink:href="#DejaVuSans-44"/>
      <use x="1770.320312" xlink:href="#DejaVuSans-32"/>
      <use x="1802.107422" xlink:href="#DejaVuSans-69"/>
      <use x="1865.291016" xlink:href="#DejaVuSans-95"/>
      <use x="1915.291016" xlink:href="#DejaVuSans-115"/>
      <use x="1967.390625" xlink:href="#DejaVuSans-116"/>
      <use x="2006.599609" xlink:href="#DejaVuSans-100"/>
      <use x="2070.076172" xlink:href="#DejaVuSans-32"/>
      <use x="2101.863281" xlink:href="#DejaVuSans-61"/>
      <use x="2185.652344" xlink:href="#DejaVuSans-32"/>
      <use x="2217.439453" xlink:href="#DejaVuSans-50"/>
      <use x="2281.0625" xlink:href="#DejaVuSans-46"/>
      <use x="2312.849609" xlink:href="#DejaVuSans-54"/>
      <use x="2376.472656" xlink:href="#DejaVuSans-54"/>
      <use x="2440.095703" xlink:href="#DejaVuSans-101"/>
      <use x="2501.619141" xlink:href="#DejaVuSans-45"/>
      <use x="2537.703125" xlink:href="#DejaVuSans-48"/>
      <use x="2601.326172" xlink:href="#DejaVuSans-53"/>
     </g>
    </g>
   </g>
  </g>
 </g>
 <defs>
  <clipPath id="pf9353a817b">
   <rect height="293.2776" width="392.832" x="63.36" y="45.7056"/>
  </clipPath>
 </defs>
</svg>
