<?xml version="1.0" encoding="utf-8" standalone="no"?>
<!DOCTYPE svg PUBLIC "-//W3C//DTD SVG 1.1//EN"
  "http://www.w3.org/Graphics/SVG/1.1/DTD/svg11.dtd">
<!-- Created with matplotlib (https://matplotlib.org/) -->
<svg height="367.92pt" version="1.1" viewBox="0 0 494.64 367.92" width="494.64pt" xmlns="http://www.w3.org/2000/svg" xmlns:xlink="http://www.w3.org/1999/xlink">
 <metadata>
  <rdf:RDF xmlns:cc="http://creativecommons.org/ns#" xmlns:dc="http://purl.org/dc/elements/1.1/" xmlns:rdf="http://www.w3.org/1999/02/22-rdf-syntax-ns#">
   <cc:Work>
    <dc:type rdf:resource="http://purl.org/dc/dcmitype/StillImage"/>
    <dc:date>2020-10-22T14:28:20.775469</dc:date>
    <dc:format>image/svg+xml</dc:format>
    <dc:creator>
     <cc:Agent>
      <dc:title>Matplotlib v3.3.2, https://matplotlib.org/</dc:title>
     </cc:Agent>
    </dc:creator>
   </cc:Work>
  </rdf:RDF>
 </metadata>
 <defs>
  <style type="text/css">*{stroke-linecap:butt;stroke-linejoin:round;}</style>
 </defs>
 <g id="figure_1">
  <g id="patch_1">
   <path d="M 0 367.92 
L 494.64 367.92 
L 494.64 0 
L 0 0 
z
" style="fill:#ffffff;"/>
  </g>
  <g id="axes_1">
   <g id="patch_2">
    <path d="M 61.83 327.4488 
L 445.176 327.4488 
L 445.176 44.1504 
L 61.83 44.1504 
z
" style="fill:#ffffff;"/>
   </g>
   <g id="matplotlib.axis_1">
    <g id="xtick_1">
     <g id="line2d_1">
      <path clip-path="url(#p66a1204371)" d="M 79.254818 327.4488 
L 79.254818 44.1504 
" style="fill:none;stroke:#b0b0b0;stroke-linecap:square;stroke-width:0.8;"/>
     </g>
     <g id="line2d_2">
      <defs>
       <path d="M 0 0 
L 0 3.5 
" id="mc029a7333c" style="stroke:#000000;stroke-width:0.8;"/>
      </defs>
      <g>
       <use style="stroke:#000000;stroke-width:0.8;" x="79.254818" xlink:href="#mc029a7333c" y="327.4488"/>
      </g>
     </g>
     <g id="text_1">
      <!-- 0 -->
      <g transform="translate(76.073568 342.047238)scale(0.1 -0.1)">
       <defs>
        <path d="M 31.78125 66.40625 
Q 24.171875 66.40625 20.328125 58.90625 
Q 16.5 51.421875 16.5 36.375 
Q 16.5 21.390625 20.328125 13.890625 
Q 24.171875 6.390625 31.78125 6.390625 
Q 39.453125 6.390625 43.28125 13.890625 
Q 47.125 21.390625 47.125 36.375 
Q 47.125 51.421875 43.28125 58.90625 
Q 39.453125 66.40625 31.78125 66.40625 
z
M 31.78125 74.21875 
Q 44.046875 74.21875 50.515625 64.515625 
Q 56.984375 54.828125 56.984375 36.375 
Q 56.984375 17.96875 50.515625 8.265625 
Q 44.046875 -1.421875 31.78125 -1.421875 
Q 19.53125 -1.421875 13.0625 8.265625 
Q 6.59375 17.96875 6.59375 36.375 
Q 6.59375 54.828125 13.0625 64.515625 
Q 19.53125 74.21875 31.78125 74.21875 
z
" id="DejaVuSans-48"/>
       </defs>
       <use xlink:href="#DejaVuSans-48"/>
      </g>
     </g>
    </g>
    <g id="xtick_2">
     <g id="line2d_3">
      <path clip-path="url(#p66a1204371)" d="M 148.954091 327.4488 
L 148.954091 44.1504 
" style="fill:none;stroke:#b0b0b0;stroke-linecap:square;stroke-width:0.8;"/>
     </g>
     <g id="line2d_4">
      <g>
       <use style="stroke:#000000;stroke-width:0.8;" x="148.954091" xlink:href="#mc029a7333c" y="327.4488"/>
      </g>
     </g>
     <g id="text_2">
      <!-- 2000 -->
      <g transform="translate(136.229091 342.047238)scale(0.1 -0.1)">
       <defs>
        <path d="M 19.1875 8.296875 
L 53.609375 8.296875 
L 53.609375 0 
L 7.328125 0 
L 7.328125 8.296875 
Q 12.9375 14.109375 22.625 23.890625 
Q 32.328125 33.6875 34.8125 36.53125 
Q 39.546875 41.84375 41.421875 45.53125 
Q 43.3125 49.21875 43.3125 52.78125 
Q 43.3125 58.59375 39.234375 62.25 
Q 35.15625 65.921875 28.609375 65.921875 
Q 23.96875 65.921875 18.8125 64.3125 
Q 13.671875 62.703125 7.8125 59.421875 
L 7.8125 69.390625 
Q 13.765625 71.78125 18.9375 73 
Q 24.125 74.21875 28.421875 74.21875 
Q 39.75 74.21875 46.484375 68.546875 
Q 53.21875 62.890625 53.21875 53.421875 
Q 53.21875 48.921875 51.53125 44.890625 
Q 49.859375 40.875 45.40625 35.40625 
Q 44.1875 33.984375 37.640625 27.21875 
Q 31.109375 20.453125 19.1875 8.296875 
z
" id="DejaVuSans-50"/>
       </defs>
       <use xlink:href="#DejaVuSans-50"/>
       <use x="63.623047" xlink:href="#DejaVuSans-48"/>
       <use x="127.246094" xlink:href="#DejaVuSans-48"/>
       <use x="190.869141" xlink:href="#DejaVuSans-48"/>
      </g>
     </g>
    </g>
    <g id="xtick_3">
     <g id="line2d_5">
      <path clip-path="url(#p66a1204371)" d="M 218.653364 327.4488 
L 218.653364 44.1504 
" style="fill:none;stroke:#b0b0b0;stroke-linecap:square;stroke-width:0.8;"/>
     </g>
     <g id="line2d_6">
      <g>
       <use style="stroke:#000000;stroke-width:0.8;" x="218.653364" xlink:href="#mc029a7333c" y="327.4488"/>
      </g>
     </g>
     <g id="text_3">
      <!-- 4000 -->
      <g transform="translate(205.928364 342.047238)scale(0.1 -0.1)">
       <defs>
        <path d="M 37.796875 64.3125 
L 12.890625 25.390625 
L 37.796875 25.390625 
z
M 35.203125 72.90625 
L 47.609375 72.90625 
L 47.609375 25.390625 
L 58.015625 25.390625 
L 58.015625 17.1875 
L 47.609375 17.1875 
L 47.609375 0 
L 37.796875 0 
L 37.796875 17.1875 
L 4.890625 17.1875 
L 4.890625 26.703125 
z
" id="DejaVuSans-52"/>
       </defs>
       <use xlink:href="#DejaVuSans-52"/>
       <use x="63.623047" xlink:href="#DejaVuSans-48"/>
       <use x="127.246094" xlink:href="#DejaVuSans-48"/>
       <use x="190.869141" xlink:href="#DejaVuSans-48"/>
      </g>
     </g>
    </g>
    <g id="xtick_4">
     <g id="line2d_7">
      <path clip-path="url(#p66a1204371)" d="M 288.352636 327.4488 
L 288.352636 44.1504 
" style="fill:none;stroke:#b0b0b0;stroke-linecap:square;stroke-width:0.8;"/>
     </g>
     <g id="line2d_8">
      <g>
       <use style="stroke:#000000;stroke-width:0.8;" x="288.352636" xlink:href="#mc029a7333c" y="327.4488"/>
      </g>
     </g>
     <g id="text_4">
      <!-- 6000 -->
      <g transform="translate(275.627636 342.047238)scale(0.1 -0.1)">
       <defs>
        <path d="M 33.015625 40.375 
Q 26.375 40.375 22.484375 35.828125 
Q 18.609375 31.296875 18.609375 23.390625 
Q 18.609375 15.53125 22.484375 10.953125 
Q 26.375 6.390625 33.015625 6.390625 
Q 39.65625 6.390625 43.53125 10.953125 
Q 47.40625 15.53125 47.40625 23.390625 
Q 47.40625 31.296875 43.53125 35.828125 
Q 39.65625 40.375 33.015625 40.375 
z
M 52.59375 71.296875 
L 52.59375 62.3125 
Q 48.875 64.0625 45.09375 64.984375 
Q 41.3125 65.921875 37.59375 65.921875 
Q 27.828125 65.921875 22.671875 59.328125 
Q 17.53125 52.734375 16.796875 39.40625 
Q 19.671875 43.65625 24.015625 45.921875 
Q 28.375 48.1875 33.59375 48.1875 
Q 44.578125 48.1875 50.953125 41.515625 
Q 57.328125 34.859375 57.328125 23.390625 
Q 57.328125 12.15625 50.6875 5.359375 
Q 44.046875 -1.421875 33.015625 -1.421875 
Q 20.359375 -1.421875 13.671875 8.265625 
Q 6.984375 17.96875 6.984375 36.375 
Q 6.984375 53.65625 15.1875 63.9375 
Q 23.390625 74.21875 37.203125 74.21875 
Q 40.921875 74.21875 44.703125 73.484375 
Q 48.484375 72.75 52.59375 71.296875 
z
" id="DejaVuSans-54"/>
       </defs>
       <use xlink:href="#DejaVuSans-54"/>
       <use x="63.623047" xlink:href="#DejaVuSans-48"/>
       <use x="127.246094" xlink:href="#DejaVuSans-48"/>
       <use x="190.869141" xlink:href="#DejaVuSans-48"/>
      </g>
     </g>
    </g>
    <g id="xtick_5">
     <g id="line2d_9">
      <path clip-path="url(#p66a1204371)" d="M 358.051909 327.4488 
L 358.051909 44.1504 
" style="fill:none;stroke:#b0b0b0;stroke-linecap:square;stroke-width:0.8;"/>
     </g>
     <g id="line2d_10">
      <g>
       <use style="stroke:#000000;stroke-width:0.8;" x="358.051909" xlink:href="#mc029a7333c" y="327.4488"/>
      </g>
     </g>
     <g id="text_5">
      <!-- 8000 -->
      <g transform="translate(345.326909 342.047238)scale(0.1 -0.1)">
       <defs>
        <path d="M 31.78125 34.625 
Q 24.75 34.625 20.71875 30.859375 
Q 16.703125 27.09375 16.703125 20.515625 
Q 16.703125 13.921875 20.71875 10.15625 
Q 24.75 6.390625 31.78125 6.390625 
Q 38.8125 6.390625 42.859375 10.171875 
Q 46.921875 13.96875 46.921875 20.515625 
Q 46.921875 27.09375 42.890625 30.859375 
Q 38.875 34.625 31.78125 34.625 
z
M 21.921875 38.8125 
Q 15.578125 40.375 12.03125 44.71875 
Q 8.5 49.078125 8.5 55.328125 
Q 8.5 64.0625 14.71875 69.140625 
Q 20.953125 74.21875 31.78125 74.21875 
Q 42.671875 74.21875 48.875 69.140625 
Q 55.078125 64.0625 55.078125 55.328125 
Q 55.078125 49.078125 51.53125 44.71875 
Q 48 40.375 41.703125 38.8125 
Q 48.828125 37.15625 52.796875 32.3125 
Q 56.78125 27.484375 56.78125 20.515625 
Q 56.78125 9.90625 50.3125 4.234375 
Q 43.84375 -1.421875 31.78125 -1.421875 
Q 19.734375 -1.421875 13.25 4.234375 
Q 6.78125 9.90625 6.78125 20.515625 
Q 6.78125 27.484375 10.78125 32.3125 
Q 14.796875 37.15625 21.921875 38.8125 
z
M 18.3125 54.390625 
Q 18.3125 48.734375 21.84375 45.5625 
Q 25.390625 42.390625 31.78125 42.390625 
Q 38.140625 42.390625 41.71875 45.5625 
Q 45.3125 48.734375 45.3125 54.390625 
Q 45.3125 60.0625 41.71875 63.234375 
Q 38.140625 66.40625 31.78125 66.40625 
Q 25.390625 66.40625 21.84375 63.234375 
Q 18.3125 60.0625 18.3125 54.390625 
z
" id="DejaVuSans-56"/>
       </defs>
       <use xlink:href="#DejaVuSans-56"/>
       <use x="63.623047" xlink:href="#DejaVuSans-48"/>
       <use x="127.246094" xlink:href="#DejaVuSans-48"/>
       <use x="190.869141" xlink:href="#DejaVuSans-48"/>
      </g>
     </g>
    </g>
    <g id="xtick_6">
     <g id="line2d_11">
      <path clip-path="url(#p66a1204371)" d="M 427.751182 327.4488 
L 427.751182 44.1504 
" style="fill:none;stroke:#b0b0b0;stroke-linecap:square;stroke-width:0.8;"/>
     </g>
     <g id="line2d_12">
      <g>
       <use style="stroke:#000000;stroke-width:0.8;" x="427.751182" xlink:href="#mc029a7333c" y="327.4488"/>
      </g>
     </g>
     <g id="text_6">
      <!-- 10000 -->
      <g transform="translate(411.844932 342.047238)scale(0.1 -0.1)">
       <defs>
        <path d="M 12.40625 8.296875 
L 28.515625 8.296875 
L 28.515625 63.921875 
L 10.984375 60.40625 
L 10.984375 69.390625 
L 28.421875 72.90625 
L 38.28125 72.90625 
L 38.28125 8.296875 
L 54.390625 8.296875 
L 54.390625 0 
L 12.40625 0 
z
" id="DejaVuSans-49"/>
       </defs>
       <use xlink:href="#DejaVuSans-49"/>
       <use x="63.623047" xlink:href="#DejaVuSans-48"/>
       <use x="127.246094" xlink:href="#DejaVuSans-48"/>
       <use x="190.869141" xlink:href="#DejaVuSans-48"/>
       <use x="254.492188" xlink:href="#DejaVuSans-48"/>
      </g>
     </g>
    </g>
    <g id="text_7">
     <!-- N [number of time steps] -->
     <g transform="translate(190.454562 355.725363)scale(0.1 -0.1)">
      <defs>
       <path d="M 9.8125 72.90625 
L 23.09375 72.90625 
L 55.421875 11.921875 
L 55.421875 72.90625 
L 64.984375 72.90625 
L 64.984375 0 
L 51.703125 0 
L 19.390625 60.984375 
L 19.390625 0 
L 9.8125 0 
z
" id="DejaVuSans-78"/>
       <path id="DejaVuSans-32"/>
       <path d="M 8.59375 75.984375 
L 29.296875 75.984375 
L 29.296875 69 
L 17.578125 69 
L 17.578125 -6.203125 
L 29.296875 -6.203125 
L 29.296875 -13.1875 
L 8.59375 -13.1875 
z
" id="DejaVuSans-91"/>
       <path d="M 54.890625 33.015625 
L 54.890625 0 
L 45.90625 0 
L 45.90625 32.71875 
Q 45.90625 40.484375 42.875 44.328125 
Q 39.84375 48.1875 33.796875 48.1875 
Q 26.515625 48.1875 22.3125 43.546875 
Q 18.109375 38.921875 18.109375 30.90625 
L 18.109375 0 
L 9.078125 0 
L 9.078125 54.6875 
L 18.109375 54.6875 
L 18.109375 46.1875 
Q 21.34375 51.125 25.703125 53.5625 
Q 30.078125 56 35.796875 56 
Q 45.21875 56 50.046875 50.171875 
Q 54.890625 44.34375 54.890625 33.015625 
z
" id="DejaVuSans-110"/>
       <path d="M 8.5 21.578125 
L 8.5 54.6875 
L 17.484375 54.6875 
L 17.484375 21.921875 
Q 17.484375 14.15625 20.5 10.265625 
Q 23.53125 6.390625 29.59375 6.390625 
Q 36.859375 6.390625 41.078125 11.03125 
Q 45.3125 15.671875 45.3125 23.6875 
L 45.3125 54.6875 
L 54.296875 54.6875 
L 54.296875 0 
L 45.3125 0 
L 45.3125 8.40625 
Q 42.046875 3.421875 37.71875 1 
Q 33.40625 -1.421875 27.6875 -1.421875 
Q 18.265625 -1.421875 13.375 4.4375 
Q 8.5 10.296875 8.5 21.578125 
z
M 31.109375 56 
z
" id="DejaVuSans-117"/>
       <path d="M 52 44.1875 
Q 55.375 50.25 60.0625 53.125 
Q 64.75 56 71.09375 56 
Q 79.640625 56 84.28125 50.015625 
Q 88.921875 44.046875 88.921875 33.015625 
L 88.921875 0 
L 79.890625 0 
L 79.890625 32.71875 
Q 79.890625 40.578125 77.09375 44.375 
Q 74.3125 48.1875 68.609375 48.1875 
Q 61.625 48.1875 57.5625 43.546875 
Q 53.515625 38.921875 53.515625 30.90625 
L 53.515625 0 
L 44.484375 0 
L 44.484375 32.71875 
Q 44.484375 40.625 41.703125 44.40625 
Q 38.921875 48.1875 33.109375 48.1875 
Q 26.21875 48.1875 22.15625 43.53125 
Q 18.109375 38.875 18.109375 30.90625 
L 18.109375 0 
L 9.078125 0 
L 9.078125 54.6875 
L 18.109375 54.6875 
L 18.109375 46.1875 
Q 21.1875 51.21875 25.484375 53.609375 
Q 29.78125 56 35.6875 56 
Q 41.65625 56 45.828125 52.96875 
Q 50 49.953125 52 44.1875 
z
" id="DejaVuSans-109"/>
       <path d="M 48.6875 27.296875 
Q 48.6875 37.203125 44.609375 42.84375 
Q 40.53125 48.484375 33.40625 48.484375 
Q 26.265625 48.484375 22.1875 42.84375 
Q 18.109375 37.203125 18.109375 27.296875 
Q 18.109375 17.390625 22.1875 11.75 
Q 26.265625 6.109375 33.40625 6.109375 
Q 40.53125 6.109375 44.609375 11.75 
Q 48.6875 17.390625 48.6875 27.296875 
z
M 18.109375 46.390625 
Q 20.953125 51.265625 25.265625 53.625 
Q 29.59375 56 35.59375 56 
Q 45.5625 56 51.78125 48.09375 
Q 58.015625 40.1875 58.015625 27.296875 
Q 58.015625 14.40625 51.78125 6.484375 
Q 45.5625 -1.421875 35.59375 -1.421875 
Q 29.59375 -1.421875 25.265625 0.953125 
Q 20.953125 3.328125 18.109375 8.203125 
L 18.109375 0 
L 9.078125 0 
L 9.078125 75.984375 
L 18.109375 75.984375 
z
" id="DejaVuSans-98"/>
       <path d="M 56.203125 29.59375 
L 56.203125 25.203125 
L 14.890625 25.203125 
Q 15.484375 15.921875 20.484375 11.0625 
Q 25.484375 6.203125 34.421875 6.203125 
Q 39.59375 6.203125 44.453125 7.46875 
Q 49.3125 8.734375 54.109375 11.28125 
L 54.109375 2.78125 
Q 49.265625 0.734375 44.1875 -0.34375 
Q 39.109375 -1.421875 33.890625 -1.421875 
Q 20.796875 -1.421875 13.15625 6.1875 
Q 5.515625 13.8125 5.515625 26.8125 
Q 5.515625 40.234375 12.765625 48.109375 
Q 20.015625 56 32.328125 56 
Q 43.359375 56 49.78125 48.890625 
Q 56.203125 41.796875 56.203125 29.59375 
z
M 47.21875 32.234375 
Q 47.125 39.59375 43.09375 43.984375 
Q 39.0625 48.390625 32.421875 48.390625 
Q 24.90625 48.390625 20.390625 44.140625 
Q 15.875 39.890625 15.1875 32.171875 
z
" id="DejaVuSans-101"/>
       <path d="M 41.109375 46.296875 
Q 39.59375 47.171875 37.8125 47.578125 
Q 36.03125 48 33.890625 48 
Q 26.265625 48 22.1875 43.046875 
Q 18.109375 38.09375 18.109375 28.8125 
L 18.109375 0 
L 9.078125 0 
L 9.078125 54.6875 
L 18.109375 54.6875 
L 18.109375 46.1875 
Q 20.953125 51.171875 25.484375 53.578125 
Q 30.03125 56 36.53125 56 
Q 37.453125 56 38.578125 55.875 
Q 39.703125 55.765625 41.0625 55.515625 
z
" id="DejaVuSans-114"/>
       <path d="M 30.609375 48.390625 
Q 23.390625 48.390625 19.1875 42.75 
Q 14.984375 37.109375 14.984375 27.296875 
Q 14.984375 17.484375 19.15625 11.84375 
Q 23.34375 6.203125 30.609375 6.203125 
Q 37.796875 6.203125 41.984375 11.859375 
Q 46.1875 17.53125 46.1875 27.296875 
Q 46.1875 37.015625 41.984375 42.703125 
Q 37.796875 48.390625 30.609375 48.390625 
z
M 30.609375 56 
Q 42.328125 56 49.015625 48.375 
Q 55.71875 40.765625 55.71875 27.296875 
Q 55.71875 13.875 49.015625 6.21875 
Q 42.328125 -1.421875 30.609375 -1.421875 
Q 18.84375 -1.421875 12.171875 6.21875 
Q 5.515625 13.875 5.515625 27.296875 
Q 5.515625 40.765625 12.171875 48.375 
Q 18.84375 56 30.609375 56 
z
" id="DejaVuSans-111"/>
       <path d="M 37.109375 75.984375 
L 37.109375 68.5 
L 28.515625 68.5 
Q 23.6875 68.5 21.796875 66.546875 
Q 19.921875 64.59375 19.921875 59.515625 
L 19.921875 54.6875 
L 34.71875 54.6875 
L 34.71875 47.703125 
L 19.921875 47.703125 
L 19.921875 0 
L 10.890625 0 
L 10.890625 47.703125 
L 2.296875 47.703125 
L 2.296875 54.6875 
L 10.890625 54.6875 
L 10.890625 58.5 
Q 10.890625 67.625 15.140625 71.796875 
Q 19.390625 75.984375 28.609375 75.984375 
z
" id="DejaVuSans-102"/>
       <path d="M 18.3125 70.21875 
L 18.3125 54.6875 
L 36.8125 54.6875 
L 36.8125 47.703125 
L 18.3125 47.703125 
L 18.3125 18.015625 
Q 18.3125 11.328125 20.140625 9.421875 
Q 21.96875 7.515625 27.59375 7.515625 
L 36.8125 7.515625 
L 36.8125 0 
L 27.59375 0 
Q 17.1875 0 13.234375 3.875 
Q 9.28125 7.765625 9.28125 18.015625 
L 9.28125 47.703125 
L 2.6875 47.703125 
L 2.6875 54.6875 
L 9.28125 54.6875 
L 9.28125 70.21875 
z
" id="DejaVuSans-116"/>
       <path d="M 9.421875 54.6875 
L 18.40625 54.6875 
L 18.40625 0 
L 9.421875 0 
z
M 9.421875 75.984375 
L 18.40625 75.984375 
L 18.40625 64.59375 
L 9.421875 64.59375 
z
" id="DejaVuSans-105"/>
       <path d="M 44.28125 53.078125 
L 44.28125 44.578125 
Q 40.484375 46.53125 36.375 47.5 
Q 32.28125 48.484375 27.875 48.484375 
Q 21.1875 48.484375 17.84375 46.4375 
Q 14.5 44.390625 14.5 40.28125 
Q 14.5 37.15625 16.890625 35.375 
Q 19.28125 33.59375 26.515625 31.984375 
L 29.59375 31.296875 
Q 39.15625 29.25 43.1875 25.515625 
Q 47.21875 21.78125 47.21875 15.09375 
Q 47.21875 7.46875 41.1875 3.015625 
Q 35.15625 -1.421875 24.609375 -1.421875 
Q 20.21875 -1.421875 15.453125 -0.5625 
Q 10.6875 0.296875 5.421875 2 
L 5.421875 11.28125 
Q 10.40625 8.6875 15.234375 7.390625 
Q 20.0625 6.109375 24.8125 6.109375 
Q 31.15625 6.109375 34.5625 8.28125 
Q 37.984375 10.453125 37.984375 14.40625 
Q 37.984375 18.0625 35.515625 20.015625 
Q 33.0625 21.96875 24.703125 23.78125 
L 21.578125 24.515625 
Q 13.234375 26.265625 9.515625 29.90625 
Q 5.8125 33.546875 5.8125 39.890625 
Q 5.8125 47.609375 11.28125 51.796875 
Q 16.75 56 26.8125 56 
Q 31.78125 56 36.171875 55.265625 
Q 40.578125 54.546875 44.28125 53.078125 
z
" id="DejaVuSans-115"/>
       <path d="M 18.109375 8.203125 
L 18.109375 -20.796875 
L 9.078125 -20.796875 
L 9.078125 54.6875 
L 18.109375 54.6875 
L 18.109375 46.390625 
Q 20.953125 51.265625 25.265625 53.625 
Q 29.59375 56 35.59375 56 
Q 45.5625 56 51.78125 48.09375 
Q 58.015625 40.1875 58.015625 27.296875 
Q 58.015625 14.40625 51.78125 6.484375 
Q 45.5625 -1.421875 35.59375 -1.421875 
Q 29.59375 -1.421875 25.265625 0.953125 
Q 20.953125 3.328125 18.109375 8.203125 
z
M 48.6875 27.296875 
Q 48.6875 37.203125 44.609375 42.84375 
Q 40.53125 48.484375 33.40625 48.484375 
Q 26.265625 48.484375 22.1875 42.84375 
Q 18.109375 37.203125 18.109375 27.296875 
Q 18.109375 17.390625 22.1875 11.75 
Q 26.265625 6.109375 33.40625 6.109375 
Q 40.53125 6.109375 44.609375 11.75 
Q 48.6875 17.390625 48.6875 27.296875 
z
" id="DejaVuSans-112"/>
       <path d="M 30.421875 75.984375 
L 30.421875 -13.1875 
L 9.71875 -13.1875 
L 9.71875 -6.203125 
L 21.390625 -6.203125 
L 21.390625 69 
L 9.71875 69 
L 9.71875 75.984375 
z
" id="DejaVuSans-93"/>
      </defs>
      <use xlink:href="#DejaVuSans-78"/>
      <use x="74.804688" xlink:href="#DejaVuSans-32"/>
      <use x="106.591797" xlink:href="#DejaVuSans-91"/>
      <use x="145.605469" xlink:href="#DejaVuSans-110"/>
      <use x="208.984375" xlink:href="#DejaVuSans-117"/>
      <use x="272.363281" xlink:href="#DejaVuSans-109"/>
      <use x="369.775391" xlink:href="#DejaVuSans-98"/>
      <use x="433.251953" xlink:href="#DejaVuSans-101"/>
      <use x="494.775391" xlink:href="#DejaVuSans-114"/>
      <use x="535.888672" xlink:href="#DejaVuSans-32"/>
      <use x="567.675781" xlink:href="#DejaVuSans-111"/>
      <use x="628.857422" xlink:href="#DejaVuSans-102"/>
      <use x="664.0625" xlink:href="#DejaVuSans-32"/>
      <use x="695.849609" xlink:href="#DejaVuSans-116"/>
      <use x="735.058594" xlink:href="#DejaVuSans-105"/>
      <use x="762.841797" xlink:href="#DejaVuSans-109"/>
      <use x="860.253906" xlink:href="#DejaVuSans-101"/>
      <use x="921.777344" xlink:href="#DejaVuSans-32"/>
      <use x="953.564453" xlink:href="#DejaVuSans-115"/>
      <use x="1005.664062" xlink:href="#DejaVuSans-116"/>
      <use x="1044.873047" xlink:href="#DejaVuSans-101"/>
      <use x="1106.396484" xlink:href="#DejaVuSans-112"/>
      <use x="1169.873047" xlink:href="#DejaVuSans-115"/>
      <use x="1221.972656" xlink:href="#DejaVuSans-93"/>
     </g>
    </g>
   </g>
   <g id="matplotlib.axis_2">
    <g id="ytick_1">
     <g id="line2d_13">
      <path clip-path="url(#p66a1204371)" d="M 61.83 321.535422 
L 445.176 321.535422 
" style="fill:none;stroke:#b0b0b0;stroke-linecap:square;stroke-width:0.8;"/>
     </g>
     <g id="line2d_14">
      <defs>
       <path d="M 0 0 
L -3.5 0 
" id="m5c7efe84ba" style="stroke:#000000;stroke-width:0.8;"/>
      </defs>
      <g>
       <use style="stroke:#000000;stroke-width:0.8;" x="61.83" xlink:href="#m5c7efe84ba" y="321.535422"/>
      </g>
     </g>
     <g id="text_8">
      <!-- 0.9960 -->
      <g transform="translate(19.839375 325.334641)scale(0.1 -0.1)">
       <defs>
        <path d="M 10.6875 12.40625 
L 21 12.40625 
L 21 0 
L 10.6875 0 
z
" id="DejaVuSans-46"/>
        <path d="M 10.984375 1.515625 
L 10.984375 10.5 
Q 14.703125 8.734375 18.5 7.8125 
Q 22.3125 6.890625 25.984375 6.890625 
Q 35.75 6.890625 40.890625 13.453125 
Q 46.046875 20.015625 46.78125 33.40625 
Q 43.953125 29.203125 39.59375 26.953125 
Q 35.25 24.703125 29.984375 24.703125 
Q 19.046875 24.703125 12.671875 31.3125 
Q 6.296875 37.9375 6.296875 49.421875 
Q 6.296875 60.640625 12.9375 67.421875 
Q 19.578125 74.21875 30.609375 74.21875 
Q 43.265625 74.21875 49.921875 64.515625 
Q 56.59375 54.828125 56.59375 36.375 
Q 56.59375 19.140625 48.40625 8.859375 
Q 40.234375 -1.421875 26.421875 -1.421875 
Q 22.703125 -1.421875 18.890625 -0.6875 
Q 15.09375 0.046875 10.984375 1.515625 
z
M 30.609375 32.421875 
Q 37.25 32.421875 41.125 36.953125 
Q 45.015625 41.5 45.015625 49.421875 
Q 45.015625 57.28125 41.125 61.84375 
Q 37.25 66.40625 30.609375 66.40625 
Q 23.96875 66.40625 20.09375 61.84375 
Q 16.21875 57.28125 16.21875 49.421875 
Q 16.21875 41.5 20.09375 36.953125 
Q 23.96875 32.421875 30.609375 32.421875 
z
" id="DejaVuSans-57"/>
       </defs>
       <use xlink:href="#DejaVuSans-48"/>
       <use x="63.623047" xlink:href="#DejaVuSans-46"/>
       <use x="95.410156" xlink:href="#DejaVuSans-57"/>
       <use x="159.033203" xlink:href="#DejaVuSans-57"/>
       <use x="222.65625" xlink:href="#DejaVuSans-54"/>
       <use x="286.279297" xlink:href="#DejaVuSans-48"/>
      </g>
     </g>
    </g>
    <g id="ytick_2">
     <g id="line2d_15">
      <path clip-path="url(#p66a1204371)" d="M 61.83 288.471944 
L 445.176 288.471944 
" style="fill:none;stroke:#b0b0b0;stroke-linecap:square;stroke-width:0.8;"/>
     </g>
     <g id="line2d_16">
      <g>
       <use style="stroke:#000000;stroke-width:0.8;" x="61.83" xlink:href="#m5c7efe84ba" y="288.471944"/>
      </g>
     </g>
     <g id="text_9">
      <!-- 0.9965 -->
      <g transform="translate(19.839375 292.271163)scale(0.1 -0.1)">
       <defs>
        <path d="M 10.796875 72.90625 
L 49.515625 72.90625 
L 49.515625 64.59375 
L 19.828125 64.59375 
L 19.828125 46.734375 
Q 21.96875 47.46875 24.109375 47.828125 
Q 26.265625 48.1875 28.421875 48.1875 
Q 40.625 48.1875 47.75 41.5 
Q 54.890625 34.8125 54.890625 23.390625 
Q 54.890625 11.625 47.5625 5.09375 
Q 40.234375 -1.421875 26.90625 -1.421875 
Q 22.3125 -1.421875 17.546875 -0.640625 
Q 12.796875 0.140625 7.71875 1.703125 
L 7.71875 11.625 
Q 12.109375 9.234375 16.796875 8.0625 
Q 21.484375 6.890625 26.703125 6.890625 
Q 35.15625 6.890625 40.078125 11.328125 
Q 45.015625 15.765625 45.015625 23.390625 
Q 45.015625 31 40.078125 35.4375 
Q 35.15625 39.890625 26.703125 39.890625 
Q 22.75 39.890625 18.8125 39.015625 
Q 14.890625 38.140625 10.796875 36.28125 
z
" id="DejaVuSans-53"/>
       </defs>
       <use xlink:href="#DejaVuSans-48"/>
       <use x="63.623047" xlink:href="#DejaVuSans-46"/>
       <use x="95.410156" xlink:href="#DejaVuSans-57"/>
       <use x="159.033203" xlink:href="#DejaVuSans-57"/>
       <use x="222.65625" xlink:href="#DejaVuSans-54"/>
       <use x="286.279297" xlink:href="#DejaVuSans-53"/>
      </g>
     </g>
    </g>
    <g id="ytick_3">
     <g id="line2d_17">
      <path clip-path="url(#p66a1204371)" d="M 61.83 255.408467 
L 445.176 255.408467 
" style="fill:none;stroke:#b0b0b0;stroke-linecap:square;stroke-width:0.8;"/>
     </g>
     <g id="line2d_18">
      <g>
       <use style="stroke:#000000;stroke-width:0.8;" x="61.83" xlink:href="#m5c7efe84ba" y="255.408467"/>
      </g>
     </g>
     <g id="text_10">
      <!-- 0.9970 -->
      <g transform="translate(19.839375 259.207685)scale(0.1 -0.1)">
       <defs>
        <path d="M 8.203125 72.90625 
L 55.078125 72.90625 
L 55.078125 68.703125 
L 28.609375 0 
L 18.3125 0 
L 43.21875 64.59375 
L 8.203125 64.59375 
z
" id="DejaVuSans-55"/>
       </defs>
       <use xlink:href="#DejaVuSans-48"/>
       <use x="63.623047" xlink:href="#DejaVuSans-46"/>
       <use x="95.410156" xlink:href="#DejaVuSans-57"/>
       <use x="159.033203" xlink:href="#DejaVuSans-57"/>
       <use x="222.65625" xlink:href="#DejaVuSans-55"/>
       <use x="286.279297" xlink:href="#DejaVuSans-48"/>
      </g>
     </g>
    </g>
    <g id="ytick_4">
     <g id="line2d_19">
      <path clip-path="url(#p66a1204371)" d="M 61.83 222.344989 
L 445.176 222.344989 
" style="fill:none;stroke:#b0b0b0;stroke-linecap:square;stroke-width:0.8;"/>
     </g>
     <g id="line2d_20">
      <g>
       <use style="stroke:#000000;stroke-width:0.8;" x="61.83" xlink:href="#m5c7efe84ba" y="222.344989"/>
      </g>
     </g>
     <g id="text_11">
      <!-- 0.9975 -->
      <g transform="translate(19.839375 226.144208)scale(0.1 -0.1)">
       <use xlink:href="#DejaVuSans-48"/>
       <use x="63.623047" xlink:href="#DejaVuSans-46"/>
       <use x="95.410156" xlink:href="#DejaVuSans-57"/>
       <use x="159.033203" xlink:href="#DejaVuSans-57"/>
       <use x="222.65625" xlink:href="#DejaVuSans-55"/>
       <use x="286.279297" xlink:href="#DejaVuSans-53"/>
      </g>
     </g>
    </g>
    <g id="ytick_5">
     <g id="line2d_21">
      <path clip-path="url(#p66a1204371)" d="M 61.83 189.281511 
L 445.176 189.281511 
" style="fill:none;stroke:#b0b0b0;stroke-linecap:square;stroke-width:0.8;"/>
     </g>
     <g id="line2d_22">
      <g>
       <use style="stroke:#000000;stroke-width:0.8;" x="61.83" xlink:href="#m5c7efe84ba" y="189.281511"/>
      </g>
     </g>
     <g id="text_12">
      <!-- 0.9980 -->
      <g transform="translate(19.839375 193.08073)scale(0.1 -0.1)">
       <use xlink:href="#DejaVuSans-48"/>
       <use x="63.623047" xlink:href="#DejaVuSans-46"/>
       <use x="95.410156" xlink:href="#DejaVuSans-57"/>
       <use x="159.033203" xlink:href="#DejaVuSans-57"/>
       <use x="222.65625" xlink:href="#DejaVuSans-56"/>
       <use x="286.279297" xlink:href="#DejaVuSans-48"/>
      </g>
     </g>
    </g>
    <g id="ytick_6">
     <g id="line2d_23">
      <path clip-path="url(#p66a1204371)" d="M 61.83 156.218033 
L 445.176 156.218033 
" style="fill:none;stroke:#b0b0b0;stroke-linecap:square;stroke-width:0.8;"/>
     </g>
     <g id="line2d_24">
      <g>
       <use style="stroke:#000000;stroke-width:0.8;" x="61.83" xlink:href="#m5c7efe84ba" y="156.218033"/>
      </g>
     </g>
     <g id="text_13">
      <!-- 0.9985 -->
      <g transform="translate(19.839375 160.017252)scale(0.1 -0.1)">
       <use xlink:href="#DejaVuSans-48"/>
       <use x="63.623047" xlink:href="#DejaVuSans-46"/>
       <use x="95.410156" xlink:href="#DejaVuSans-57"/>
       <use x="159.033203" xlink:href="#DejaVuSans-57"/>
       <use x="222.65625" xlink:href="#DejaVuSans-56"/>
       <use x="286.279297" xlink:href="#DejaVuSans-53"/>
      </g>
     </g>
    </g>
    <g id="ytick_7">
     <g id="line2d_25">
      <path clip-path="url(#p66a1204371)" d="M 61.83 123.154556 
L 445.176 123.154556 
" style="fill:none;stroke:#b0b0b0;stroke-linecap:square;stroke-width:0.8;"/>
     </g>
     <g id="line2d_26">
      <g>
       <use style="stroke:#000000;stroke-width:0.8;" x="61.83" xlink:href="#m5c7efe84ba" y="123.154556"/>
      </g>
     </g>
     <g id="text_14">
      <!-- 0.9990 -->
      <g transform="translate(19.839375 126.953774)scale(0.1 -0.1)">
       <use xlink:href="#DejaVuSans-48"/>
       <use x="63.623047" xlink:href="#DejaVuSans-46"/>
       <use x="95.410156" xlink:href="#DejaVuSans-57"/>
       <use x="159.033203" xlink:href="#DejaVuSans-57"/>
       <use x="222.65625" xlink:href="#DejaVuSans-57"/>
       <use x="286.279297" xlink:href="#DejaVuSans-48"/>
      </g>
     </g>
    </g>
    <g id="ytick_8">
     <g id="line2d_27">
      <path clip-path="url(#p66a1204371)" d="M 61.83 90.091078 
L 445.176 90.091078 
" style="fill:none;stroke:#b0b0b0;stroke-linecap:square;stroke-width:0.8;"/>
     </g>
     <g id="line2d_28">
      <g>
       <use style="stroke:#000000;stroke-width:0.8;" x="61.83" xlink:href="#m5c7efe84ba" y="90.091078"/>
      </g>
     </g>
     <g id="text_15">
      <!-- 0.9995 -->
      <g transform="translate(19.839375 93.890297)scale(0.1 -0.1)">
       <use xlink:href="#DejaVuSans-48"/>
       <use x="63.623047" xlink:href="#DejaVuSans-46"/>
       <use x="95.410156" xlink:href="#DejaVuSans-57"/>
       <use x="159.033203" xlink:href="#DejaVuSans-57"/>
       <use x="222.65625" xlink:href="#DejaVuSans-57"/>
       <use x="286.279297" xlink:href="#DejaVuSans-53"/>
      </g>
     </g>
    </g>
    <g id="ytick_9">
     <g id="line2d_29">
      <path clip-path="url(#p66a1204371)" d="M 61.83 57.0276 
L 445.176 57.0276 
" style="fill:none;stroke:#b0b0b0;stroke-linecap:square;stroke-width:0.8;"/>
     </g>
     <g id="line2d_30">
      <g>
       <use style="stroke:#000000;stroke-width:0.8;" x="61.83" xlink:href="#m5c7efe84ba" y="57.0276"/>
      </g>
     </g>
     <g id="text_16">
      <!-- 1.0000 -->
      <g transform="translate(19.839375 60.826819)scale(0.1 -0.1)">
       <use xlink:href="#DejaVuSans-49"/>
       <use x="63.623047" xlink:href="#DejaVuSans-46"/>
       <use x="95.410156" xlink:href="#DejaVuSans-48"/>
       <use x="159.033203" xlink:href="#DejaVuSans-48"/>
       <use x="222.65625" xlink:href="#DejaVuSans-48"/>
       <use x="286.279297" xlink:href="#DejaVuSans-48"/>
      </g>
     </g>
    </g>
    <g id="text_17">
     <!-- Angular momentum $[L_{tot}/max(|L_{tot}|)]$ -->
     <g transform="translate(13.439375 276.8496)rotate(-90)scale(0.1 -0.1)">
      <defs>
       <path d="M 34.1875 63.1875 
L 20.796875 26.90625 
L 47.609375 26.90625 
z
M 28.609375 72.90625 
L 39.796875 72.90625 
L 67.578125 0 
L 57.328125 0 
L 50.6875 18.703125 
L 17.828125 18.703125 
L 11.1875 0 
L 0.78125 0 
z
" id="DejaVuSans-65"/>
       <path d="M 45.40625 27.984375 
Q 45.40625 37.75 41.375 43.109375 
Q 37.359375 48.484375 30.078125 48.484375 
Q 22.859375 48.484375 18.828125 43.109375 
Q 14.796875 37.75 14.796875 27.984375 
Q 14.796875 18.265625 18.828125 12.890625 
Q 22.859375 7.515625 30.078125 7.515625 
Q 37.359375 7.515625 41.375 12.890625 
Q 45.40625 18.265625 45.40625 27.984375 
z
M 54.390625 6.78125 
Q 54.390625 -7.171875 48.1875 -13.984375 
Q 42 -20.796875 29.203125 -20.796875 
Q 24.46875 -20.796875 20.265625 -20.09375 
Q 16.0625 -19.390625 12.109375 -17.921875 
L 12.109375 -9.1875 
Q 16.0625 -11.328125 19.921875 -12.34375 
Q 23.78125 -13.375 27.78125 -13.375 
Q 36.625 -13.375 41.015625 -8.765625 
Q 45.40625 -4.15625 45.40625 5.171875 
L 45.40625 9.625 
Q 42.625 4.78125 38.28125 2.390625 
Q 33.9375 0 27.875 0 
Q 17.828125 0 11.671875 7.65625 
Q 5.515625 15.328125 5.515625 27.984375 
Q 5.515625 40.671875 11.671875 48.328125 
Q 17.828125 56 27.875 56 
Q 33.9375 56 38.28125 53.609375 
Q 42.625 51.21875 45.40625 46.390625 
L 45.40625 54.6875 
L 54.390625 54.6875 
z
" id="DejaVuSans-103"/>
       <path d="M 9.421875 75.984375 
L 18.40625 75.984375 
L 18.40625 0 
L 9.421875 0 
z
" id="DejaVuSans-108"/>
       <path d="M 34.28125 27.484375 
Q 23.390625 27.484375 19.1875 25 
Q 14.984375 22.515625 14.984375 16.5 
Q 14.984375 11.71875 18.140625 8.90625 
Q 21.296875 6.109375 26.703125 6.109375 
Q 34.1875 6.109375 38.703125 11.40625 
Q 43.21875 16.703125 43.21875 25.484375 
L 43.21875 27.484375 
z
M 52.203125 31.203125 
L 52.203125 0 
L 43.21875 0 
L 43.21875 8.296875 
Q 40.140625 3.328125 35.546875 0.953125 
Q 30.953125 -1.421875 24.3125 -1.421875 
Q 15.921875 -1.421875 10.953125 3.296875 
Q 6 8.015625 6 15.921875 
Q 6 25.140625 12.171875 29.828125 
Q 18.359375 34.515625 30.609375 34.515625 
L 43.21875 34.515625 
L 43.21875 35.40625 
Q 43.21875 41.609375 39.140625 45 
Q 35.0625 48.390625 27.6875 48.390625 
Q 23 48.390625 18.546875 47.265625 
Q 14.109375 46.140625 10.015625 43.890625 
L 10.015625 52.203125 
Q 14.9375 54.109375 19.578125 55.046875 
Q 24.21875 56 28.609375 56 
Q 40.484375 56 46.34375 49.84375 
Q 52.203125 43.703125 52.203125 31.203125 
z
" id="DejaVuSans-97"/>
       <path d="M 16.796875 72.90625 
L 26.703125 72.90625 
L 14.203125 8.203125 
L 49.703125 8.203125 
L 48.09375 0 
L 2.6875 0 
z
" id="DejaVuSans-Oblique-76"/>
       <path d="M 42.28125 54.6875 
L 40.921875 47.703125 
L 23 47.703125 
L 17.1875 18.015625 
Q 16.890625 16.359375 16.75 15.234375 
Q 16.609375 14.109375 16.609375 13.484375 
Q 16.609375 10.359375 18.484375 8.9375 
Q 20.359375 7.515625 24.515625 7.515625 
L 33.59375 7.515625 
L 32.078125 0 
L 23.484375 0 
Q 15.484375 0 11.546875 3.125 
Q 7.625 6.25 7.625 12.59375 
Q 7.625 13.71875 7.765625 15.0625 
Q 7.90625 16.40625 8.203125 18.015625 
L 14.015625 47.703125 
L 6.390625 47.703125 
L 7.8125 54.6875 
L 15.28125 54.6875 
L 18.3125 70.21875 
L 27.296875 70.21875 
L 24.3125 54.6875 
z
" id="DejaVuSans-Oblique-116"/>
       <path d="M 25.390625 -1.421875 
Q 15.765625 -1.421875 10.171875 4.515625 
Q 4.59375 10.453125 4.59375 20.703125 
Q 4.59375 26.65625 6.515625 32.828125 
Q 8.453125 39.015625 11.53125 43.21875 
Q 16.359375 49.75 22.3125 52.875 
Q 28.265625 56 35.796875 56 
Q 45.125 56 50.859375 50.1875 
Q 56.59375 44.390625 56.59375 35.015625 
Q 56.59375 28.515625 54.6875 22.0625 
Q 52.78125 15.625 49.703125 11.375 
Q 44.921875 4.828125 38.96875 1.703125 
Q 33.015625 -1.421875 25.390625 -1.421875 
z
M 13.921875 21 
Q 13.921875 13.578125 17.015625 9.890625 
Q 20.125 6.203125 26.421875 6.203125 
Q 35.453125 6.203125 41.375 14.078125 
Q 47.3125 21.96875 47.3125 34.078125 
Q 47.3125 41.15625 44.140625 44.765625 
Q 40.96875 48.390625 34.8125 48.390625 
Q 29.734375 48.390625 25.78125 46.015625 
Q 21.828125 43.65625 18.703125 38.8125 
Q 16.40625 35.203125 15.15625 30.5625 
Q 13.921875 25.921875 13.921875 21 
z
" id="DejaVuSans-Oblique-111"/>
       <path d="M 25.390625 72.90625 
L 33.6875 72.90625 
L 8.296875 -9.28125 
L 0 -9.28125 
z
" id="DejaVuSans-47"/>
       <path d="M 89.796875 33.015625 
L 83.40625 0 
L 74.421875 0 
L 80.71875 32.71875 
Q 81.109375 34.8125 81.296875 36.328125 
Q 81.5 37.84375 81.5 38.921875 
Q 81.5 43.3125 79.046875 45.75 
Q 76.609375 48.1875 72.21875 48.1875 
Q 65.671875 48.1875 60.546875 43.28125 
Q 55.421875 38.375 53.90625 30.515625 
L 47.90625 0 
L 38.921875 0 
L 45.3125 32.71875 
Q 45.703125 34.515625 45.890625 36.046875 
Q 46.09375 37.59375 46.09375 38.8125 
Q 46.09375 43.265625 43.65625 45.71875 
Q 41.21875 48.1875 36.921875 48.1875 
Q 30.28125 48.1875 25.140625 43.28125 
Q 20.015625 38.375 18.5 30.515625 
L 12.5 0 
L 3.515625 0 
L 14.203125 54.6875 
L 23.1875 54.6875 
L 21.484375 46.1875 
Q 25.140625 50.984375 30.046875 53.484375 
Q 34.96875 56 40.578125 56 
Q 46.53125 56 50.359375 52.875 
Q 54.203125 49.75 54.984375 44.1875 
Q 59.078125 49.953125 64.46875 52.96875 
Q 69.875 56 75.875 56 
Q 82.90625 56 86.734375 51.953125 
Q 90.578125 47.90625 90.578125 40.484375 
Q 90.578125 38.875 90.375 36.9375 
Q 90.1875 35.015625 89.796875 33.015625 
z
" id="DejaVuSans-Oblique-109"/>
       <path d="M 53.71875 31.203125 
L 47.609375 0 
L 38.625 0 
L 40.28125 8.296875 
Q 36.328125 3.421875 31.265625 1 
Q 26.21875 -1.421875 20.015625 -1.421875 
Q 13.03125 -1.421875 8.5625 2.84375 
Q 4.109375 7.125 4.109375 13.8125 
Q 4.109375 23.390625 11.75 28.953125 
Q 19.390625 34.515625 32.8125 34.515625 
L 45.3125 34.515625 
L 45.796875 36.921875 
Q 45.90625 37.3125 45.953125 37.765625 
Q 46 38.234375 46 39.203125 
Q 46 43.5625 42.453125 45.96875 
Q 38.921875 48.390625 32.515625 48.390625 
Q 28.125 48.390625 23.5 47.265625 
Q 18.890625 46.140625 14.015625 43.890625 
L 15.578125 52.203125 
Q 20.65625 54.109375 25.515625 55.046875 
Q 30.375 56 34.90625 56 
Q 44.578125 56 49.625 51.796875 
Q 54.6875 47.609375 54.6875 39.59375 
Q 54.6875 37.984375 54.4375 35.8125 
Q 54.203125 33.640625 53.71875 31.203125 
z
M 44 27.484375 
L 35.015625 27.484375 
Q 23.96875 27.484375 18.671875 24.53125 
Q 13.375 21.578125 13.375 15.375 
Q 13.375 11.078125 16.078125 8.640625 
Q 18.796875 6.203125 23.578125 6.203125 
Q 30.90625 6.203125 36.375 11.453125 
Q 41.84375 16.703125 43.609375 25.484375 
z
" id="DejaVuSans-Oblique-97"/>
       <path d="M 60.015625 54.6875 
L 34.90625 27.875 
L 50.296875 0 
L 39.984375 0 
L 28.421875 21.6875 
L 8.296875 0 
L -2.59375 0 
L 24.3125 28.8125 
L 10.015625 54.6875 
L 20.3125 54.6875 
L 30.8125 34.90625 
L 49.125 54.6875 
z
" id="DejaVuSans-Oblique-120"/>
       <path d="M 31 75.875 
Q 24.46875 64.65625 21.28125 53.65625 
Q 18.109375 42.671875 18.109375 31.390625 
Q 18.109375 20.125 21.3125 9.0625 
Q 24.515625 -2 31 -13.1875 
L 23.1875 -13.1875 
Q 15.875 -1.703125 12.234375 9.375 
Q 8.59375 20.453125 8.59375 31.390625 
Q 8.59375 42.28125 12.203125 53.3125 
Q 15.828125 64.359375 23.1875 75.875 
z
" id="DejaVuSans-40"/>
       <path d="M 21 76.421875 
L 21 -23.578125 
L 12.703125 -23.578125 
L 12.703125 76.421875 
z
" id="DejaVuSans-124"/>
       <path d="M 8.015625 75.875 
L 15.828125 75.875 
Q 23.140625 64.359375 26.78125 53.3125 
Q 30.421875 42.28125 30.421875 31.390625 
Q 30.421875 20.453125 26.78125 9.375 
Q 23.140625 -1.703125 15.828125 -13.1875 
L 8.015625 -13.1875 
Q 14.5 -2 17.703125 9.0625 
Q 20.90625 20.125 20.90625 31.390625 
Q 20.90625 42.671875 17.703125 53.65625 
Q 14.5 64.65625 8.015625 75.875 
z
" id="DejaVuSans-41"/>
      </defs>
      <use transform="translate(0 0.578125)" xlink:href="#DejaVuSans-65"/>
      <use transform="translate(68.408203 0.578125)" xlink:href="#DejaVuSans-110"/>
      <use transform="translate(131.787109 0.578125)" xlink:href="#DejaVuSans-103"/>
      <use transform="translate(195.263672 0.578125)" xlink:href="#DejaVuSans-117"/>
      <use transform="translate(258.642578 0.578125)" xlink:href="#DejaVuSans-108"/>
      <use transform="translate(286.425781 0.578125)" xlink:href="#DejaVuSans-97"/>
      <use transform="translate(347.705078 0.578125)" xlink:href="#DejaVuSans-114"/>
      <use transform="translate(388.818359 0.578125)" xlink:href="#DejaVuSans-32"/>
      <use transform="translate(420.605469 0.578125)" xlink:href="#DejaVuSans-109"/>
      <use transform="translate(518.017578 0.578125)" xlink:href="#DejaVuSans-111"/>
      <use transform="translate(579.199219 0.578125)" xlink:href="#DejaVuSans-109"/>
      <use transform="translate(676.611328 0.578125)" xlink:href="#DejaVuSans-101"/>
      <use transform="translate(738.134766 0.578125)" xlink:href="#DejaVuSans-110"/>
      <use transform="translate(801.513672 0.578125)" xlink:href="#DejaVuSans-116"/>
      <use transform="translate(840.722656 0.578125)" xlink:href="#DejaVuSans-117"/>
      <use transform="translate(904.101562 0.578125)" xlink:href="#DejaVuSans-109"/>
      <use transform="translate(1001.513672 0.578125)" xlink:href="#DejaVuSans-32"/>
      <use transform="translate(1033.300781 0.578125)" xlink:href="#DejaVuSans-91"/>
      <use transform="translate(1072.314453 0.578125)" xlink:href="#DejaVuSans-Oblique-76"/>
      <use transform="translate(1128.027344 -15.828125)scale(0.7)" xlink:href="#DejaVuSans-Oblique-116"/>
      <use transform="translate(1155.473633 -15.828125)scale(0.7)" xlink:href="#DejaVuSans-Oblique-111"/>
      <use transform="translate(1198.300781 -15.828125)scale(0.7)" xlink:href="#DejaVuSans-Oblique-116"/>
      <use transform="translate(1228.481445 0.578125)" xlink:href="#DejaVuSans-47"/>
      <use transform="translate(1262.172852 0.578125)" xlink:href="#DejaVuSans-Oblique-109"/>
      <use transform="translate(1359.584961 0.578125)" xlink:href="#DejaVuSans-Oblique-97"/>
      <use transform="translate(1420.864258 0.578125)" xlink:href="#DejaVuSans-Oblique-120"/>
      <use transform="translate(1480.043945 0.578125)" xlink:href="#DejaVuSans-40"/>
      <use transform="translate(1519.057617 0.578125)" xlink:href="#DejaVuSans-124"/>
      <use transform="translate(1552.749023 0.578125)" xlink:href="#DejaVuSans-Oblique-76"/>
      <use transform="translate(1608.461914 -15.828125)scale(0.7)" xlink:href="#DejaVuSans-Oblique-116"/>
      <use transform="translate(1635.908203 -15.828125)scale(0.7)" xlink:href="#DejaVuSans-Oblique-111"/>
      <use transform="translate(1678.735352 -15.828125)scale(0.7)" xlink:href="#DejaVuSans-Oblique-116"/>
      <use transform="translate(1708.916016 0.578125)" xlink:href="#DejaVuSans-124"/>
      <use transform="translate(1742.607422 0.578125)" xlink:href="#DejaVuSans-41"/>
      <use transform="translate(1781.621094 0.578125)" xlink:href="#DejaVuSans-93"/>
     </g>
    </g>
   </g>
   <g id="line2d_31">
    <path clip-path="url(#p66a1204371)" d="M 79.254818 314.5716 
L 79.463937 314.5716 
L 79.603349 314.222151 
L 79.951881 314.222151 
L 80.091293 313.872702 
L 80.404971 313.872702 
L 80.544384 313.523253 
L 80.892915 313.523253 
L 81.032327 313.173804 
L 81.346005 313.173804 
L 81.485418 312.824354 
L 81.799096 312.824354 
L 81.938509 312.474905 
L 82.28704 312.474905 
L 82.426452 312.125456 
L 82.74013 312.125456 
L 82.879543 311.776007 
L 83.228074 311.776007 
L 83.367487 311.426558 
L 83.681165 311.426558 
L 83.820577 311.077109 
L 84.169108 311.077109 
L 84.308521 310.72766 
L 84.622199 310.72766 
L 84.761611 310.378211 
L 85.110143 310.378211 
L 85.249555 310.028761 
L 85.563233 310.028761 
L 85.702646 309.679312 
L 86.016324 309.679312 
L 86.155736 309.329863 
L 86.504267 309.329863 
L 86.64368 308.980414 
L 86.957358 308.980414 
L 87.096771 308.630965 
L 87.445302 308.630965 
L 87.584714 308.281516 
L 87.898392 308.281516 
L 88.037805 307.932067 
L 88.386336 307.932067 
L 88.525749 307.582618 
L 88.839427 307.582618 
L 88.978839 307.233169 
L 89.32737 307.233169 
L 89.466783 306.883719 
L 89.780461 306.883719 
L 89.919873 306.53427 
L 90.233552 306.53427 
L 90.372964 306.184821 
L 90.721495 306.184821 
L 90.860908 305.835372 
L 91.174586 305.835372 
L 91.313998 305.485923 
L 91.662529 305.485923 
L 91.801942 305.136474 
L 92.11562 305.136474 
L 92.255033 304.787025 
L 92.603564 304.787025 
L 92.742976 304.437576 
L 93.056654 304.437576 
L 93.196067 304.088126 
L 93.509745 304.088126 
L 93.649157 303.738677 
L 93.997689 303.738677 
L 94.137101 303.389228 
L 94.450779 303.389228 
L 94.590192 303.039779 
L 94.938723 303.039779 
L 95.078135 302.69033 
L 95.391814 302.69033 
L 95.531226 302.340881 
L 95.879757 302.340881 
L 96.01917 301.991432 
L 96.332848 301.991432 
L 96.47226 301.641983 
L 96.820792 301.641983 
L 96.960204 301.292534 
L 97.273882 301.292534 
L 97.413295 300.943084 
L 97.726973 300.943084 
L 97.866385 300.593635 
L 98.214916 300.593635 
L 98.354329 300.244186 
L 98.668007 300.244186 
L 98.807419 299.894737 
L 99.155951 299.894737 
L 99.295363 299.545288 
L 99.609041 299.545288 
L 99.748454 299.195839 
L 100.096985 299.195839 
L 100.236397 298.84639 
L 100.550076 298.84639 
L 100.689488 298.496941 
L 101.038019 298.496941 
L 101.177432 298.147491 
L 101.49111 298.147491 
L 101.630522 297.798042 
L 101.9442 297.798042 
L 102.083613 297.448593 
L 102.432144 297.448593 
L 102.571557 297.099144 
L 102.885235 297.099144 
L 103.024647 296.749695 
L 103.373178 296.749695 
L 103.512591 296.400246 
L 103.826269 296.400246 
L 103.965681 296.050797 
L 104.314213 296.050797 
L 104.453625 295.701348 
L 104.767303 295.701348 
L 104.906716 295.351899 
L 105.220394 295.351899 
L 105.359806 295.002449 
L 105.708338 295.002449 
L 105.84775 294.653 
L 106.161428 294.653 
L 106.300841 294.303551 
L 106.649372 294.303551 
L 106.788784 293.954102 
L 107.102462 293.954102 
L 107.241875 293.604653 
L 107.590406 293.604653 
L 107.729819 293.255204 
L 108.043497 293.255204 
L 108.182909 292.905755 
L 108.53144 292.905755 
L 108.670853 292.556306 
L 108.984531 292.556306 
L 109.123943 292.206856 
L 109.437622 292.206856 
L 109.577034 291.857407 
L 109.925565 291.857407 
L 110.064978 291.507958 
L 110.378656 291.507958 
L 110.518068 291.158509 
L 110.8666 291.158509 
L 111.006012 290.80906 
L 111.31969 290.80906 
L 111.459103 290.459611 
L 111.807634 290.459611 
L 111.947046 290.110162 
L 112.260724 290.110162 
L 112.400137 289.760713 
L 112.748668 289.760713 
L 112.888081 289.411264 
L 113.201759 289.411264 
L 113.341171 289.061814 
L 113.654849 289.061814 
L 113.794262 288.712365 
L 114.142793 288.712365 
L 114.282205 288.362916 
L 114.595884 288.362916 
L 114.735296 288.013467 
L 115.083827 288.013467 
L 115.22324 287.664018 
L 115.536918 287.664018 
L 115.67633 287.314569 
L 116.024862 287.314569 
L 116.164274 286.96512 
L 116.477952 286.96512 
L 116.617365 286.615671 
L 116.965896 286.615671 
L 117.105308 286.266221 
L 117.418986 286.266221 
L 117.558399 285.916772 
L 117.872077 285.916772 
L 118.011489 285.567323 
L 118.360021 285.567323 
L 118.499433 285.217874 
L 118.813111 285.217874 
L 118.952524 284.868425 
L 119.301055 284.868425 
L 119.440467 284.518976 
L 119.754146 284.518976 
L 119.893558 284.169527 
L 120.242089 284.169527 
L 120.381502 283.820078 
L 120.69518 283.820078 
L 120.834592 283.470628 
L 121.14827 283.470628 
L 121.287683 283.121179 
L 121.636214 283.121179 
L 121.775627 282.77173 
L 122.089305 282.77173 
L 122.228717 282.422281 
L 122.577248 282.422281 
L 122.716661 282.072832 
L 123.030339 282.072832 
L 123.169751 281.723383 
L 123.518283 281.723383 
L 123.657695 281.373934 
L 123.971373 281.373934 
L 124.110786 281.024485 
L 124.459317 281.024485 
L 124.598729 280.675036 
L 124.912408 280.675036 
L 125.05182 280.325586 
L 125.365498 280.325586 
L 125.504911 279.976137 
L 125.853442 279.976137 
L 125.992854 279.626688 
L 126.306532 279.626688 
L 126.445945 279.277239 
L 126.794476 279.277239 
L 126.933889 278.92779 
L 127.247567 278.92779 
L 127.386979 278.578341 
L 127.73551 278.578341 
L 127.874923 278.228892 
L 128.188601 278.228892 
L 128.328014 277.879443 
L 128.676545 277.879443 
L 128.815957 277.529993 
L 129.129635 277.529993 
L 129.269048 277.180544 
L 129.617579 277.180544 
L 129.756991 276.831095 
L 130.07067 276.831095 
L 130.210082 276.481646 
L 130.52376 276.481646 
L 130.663173 276.132197 
L 131.011704 276.132197 
L 131.151116 275.782748 
L 131.464794 275.782748 
L 131.604207 275.433299 
L 131.952738 275.433299 
L 132.092151 275.08385 
L 132.405829 275.08385 
L 132.545241 274.734401 
L 132.893772 274.734401 
L 133.033185 274.384951 
L 133.346863 274.384951 
L 133.486276 274.035502 
L 133.834807 274.035502 
L 133.974219 273.686053 
L 134.287897 273.686053 
L 134.42731 273.336604 
L 134.740988 273.336604 
L 134.8804 272.987155 
L 135.228932 272.987155 
L 135.368344 272.637706 
L 135.682022 272.637706 
L 135.821435 272.288257 
L 136.169966 272.288257 
L 136.309378 271.938808 
L 136.623056 271.938808 
L 136.762469 271.589358 
L 137.111 271.589358 
L 137.250413 271.239909 
L 137.564091 271.239909 
L 137.703503 270.89046 
L 138.052034 270.89046 
L 138.191447 270.541011 
L 138.505125 270.541011 
L 138.644538 270.191562 
L 138.958216 270.191562 
L 139.097628 269.842113 
L 139.446159 269.842113 
L 139.585572 269.492664 
L 139.89925 269.492664 
L 140.038662 269.143215 
L 140.387194 269.143215 
L 140.526606 268.793766 
L 140.840284 268.793766 
L 140.979697 268.444316 
L 141.328228 268.444316 
L 141.46764 268.094867 
L 141.781318 268.094867 
L 141.920731 267.745418 
L 142.269262 267.745418 
L 142.408675 267.395969 
L 142.722353 267.395969 
L 142.861765 267.04652 
L 143.210296 267.04652 
L 143.349709 266.697071 
L 143.663387 266.697071 
L 143.8028 266.347622 
L 144.116478 266.347622 
L 144.25589 265.998173 
L 144.604421 265.998173 
L 144.743834 265.648723 
L 145.057512 265.648723 
L 145.196924 265.299274 
L 145.545456 265.299274 
L 145.684868 264.949825 
L 145.998546 264.949825 
L 146.137959 264.600376 
L 146.48649 264.600376 
L 146.625902 264.250927 
L 146.93958 264.250927 
L 147.078993 263.901478 
L 147.427524 263.901478 
L 147.566937 263.552029 
L 147.880615 263.552029 
L 148.020027 263.20258 
L 148.368558 263.20258 
L 148.507971 262.853131 
L 148.821649 262.853131 
L 148.961062 262.503681 
L 149.27474 262.503681 
L 149.414152 262.154232 
L 149.762683 262.154232 
L 149.902096 261.804783 
L 150.215774 261.804783 
L 150.355186 261.455334 
L 150.703718 261.455334 
L 150.84313 261.105885 
L 151.156808 261.105885 
L 151.296221 260.756436 
L 151.644752 260.756436 
L 151.784164 260.406987 
L 152.097842 260.406987 
L 152.237255 260.057538 
L 152.585786 260.057538 
L 152.725199 259.708088 
L 153.038877 259.708088 
L 153.178289 259.358639 
L 153.52682 259.358639 
L 153.666233 259.00919 
L 153.979911 259.00919 
L 154.119324 258.659741 
L 154.433002 258.659741 
L 154.572414 258.310292 
L 154.920945 258.310292 
L 155.060358 257.960843 
L 155.374036 257.960843 
L 155.513448 257.611394 
L 155.86198 257.611394 
L 156.001392 257.261945 
L 156.31507 257.261945 
L 156.454483 256.912496 
L 156.803014 256.912496 
L 156.942426 256.563046 
L 157.256104 256.563046 
L 157.395517 256.213597 
L 157.744048 256.213597 
L 157.883461 255.864148 
L 158.197139 255.864148 
L 158.336551 255.514699 
L 158.685082 255.514699 
L 158.824495 255.16525 
L 159.138173 255.16525 
L 159.277586 254.815801 
L 159.626117 254.815801 
L 159.765529 254.466352 
L 160.079207 254.466352 
L 160.21862 254.116903 
L 160.532298 254.116903 
L 160.67171 253.767453 
L 161.020242 253.767453 
L 161.159654 253.418004 
L 161.473332 253.418004 
L 161.612745 253.068555 
L 161.961276 253.068555 
L 162.100688 252.719106 
L 162.414367 252.719106 
L 162.553779 252.369657 
L 162.90231 252.369657 
L 163.041723 252.020208 
L 163.355401 252.020208 
L 163.494813 251.670759 
L 163.843344 251.670759 
L 163.982757 251.32131 
L 164.296435 251.32131 
L 164.435848 250.971861 
L 164.784379 250.971861 
L 164.923791 250.622411 
L 165.237469 250.622411 
L 165.376882 250.272962 
L 165.725413 250.272962 
L 165.864826 249.923513 
L 166.178504 249.923513 
L 166.317916 249.574064 
L 166.631594 249.574064 
L 166.771007 249.224615 
L 167.119538 249.224615 
L 167.25895 248.875166 
L 167.572629 248.875166 
L 167.712041 248.525717 
L 168.060572 248.525717 
L 168.199985 248.176268 
L 168.513663 248.176268 
L 168.653075 247.826818 
L 169.001606 247.826818 
L 169.141019 247.477369 
L 169.454697 247.477369 
L 169.59411 247.12792 
L 169.942641 247.12792 
L 170.082053 246.778471 
L 170.395731 246.778471 
L 170.535144 246.429022 
L 170.883675 246.429022 
L 171.023088 246.079573 
L 171.336766 246.079573 
L 171.476178 245.730124 
L 171.824709 245.730124 
L 171.964122 245.380675 
L 172.2778 245.380675 
L 172.417212 245.031226 
L 172.765744 245.031226 
L 172.905156 244.681776 
L 173.218834 244.681776 
L 173.358247 244.332327 
L 173.706778 244.332327 
L 173.84619 243.982878 
L 174.159869 243.982878 
L 174.299281 243.633429 
L 174.612959 243.633429 
L 174.752372 243.28398 
L 175.100903 243.28398 
L 175.240315 242.934531 
L 175.553993 242.934531 
L 175.693406 242.585082 
L 176.041937 242.585082 
L 176.18135 242.235633 
L 176.495028 242.235633 
L 176.63444 241.886183 
L 176.982971 241.886183 
L 177.122384 241.536734 
L 177.436062 241.536734 
L 177.575474 241.187285 
L 177.924006 241.187285 
L 178.063418 240.837836 
L 178.377096 240.837836 
L 178.516509 240.488387 
L 178.86504 240.488387 
L 179.004452 240.138938 
L 179.318131 240.138938 
L 179.457543 239.789489 
L 179.806074 239.789489 
L 179.945487 239.44004 
L 180.259165 239.44004 
L 180.398577 239.090591 
L 180.747109 239.090591 
L 180.886521 238.741141 
L 181.200199 238.741141 
L 181.339612 238.391692 
L 181.688143 238.391692 
L 181.827555 238.042243 
L 182.141233 238.042243 
L 182.280646 237.692794 
L 182.629177 237.692794 
L 182.76859 237.343345 
L 183.082268 237.343345 
L 183.22168 236.993896 
L 183.570211 236.993896 
L 183.709624 236.644447 
L 184.023302 236.644447 
L 184.162714 236.294998 
L 184.476393 236.294998 
L 184.615805 235.945548 
L 184.964336 235.945548 
L 185.103749 235.596099 
L 185.417427 235.596099 
L 185.556839 235.24665 
L 185.905371 235.24665 
L 186.044783 234.897201 
L 186.358461 234.897201 
L 186.497874 234.547752 
L 186.846405 234.547752 
L 186.985817 234.198303 
L 187.299495 234.198303 
L 187.438908 233.848854 
L 187.787439 233.848854 
L 187.926852 233.499405 
L 188.24053 233.499405 
L 188.379942 233.149955 
L 188.728473 233.149955 
L 188.867886 232.800506 
L 189.181564 232.800506 
L 189.320976 232.451057 
L 189.669508 232.451057 
L 189.80892 232.101608 
L 190.122598 232.101608 
L 190.262011 231.752159 
L 190.610542 231.752159 
L 190.749954 231.40271 
L 191.063633 231.40271 
L 191.203045 231.053261 
L 191.551576 231.053261 
L 191.690989 230.703812 
L 192.004667 230.703812 
L 192.144079 230.354363 
L 192.492611 230.354363 
L 192.632023 230.004913 
L 192.945701 230.004913 
L 193.085114 229.655464 
L 193.433645 229.655464 
L 193.573057 229.306015 
L 193.886735 229.306015 
L 194.026148 228.956566 
L 194.374679 228.956566 
L 194.514092 228.607117 
L 194.82777 228.607117 
L 194.967182 228.257668 
L 195.315713 228.257668 
L 195.455126 227.908219 
L 195.768804 227.908219 
L 195.908216 227.55877 
L 196.256748 227.55877 
L 196.39616 227.20932 
L 196.709838 227.20932 
L 196.849251 226.859871 
L 197.197782 226.859871 
L 197.337194 226.510422 
L 197.650873 226.510422 
L 197.790285 226.160973 
L 198.138816 226.160973 
L 198.278229 225.811524 
L 198.591907 225.811524 
L 198.731319 225.462075 
L 199.079851 225.462075 
L 199.219263 225.112626 
L 199.532941 225.112626 
L 199.672354 224.763177 
L 200.020885 224.763177 
L 200.160297 224.413728 
L 200.473975 224.413728 
L 200.613388 224.064278 
L 200.961919 224.064278 
L 201.101332 223.714829 
L 201.41501 223.714829 
L 201.554422 223.36538 
L 201.902953 223.36538 
L 202.042366 223.015931 
L 202.356044 223.015931 
L 202.495456 222.666482 
L 202.843988 222.666482 
L 202.9834 222.317033 
L 203.297078 222.317033 
L 203.436491 221.967584 
L 203.785022 221.967584 
L 203.924434 221.618135 
L 204.238113 221.618135 
L 204.377525 221.268685 
L 204.726056 221.268685 
L 204.865469 220.919236 
L 205.179147 220.919236 
L 205.318559 220.569787 
L 205.66709 220.569787 
L 205.806503 220.220338 
L 206.120181 220.220338 
L 206.259594 219.870889 
L 206.608125 219.870889 
L 206.747537 219.52144 
L 207.061215 219.52144 
L 207.200628 219.171991 
L 207.549159 219.171991 
L 207.688572 218.822542 
L 208.00225 218.822542 
L 208.141662 218.473093 
L 208.490193 218.473093 
L 208.629606 218.123643 
L 208.943284 218.123643 
L 209.082696 217.774194 
L 209.431228 217.774194 
L 209.57064 217.424745 
L 209.884318 217.424745 
L 210.023731 217.075296 
L 210.372262 217.075296 
L 210.511674 216.725847 
L 210.825353 216.725847 
L 210.964765 216.376398 
L 211.313296 216.376398 
L 211.452709 216.026949 
L 211.766387 216.026949 
L 211.905799 215.6775 
L 212.25433 215.6775 
L 212.393743 215.32805 
L 212.707421 215.32805 
L 212.846834 214.978601 
L 213.195365 214.978601 
L 213.334777 214.629152 
L 213.648455 214.629152 
L 213.787868 214.279703 
L 214.136399 214.279703 
L 214.275812 213.930254 
L 214.58949 213.930254 
L 214.728902 213.580805 
L 215.077433 213.580805 
L 215.216846 213.231356 
L 215.530524 213.231356 
L 215.669936 212.881907 
L 216.018468 212.881907 
L 216.15788 212.532458 
L 216.471558 212.532458 
L 216.610971 212.183008 
L 216.959502 212.183008 
L 217.098914 211.833559 
L 217.412593 211.833559 
L 217.552005 211.48411 
L 217.900536 211.48411 
L 218.039949 211.134661 
L 218.38848 211.134661 
L 218.527892 210.785212 
L 218.84157 210.785212 
L 218.980983 210.435763 
L 219.329514 210.435763 
L 219.468927 210.086314 
L 219.782605 210.086314 
L 219.922017 209.736865 
L 220.270548 209.736865 
L 220.409961 209.387415 
L 220.723639 209.387415 
L 220.863052 209.037966 
L 221.211583 209.037966 
L 221.350995 208.688517 
L 221.664673 208.688517 
L 221.804086 208.339068 
L 222.152617 208.339068 
L 222.29203 207.989619 
L 222.605708 207.989619 
L 222.74512 207.64017 
L 223.093651 207.64017 
L 223.233064 207.290721 
L 223.546742 207.290721 
L 223.686154 206.941272 
L 224.034686 206.941272 
L 224.174098 206.591823 
L 224.487776 206.591823 
L 224.627189 206.242373 
L 224.97572 206.242373 
L 225.115132 205.892924 
L 225.42881 205.892924 
L 225.568223 205.543475 
L 225.916754 205.543475 
L 226.056167 205.194026 
L 226.369845 205.194026 
L 226.509257 204.844577 
L 226.857788 204.844577 
L 226.997201 204.495128 
L 227.345732 204.495128 
L 227.485145 204.145679 
L 227.798823 204.145679 
L 227.938235 203.79623 
L 228.286766 203.79623 
L 228.426179 203.44678 
L 228.739857 203.44678 
L 228.87927 203.097331 
L 229.227801 203.097331 
L 229.367213 202.747882 
L 229.680891 202.747882 
L 229.820304 202.398433 
L 230.168835 202.398433 
L 230.308248 202.048984 
L 230.621926 202.048984 
L 230.761338 201.699535 
L 231.109869 201.699535 
L 231.249282 201.350086 
L 231.56296 201.350086 
L 231.702372 201.000637 
L 232.050904 201.000637 
L 232.190316 200.651188 
L 232.503994 200.651188 
L 232.643407 200.301738 
L 232.991938 200.301738 
L 233.13135 199.952289 
L 233.479882 199.952289 
L 233.619294 199.60284 
L 233.932972 199.60284 
L 234.072385 199.253391 
L 234.420916 199.253391 
L 234.560328 198.903942 
L 234.874006 198.903942 
L 235.013419 198.554493 
L 235.36195 198.554493 
L 235.501363 198.205044 
L 235.815041 198.205044 
L 235.954453 197.855595 
L 236.302984 197.855595 
L 236.442397 197.506145 
L 236.756075 197.506145 
L 236.895488 197.156696 
L 237.244019 197.156696 
L 237.383431 196.807247 
L 237.697109 196.807247 
L 237.836522 196.457798 
L 238.185053 196.457798 
L 238.324466 196.108349 
L 238.672997 196.108349 
L 238.812409 195.7589 
L 239.126087 195.7589 
L 239.2655 195.409451 
L 239.614031 195.409451 
L 239.753443 195.060002 
L 240.067122 195.060002 
L 240.206534 194.710553 
L 240.555065 194.710553 
L 240.694478 194.361103 
L 241.008156 194.361103 
L 241.147568 194.011654 
L 241.4961 194.011654 
L 241.635512 193.662205 
L 241.94919 193.662205 
L 242.088603 193.312756 
L 242.437134 193.312756 
L 242.576546 192.963307 
L 242.925078 192.963307 
L 243.06449 192.613858 
L 243.378168 192.613858 
L 243.517581 192.264409 
L 243.866112 192.264409 
L 244.005524 191.91496 
L 244.319202 191.91496 
L 244.458615 191.56551 
L 244.807146 191.56551 
L 244.946559 191.216061 
L 245.260237 191.216061 
L 245.399649 190.866612 
L 245.74818 190.866612 
L 245.887593 190.517163 
L 246.201271 190.517163 
L 246.340683 190.167714 
L 246.689215 190.167714 
L 246.828627 189.818265 
L 247.177158 189.818265 
L 247.316571 189.468816 
L 247.630249 189.468816 
L 247.769661 189.119367 
L 248.118193 189.119367 
L 248.257605 188.769918 
L 248.571283 188.769918 
L 248.710696 188.420468 
L 249.059227 188.420468 
L 249.198639 188.071019 
L 249.512318 188.071019 
L 249.65173 187.72157 
L 250.000261 187.72157 
L 250.139674 187.372121 
L 250.453352 187.372121 
L 250.592764 187.022672 
L 250.941296 187.022672 
L 251.080708 186.673223 
L 251.429239 186.673223 
L 251.568652 186.323774 
L 251.88233 186.323774 
L 252.021742 185.974325 
L 252.370274 185.974325 
L 252.509686 185.624875 
L 252.823364 185.624875 
L 252.962777 185.275426 
L 253.311308 185.275426 
L 253.45072 184.925977 
L 253.764398 184.925977 
L 253.903811 184.576528 
L 254.252342 184.576528 
L 254.391755 184.227079 
L 254.740286 184.227079 
L 254.879698 183.87763 
L 255.193376 183.87763 
L 255.332789 183.528181 
L 255.68132 183.528181 
L 255.820733 183.178732 
L 256.134411 183.178732 
L 256.273823 182.829282 
L 256.622354 182.829282 
L 256.761767 182.479833 
L 257.075445 182.479833 
L 257.214857 182.130384 
L 257.563389 182.130384 
L 257.702801 181.780935 
L 258.051332 181.780935 
L 258.190745 181.431486 
L 258.504423 181.431486 
L 258.643835 181.082037 
L 258.992367 181.082037 
L 259.131779 180.732588 
L 259.445457 180.732588 
L 259.58487 180.383139 
L 259.933401 180.383139 
L 260.072813 180.03369 
L 260.421345 180.03369 
L 260.560757 179.68424 
L 260.874435 179.68424 
L 261.013848 179.334791 
L 261.362379 179.334791 
L 261.501791 178.985342 
L 261.81547 178.985342 
L 261.954882 178.635893 
L 262.303413 178.635893 
L 262.442826 178.286444 
L 262.756504 178.286444 
L 262.895916 177.936995 
L 263.244448 177.936995 
L 263.38386 177.587546 
L 263.732391 177.587546 
L 263.871804 177.238097 
L 264.185482 177.238097 
L 264.324894 176.888647 
L 264.673425 176.888647 
L 264.812838 176.539198 
L 265.126516 176.539198 
L 265.265929 176.189749 
L 265.61446 176.189749 
L 265.753872 175.8403 
L 266.102403 175.8403 
L 266.241816 175.490851 
L 266.555494 175.490851 
L 266.694907 175.141402 
L 267.043438 175.141402 
L 267.18285 174.791953 
L 267.496528 174.791953 
L 267.635941 174.442504 
L 267.984472 174.442504 
L 268.123885 174.093055 
L 268.437563 174.093055 
L 268.576975 173.743605 
L 268.925506 173.743605 
L 269.064919 173.394156 
L 269.41345 173.394156 
L 269.552863 173.044707 
L 269.866541 173.044707 
L 270.005953 172.695258 
L 270.354484 172.695258 
L 270.493897 172.345809 
L 270.807575 172.345809 
L 270.946987 171.99636 
L 271.295519 171.99636 
L 271.434931 171.646911 
L 271.783462 171.646911 
L 271.922875 171.297462 
L 272.236553 171.297462 
L 272.375965 170.948012 
L 272.724497 170.948012 
L 272.863909 170.598563 
L 273.177587 170.598563 
L 273.317 170.249114 
L 273.665531 170.249114 
L 273.804943 169.899665 
L 274.153475 169.899665 
L 274.292887 169.550216 
L 274.606565 169.550216 
L 274.745978 169.200767 
L 275.094509 169.200767 
L 275.233921 168.851318 
L 275.547599 168.851318 
L 275.687012 168.501869 
L 276.035543 168.501869 
L 276.174956 168.15242 
L 276.523487 168.15242 
L 276.662899 167.80297 
L 276.976577 167.80297 
L 277.11599 167.453521 
L 277.464521 167.453521 
L 277.603934 167.104072 
L 277.917612 167.104072 
L 278.057024 166.754623 
L 278.405555 166.754623 
L 278.544968 166.405174 
L 278.893499 166.405174 
L 279.032912 166.055725 
L 279.34659 166.055725 
L 279.486002 165.706276 
L 279.834533 165.706276 
L 279.973946 165.356827 
L 280.287624 165.356827 
L 280.427036 165.007377 
L 280.775568 165.007377 
L 280.91498 164.657928 
L 281.263511 164.657928 
L 281.402924 164.308479 
L 281.716602 164.308479 
L 281.856014 163.95903 
L 282.204546 163.95903 
L 282.343958 163.609581 
L 282.692489 163.609581 
L 282.831902 163.260132 
L 283.14558 163.260132 
L 283.284992 162.910683 
L 283.633524 162.910683 
L 283.772936 162.561234 
L 284.086614 162.561234 
L 284.226027 162.211785 
L 284.574558 162.211785 
L 284.71397 161.862335 
L 285.062502 161.862335 
L 285.201914 161.512886 
L 285.515592 161.512886 
L 285.655005 161.163437 
L 286.003536 161.163437 
L 286.142948 160.813988 
L 286.456627 160.813988 
L 286.596039 160.464539 
L 286.94457 160.464539 
L 287.083983 160.11509 
L 287.432514 160.11509 
L 287.571926 159.765641 
L 287.885605 159.765641 
L 288.025017 159.416192 
L 288.373548 159.416192 
L 288.512961 159.066742 
L 288.861492 159.066742 
L 289.000904 158.717293 
L 289.314583 158.717293 
L 289.453995 158.367844 
L 289.802526 158.367844 
L 289.941939 158.018395 
L 290.255617 158.018395 
L 290.395029 157.668946 
L 290.743561 157.668946 
L 290.882973 157.319497 
L 291.231504 157.319497 
L 291.370917 156.970048 
L 291.684595 156.970048 
L 291.824007 156.620599 
L 292.172538 156.620599 
L 292.311951 156.27115 
L 292.660482 156.27115 
L 292.799895 155.9217 
L 293.113573 155.9217 
L 293.252985 155.572251 
L 293.601516 155.572251 
L 293.740929 155.222802 
L 294.054607 155.222802 
L 294.19402 154.873353 
L 294.542551 154.873353 
L 294.681963 154.523904 
L 295.030494 154.523904 
L 295.169907 154.174455 
L 295.483585 154.174455 
L 295.622998 153.825006 
L 295.971529 153.825006 
L 296.110941 153.475557 
L 296.459472 153.475557 
L 296.598885 153.126107 
L 296.912563 153.126107 
L 297.051976 152.776658 
L 297.400507 152.776658 
L 297.539919 152.427209 
L 297.853597 152.427209 
L 297.99301 152.07776 
L 298.341541 152.07776 
L 298.480954 151.728311 
L 298.829485 151.728311 
L 298.968897 151.378862 
L 299.282575 151.378862 
L 299.421988 151.029413 
L 299.770519 151.029413 
L 299.909932 150.679964 
L 300.258463 150.679964 
L 300.397875 150.330515 
L 300.711553 150.330515 
L 300.850966 149.981065 
L 301.199497 149.981065 
L 301.33891 149.631616 
L 301.687441 149.631616 
L 301.826853 149.282167 
L 302.140531 149.282167 
L 302.279944 148.932718 
L 302.628475 148.932718 
L 302.767887 148.583269 
L 303.081566 148.583269 
L 303.220978 148.23382 
L 303.569509 148.23382 
L 303.708922 147.884371 
L 304.057453 147.884371 
L 304.196865 147.534922 
L 304.510544 147.534922 
L 304.649956 147.185472 
L 304.998487 147.185472 
L 305.1379 146.836023 
L 305.486431 146.836023 
L 305.625843 146.486574 
L 305.939522 146.486574 
L 306.078934 146.137125 
L 306.427465 146.137125 
L 306.566878 145.787676 
L 306.915409 145.787676 
L 307.054821 145.438227 
L 307.3685 145.438227 
L 307.507912 145.088778 
L 307.856443 145.088778 
L 307.995856 144.739329 
L 308.309534 144.739329 
L 308.448946 144.38988 
L 308.797478 144.38988 
L 308.93689 144.04043 
L 309.285421 144.04043 
L 309.424834 143.690981 
L 309.738512 143.690981 
L 309.877924 143.341532 
L 310.226456 143.341532 
L 310.365868 142.992083 
L 310.714399 142.992083 
L 310.853812 142.642634 
L 311.16749 142.642634 
L 311.306902 142.293185 
L 311.655434 142.293185 
L 311.794846 141.943736 
L 312.143377 141.943736 
L 312.28279 141.594287 
L 312.596468 141.594287 
L 312.73588 141.244837 
L 313.084412 141.244837 
L 313.223824 140.895388 
L 313.572355 140.895388 
L 313.711768 140.545939 
L 314.025446 140.545939 
L 314.164858 140.19649 
L 314.513389 140.19649 
L 314.652802 139.847041 
L 315.001333 139.847041 
L 315.140746 139.497592 
L 315.454424 139.497592 
L 315.593836 139.148143 
L 315.942367 139.148143 
L 316.08178 138.798694 
L 316.430311 138.798694 
L 316.569724 138.449245 
L 316.883402 138.449245 
L 317.022814 138.099795 
L 317.371345 138.099795 
L 317.510758 137.750346 
L 317.824436 137.750346 
L 317.963849 137.400897 
L 318.31238 137.400897 
L 318.451792 137.051448 
L 318.800323 137.051448 
L 318.939736 136.701999 
L 319.253414 136.701999 
L 319.392827 136.35255 
L 319.741358 136.35255 
L 319.88077 136.003101 
L 320.229301 136.003101 
L 320.368714 135.653652 
L 320.682392 135.653652 
L 320.821805 135.304202 
L 321.170336 135.304202 
L 321.309748 134.954753 
L 321.658279 134.954753 
L 321.797692 134.605304 
L 322.11137 134.605304 
L 322.250783 134.255855 
L 322.599314 134.255855 
L 322.738726 133.906406 
L 323.087257 133.906406 
L 323.22667 133.556957 
L 323.540348 133.556957 
L 323.67976 133.207508 
L 324.028292 133.207508 
L 324.167704 132.858059 
L 324.516235 132.858059 
L 324.655648 132.508609 
L 324.969326 132.508609 
L 325.108738 132.15916 
L 325.45727 132.15916 
L 325.596682 131.809711 
L 325.945213 131.809711 
L 326.084626 131.460262 
L 326.398304 131.460262 
L 326.537716 131.110813 
L 326.886248 131.110813 
L 327.02566 130.761364 
L 327.374191 130.761364 
L 327.513604 130.411915 
L 327.827282 130.411915 
L 327.966694 130.062466 
L 328.315226 130.062466 
L 328.454638 129.713017 
L 328.803169 129.713017 
L 328.942582 129.363567 
L 329.25626 129.363567 
L 329.395672 129.014118 
L 329.744204 129.014118 
L 329.883616 128.664669 
L 330.232147 128.664669 
L 330.37156 128.31522 
L 330.685238 128.31522 
L 330.82465 127.965771 
L 331.173182 127.965771 
L 331.312594 127.616322 
L 331.661125 127.616322 
L 331.800538 127.266873 
L 332.114216 127.266873 
L 332.253628 126.917424 
L 332.60216 126.917424 
L 332.741572 126.567974 
L 333.090103 126.567974 
L 333.229516 126.218525 
L 333.543194 126.218525 
L 333.682606 125.869076 
L 334.031138 125.869076 
L 334.17055 125.519627 
L 334.519081 125.519627 
L 334.658494 125.170178 
L 334.972172 125.170178 
L 335.111584 124.820729 
L 335.460116 124.820729 
L 335.599528 124.47128 
L 335.948059 124.47128 
L 336.087472 124.121831 
L 336.40115 124.121831 
L 336.540562 123.772382 
L 336.889094 123.772382 
L 337.028506 123.422932 
L 337.377037 123.422932 
L 337.51645 123.073483 
L 337.830128 123.073483 
L 337.96954 122.724034 
L 338.318072 122.724034 
L 338.457484 122.374585 
L 338.806015 122.374585 
L 338.945428 122.025136 
L 339.259106 122.025136 
L 339.398518 121.675687 
L 339.74705 121.675687 
L 339.886462 121.326238 
L 340.234993 121.326238 
L 340.374406 120.976789 
L 340.688084 120.976789 
L 340.827496 120.627339 
L 341.176028 120.627339 
L 341.31544 120.27789 
L 341.663971 120.27789 
L 341.803384 119.928441 
L 342.117062 119.928441 
L 342.256474 119.578992 
L 342.605006 119.578992 
L 342.744418 119.229543 
L 343.092949 119.229543 
L 343.232362 118.880094 
L 343.580893 118.880094 
L 343.720305 118.530645 
L 344.033984 118.530645 
L 344.173396 118.181196 
L 344.521927 118.181196 
L 344.66134 117.831747 
L 345.009871 117.831747 
L 345.149283 117.482297 
L 345.462962 117.482297 
L 345.602374 117.132848 
L 345.950905 117.132848 
L 346.090318 116.783399 
L 346.438849 116.783399 
L 346.578261 116.43395 
L 346.89194 116.43395 
L 347.031352 116.084501 
L 347.379883 116.084501 
L 347.519296 115.735052 
L 347.867827 115.735052 
L 348.007239 115.385603 
L 348.320918 115.385603 
L 348.46033 115.036154 
L 348.808861 115.036154 
L 348.948274 114.686704 
L 349.296805 114.686704 
L 349.436217 114.337255 
L 349.749896 114.337255 
L 349.889308 113.987806 
L 350.237839 113.987806 
L 350.377252 113.638357 
L 350.725783 113.638357 
L 350.865195 113.288908 
L 351.178873 113.288908 
L 351.318286 112.939459 
L 351.666817 112.939459 
L 351.80623 112.59001 
L 352.154761 112.59001 
L 352.294173 112.240561 
L 352.607851 112.240561 
L 352.747264 111.891112 
L 353.095795 111.891112 
L 353.235208 111.541662 
L 353.583739 111.541662 
L 353.723151 111.192213 
L 354.036829 111.192213 
L 354.176242 110.842764 
L 354.524773 110.842764 
L 354.664186 110.493315 
L 355.012717 110.493315 
L 355.152129 110.143866 
L 355.500661 110.143866 
L 355.640073 109.794417 
L 355.953751 109.794417 
L 356.093164 109.444968 
L 356.441695 109.444968 
L 356.581107 109.095519 
L 356.929639 109.095519 
L 357.069051 108.746069 
L 357.382729 108.746069 
L 357.522142 108.39662 
L 357.870673 108.39662 
L 358.010085 108.047171 
L 358.358617 108.047171 
L 358.498029 107.697722 
L 358.811707 107.697722 
L 358.95112 107.348273 
L 359.299651 107.348273 
L 359.439063 106.998824 
L 359.787595 106.998824 
L 359.927007 106.649375 
L 360.240685 106.649375 
L 360.380098 106.299926 
L 360.728629 106.299926 
L 360.868041 105.950477 
L 361.216573 105.950477 
L 361.355985 105.601027 
L 361.669663 105.601027 
L 361.809076 105.251578 
L 362.157607 105.251578 
L 362.297019 104.902129 
L 362.645551 104.902129 
L 362.784963 104.55268 
L 363.133494 104.55268 
L 363.272907 104.203231 
L 363.586585 104.203231 
L 363.725997 103.853782 
L 364.074529 103.853782 
L 364.213941 103.504333 
L 364.562472 103.504333 
L 364.701885 103.154884 
L 365.015563 103.154884 
L 365.154975 102.805434 
L 365.503507 102.805434 
L 365.642919 102.455985 
L 365.99145 102.455985 
L 366.130863 102.106536 
L 366.444541 102.106536 
L 366.583953 101.757087 
L 366.932484 101.757087 
L 367.071897 101.407638 
L 367.420428 101.407638 
L 367.559841 101.058189 
L 367.873519 101.058189 
L 368.012931 100.70874 
L 368.361462 100.70874 
L 368.500875 100.359291 
L 368.849406 100.359291 
L 368.988819 100.009842 
L 369.33735 100.009842 
L 369.476762 99.660392 
L 369.79044 99.660392 
L 369.929853 99.310943 
L 370.278384 99.310943 
L 370.417797 98.961494 
L 370.766328 98.961494 
L 370.90574 98.612045 
L 371.219418 98.612045 
L 371.358831 98.262596 
L 371.707362 98.262596 
L 371.846775 97.913147 
L 372.195306 97.913147 
L 372.334718 97.563698 
L 372.648396 97.563698 
L 372.787809 97.214249 
L 373.13634 97.214249 
L 373.275753 96.864799 
L 373.624284 96.864799 
L 373.763696 96.51535 
L 374.077374 96.51535 
L 374.216787 96.165901 
L 374.565318 96.165901 
L 374.704731 95.816452 
L 375.053262 95.816452 
L 375.192674 95.467003 
L 375.541206 95.467003 
L 375.680618 95.117554 
L 375.994296 95.117554 
L 376.133709 94.768105 
L 376.48224 94.768105 
L 376.621652 94.418656 
L 376.970184 94.418656 
L 377.109596 94.069207 
L 377.423274 94.069207 
L 377.562687 93.719757 
L 377.911218 93.719757 
L 378.05063 93.370308 
L 378.399162 93.370308 
L 378.538574 93.020859 
L 378.852252 93.020859 
L 378.991665 92.67141 
L 379.340196 92.67141 
L 379.479608 92.321961 
L 379.82814 92.321961 
L 379.967552 91.972512 
L 380.316083 91.972512 
L 380.455496 91.623063 
L 380.769174 91.623063 
L 380.908586 91.273614 
L 381.257118 91.273614 
L 381.39653 90.924164 
L 381.745061 90.924164 
L 381.884474 90.574715 
L 382.198152 90.574715 
L 382.337564 90.225266 
L 382.686095 90.225266 
L 382.825508 89.875817 
L 383.174039 89.875817 
L 383.313452 89.526368 
L 383.62713 89.526368 
L 383.766542 89.176919 
L 384.115073 89.176919 
L 384.254486 88.82747 
L 384.603017 88.82747 
L 384.74243 88.478021 
L 385.090961 88.478021 
L 385.230373 88.128572 
L 385.544051 88.128572 
L 385.683464 87.779122 
L 386.031995 87.779122 
L 386.171408 87.429673 
L 386.519939 87.429673 
L 386.659351 87.080224 
L 386.973029 87.080224 
L 387.112442 86.730775 
L 387.460973 86.730775 
L 387.600386 86.381326 
L 387.948917 86.381326 
L 388.088329 86.031877 
L 388.402007 86.031877 
L 388.54142 85.682428 
L 388.889951 85.682428 
L 389.029364 85.332979 
L 389.377895 85.332979 
L 389.517307 84.983529 
L 389.830985 84.983529 
L 389.970398 84.63408 
L 390.318929 84.63408 
L 390.458342 84.284631 
L 390.806873 84.284631 
L 390.946285 83.935182 
L 391.294817 83.935182 
L 391.434229 83.585733 
L 391.747907 83.585733 
L 391.88732 83.236284 
L 392.235851 83.236284 
L 392.375263 82.886835 
L 392.723795 82.886835 
L 392.863207 82.537386 
L 393.176885 82.537386 
L 393.316298 82.187936 
L 393.664829 82.187936 
L 393.804241 81.838487 
L 394.152773 81.838487 
L 394.292185 81.489038 
L 394.605863 81.489038 
L 394.745276 81.139589 
L 395.093807 81.139589 
L 395.233219 80.79014 
L 395.581751 80.79014 
L 395.721163 80.440691 
L 396.069694 80.440691 
L 396.209107 80.091242 
L 396.522785 80.091242 
L 396.662197 79.741793 
L 397.010729 79.741793 
L 397.150141 79.392344 
L 397.498672 79.392344 
L 397.638085 79.042894 
L 397.951763 79.042894 
L 398.091175 78.693445 
L 398.439706 78.693445 
L 398.579119 78.343996 
L 398.92765 78.343996 
L 399.067063 77.994547 
L 399.415594 77.994547 
L 399.555006 77.645098 
L 399.868684 77.645098 
L 400.008097 77.295649 
L 400.356628 77.295649 
L 400.496041 76.9462 
L 400.844572 76.9462 
L 400.983984 76.596751 
L 401.297662 76.596751 
L 401.437075 76.247301 
L 401.785606 76.247301 
L 401.925019 75.897852 
L 402.27355 75.897852 
L 402.412962 75.548403 
L 402.72664 75.548403 
L 402.866053 75.198954 
L 403.214584 75.198954 
L 403.353997 74.849505 
L 403.702528 74.849505 
L 403.84194 74.500056 
L 404.190472 74.500056 
L 404.329884 74.150607 
L 404.643562 74.150607 
L 404.782975 73.801158 
L 405.131506 73.801158 
L 405.270918 73.451709 
L 405.61945 73.451709 
L 405.758862 73.102259 
L 406.07254 73.102259 
L 406.211953 72.75281 
L 406.560484 72.75281 
L 406.699896 72.403361 
L 407.048428 72.403361 
L 407.18784 72.053912 
L 407.501518 72.053912 
L 407.640931 71.704463 
L 407.989462 71.704463 
L 408.128874 71.355014 
L 408.477406 71.355014 
L 408.616818 71.005565 
L 408.965349 71.005565 
L 409.104762 70.656116 
L 409.41844 70.656116 
L 409.557852 70.306666 
L 409.906384 70.306666 
L 410.045796 69.957217 
L 410.394327 69.957217 
L 410.53374 69.607768 
L 410.847418 69.607768 
L 410.98683 69.258319 
L 411.335362 69.258319 
L 411.474774 68.90887 
L 411.823305 68.90887 
L 411.962718 68.559421 
L 412.276396 68.559421 
L 412.415808 68.209972 
L 412.764339 68.209972 
L 412.903752 67.860523 
L 413.252283 67.860523 
L 413.391696 67.511074 
L 413.740227 67.511074 
L 413.879639 67.161624 
L 414.193317 67.161624 
L 414.33273 66.812175 
L 414.681261 66.812175 
L 414.820674 66.462726 
L 415.169205 66.462726 
L 415.308617 66.113277 
L 415.622295 66.113277 
L 415.761708 65.763828 
L 416.110239 65.763828 
L 416.249652 65.414379 
L 416.598183 65.414379 
L 416.737595 65.06493 
L 417.086127 65.06493 
L 417.225539 64.715481 
L 417.539217 64.715481 
L 417.67863 64.366031 
L 418.027161 64.366031 
L 418.166573 64.016582 
L 418.515105 64.016582 
L 418.654517 63.667133 
L 418.968195 63.667133 
L 419.107608 63.317684 
L 419.456139 63.317684 
L 419.595551 62.968235 
L 419.944083 62.968235 
L 420.083495 62.618786 
L 420.397173 62.618786 
L 420.536586 62.269337 
L 420.885117 62.269337 
L 421.024529 61.919888 
L 421.373061 61.919888 
L 421.512473 61.570439 
L 421.861004 61.570439 
L 422.000417 61.220989 
L 422.314095 61.220989 
L 422.453507 60.87154 
L 422.802039 60.87154 
L 422.941451 60.522091 
L 423.289982 60.522091 
L 423.429395 60.172642 
L 423.743073 60.172642 
L 423.882485 59.823193 
L 424.231017 59.823193 
L 424.370429 59.473744 
L 424.71896 59.473744 
L 424.858373 59.124295 
L 425.172051 59.124295 
L 425.311463 58.774846 
L 425.659995 58.774846 
L 425.799407 58.425396 
L 426.147938 58.425396 
L 426.287351 58.075947 
L 426.635882 58.075947 
L 426.775294 57.726498 
L 427.088973 57.726498 
L 427.228385 57.377049 
L 427.576916 57.377049 
L 427.716329 57.0276 
L 427.751182 57.0276 
L 427.751182 57.0276 
" style="fill:none;stroke:#1f77b4;stroke-linecap:square;stroke-width:1.5;"/>
   </g>
   <g id="patch_3">
    <path d="M 61.83 327.4488 
L 61.83 44.1504 
" style="fill:none;stroke:#000000;stroke-linecap:square;stroke-linejoin:miter;stroke-width:0.8;"/>
   </g>
   <g id="patch_4">
    <path d="M 445.176 327.4488 
L 445.176 44.1504 
" style="fill:none;stroke:#000000;stroke-linecap:square;stroke-linejoin:miter;stroke-width:0.8;"/>
   </g>
   <g id="patch_5">
    <path d="M 61.83 327.4488 
L 445.176 327.4488 
" style="fill:none;stroke:#000000;stroke-linecap:square;stroke-linejoin:miter;stroke-width:0.8;"/>
   </g>
   <g id="patch_6">
    <path d="M 61.83 44.1504 
L 445.176 44.1504 
" style="fill:none;stroke:#000000;stroke-linecap:square;stroke-linejoin:miter;stroke-width:0.8;"/>
   </g>
   <g id="text_18">
    <!-- n = 2, N = 1.0e+04, dt = 0.0001, Euler, Simulated time = 1.00 years -->
    <g transform="translate(44.741437 24.713025)scale(0.12 -0.12)">
     <defs>
      <path d="M 10.59375 45.40625 
L 73.1875 45.40625 
L 73.1875 37.203125 
L 10.59375 37.203125 
z
M 10.59375 25.484375 
L 73.1875 25.484375 
L 73.1875 17.1875 
L 10.59375 17.1875 
z
" id="DejaVuSans-61"/>
      <path d="M 11.71875 12.40625 
L 22.015625 12.40625 
L 22.015625 4 
L 14.015625 -11.625 
L 7.71875 -11.625 
L 11.71875 4 
z
" id="DejaVuSans-44"/>
      <path d="M 46 62.703125 
L 46 35.5 
L 73.1875 35.5 
L 73.1875 27.203125 
L 46 27.203125 
L 46 0 
L 37.796875 0 
L 37.796875 27.203125 
L 10.59375 27.203125 
L 10.59375 35.5 
L 37.796875 35.5 
L 37.796875 62.703125 
z
" id="DejaVuSans-43"/>
      <path d="M 45.40625 46.390625 
L 45.40625 75.984375 
L 54.390625 75.984375 
L 54.390625 0 
L 45.40625 0 
L 45.40625 8.203125 
Q 42.578125 3.328125 38.25 0.953125 
Q 33.9375 -1.421875 27.875 -1.421875 
Q 17.96875 -1.421875 11.734375 6.484375 
Q 5.515625 14.40625 5.515625 27.296875 
Q 5.515625 40.1875 11.734375 48.09375 
Q 17.96875 56 27.875 56 
Q 33.9375 56 38.25 53.625 
Q 42.578125 51.265625 45.40625 46.390625 
z
M 14.796875 27.296875 
Q 14.796875 17.390625 18.875 11.75 
Q 22.953125 6.109375 30.078125 6.109375 
Q 37.203125 6.109375 41.296875 11.75 
Q 45.40625 17.390625 45.40625 27.296875 
Q 45.40625 37.203125 41.296875 42.84375 
Q 37.203125 48.484375 30.078125 48.484375 
Q 22.953125 48.484375 18.875 42.84375 
Q 14.796875 37.203125 14.796875 27.296875 
z
" id="DejaVuSans-100"/>
      <path d="M 9.8125 72.90625 
L 55.90625 72.90625 
L 55.90625 64.59375 
L 19.671875 64.59375 
L 19.671875 43.015625 
L 54.390625 43.015625 
L 54.390625 34.71875 
L 19.671875 34.71875 
L 19.671875 8.296875 
L 56.78125 8.296875 
L 56.78125 0 
L 9.8125 0 
z
" id="DejaVuSans-69"/>
      <path d="M 53.515625 70.515625 
L 53.515625 60.890625 
Q 47.90625 63.578125 42.921875 64.890625 
Q 37.9375 66.21875 33.296875 66.21875 
Q 25.25 66.21875 20.875 63.09375 
Q 16.5 59.96875 16.5 54.203125 
Q 16.5 49.359375 19.40625 46.890625 
Q 22.3125 44.4375 30.421875 42.921875 
L 36.375 41.703125 
Q 47.40625 39.59375 52.65625 34.296875 
Q 57.90625 29 57.90625 20.125 
Q 57.90625 9.515625 50.796875 4.046875 
Q 43.703125 -1.421875 29.984375 -1.421875 
Q 24.8125 -1.421875 18.96875 -0.25 
Q 13.140625 0.921875 6.890625 3.21875 
L 6.890625 13.375 
Q 12.890625 10.015625 18.65625 8.296875 
Q 24.421875 6.59375 29.984375 6.59375 
Q 38.421875 6.59375 43.015625 9.90625 
Q 47.609375 13.234375 47.609375 19.390625 
Q 47.609375 24.75 44.3125 27.78125 
Q 41.015625 30.8125 33.5 32.328125 
L 27.484375 33.5 
Q 16.453125 35.6875 11.515625 40.375 
Q 6.59375 45.0625 6.59375 53.421875 
Q 6.59375 63.09375 13.40625 68.65625 
Q 20.21875 74.21875 32.171875 74.21875 
Q 37.3125 74.21875 42.625 73.28125 
Q 47.953125 72.359375 53.515625 70.515625 
z
" id="DejaVuSans-83"/>
      <path d="M 32.171875 -5.078125 
Q 28.375 -14.84375 24.75 -17.8125 
Q 21.140625 -20.796875 15.09375 -20.796875 
L 7.90625 -20.796875 
L 7.90625 -13.28125 
L 13.1875 -13.28125 
Q 16.890625 -13.28125 18.9375 -11.515625 
Q 21 -9.765625 23.484375 -3.21875 
L 25.09375 0.875 
L 2.984375 54.6875 
L 12.5 54.6875 
L 29.59375 11.921875 
L 46.6875 54.6875 
L 56.203125 54.6875 
z
" id="DejaVuSans-121"/>
     </defs>
     <use xlink:href="#DejaVuSans-110"/>
     <use x="63.378906" xlink:href="#DejaVuSans-32"/>
     <use x="95.166016" xlink:href="#DejaVuSans-61"/>
     <use x="178.955078" xlink:href="#DejaVuSans-32"/>
     <use x="210.742188" xlink:href="#DejaVuSans-50"/>
     <use x="274.365234" xlink:href="#DejaVuSans-44"/>
     <use x="306.152344" xlink:href="#DejaVuSans-32"/>
     <use x="337.939453" xlink:href="#DejaVuSans-78"/>
     <use x="412.744141" xlink:href="#DejaVuSans-32"/>
     <use x="444.53125" xlink:href="#DejaVuSans-61"/>
     <use x="528.320312" xlink:href="#DejaVuSans-32"/>
     <use x="560.107422" xlink:href="#DejaVuSans-49"/>
     <use x="623.730469" xlink:href="#DejaVuSans-46"/>
     <use x="655.517578" xlink:href="#DejaVuSans-48"/>
     <use x="719.140625" xlink:href="#DejaVuSans-101"/>
     <use x="780.664062" xlink:href="#DejaVuSans-43"/>
     <use x="864.453125" xlink:href="#DejaVuSans-48"/>
     <use x="928.076172" xlink:href="#DejaVuSans-52"/>
     <use x="991.699219" xlink:href="#DejaVuSans-44"/>
     <use x="1023.486328" xlink:href="#DejaVuSans-32"/>
     <use x="1055.273438" xlink:href="#DejaVuSans-100"/>
     <use x="1118.75" xlink:href="#DejaVuSans-116"/>
     <use x="1157.958984" xlink:href="#DejaVuSans-32"/>
     <use x="1189.746094" xlink:href="#DejaVuSans-61"/>
     <use x="1273.535156" xlink:href="#DejaVuSans-32"/>
     <use x="1305.322266" xlink:href="#DejaVuSans-48"/>
     <use x="1368.945312" xlink:href="#DejaVuSans-46"/>
     <use x="1400.732422" xlink:href="#DejaVuSans-48"/>
     <use x="1464.355469" xlink:href="#DejaVuSans-48"/>
     <use x="1527.978516" xlink:href="#DejaVuSans-48"/>
     <use x="1591.601562" xlink:href="#DejaVuSans-49"/>
     <use x="1655.224609" xlink:href="#DejaVuSans-44"/>
     <use x="1687.011719" xlink:href="#DejaVuSans-32"/>
     <use x="1718.798828" xlink:href="#DejaVuSans-69"/>
     <use x="1781.982422" xlink:href="#DejaVuSans-117"/>
     <use x="1845.361328" xlink:href="#DejaVuSans-108"/>
     <use x="1873.144531" xlink:href="#DejaVuSans-101"/>
     <use x="1934.667969" xlink:href="#DejaVuSans-114"/>
     <use x="1975.78125" xlink:href="#DejaVuSans-44"/>
     <use x="2007.568359" xlink:href="#DejaVuSans-32"/>
     <use x="2039.355469" xlink:href="#DejaVuSans-83"/>
     <use x="2102.832031" xlink:href="#DejaVuSans-105"/>
     <use x="2130.615234" xlink:href="#DejaVuSans-109"/>
     <use x="2228.027344" xlink:href="#DejaVuSans-117"/>
     <use x="2291.40625" xlink:href="#DejaVuSans-108"/>
     <use x="2319.189453" xlink:href="#DejaVuSans-97"/>
     <use x="2380.46875" xlink:href="#DejaVuSans-116"/>
     <use x="2419.677734" xlink:href="#DejaVuSans-101"/>
     <use x="2481.201172" xlink:href="#DejaVuSans-100"/>
     <use x="2544.677734" xlink:href="#DejaVuSans-32"/>
     <use x="2576.464844" xlink:href="#DejaVuSans-116"/>
     <use x="2615.673828" xlink:href="#DejaVuSans-105"/>
     <use x="2643.457031" xlink:href="#DejaVuSans-109"/>
     <use x="2740.869141" xlink:href="#DejaVuSans-101"/>
     <use x="2802.392578" xlink:href="#DejaVuSans-32"/>
     <use x="2834.179688" xlink:href="#DejaVuSans-61"/>
     <use x="2917.96875" xlink:href="#DejaVuSans-32"/>
     <use x="2949.755859" xlink:href="#DejaVuSans-49"/>
     <use x="3013.378906" xlink:href="#DejaVuSans-46"/>
     <use x="3045.166016" xlink:href="#DejaVuSans-48"/>
     <use x="3108.789062" xlink:href="#DejaVuSans-48"/>
     <use x="3172.412109" xlink:href="#DejaVuSans-32"/>
     <use x="3204.199219" xlink:href="#DejaVuSans-121"/>
     <use x="3263.378906" xlink:href="#DejaVuSans-101"/>
     <use x="3324.902344" xlink:href="#DejaVuSans-97"/>
     <use x="3386.181641" xlink:href="#DejaVuSans-114"/>
     <use x="3427.294922" xlink:href="#DejaVuSans-115"/>
    </g>
    <!--  -->
    <g transform="translate(253.503 38.1504)scale(0.12 -0.12)"/>
   </g>
   <g id="legend_1">
    <g id="patch_7">
     <path d="M 68.83 322.4488 
L 454.9175 322.4488 
Q 456.9175 322.4488 456.9175 320.4488 
L 456.9175 306.49255 
Q 456.9175 304.49255 454.9175 304.49255 
L 68.83 304.49255 
Q 66.83 304.49255 66.83 306.49255 
L 66.83 320.4488 
Q 66.83 322.4488 68.83 322.4488 
z
" style="fill:#ffffff;opacity:0.8;stroke:#cccccc;stroke-linejoin:miter;"/>
    </g>
    <g id="line2d_32">
     <path d="M 70.83 312.590988 
L 90.83 312.590988 
" style="fill:none;stroke:#1f77b4;stroke-linecap:square;stroke-width:1.5;"/>
    </g>
    <g id="line2d_33"/>
    <g id="text_19">
     <!-- Angular momentum magnitude. L_mean = 9.98e-01, L_std = 1.12e-03 -->
     <g transform="translate(98.83 316.090988)scale(0.1 -0.1)">
      <defs>
       <path d="M 9.8125 72.90625 
L 19.671875 72.90625 
L 19.671875 8.296875 
L 55.171875 8.296875 
L 55.171875 0 
L 9.8125 0 
z
" id="DejaVuSans-76"/>
       <path d="M 50.984375 -16.609375 
L 50.984375 -23.578125 
L -0.984375 -23.578125 
L -0.984375 -16.609375 
z
" id="DejaVuSans-95"/>
       <path d="M 4.890625 31.390625 
L 31.203125 31.390625 
L 31.203125 23.390625 
L 4.890625 23.390625 
z
" id="DejaVuSans-45"/>
       <path d="M 40.578125 39.3125 
Q 47.65625 37.796875 51.625 33 
Q 55.609375 28.21875 55.609375 21.1875 
Q 55.609375 10.40625 48.1875 4.484375 
Q 40.765625 -1.421875 27.09375 -1.421875 
Q 22.515625 -1.421875 17.65625 -0.515625 
Q 12.796875 0.390625 7.625 2.203125 
L 7.625 11.71875 
Q 11.71875 9.328125 16.59375 8.109375 
Q 21.484375 6.890625 26.8125 6.890625 
Q 36.078125 6.890625 40.9375 10.546875 
Q 45.796875 14.203125 45.796875 21.1875 
Q 45.796875 27.640625 41.28125 31.265625 
Q 36.765625 34.90625 28.71875 34.90625 
L 20.21875 34.90625 
L 20.21875 43.015625 
L 29.109375 43.015625 
Q 36.375 43.015625 40.234375 45.921875 
Q 44.09375 48.828125 44.09375 54.296875 
Q 44.09375 59.90625 40.109375 62.90625 
Q 36.140625 65.921875 28.71875 65.921875 
Q 24.65625 65.921875 20.015625 65.03125 
Q 15.375 64.15625 9.8125 62.3125 
L 9.8125 71.09375 
Q 15.4375 72.65625 20.34375 73.4375 
Q 25.25 74.21875 29.59375 74.21875 
Q 40.828125 74.21875 47.359375 69.109375 
Q 53.90625 64.015625 53.90625 55.328125 
Q 53.90625 49.265625 50.4375 45.09375 
Q 46.96875 40.921875 40.578125 39.3125 
z
" id="DejaVuSans-51"/>
      </defs>
      <use xlink:href="#DejaVuSans-65"/>
      <use x="68.408203" xlink:href="#DejaVuSans-110"/>
      <use x="131.787109" xlink:href="#DejaVuSans-103"/>
      <use x="195.263672" xlink:href="#DejaVuSans-117"/>
      <use x="258.642578" xlink:href="#DejaVuSans-108"/>
      <use x="286.425781" xlink:href="#DejaVuSans-97"/>
      <use x="347.705078" xlink:href="#DejaVuSans-114"/>
      <use x="388.818359" xlink:href="#DejaVuSans-32"/>
      <use x="420.605469" xlink:href="#DejaVuSans-109"/>
      <use x="518.017578" xlink:href="#DejaVuSans-111"/>
      <use x="579.199219" xlink:href="#DejaVuSans-109"/>
      <use x="676.611328" xlink:href="#DejaVuSans-101"/>
      <use x="738.134766" xlink:href="#DejaVuSans-110"/>
      <use x="801.513672" xlink:href="#DejaVuSans-116"/>
      <use x="840.722656" xlink:href="#DejaVuSans-117"/>
      <use x="904.101562" xlink:href="#DejaVuSans-109"/>
      <use x="1001.513672" xlink:href="#DejaVuSans-32"/>
      <use x="1033.300781" xlink:href="#DejaVuSans-109"/>
      <use x="1130.712891" xlink:href="#DejaVuSans-97"/>
      <use x="1191.992188" xlink:href="#DejaVuSans-103"/>
      <use x="1255.46875" xlink:href="#DejaVuSans-110"/>
      <use x="1318.847656" xlink:href="#DejaVuSans-105"/>
      <use x="1346.630859" xlink:href="#DejaVuSans-116"/>
      <use x="1385.839844" xlink:href="#DejaVuSans-117"/>
      <use x="1449.21875" xlink:href="#DejaVuSans-100"/>
      <use x="1512.695312" xlink:href="#DejaVuSans-101"/>
      <use x="1574.21875" xlink:href="#DejaVuSans-46"/>
      <use x="1606.005859" xlink:href="#DejaVuSans-32"/>
      <use x="1637.792969" xlink:href="#DejaVuSans-76"/>
      <use x="1693.505859" xlink:href="#DejaVuSans-95"/>
      <use x="1743.505859" xlink:href="#DejaVuSans-109"/>
      <use x="1840.917969" xlink:href="#DejaVuSans-101"/>
      <use x="1902.441406" xlink:href="#DejaVuSans-97"/>
      <use x="1963.720703" xlink:href="#DejaVuSans-110"/>
      <use x="2027.099609" xlink:href="#DejaVuSans-32"/>
      <use x="2058.886719" xlink:href="#DejaVuSans-61"/>
      <use x="2142.675781" xlink:href="#DejaVuSans-32"/>
      <use x="2174.462891" xlink:href="#DejaVuSans-57"/>
      <use x="2238.085938" xlink:href="#DejaVuSans-46"/>
      <use x="2269.873047" xlink:href="#DejaVuSans-57"/>
      <use x="2333.496094" xlink:href="#DejaVuSans-56"/>
      <use x="2397.119141" xlink:href="#DejaVuSans-101"/>
      <use x="2458.642578" xlink:href="#DejaVuSans-45"/>
      <use x="2494.726562" xlink:href="#DejaVuSans-48"/>
      <use x="2558.349609" xlink:href="#DejaVuSans-49"/>
      <use x="2621.972656" xlink:href="#DejaVuSans-44"/>
      <use x="2653.759766" xlink:href="#DejaVuSans-32"/>
      <use x="2685.546875" xlink:href="#DejaVuSans-76"/>
      <use x="2741.259766" xlink:href="#DejaVuSans-95"/>
      <use x="2791.259766" xlink:href="#DejaVuSans-115"/>
      <use x="2843.359375" xlink:href="#DejaVuSans-116"/>
      <use x="2882.568359" xlink:href="#DejaVuSans-100"/>
      <use x="2946.044922" xlink:href="#DejaVuSans-32"/>
      <use x="2977.832031" xlink:href="#DejaVuSans-61"/>
      <use x="3061.621094" xlink:href="#DejaVuSans-32"/>
      <use x="3093.408203" xlink:href="#DejaVuSans-49"/>
      <use x="3157.03125" xlink:href="#DejaVuSans-46"/>
      <use x="3188.818359" xlink:href="#DejaVuSans-49"/>
      <use x="3252.441406" xlink:href="#DejaVuSans-50"/>
      <use x="3316.064453" xlink:href="#DejaVuSans-101"/>
      <use x="3377.587891" xlink:href="#DejaVuSans-45"/>
      <use x="3413.671875" xlink:href="#DejaVuSans-48"/>
      <use x="3477.294922" xlink:href="#DejaVuSans-51"/>
     </g>
    </g>
   </g>
  </g>
 </g>
 <defs>
  <clipPath id="p66a1204371">
   <rect height="283.2984" width="383.346" x="61.83" y="44.1504"/>
  </clipPath>
 </defs>
</svg>
