<?xml version="1.0" encoding="utf-8" standalone="no"?>
<!DOCTYPE svg PUBLIC "-//W3C//DTD SVG 1.1//EN"
  "http://www.w3.org/Graphics/SVG/1.1/DTD/svg11.dtd">
<!-- Created with matplotlib (https://matplotlib.org/) -->
<svg height="392.4pt" version="1.1" viewBox="0 0 527.76 392.4" width="527.76pt" xmlns="http://www.w3.org/2000/svg" xmlns:xlink="http://www.w3.org/1999/xlink">
 <metadata>
  <rdf:RDF xmlns:cc="http://creativecommons.org/ns#" xmlns:dc="http://purl.org/dc/elements/1.1/" xmlns:rdf="http://www.w3.org/1999/02/22-rdf-syntax-ns#">
   <cc:Work>
    <dc:type rdf:resource="http://purl.org/dc/dcmitype/StillImage"/>
    <dc:date>2020-10-19T21:35:34.051740</dc:date>
    <dc:format>image/svg+xml</dc:format>
    <dc:creator>
     <cc:Agent>
      <dc:title>Matplotlib v3.3.2, https://matplotlib.org/</dc:title>
     </cc:Agent>
    </dc:creator>
   </cc:Work>
  </rdf:RDF>
 </metadata>
 <defs>
  <style type="text/css">*{stroke-linecap:butt;stroke-linejoin:round;}</style>
 </defs>
 <g id="figure_1">
  <g id="patch_1">
   <path d="M 0 392.4 
L 527.76 392.4 
L 527.76 0 
L 0 0 
z
" style="fill:#ffffff;"/>
  </g>
  <g id="axes_1">
   <g id="patch_2">
    <path d="M 65.97 349.236 
L 474.984 349.236 
L 474.984 47.088 
L 65.97 47.088 
z
" style="fill:#ffffff;"/>
   </g>
   <g id="matplotlib.axis_1">
    <g id="xtick_1">
     <g id="line2d_1">
      <path clip-path="url(#pa9df118cfe)" d="M 84.561545 349.236 
L 84.561545 47.088 
" style="fill:none;stroke:#b0b0b0;stroke-linecap:square;stroke-width:0.8;"/>
     </g>
     <g id="line2d_2">
      <defs>
       <path d="M 0 0 
L 0 3.5 
" id="mc1b6f30574" style="stroke:#000000;stroke-width:0.8;"/>
      </defs>
      <g>
       <use style="stroke:#000000;stroke-width:0.8;" x="84.561545" xlink:href="#mc1b6f30574" y="349.236"/>
      </g>
     </g>
     <g id="text_1">
      <!-- 0 -->
      <g transform="translate(81.380295 363.834438)scale(0.1 -0.1)">
       <defs>
        <path d="M 31.78125 66.40625 
Q 24.171875 66.40625 20.328125 58.90625 
Q 16.5 51.421875 16.5 36.375 
Q 16.5 21.390625 20.328125 13.890625 
Q 24.171875 6.390625 31.78125 6.390625 
Q 39.453125 6.390625 43.28125 13.890625 
Q 47.125 21.390625 47.125 36.375 
Q 47.125 51.421875 43.28125 58.90625 
Q 39.453125 66.40625 31.78125 66.40625 
z
M 31.78125 74.21875 
Q 44.046875 74.21875 50.515625 64.515625 
Q 56.984375 54.828125 56.984375 36.375 
Q 56.984375 17.96875 50.515625 8.265625 
Q 44.046875 -1.421875 31.78125 -1.421875 
Q 19.53125 -1.421875 13.0625 8.265625 
Q 6.59375 17.96875 6.59375 36.375 
Q 6.59375 54.828125 13.0625 64.515625 
Q 19.53125 74.21875 31.78125 74.21875 
z
" id="DejaVuSans-48"/>
       </defs>
       <use xlink:href="#DejaVuSans-48"/>
      </g>
     </g>
    </g>
    <g id="xtick_2">
     <g id="line2d_3">
      <path clip-path="url(#pa9df118cfe)" d="M 159.527455 349.236 
L 159.527455 47.088 
" style="fill:none;stroke:#b0b0b0;stroke-linecap:square;stroke-width:0.8;"/>
     </g>
     <g id="line2d_4">
      <g>
       <use style="stroke:#000000;stroke-width:0.8;" x="159.527455" xlink:href="#mc1b6f30574" y="349.236"/>
      </g>
     </g>
     <g id="text_2">
      <!-- 50 -->
      <g transform="translate(153.164955 363.834438)scale(0.1 -0.1)">
       <defs>
        <path d="M 10.796875 72.90625 
L 49.515625 72.90625 
L 49.515625 64.59375 
L 19.828125 64.59375 
L 19.828125 46.734375 
Q 21.96875 47.46875 24.109375 47.828125 
Q 26.265625 48.1875 28.421875 48.1875 
Q 40.625 48.1875 47.75 41.5 
Q 54.890625 34.8125 54.890625 23.390625 
Q 54.890625 11.625 47.5625 5.09375 
Q 40.234375 -1.421875 26.90625 -1.421875 
Q 22.3125 -1.421875 17.546875 -0.640625 
Q 12.796875 0.140625 7.71875 1.703125 
L 7.71875 11.625 
Q 12.109375 9.234375 16.796875 8.0625 
Q 21.484375 6.890625 26.703125 6.890625 
Q 35.15625 6.890625 40.078125 11.328125 
Q 45.015625 15.765625 45.015625 23.390625 
Q 45.015625 31 40.078125 35.4375 
Q 35.15625 39.890625 26.703125 39.890625 
Q 22.75 39.890625 18.8125 39.015625 
Q 14.890625 38.140625 10.796875 36.28125 
z
" id="DejaVuSans-53"/>
       </defs>
       <use xlink:href="#DejaVuSans-53"/>
       <use x="63.623047" xlink:href="#DejaVuSans-48"/>
      </g>
     </g>
    </g>
    <g id="xtick_3">
     <g id="line2d_5">
      <path clip-path="url(#pa9df118cfe)" d="M 234.493364 349.236 
L 234.493364 47.088 
" style="fill:none;stroke:#b0b0b0;stroke-linecap:square;stroke-width:0.8;"/>
     </g>
     <g id="line2d_6">
      <g>
       <use style="stroke:#000000;stroke-width:0.8;" x="234.493364" xlink:href="#mc1b6f30574" y="349.236"/>
      </g>
     </g>
     <g id="text_3">
      <!-- 100 -->
      <g transform="translate(224.949614 363.834438)scale(0.1 -0.1)">
       <defs>
        <path d="M 12.40625 8.296875 
L 28.515625 8.296875 
L 28.515625 63.921875 
L 10.984375 60.40625 
L 10.984375 69.390625 
L 28.421875 72.90625 
L 38.28125 72.90625 
L 38.28125 8.296875 
L 54.390625 8.296875 
L 54.390625 0 
L 12.40625 0 
z
" id="DejaVuSans-49"/>
       </defs>
       <use xlink:href="#DejaVuSans-49"/>
       <use x="63.623047" xlink:href="#DejaVuSans-48"/>
       <use x="127.246094" xlink:href="#DejaVuSans-48"/>
      </g>
     </g>
    </g>
    <g id="xtick_4">
     <g id="line2d_7">
      <path clip-path="url(#pa9df118cfe)" d="M 309.459273 349.236 
L 309.459273 47.088 
" style="fill:none;stroke:#b0b0b0;stroke-linecap:square;stroke-width:0.8;"/>
     </g>
     <g id="line2d_8">
      <g>
       <use style="stroke:#000000;stroke-width:0.8;" x="309.459273" xlink:href="#mc1b6f30574" y="349.236"/>
      </g>
     </g>
     <g id="text_4">
      <!-- 150 -->
      <g transform="translate(299.915523 363.834438)scale(0.1 -0.1)">
       <use xlink:href="#DejaVuSans-49"/>
       <use x="63.623047" xlink:href="#DejaVuSans-53"/>
       <use x="127.246094" xlink:href="#DejaVuSans-48"/>
      </g>
     </g>
    </g>
    <g id="xtick_5">
     <g id="line2d_9">
      <path clip-path="url(#pa9df118cfe)" d="M 384.425182 349.236 
L 384.425182 47.088 
" style="fill:none;stroke:#b0b0b0;stroke-linecap:square;stroke-width:0.8;"/>
     </g>
     <g id="line2d_10">
      <g>
       <use style="stroke:#000000;stroke-width:0.8;" x="384.425182" xlink:href="#mc1b6f30574" y="349.236"/>
      </g>
     </g>
     <g id="text_5">
      <!-- 200 -->
      <g transform="translate(374.881432 363.834438)scale(0.1 -0.1)">
       <defs>
        <path d="M 19.1875 8.296875 
L 53.609375 8.296875 
L 53.609375 0 
L 7.328125 0 
L 7.328125 8.296875 
Q 12.9375 14.109375 22.625 23.890625 
Q 32.328125 33.6875 34.8125 36.53125 
Q 39.546875 41.84375 41.421875 45.53125 
Q 43.3125 49.21875 43.3125 52.78125 
Q 43.3125 58.59375 39.234375 62.25 
Q 35.15625 65.921875 28.609375 65.921875 
Q 23.96875 65.921875 18.8125 64.3125 
Q 13.671875 62.703125 7.8125 59.421875 
L 7.8125 69.390625 
Q 13.765625 71.78125 18.9375 73 
Q 24.125 74.21875 28.421875 74.21875 
Q 39.75 74.21875 46.484375 68.546875 
Q 53.21875 62.890625 53.21875 53.421875 
Q 53.21875 48.921875 51.53125 44.890625 
Q 49.859375 40.875 45.40625 35.40625 
Q 44.1875 33.984375 37.640625 27.21875 
Q 31.109375 20.453125 19.1875 8.296875 
z
" id="DejaVuSans-50"/>
       </defs>
       <use xlink:href="#DejaVuSans-50"/>
       <use x="63.623047" xlink:href="#DejaVuSans-48"/>
       <use x="127.246094" xlink:href="#DejaVuSans-48"/>
      </g>
     </g>
    </g>
    <g id="xtick_6">
     <g id="line2d_11">
      <path clip-path="url(#pa9df118cfe)" d="M 459.391091 349.236 
L 459.391091 47.088 
" style="fill:none;stroke:#b0b0b0;stroke-linecap:square;stroke-width:0.8;"/>
     </g>
     <g id="line2d_12">
      <g>
       <use style="stroke:#000000;stroke-width:0.8;" x="459.391091" xlink:href="#mc1b6f30574" y="349.236"/>
      </g>
     </g>
     <g id="text_6">
      <!-- 250 -->
      <g transform="translate(449.847341 363.834438)scale(0.1 -0.1)">
       <use xlink:href="#DejaVuSans-50"/>
       <use x="63.623047" xlink:href="#DejaVuSans-53"/>
       <use x="127.246094" xlink:href="#DejaVuSans-48"/>
      </g>
     </g>
    </g>
    <g id="text_7">
     <!-- Time [year] -->
     <g transform="translate(241.597312 377.512563)scale(0.1 -0.1)">
      <defs>
       <path d="M -0.296875 72.90625 
L 61.375 72.90625 
L 61.375 64.59375 
L 35.5 64.59375 
L 35.5 0 
L 25.59375 0 
L 25.59375 64.59375 
L -0.296875 64.59375 
z
" id="DejaVuSans-84"/>
       <path d="M 9.421875 54.6875 
L 18.40625 54.6875 
L 18.40625 0 
L 9.421875 0 
z
M 9.421875 75.984375 
L 18.40625 75.984375 
L 18.40625 64.59375 
L 9.421875 64.59375 
z
" id="DejaVuSans-105"/>
       <path d="M 52 44.1875 
Q 55.375 50.25 60.0625 53.125 
Q 64.75 56 71.09375 56 
Q 79.640625 56 84.28125 50.015625 
Q 88.921875 44.046875 88.921875 33.015625 
L 88.921875 0 
L 79.890625 0 
L 79.890625 32.71875 
Q 79.890625 40.578125 77.09375 44.375 
Q 74.3125 48.1875 68.609375 48.1875 
Q 61.625 48.1875 57.5625 43.546875 
Q 53.515625 38.921875 53.515625 30.90625 
L 53.515625 0 
L 44.484375 0 
L 44.484375 32.71875 
Q 44.484375 40.625 41.703125 44.40625 
Q 38.921875 48.1875 33.109375 48.1875 
Q 26.21875 48.1875 22.15625 43.53125 
Q 18.109375 38.875 18.109375 30.90625 
L 18.109375 0 
L 9.078125 0 
L 9.078125 54.6875 
L 18.109375 54.6875 
L 18.109375 46.1875 
Q 21.1875 51.21875 25.484375 53.609375 
Q 29.78125 56 35.6875 56 
Q 41.65625 56 45.828125 52.96875 
Q 50 49.953125 52 44.1875 
z
" id="DejaVuSans-109"/>
       <path d="M 56.203125 29.59375 
L 56.203125 25.203125 
L 14.890625 25.203125 
Q 15.484375 15.921875 20.484375 11.0625 
Q 25.484375 6.203125 34.421875 6.203125 
Q 39.59375 6.203125 44.453125 7.46875 
Q 49.3125 8.734375 54.109375 11.28125 
L 54.109375 2.78125 
Q 49.265625 0.734375 44.1875 -0.34375 
Q 39.109375 -1.421875 33.890625 -1.421875 
Q 20.796875 -1.421875 13.15625 6.1875 
Q 5.515625 13.8125 5.515625 26.8125 
Q 5.515625 40.234375 12.765625 48.109375 
Q 20.015625 56 32.328125 56 
Q 43.359375 56 49.78125 48.890625 
Q 56.203125 41.796875 56.203125 29.59375 
z
M 47.21875 32.234375 
Q 47.125 39.59375 43.09375 43.984375 
Q 39.0625 48.390625 32.421875 48.390625 
Q 24.90625 48.390625 20.390625 44.140625 
Q 15.875 39.890625 15.1875 32.171875 
z
" id="DejaVuSans-101"/>
       <path id="DejaVuSans-32"/>
       <path d="M 8.59375 75.984375 
L 29.296875 75.984375 
L 29.296875 69 
L 17.578125 69 
L 17.578125 -6.203125 
L 29.296875 -6.203125 
L 29.296875 -13.1875 
L 8.59375 -13.1875 
z
" id="DejaVuSans-91"/>
       <path d="M 32.171875 -5.078125 
Q 28.375 -14.84375 24.75 -17.8125 
Q 21.140625 -20.796875 15.09375 -20.796875 
L 7.90625 -20.796875 
L 7.90625 -13.28125 
L 13.1875 -13.28125 
Q 16.890625 -13.28125 18.9375 -11.515625 
Q 21 -9.765625 23.484375 -3.21875 
L 25.09375 0.875 
L 2.984375 54.6875 
L 12.5 54.6875 
L 29.59375 11.921875 
L 46.6875 54.6875 
L 56.203125 54.6875 
z
" id="DejaVuSans-121"/>
       <path d="M 34.28125 27.484375 
Q 23.390625 27.484375 19.1875 25 
Q 14.984375 22.515625 14.984375 16.5 
Q 14.984375 11.71875 18.140625 8.90625 
Q 21.296875 6.109375 26.703125 6.109375 
Q 34.1875 6.109375 38.703125 11.40625 
Q 43.21875 16.703125 43.21875 25.484375 
L 43.21875 27.484375 
z
M 52.203125 31.203125 
L 52.203125 0 
L 43.21875 0 
L 43.21875 8.296875 
Q 40.140625 3.328125 35.546875 0.953125 
Q 30.953125 -1.421875 24.3125 -1.421875 
Q 15.921875 -1.421875 10.953125 3.296875 
Q 6 8.015625 6 15.921875 
Q 6 25.140625 12.171875 29.828125 
Q 18.359375 34.515625 30.609375 34.515625 
L 43.21875 34.515625 
L 43.21875 35.40625 
Q 43.21875 41.609375 39.140625 45 
Q 35.0625 48.390625 27.6875 48.390625 
Q 23 48.390625 18.546875 47.265625 
Q 14.109375 46.140625 10.015625 43.890625 
L 10.015625 52.203125 
Q 14.9375 54.109375 19.578125 55.046875 
Q 24.21875 56 28.609375 56 
Q 40.484375 56 46.34375 49.84375 
Q 52.203125 43.703125 52.203125 31.203125 
z
" id="DejaVuSans-97"/>
       <path d="M 41.109375 46.296875 
Q 39.59375 47.171875 37.8125 47.578125 
Q 36.03125 48 33.890625 48 
Q 26.265625 48 22.1875 43.046875 
Q 18.109375 38.09375 18.109375 28.8125 
L 18.109375 0 
L 9.078125 0 
L 9.078125 54.6875 
L 18.109375 54.6875 
L 18.109375 46.1875 
Q 20.953125 51.171875 25.484375 53.578125 
Q 30.03125 56 36.53125 56 
Q 37.453125 56 38.578125 55.875 
Q 39.703125 55.765625 41.0625 55.515625 
z
" id="DejaVuSans-114"/>
       <path d="M 30.421875 75.984375 
L 30.421875 -13.1875 
L 9.71875 -13.1875 
L 9.71875 -6.203125 
L 21.390625 -6.203125 
L 21.390625 69 
L 9.71875 69 
L 9.71875 75.984375 
z
" id="DejaVuSans-93"/>
      </defs>
      <use xlink:href="#DejaVuSans-84"/>
      <use x="57.958984" xlink:href="#DejaVuSans-105"/>
      <use x="85.742188" xlink:href="#DejaVuSans-109"/>
      <use x="183.154297" xlink:href="#DejaVuSans-101"/>
      <use x="244.677734" xlink:href="#DejaVuSans-32"/>
      <use x="276.464844" xlink:href="#DejaVuSans-91"/>
      <use x="315.478516" xlink:href="#DejaVuSans-121"/>
      <use x="374.658203" xlink:href="#DejaVuSans-101"/>
      <use x="436.181641" xlink:href="#DejaVuSans-97"/>
      <use x="497.460938" xlink:href="#DejaVuSans-114"/>
      <use x="538.574219" xlink:href="#DejaVuSans-93"/>
     </g>
    </g>
   </g>
   <g id="matplotlib.axis_2">
    <g id="ytick_1">
     <g id="line2d_13">
      <path clip-path="url(#pa9df118cfe)" d="M 65.97 311.839094 
L 474.984 311.839094 
" style="fill:none;stroke:#b0b0b0;stroke-linecap:square;stroke-width:0.8;"/>
     </g>
     <g id="line2d_14">
      <defs>
       <path d="M 0 0 
L -3.5 0 
" id="m906464fbf1" style="stroke:#000000;stroke-width:0.8;"/>
      </defs>
      <g>
       <use style="stroke:#000000;stroke-width:0.8;" x="65.97" xlink:href="#m906464fbf1" y="311.839094"/>
      </g>
     </g>
     <g id="text_8">
      <!-- −0.008 -->
      <g transform="translate(21.962187 315.638313)scale(0.1 -0.1)">
       <defs>
        <path d="M 10.59375 35.5 
L 73.1875 35.5 
L 73.1875 27.203125 
L 10.59375 27.203125 
z
" id="DejaVuSans-8722"/>
        <path d="M 10.6875 12.40625 
L 21 12.40625 
L 21 0 
L 10.6875 0 
z
" id="DejaVuSans-46"/>
        <path d="M 31.78125 34.625 
Q 24.75 34.625 20.71875 30.859375 
Q 16.703125 27.09375 16.703125 20.515625 
Q 16.703125 13.921875 20.71875 10.15625 
Q 24.75 6.390625 31.78125 6.390625 
Q 38.8125 6.390625 42.859375 10.171875 
Q 46.921875 13.96875 46.921875 20.515625 
Q 46.921875 27.09375 42.890625 30.859375 
Q 38.875 34.625 31.78125 34.625 
z
M 21.921875 38.8125 
Q 15.578125 40.375 12.03125 44.71875 
Q 8.5 49.078125 8.5 55.328125 
Q 8.5 64.0625 14.71875 69.140625 
Q 20.953125 74.21875 31.78125 74.21875 
Q 42.671875 74.21875 48.875 69.140625 
Q 55.078125 64.0625 55.078125 55.328125 
Q 55.078125 49.078125 51.53125 44.71875 
Q 48 40.375 41.703125 38.8125 
Q 48.828125 37.15625 52.796875 32.3125 
Q 56.78125 27.484375 56.78125 20.515625 
Q 56.78125 9.90625 50.3125 4.234375 
Q 43.84375 -1.421875 31.78125 -1.421875 
Q 19.734375 -1.421875 13.25 4.234375 
Q 6.78125 9.90625 6.78125 20.515625 
Q 6.78125 27.484375 10.78125 32.3125 
Q 14.796875 37.15625 21.921875 38.8125 
z
M 18.3125 54.390625 
Q 18.3125 48.734375 21.84375 45.5625 
Q 25.390625 42.390625 31.78125 42.390625 
Q 38.140625 42.390625 41.71875 45.5625 
Q 45.3125 48.734375 45.3125 54.390625 
Q 45.3125 60.0625 41.71875 63.234375 
Q 38.140625 66.40625 31.78125 66.40625 
Q 25.390625 66.40625 21.84375 63.234375 
Q 18.3125 60.0625 18.3125 54.390625 
z
" id="DejaVuSans-56"/>
       </defs>
       <use xlink:href="#DejaVuSans-8722"/>
       <use x="83.789062" xlink:href="#DejaVuSans-48"/>
       <use x="147.412109" xlink:href="#DejaVuSans-46"/>
       <use x="179.199219" xlink:href="#DejaVuSans-48"/>
       <use x="242.822266" xlink:href="#DejaVuSans-48"/>
       <use x="306.445312" xlink:href="#DejaVuSans-56"/>
      </g>
     </g>
    </g>
    <g id="ytick_2">
     <g id="line2d_15">
      <path clip-path="url(#pa9df118cfe)" d="M 65.97 272.668259 
L 474.984 272.668259 
" style="fill:none;stroke:#b0b0b0;stroke-linecap:square;stroke-width:0.8;"/>
     </g>
     <g id="line2d_16">
      <g>
       <use style="stroke:#000000;stroke-width:0.8;" x="65.97" xlink:href="#m906464fbf1" y="272.668259"/>
      </g>
     </g>
     <g id="text_9">
      <!-- −0.006 -->
      <g transform="translate(21.962187 276.467477)scale(0.1 -0.1)">
       <defs>
        <path d="M 33.015625 40.375 
Q 26.375 40.375 22.484375 35.828125 
Q 18.609375 31.296875 18.609375 23.390625 
Q 18.609375 15.53125 22.484375 10.953125 
Q 26.375 6.390625 33.015625 6.390625 
Q 39.65625 6.390625 43.53125 10.953125 
Q 47.40625 15.53125 47.40625 23.390625 
Q 47.40625 31.296875 43.53125 35.828125 
Q 39.65625 40.375 33.015625 40.375 
z
M 52.59375 71.296875 
L 52.59375 62.3125 
Q 48.875 64.0625 45.09375 64.984375 
Q 41.3125 65.921875 37.59375 65.921875 
Q 27.828125 65.921875 22.671875 59.328125 
Q 17.53125 52.734375 16.796875 39.40625 
Q 19.671875 43.65625 24.015625 45.921875 
Q 28.375 48.1875 33.59375 48.1875 
Q 44.578125 48.1875 50.953125 41.515625 
Q 57.328125 34.859375 57.328125 23.390625 
Q 57.328125 12.15625 50.6875 5.359375 
Q 44.046875 -1.421875 33.015625 -1.421875 
Q 20.359375 -1.421875 13.671875 8.265625 
Q 6.984375 17.96875 6.984375 36.375 
Q 6.984375 53.65625 15.1875 63.9375 
Q 23.390625 74.21875 37.203125 74.21875 
Q 40.921875 74.21875 44.703125 73.484375 
Q 48.484375 72.75 52.59375 71.296875 
z
" id="DejaVuSans-54"/>
       </defs>
       <use xlink:href="#DejaVuSans-8722"/>
       <use x="83.789062" xlink:href="#DejaVuSans-48"/>
       <use x="147.412109" xlink:href="#DejaVuSans-46"/>
       <use x="179.199219" xlink:href="#DejaVuSans-48"/>
       <use x="242.822266" xlink:href="#DejaVuSans-48"/>
       <use x="306.445312" xlink:href="#DejaVuSans-54"/>
      </g>
     </g>
    </g>
    <g id="ytick_3">
     <g id="line2d_17">
      <path clip-path="url(#pa9df118cfe)" d="M 65.97 233.497423 
L 474.984 233.497423 
" style="fill:none;stroke:#b0b0b0;stroke-linecap:square;stroke-width:0.8;"/>
     </g>
     <g id="line2d_18">
      <g>
       <use style="stroke:#000000;stroke-width:0.8;" x="65.97" xlink:href="#m906464fbf1" y="233.497423"/>
      </g>
     </g>
     <g id="text_10">
      <!-- −0.004 -->
      <g transform="translate(21.962187 237.296642)scale(0.1 -0.1)">
       <defs>
        <path d="M 37.796875 64.3125 
L 12.890625 25.390625 
L 37.796875 25.390625 
z
M 35.203125 72.90625 
L 47.609375 72.90625 
L 47.609375 25.390625 
L 58.015625 25.390625 
L 58.015625 17.1875 
L 47.609375 17.1875 
L 47.609375 0 
L 37.796875 0 
L 37.796875 17.1875 
L 4.890625 17.1875 
L 4.890625 26.703125 
z
" id="DejaVuSans-52"/>
       </defs>
       <use xlink:href="#DejaVuSans-8722"/>
       <use x="83.789062" xlink:href="#DejaVuSans-48"/>
       <use x="147.412109" xlink:href="#DejaVuSans-46"/>
       <use x="179.199219" xlink:href="#DejaVuSans-48"/>
       <use x="242.822266" xlink:href="#DejaVuSans-48"/>
       <use x="306.445312" xlink:href="#DejaVuSans-52"/>
      </g>
     </g>
    </g>
    <g id="ytick_4">
     <g id="line2d_19">
      <path clip-path="url(#pa9df118cfe)" d="M 65.97 194.326588 
L 474.984 194.326588 
" style="fill:none;stroke:#b0b0b0;stroke-linecap:square;stroke-width:0.8;"/>
     </g>
     <g id="line2d_20">
      <g>
       <use style="stroke:#000000;stroke-width:0.8;" x="65.97" xlink:href="#m906464fbf1" y="194.326588"/>
      </g>
     </g>
     <g id="text_11">
      <!-- −0.002 -->
      <g transform="translate(21.962187 198.125806)scale(0.1 -0.1)">
       <use xlink:href="#DejaVuSans-8722"/>
       <use x="83.789062" xlink:href="#DejaVuSans-48"/>
       <use x="147.412109" xlink:href="#DejaVuSans-46"/>
       <use x="179.199219" xlink:href="#DejaVuSans-48"/>
       <use x="242.822266" xlink:href="#DejaVuSans-48"/>
       <use x="306.445312" xlink:href="#DejaVuSans-50"/>
      </g>
     </g>
    </g>
    <g id="ytick_5">
     <g id="line2d_21">
      <path clip-path="url(#pa9df118cfe)" d="M 65.97 155.155752 
L 474.984 155.155752 
" style="fill:none;stroke:#b0b0b0;stroke-linecap:square;stroke-width:0.8;"/>
     </g>
     <g id="line2d_22">
      <g>
       <use style="stroke:#000000;stroke-width:0.8;" x="65.97" xlink:href="#m906464fbf1" y="155.155752"/>
      </g>
     </g>
     <g id="text_12">
      <!-- 0.000 -->
      <g transform="translate(30.341875 158.954971)scale(0.1 -0.1)">
       <use xlink:href="#DejaVuSans-48"/>
       <use x="63.623047" xlink:href="#DejaVuSans-46"/>
       <use x="95.410156" xlink:href="#DejaVuSans-48"/>
       <use x="159.033203" xlink:href="#DejaVuSans-48"/>
       <use x="222.65625" xlink:href="#DejaVuSans-48"/>
      </g>
     </g>
    </g>
    <g id="ytick_6">
     <g id="line2d_23">
      <path clip-path="url(#pa9df118cfe)" d="M 65.97 115.984917 
L 474.984 115.984917 
" style="fill:none;stroke:#b0b0b0;stroke-linecap:square;stroke-width:0.8;"/>
     </g>
     <g id="line2d_24">
      <g>
       <use style="stroke:#000000;stroke-width:0.8;" x="65.97" xlink:href="#m906464fbf1" y="115.984917"/>
      </g>
     </g>
     <g id="text_13">
      <!-- 0.002 -->
      <g transform="translate(30.341875 119.784135)scale(0.1 -0.1)">
       <use xlink:href="#DejaVuSans-48"/>
       <use x="63.623047" xlink:href="#DejaVuSans-46"/>
       <use x="95.410156" xlink:href="#DejaVuSans-48"/>
       <use x="159.033203" xlink:href="#DejaVuSans-48"/>
       <use x="222.65625" xlink:href="#DejaVuSans-50"/>
      </g>
     </g>
    </g>
    <g id="ytick_7">
     <g id="line2d_25">
      <path clip-path="url(#pa9df118cfe)" d="M 65.97 76.814081 
L 474.984 76.814081 
" style="fill:none;stroke:#b0b0b0;stroke-linecap:square;stroke-width:0.8;"/>
     </g>
     <g id="line2d_26">
      <g>
       <use style="stroke:#000000;stroke-width:0.8;" x="65.97" xlink:href="#m906464fbf1" y="76.814081"/>
      </g>
     </g>
     <g id="text_14">
      <!-- 0.004 -->
      <g transform="translate(30.341875 80.6133)scale(0.1 -0.1)">
       <use xlink:href="#DejaVuSans-48"/>
       <use x="63.623047" xlink:href="#DejaVuSans-46"/>
       <use x="95.410156" xlink:href="#DejaVuSans-48"/>
       <use x="159.033203" xlink:href="#DejaVuSans-48"/>
       <use x="222.65625" xlink:href="#DejaVuSans-52"/>
      </g>
     </g>
    </g>
    <g id="text_15">
     <!-- Energy -->
     <g transform="translate(15.8825 215.66825)rotate(-90)scale(0.1 -0.1)">
      <defs>
       <path d="M 9.8125 72.90625 
L 55.90625 72.90625 
L 55.90625 64.59375 
L 19.671875 64.59375 
L 19.671875 43.015625 
L 54.390625 43.015625 
L 54.390625 34.71875 
L 19.671875 34.71875 
L 19.671875 8.296875 
L 56.78125 8.296875 
L 56.78125 0 
L 9.8125 0 
z
" id="DejaVuSans-69"/>
       <path d="M 54.890625 33.015625 
L 54.890625 0 
L 45.90625 0 
L 45.90625 32.71875 
Q 45.90625 40.484375 42.875 44.328125 
Q 39.84375 48.1875 33.796875 48.1875 
Q 26.515625 48.1875 22.3125 43.546875 
Q 18.109375 38.921875 18.109375 30.90625 
L 18.109375 0 
L 9.078125 0 
L 9.078125 54.6875 
L 18.109375 54.6875 
L 18.109375 46.1875 
Q 21.34375 51.125 25.703125 53.5625 
Q 30.078125 56 35.796875 56 
Q 45.21875 56 50.046875 50.171875 
Q 54.890625 44.34375 54.890625 33.015625 
z
" id="DejaVuSans-110"/>
       <path d="M 45.40625 27.984375 
Q 45.40625 37.75 41.375 43.109375 
Q 37.359375 48.484375 30.078125 48.484375 
Q 22.859375 48.484375 18.828125 43.109375 
Q 14.796875 37.75 14.796875 27.984375 
Q 14.796875 18.265625 18.828125 12.890625 
Q 22.859375 7.515625 30.078125 7.515625 
Q 37.359375 7.515625 41.375 12.890625 
Q 45.40625 18.265625 45.40625 27.984375 
z
M 54.390625 6.78125 
Q 54.390625 -7.171875 48.1875 -13.984375 
Q 42 -20.796875 29.203125 -20.796875 
Q 24.46875 -20.796875 20.265625 -20.09375 
Q 16.0625 -19.390625 12.109375 -17.921875 
L 12.109375 -9.1875 
Q 16.0625 -11.328125 19.921875 -12.34375 
Q 23.78125 -13.375 27.78125 -13.375 
Q 36.625 -13.375 41.015625 -8.765625 
Q 45.40625 -4.15625 45.40625 5.171875 
L 45.40625 9.625 
Q 42.625 4.78125 38.28125 2.390625 
Q 33.9375 0 27.875 0 
Q 17.828125 0 11.671875 7.65625 
Q 5.515625 15.328125 5.515625 27.984375 
Q 5.515625 40.671875 11.671875 48.328125 
Q 17.828125 56 27.875 56 
Q 33.9375 56 38.28125 53.609375 
Q 42.625 51.21875 45.40625 46.390625 
L 45.40625 54.6875 
L 54.390625 54.6875 
z
" id="DejaVuSans-103"/>
      </defs>
      <use xlink:href="#DejaVuSans-69"/>
      <use x="63.183594" xlink:href="#DejaVuSans-110"/>
      <use x="126.5625" xlink:href="#DejaVuSans-101"/>
      <use x="188.085938" xlink:href="#DejaVuSans-114"/>
      <use x="227.449219" xlink:href="#DejaVuSans-103"/>
      <use x="290.925781" xlink:href="#DejaVuSans-121"/>
     </g>
    </g>
   </g>
   <g id="line2d_27">
    <path clip-path="url(#pa9df118cfe)" d="M 84.561545 67.87608 
L 85.678155 65.32978 
L 86.422561 63.848143 
L 87.166967 63.000682 
L 87.53917 62.698675 
L 87.911373 62.582337 
L 88.283577 62.625817 
L 89.027983 63.079611 
L 89.400186 63.446838 
L 90.516795 65.367971 
L 91.261201 66.942247 
L 92.750014 70.224567 
L 93.49442 71.766527 
L 94.983233 73.974783 
L 96.099842 74.815585 
L 96.844248 74.792866 
L 97.216451 74.716679 
L 97.960857 74.202366 
L 99.44967 72.146484 
L 100.566279 69.933332 
L 103.543904 63.112319 
L 104.28831 61.801467 
L 105.032717 61.111277 
L 105.777123 60.822 
L 106.149326 60.957531 
L 106.893732 61.596799 
L 107.638138 62.70553 
L 109.499154 66.966337 
L 111.36017 71.504474 
L 112.476779 73.654953 
L 113.221185 74.680837 
L 113.965591 75.472676 
L 114.337794 75.684786 
L 115.082201 75.725328 
L 115.454404 75.734337 
L 115.826607 75.555914 
L 116.571013 74.900586 
L 117.315419 73.976546 
L 119.176435 70.275489 
L 121.03745 66.000776 
L 122.15406 64.061624 
L 122.526263 63.550836 
L 123.270669 63.058655 
L 123.642872 62.947214 
L 124.015075 63.006362 
L 124.387278 63.267435 
L 125.503888 64.681698 
L 126.9927 67.780895 
L 128.10931 70.487795 
L 129.598122 73.587971 
L 130.714731 75.27173 
L 131.459138 75.847541 
L 132.203544 76.184214 
L 132.94795 75.982288 
L 133.692356 75.519289 
L 134.436762 74.498693 
L 135.181169 73.310054 
L 136.669981 70.020879 
L 138.9032 64.365394 
L 140.019809 62.265249 
L 140.764215 61.360011 
L 141.508622 61.097763 
L 141.880825 61.076415 
L 142.625231 61.676903 
L 143.369637 62.628951 
L 144.114043 64.140749 
L 145.230653 66.649641 
L 147.091668 70.909274 
L 148.208278 72.768126 
L 148.952684 73.721152 
L 150.069293 74.464614 
L 150.441496 74.550007 
L 151.185903 74.315765 
L 151.558106 74.17005 
L 152.302512 73.387612 
L 153.419121 71.794339 
L 157.513355 63.295442 
L 158.257762 62.434272 
L 158.629965 62.193175 
L 159.374371 62.203555 
L 159.746574 62.360435 
L 160.118777 62.643248 
L 160.863183 63.777635 
L 161.60759 65.206979 
L 165.701824 74.8385 
L 166.818433 76.364204 
L 167.190636 76.662294 
L 168.307246 76.986825 
L 169.423855 76.309561 
L 169.796058 75.96427 
L 170.540464 74.79032 
L 171.284871 73.436968 
L 172.773683 69.950763 
L 174.262495 66.186446 
L 175.006902 64.551847 
L 176.123511 63.026339 
L 176.495714 62.720415 
L 176.867917 62.562752 
L 177.612324 62.708272 
L 177.984527 62.926061 
L 178.728933 63.9116 
L 179.845542 65.889139 
L 182.078761 70.849734 
L 183.567573 73.368223 
L 184.684183 74.528855 
L 185.428589 74.70199 
L 186.172995 74.671632 
L 186.545198 74.5267 
L 187.661808 73.502383 
L 188.778417 71.627667 
L 189.522823 70.197148 
L 191.756042 64.849741 
L 193.244854 62.0739 
L 193.98926 61.315553 
L 194.361464 61.023338 
L 194.733667 60.985147 
L 195.478073 61.360599 
L 196.222479 62.152829 
L 197.339088 64.241026 
L 199.200104 68.865144 
L 200.316713 71.611215 
L 201.433323 73.935221 
L 202.549932 75.381408 
L 203.294338 75.913348 
L 204.410948 76.045354 
L 205.155354 75.537895 
L 205.89976 74.806184 
L 207.016369 73.001192 
L 208.132979 70.54048 
L 211.110604 64.219091 
L 211.85501 63.49776 
L 212.227213 63.260776 
L 212.599416 63.16755 
L 212.971619 63.245304 
L 213.716025 63.772151 
L 214.088229 64.191671 
L 215.204838 66.252057 
L 215.949244 67.871184 
L 217.81026 72.164307 
L 218.926869 74.200407 
L 219.671275 75.192213 
L 220.787885 76.099213 
L 221.532291 76.084133 
L 222.276697 75.790351 
L 222.6489 75.485798 
L 223.765509 74.055867 
L 224.882119 71.811965 
L 225.626525 70.131732 
L 227.859744 64.526778 
L 228.976353 62.365331 
L 229.720759 61.498284 
L 230.465165 61.024122 
L 230.837369 61.074064 
L 231.581775 61.585831 
L 232.326181 62.518881 
L 233.814993 65.541106 
L 236.048212 70.714007 
L 237.537025 73.316517 
L 238.653634 74.38216 
L 239.025837 74.570963 
L 239.770243 74.552553 
L 240.142446 74.543152 
L 240.886853 74.00044 
L 241.631259 73.143774 
L 242.003462 72.624564 
L 243.864477 68.891976 
L 245.35329 65.464332 
L 246.097696 64.044193 
L 247.214305 62.463846 
L 247.958712 62.121884 
L 248.330915 62.125605 
L 248.703118 62.266425 
L 249.075321 62.623075 
L 250.19193 64.302133 
L 251.680743 67.788337 
L 252.797352 70.709698 
L 254.286165 74.055671 
L 255.402774 75.846953 
L 256.14718 76.471924 
L 256.891586 76.891835 
L 257.635993 76.742203 
L 258.380399 76.29448 
L 259.124805 75.287594 
L 259.869211 74.138713 
L 260.985821 71.684073 
L 261.730227 69.857732 
L 262.846836 67.090901 
L 263.963446 64.589647 
L 265.080055 62.874356 
L 265.452258 62.557072 
L 266.196664 62.406264 
L 266.568867 62.428396 
L 267.313274 63.076477 
L 268.05768 64.089044 
L 269.174289 66.346655 
L 272.151914 72.478066 
L 273.268523 73.87901 
L 274.01293 74.34436 
L 274.757336 74.586436 
L 275.129539 74.567046 
L 276.246148 73.850807 
L 276.990554 72.911491 
L 278.107164 71.023457 
L 281.456992 63.335593 
L 282.201398 62.080363 
L 282.945804 61.238778 
L 283.318007 61.004536 
L 284.062414 61.025688 
L 284.80682 61.496913 
L 285.923429 63.317182 
L 287.040038 65.951225 
L 290.017663 73.236609 
L 291.506476 75.450544 
L 291.878679 75.768024 
L 292.995288 76.165412 
L 293.739695 75.890433 
L 294.484101 75.372007 
L 295.60071 73.754251 
L 296.717319 71.509175 
L 298.206132 68.060379 
L 299.694944 64.954327 
L 300.811554 63.59745 
L 301.183757 63.329717 
L 301.55596 63.22376 
L 302.300366 63.498935 
L 302.672569 63.766276 
L 303.416975 64.802344 
L 304.533585 66.881924 
L 306.3946 71.2009 
L 307.51121 73.395055 
L 308.255616 74.61601 
L 309.372225 75.767632 
L 310.116631 75.954869 
L 310.861038 75.925099 
L 311.233241 75.768807 
L 312.34985 74.640296 
L 313.466459 72.704277 
L 314.210866 71.199138 
L 316.816287 64.749072 
L 317.932897 62.438972 
L 318.677303 61.544702 
L 319.049506 61.186093 
L 319.421709 61.07191 
L 320.166115 61.271094 
L 320.910522 61.872366 
L 322.027131 63.782923 
L 323.888147 68.061162 
L 325.004756 70.707544 
L 326.121365 72.890339 
L 327.237975 74.248979 
L 327.610178 74.580364 
L 327.982381 74.760158 
L 329.09899 74.791299 
L 329.843396 74.242124 
L 330.587803 73.50865 
L 331.704412 71.625316 
L 333.193224 68.366303 
L 335.426443 63.665411 
L 335.798646 63.072169 
L 336.543052 62.481472 
L 337.287459 62.292865 
L 337.659662 62.455032 
L 338.404068 63.188506 
L 339.148474 64.450394 
L 340.637287 67.872163 
L 342.498302 72.577559 
L 343.614912 74.75017 
L 344.359318 75.873785 
L 345.475927 76.868137 
L 346.220333 76.898103 
L 346.96474 76.652501 
L 347.336943 76.376935 
L 348.453552 74.941324 
L 349.570161 72.68665 
L 350.314568 71.036579 
L 352.547786 65.471578 
L 353.664396 63.424119 
L 354.036599 62.919402 
L 354.781005 62.401172 
L 355.153208 62.232933 
L 355.525411 62.336932 
L 356.269817 62.940946 
L 357.014224 63.881046 
L 358.875239 67.716459 
L 359.991848 70.107642 
L 360.736255 71.572436 
L 361.852864 73.318084 
L 362.225067 73.762086 
L 363.341676 74.46011 
L 363.71388 74.560583 
L 364.458286 74.340639 
L 364.830489 74.214117 
L 365.574895 73.459295 
L 366.691505 71.794339 
L 368.55252 67.705099 
L 369.669129 65.047554 
L 370.413536 63.393761 
L 371.157942 62.149108 
L 371.902348 61.142222 
L 372.646754 60.864696 
L 373.391161 61.050366 
L 374.135567 61.949141 
L 374.879973 63.160303 
L 376.368785 66.738559 
L 377.485395 69.692627 
L 378.974207 73.115963 
L 380.090817 74.938386 
L 380.835223 75.620154 
L 381.579629 76.116449 
L 382.324035 76.031252 
L 383.068441 75.659521 
L 383.812848 74.780919 
L 384.557254 73.754251 
L 385.30166 72.284366 
L 389.023691 64.446477 
L 389.768097 63.532622 
L 390.140301 63.266652 
L 390.884707 63.216905 
L 391.25691 63.289567 
L 392.001316 64.019319 
L 393.117925 65.841547 
L 396.09555 72.382097 
L 396.839957 73.728594 
L 397.956566 75.144816 
L 398.700972 75.608403 
L 399.445378 75.787805 
L 399.817581 75.75216 
L 400.934191 74.978732 
L 401.678597 73.988493 
L 402.795206 71.945538 
L 406.517238 62.975221 
L 407.261644 61.854152 
L 407.633847 61.34023 
L 408.00605 61.021771 
L 408.750456 60.876839 
L 409.494862 61.207637 
L 410.611472 62.789355 
L 411.355878 64.295278 
L 414.333503 71.352883 
L 415.077909 72.744035 
L 416.194518 74.282078 
L 416.566722 74.573314 
L 417.683331 74.937211 
L 418.427737 74.651263 
L 419.172143 74.098563 
L 420.288753 72.442224 
L 421.033159 71.056556 
L 423.638581 65.222648 
L 424.382987 63.791933 
L 425.127393 62.911764 
L 425.871799 62.402152 
L 426.244002 62.396276 
L 426.988409 62.864955 
L 427.360612 63.233552 
L 428.105018 64.451374 
L 429.221627 66.87174 
L 431.082643 71.603185 
L 432.199252 74.029231 
L 432.943658 75.362214 
L 434.060268 76.61431 
L 434.804674 76.907895 
L 435.54908 76.911617 
L 435.921283 76.764138 
L 437.037893 75.63406 
L 437.782299 74.455605 
L 438.898908 72.204849 
L 441.50433 65.749104 
L 442.620939 63.471907 
L 443.365346 62.676739 
L 443.737549 62.355734 
L 444.109752 62.268775 
L 444.481955 62.338695 
L 445.226361 62.789747 
L 445.598564 63.166766 
L 447.087377 65.882089 
L 449.692799 71.536007 
L 450.809408 73.369594 
L 451.926017 74.418785 
L 452.29822 74.650872 
L 452.670423 74.701206 
L 453.787033 74.372171 
L 454.531439 73.639481 
L 455.275845 72.716812 
L 456.392455 70.544201 
L 456.392455 70.544201 
" style="fill:none;stroke:#1f77b4;stroke-linecap:square;stroke-width:1.5;"/>
   </g>
   <g id="line2d_28">
    <path clip-path="url(#pa9df118cfe)" d="M 84.561545 328.44792 
L 85.678155 330.99422 
L 86.422561 332.475857 
L 87.166967 333.323318 
L 87.53917 333.625325 
L 87.911373 333.741467 
L 88.283577 333.698183 
L 89.027983 333.244389 
L 89.400186 332.877162 
L 90.516795 330.955833 
L 91.261201 329.381753 
L 92.750014 326.099433 
L 93.49442 324.557473 
L 94.983233 322.349217 
L 96.099842 321.508415 
L 96.844248 321.530938 
L 97.216451 321.607321 
L 97.960857 322.121634 
L 99.44967 324.177516 
L 100.566279 326.390668 
L 103.543904 333.211681 
L 104.28831 334.522533 
L 105.032717 335.212723 
L 105.777123 335.502 
L 106.149326 335.366469 
L 106.893732 334.727201 
L 107.638138 333.618275 
L 109.499154 329.357663 
L 111.36017 324.819526 
L 112.476779 322.668851 
L 113.221185 321.643163 
L 113.965591 320.851324 
L 114.337794 320.639214 
L 115.082201 320.598476 
L 115.454404 320.589663 
L 115.826607 320.768086 
L 116.571013 321.423414 
L 117.315419 322.347454 
L 119.176435 326.048511 
L 121.03745 330.323224 
L 122.15406 332.262376 
L 122.526263 332.773164 
L 123.270669 333.265345 
L 123.642872 333.376786 
L 124.015075 333.317638 
L 124.387278 333.056565 
L 125.503888 331.642302 
L 126.9927 328.542909 
L 128.10931 325.836205 
L 129.598122 322.735833 
L 130.714731 321.05227 
L 131.459138 320.476263 
L 132.203544 320.139786 
L 132.94795 320.341712 
L 133.692356 320.804711 
L 134.436762 321.825307 
L 135.181169 323.013946 
L 136.669981 326.303121 
L 138.9032 331.958606 
L 140.019809 334.058751 
L 140.764215 334.963793 
L 141.508622 335.226237 
L 141.880825 335.24739 
L 142.625231 334.647097 
L 143.369637 333.695049 
L 144.114043 332.183251 
L 145.230653 329.674359 
L 147.091668 325.414726 
L 148.208278 323.555874 
L 148.952684 322.602848 
L 150.069293 321.859386 
L 150.441496 321.773993 
L 151.185903 322.008235 
L 151.558106 322.15395 
L 152.302512 322.936388 
L 153.419121 324.529661 
L 157.513355 333.028362 
L 158.257762 333.889728 
L 158.629965 334.130825 
L 159.374371 334.120445 
L 159.746574 333.963565 
L 160.118777 333.680556 
L 160.863183 332.546365 
L 161.60759 331.116825 
L 165.701824 321.4855 
L 166.818433 319.959796 
L 167.190636 319.661706 
L 168.307246 319.337175 
L 169.423855 320.014243 
L 169.796058 320.359534 
L 170.912667 322.133777 
L 172.029277 324.632681 
L 175.379105 332.344635 
L 176.123511 333.297661 
L 176.495714 333.603585 
L 176.867917 333.761248 
L 177.612324 333.615728 
L 177.984527 333.397743 
L 178.728933 332.4124 
L 179.845542 330.434861 
L 182.078761 325.474266 
L 183.567573 322.955777 
L 184.684183 321.795145 
L 185.428589 321.62201 
L 186.172995 321.652368 
L 186.545198 321.7973 
L 187.661808 322.821421 
L 188.778417 324.696333 
L 189.522823 326.126852 
L 191.756042 331.474259 
L 193.244854 334.2501 
L 193.98926 335.008252 
L 194.361464 335.300662 
L 194.733667 335.338853 
L 195.478073 334.963401 
L 196.222479 334.171171 
L 197.339088 332.082974 
L 199.200104 327.458856 
L 200.316713 324.712785 
L 201.433323 322.388584 
L 202.549932 320.942592 
L 203.294338 320.410652 
L 204.410948 320.278646 
L 205.155354 320.786105 
L 205.89976 321.517816 
L 207.016369 323.322808 
L 208.132979 325.78352 
L 211.110604 332.104909 
L 211.85501 332.82624 
L 212.227213 333.063224 
L 212.599416 333.15645 
L 212.971619 333.0785 
L 213.716025 332.551849 
L 214.088229 332.132329 
L 215.204838 330.071943 
L 215.949244 328.452816 
L 217.81026 324.159693 
L 218.926869 322.123397 
L 219.671275 321.131787 
L 220.787885 320.224787 
L 221.532291 320.239867 
L 222.276697 320.533453 
L 222.6489 320.838202 
L 223.765509 322.268133 
L 224.882119 324.512035 
L 225.626525 326.192268 
L 227.859744 331.797222 
L 228.976353 333.958473 
L 229.720759 334.825716 
L 230.465165 335.299878 
L 230.837369 335.249936 
L 231.581775 334.738169 
L 232.326181 333.805119 
L 233.814993 330.782698 
L 236.048212 325.609993 
L 237.537025 323.007287 
L 238.653634 321.94184 
L 239.025837 321.753037 
L 239.770243 321.771251 
L 240.142446 321.780848 
L 240.886853 322.32356 
L 241.631259 323.180226 
L 242.003462 323.69924 
L 243.864477 327.432024 
L 245.35329 330.859668 
L 246.097696 332.279807 
L 247.214305 333.860154 
L 247.958712 334.202116 
L 248.330915 334.198395 
L 248.703118 334.05738 
L 249.075321 333.700925 
L 250.19193 332.021867 
L 251.680743 328.535663 
L 252.797352 325.614106 
L 254.286165 322.268329 
L 255.402774 320.477047 
L 256.14718 319.852076 
L 256.891586 319.432165 
L 257.635993 319.581797 
L 258.380399 320.02952 
L 259.124805 321.036406 
L 259.869211 322.185287 
L 260.985821 324.639927 
L 261.730227 326.466268 
L 262.846836 329.233099 
L 263.963446 331.734353 
L 265.080055 333.449644 
L 265.452258 333.766928 
L 266.196664 333.917736 
L 266.568867 333.895408 
L 267.313274 333.247523 
L 268.05768 332.234956 
L 269.174289 329.977345 
L 272.151914 323.845934 
L 273.268523 322.44499 
L 274.01293 321.97964 
L 274.757336 321.737368 
L 275.129539 321.756954 
L 276.246148 322.473193 
L 276.990554 323.412509 
L 278.107164 325.300543 
L 281.456992 332.988407 
L 282.201398 334.243637 
L 282.945804 335.085222 
L 283.318007 335.319464 
L 284.062414 335.298312 
L 284.80682 334.827087 
L 285.923429 333.006818 
L 287.040038 330.372775 
L 290.017663 323.087391 
L 291.506476 320.873456 
L 291.878679 320.555976 
L 292.995288 320.158588 
L 293.739695 320.433567 
L 294.484101 320.951993 
L 295.60071 322.569749 
L 296.717319 324.814825 
L 298.206132 328.263621 
L 299.694944 331.369673 
L 300.811554 332.72655 
L 301.183757 332.994087 
L 301.55596 333.10024 
L 302.300366 332.825065 
L 302.672569 332.557724 
L 303.416975 331.521656 
L 304.533585 329.442076 
L 306.3946 325.1231 
L 307.51121 322.928945 
L 308.255616 321.70799 
L 309.372225 320.556368 
L 310.116631 320.369131 
L 310.861038 320.398901 
L 311.233241 320.555193 
L 312.34985 321.683704 
L 313.466459 323.619527 
L 314.210866 325.124862 
L 316.816287 331.574928 
L 317.932897 333.885028 
L 318.677303 334.779298 
L 319.049506 335.137907 
L 319.421709 335.25209 
L 320.166115 335.052906 
L 320.910522 334.451634 
L 322.027131 332.541077 
L 323.888147 328.262838 
L 325.004756 325.616456 
L 326.121365 323.433661 
L 327.237975 322.075021 
L 327.610178 321.743636 
L 327.982381 321.563842 
L 329.09899 321.532701 
L 329.843396 322.081876 
L 330.587803 322.81535 
L 331.704412 324.698684 
L 333.193224 327.957697 
L 335.426443 332.658393 
L 335.798646 333.251831 
L 336.543052 333.842332 
L 337.287459 334.031135 
L 337.659662 333.868968 
L 338.404068 333.135494 
L 339.148474 331.873606 
L 340.637287 328.451837 
L 342.498302 323.746441 
L 343.614912 321.57383 
L 344.359318 320.450215 
L 345.475927 319.455863 
L 346.220333 319.425897 
L 346.96474 319.671499 
L 347.336943 319.94687 
L 348.453552 321.382676 
L 349.570161 323.637154 
L 350.314568 325.287421 
L 352.547786 330.852422 
L 353.664396 332.899881 
L 354.036599 333.404598 
L 354.781005 333.922828 
L 355.153208 334.091067 
L 355.525411 333.987068 
L 356.269817 333.382858 
L 357.014224 332.442954 
L 358.875239 328.607541 
L 359.991848 326.216358 
L 360.736255 324.751564 
L 361.852864 323.00572 
L 362.225067 322.561914 
L 363.341676 321.86389 
L 363.71388 321.763417 
L 364.458286 321.983165 
L 364.830489 322.109687 
L 365.574895 322.864705 
L 366.691505 324.529661 
L 368.55252 328.618901 
L 369.669129 331.276446 
L 370.413536 332.930239 
L 371.157942 334.174892 
L 371.902348 335.181778 
L 372.646754 335.459304 
L 373.391161 335.273634 
L 374.135567 334.374859 
L 374.879973 333.163697 
L 376.368785 329.585441 
L 377.485395 326.631373 
L 378.974207 323.208037 
L 380.090817 321.385614 
L 380.835223 320.703846 
L 381.579629 320.207551 
L 382.324035 320.292748 
L 383.068441 320.664479 
L 383.812848 321.543081 
L 384.557254 322.569749 
L 385.30166 324.039634 
L 389.023691 331.877327 
L 389.768097 332.791182 
L 390.140301 333.057348 
L 390.884707 333.107095 
L 391.25691 333.034433 
L 392.001316 332.304485 
L 393.117925 330.482257 
L 396.09555 323.941903 
L 396.839957 322.595406 
L 397.956566 321.179184 
L 398.700972 320.715597 
L 399.445378 320.535999 
L 399.817581 320.571644 
L 400.934191 321.345268 
L 401.678597 322.335507 
L 402.795206 324.378462 
L 406.517238 333.348779 
L 407.261644 334.469848 
L 407.633847 334.98377 
L 408.00605 335.302229 
L 408.750456 335.446965 
L 409.494862 335.116167 
L 410.611472 333.534645 
L 411.355878 332.028526 
L 414.333503 324.971117 
L 415.077909 323.579769 
L 416.194518 322.041922 
L 416.566722 321.750686 
L 417.683331 321.386789 
L 418.427737 321.672737 
L 419.172143 322.225241 
L 420.288753 323.881776 
L 421.033159 325.267444 
L 424.010784 331.820529 
L 424.75519 333.010931 
L 425.499596 333.727561 
L 425.871799 333.921848 
L 426.244002 333.927724 
L 426.988409 333.458849 
L 427.360612 333.090448 
L 428.105018 331.872626 
L 429.221627 329.452064 
L 431.082643 324.720619 
L 432.199252 322.294769 
L 432.943658 320.961786 
L 434.060268 319.709494 
L 434.804674 319.415909 
L 435.54908 319.412383 
L 435.921283 319.559862 
L 437.037893 320.68994 
L 437.782299 321.868199 
L 438.898908 324.118955 
L 441.50433 330.574896 
L 442.620939 332.852093 
L 443.365346 333.647261 
L 443.737549 333.968266 
L 444.109752 334.055225 
L 444.481955 333.985305 
L 445.226361 333.534057 
L 445.598564 333.157234 
L 447.087377 330.441911 
L 449.692799 324.787993 
L 450.809408 322.954406 
L 451.926017 321.905215 
L 452.29822 321.673128 
L 452.670423 321.622794 
L 453.787033 321.951829 
L 454.531439 322.684519 
L 455.275845 323.607188 
L 456.392455 325.779799 
L 456.392455 325.779799 
" style="fill:none;stroke:#ff7f0e;stroke-linecap:square;stroke-width:1.5;"/>
   </g>
   <g id="line2d_29">
    <path clip-path="url(#pa9df118cfe)" d="M 84.561545 241.168248 
L 456.392455 241.168248 
L 456.392455 241.168248 
" style="fill:none;stroke:#2ca02c;stroke-dasharray:5.55,2.4;stroke-dashoffset:0;stroke-width:1.5;"/>
   </g>
   <g id="patch_3">
    <path d="M 65.97 349.236 
L 65.97 47.088 
" style="fill:none;stroke:#000000;stroke-linecap:square;stroke-linejoin:miter;stroke-width:0.8;"/>
   </g>
   <g id="patch_4">
    <path d="M 474.984 349.236 
L 474.984 47.088 
" style="fill:none;stroke:#000000;stroke-linecap:square;stroke-linejoin:miter;stroke-width:0.8;"/>
   </g>
   <g id="patch_5">
    <path d="M 65.97 349.236 
L 474.984 349.236 
" style="fill:none;stroke:#000000;stroke-linecap:square;stroke-linejoin:miter;stroke-width:0.8;"/>
   </g>
   <g id="patch_6">
    <path d="M 65.97 47.088 
L 474.984 47.088 
" style="fill:none;stroke:#000000;stroke-linecap:square;stroke-linejoin:miter;stroke-width:0.8;"/>
   </g>
   <g id="text_16">
    <!-- n = 10, N = 1.0e+08, dt = 2.48e-06, VelocityVerlet, Simulated time = 248.0 years -->
    <g transform="translate(22.595437 41.088)scale(0.12 -0.12)">
     <defs>
      <path d="M 10.59375 45.40625 
L 73.1875 45.40625 
L 73.1875 37.203125 
L 10.59375 37.203125 
z
M 10.59375 25.484375 
L 73.1875 25.484375 
L 73.1875 17.1875 
L 10.59375 17.1875 
z
" id="DejaVuSans-61"/>
      <path d="M 11.71875 12.40625 
L 22.015625 12.40625 
L 22.015625 4 
L 14.015625 -11.625 
L 7.71875 -11.625 
L 11.71875 4 
z
" id="DejaVuSans-44"/>
      <path d="M 9.8125 72.90625 
L 23.09375 72.90625 
L 55.421875 11.921875 
L 55.421875 72.90625 
L 64.984375 72.90625 
L 64.984375 0 
L 51.703125 0 
L 19.390625 60.984375 
L 19.390625 0 
L 9.8125 0 
z
" id="DejaVuSans-78"/>
      <path d="M 46 62.703125 
L 46 35.5 
L 73.1875 35.5 
L 73.1875 27.203125 
L 46 27.203125 
L 46 0 
L 37.796875 0 
L 37.796875 27.203125 
L 10.59375 27.203125 
L 10.59375 35.5 
L 37.796875 35.5 
L 37.796875 62.703125 
z
" id="DejaVuSans-43"/>
      <path d="M 45.40625 46.390625 
L 45.40625 75.984375 
L 54.390625 75.984375 
L 54.390625 0 
L 45.40625 0 
L 45.40625 8.203125 
Q 42.578125 3.328125 38.25 0.953125 
Q 33.9375 -1.421875 27.875 -1.421875 
Q 17.96875 -1.421875 11.734375 6.484375 
Q 5.515625 14.40625 5.515625 27.296875 
Q 5.515625 40.1875 11.734375 48.09375 
Q 17.96875 56 27.875 56 
Q 33.9375 56 38.25 53.625 
Q 42.578125 51.265625 45.40625 46.390625 
z
M 14.796875 27.296875 
Q 14.796875 17.390625 18.875 11.75 
Q 22.953125 6.109375 30.078125 6.109375 
Q 37.203125 6.109375 41.296875 11.75 
Q 45.40625 17.390625 45.40625 27.296875 
Q 45.40625 37.203125 41.296875 42.84375 
Q 37.203125 48.484375 30.078125 48.484375 
Q 22.953125 48.484375 18.875 42.84375 
Q 14.796875 37.203125 14.796875 27.296875 
z
" id="DejaVuSans-100"/>
      <path d="M 18.3125 70.21875 
L 18.3125 54.6875 
L 36.8125 54.6875 
L 36.8125 47.703125 
L 18.3125 47.703125 
L 18.3125 18.015625 
Q 18.3125 11.328125 20.140625 9.421875 
Q 21.96875 7.515625 27.59375 7.515625 
L 36.8125 7.515625 
L 36.8125 0 
L 27.59375 0 
Q 17.1875 0 13.234375 3.875 
Q 9.28125 7.765625 9.28125 18.015625 
L 9.28125 47.703125 
L 2.6875 47.703125 
L 2.6875 54.6875 
L 9.28125 54.6875 
L 9.28125 70.21875 
z
" id="DejaVuSans-116"/>
      <path d="M 4.890625 31.390625 
L 31.203125 31.390625 
L 31.203125 23.390625 
L 4.890625 23.390625 
z
" id="DejaVuSans-45"/>
      <path d="M 28.609375 0 
L 0.78125 72.90625 
L 11.078125 72.90625 
L 34.1875 11.53125 
L 57.328125 72.90625 
L 67.578125 72.90625 
L 39.796875 0 
z
" id="DejaVuSans-86"/>
      <path d="M 9.421875 75.984375 
L 18.40625 75.984375 
L 18.40625 0 
L 9.421875 0 
z
" id="DejaVuSans-108"/>
      <path d="M 30.609375 48.390625 
Q 23.390625 48.390625 19.1875 42.75 
Q 14.984375 37.109375 14.984375 27.296875 
Q 14.984375 17.484375 19.15625 11.84375 
Q 23.34375 6.203125 30.609375 6.203125 
Q 37.796875 6.203125 41.984375 11.859375 
Q 46.1875 17.53125 46.1875 27.296875 
Q 46.1875 37.015625 41.984375 42.703125 
Q 37.796875 48.390625 30.609375 48.390625 
z
M 30.609375 56 
Q 42.328125 56 49.015625 48.375 
Q 55.71875 40.765625 55.71875 27.296875 
Q 55.71875 13.875 49.015625 6.21875 
Q 42.328125 -1.421875 30.609375 -1.421875 
Q 18.84375 -1.421875 12.171875 6.21875 
Q 5.515625 13.875 5.515625 27.296875 
Q 5.515625 40.765625 12.171875 48.375 
Q 18.84375 56 30.609375 56 
z
" id="DejaVuSans-111"/>
      <path d="M 48.78125 52.59375 
L 48.78125 44.1875 
Q 44.96875 46.296875 41.140625 47.34375 
Q 37.3125 48.390625 33.40625 48.390625 
Q 24.65625 48.390625 19.8125 42.84375 
Q 14.984375 37.3125 14.984375 27.296875 
Q 14.984375 17.28125 19.8125 11.734375 
Q 24.65625 6.203125 33.40625 6.203125 
Q 37.3125 6.203125 41.140625 7.25 
Q 44.96875 8.296875 48.78125 10.40625 
L 48.78125 2.09375 
Q 45.015625 0.34375 40.984375 -0.53125 
Q 36.96875 -1.421875 32.421875 -1.421875 
Q 20.0625 -1.421875 12.78125 6.34375 
Q 5.515625 14.109375 5.515625 27.296875 
Q 5.515625 40.671875 12.859375 48.328125 
Q 20.21875 56 33.015625 56 
Q 37.15625 56 41.109375 55.140625 
Q 45.0625 54.296875 48.78125 52.59375 
z
" id="DejaVuSans-99"/>
      <path d="M 53.515625 70.515625 
L 53.515625 60.890625 
Q 47.90625 63.578125 42.921875 64.890625 
Q 37.9375 66.21875 33.296875 66.21875 
Q 25.25 66.21875 20.875 63.09375 
Q 16.5 59.96875 16.5 54.203125 
Q 16.5 49.359375 19.40625 46.890625 
Q 22.3125 44.4375 30.421875 42.921875 
L 36.375 41.703125 
Q 47.40625 39.59375 52.65625 34.296875 
Q 57.90625 29 57.90625 20.125 
Q 57.90625 9.515625 50.796875 4.046875 
Q 43.703125 -1.421875 29.984375 -1.421875 
Q 24.8125 -1.421875 18.96875 -0.25 
Q 13.140625 0.921875 6.890625 3.21875 
L 6.890625 13.375 
Q 12.890625 10.015625 18.65625 8.296875 
Q 24.421875 6.59375 29.984375 6.59375 
Q 38.421875 6.59375 43.015625 9.90625 
Q 47.609375 13.234375 47.609375 19.390625 
Q 47.609375 24.75 44.3125 27.78125 
Q 41.015625 30.8125 33.5 32.328125 
L 27.484375 33.5 
Q 16.453125 35.6875 11.515625 40.375 
Q 6.59375 45.0625 6.59375 53.421875 
Q 6.59375 63.09375 13.40625 68.65625 
Q 20.21875 74.21875 32.171875 74.21875 
Q 37.3125 74.21875 42.625 73.28125 
Q 47.953125 72.359375 53.515625 70.515625 
z
" id="DejaVuSans-83"/>
      <path d="M 8.5 21.578125 
L 8.5 54.6875 
L 17.484375 54.6875 
L 17.484375 21.921875 
Q 17.484375 14.15625 20.5 10.265625 
Q 23.53125 6.390625 29.59375 6.390625 
Q 36.859375 6.390625 41.078125 11.03125 
Q 45.3125 15.671875 45.3125 23.6875 
L 45.3125 54.6875 
L 54.296875 54.6875 
L 54.296875 0 
L 45.3125 0 
L 45.3125 8.40625 
Q 42.046875 3.421875 37.71875 1 
Q 33.40625 -1.421875 27.6875 -1.421875 
Q 18.265625 -1.421875 13.375 4.4375 
Q 8.5 10.296875 8.5 21.578125 
z
M 31.109375 56 
z
" id="DejaVuSans-117"/>
      <path d="M 44.28125 53.078125 
L 44.28125 44.578125 
Q 40.484375 46.53125 36.375 47.5 
Q 32.28125 48.484375 27.875 48.484375 
Q 21.1875 48.484375 17.84375 46.4375 
Q 14.5 44.390625 14.5 40.28125 
Q 14.5 37.15625 16.890625 35.375 
Q 19.28125 33.59375 26.515625 31.984375 
L 29.59375 31.296875 
Q 39.15625 29.25 43.1875 25.515625 
Q 47.21875 21.78125 47.21875 15.09375 
Q 47.21875 7.46875 41.1875 3.015625 
Q 35.15625 -1.421875 24.609375 -1.421875 
Q 20.21875 -1.421875 15.453125 -0.5625 
Q 10.6875 0.296875 5.421875 2 
L 5.421875 11.28125 
Q 10.40625 8.6875 15.234375 7.390625 
Q 20.0625 6.109375 24.8125 6.109375 
Q 31.15625 6.109375 34.5625 8.28125 
Q 37.984375 10.453125 37.984375 14.40625 
Q 37.984375 18.0625 35.515625 20.015625 
Q 33.0625 21.96875 24.703125 23.78125 
L 21.578125 24.515625 
Q 13.234375 26.265625 9.515625 29.90625 
Q 5.8125 33.546875 5.8125 39.890625 
Q 5.8125 47.609375 11.28125 51.796875 
Q 16.75 56 26.8125 56 
Q 31.78125 56 36.171875 55.265625 
Q 40.578125 54.546875 44.28125 53.078125 
z
" id="DejaVuSans-115"/>
     </defs>
     <use xlink:href="#DejaVuSans-110"/>
     <use x="63.378906" xlink:href="#DejaVuSans-32"/>
     <use x="95.166016" xlink:href="#DejaVuSans-61"/>
     <use x="178.955078" xlink:href="#DejaVuSans-32"/>
     <use x="210.742188" xlink:href="#DejaVuSans-49"/>
     <use x="274.365234" xlink:href="#DejaVuSans-48"/>
     <use x="337.988281" xlink:href="#DejaVuSans-44"/>
     <use x="369.775391" xlink:href="#DejaVuSans-32"/>
     <use x="401.5625" xlink:href="#DejaVuSans-78"/>
     <use x="476.367188" xlink:href="#DejaVuSans-32"/>
     <use x="508.154297" xlink:href="#DejaVuSans-61"/>
     <use x="591.943359" xlink:href="#DejaVuSans-32"/>
     <use x="623.730469" xlink:href="#DejaVuSans-49"/>
     <use x="687.353516" xlink:href="#DejaVuSans-46"/>
     <use x="719.140625" xlink:href="#DejaVuSans-48"/>
     <use x="782.763672" xlink:href="#DejaVuSans-101"/>
     <use x="844.287109" xlink:href="#DejaVuSans-43"/>
     <use x="928.076172" xlink:href="#DejaVuSans-48"/>
     <use x="991.699219" xlink:href="#DejaVuSans-56"/>
     <use x="1055.322266" xlink:href="#DejaVuSans-44"/>
     <use x="1087.109375" xlink:href="#DejaVuSans-32"/>
     <use x="1118.896484" xlink:href="#DejaVuSans-100"/>
     <use x="1182.373047" xlink:href="#DejaVuSans-116"/>
     <use x="1221.582031" xlink:href="#DejaVuSans-32"/>
     <use x="1253.369141" xlink:href="#DejaVuSans-61"/>
     <use x="1337.158203" xlink:href="#DejaVuSans-32"/>
     <use x="1368.945312" xlink:href="#DejaVuSans-50"/>
     <use x="1432.568359" xlink:href="#DejaVuSans-46"/>
     <use x="1464.355469" xlink:href="#DejaVuSans-52"/>
     <use x="1527.978516" xlink:href="#DejaVuSans-56"/>
     <use x="1591.601562" xlink:href="#DejaVuSans-101"/>
     <use x="1653.125" xlink:href="#DejaVuSans-45"/>
     <use x="1689.208984" xlink:href="#DejaVuSans-48"/>
     <use x="1752.832031" xlink:href="#DejaVuSans-54"/>
     <use x="1816.455078" xlink:href="#DejaVuSans-44"/>
     <use x="1848.242188" xlink:href="#DejaVuSans-32"/>
     <use x="1880.029297" xlink:href="#DejaVuSans-86"/>
     <use x="1940.6875" xlink:href="#DejaVuSans-101"/>
     <use x="2002.210938" xlink:href="#DejaVuSans-108"/>
     <use x="2029.994141" xlink:href="#DejaVuSans-111"/>
     <use x="2091.175781" xlink:href="#DejaVuSans-99"/>
     <use x="2146.15625" xlink:href="#DejaVuSans-105"/>
     <use x="2173.939453" xlink:href="#DejaVuSans-116"/>
     <use x="2213.148438" xlink:href="#DejaVuSans-121"/>
     <use x="2272.328125" xlink:href="#DejaVuSans-86"/>
     <use x="2332.986328" xlink:href="#DejaVuSans-101"/>
     <use x="2394.509766" xlink:href="#DejaVuSans-114"/>
     <use x="2435.623047" xlink:href="#DejaVuSans-108"/>
     <use x="2463.40625" xlink:href="#DejaVuSans-101"/>
     <use x="2524.929688" xlink:href="#DejaVuSans-116"/>
     <use x="2564.138672" xlink:href="#DejaVuSans-44"/>
     <use x="2595.925781" xlink:href="#DejaVuSans-32"/>
     <use x="2627.712891" xlink:href="#DejaVuSans-83"/>
     <use x="2691.189453" xlink:href="#DejaVuSans-105"/>
     <use x="2718.972656" xlink:href="#DejaVuSans-109"/>
     <use x="2816.384766" xlink:href="#DejaVuSans-117"/>
     <use x="2879.763672" xlink:href="#DejaVuSans-108"/>
     <use x="2907.546875" xlink:href="#DejaVuSans-97"/>
     <use x="2968.826172" xlink:href="#DejaVuSans-116"/>
     <use x="3008.035156" xlink:href="#DejaVuSans-101"/>
     <use x="3069.558594" xlink:href="#DejaVuSans-100"/>
     <use x="3133.035156" xlink:href="#DejaVuSans-32"/>
     <use x="3164.822266" xlink:href="#DejaVuSans-116"/>
     <use x="3204.03125" xlink:href="#DejaVuSans-105"/>
     <use x="3231.814453" xlink:href="#DejaVuSans-109"/>
     <use x="3329.226562" xlink:href="#DejaVuSans-101"/>
     <use x="3390.75" xlink:href="#DejaVuSans-32"/>
     <use x="3422.537109" xlink:href="#DejaVuSans-61"/>
     <use x="3506.326172" xlink:href="#DejaVuSans-32"/>
     <use x="3538.113281" xlink:href="#DejaVuSans-50"/>
     <use x="3601.736328" xlink:href="#DejaVuSans-52"/>
     <use x="3665.359375" xlink:href="#DejaVuSans-56"/>
     <use x="3728.982422" xlink:href="#DejaVuSans-46"/>
     <use x="3760.769531" xlink:href="#DejaVuSans-48"/>
     <use x="3824.392578" xlink:href="#DejaVuSans-32"/>
     <use x="3856.179688" xlink:href="#DejaVuSans-121"/>
     <use x="3915.359375" xlink:href="#DejaVuSans-101"/>
     <use x="3976.882812" xlink:href="#DejaVuSans-97"/>
     <use x="4038.162109" xlink:href="#DejaVuSans-114"/>
     <use x="4079.275391" xlink:href="#DejaVuSans-115"/>
    </g>
   </g>
   <g id="legend_1">
    <g id="patch_7">
     <path d="M 354.157438 221.679188 
L 467.984 221.679188 
Q 469.984 221.679188 469.984 219.679188 
L 469.984 176.644813 
Q 469.984 174.644813 467.984 174.644813 
L 354.157438 174.644813 
Q 352.157438 174.644813 352.157438 176.644813 
L 352.157438 219.679188 
Q 352.157438 221.679188 354.157438 221.679188 
z
" style="fill:#ffffff;opacity:0.8;stroke:#cccccc;stroke-linejoin:miter;"/>
    </g>
    <g id="line2d_30">
     <path d="M 356.157438 182.74325 
L 376.157438 182.74325 
" style="fill:none;stroke:#1f77b4;stroke-linecap:square;stroke-width:1.5;"/>
    </g>
    <g id="line2d_31"/>
    <g id="text_17">
     <!-- Kinetic energy -->
     <g transform="translate(384.157438 186.24325)scale(0.1 -0.1)">
      <defs>
       <path d="M 9.8125 72.90625 
L 19.671875 72.90625 
L 19.671875 42.09375 
L 52.390625 72.90625 
L 65.09375 72.90625 
L 28.90625 38.921875 
L 67.671875 0 
L 54.6875 0 
L 19.671875 35.109375 
L 19.671875 0 
L 9.8125 0 
z
" id="DejaVuSans-75"/>
      </defs>
      <use xlink:href="#DejaVuSans-75"/>
      <use x="65.576172" xlink:href="#DejaVuSans-105"/>
      <use x="93.359375" xlink:href="#DejaVuSans-110"/>
      <use x="156.738281" xlink:href="#DejaVuSans-101"/>
      <use x="218.261719" xlink:href="#DejaVuSans-116"/>
      <use x="257.470703" xlink:href="#DejaVuSans-105"/>
      <use x="285.253906" xlink:href="#DejaVuSans-99"/>
      <use x="340.234375" xlink:href="#DejaVuSans-32"/>
      <use x="372.021484" xlink:href="#DejaVuSans-101"/>
      <use x="433.544922" xlink:href="#DejaVuSans-110"/>
      <use x="496.923828" xlink:href="#DejaVuSans-101"/>
      <use x="558.447266" xlink:href="#DejaVuSans-114"/>
      <use x="597.810547" xlink:href="#DejaVuSans-103"/>
      <use x="661.287109" xlink:href="#DejaVuSans-121"/>
     </g>
    </g>
    <g id="line2d_32">
     <path d="M 356.157438 197.421375 
L 376.157438 197.421375 
" style="fill:none;stroke:#ff7f0e;stroke-linecap:square;stroke-width:1.5;"/>
    </g>
    <g id="line2d_33"/>
    <g id="text_18">
     <!-- Potential energy -->
     <g transform="translate(384.157438 200.921375)scale(0.1 -0.1)">
      <defs>
       <path d="M 19.671875 64.796875 
L 19.671875 37.40625 
L 32.078125 37.40625 
Q 38.96875 37.40625 42.71875 40.96875 
Q 46.484375 44.53125 46.484375 51.125 
Q 46.484375 57.671875 42.71875 61.234375 
Q 38.96875 64.796875 32.078125 64.796875 
z
M 9.8125 72.90625 
L 32.078125 72.90625 
Q 44.34375 72.90625 50.609375 67.359375 
Q 56.890625 61.8125 56.890625 51.125 
Q 56.890625 40.328125 50.609375 34.8125 
Q 44.34375 29.296875 32.078125 29.296875 
L 19.671875 29.296875 
L 19.671875 0 
L 9.8125 0 
z
" id="DejaVuSans-80"/>
      </defs>
      <use xlink:href="#DejaVuSans-80"/>
      <use x="56.677734" xlink:href="#DejaVuSans-111"/>
      <use x="117.859375" xlink:href="#DejaVuSans-116"/>
      <use x="157.068359" xlink:href="#DejaVuSans-101"/>
      <use x="218.591797" xlink:href="#DejaVuSans-110"/>
      <use x="281.970703" xlink:href="#DejaVuSans-116"/>
      <use x="321.179688" xlink:href="#DejaVuSans-105"/>
      <use x="348.962891" xlink:href="#DejaVuSans-97"/>
      <use x="410.242188" xlink:href="#DejaVuSans-108"/>
      <use x="438.025391" xlink:href="#DejaVuSans-32"/>
      <use x="469.8125" xlink:href="#DejaVuSans-101"/>
      <use x="531.335938" xlink:href="#DejaVuSans-110"/>
      <use x="594.714844" xlink:href="#DejaVuSans-101"/>
      <use x="656.238281" xlink:href="#DejaVuSans-114"/>
      <use x="695.601562" xlink:href="#DejaVuSans-103"/>
      <use x="759.078125" xlink:href="#DejaVuSans-121"/>
     </g>
    </g>
    <g id="line2d_34">
     <path d="M 356.157438 212.0995 
L 376.157438 212.0995 
" style="fill:none;stroke:#2ca02c;stroke-dasharray:5.55,2.4;stroke-dashoffset:0;stroke-width:1.5;"/>
    </g>
    <g id="line2d_35"/>
    <g id="text_19">
     <!-- Total energy -->
     <g transform="translate(384.157438 215.5995)scale(0.1 -0.1)">
      <use xlink:href="#DejaVuSans-84"/>
      <use x="44.083984" xlink:href="#DejaVuSans-111"/>
      <use x="105.265625" xlink:href="#DejaVuSans-116"/>
      <use x="144.474609" xlink:href="#DejaVuSans-97"/>
      <use x="205.753906" xlink:href="#DejaVuSans-108"/>
      <use x="233.537109" xlink:href="#DejaVuSans-32"/>
      <use x="265.324219" xlink:href="#DejaVuSans-101"/>
      <use x="326.847656" xlink:href="#DejaVuSans-110"/>
      <use x="390.226562" xlink:href="#DejaVuSans-101"/>
      <use x="451.75" xlink:href="#DejaVuSans-114"/>
      <use x="491.113281" xlink:href="#DejaVuSans-103"/>
      <use x="554.589844" xlink:href="#DejaVuSans-121"/>
     </g>
    </g>
   </g>
  </g>
 </g>
 <defs>
  <clipPath id="pa9df118cfe">
   <rect height="302.148" width="409.014" x="65.97" y="47.088"/>
  </clipPath>
 </defs>
</svg>
